<svg width="359" height="300" viewBox="0 0 359 300" fill="none" xmlns="http://www.w3.org/2000/svg">
<g clip-path="url(#clip0)">
<path opacity="0.24" d="M175.941 0.898396C145.104 -0.558413 113.009 -1.80344 84.6879 10.48C52.0284 24.6502 28.7965 55.4614 16.481 88.8653C4.16552 122.269 1.48294 158.375 0.218656 193.954C-1.06488 229.316 2.24664 271.056 32.185 289.918C50.9567 301.739 74.7919 300.597 96.92 299.05L266.872 287.19C292.139 285.425 319.561 282.762 338.025 265.428C361.847 243.075 361.424 204.852 352.144 173.527C342.864 142.202 326.473 112.559 324.028 79.964C321.904 52.2461 329.823 13.8236 296.233 6.21864C259.351 -2.11149 213.831 2.68892 175.941 0.898396Z" fill="#425AF2"/>
<path opacity="0.24" d="M133.224 262.72C123.393 262.778 113.086 264.106 105.064 269.779C103.722 270.729 102.4 271.878 101.913 273.444C100.629 277.551 105.551 280.779 109.697 281.928C121.146 285.105 133.218 284.899 145.091 284.675L181.716 283.975C184.81 283.911 188.365 283.622 190.175 281.107C191.753 278.912 191.266 275.716 189.674 273.527C188.083 271.339 185.618 269.959 183.16 268.823C167.552 261.622 150.039 262.624 133.224 262.72Z" fill="#425AF2"/>
<path d="M292.492 38.2236H163.772V67.3919H292.492V38.2236Z" fill="url(#paint0_linear)"/>
<path d="M292.369 38.2236H163.65V67.3919H292.369V38.2236Z" fill="url(#paint1_linear)"/>
<path d="M292.369 159.158H163.65V188.326H292.369V159.158Z" fill="url(#paint2_linear)"/>
<path d="M292.369 200.231H163.65V229.4H292.369V200.231Z" fill="url(#paint3_linear)"/>
<path d="M292.369 241.304H163.65V270.472H292.369V241.304Z" fill="url(#paint4_linear)"/>
<path d="M292.491 79.9385H163.772V109.107H292.491V79.9385Z" fill="url(#paint5_linear)"/>
<path d="M292.369 119.368H163.65V148.536H292.369V119.368Z" fill="url(#paint6_linear)"/>
<path d="M292.491 79.9385H163.772V109.107H292.491V79.9385Z" fill="url(#paint7_linear)"/>
<path d="M292.492 78.5068H163.772V107.675H292.492V78.5068Z" fill="url(#paint8_linear)"/>
<path d="M292.369 78.5068H163.65V107.675H292.369V78.5068Z" fill="url(#paint9_linear)"/>
<path d="M292.492 118.791H163.772V147.959H292.492V118.791Z" fill="url(#paint10_linear)"/>
<path d="M292.369 118.791H163.65V147.959H292.369V118.791Z" fill="url(#paint11_linear)"/>
<path d="M294.294 151.457H165.575V180.625H294.294V151.457Z" fill="url(#paint12_linear)"/>
<path d="M292.369 159.074H163.65V188.242H292.369V159.074Z" fill="url(#paint13_linear)"/>
<path d="M292.369 199.358H163.65V228.527H292.369V199.358Z" fill="url(#paint14_linear)"/>
<path d="M292.369 239.642H163.65V268.81H292.369V239.642Z" fill="url(#paint15_linear)"/>
<path d="M168.008 251.777L168.81 260.12C168.81 260.12 165.601 264.953 161.442 265.254C157.284 265.556 155.853 263.56 155.853 263.56L156.533 251.283" fill="#E9CAC5"/>
<path d="M155.853 263.574L156.129 258.651L168.354 255.372L168.81 260.134C168.81 260.134 165.601 264.966 161.442 265.268C157.284 265.57 155.853 263.574 155.853 263.574Z" fill="white"/>
<path d="M128.956 252.664L128.135 261.231C128.135 261.231 131.414 266.198 135.701 266.513C139.988 266.827 141.439 264.774 141.439 264.774L140.739 252.163" fill="#E9CAC5"/>
<path d="M141.439 264.774L141.163 259.723L128.603 256.341L128.135 261.231C128.135 261.231 131.414 266.198 135.701 266.513C139.988 266.827 141.439 264.774 141.439 264.774Z" fill="white"/>
<path d="M139.218 65.2998C139.218 65.2998 122.641 73.309 122.269 75.9339C121.897 78.5587 124.143 143.063 124.143 143.063C124.143 143.063 129.521 150.039 146.002 150.039C162.88 150.039 167.225 145.213 167.976 142.979C168.727 140.746 171.422 76.4216 171.05 73.6684C170.678 70.9153 155.391 65.3255 155.391 65.3255L139.218 65.2998Z" fill="#425AF2"/>
<path d="M140.797 71.3388V147.632C140.797 147.632 148.466 151.406 157.611 146.823L154.402 66.5127L146.9 71.8843L140.797 71.3388Z" fill="#F2FBFF"/>
<path d="M139.27 55.2814C139.27 55.2814 139.148 61.0573 139.218 65.2993C139.27 68.4568 140.348 74.5215 147.067 74.5215C153.786 74.5215 154.576 66.8203 154.454 65.2993C154.364 64.2212 154.89 62.0135 154.454 58.5736C154.011 54.8899 139.642 52.7207 139.27 55.2814Z" fill="#E9CAC5"/>
<path d="M141.953 65.9484C142.637 66.5874 143.445 67.0789 144.327 67.3924C145.616 67.8836 146.993 68.1021 148.37 68.0342C149.205 68.0085 150.022 67.7888 150.758 67.3924C151.562 66.8725 152.256 66.1985 152.798 65.4093C153.46 64.6561 153.973 63.7853 154.313 62.8423C154.461 62.3001 154.543 61.742 154.557 61.1801C154.61 59.9871 154.568 58.7916 154.428 57.6055C150.989 57.9777 147.549 58.2472 144.102 58.4911C142.126 58.6323 138.724 59.0815 139.61 61.8668C140.066 63.3896 140.868 64.7865 141.953 65.9484Z" fill="url(#paint16_linear)"/>
<path d="M124.143 143.063C124.143 143.063 123.392 155.256 125.273 191.478C127.153 227.699 128.09 253.036 128.09 253.036C128.09 253.036 128.334 255.994 134.565 256.084C140.797 256.174 142.453 252.054 142.453 252.054L148.543 159.235L154.903 253.96C154.903 253.96 162.386 258.26 168.22 255.032C172.359 252.741 167.982 142.992 167.982 142.992C167.982 142.992 147.985 153.973 124.143 143.063Z" fill="#606161"/>
<path d="M124.143 143.063C124.143 143.063 123.392 155.256 125.273 191.478C127.153 227.699 128.09 253.036 128.09 253.036C128.09 253.036 128.334 255.994 134.565 256.084C140.797 256.174 142.453 252.054 142.453 252.054L148.543 159.235L154.903 253.96C154.903 253.96 162.386 258.26 168.22 255.032C172.359 252.741 167.982 142.992 167.982 142.992C167.982 142.992 147.985 153.973 124.143 143.063Z" fill="url(#paint17_linear)"/>
<path d="M171.05 73.6816C171.05 73.6816 178.571 105.295 179.155 110.673C179.739 116.051 174.772 128.861 171.698 128.001C164.869 126.075 165.96 114.415 165.96 114.415L171.05 73.6816Z" fill="#425AF2"/>
<path d="M175.773 132.794C175.943 132.605 176.162 132.468 176.406 132.399C176.651 132.329 176.91 132.331 177.153 132.403C177.398 132.538 177.612 132.721 177.783 132.942C177.954 133.162 178.078 133.416 178.148 133.686C179.662 137.537 179.483 140.951 179.605 144.911C179.694 147.696 180.009 150.783 179.412 153.53C178.886 155.956 171.711 162.027 170.71 161.301C169.709 160.576 171.897 158.51 173.328 157.297C174.759 156.084 174.836 153.048 175.048 152.079C175.26 151.11 172.917 151.104 173.546 148.197C174.015 146.04 174.952 144.988 174.791 142.735C174.6 140.066 174.688 137.383 175.055 134.732C175.098 134.129 175.282 133.544 175.594 133.025C175.648 132.944 175.708 132.867 175.773 132.794Z" fill="#E9CAC5"/>
<path d="M168.008 122.917C167.899 123.398 173.97 143.351 173.97 143.351C173.97 143.351 176.666 143.909 180.895 141.862C180.895 141.862 180.106 113.849 179.406 111.904C178.707 109.96 177.352 110.409 171.063 112.636C164.774 114.863 168.008 122.917 168.008 122.917Z" fill="#425AF2"/>
<path d="M121.756 74.6631C121.756 74.6631 114.228 106.276 113.651 111.654C113.073 117.032 118.028 129.842 121.102 128.982C127.93 127.057 126.846 115.39 126.846 115.39L121.756 74.6631Z" fill="#425AF2"/>
<path d="M117.026 133.757C116.857 133.568 116.637 133.431 116.393 133.361C116.148 133.292 115.89 133.294 115.646 133.366C115.4 133.498 115.185 133.681 115.015 133.902C114.845 134.123 114.723 134.378 114.658 134.649C113.137 138.5 113.323 141.908 113.195 145.867C113.111 148.653 112.797 151.746 113.387 154.493C113.913 156.918 121.088 162.983 122.096 162.258C123.103 161.533 120.902 159.466 119.471 158.253C118.04 157.04 117.963 154.005 117.751 153.036C117.539 152.067 119.882 152.067 119.253 149.153C118.784 147.003 117.854 145.944 118.008 143.692C118.199 141.024 118.111 138.344 117.745 135.695C117.704 135.092 117.521 134.508 117.212 133.988C117.158 133.905 117.095 133.828 117.026 133.757Z" fill="#E9CAC5"/>
<path d="M124.791 123.893C124.906 124.375 118.829 144.327 118.829 144.327C118.829 144.327 116.134 144.885 111.904 142.838C111.904 142.838 112.694 114.825 113.393 112.88C114.093 110.936 115.447 111.385 121.736 113.619C128.025 115.852 124.791 123.893 124.791 123.893Z" fill="#425AF2"/>
<path d="M133.918 262.649C131.562 261.443 128.982 260.082 126.415 260.724C125.111 261.121 123.908 261.792 122.886 262.694C120.774 264.357 118.733 266.301 117.79 268.817C116.847 271.333 117.283 274.548 119.446 276.152C121.057 277.352 123.213 277.436 125.222 277.436C127.719 277.523 130.216 277.262 132.641 276.659C134.471 276.078 136.225 275.278 137.865 274.278C139.79 273.168 141.747 271.865 142.742 269.876C143.493 268.374 143.653 265.114 141.766 264.222C140.874 263.805 139.27 264.414 138.179 264.222C136.684 263.927 135.246 263.396 133.918 262.649Z" fill="#425AF2"/>
<path d="M162.501 262.649C164.85 261.443 167.43 260.082 169.997 260.724C171.301 261.121 172.505 261.792 173.527 262.694C175.638 264.357 177.679 266.301 178.623 268.817C179.566 271.333 179.13 274.548 176.973 276.152C175.362 277.352 173.2 277.436 171.197 277.436C168.7 277.523 166.203 277.262 163.778 276.659C161.948 276.078 160.194 275.278 158.555 274.278C156.629 273.168 154.704 271.865 153.677 269.876C152.926 268.374 152.766 265.114 154.653 264.222C155.545 263.805 157.149 264.414 158.24 264.222C159.735 263.926 161.173 263.396 162.501 262.649Z" fill="#425AF2"/>
<path d="M163.997 95.6934L162.38 145.276L167.983 142.992L169.022 127.236L167.052 115.229L163.997 95.6934Z" fill="url(#paint18_linear)"/>
<path d="M133.949 37.1711C134.066 43.7695 135.026 50.3258 136.805 56.6808C137.168 58.3029 137.841 59.8393 138.788 61.2053C139.932 62.6174 141.536 63.5828 143.319 63.9328C145.08 64.2583 146.891 64.197 148.626 63.7531C151.006 63.2945 153.169 62.0654 154.781 60.2555C155.726 59.0074 156.447 57.6046 156.912 56.1097C158.665 51.0543 159.221 45.661 158.535 40.3543C158.195 37.7872 157.457 35.0854 155.532 33.4938C154.373 32.6278 153.02 32.0573 151.591 31.8316C146.459 30.8122 141.131 31.6516 136.561 34.1998C135.824 34.5472 135.19 35.0829 134.726 35.7528C134.329 36.5491 134.135 37.4308 134.161 38.3199" fill="#E9CAC5"/>
<path d="M280.85 208.754H263.651C262.031 208.754 260.718 210.067 260.718 211.687V220.209C260.718 221.829 262.031 223.142 263.651 223.142H280.85C282.47 223.142 283.783 221.829 283.783 220.209V211.687C283.783 210.067 282.47 208.754 280.85 208.754Z" fill="#425AF2"/>
<path d="M272.846 211.731H270.703C269.804 211.731 268.942 211.374 268.307 210.739C267.671 210.103 267.314 209.241 267.314 208.343C267.314 207.444 267.671 206.582 268.307 205.947C268.942 205.311 269.804 204.954 270.703 204.954H272.846C273.745 204.954 274.607 205.311 275.243 205.947C275.878 206.582 276.235 207.444 276.235 208.343C276.235 209.241 275.878 210.103 275.243 210.739C274.607 211.374 273.745 211.731 272.846 211.731ZM270.703 207.239C270.402 207.239 270.113 207.358 269.9 207.572C269.687 207.785 269.567 208.073 269.567 208.375C269.567 208.676 269.687 208.965 269.9 209.178C270.113 209.391 270.402 209.511 270.703 209.511H272.846C273.148 209.511 273.437 209.391 273.65 209.178C273.863 208.965 273.982 208.676 273.982 208.375C273.982 208.073 273.863 207.785 273.65 207.572C273.437 207.358 273.148 207.239 272.846 207.239H270.703Z" fill="#425AF2"/>
<path d="M280.176 89.1542V103.754H275.163V94.5514H270.575V103.754H265.023V89.1542L272.577 85.1816L280.176 89.1542Z" fill="#425AF2"/>
<path d="M263.149 89.0259C263.025 89.0237 262.905 88.9805 262.808 88.903C262.71 88.8255 262.641 88.7181 262.611 88.5974C262.581 88.4768 262.592 88.3496 262.642 88.2356C262.691 88.1216 262.777 88.0272 262.886 87.967L272.513 82.8008L282.114 87.7552C282.179 87.7894 282.237 87.836 282.284 87.8925C282.331 87.9491 282.367 88.0144 282.389 88.0847C282.411 88.155 282.419 88.229 282.413 88.3024C282.406 88.3758 282.385 88.4472 282.351 88.5125C282.317 88.5778 282.27 88.6358 282.214 88.6831C282.157 88.7303 282.092 88.766 282.022 88.7881C281.951 88.8101 281.877 88.8181 281.804 88.8116C281.73 88.805 281.659 88.7841 281.594 88.75L272.551 84.0715L263.451 88.9617C263.358 89.0095 263.254 89.0316 263.149 89.0259Z" fill="#425AF2"/>
<path d="M271.935 140.939C270.113 140.483 265.036 136.972 263.708 133.731C263.412 133.05 263.249 132.318 263.227 131.575C263.27 130.543 263.652 129.554 264.315 128.761C264.977 127.969 265.883 127.417 266.891 127.192C267.922 126.972 268.996 127.081 269.961 127.505C270.926 127.929 271.734 128.646 272.269 129.554C272.868 128.587 273.771 127.847 274.836 127.449C277.737 126.409 279.855 129.194 279.97 130.054C280.882 137.287 271.935 140.939 271.935 140.939Z" fill="#425AF2"/>
<path d="M272.115 184.63V181.902C270.651 181.896 269.218 181.483 267.976 180.709L268.617 178.899C269.778 179.651 271.13 180.054 272.513 180.06C274.438 180.06 275.722 178.95 275.722 177.41C275.722 175.87 274.669 175.003 272.667 174.201C269.907 173.116 268.207 171.871 268.207 169.523C268.207 167.276 269.805 165.576 272.288 165.171V162.438H273.963V165.062C275.197 165.072 276.407 165.396 277.48 166.006L276.806 167.79C275.775 167.179 274.597 166.862 273.399 166.872C271.313 166.872 270.53 168.117 270.53 169.202C270.53 170.601 271.531 171.307 273.886 172.282C276.672 173.418 278.077 174.849 278.077 177.23C278.077 179.361 276.588 181.363 273.803 181.825V184.636L272.115 184.63Z" fill="#425AF2"/>
<path d="M268.265 62.6488C272.92 62.5076 277.573 62.4776 282.223 62.5589C282.46 61.0576 282.239 59.5197 281.589 58.1459C280.939 56.7721 279.89 55.6262 278.578 54.8577C277.936 54.4855 277.141 54.1325 276.935 53.4073C276.73 52.6821 277.166 52.0211 277.391 51.3408C277.623 50.6562 277.642 49.9176 277.448 49.2215C277.253 48.5254 276.853 47.9042 276.3 47.4389C275.728 46.9982 275.02 46.7711 274.298 46.7969C273.576 46.8227 272.886 47.0997 272.347 47.5801C271.907 48.0384 271.587 48.5984 271.416 49.2102C271.02 50.3575 271.085 51.6134 271.596 52.7142C271.89 53.1172 272.064 53.5958 272.096 54.094C272.045 54.6267 271.583 55.0053 271.191 55.3775C270.219 56.3148 269.455 57.4471 268.951 58.7002C268.446 59.9533 268.213 61.299 268.265 62.6488Z" fill="#425AF2"/>
<path d="M280.079 264.696H263.573V245.649L277.435 245.623L280.079 248.376V264.696Z" fill="#425AF2"/>
<path d="M276.691 252.131H267.276V253.928H276.691V252.131Z" fill="url(#paint19_linear)"/>
<path d="M276.691 257.926H267.276V259.723H276.691V257.926Z" fill="url(#paint20_linear)"/>
<path opacity="0.24" d="M257.81 51.8613H199.724C198.235 51.8613 197.028 53.0681 197.028 54.5567V54.5632C197.028 56.0518 198.235 57.2586 199.724 57.2586H257.81C259.299 57.2586 260.505 56.0518 260.505 54.5632V54.5567C260.505 53.0681 259.299 51.8613 257.81 51.8613Z" fill="#425AF2"/>
<path opacity="0.24" d="M257.81 93.1201H199.724C198.235 93.1201 197.028 94.3269 197.028 95.8155V95.8219C197.028 97.3106 198.235 98.5174 199.724 98.5174H257.81C259.299 98.5174 260.505 97.3106 260.505 95.8219V95.8155C260.505 94.3269 259.299 93.1201 257.81 93.1201Z" fill="#425AF2"/>
<path opacity="0.24" d="M257.81 134.38H199.724C198.235 134.38 197.028 135.587 197.028 137.075V137.082C197.028 138.57 198.235 139.777 199.724 139.777H257.81C259.299 139.777 260.505 138.57 260.505 137.082V137.075C260.505 135.587 259.299 134.38 257.81 134.38Z" fill="#425AF2"/>
<path opacity="0.24" d="M257.81 175.639H199.724C198.235 175.639 197.028 176.845 197.028 178.334V178.341C197.028 179.829 198.235 181.036 199.724 181.036H257.81C259.299 181.036 260.505 179.829 260.505 178.341V178.334C260.505 176.845 259.299 175.639 257.81 175.639Z" fill="#425AF2"/>
<path opacity="0.24" d="M257.81 216.897H199.724C198.235 216.897 197.028 218.104 197.028 219.593V219.599C197.028 221.088 198.235 222.295 199.724 222.295H257.81C259.299 222.295 260.505 221.088 260.505 219.599V219.593C260.505 218.104 259.299 216.897 257.81 216.897Z" fill="#425AF2"/>
<path opacity="0.24" d="M257.81 258.163H199.724C198.235 258.163 197.028 259.37 197.028 260.859V260.865C197.028 262.354 198.235 263.56 199.724 263.56H257.81C259.299 263.56 260.505 262.354 260.505 260.865V260.859C260.505 259.37 259.299 258.163 257.81 258.163Z" fill="#425AF2"/>
<path d="M134.95 48.4727C134.745 46.3998 133.711 44.5194 132.755 42.6968C131.799 40.8742 130.888 38.8462 130.971 36.7925C131.055 34.7389 132.466 32.544 134.533 32.3002C135.053 29.4956 136.458 26.7425 138.82 25.1637C142.208 22.8854 146.701 23.4823 150.616 24.6567C153.78 25.6065 157.168 27.2238 158.355 30.2786C158.73 31.3871 158.946 32.543 158.997 33.712C159.331 37.8578 159.581 42.3502 157.29 45.8158C157.372 42.8214 157.015 39.8311 156.231 36.9401C150.922 39.0466 145.033 39.1786 139.635 37.3123C133.866 35.3165 134.597 44.8724 134.95 48.4727Z" fill="#606161"/>
<g clip-path="url(#clip1)">
<path d="M45.5275 167.33C51.3502 167.581 57.1831 167.446 62.9881 166.928C72.171 166.31 81.5696 165.599 89.9621 161.812C90.3355 161.684 90.663 161.449 90.9034 161.137L75.6847 160.713C69.9255 160.433 64.1546 160.503 58.4037 160.921C54.4733 161.28 50.5788 161.963 46.6987 162.645C45.4844 162.861 39.2833 163.134 39.1684 164.88C39.039 166.806 44.2844 167.33 45.5275 167.33Z" fill="url(#paint21_linear)"/>
<path d="M70.7191 159.24C70.0437 160.131 81.4973 186.156 83.2792 191.761C85.0612 197.365 90.012 202.755 90.9102 206.347C91.8083 209.94 104.562 240.442 104.814 244.035C105.065 247.628 106.33 264.154 104.764 265.512C103.197 266.87 113.25 275.629 114.529 267.373C114.529 267.373 114.687 263.996 112.668 253.455C110.649 242.914 109.973 238.646 109.075 237.302C108.177 235.958 108.852 210.385 104.139 206.117C99.4249 201.849 92.6993 183.038 92.9221 179.201C93.1448 175.364 88.2156 154.052 88.2156 154.052L70.7191 159.24Z" fill="url(#paint22_linear)"/>
<path d="M42.1865 73.9121C40.1315 74.5013 38.4213 75.8881 36.7903 77.2605C28.1677 84.5322 19.8327 92.6229 9.32038 96.7043C1.33613 99.7858 -7.40051 100.348 -15.7136 98.3138C-21.462 96.8767 -26.8008 94.2972 -32.5204 92.8816C-38.2399 91.4661 -44.7356 91.4014 -49.5498 94.7498C-49.5498 94.7498 -38.6351 96.9055 -33.6341 106.706C-33.6341 106.706 -2.77987 117.355 18.956 97.7965C40.6919 78.2377 42.1865 73.9121 42.1865 73.9121Z" fill="url(#paint23_linear)"/>
<path d="M61.8387 99.1901C61.8387 100.534 61.0124 101.719 60.222 102.783L54.2509 111.06C51.8438 113.216 49.4438 115.372 47.0655 117.527C42.5386 121.616 37.9112 125.776 32.3282 128.234C26.7451 130.691 19.9477 131.208 14.7239 128.054C11.9072 126.358 9.62939 123.656 6.49655 122.643C2.14218 121.206 -2.46367 123.448 -7.01204 123.879C-11.1784 123.614 -15.2379 122.449 -18.9108 120.464C-22.5837 118.479 -25.7829 115.722 -28.2881 112.383C-26.3408 109.896 -22.6835 109.753 -19.5291 109.925C-10.7269 110.407 -1.68764 111.75 6.76242 109.25C14.8029 106.871 21.4494 101.252 27.4995 95.4465C31.3366 91.7819 37.7244 84.4169 43.6811 84.9558C46.3038 85.1929 48.9552 87.4132 51.1037 88.7712C54.0041 90.5809 56.7402 92.6415 59.2807 94.9291C60.5238 96.0932 61.8387 97.48 61.8387 99.1901Z" fill="url(#paint24_linear)"/>
<path d="M113.25 103.638C113.25 105.406 112.532 107.059 111.698 108.625C108.792 114.341 105.428 119.813 101.639 124.986C101.3 125.524 100.846 125.981 100.309 126.323C98.4987 127.3 96.6521 125.468 94.6976 124.598C94.3423 124.439 93.9715 124.316 93.5911 124.232C98.6238 117.939 101.686 110.3 102.393 102.273C102.493 101.668 102.438 101.048 102.235 100.47C101.861 99.8393 101.325 99.3208 100.683 98.9678C95.2178 95.2686 90.4356 90.6494 86.5494 85.3155C86.7869 86.4797 86.9191 87.6628 86.9446 88.8507C87.3038 98.8169 81.4621 108.826 82.7339 118.907C83.3519 123.937 85.723 128.565 86.3266 133.58C86.8799 138.078 85.9961 142.777 87.3038 147.132C88.7409 152.082 90.1205 157.701 93.4833 161.596C74.5353 161.596 59.8914 162.041 41.3027 164.118L39.7363 164.29C39.4578 164.334 39.1742 164.334 38.8956 164.29C38.7939 164.279 38.6946 164.253 38.601 164.211C38.4947 164.173 38.3989 164.11 38.3215 164.028C38.2441 163.945 38.1873 163.846 38.1555 163.737C38.1087 163.51 38.1236 163.274 38.1987 163.055C38.2346 162.897 38.2705 162.724 38.3136 162.552C38.3136 162.552 38.3136 162.552 38.3136 162.501C38.4573 161.934 38.6154 161.294 38.7591 160.604C39.8154 156.135 41.0728 150.027 40.8285 150.265C40.4333 142.21 40.11 133.738 43.329 126.438C43.5818 125.829 43.8673 125.234 44.1841 124.656C44.6861 123.717 45.2377 122.805 45.8367 121.925C47.0726 120.028 48.4307 118.21 49.5516 116.249C51.1971 113.375 52.3396 109.947 51.5923 106.714C51.2161 105.28 50.6608 103.899 49.9396 102.604C47.5972 98.0481 45.2595 93.4973 42.9267 88.9513C42.2656 89.7489 41.6117 90.5537 40.9147 91.3297C36.8911 95.9558 32.3679 100.122 27.4277 103.753C29.7579 110.241 33.1262 116.308 37.4011 121.717L33.0467 125.101C26.3673 120.322 20.4366 114.576 15.4496 108.05C14.7959 107.326 14.36 106.432 14.1921 105.471C14.0844 104.192 14.9107 103.049 15.6652 102.036C22.4558 93.2021 29.9172 84.9047 37.9831 77.2175C39.9016 75.3924 41.9279 73.5601 44.3853 72.5614C48.2295 70.9949 52.8785 71.577 56.2844 69.2201C65.0865 68.5016 73.5294 67.4525 82.3387 66.7555C83.1565 66.6447 83.9871 66.6714 84.7961 66.8346C86.046 67.2579 87.1632 68.0011 88.0367 68.9902C97.4928 78.166 107.207 87.6723 112.288 99.8372C112.852 101.03 113.179 102.321 113.25 103.638Z" fill="#425AF2"/>
<path d="M44.2776 133.746C43.8228 136.837 43.6807 139.967 43.8537 143.087C43.9974 145.731 44.3638 148.404 44.0405 151.034C43.7716 152.798 43.3214 154.529 42.6968 156.2C41.6837 159.031 42.9555 161.402 41.4034 163.982C41.3732 164.023 41.3395 164.061 41.3028 164.097L39.7364 164.269C39.4578 164.312 39.1743 164.312 38.8957 164.269C38.794 164.258 38.6946 164.232 38.6011 164.19C38.4948 164.152 38.399 164.089 38.3216 164.007C38.2442 163.924 38.1873 163.825 38.1556 163.716C38.1088 163.489 38.1237 163.253 38.1987 163.033C38.2347 162.875 38.2706 162.703 38.3137 162.53C38.3137 162.53 38.3137 162.53 38.3137 162.48C38.5604 161.915 38.7249 161.317 38.8023 160.705C39.8514 156.229 41.116 150.128 40.8645 150.366C40.4693 142.311 40.146 133.839 43.3651 126.531C43.5874 126.513 43.8109 126.513 44.0333 126.531C47.2595 126.682 44.5363 131.971 44.2776 133.746Z" fill="url(#paint25_linear)"/>
<path d="M64.5469 103.624C64.5469 105.061 63.3901 106.203 62.2188 107.008C61.0476 107.813 59.7111 108.445 58.8417 109.573C57.9723 110.701 57.6705 112.182 57.2322 113.561C56.5594 115.703 55.5027 117.704 54.1137 119.468C52.388 121.515 50.4436 123.368 48.3151 124.993C48.1211 125.172 47.8907 125.307 47.6396 125.388C46.9211 125.561 46.3247 124.67 46.1307 123.915C45.966 123.244 45.8721 122.558 45.8504 121.868C47.0863 119.971 48.4444 118.153 49.5653 116.191C51.2108 113.317 52.3533 109.889 51.606 106.656C51.2207 105.241 50.6607 103.88 49.939 102.603C47.5965 98.0479 45.2589 93.4971 42.926 88.9511C42.2649 89.7487 41.611 90.5535 40.9141 91.3295C41.3955 87.2266 45.0457 84.9632 48.3079 88.635C49.9605 90.5407 51.3125 92.6875 52.3173 95.0013C52.9188 96.5706 53.6544 98.0851 54.5161 99.5281C55.6229 101.097 57.1555 102.316 58.933 103.042C60.7104 103.768 62.6584 103.969 64.5469 103.624Z" fill="url(#paint26_linear)"/>
<path d="M75.7561 50.8685C76.2529 49.6364 76.4148 48.2947 76.2255 46.9797C76.0363 45.6648 75.5024 44.4233 74.6783 43.3813C74.3497 43.0298 74.0562 42.6472 73.8017 42.2388C73.4975 41.4421 73.3158 40.6038 73.2628 39.7527C72.7526 36.9216 70.2952 34.7229 67.5144 33.8678C64.7337 33.0127 61.7661 33.3576 58.9925 34.1049C56.1157 34.8753 53.3713 36.0743 50.8514 37.6617C49.2706 38.6533 47.7833 39.8173 46.2528 40.8664C39.7859 45.4076 32.0831 48.7273 24.1504 48.6051C25.0549 50.31 26.4378 51.7134 28.1293 52.6428C29.8208 53.5721 31.747 53.9869 33.6711 53.8361C31.4978 55.3387 29.1651 56.5966 26.7156 57.5869C27.6256 58.6035 28.8062 59.34 30.1193 59.7102C31.4325 60.0805 32.8239 60.0693 34.1309 59.6778C35.2303 59.3258 36.2291 58.7006 37.3285 58.3557C37.8678 58.1426 38.4517 58.0671 39.0275 58.1361C39.6033 58.2051 40.1529 58.4164 40.6266 58.7509C40.806 58.8916 40.9408 59.0813 41.0146 59.297C41.187 59.9365 40.5332 60.4754 39.9727 60.8203C38.2841 61.8478 36.4662 63.1412 36.1429 65.1316C36.8614 64.9879 37.4075 64.413 38.0757 64.1184C39.4482 63.5005 41.0218 64.1184 42.5092 64.3556C43.7557 64.5566 45.0302 64.4996 46.2538 64.1881C47.4774 63.8766 48.624 63.3173 49.6227 62.5448L49.0982 65.304C49.0534 65.4367 49.0385 65.5777 49.0546 65.7169C49.0708 65.856 49.1176 65.9899 49.1916 66.1088C49.2666 66.1814 49.3556 66.2379 49.4532 66.275C49.5508 66.312 49.6549 66.3288 49.7592 66.3244C51.958 66.4465 53.352 63.5939 55.5579 63.4933C55.9315 63.4933 56.2764 63.5436 56.6644 63.4933C58.6835 63.3783 59.5889 60.9856 61.026 59.5701C62.1094 58.6351 63.3812 57.944 64.7552 57.5438C66.1923 56.9977 67.5216 56.1929 68.9371 55.5893C71.7898 54.4181 74.3693 54.1666 75.7561 50.8685Z" fill="#404040"/>
<path d="M48.4592 50.3078C45.3766 50.7318 43.0054 53.1461 40.8857 55.4166C41.3556 55.4822 41.8033 55.6584 42.1918 55.9307C42.5803 56.203 42.8985 56.5637 43.1204 56.9831C43.5449 57.8214 44.025 58.6304 44.5575 59.4046C45.1082 59.9872 45.7791 60.4432 46.5235 60.741C47.2679 61.0387 48.0681 61.1712 48.8687 61.1291C50.4776 61.0211 52.0555 60.6345 53.5321 59.9866C54.1117 59.7036 54.7481 59.5562 55.3931 59.5555C56.1057 59.6906 56.7937 59.9329 57.4338 60.274C57.756 60.4449 58.1209 60.5189 58.4843 60.487C58.8476 60.4551 59.194 60.3188 59.4816 60.0944C58.5136 58.3407 57.7632 56.4755 57.2469 54.54C56.9811 53.5197 56.7368 52.3844 55.9464 51.709C53.9488 49.8911 51.0603 49.9557 48.4592 50.3078Z" fill="url(#paint27_linear)"/>
<path d="M53.5321 51.6666C53.4037 51.6746 53.2774 51.7037 53.1584 51.7528C52.9322 51.8694 52.7443 52.0486 52.6169 52.269C52.4895 52.4893 52.4281 52.7416 52.4399 52.9959C52.4722 53.5179 52.6599 54.0184 52.9788 54.4329C53.1966 54.8102 53.5113 55.1225 53.8903 55.3372C54.2693 55.552 54.6989 55.6615 55.1344 55.6545C55.3221 55.6436 55.5001 55.5673 55.6374 55.4389C55.7326 55.3008 55.7928 55.1417 55.8128 54.9752C55.8328 54.8088 55.8121 54.6399 55.7524 54.4832C55.4865 53.4126 54.8973 51.6306 53.5321 51.6666Z" fill="url(#paint28_linear)"/>
<path d="M74.2474 50.5232C74.376 50.5238 74.5032 50.5507 74.621 50.6023C74.8478 50.7201 75.036 50.9006 75.1634 51.1222C75.2908 51.3438 75.3519 51.5972 75.3396 51.8525C75.3108 52.3753 75.1228 52.8768 74.8007 53.2896C74.5818 53.6659 74.2668 53.9773 73.8881 54.1919C73.5093 54.4066 73.0803 54.5167 72.645 54.5111C72.4566 54.4977 72.2787 54.4189 72.1421 54.2884C72.0481 54.1497 71.9892 53.9903 71.9704 53.8238C71.9516 53.6574 71.9735 53.4888 72.0343 53.3327C72.3001 52.2621 72.8822 50.4801 74.2474 50.5232Z" fill="url(#paint29_linear)"/>
<path d="M56.7155 69.0765C56.3394 69.5639 56.1056 70.1458 56.04 70.7579C56.0749 71.1846 56.2183 71.5952 56.4568 71.9507C57.1237 73.0742 58.0549 74.0177 59.1696 74.6992C60.2843 75.3807 61.5486 75.7795 62.8525 75.861C64.1565 75.9424 65.4606 75.704 66.6514 75.1666C67.8422 74.6291 68.8837 73.8088 69.6852 72.777C69.9971 72.4346 70.2342 72.0309 70.3814 71.5917C70.5286 71.1525 70.5827 70.6874 70.5402 70.2262C70.3299 69.5493 70.0068 68.9128 69.5846 68.3436C68.7429 66.6802 68.4082 64.8064 68.6217 62.9545C68.7223 61.3666 68.9522 59.5989 67.9822 58.3343C65.9775 55.7188 61.659 57.7092 59.9345 59.7067C59.0795 60.6983 59.0076 61.8623 58.8064 63.1485C58.5044 65.2424 57.7939 67.2565 56.7155 69.0765Z" fill="url(#paint30_linear)"/>
<path d="M60.0708 62.9766C60.9043 65.3478 64.1162 67.3741 66.4371 68.3441C66.687 68.4789 66.9616 68.5618 67.2444 68.5877C67.5272 68.6137 67.8123 68.5821 68.0826 68.495C69.1388 68.0208 68.9376 66.4975 68.6359 65.3765C67.9173 62.6676 69.3544 59.7072 69.534 56.9121C67.9389 57.178 62.2983 57.2426 61.1055 58.4354C60.4852 58.9929 60.0528 59.7287 59.8675 60.5418C59.6822 61.3549 59.7533 62.2055 60.0708 62.9766Z" fill="url(#paint31_linear)"/>
<path d="M69.0738 61.0214C67.6798 62.4585 65.8619 63.7591 63.85 63.68C61.6943 63.601 59.9627 62.0561 58.583 60.4394C55.8167 57.2131 53.7401 53.1246 53.9844 48.8852C54.2287 44.6458 57.3471 40.4136 61.565 39.925C64.3314 39.6017 67.0187 40.8376 69.4187 42.2387C73.0545 44.3584 74.312 46.0254 73.924 50.272C73.5531 54.2963 71.8457 58.0805 69.0738 61.0214Z" fill="url(#paint32_linear)"/>
<path d="M90.573 126.273C89.1359 126.495 87.7923 125.446 86.8582 124.311C85.9241 123.176 85.1337 121.861 83.8331 121.171C82.0511 120.237 79.8811 120.776 77.9483 121.336C77.4237 121.487 76.8273 121.695 76.619 122.198C76.5396 122.489 76.5539 122.798 76.6596 123.08C76.7654 123.363 76.9573 123.605 77.2082 123.772C77.668 124.153 78.25 124.376 78.7027 124.771C79.3264 125.453 79.8142 126.248 80.1398 127.113C81.2197 129.223 83.0565 130.848 85.2827 131.662C87.5089 132.476 89.9603 132.419 92.1466 131.504C94.5394 130.505 96.4076 128.572 98.1321 126.625C98.4051 126.316 98.6926 125.906 98.556 125.525C98.4651 125.318 98.3119 125.145 98.1177 125.03C97.1477 124.311 95.3513 123.535 94.1226 123.865C92.7071 124.268 92.1754 126.043 90.573 126.273Z" fill="url(#paint33_linear)"/>
<path d="M40.692 123.398C40.9969 123.488 41.3212 123.488 41.6261 123.398C41.9177 123.234 42.176 123.017 42.3878 122.758C42.8785 122.327 43.4872 122.053 44.1352 121.971C44.7832 121.889 45.441 122.003 46.0236 122.299C46.5989 122.609 47.1003 123.04 47.4934 123.562C47.8866 124.084 48.1622 124.685 48.3014 125.324C48.3802 125.581 48.3802 125.856 48.3014 126.114C48.1892 126.344 48.0118 126.537 47.7912 126.667C46.3541 127.645 44.529 127.874 43.2644 129.024C42.3375 129.872 41.7483 131.18 40.5483 131.546C39.7925 131.706 39.004 131.581 38.3352 131.194C35.8994 129.973 34.5269 127.371 33.3054 124.928C33.1473 124.612 36.3736 122.32 36.7903 122.227C38.0693 121.903 39.4058 123.103 40.692 123.398Z" fill="url(#paint34_linear)"/>
<path d="M48.0492 73.1574C49.3641 73.876 50.4994 74.8963 51.9078 75.3706C52.7317 75.6288 53.5982 75.724 54.4586 75.6508C54.7065 75.6486 54.9512 75.5948 55.1771 75.4927C55.9819 75.1047 55.9963 73.9191 55.5867 73.1215C54.9436 71.993 53.8788 71.166 52.6263 70.8222C51.3839 70.4881 50.093 70.3714 48.8108 70.4773C46.5402 70.5707 42.8326 70.7216 41.0146 72.1946C41.7332 72.9563 43.3355 72.1946 44.2768 72.2377C45.5898 72.2372 46.8837 72.5527 48.0492 73.1574Z" fill="url(#paint35_linear)"/>
<path d="M71.2156 70.8588C71.4959 71.642 71.345 72.5833 71.8336 73.2515C72.1115 73.5609 72.4812 73.7731 72.8885 73.8572C73.2958 73.9412 73.7193 73.8926 74.097 73.7186C74.8436 73.349 75.473 72.7794 75.9149 72.0731C76.3549 71.3693 76.8653 70.7121 77.4382 70.1115C77.9658 69.7348 78.448 69.2984 78.8753 68.8109C79.0797 68.5612 79.181 68.2428 79.1583 67.9208C79.1355 67.5989 78.9906 67.2978 78.7531 67.0793C78.4449 66.9153 78.0937 66.8501 77.7472 66.8924L72.8252 66.993C72.0491 66.993 69.8001 66.9068 69.5845 67.9415C69.3762 68.8253 70.9354 70.0612 71.2156 70.8588Z" fill="url(#paint36_linear)"/>
<path d="M63.3398 42.1169C62.1901 43.4031 61.6225 45.0988 60.6237 46.5C59.7484 47.7265 58.5632 48.6985 57.1891 49.3167C56.1018 49.7469 54.979 50.0811 53.8335 50.3154C51.3164 50.9488 48.8555 51.7875 46.4756 52.8232L50.9593 45.2641C51.5012 44.2465 52.1806 43.3084 52.9784 42.4761C54.325 41.3561 55.8991 40.5421 57.5914 40.0906C59.1943 39.4439 60.8947 39.0722 62.6212 38.9912C63.2535 38.9912 66.2642 39.293 66.0918 40.4283C66.0702 40.766 63.7996 41.5995 63.3398 42.1169Z" fill="#404040"/>
<path d="M115.326 270.542C115.412 271.218 115.35 271.904 115.147 272.554C114.907 273.035 114.566 273.458 114.147 273.795C113.727 274.131 113.24 274.372 112.718 274.501C110.945 275.105 109.005 274.983 107.322 274.163C106.493 273.749 105.777 273.141 105.234 272.39C104.691 271.639 104.337 270.769 104.203 269.852C104.13 268.78 104.227 267.703 104.491 266.662L105.065 263.694C105.074 263.539 105.115 263.388 105.187 263.25C105.259 263.112 105.36 262.992 105.482 262.896C105.417 264.246 105.754 265.585 106.452 266.743C107.149 267.901 108.175 268.825 109.398 269.399C110.512 269.895 111.913 270.039 112.854 269.277C113.796 268.515 114.148 267.466 114.658 266.554C115.592 267.107 115.269 269.593 115.326 270.542Z" fill="#425AF2"/>
<path d="M71.1508 39.8459C71.0643 39.3821 70.8337 38.9574 70.4919 38.6323C70.15 38.3072 69.7142 38.0982 69.2467 38.0352C68.3198 38.0352 67.63 38.8256 66.9258 39.4219C66.4547 39.825 65.9269 40.1567 65.3594 40.4063C66.2092 40.6423 67.0184 41.0057 67.7593 41.4842C68.3413 41.8003 70.1664 42.9212 70.8419 42.6698C71.7472 42.3249 71.3448 40.5501 71.1508 39.8459Z" fill="url(#paint37_linear)"/>
<path d="M103.988 105.571C103.423 108.622 102.527 111.603 101.315 114.459C100.129 117.578 98.9079 120.761 96.7236 123.283C96.2031 123.91 95.5077 124.368 94.726 124.598C94.3707 124.438 93.9999 124.316 93.6195 124.232C98.6419 117.935 101.694 110.296 102.393 102.273C102.492 101.668 102.438 101.048 102.235 100.469C101.861 99.8391 101.325 99.3206 100.683 98.9676C95.2174 95.2684 90.4353 90.6491 86.549 85.3153C86.7865 86.4794 86.9188 87.6626 86.9442 88.8505C86.8292 88.405 86.7358 87.9451 86.6568 87.4709C86.276 85.3153 86.2472 79.107 89.8399 82.4411C90.6188 83.3045 91.2741 84.2718 91.7872 85.3153C94.5248 89.7846 100.101 91.969 102.673 96.5604C104.182 99.2334 104.434 102.496 103.988 105.571Z" fill="url(#paint38_linear)"/>
<path d="M76.7338 83.2744L69.2035 93.528L56.6074 84.3882L76.7338 83.2744Z" fill="url(#paint39_linear)"/>
<path opacity="0.24" d="M56.9195 265.775C46.972 265.824 36.5439 266.939 28.4275 271.702C27.0704 272.5 25.7328 273.464 25.2393 274.779C23.9407 278.227 28.9209 280.938 33.1155 281.902C44.6994 284.569 56.913 284.397 68.9254 284.208L105.982 283.621C109.112 283.567 112.709 283.325 114.54 281.212C116.137 279.37 115.644 276.686 114.033 274.849C112.423 273.012 109.93 271.853 107.443 270.899C91.6515 264.854 73.9316 265.694 56.9195 265.775Z" fill="#425AF2"/>
<path d="M59.0508 159.239C59.0508 159.908 54.3443 194.448 52.9935 197.595C51.6426 200.742 51.2043 206.792 50.7516 213.971C50.2989 221.149 44.4716 236.849 45.5925 244.48C46.7134 252.111 47.8343 258.132 47.3888 261.301C46.9433 264.47 48.7325 270.498 43.1279 270.951C37.5233 271.404 35.7269 272.518 35.497 268.479C35.267 264.441 39.0897 257.493 38.4143 252.104C37.7388 246.715 33.7078 213.525 36.1724 205.894C38.637 198.263 41.777 188.85 41.777 188.85C41.777 188.85 37.2933 165.965 39.7579 162.379C42.2225 158.794 59.0508 159.239 59.0508 159.239Z" fill="url(#paint40_linear)"/>
<path d="M35.1513 270.872C35.051 271.696 35.127 272.531 35.3741 273.322C35.6678 273.907 36.0844 274.422 36.5953 274.831C37.1062 275.241 37.6995 275.535 38.3345 275.694C40.4968 276.429 42.8619 276.282 44.9163 275.284C45.9262 274.776 46.7988 274.032 47.4604 273.115C48.122 272.198 48.5532 271.136 48.7174 270.017C48.807 268.709 48.6907 267.395 48.3725 266.123L47.654 262.53C47.6429 262.34 47.5917 262.155 47.5037 261.987C47.4158 261.818 47.2931 261.67 47.1438 261.553C47.22 263.195 46.8065 264.824 45.9558 266.231C45.105 267.638 43.8554 268.761 42.3655 269.457C41.0146 270.06 39.3045 270.24 38.1477 269.313C37.113 268.479 36.574 267.1 35.9561 265.986C34.8495 266.64 35.216 269.708 35.1513 270.872Z" fill="#425AF2"/>
</g>
</g>
<defs>
<linearGradient id="paint0_linear" x1="163.772" y1="52.811" x2="292.498" y2="52.811" gradientUnits="userSpaceOnUse">
<stop stop-color="white" stop-opacity="0"/>
<stop offset="0.13" stop-color="white" stop-opacity="0.23"/>
<stop offset="0.23" stop-color="white" stop-opacity="0.41"/>
<stop offset="0.35" stop-color="white" stop-opacity="0.59"/>
<stop offset="0.48" stop-color="white" stop-opacity="0.74"/>
<stop offset="0.6" stop-color="white" stop-opacity="0.85"/>
<stop offset="0.72" stop-color="white" stop-opacity="0.93"/>
<stop offset="0.84" stop-color="white" stop-opacity="0.98"/>
<stop offset="0.95" stop-color="white"/>
</linearGradient>
<linearGradient id="paint1_linear" x1="163.65" y1="52.811" x2="292.376" y2="52.811" gradientUnits="userSpaceOnUse">
<stop stop-color="white" stop-opacity="0"/>
<stop offset="0.13" stop-color="white" stop-opacity="0.23"/>
<stop offset="0.23" stop-color="white" stop-opacity="0.41"/>
<stop offset="0.35" stop-color="white" stop-opacity="0.59"/>
<stop offset="0.48" stop-color="white" stop-opacity="0.74"/>
<stop offset="0.6" stop-color="white" stop-opacity="0.85"/>
<stop offset="0.72" stop-color="white" stop-opacity="0.93"/>
<stop offset="0.84" stop-color="white" stop-opacity="0.98"/>
<stop offset="0.95" stop-color="white"/>
</linearGradient>
<linearGradient id="paint2_linear" x1="163.65" y1="173.746" x2="292.376" y2="173.746" gradientUnits="userSpaceOnUse">
<stop stop-color="white" stop-opacity="0"/>
<stop offset="0.13" stop-color="white" stop-opacity="0.23"/>
<stop offset="0.23" stop-color="white" stop-opacity="0.41"/>
<stop offset="0.35" stop-color="white" stop-opacity="0.59"/>
<stop offset="0.48" stop-color="white" stop-opacity="0.74"/>
<stop offset="0.6" stop-color="white" stop-opacity="0.85"/>
<stop offset="0.72" stop-color="white" stop-opacity="0.93"/>
<stop offset="0.84" stop-color="white" stop-opacity="0.98"/>
<stop offset="0.95" stop-color="white"/>
</linearGradient>
<linearGradient id="paint3_linear" x1="163.65" y1="214.819" x2="292.376" y2="214.819" gradientUnits="userSpaceOnUse">
<stop stop-color="white" stop-opacity="0"/>
<stop offset="0.13" stop-color="white" stop-opacity="0.23"/>
<stop offset="0.23" stop-color="white" stop-opacity="0.41"/>
<stop offset="0.35" stop-color="white" stop-opacity="0.59"/>
<stop offset="0.48" stop-color="white" stop-opacity="0.74"/>
<stop offset="0.6" stop-color="white" stop-opacity="0.85"/>
<stop offset="0.72" stop-color="white" stop-opacity="0.93"/>
<stop offset="0.84" stop-color="white" stop-opacity="0.98"/>
<stop offset="0.95" stop-color="white"/>
</linearGradient>
<linearGradient id="paint4_linear" x1="163.65" y1="255.891" x2="292.376" y2="255.891" gradientUnits="userSpaceOnUse">
<stop stop-color="white" stop-opacity="0"/>
<stop offset="0.13" stop-color="white" stop-opacity="0.23"/>
<stop offset="0.23" stop-color="white" stop-opacity="0.41"/>
<stop offset="0.35" stop-color="white" stop-opacity="0.59"/>
<stop offset="0.48" stop-color="white" stop-opacity="0.74"/>
<stop offset="0.6" stop-color="white" stop-opacity="0.85"/>
<stop offset="0.72" stop-color="white" stop-opacity="0.93"/>
<stop offset="0.84" stop-color="white" stop-opacity="0.98"/>
<stop offset="0.95" stop-color="white"/>
</linearGradient>
<linearGradient id="paint5_linear" x1="163.772" y1="94.5258" x2="292.498" y2="94.5258" gradientUnits="userSpaceOnUse">
<stop stop-color="white" stop-opacity="0"/>
<stop offset="0.13" stop-color="white" stop-opacity="0.23"/>
<stop offset="0.23" stop-color="white" stop-opacity="0.41"/>
<stop offset="0.35" stop-color="white" stop-opacity="0.59"/>
<stop offset="0.48" stop-color="white" stop-opacity="0.74"/>
<stop offset="0.6" stop-color="white" stop-opacity="0.85"/>
<stop offset="0.72" stop-color="white" stop-opacity="0.93"/>
<stop offset="0.84" stop-color="white" stop-opacity="0.98"/>
<stop offset="0.95" stop-color="white"/>
</linearGradient>
<linearGradient id="paint6_linear" x1="163.65" y1="133.956" x2="292.376" y2="133.956" gradientUnits="userSpaceOnUse">
<stop stop-color="white" stop-opacity="0"/>
<stop offset="0.13" stop-color="white" stop-opacity="0.23"/>
<stop offset="0.23" stop-color="white" stop-opacity="0.41"/>
<stop offset="0.35" stop-color="white" stop-opacity="0.59"/>
<stop offset="0.48" stop-color="white" stop-opacity="0.74"/>
<stop offset="0.6" stop-color="white" stop-opacity="0.85"/>
<stop offset="0.72" stop-color="white" stop-opacity="0.93"/>
<stop offset="0.84" stop-color="white" stop-opacity="0.98"/>
<stop offset="0.95" stop-color="white"/>
</linearGradient>
<linearGradient id="paint7_linear" x1="163.772" y1="94.5258" x2="292.498" y2="94.5258" gradientUnits="userSpaceOnUse">
<stop stop-color="white" stop-opacity="0"/>
<stop offset="0.13" stop-color="white" stop-opacity="0.23"/>
<stop offset="0.23" stop-color="white" stop-opacity="0.41"/>
<stop offset="0.35" stop-color="white" stop-opacity="0.59"/>
<stop offset="0.48" stop-color="white" stop-opacity="0.74"/>
<stop offset="0.6" stop-color="white" stop-opacity="0.85"/>
<stop offset="0.72" stop-color="white" stop-opacity="0.93"/>
<stop offset="0.84" stop-color="white" stop-opacity="0.98"/>
<stop offset="0.95" stop-color="white"/>
</linearGradient>
<linearGradient id="paint8_linear" x1="33011.6" y1="4309.66" x2="58830" y2="4309.66" gradientUnits="userSpaceOnUse">
<stop stop-color="white" stop-opacity="0"/>
<stop offset="0.13" stop-color="white" stop-opacity="0.23"/>
<stop offset="0.23" stop-color="white" stop-opacity="0.41"/>
<stop offset="0.35" stop-color="white" stop-opacity="0.59"/>
<stop offset="0.48" stop-color="white" stop-opacity="0.74"/>
<stop offset="0.6" stop-color="white" stop-opacity="0.85"/>
<stop offset="0.72" stop-color="white" stop-opacity="0.93"/>
<stop offset="0.84" stop-color="white" stop-opacity="0.98"/>
<stop offset="0.95" stop-color="white"/>
</linearGradient>
<linearGradient id="paint9_linear" x1="33011.5" y1="4309.66" x2="58829.9" y2="4309.66" gradientUnits="userSpaceOnUse">
<stop stop-color="white" stop-opacity="0"/>
<stop offset="0.13" stop-color="white" stop-opacity="0.23"/>
<stop offset="0.23" stop-color="white" stop-opacity="0.41"/>
<stop offset="0.35" stop-color="white" stop-opacity="0.59"/>
<stop offset="0.48" stop-color="white" stop-opacity="0.74"/>
<stop offset="0.6" stop-color="white" stop-opacity="0.85"/>
<stop offset="0.72" stop-color="white" stop-opacity="0.93"/>
<stop offset="0.84" stop-color="white" stop-opacity="0.98"/>
<stop offset="0.95" stop-color="white"/>
</linearGradient>
<linearGradient id="paint10_linear" x1="33011.6" y1="6180.83" x2="58830" y2="6180.83" gradientUnits="userSpaceOnUse">
<stop stop-color="white" stop-opacity="0"/>
<stop offset="0.13" stop-color="white" stop-opacity="0.23"/>
<stop offset="0.23" stop-color="white" stop-opacity="0.41"/>
<stop offset="0.35" stop-color="white" stop-opacity="0.59"/>
<stop offset="0.48" stop-color="white" stop-opacity="0.74"/>
<stop offset="0.6" stop-color="white" stop-opacity="0.85"/>
<stop offset="0.72" stop-color="white" stop-opacity="0.93"/>
<stop offset="0.84" stop-color="white" stop-opacity="0.98"/>
<stop offset="0.95" stop-color="white"/>
</linearGradient>
<linearGradient id="paint11_linear" x1="33011.5" y1="6180.83" x2="58829.9" y2="6180.83" gradientUnits="userSpaceOnUse">
<stop stop-color="white" stop-opacity="0"/>
<stop offset="0.13" stop-color="white" stop-opacity="0.23"/>
<stop offset="0.23" stop-color="white" stop-opacity="0.41"/>
<stop offset="0.35" stop-color="white" stop-opacity="0.59"/>
<stop offset="0.48" stop-color="white" stop-opacity="0.74"/>
<stop offset="0.6" stop-color="white" stop-opacity="0.85"/>
<stop offset="0.72" stop-color="white" stop-opacity="0.93"/>
<stop offset="0.84" stop-color="white" stop-opacity="0.98"/>
<stop offset="0.95" stop-color="white"/>
</linearGradient>
<linearGradient id="paint12_linear" x1="33013.4" y1="6213.5" x2="58831.9" y2="6213.5" gradientUnits="userSpaceOnUse">
<stop stop-color="white" stop-opacity="0"/>
<stop offset="0.13" stop-color="white" stop-opacity="0.23"/>
<stop offset="0.23" stop-color="white" stop-opacity="0.41"/>
<stop offset="0.35" stop-color="white" stop-opacity="0.59"/>
<stop offset="0.48" stop-color="white" stop-opacity="0.74"/>
<stop offset="0.6" stop-color="white" stop-opacity="0.85"/>
<stop offset="0.72" stop-color="white" stop-opacity="0.93"/>
<stop offset="0.84" stop-color="white" stop-opacity="0.98"/>
<stop offset="0.95" stop-color="white"/>
</linearGradient>
<linearGradient id="paint13_linear" x1="33011.5" y1="8051.72" x2="58829.9" y2="8051.72" gradientUnits="userSpaceOnUse">
<stop stop-color="white" stop-opacity="0"/>
<stop offset="0.13" stop-color="white" stop-opacity="0.23"/>
<stop offset="0.23" stop-color="white" stop-opacity="0.41"/>
<stop offset="0.35" stop-color="white" stop-opacity="0.59"/>
<stop offset="0.48" stop-color="white" stop-opacity="0.74"/>
<stop offset="0.6" stop-color="white" stop-opacity="0.85"/>
<stop offset="0.72" stop-color="white" stop-opacity="0.93"/>
<stop offset="0.84" stop-color="white" stop-opacity="0.98"/>
<stop offset="0.95" stop-color="white"/>
</linearGradient>
<linearGradient id="paint14_linear" x1="33011.5" y1="9922.88" x2="58829.9" y2="9922.88" gradientUnits="userSpaceOnUse">
<stop stop-color="white" stop-opacity="0"/>
<stop offset="0.13" stop-color="white" stop-opacity="0.23"/>
<stop offset="0.23" stop-color="white" stop-opacity="0.41"/>
<stop offset="0.35" stop-color="white" stop-opacity="0.59"/>
<stop offset="0.48" stop-color="white" stop-opacity="0.74"/>
<stop offset="0.6" stop-color="white" stop-opacity="0.85"/>
<stop offset="0.72" stop-color="white" stop-opacity="0.93"/>
<stop offset="0.84" stop-color="white" stop-opacity="0.98"/>
<stop offset="0.95" stop-color="white"/>
</linearGradient>
<linearGradient id="paint15_linear" x1="33011.5" y1="11794.1" x2="58829.9" y2="11794.1" gradientUnits="userSpaceOnUse">
<stop stop-color="white" stop-opacity="0"/>
<stop offset="0.13" stop-color="white" stop-opacity="0.23"/>
<stop offset="0.23" stop-color="white" stop-opacity="0.41"/>
<stop offset="0.35" stop-color="white" stop-opacity="0.59"/>
<stop offset="0.48" stop-color="white" stop-opacity="0.74"/>
<stop offset="0.6" stop-color="white" stop-opacity="0.85"/>
<stop offset="0.72" stop-color="white" stop-opacity="0.93"/>
<stop offset="0.84" stop-color="white" stop-opacity="0.98"/>
<stop offset="0.95" stop-color="white"/>
</linearGradient>
<linearGradient id="paint16_linear" x1="146.593" y1="68.8941" x2="148.973" y2="24.9011" gradientUnits="userSpaceOnUse">
<stop stop-color="#010101" stop-opacity="0"/>
<stop offset="0.95" stop-color="#010101"/>
</linearGradient>
<linearGradient id="paint17_linear" x1="10699.5" y1="40319.7" x2="12287.2" y2="18018.4" gradientUnits="userSpaceOnUse">
<stop stop-color="#010101" stop-opacity="0"/>
<stop offset="0.95" stop-color="#010101"/>
</linearGradient>
<linearGradient id="paint18_linear" x1="1810.07" y1="9421.24" x2="2497.41" y2="9416.14" gradientUnits="userSpaceOnUse">
<stop stop-color="#010101" stop-opacity="0"/>
<stop offset="0.95" stop-color="#010101"/>
</linearGradient>
<linearGradient id="paint19_linear" x1="4188.22" y1="960.615" x2="4326.43" y2="960.615" gradientUnits="userSpaceOnUse">
<stop stop-color="white" stop-opacity="0"/>
<stop offset="0.13" stop-color="white" stop-opacity="0.23"/>
<stop offset="0.23" stop-color="white" stop-opacity="0.41"/>
<stop offset="0.35" stop-color="white" stop-opacity="0.59"/>
<stop offset="0.48" stop-color="white" stop-opacity="0.74"/>
<stop offset="0.6" stop-color="white" stop-opacity="0.85"/>
<stop offset="0.72" stop-color="white" stop-opacity="0.93"/>
<stop offset="0.84" stop-color="white" stop-opacity="0.98"/>
<stop offset="0.95" stop-color="white"/>
</linearGradient>
<linearGradient id="paint20_linear" x1="4188.22" y1="982.642" x2="4326.43" y2="982.642" gradientUnits="userSpaceOnUse">
<stop stop-color="white" stop-opacity="0"/>
<stop offset="0.13" stop-color="white" stop-opacity="0.23"/>
<stop offset="0.23" stop-color="white" stop-opacity="0.41"/>
<stop offset="0.35" stop-color="white" stop-opacity="0.59"/>
<stop offset="0.48" stop-color="white" stop-opacity="0.74"/>
<stop offset="0.6" stop-color="white" stop-opacity="0.85"/>
<stop offset="0.72" stop-color="white" stop-opacity="0.93"/>
<stop offset="0.84" stop-color="white" stop-opacity="0.98"/>
<stop offset="0.95" stop-color="white"/>
</linearGradient>
<linearGradient id="paint21_linear" x1="39.1612" y1="164.018" x2="90.9034" y2="164.018" gradientUnits="userSpaceOnUse">
<stop stop-opacity="0"/>
<stop offset="0.99"/>
</linearGradient>
<linearGradient id="paint22_linear" x1="70.6904" y1="212.476" x2="114.536" y2="212.476" gradientUnits="userSpaceOnUse">
<stop stop-color="#E5C5D5"/>
<stop offset="0.42" stop-color="#EAD4D1"/>
<stop offset="1" stop-color="#F0E9CB"/>
</linearGradient>
<linearGradient id="paint23_linear" x1="7430.63" y1="3034.58" x2="19142.6" y2="3034.58" gradientUnits="userSpaceOnUse">
<stop stop-opacity="0"/>
<stop offset="0.99"/>
</linearGradient>
<linearGradient id="paint24_linear" x1="9983.9" y1="4845.13" x2="21292.1" y2="4845.13" gradientUnits="userSpaceOnUse">
<stop stop-opacity="0"/>
<stop offset="0.99"/>
</linearGradient>
<linearGradient id="paint25_linear" x1="1733.68" y1="5919.57" x2="1418.39" y2="5934.23" gradientUnits="userSpaceOnUse">
<stop stop-opacity="0"/>
<stop offset="0.99"/>
</linearGradient>
<linearGradient id="paint26_linear" x1="5775.66" y1="3734.52" x2="4459.3" y2="3977.22" gradientUnits="userSpaceOnUse">
<stop stop-opacity="0"/>
<stop offset="0.99"/>
</linearGradient>
<linearGradient id="paint27_linear" x1="3897.67" y1="410.341" x2="4380.42" y2="410.341" gradientUnits="userSpaceOnUse">
<stop stop-opacity="0"/>
<stop offset="0.99"/>
</linearGradient>
<linearGradient id="paint28_linear" x1="808.153" y1="171.09" x2="823.98" y2="171.09" gradientUnits="userSpaceOnUse">
<stop stop-color="#E5C5D5"/>
<stop offset="0.42" stop-color="#EAD4D1"/>
<stop offset="1" stop-color="#F0E9CB"/>
</linearGradient>
<linearGradient id="paint29_linear" x1="918.579" y1="163.567" x2="934.384" y2="163.567" gradientUnits="userSpaceOnUse">
<stop stop-color="#E5C5D5"/>
<stop offset="0.42" stop-color="#EAD4D1"/>
<stop offset="1" stop-color="#F0E9CB"/>
</linearGradient>
<linearGradient id="paint30_linear" x1="3372.4" y1="955.228" x2="3666.02" y2="955.228" gradientUnits="userSpaceOnUse">
<stop stop-color="#E5C5D5"/>
<stop offset="0.42" stop-color="#EAD4D1"/>
<stop offset="1" stop-color="#F0E9CB"/>
</linearGradient>
<linearGradient id="paint31_linear" x1="2363.42" y1="793.732" x2="2524.59" y2="194.006" gradientUnits="userSpaceOnUse">
<stop stop-opacity="0"/>
<stop offset="0.99"/>
</linearGradient>
<linearGradient id="paint32_linear" x1="4572.16" y1="690.611" x2="5130.1" y2="690.611" gradientUnits="userSpaceOnUse">
<stop stop-color="#E5C5D5"/>
<stop offset="0.42" stop-color="#EAD4D1"/>
<stop offset="1" stop-color="#F0E9CB"/>
</linearGradient>
<linearGradient id="paint33_linear" x1="5736.86" y1="1639.33" x2="6413.17" y2="1639.33" gradientUnits="userSpaceOnUse">
<stop stop-color="#E5C5D5"/>
<stop offset="0.42" stop-color="#EAD4D1"/>
<stop offset="1" stop-color="#F0E9CB"/>
</linearGradient>
<linearGradient id="paint34_linear" x1="2998.15" y1="1394.75" x2="3313.67" y2="1394.75" gradientUnits="userSpaceOnUse">
<stop stop-color="#E5C5D5"/>
<stop offset="0.42" stop-color="#EAD4D1"/>
<stop offset="1" stop-color="#F0E9CB"/>
</linearGradient>
<linearGradient id="paint35_linear" x1="3120.98" y1="368.586" x2="3427.36" y2="368.586" gradientUnits="userSpaceOnUse">
<stop stop-opacity="0"/>
<stop offset="0.99"/>
</linearGradient>
<linearGradient id="paint36_linear" x1="2442.55" y1="440.419" x2="2570.56" y2="440.419" gradientUnits="userSpaceOnUse">
<stop stop-opacity="0"/>
<stop offset="0.99"/>
</linearGradient>
<linearGradient id="paint37_linear" x1="1526.18" y1="91.6121" x2="1577.12" y2="91.6121" gradientUnits="userSpaceOnUse">
<stop stop-opacity="0"/>
<stop offset="0.99"/>
</linearGradient>
<linearGradient id="paint38_linear" x1="5399.04" y1="3840.8" x2="4263.81" y2="4077.26" gradientUnits="userSpaceOnUse">
<stop stop-opacity="0"/>
<stop offset="0.99"/>
</linearGradient>
<linearGradient id="paint39_linear" x1="3576.31" y1="611.54" x2="3628.32" y2="1304.41" gradientUnits="userSpaceOnUse">
<stop stop-opacity="0"/>
<stop offset="0.99"/>
</linearGradient>
<linearGradient id="paint40_linear" x1="4762.82" y1="28768.4" x2="5542.45" y2="28768.4" gradientUnits="userSpaceOnUse">
<stop stop-color="#E5C5D5"/>
<stop offset="0.42" stop-color="#EAD4D1"/>
<stop offset="1" stop-color="#F0E9CB"/>
</linearGradient>
<clipPath id="clip0">
<rect width="358.048" height="300" fill="white"/>
</clipPath>
<clipPath id="clip1">
<rect x="-60.9678" y="33.3721" width="210.741" height="256.706" fill="white"/>
</clipPath>
</defs>
</svg>
