<svg width="108" height="141" viewBox="0 0 108 141" fill="none" xmlns="http://www.w3.org/2000/svg">
<g clip-path="url(#clip0)">
<path opacity="0.18" d="M99.5636 108.023C96.595 118.287 90.484 127.967 81.4044 133.612C75.9211 137.023 69.5931 138.862 63.2216 139.928C62.5663 140.039 61.9149 140.13 61.2477 140.212C54.2137 141.167 47.0731 141.009 40.0884 139.743C29.7968 137.844 19.9948 133.391 12.7272 125.847C2.46334 115.153 1.45274 98.0713 6.38336 84.1046C8.35718 78.5187 11.1205 73.2209 12.6996 67.5245C16.367 54.0156 12.822 39.4133 15.9367 25.7623C16.7736 22.0555 18.1434 18.3881 20.4607 15.3681C22.4937 12.6522 25.2215 10.5757 28.0401 8.70452C36.4644 3.17782 46.4164 -0.635608 56.4869 0.0907586C66.5573 0.817125 76.5804 6.7307 80.3386 16.0906C82.9203 22.5213 82.419 29.8323 84.7678 36.338C87.4957 43.9057 93.7645 49.6456 97.3174 56.8658C100.247 62.8307 101.218 69.5575 101.77 76.2093C102.659 86.8679 102.544 97.7516 99.5636 108.023Z" fill="#425AF2"/>
<path d="M107.66 20.4874V81.8654C107.66 83.7908 106.895 85.6373 105.534 86.9988C104.172 88.3603 102.326 89.1251 100.4 89.1251H7.51631C5.59092 89.1251 3.74438 88.3603 2.38292 86.9988C1.02145 85.6373 0.256592 83.7908 0.256592 81.8654V20.4874C0.257709 20.2077 0.274842 19.9282 0.30791 19.6505C0.511447 17.8817 1.35858 16.2496 2.68791 15.0651C4.01724 13.8807 5.73585 13.2267 7.51631 13.2277H100.4C102.181 13.2267 103.9 13.8807 105.229 15.0651C106.558 16.2496 107.405 17.8817 107.609 19.6505C107.642 19.9282 107.659 20.2077 107.66 20.4874Z" fill="white" stroke="#425AF2" stroke-width="0.509246" stroke-miterlimit="10"/>
<path opacity="0.18" d="M61.2517 33.7328H8.92959C7.42087 33.7328 6.19781 34.9559 6.19781 36.4646C6.19781 37.9733 7.42087 39.1964 8.92959 39.1964H61.2517C62.7604 39.1964 63.9835 37.9733 63.9835 36.4646C63.9835 34.9559 62.7604 33.7328 61.2517 33.7328Z" fill="#425AF2"/>
<path opacity="0.18" d="M61.2517 41.3985H8.92959C7.42087 41.3985 6.19781 42.6215 6.19781 44.1302V76.1377C6.19781 77.6465 7.42087 78.8695 8.92959 78.8695H61.2517C62.7604 78.8695 63.9835 77.6465 63.9835 76.1377V44.1302C63.9835 42.6215 62.7604 41.3985 61.2517 41.3985Z" fill="#425AF2"/>
<path opacity="0.18" d="M83.0545 63.6274C89.2573 63.6274 94.2856 58.5991 94.2856 52.3964C94.2856 46.1936 89.2573 41.1653 83.0545 41.1653C76.8518 41.1653 71.8235 46.1936 71.8235 52.3964C71.8235 58.5991 76.8518 63.6274 83.0545 63.6274Z" fill="#425AF2"/>
<path d="M57.1461 39.8157C58.3897 41.8448 56.8067 70.2639 57.8488 71.6811C60.2924 75.005 65.5309 84.5267 65.3257 88.656C61.4135 88.7981 55.5829 88.7428 51.7181 88.1388C51.0076 88.0283 50.2536 87.8822 49.7443 87.3848C49.3113 86.8905 49.0146 86.2918 48.8837 85.6479L44.2294 69.6599C42.3504 63.2055 40.4752 56.2813 42.5043 49.8703C43.5268 46.6372 45.4808 43.791 47.4073 41C48.485 39.4209 46.7401 36.5155 48.7456 36.1799C50.8457 35.8246 56.1 38.1143 57.1461 39.8157Z" fill="url(#paint0_linear)"/>
<path d="M61.2556 121.39V140.208C54.2216 141.163 47.081 141.005 40.0962 139.738C39.9462 136.766 39.5475 130.367 38.8212 127.335C37.8619 123.308 34.4195 122.349 31.3483 118.717C28.277 115.085 27.1322 101.265 26.3663 98.979C25.6005 96.6933 21.0054 92.6628 18.6053 89.9744C17.9226 89.2768 17.4803 88.3797 17.3426 87.4135C17.2048 86.4472 17.3789 85.4622 17.8394 84.6017C17.8394 84.6017 29.1415 89.9744 29.1415 88.8217C29.1415 87.669 26.5598 85.1859 26.5598 85.1859C26.5598 85.1859 19.8488 82.0278 17.4525 79.3355C15.0563 76.6432 16.592 73.4141 16.592 73.4141L30.9653 78.6486L32.3036 77.5038L26.7493 74.8194C26.7493 74.8194 21.1831 71.9416 17.9263 69.4506C14.6695 66.9597 16.0196 61.0263 16.0196 61.0263L36.9065 70.6033L34.4156 65.2424C34.4156 65.2424 21.9608 61.4053 18.5105 58.1367C15.0603 54.868 16.0196 51.2362 16.0196 51.2362C16.0196 51.2362 41.1266 57.1774 44.3834 59.0999C47.6402 61.0224 58.3699 84.2069 58.7489 85.3478C59.1278 86.4887 61.2556 121.39 61.2556 121.39Z" fill="#F7AF87"/>
<path d="M41.9398 104.36L38.5883 115.958C38.5883 115.958 30.2508 116.819 27.4717 104.459C24.6925 92.0985 41.9398 104.36 41.9398 104.36Z" fill="url(#paint1_linear)"/>
<path d="M47.6718 35.9112H25.3478C21.9968 35.9112 19.2803 38.6277 19.2803 41.9787V98.4577C19.2803 101.809 21.9968 104.525 25.3478 104.525H47.6718C51.0228 104.525 53.7393 101.809 53.7393 98.4577V41.9787C53.7393 38.6277 51.0228 35.9112 47.6718 35.9112Z" fill="#425AF2"/>
<path d="M47.6718 35.9112H25.3478C21.9968 35.9112 19.2803 38.6277 19.2803 41.9787V98.4577C19.2803 101.809 21.9968 104.525 25.3478 104.525H47.6718C51.0228 104.525 53.7393 101.809 53.7393 98.4577V41.9787C53.7393 38.6277 51.0228 35.9112 47.6718 35.9112Z" fill="url(#paint2_linear)"/>
<path d="M47.7349 35.8398H25.2847C21.9686 35.8398 19.2803 38.528 19.2803 41.8441V96.9888C19.2803 100.305 21.9686 102.993 25.2847 102.993H47.7349C51.0511 102.993 53.7393 100.305 53.7393 96.9888V41.8441C53.7393 38.528 51.0511 35.8398 47.7349 35.8398Z" fill="#425AF2"/>
<path d="M46.7007 37.3914H26.5006C23.5202 37.3914 21.1041 39.8075 21.1041 42.7879V92.2835C21.1041 95.2638 23.5202 97.6799 26.5006 97.6799H46.7007C49.681 97.6799 52.0971 95.2638 52.0971 92.2835V42.7879C52.0971 39.8075 49.681 37.3914 46.7007 37.3914Z" fill="white"/>
<path opacity="0.18" d="M37.4632 64.3026C34.7906 64.3018 32.1778 65.0935 29.9552 66.5777C27.7326 68.0619 26 70.1718 24.9765 72.6406C23.9531 75.1094 23.6847 77.8263 24.2053 80.4477C24.7259 83.0691 26.0122 85.4772 27.9014 87.3676C29.7907 89.2579 32.198 90.5456 34.8191 91.0677C37.4402 91.5899 40.1572 91.3231 42.6267 90.3011C45.0961 89.279 47.207 87.5477 48.6925 85.326C50.1779 83.1042 50.9712 80.4919 50.972 77.8193C50.971 74.2361 49.5476 70.7999 47.0147 68.2655C44.4817 65.7311 41.0463 64.3057 37.4632 64.3026ZM37.4632 89.0306C35.2878 89.0314 33.161 88.3871 31.3518 87.179C29.5427 85.971 28.1324 84.2536 27.2994 82.244C26.4664 80.2345 26.248 78.023 26.6719 75.8893C27.0958 73.7556 28.143 71.7955 29.681 70.257C31.2189 68.7185 33.1786 67.6706 35.3121 67.246C37.4457 66.8213 39.6572 67.0388 41.6671 67.8712C43.677 68.7035 45.3949 70.1131 46.6036 71.9218C47.8122 73.7306 48.4573 75.8571 48.4573 78.0325C48.4542 80.9477 47.295 83.7427 45.234 85.8045C43.173 87.8663 40.3784 89.0265 37.4632 89.0306Z" fill="#425AF2"/>
<path d="M31.0324 75.5414C30.9664 75.5411 30.9009 75.5291 30.839 75.5058C30.7136 75.4541 30.6135 75.3552 30.5604 75.2304C30.5072 75.1056 30.5052 74.9649 30.5548 74.8387C30.5548 74.7913 32.5602 70.0068 37.4592 70.1568C37.5266 70.1588 37.593 70.1741 37.6544 70.2018C37.7159 70.2295 37.7713 70.269 37.8175 70.3182C37.8637 70.3673 37.8998 70.4251 37.9237 70.4881C37.9475 70.5512 37.9587 70.6183 37.9566 70.6858C37.9556 70.7531 37.9411 70.8196 37.9141 70.8813C37.887 70.9431 37.8478 70.9987 37.7989 71.0451C37.75 71.0914 37.6923 71.1275 37.6292 71.1512C37.5661 71.1749 37.4989 71.1858 37.4316 71.1832C33.2234 71.0647 31.5733 75.0519 31.5101 75.2216C31.4724 75.3171 31.4065 75.3989 31.3212 75.456C31.2358 75.5131 31.1351 75.5429 31.0324 75.5414Z" fill="#425AF2"/>
<path d="M44.2413 77.4994C44.1098 77.4996 43.9833 77.4494 43.8878 77.359C43.7923 77.2687 43.7352 77.1451 43.7281 77.0139C43.7054 75.8893 43.3579 74.7952 42.7276 73.8636C42.0972 72.9321 41.2108 72.2027 40.1752 71.7635C40.0479 71.7179 39.9437 71.6239 39.8853 71.502C39.8269 71.38 39.819 71.2399 39.8633 71.1121C39.8846 71.0481 39.9185 70.989 39.963 70.9383C40.0075 70.8876 40.0617 70.8463 40.1224 70.8168C40.1831 70.7874 40.2491 70.7704 40.3165 70.7669C40.3839 70.7634 40.4513 70.7734 40.5147 70.7963C41.7475 71.2951 42.8065 72.145 43.5603 73.2406C44.3141 74.3361 44.7293 75.629 44.7545 76.9586C44.7609 77.0945 44.7136 77.2275 44.6227 77.3287C44.5318 77.4299 44.4047 77.4913 44.2689 77.4994H44.2413Z" fill="#425AF2"/>
<path d="M43.203 81.5384C43.089 81.5381 42.9781 81.5007 42.8872 81.4318C42.7808 81.3478 42.7119 81.2251 42.6956 81.0905C42.6793 80.9559 42.717 80.8203 42.8004 80.7134C43.1815 80.1471 43.4249 79.4995 43.511 78.8224C43.515 78.7528 43.5332 78.6848 43.5644 78.6225C43.5956 78.5601 43.6392 78.5048 43.6925 78.4599C43.7459 78.415 43.8078 78.3814 43.8745 78.3611C43.9412 78.3409 44.0113 78.3345 44.0806 78.3423C44.1499 78.3501 44.2169 78.3719 44.2774 78.4064C44.338 78.441 44.3909 78.4875 44.4329 78.5431C44.4749 78.5987 44.5051 78.6624 44.5217 78.7301C44.5383 78.7978 44.5409 78.8682 44.5295 78.9369C44.4173 79.8017 44.0976 80.6265 43.5978 81.341C43.5508 81.4012 43.491 81.4502 43.4227 81.4843C43.3544 81.5185 43.2794 81.537 43.203 81.5384Z" fill="#425AF2"/>
<path d="M32.7457 76.1694C32.6733 76.1693 32.6019 76.1531 32.5365 76.1221C32.4134 76.0661 32.3174 75.9637 32.2694 75.8373C32.2213 75.7109 32.2251 75.5707 32.2799 75.447C32.6808 74.5461 33.2995 73.7591 34.0803 73.1568C34.8611 72.5545 35.7794 72.1558 36.7526 71.9968C38.2803 71.7481 39.737 72.1389 40.5463 73.0153C40.5956 73.0641 40.6345 73.1224 40.6606 73.1867C40.6868 73.2509 40.6996 73.3198 40.6984 73.3892C40.6971 73.4586 40.6818 73.527 40.6534 73.5902C40.625 73.6535 40.584 73.7104 40.533 73.7574C40.482 73.8044 40.422 73.8406 40.3566 73.8638C40.2912 73.8869 40.2218 73.8966 40.1525 73.8922C40.0833 73.8877 40.0156 73.8693 39.9537 73.838C39.8918 73.8067 39.8369 73.7632 39.7923 73.7101C39.2238 73.0942 38.0948 72.8179 36.9144 73.0113C36.1092 73.1421 35.3493 73.4716 34.7035 73.9699C34.0576 74.4683 33.5462 75.1198 33.2155 75.8655C33.1746 75.9559 33.1086 76.0326 33.0253 76.0865C32.942 76.1404 32.8449 76.1692 32.7457 76.1694Z" fill="#425AF2"/>
<path d="M38.8606 85.0168C38.7585 85.018 38.6584 84.9886 38.5732 84.9322C38.488 84.8759 38.4218 84.7952 38.3831 84.7007C38.3443 84.6062 38.3349 84.5023 38.356 84.4023C38.3771 84.3024 38.4277 84.2112 38.5014 84.1404C43.7873 78.9887 40.87 75.1279 40.87 75.0884C40.8142 74.9826 40.7971 74.8607 40.8216 74.7436C40.8462 74.6265 40.9109 74.5217 41.0045 74.4473C41.0982 74.3729 41.2148 74.3335 41.3344 74.3359C41.454 74.3384 41.569 74.3825 41.6595 74.4608C41.695 74.5042 45.1453 79.0874 39.208 84.8747C39.1143 84.9642 38.9902 85.015 38.8606 85.0168Z" fill="#425AF2"/>
<path d="M31.0009 80.2558C30.902 80.2564 30.805 80.2284 30.7217 80.1752C30.6384 80.1219 30.5722 80.0458 30.5311 79.9558C30.0653 78.9136 30.3613 76.9911 30.3969 76.778C30.4201 76.6443 30.4946 76.525 30.6044 76.4454C30.7143 76.3658 30.8508 76.3321 30.9851 76.3516C31.0518 76.3626 31.1156 76.3867 31.173 76.4225C31.2303 76.4582 31.28 76.5049 31.3193 76.5599C31.3585 76.615 31.3865 76.6772 31.4017 76.7431C31.4168 76.8089 31.4188 76.8771 31.4075 76.9438C31.2969 77.6386 31.2101 78.961 31.4667 79.5334C31.5026 79.6113 31.5182 79.6969 31.5122 79.7824C31.5062 79.8679 31.4787 79.9505 31.4322 80.0226C31.3857 80.0946 31.3219 80.1538 31.2465 80.1945C31.1711 80.2353 31.0866 80.2564 31.0009 80.2558Z" fill="#425AF2"/>
<path d="M31.897 82.6597C31.7891 82.6611 31.6835 82.6282 31.5955 82.5658C31.5075 82.5033 31.4417 82.4145 31.4074 82.3122C31.3732 82.2099 31.3723 82.0993 31.4049 81.9964C31.4376 81.8936 31.5021 81.8038 31.5891 81.7399C32.4141 81.1201 32.1891 78.8305 31.8496 77.5317C31.816 77.4004 31.8357 77.261 31.9045 77.1441C31.9733 77.0273 32.0856 76.9424 32.2168 76.908C32.2818 76.8903 32.3498 76.8857 32.4167 76.8946C32.4835 76.9036 32.5479 76.9258 32.6061 76.96C32.6642 76.9942 32.7149 77.0397 32.7551 77.0939C32.7954 77.148 32.8244 77.2096 32.8405 77.2751C32.951 77.6699 33.8432 81.3294 32.2049 82.5571C32.1166 82.6248 32.0082 82.6609 31.897 82.6597Z" fill="#425AF2"/>
<path d="M33.18 83.8476C33.0688 83.8473 32.9607 83.811 32.8719 83.744C32.7832 83.677 32.7186 83.583 32.6879 83.4762C32.6571 83.3693 32.662 83.2554 32.7016 83.1515C32.7412 83.0476 32.8135 82.9594 32.9076 82.9001C32.9865 82.8488 34.7235 81.7158 33.9971 78.8104C33.5274 76.9234 33.9971 75.7431 34.5143 75.0878C34.8847 74.6314 35.354 74.2652 35.8868 74.017C36.4196 73.7687 37.0018 73.6448 37.5895 73.6548C37.6568 73.651 37.7241 73.661 37.7874 73.684C37.8507 73.7071 37.9087 73.7428 37.9578 73.7889C38.0069 73.8351 38.0461 73.8907 38.073 73.9525C38.1 74.0142 38.1141 74.0808 38.1145 74.1482C38.1172 74.2154 38.1065 74.2825 38.083 74.3455C38.0596 74.4086 38.0239 74.4664 37.978 74.5155C37.9322 74.5647 37.877 74.6043 37.8157 74.6321C37.7545 74.6598 37.6883 74.6752 37.6211 74.6772C37.1865 74.6659 36.7551 74.7527 36.3587 74.9311C35.9623 75.1095 35.6112 75.3748 35.3314 75.7075C34.8143 76.3905 34.6959 77.3813 34.9919 78.5617C35.9038 82.2172 33.5471 83.6936 33.4484 83.7726C33.3674 83.8215 33.2746 83.8474 33.18 83.8476Z" fill="#425AF2"/>
<path d="M38.5014 81.2819C38.4068 81.2805 38.3145 81.2527 38.2348 81.2018C38.1551 81.1508 38.0912 81.0787 38.0502 80.9934C38.0092 80.9082 37.9928 80.8132 38.0028 80.7191C38.0127 80.625 38.0487 80.5356 38.1067 80.4608C38.8685 79.466 39.4765 77.9699 39.1765 77.1843C39.1174 77.0367 39.0179 76.9088 38.8894 76.8152C38.761 76.7216 38.6087 76.6662 38.4501 76.6553C37.8856 76.5487 37.4829 76.6119 37.2421 76.8487C36.8197 77.2435 36.8789 78.1791 36.9342 78.4989C36.9521 78.5671 36.9557 78.6384 36.9447 78.7081C36.9338 78.7778 36.9087 78.8445 36.8708 78.9041C36.8329 78.9637 36.7832 79.0148 36.7247 79.0542C36.6662 79.0937 36.6001 79.1207 36.5307 79.1334C36.4613 79.1462 36.39 79.1446 36.3213 79.1286C36.2526 79.1126 36.1879 79.0825 36.1313 79.0404C36.0747 78.9983 36.0273 78.9449 35.9923 78.8836C35.9572 78.8224 35.9352 78.7546 35.9276 78.6844C35.896 78.5146 35.6433 76.9909 36.5197 76.1224C37.0132 75.6329 37.7277 75.475 38.6435 75.6487C38.9758 75.6935 39.2898 75.8272 39.5524 76.0357C39.8151 76.2441 40.0166 76.5195 40.1357 76.8329C40.6016 78.0607 39.8318 79.9042 38.9199 81.0925C38.8703 81.1551 38.8064 81.205 38.7336 81.2379C38.6608 81.2709 38.5812 81.286 38.5014 81.2819Z" fill="#425AF2"/>
<path d="M34.838 84.5859C34.7362 84.5852 34.637 84.5543 34.5528 84.4972C34.4687 84.44 34.4034 84.3591 34.3654 84.2647C34.3273 84.1704 34.3181 84.0669 34.339 83.9673C34.3599 83.8677 34.4099 83.7766 34.4827 83.7055C35.9038 82.3239 35.8644 80.2592 35.8644 80.2395C35.8602 80.1034 35.9102 79.9712 36.0035 79.872C36.0968 79.7728 36.2257 79.7147 36.3618 79.7105C36.4979 79.7063 36.6301 79.7564 36.7293 79.8497C36.8285 79.9429 36.8866 80.0718 36.8907 80.2079C36.8907 80.3106 36.95 82.7384 35.1972 84.4398C35.1014 84.534 34.9723 84.5865 34.838 84.5859Z" fill="#425AF2"/>
<path d="M36.7368 85.1385C36.6614 85.1385 36.5871 85.1209 36.5197 85.0872C36.4589 85.0588 36.4044 85.0187 36.3592 84.9691C36.314 84.9196 36.279 84.8616 36.2562 84.7985C36.2335 84.7354 36.2235 84.6685 36.2267 84.6015C36.2299 84.5345 36.2463 84.4688 36.2749 84.4082L37.3092 82.2172C37.3697 82.0981 37.4742 82.0072 37.6006 81.964C37.727 81.9207 37.8653 81.9284 37.9861 81.9854C38.1068 82.0425 38.2006 82.1444 38.2475 82.2695C38.2943 82.3946 38.2905 82.5331 38.2369 82.6554L37.2026 84.8464C37.1607 84.9342 37.0946 85.0084 37.0121 85.0601C36.9297 85.1118 36.8342 85.139 36.7368 85.1385Z" fill="#425AF2"/>
<path d="M55.9776 94.2464C54.1657 90.879 52.3063 87.4959 49.8311 84.5786C47.356 81.6613 44.1939 79.2019 40.5107 78.1834C39.6265 77.9347 38.5369 77.836 37.9369 78.5466C37.5421 79.0519 37.5421 79.7782 37.6329 80.4256C37.9334 82.594 38.7527 84.6578 40.0212 86.4419C40.9884 87.7998 42.2003 88.9723 43.1201 90.3619C44.0399 91.7514 44.6716 93.4647 44.2689 95.0793C41.9872 104.198 39.5673 114.364 45.6151 121.56C46.1976 122.324 46.9331 122.959 47.7744 123.423C48.5804 123.764 49.4391 123.963 50.3127 124.012C51.8102 124.164 53.309 124.246 54.8091 124.256C55.7895 124.322 56.7724 124.175 57.6909 123.826C60.2569 122.669 60.6161 119.239 60.6043 116.424C60.5727 108.675 59.645 101.08 55.9776 94.2464Z" fill="#F7AF87"/>
<path d="M107.609 19.6505H0.307922C0.511459 17.8817 1.35859 16.2496 2.68792 15.0651C4.01725 13.8807 5.73586 13.2267 7.51633 13.2277H100.401C102.181 13.2267 103.9 13.8807 105.229 15.0651C106.558 16.2496 107.405 17.8817 107.609 19.6505Z" fill="#425AF2"/>
<path d="M80.5636 56.7705L72.4156 47.7501C72.1354 47.4538 71.9685 47.0683 71.9439 46.6613C71.9194 46.2542 72.0389 45.8515 72.2814 45.5236C72.4329 45.3325 72.6241 45.1767 72.8419 45.0668C73.0596 44.957 73.2986 44.8958 73.5423 44.8875C73.786 44.8793 74.0287 44.9241 74.2533 45.019C74.478 45.1138 74.6793 45.2564 74.8434 45.4368L81.3886 52.6847C81.4933 52.7995 81.6205 52.8916 81.7622 52.9554C81.9039 53.0192 82.0571 53.0532 82.2125 53.0555C82.3679 53.0577 82.5221 53.028 82.6655 52.9683C82.809 52.9086 82.9387 52.8201 83.0466 52.7084L98.7464 36.4875C98.916 36.3122 99.1216 36.1759 99.3491 36.0881C99.5766 36.0002 99.8205 35.9629 100.064 35.9786C100.307 35.9944 100.544 36.0629 100.758 36.1794C100.973 36.2959 101.159 36.4576 101.304 36.6533C101.537 36.9894 101.644 37.3967 101.607 37.8038C101.569 38.2109 101.389 38.5918 101.099 38.8798L83.7296 56.8218C83.5228 57.0343 83.2746 57.2023 83.0005 57.3155C82.7264 57.4286 82.432 57.4845 82.1355 57.4797C81.839 57.4748 81.5466 57.4095 81.2763 57.2875C81.0059 57.1655 80.7634 56.9896 80.5636 56.7705Z" fill="url(#paint3_linear)"/>
<path opacity="0.3" d="M80.5636 55.8357L72.4156 46.8153C72.1354 46.519 71.9685 46.1335 71.9439 45.7264C71.9194 45.3194 72.0389 44.9166 72.2814 44.5888C72.4328 44.3974 72.6241 44.2413 72.842 44.1314C73.06 44.0215 73.2992 43.9605 73.5432 43.9526C73.7871 43.9447 74.0298 43.9901 74.2544 44.0857C74.479 44.1812 74.68 44.3247 74.8434 44.5059L81.3886 51.7341C81.4931 51.8491 81.62 51.9416 81.7615 52.0057C81.9031 52.0698 82.0563 52.1042 82.2116 52.1068C82.367 52.1094 82.5213 52.0801 82.6649 52.0208C82.8085 51.9614 82.9384 51.8732 83.0466 51.7617L98.7464 35.5487C98.916 35.3734 99.1216 35.2372 99.3491 35.1493C99.5766 35.0614 99.8205 35.0241 100.064 35.0399C100.307 35.0556 100.544 35.1241 100.758 35.2406C100.973 35.3571 101.159 35.5188 101.304 35.7145C101.537 36.0507 101.644 36.458 101.607 36.8651C101.569 37.2721 101.389 37.653 101.099 37.941L83.7296 55.883C83.5233 56.0963 83.2755 56.2651 83.0015 56.3789C82.7274 56.4927 82.433 56.5491 82.1363 56.5447C81.8396 56.5402 81.547 56.475 81.2765 56.3531C81.006 56.2311 80.7634 56.055 80.5636 55.8357Z" fill="#425AF2"/>
<path opacity="0.18" d="M31.1588 53.0164C32.2031 53.0164 33.0497 52.1698 33.0497 51.1255C33.0497 50.0811 32.2031 49.2345 31.1588 49.2345C30.1144 49.2345 29.2679 50.0811 29.2679 51.1255C29.2679 52.1698 30.1144 53.0164 31.1588 53.0164Z" fill="#425AF2"/>
<path opacity="0.18" d="M36.1446 53.0164C37.189 53.0164 38.0356 52.1698 38.0356 51.1255C38.0356 50.0811 37.189 49.2345 36.1446 49.2345C35.1003 49.2345 34.2537 50.0811 34.2537 51.1255C34.2537 52.1698 35.1003 53.0164 36.1446 53.0164Z" fill="#425AF2"/>
<path opacity="0.18" d="M41.1266 53.0164C42.1709 53.0164 43.0175 52.1698 43.0175 51.1255C43.0175 50.0811 42.1709 49.2345 41.1266 49.2345C40.0823 49.2345 39.2357 50.0811 39.2357 51.1255C39.2357 52.1698 40.0823 53.0164 41.1266 53.0164Z" fill="#425AF2"/>
<path opacity="0.18" d="M61.2517 24.5343H8.92959C7.42087 24.5343 6.19781 25.7574 6.19781 27.2661C6.19781 28.7748 7.42087 29.9979 8.92959 29.9979H61.2517C62.7604 29.9979 63.9835 28.7748 63.9835 27.2661C63.9835 25.7574 62.7604 24.5343 61.2517 24.5343Z" fill="#425AF2"/>
<path d="M53.6327 89.7928C53.6327 89.7928 54.4223 90.2981 54.6394 89.4335C54.8565 88.569 55.8592 79.2999 55.8592 79.2999L53.6327 74.772V89.7928Z" fill="url(#paint4_linear)"/>
<path d="M40.7318 99.5674H32.1812C31.6841 99.5674 31.2812 99.9695 31.2812 100.466C31.2812 100.962 31.6841 101.364 32.1812 101.364H40.7318C41.2289 101.364 41.6319 100.962 41.6319 100.466C41.6319 99.9695 41.2289 99.5674 40.7318 99.5674Z" fill="url(#paint5_linear)"/>
</g>
<defs>
<linearGradient id="paint0_linear" x1="72.163" y1="60.6987" x2="8.95723" y2="67.8479" gradientUnits="userSpaceOnUse">
<stop stop-opacity="0"/>
<stop offset="0.99"/>
</linearGradient>
<linearGradient id="paint1_linear" x1="2065.75" y1="5077.06" x2="3393.72" y2="4122.37" gradientUnits="userSpaceOnUse">
<stop stop-opacity="0"/>
<stop offset="0.99"/>
</linearGradient>
<linearGradient id="paint2_linear" x1="1702.26" y1="12241" x2="4709.84" y2="12241" gradientUnits="userSpaceOnUse">
<stop stop-opacity="0"/>
<stop offset="0.99"/>
</linearGradient>
<linearGradient id="paint3_linear" x1="8728.19" y1="1242.61" x2="8894.84" y2="5779.41" gradientUnits="userSpaceOnUse">
<stop stop-opacity="0"/>
<stop offset="0.99"/>
</linearGradient>
<linearGradient id="paint4_linear" x1="522.394" y1="2543.6" x2="1250.83" y2="4653.36" gradientUnits="userSpaceOnUse">
<stop stop-opacity="0"/>
<stop offset="0.99"/>
</linearGradient>
<linearGradient id="paint5_linear" x1="987.068" y1="528.189" x2="987.068" y2="615.393" gradientUnits="userSpaceOnUse">
<stop stop-opacity="0"/>
<stop offset="0.99"/>
</linearGradient>
<clipPath id="clip0">
<rect width="107.917" height="140.82" fill="white"/>
</clipPath>
</defs>
</svg>
