<?xml version="1.0" encoding="UTF-8"?>
<svg width="180px" height="50px" viewBox="0 0 180 50" version="1.1" xmlns="http://www.w3.org/2000/svg" xmlns:xlink="http://www.w3.org/1999/xlink">
    <!-- Generator: Sketch 59 (86127) - https://sketch.com -->
    <title>Group 20</title>
    <desc>Created with Sketch.</desc>
    <defs>
        <linearGradient x1="3.22404372%" y1="57.7278841%" x2="95.136612%" y2="49.2472221%" id="linearGradient-1">
            <stop stop-color="#3376FF" offset="0%"></stop>
            <stop stop-color="#FFFFFF" offset="100%"></stop>
        </linearGradient>
        <linearGradient x1="-8.65166479%" y1="68.487699%" x2="94.7261543%" y2="29.8721659%" id="linearGradient-2">
            <stop stop-color="#3376FF" offset="0%"></stop>
            <stop stop-color="#FFFFFF" offset="100%"></stop>
        </linearGradient>
        <linearGradient x1="31.0723514%" y1="77.1559034%" x2="77.6162791%" y2="30.474681%" id="linearGradient-3">
            <stop stop-color="#3376FF" offset="0%"></stop>
            <stop stop-color="#3477FF" offset="0%"></stop>
            <stop stop-color="#699AFF" offset="15%"></stop>
            <stop stop-color="#97B9FF" offset="29%"></stop>
            <stop stop-color="#BDD2FF" offset="44%"></stop>
            <stop stop-color="#DAE6FF" offset="58%"></stop>
            <stop stop-color="#EEF4FF" offset="72%"></stop>
            <stop stop-color="#FBFCFF" offset="86%"></stop>
            <stop stop-color="#FFFFFF" offset="100%"></stop>
        </linearGradient>
        <linearGradient x1="24.5724562%" y1="91.6557285%" x2="67.9464591%" y2="8.34427152%" id="linearGradient-4">
            <stop stop-color="#3376FF" offset="0%"></stop>
            <stop stop-color="#3477FF" offset="0%"></stop>
            <stop stop-color="#699AFF" offset="15%"></stop>
            <stop stop-color="#97B9FF" offset="29%"></stop>
            <stop stop-color="#BDD2FF" offset="44%"></stop>
            <stop stop-color="#DAE6FF" offset="58%"></stop>
            <stop stop-color="#EEF4FF" offset="72%"></stop>
            <stop stop-color="#FBFCFF" offset="86%"></stop>
            <stop stop-color="#FFFFFF" offset="100%"></stop>
        </linearGradient>
    </defs>
    <g id="Symbols" stroke="none" stroke-width="1" fill="none" fill-rule="evenodd">
        <g id="Footer" transform="translate(-190.000000, -53.000000)" fill-rule="nonzero">
            <g id="Group-19">
                <g id="Group-20" transform="translate(190.000000, 53.000000)">
                    <g id="Logo-Monocolor">
                        <rect id="Rectangle" fill="#3366FF" x="0" y="0" width="49.3996569" height="49.3996569" rx="4.11560892"></rect>
                        <polygon id="Path" fill="url(#linearGradient-1)" points="36.7317324 32.2981132 24.2150943 36.1327616 41.1653516 41.1653516"></polygon>
                        <polygon id="Path" fill="url(#linearGradient-2)" points="24.6998285 23.8878216 27.284048 28.9728988 33.1811321 25.1969125 28.3646655 15.5639794 8.23430532 41.1653516 19.651801 33.986964"></polygon>
                        <polygon id="Path" fill="url(#linearGradient-3)" points="8.23430532 41.1653516 32.8631218 24.5608919 36.9108062 32.6531732"></polygon>
                        <polygon id="Path" fill="url(#linearGradient-4)" points="28.6672384 16.1660377 24.6998285 8.23430532 8.23430532 41.1653516"></polygon>
                    </g>
                    <g id="Construction" transform="translate(61.749571, 12.658662)" fill="#000000">
                        <path d="M9.16363636,0.172898799 L14.3135506,0.172898799 L23.322813,23.6377358 L17.4782161,23.6377358 L15.5670669,18.3890223 L7.8761578,18.3890223 L5.99897084,23.6377358 L0.154373928,23.6377358 L9.16363636,0.172898799 Z M14.6253859,14.6500858 L11.7324185,6.35403087 L8.77461407,14.6500858 L14.6253859,14.6500858 Z" id="Shape"></path>
                        <polygon id="Path" points="26.4102916 23.6377358 26.4102916 0.172898799 32.109777 0.172898799 32.109777 10.2874786 41.1560892 0.172898799 47.5564322 0.172898799 38.2939966 10.651801 48.173928 23.6377358 41.6809605 23.6377358 34.6909091 14.2024014 32.109777 16.7310463 32.109777 23.6377358"></polygon>
                        <polygon id="Path" points="54.2408233 0.172898799 60.051458 16.8298456 65.7910806 0.172898799 71.8085763 0.172898799 62.4504288 23.6377358 57.6524871 23.6377358 48.1893654 0.172898799"></polygon>
                        <polygon id="Path" points="92.2569468 18.8799314 92.2569468 23.6377358 74.8960549 23.6377358 74.8960549 0.172898799 91.9451115 0.172898799 91.9451115 4.93996569 80.6017153 4.93996569 80.6017153 9.50017153 90.3427101 9.50017153 90.3427101 13.8936535 80.6017153 13.8936535 80.6017153 18.8861063"></polygon>
                        <path d="M105.875815,23.6377358 C104.17579,23.6595775 102.490981,23.3152445 100.935849,22.6281304 C98.0960568,21.3803359 95.851335,19.079164 94.6744425,16.2092624 C94.0971787,14.8251032 93.8001961,13.3401903 93.8006823,11.8404803 C93.7994285,10.3273076 94.1083596,8.82993771 94.7084048,7.44082333 C95.3067829,6.04193444 96.1719544,4.77301624 97.2555746,3.70497427 C98.366803,2.60932489 99.6766052,1.73542491 101.114923,1.13001715 C102.654249,0.477033207 104.311871,0.149082474 105.983877,0.166723842 C107.684154,0.145563696 109.369035,0.490964192 110.923842,1.17941681 C113.769331,2.4311426 116.01143,4.74749785 117.169811,7.632247 C117.731078,8.99684599 118.02155,10.4575916 118.025051,11.9331046 C118.026914,13.4463396 117.717957,14.9438327 117.117324,16.3327616 C116.521174,17.7283298 115.662772,18.9965422 114.588679,20.0686106 C113.481998,21.1650756 112.179111,22.0437913 110.747856,22.6590051 C109.209778,23.3211563 107.550284,23.6545274 105.875815,23.6377358 L105.875815,23.6377358 Z M99.5310181,11.9053173 C99.5287449,12.7861779 99.6673748,13.661735 99.941681,14.4987993 C100.204828,15.3120542 100.617373,16.0690848 101.158148,16.7310463 C101.706061,17.391 102.390804,17.9240463 103.165009,18.2933105 C104.022772,18.6969489 104.961954,18.897674 105.909777,18.8799314 C107.773851,18.9364684 109.555021,18.1088421 110.713894,16.6476844 C111.243733,15.9780717 111.644691,15.2159374 111.896398,14.4 C112.158099,13.5720224 112.291378,12.7088316 112.291598,11.8404803 C112.292257,10.9607573 112.153664,10.0864743 111.880961,9.25008576 C111.61829,8.43746923 111.198698,7.68430048 110.645969,7.03327616 C110.09176,6.38461746 109.408222,5.85881878 108.639108,5.48953688 C107.779666,5.10124225 106.843225,4.91332067 105.900515,4.93996569 C104.938467,4.92310939 103.986146,5.13473627 103.121784,5.55746141 C102.355506,5.94054317 101.677323,6.47888307 101.13036,7.13825043 C100.588651,7.79714136 100.180688,8.55538623 99.929331,9.37049743 C99.6689716,10.1903929 99.5346779,11.0450834 99.5310181,11.9053173 L99.5310181,11.9053173 Z" id="Shape"></path>
                    </g>
                </g>
            </g>
        </g>
    </g>
</svg>