<?xml version="1.0" encoding="utf-8"?>
<!-- Generator: Adobe Illustrator 19.2.1, SVG Export Plug-In . SVG Version: 6.00 Build 0)  -->
<svg version="1.1" id="layer" xmlns="http://www.w3.org/2000/svg" xmlns:xlink="http://www.w3.org/1999/xlink" x="0px" y="0px"
	 viewBox="0 0 652 652" style="enable-background:new 0 0 652 652;" xml:space="preserve">
<style type="text/css">
	.st0{fill:#FFFFFF;}
	.st1{fill:#75459B;}
</style>
<g>
	<path class="st0" d="M180.1,440.6l27.2-4.7c13.3,14.8,8.1,20.7,19.5,29.1c18.9,14,42.7,7.8,50.7-3.7c9.5-13.5,8.9-26.4,5.9-38.6
		l30.8-5.3l3.8,32l175.5-32.2l-10.4-128.5l-6,1.1L458.4,83.7l-316.9,33.6L180.1,440.6z"/>
	<path class="st1" d="M320.1,197c2.7-2.6-13.5-6.1-26.1,2.7c-9.3,6.4-9.6,20.3-0.7,28.1c0.9,0.8,1.6,1.3,2.3,1.8
		c2.6-1.2,5.6-2.5,9-3.6c5.8-1.9,10.6-2.9,14.5-3.4c1.9-2.1,4.1-5.9,3.5-12.7C321.8,200.6,314.9,202,320.1,197 M405.4,247.3
		c-1.5-0.9-8.7-0.5-13.8,0.1c-9.6,1.2-20,4.6-22.3,6.4c-4.1,3.3-2.3,8.9,0.8,11.3c8.6,6.5,16.1,10.9,24.1,9.8
		c4.9-0.7,9.2-8.5,12.2-15.6C408.5,254.3,408.5,249,405.4,247.3 M372.5,189.4c-0.6,1.3-1.4,2.1-0.1,6.3l0.1,0.2l0.2,0.5l0.5,1.3
		c2.4,4.9,4.9,9.5,9.3,11.9c1.1-0.2,2.3-0.3,3.5-0.4c4.1-0.2,6.6,0.5,8.3,1.4c0.1-0.8,0.2-2,0.1-3.8c-0.3-6.2,1.2-16.8-10.5-22.3
		c-4.4-2.1-10.7-1.4-12.7,1.2c0.4,0,0.7,0.1,1,0.2C375.2,186.9,373.1,188,372.5,189.4 M493.4,274.4l-10.1,2L463.9,72.4l-331.1,39
		l40.8,336.2l38.7-5.7c-3.1-4.5-7.9-9.9-16.1-16.9c-11.4-9.6-7.4-26-0.6-36.3c8.9-17.5,54.8-39.6,52.2-67.5
		c-0.9-10.1-2.5-23.3-11.8-32.4c-0.3,3.8,0.3,7.4,0.3,7.4s-3.8-4.9-5.7-11.7c-1.9-2.6-3.4-3.4-5.4-6.9c-1.4,4-1.2,8.6-1.2,8.6
		s-3.1-7.5-3.6-13.8c-1.8,2.8-2.3,8.2-2.3,8.2s-4-11.8-3.1-18.1c-1.8-5.5-7.3-16.5-5.8-41.4c10.1,7.2,32.3,5.5,41-7.5
		c2.9-4.3,4.8-16-1.4-39.1c-4-14.8-14-36.9-17.9-45.3l-0.5,0.3c2,6.7,6.3,20.9,7.9,27.7c4.9,20.8,6.2,28,3.9,37.6
		c-2,8.3-6.7,13.8-18.6,19.9c-11.9,6.1-27.8-8.8-28.8-9.6c-11.6-9.4-20.6-24.7-21.6-32.2c-1-8.1,4.6-13,7.5-19.7
		c-4.1,1.2-8.6,3.3-8.6,3.3s5.4-5.7,12.1-10.7c2.8-1.9,4.4-3,7.3-5.5c-4.2-0.1-7.7,0-7.7,0s7.1-3.9,14.4-6.7c-5.4-0.2-10.5,0-10.5,0
		s15.8-7.2,28.2-12.4c8.6-3.6,16.9-2.5,21.6,4.4c6.2,9,12.6,14,26.4,17c8.4-3.8,11-5.7,21.6-8.7c9.3-10.4,16.6-11.8,16.6-11.8
		s-3.6,3.4-4.6,8.7c5.3-4.2,11.1-7.8,11.1-7.8s-2.2,2.8-4.3,7.3l0.5,0.7c6.2-3.8,13.4-6.7,13.4-6.7s-2.1,2.7-4.5,6.1
		c4.6,0,14.1,0.2,17.7,0.6c21.6,0.5,26.1-23.4,34.4-26.4c10.4-3.8,15-6,32.7,11.6c15.2,15.2,27,42.3,21.2,48.3
		c-4.9,5-14.7-2-25.5-15.6c-5.7-7.2-10-15.8-12-26.7c-1.7-9.2-8.3-14.5-8.3-14.5s3.8,8.7,3.8,16.4c0,4.2,0.5,19.9,7.1,28.7
		c-0.7,1.3-1,6.4-1.7,7.3c-7.7-9.5-24.3-16.2-27-18.2c9.1,7.6,30.1,25.1,38.2,41.8c7.6,15.8,3.1,30.3,7,34.1
		c1.1,1.1,16.4,20.4,19.3,30.2c5.1,17,0.3,34.8-6.4,45.8l-18.8,3c-2.7-0.8-4.6-1.2-7.1-2.6c1.4-2.4,4.1-8.5,4.1-9.8l-1.1-1.9
		c-5.8,8.4-15.6,16.6-23.8,21.3c-10.6,6.1-22.9,5.2-30.9,2.7c-22.7-7.1-44.1-22.7-49.2-26.7c0,0-0.2,3.3,0.8,4
		c5.7,6.5,18.8,18.4,31.5,26.6l-27,3l12.8,100.9c-5.6,0.8-6.5,1.2-12.7,2.1c-5.5-19.6-15.9-32.4-27.3-39.8
		c-10.1-6.6-23.9-8-37.2-5.4l-0.8,1c9.2-1,20.1,0.4,31.3,7.6c11,7.1,19.8,25.3,23.1,36.3c4.2,14,7.1,29-4.2,44.9
		c-8,11.3-31.3,17.5-50.2,4c5,8.2,11.8,15,21,16.2c13.6,1.9,26.5-0.5,35.4-9.8c7.6-7.9,11.6-24.5,10.5-41.9l12-1.8l4.3,31.3
		l198.8-24.3L493.4,274.4z M303.1,320.7l25-3.5c4,1.8,6.9,2.6,11.7,3.8c7.6,2,16.3,3.9,29.3-2.7c3-1.5,9.3-7.3,11.8-10.7l102.5-18.9
		l10.4,128.5l-175.5,32.1L303.1,320.7z M448.5,363.4l-33.6-22.5l-28,47.5l-32.6-9.7l-28.7,44.5l1.5,14L483,408L474,309L448.5,363.4z
		"/>
	<path class="st1" d="M555.6,541.5v17.6c-3.2,0.8-6,1.3-8.5,1.3c-16.9,0-25.3-9-25.3-27.1c0-16.7,8.9-25,26.8-25
		c7.5,0,14.4,1.4,20.8,4.2v-12.6c-6.4-2.5-13.7-3.7-21.9-3.7c-26.7,0-40.1,12.4-40.1,37.1c0,26.1,13.1,39.2,39.4,39.2
		c9,0,16.6-1.3,22.6-4v-39.4h-22.3l-4.7,12.4H555.6z M461.2,560.3c15,0,22.5-8.7,22.5-26.2c0-17.2-7.5-25.9-22.5-25.9
		c-15.4,0-23.1,8.6-23.1,25.9C438.2,551.6,445.8,560.3,461.2,560.3 M423.8,534.4c0-25.5,12.5-38.3,37.4-38.3
		c24.5,0,36.8,12.8,36.8,38.3c0,25.4-12.3,38.1-36.8,38.1C437.4,572.4,424.9,559.8,423.8,534.4 M361.1,559.8h16.4
		c15.4,0,23.2-9.2,23.2-27.6c0-15.7-7.7-23.5-23.2-23.5h-16.4V559.8z M379.6,571.9h-32.3v-75.2h32.3c23.3,0,34.9,11.9,34.9,35.6
		C414.5,558.7,402.9,571.9,379.6,571.9 M273.6,571.9h-14.2l31.6-75.2h14.8l32.3,75.2h-14.8l-9.4-20.5h-23.8l4.7-12.1h15.5L298.1,511
		L273.6,571.9z M210,496.7h56.5v12.1h-21.3v63.1h-13.8v-63.1H210V496.7z M153.2,571.9h-14.2l31.6-75.2h14.8l32.3,75.2H203l-9.4-20.5
		h-23.9l4.7-12.1h15.5L177.8,511L153.2,571.9z M85.4,559.8h16.4c15.5,0,23.2-9.2,23.2-27.6c0-15.7-7.7-23.5-23.2-23.5H85.4V559.8z
		 M103.9,571.9H71.6v-75.2h32.3c23.3,0,34.9,11.9,34.9,35.6C138.8,558.7,127.1,571.9,103.9,571.9"/>
</g>
</svg>
