<?xml version="1.0" encoding="utf-8"?>
<!-- Generator: Adobe Illustrator 18.1.1, SVG Export Plug-In . SVG Version: 6.00 Build 0)  -->
<svg version="1.1" id="Layer_1" xmlns="http://www.w3.org/2000/svg" xmlns:xlink="http://www.w3.org/1999/xlink" x="0px" y="0px"
	 viewBox="402.3 266 154.8 28" enable-background="new 402.3 266 154.8 28" xml:space="preserve">
<g>
	<path fill="#39A0CC" d="M402.3,266H418l0,0l-15.6,15.3V266z"/>
	<path fill="#2776BC" d="M402.6,282.7l8.8-8.8h11.4L402.6,294V282.7z"/>
	<path fill="#223F71" d="M423,275.1l-9.3,9.3l9.4,9.4L423,275.1L423,275.1z"/>
	<g>
		<path fill="#223F71" d="M431.4,282c-0.1,0.1-0.2,0.1-0.3,0.2c-0.1,0-0.2,0.1-0.4,0.1c-0.1,0-0.3,0-0.3,0c-0.1,0-0.2,0-0.3,0
			c-0.1,0-0.2,0-0.2,0v1.4c0.1,0,0.2,0,0.4,0s0.5,0.1,0.8,0.3c0.3,0.2,0.5,0.4,0.5,0.8v5.4c0,0.5,0.1,0.9,0.2,1.3
			c0.5,1.4,1.7,2.1,3.7,2.1v-1.5c-0.1,0-0.1,0-0.2,0c-0.6,0-1.1-0.2-1.4-0.5c-0.4-0.3-0.5-0.8-0.5-1.4v-5.3c0-0.4-0.2-0.8-0.5-1.1
			c-0.3-0.3-0.7-0.5-1.3-0.6c0.5-0.1,1-0.3,1.3-0.6c0.3-0.3,0.5-0.7,0.5-1.2v-4.2c0-0.8,0.2-1.4,0.5-1.7c0.4-0.3,0.9-0.5,1.5-0.5
			v-1.6c-0.9,0-1.5,0.2-2.1,0.5c-1.1,0.7-1.6,1.6-1.6,3.1v4.5C431.7,281.7,431.6,281.9,431.4,282L431.4,282z"/>
		<path fill="#223F71" d="M442.3,284.8v-1.6h-6.1v1.6H442.3z"/>
		<path fill="#223F71" d="M443,292.1v1.6c1.4,0,2.4-0.4,3-1.1c0.5-0.6,0.8-1.4,0.8-2.2V285c0-0.3,0.1-0.5,0.3-0.6
			c0.2-0.2,0.4-0.3,0.6-0.3c0.2-0.1,0.4-0.1,0.5-0.1c0.1,0,0.2,0,0.3,0v-1.6c0,0-0.2,0-0.4,0c-0.2,0-0.5-0.1-0.8-0.2
			c-0.4-0.1-0.6-0.4-0.6-0.8V277c0-1.1-0.3-1.9-1-2.6c-0.7-0.7-1.5-1.1-2.8-1.1v1.6c0.6,0,1.1,0.1,1.4,0.4c0.4,0.3,0.6,0.9,0.6,1.7
			v4.3c0,0.5,0.2,0.9,0.5,1.2c0.3,0.3,0.7,0.5,1.3,0.6c-0.3,0.1-0.6,0.2-0.9,0.3c-0.6,0.3-0.8,0.8-0.8,1.4v5.3
			c0,0.6-0.2,1.1-0.5,1.4c-0.4,0.3-0.8,0.5-1.4,0.5C443.1,292.1,443.1,292.1,443,292.1L443,292.1z"/>
	</g>
	<g>
		<path fill="#223F71" d="M452.1,281.2c3-0.2,5.3-0.3,6.9-0.3c1.5,0,2.3,0.8,2.3,2.2c0,0,0,0.2,0,0.5c0,0.3,0,0.8,0,1.4
			c-2,0-4.1,0-6.1,0c-1.2,0-2,0.3-2.7,1c-0.7,0.7-1,1.5-1,2.6v1.6c0,1.2,0.4,1.9,1.1,2.6c0.7,0.6,1.5,1,2.6,1c1.4,0,3.3-0.6,5.6-1.7
			l0.4-0.2l0.5,1.7h1.5V283c0-1.4-0.4-2.4-1.2-3.1c-0.8-0.7-1.7-1.1-2.9-1.1c-2.8,0-5.2,0.3-7.1,0.8l0,0L452.1,281.2L452.1,281.2z
			 M453.8,288.6c0-0.5,0.1-0.9,0.4-1.2c0.3-0.3,0.7-0.5,1.3-0.6l6.1-0.4v3.9l-1,0.4c-0.7,0.2-1.5,0.5-2.5,0.7
			c-1,0.2-1.8,0.4-2.5,0.4c-1.1,0-1.6-0.6-1.6-1.7L453.8,288.6L453.8,288.6z"/>
		<path fill="#223F71" d="M467.6,292.3c0.5,0.5,1,0.9,1.4,1c0.5,0.2,1.2,0.3,1.9,0.3c2.5,0,4.6-0.3,6.4-0.8v-1.5l-1.1,0.1
			c-1.8,0.1-3.7,0.2-5.4,0.2c-1.1,0-1.7-0.4-2.1-1.1c-0.4-0.8-0.6-2.2-0.6-4.4c0-2.2,0.3-3.7,0.8-4.2c0.3-0.3,0.6-0.5,0.9-0.6
			c0.3-0.1,1-0.1,2-0.1s2.8,0.1,5.4,0.2v-1.4c-2.5-0.5-4.4-0.7-5.6-0.7c-1.2,0-2,0.1-2.6,0.3c-0.5,0.2-1.1,0.5-1.4,1
			c-0.5,0.5-0.8,1.3-1.1,2.2c-0.2,1-0.4,2.2-0.4,3.8s0.1,2.8,0.4,3.8C466.7,291,467.1,291.8,467.6,292.3z"/>
		<path fill="#223F71" d="M482.1,293.4v-7.1h1.1l5.8,7.2h2.5l-6.5-8.2l6.5-6.1h-2.8l-5.5,5.1h-1.1v-11.9h-2v21H482.1L482.1,293.4z"
			/>
		<path fill="#223F71" d="M504,292.1c0.9-1.1,1.4-2.9,1.4-5.7c0-2.8-0.5-4.6-1.4-5.7c-0.9-1.1-2.6-1.6-5-1.6s-4.1,0.5-5,1.5
			s-1.4,2.9-1.4,5.7c0,2.7,0.5,4.6,1.4,5.7c1,1.1,2.6,1.5,5,1.5C501.5,293.5,503.1,293,504,292.1z M496.2,281.4
			c0.4-0.2,0.8-0.3,1.2-0.4s1-0.1,1.8-0.1c0.8,0,1.4,0,1.9,0.1s0.9,0.3,1.3,0.7c0.4,0.4,0.7,1,0.8,1.6c0.1,0.8,0.2,1.7,0.2,2.9
			c0,1.3-0.1,2.1-0.3,2.9c-0.2,0.7-0.5,1.2-0.9,1.5c-0.4,0.3-0.9,0.6-1.4,0.7s-1.1,0.1-1.9,0.1c-0.9,0-1.4,0-1.9-0.1
			c-0.5-0.1-0.9-0.3-1.4-0.6c-0.4-0.3-0.8-0.9-0.9-1.5c-0.2-0.7-0.3-1.6-0.3-2.7s0.1-1.9,0.2-2.6s0.3-1.2,0.5-1.6
			C495.5,281.9,495.8,281.6,496.2,281.4z"/>
		<path fill="#223F71" d="M512,293.4h2.4V292c-0.1,0-1-0.2-2.4-0.6c-0.5-0.1-1-0.4-1.2-0.8c-0.3-0.4-0.4-1.2-0.4-2.3v-15.9h-2v15.9
			C508.3,291.8,509.6,293.4,512,293.4L512,293.4z"/>
		<path fill="#223F71" d="M516.2,281.2c3-0.2,5.3-0.3,6.9-0.3c1.5,0,2.3,0.8,2.3,2.2c0,0,0,0.2,0,0.5c0,0.3,0,0.8,0,1.4
			c-2,0-4.1,0-6.1,0c-1.2,0-2,0.3-2.7,1c-0.7,0.7-1,1.5-1,2.6v1.6c0,1.2,0.4,1.9,1.1,2.6c0.7,0.6,1.5,1,2.6,1c1.4,0,3.3-0.6,5.6-1.7
			l0.4-0.2l0.5,1.7h1.5V283c0-1.4-0.4-2.4-1.2-3.1c-0.8-0.7-1.7-1.1-2.9-1.1c-2.8,0-5.2,0.3-7.1,0.8l0,0L516.2,281.2L516.2,281.2z
			 M517.8,288.6c0-0.5,0.1-0.9,0.4-1.2c0.3-0.3,0.7-0.5,1.3-0.6l6.1-0.4v3.9l-1,0.4c-0.7,0.2-1.5,0.5-2.5,0.7
			c-1,0.2-1.8,0.4-2.5,0.4c-1.1,0-1.6-0.6-1.6-1.7L517.8,288.6L517.8,288.6z"/>
		<path fill="#223F71" d="M532.6,292.9c0.7,0.4,1.4,0.7,2.3,0.7s1.9-0.2,3.1-0.7c1.2-0.4,1.9-0.8,2.4-1.2l0.6,1.5h1.4v-21h-2v7.7
			c-0.8-0.3-1.7-0.6-2.8-0.8c-1.1-0.2-1.9-0.3-2.6-0.3c-1.9,0-3.3,0.8-4,2.4c-0.3,0.8-0.5,1.5-0.7,2.3c-0.1,0.8-0.2,1.6-0.2,2.6
			s0.1,1.8,0.2,2.6c0.1,0.8,0.4,1.5,0.7,2.3C531.4,292,531.9,292.6,532.6,292.9z M532.9,282.1c0.5-0.8,1.2-1.2,2.1-1.2
			c1.7,0,3.6,0.2,5.3,0.7v8.7c-2,0.9-3.9,1.3-5.3,1.3c-1.8,0-2.8-1.7-2.8-5.2C532.2,284.2,532.4,282.9,532.9,282.1z"/>
		<path fill="#223F71" d="M546.3,292c0.7,1.1,1.9,1.5,3.8,1.5c2.7,0,5-0.3,6.9-0.8v-1.5c-1.3,0.2-3.5,0.3-6.9,0.3
			c-1.1,0-1.8-0.3-2.2-0.9s-0.6-1.6-0.6-3.4h6.1c2.5,0,3.8-1.1,3.8-3.3c0-1.2-0.1-2-0.4-2.8c-0.2-0.7-0.6-1.3-1.2-1.5
			c-0.6-0.3-1.1-0.5-1.6-0.6c-0.6-0.1-1.4-0.1-2.5-0.1c-1.2,0-2,0.1-2.7,0.2c-0.7,0.2-1.4,0.5-1.9,1c-0.6,0.5-1,1.3-1.2,2.2
			s-0.3,2.2-0.3,3.8C545.3,289.1,545.6,291,546.3,292z M547.4,283.4c0.1-0.7,0.4-1.3,0.9-1.7c0.4-0.4,1.4-0.6,3.4-0.6
			c1.5,0,2.5,0.2,2.9,0.5c0.4,0.3,0.6,1.2,0.6,2.6c0,0.9-0.6,1.4-1.7,1.4h-6.1C547.3,284.7,547.3,284.1,547.4,283.4z"/>
	</g>
</g>
</svg>
