<svg width="112" height="65" viewBox="0 0 112 65" fill="none" xmlns="http://www.w3.org/2000/svg">
<path fill-rule="evenodd" clip-rule="evenodd" d="M36.9283 30.2761L33.3528 36.6421L41.1484 42.9441L43.716 33.5501L36.9283 30.2761Z" fill="#24273F"/>
<path fill-rule="evenodd" clip-rule="evenodd" d="M34.1727 22L28 32.316L32.7336 36.142L36.6832 29.54L43.9209 32.804L45.4805 27.1L34.1727 22Z" fill="#24273F"/>
<path fill-rule="evenodd" clip-rule="evenodd" d="M50.4232 23.3501C50.432 23.0785 50.6625 22.8604 50.9494 22.8521H52.5533C52.8402 22.8604 53.0707 23.0785 53.0795 23.3501V34.678L57.3926 31.0161C57.5753 30.8358 57.8207 30.7243 58.0836 30.7021H60.0193C60.1982 30.6937 60.3633 30.793 60.4312 30.9499C60.4991 31.1068 60.4552 31.2872 60.3215 31.4L55.7316 35.358L61.1499 40.486C61.2844 40.5962 61.3286 40.7758 61.2592 40.9309C61.1899 41.0859 61.0228 41.1809 60.8456 41.166H58.5802C58.3931 41.1647 58.2143 41.0927 58.0836 40.966L53.0774 36.092V40.67C53.0686 40.9416 52.8381 41.1597 52.5512 41.168H50.9494C50.6625 41.1597 50.432 40.9416 50.4232 40.67V23.3501Z" fill="#24273F"/>
<path d="M61.6761 31.2C61.6849 30.9285 61.9154 30.7103 62.2023 30.702H63.7788C64.064 30.7124 64.2921 30.93 64.3007 31.2V40.67C64.2919 40.9415 64.0614 41.1597 63.7746 41.168H62.1981C61.9112 41.1597 61.6807 40.9415 61.6719 40.67V31.2H61.6761ZM61.3718 26.908C61.3599 26.5042 61.5204 26.1128 61.817 25.8223C62.1136 25.5317 62.5214 25.3665 62.9483 25.364C63.8417 25.364 64.5659 26.0495 64.5659 26.895C64.5659 27.7406 63.8417 28.426 62.9483 28.426C62.5257 28.425 62.1212 28.2639 61.825 27.9787C61.5288 27.6935 61.3656 27.3079 61.3718 26.908Z" fill="#24273F"/>
<path fill-rule="evenodd" clip-rule="evenodd" d="M66.9548 32.8739H65.7947C65.6549 32.8744 65.5208 32.8221 65.422 32.7286C65.3232 32.6351 65.2679 32.5081 65.2685 32.3759V31.1999C65.2637 31.0665 65.3176 30.9372 65.4174 30.8428C65.5171 30.7484 65.6537 30.6974 65.7947 30.7019H66.9548V27.7999C66.9636 27.5284 67.1941 27.3102 67.481 27.3019L69.0575 27.2759C69.3379 27.2877 69.5578 27.5082 69.5541 27.7739V30.7019H72.3773C72.5175 30.6985 72.653 30.75 72.7518 30.8443C72.8506 30.9385 72.904 31.0672 72.8993 31.1999V32.3779C72.8993 32.651 72.6659 32.8728 72.3773 32.8739H69.5541V38.0539C69.5541 38.9439 69.9133 39.0999 70.4395 39.0999C71.0206 39.0999 71.7941 38.7859 72.1301 38.6299C72.4661 38.4739 72.6562 38.6299 72.764 38.8659L73.2606 40.0179C73.3285 40.1302 73.3399 40.2653 73.2916 40.3864C73.2434 40.5075 73.1406 40.6019 73.0113 40.6439C72.7344 40.8019 71.1094 41.4279 69.7759 41.4279C67.5909 41.4279 66.9569 40.1719 66.9569 38.3139V32.8739H66.9548Z" fill="#24273F"/>
<path d="M81.3859 34.7839C81.3054 33.5034 80.2049 32.4931 78.85 32.4559C77.4197 32.4358 76.2037 33.44 76.031 34.7839H81.3859ZM78.8712 30.4399C81.7451 30.4399 83.9576 32.4799 83.9576 35.2799C83.9531 35.5161 83.9348 35.7517 83.9027 35.9859C83.8822 36.2327 83.6675 36.4245 83.4061 36.4299H75.8852C76.0116 38.0015 77.3898 39.2189 79.055 39.2299C79.9336 39.1992 80.7855 38.9366 81.5148 38.4719C81.8466 38.2879 82.041 38.1839 82.2607 38.4459L83.0342 39.4459C83.2286 39.6459 83.311 39.8639 82.9792 40.1259C82.1783 40.7799 80.7392 41.4339 78.8881 41.4339C75.5429 41.4339 73.3303 38.9479 73.3303 35.9399C73.3303 32.9839 75.5429 30.4459 78.8585 30.4459L78.8712 30.4399Z" fill="#24273F"/>
</svg>
