<svg width="151" height="80" viewBox="0 0 151 80" fill="none" xmlns="http://www.w3.org/2000/svg">
<path d="M68.0865 53.8183L73.6001 54.9426V30.4453L68.0865 31.5156V53.8183Z" fill="#050038"/>
<path d="M82.5081 40.4116V53.817L88.0216 54.9414V41.2441C88.0216 38.1306 89.7729 36.7251 92.5081 36.2062L95.6864 35.6224V29.8711L92.5081 30.39C86.454 31.7738 82.5081 33.7522 82.5081 40.4116Z" fill="#050038"/>
<path d="M59.1784 39.6015C59.1784 32.3582 54.3568 29.9366 50.4757 29.9906C47.3946 30.0339 44.8865 31.3096 43.3838 33.2663C41.8919 31.115 39.2325 29.9258 37.0703 29.9258C34.4108 29.9258 32.0649 31.0933 30.5297 32.9636V30.4447L25.0162 31.515V53.8177L30.5297 54.942V39.6015C30.5297 37.169 32.3027 35.4393 34.973 35.4393C37.5892 35.4393 39.3622 37.169 39.3622 39.6015V53.8177L44.8757 54.942V39.6015C44.8757 37.169 46.6487 35.4393 49.2649 35.4393C51.8811 35.4393 53.6541 37.169 53.6541 39.6015V53.8177L59.1676 54.942V39.6015H59.1784Z" fill="#050038"/>
<path d="M112.995 50.2825C108.714 50.2825 105.849 47.2231 105.849 42.6717C105.849 38.1204 108.714 35.1042 112.995 35.1042C116.995 35.1042 119.622 38.1096 119.622 42.6717C119.622 47.2339 116.984 50.2825 112.995 50.2825ZM112.995 55.4501C120.378 55.4501 125.265 50.3258 125.265 42.6609C125.265 34.9961 120.378 29.9258 112.995 29.9258C105.33 29.9258 100.205 35.0069 100.205 42.6609C100.205 50.315 105.33 55.4501 112.995 55.4501Z" fill="#050038"/>
<path d="M70.9622 26.628C72.973 26.628 74.3027 25.2334 74.3027 23.147C74.3027 21.0605 72.973 19.6875 70.9622 19.6875C68.8757 19.6875 67.4811 21.0713 67.4811 23.147C67.4811 25.2226 68.8757 26.628 70.9622 26.628Z" fill="#050038"/>
</svg>
