<svg width="186" height="50" viewBox="0 0 186 50" fill="none" xmlns="http://www.w3.org/2000/svg">
<path d="M181.322 38.939C180.776 38.9396 180.242 38.7787 179.788 38.4766C179.333 38.1745 178.978 37.7446 178.767 37.241C178.556 36.7375 178.498 36.1827 178.602 35.6466C178.705 35.1104 178.965 34.6168 179.348 34.2279C179.731 33.8389 180.22 33.5719 180.754 33.4605C181.289 33.3492 181.844 33.3984 182.35 33.6019C182.857 33.8055 183.292 34.1543 183.601 34.6046C183.909 35.0548 184.078 35.5864 184.086 36.1323C184.096 36.5004 184.031 36.8666 183.896 37.2091C183.761 37.5516 183.558 37.8632 183.3 38.1253C183.041 38.3875 182.733 38.5946 182.392 38.7345C182.052 38.8743 181.687 38.9439 181.319 38.939H181.322ZM181.319 33.6523C180.82 33.6484 180.331 33.7926 179.914 34.0668C179.498 34.341 179.172 34.7328 178.978 35.1925C178.784 35.6522 178.731 36.1592 178.825 36.6491C178.92 37.1391 179.157 37.59 179.508 37.9447C179.859 38.2994 180.307 38.5419 180.796 38.6415C181.284 38.7412 181.792 38.6934 182.253 38.5043C182.715 38.3152 183.11 37.9932 183.388 37.5793C183.667 37.1653 183.816 36.678 183.818 36.179C183.824 35.8477 183.764 35.5184 183.641 35.2107C183.518 34.903 183.335 34.623 183.102 34.3875C182.869 34.1519 182.591 33.9654 182.285 33.8392C181.978 33.7129 181.65 33.6494 181.319 33.6523ZM181.995 37.9207L181.28 36.3823H180.704V37.9207H180.286V34.4207H181.319C182.088 34.4207 182.406 34.7623 182.406 35.4007C182.406 35.914 182.165 36.234 181.715 36.3323L182.453 37.919L181.995 37.9207ZM180.704 36.0157H181.31C181.8 36.0157 181.987 35.849 181.987 35.4023C181.987 34.9557 181.808 34.8023 181.257 34.8023H180.704V36.0157Z" fill="#21313C"/>
<path d="M140.145 36.4153C140.895 37.0153 142.391 37.262 143.71 37.262C145.419 37.262 147.094 36.9453 148.731 35.4653C150.407 33.9486 151.547 31.622 151.547 27.922C151.547 24.362 150.192 21.472 147.414 19.7803C145.846 18.7936 143.817 18.4053 141.5 18.4053C140.823 18.4053 140.145 18.4403 139.754 18.617C139.595 18.744 139.483 18.9197 139.434 19.117C139.362 19.752 139.362 24.5803 139.362 27.4353C139.362 30.3603 139.362 34.4486 139.434 34.9353C139.469 35.3586 139.684 36.102 140.145 36.4153ZM133.035 16.8203C133.64 16.8203 135.942 16.9253 137.012 16.9253C139.011 16.9253 140.395 16.8203 144.137 16.8203C147.272 16.8203 149.909 17.667 151.8 19.287C154.081 21.2603 155.298 24.0103 155.298 27.3586C155.298 32.1153 153.133 34.8586 150.952 36.4153C148.786 38.037 145.963 38.9536 141.938 38.9536C139.8 38.9536 136.13 38.8836 133.065 38.8486H133.023C132.882 38.5653 133.287 37.467 133.536 37.4386C134.369 37.3436 134.589 37.312 134.974 37.1536C135.62 36.887 135.774 36.557 135.845 35.3936C135.952 33.2086 135.917 30.6003 135.917 27.6403C135.917 25.5253 135.952 21.402 135.88 20.097C135.774 19.0053 135.312 18.7236 134.381 18.512C133.721 18.3717 133.053 18.2655 132.382 18.1936C132.31 17.982 132.858 17.027 133.037 16.8203" fill="#21313C"/>
<path d="M164.128 18.6095C163.986 18.6445 163.806 18.9978 163.806 19.1745C163.771 20.4428 163.736 23.7561 163.736 26.0461C163.746 26.0898 163.767 26.1298 163.799 26.1612C163.831 26.1926 163.871 26.214 163.915 26.2228C164.378 26.2578 165.517 26.2945 166.478 26.2945C167.833 26.2945 168.618 26.1161 169.044 25.9045C170.185 25.3411 170.71 24.1078 170.71 22.7695C170.71 19.7028 168.573 18.5395 165.402 18.5395C164.974 18.5341 164.545 18.5574 164.12 18.6095H164.128ZM172.208 32.7078C172.208 29.6061 169.927 27.8445 165.757 27.8445C165.581 27.8445 164.258 27.8078 163.941 27.8795C163.835 27.9145 163.728 27.9845 163.728 28.0561C163.728 30.2761 163.691 33.8361 163.798 35.2461C163.87 35.8445 164.298 36.6911 164.833 36.9378C165.402 37.2545 166.685 37.3245 167.576 37.3245C170.034 37.3245 172.208 35.9511 172.208 32.7078ZM157.692 16.8828C158.014 16.8828 158.962 16.9878 161.384 16.9878C163.665 16.9878 165.517 16.9178 167.726 16.9178C170.47 16.9178 174.247 17.9061 174.247 21.9928C174.247 24.0028 172.821 25.6228 170.968 26.3995C170.862 26.4345 170.862 26.5045 170.968 26.5395C173.605 27.2061 175.921 28.8311 175.921 31.9328C175.921 34.9628 174.033 36.8678 171.29 38.0645C169.614 38.8061 167.548 39.0511 165.446 39.0511C163.843 39.0511 159.547 38.8761 157.159 38.9111C156.909 38.8061 157.388 37.6778 157.601 37.5011C158.148 37.4835 158.691 37.3984 159.217 37.2478C160.071 37.0378 160.173 36.7611 160.28 35.4928C160.351 34.3995 160.351 30.4928 160.351 27.7028C160.351 23.8961 160.386 21.3245 160.351 20.0545C160.315 19.0678 159.96 18.7495 159.282 18.5745C158.749 18.4678 157.857 18.3628 157.146 18.2578C156.966 18.0811 157.516 17.0228 157.692 16.8828Z" fill="#21313C"/>
<path d="M29.9052 38.9411C29.8126 38.7154 29.7749 38.471 29.7953 38.2278C29.7884 38.0625 29.8264 37.8983 29.9052 37.7528C30.3661 37.6862 30.8227 37.5933 31.2729 37.4745C31.9027 37.3178 32.1392 36.9745 32.1775 36.1695C32.2808 34.2695 32.2858 30.7045 32.2492 28.1978V28.1245C32.2492 27.8545 32.2492 27.4878 31.916 27.2278C31.3298 26.8602 30.6935 26.5795 30.0268 26.3945C29.727 26.3061 29.562 26.1495 29.572 25.9661C29.582 25.7828 29.7703 25.5678 30.1534 25.5011C31.1846 25.3945 33.8901 24.7495 34.9513 24.2578C35.0615 24.3999 35.1128 24.5789 35.0946 24.7578C35.0946 24.8678 35.0779 24.9845 35.0663 25.1045C35.0363 25.4595 35.003 25.8611 35.003 26.2611C35.0095 26.3097 35.0295 26.3555 35.0606 26.3934C35.0917 26.4313 35.1328 26.4597 35.1792 26.4754C35.2256 26.4912 35.2755 26.4937 35.3232 26.4826C35.371 26.4716 35.4147 26.4474 35.4494 26.4128C37.4736 24.8261 39.2811 24.2595 40.214 24.2595C41.7433 24.2595 42.9345 24.9911 43.8558 26.4961C43.8773 26.5325 43.9077 26.5627 43.9441 26.584C43.9805 26.6053 44.0218 26.6169 44.064 26.6178C44.1019 26.6176 44.1393 26.6081 44.1727 26.5901C44.2061 26.5721 44.2346 26.5461 44.2556 26.5145C46.1164 25.1028 47.9606 24.2595 49.1917 24.2595C52.1088 24.2595 53.8564 26.4445 53.8564 30.1028C53.8564 31.1545 53.8464 32.4861 53.8364 33.7311C53.828 34.8211 53.8197 35.8445 53.8197 36.5528C53.8197 36.7195 54.0496 37.1995 54.3945 37.2945C54.8209 37.5028 55.4373 37.6095 56.2153 37.7428H56.2453C56.3053 37.9528 56.182 38.7678 56.0621 38.9345C55.8688 38.9345 55.6023 38.9195 55.2691 38.9028C54.6643 38.8728 53.833 38.8295 52.8668 38.8295C50.9293 38.8295 49.9164 38.8678 48.9485 38.9311C48.8769 38.6895 48.8502 37.9078 48.9402 37.7461C49.3388 37.6758 49.7332 37.5829 50.1213 37.4678C50.7377 37.2645 50.916 36.9845 50.9543 36.1645C50.9693 35.5811 51.0809 30.4511 50.8827 29.2328C50.6994 27.9711 49.7498 26.4928 47.6691 26.4928C46.8978 26.4928 45.6516 26.8145 44.4622 27.7161C44.3897 27.8001 44.349 27.9069 44.3472 28.0178V28.0428C44.4871 28.6995 44.4871 29.4661 44.4871 30.6278C44.4871 31.2945 44.4871 31.9895 44.4788 32.6861C44.4705 34.1011 44.4638 35.4361 44.4871 36.4445C44.4871 37.1328 44.902 37.2978 45.2368 37.4295C45.4184 37.4695 45.57 37.5045 45.7066 37.5378C45.9865 37.6061 46.2764 37.6761 46.7062 37.7445C46.77 38.0373 46.7643 38.341 46.6895 38.6311C46.6738 38.7411 46.6308 38.8454 46.5646 38.9345C45.4884 38.8978 44.3822 38.8645 42.7862 38.8645C42.3031 38.8645 41.5134 38.8861 40.8154 38.9045C40.2523 38.9195 39.7159 38.9345 39.4127 38.9361C39.3364 38.7452 39.3034 38.5397 39.3161 38.3345C39.2991 38.1367 39.3377 37.9381 39.4277 37.7611L39.8558 37.6828C40.229 37.6161 40.5522 37.5595 40.8554 37.4828C41.3835 37.3161 41.5817 37.0278 41.6217 36.3561C41.725 34.7878 41.805 30.2695 41.5834 29.1378C41.2052 27.3228 40.1724 26.4011 38.5114 26.4011C37.5385 26.4011 36.3107 26.8695 35.3078 27.6228C35.2108 27.7165 35.1344 27.8293 35.0833 27.9541C35.0323 28.0789 35.0077 28.213 35.0113 28.3478C35.0113 28.8861 35.0113 29.5278 35.0113 30.2145C35.0113 32.4828 34.9963 35.3078 35.0513 36.5311C35.0846 36.9061 35.2179 37.3528 35.9242 37.5178C36.0792 37.5628 36.3457 37.6061 36.6556 37.6578C36.8355 37.6878 37.0304 37.7195 37.2303 37.7561C37.2944 38.1558 37.2618 38.565 37.1354 38.9495C36.8255 38.9495 36.444 38.9295 36.0075 38.9095C35.3412 38.8811 34.5082 38.8428 33.5636 38.8428C32.4491 38.8428 31.6744 38.8811 31.0514 38.9095C30.6332 38.9311 30.2717 38.9478 29.9102 38.9495" fill="#21313C"/>
<path d="M65.6678 25.7578C65.0677 25.7466 64.4777 25.913 63.9719 26.2361C62.7357 26.9895 62.1044 28.4911 62.1044 30.6995C62.1044 34.8345 64.1751 37.7228 67.1371 37.7228C67.9298 37.7472 68.7027 37.473 69.3029 36.9545C70.2125 36.2112 70.6956 34.6928 70.6956 32.5678C70.6956 28.4945 68.6731 25.7578 65.6628 25.7578H65.6678ZM66.2342 39.2578C60.8849 39.2562 58.9741 35.3328 58.9741 31.6528C58.9741 29.0845 60.0236 27.0761 62.0927 25.6845C63.5419 24.7856 65.2059 24.2929 66.9106 24.2578C70.9955 24.2578 73.8492 27.1978 73.8492 31.4061C73.8492 34.2662 72.708 36.5245 70.5523 37.9362C69.5178 38.5712 67.7202 39.2562 66.2342 39.2562" fill="#21313C"/>
<path d="M120.167 25.7601C119.564 25.7467 118.97 25.9132 118.461 26.2384C117.225 26.9917 116.594 28.4934 116.594 30.7017C116.594 34.8367 118.663 37.7251 121.627 37.7251C122.424 37.7523 123.202 37.4773 123.806 36.9551C124.715 36.2134 125.198 34.6951 125.198 32.5701C125.198 28.4967 123.176 25.7601 120.167 25.7601ZM120.737 39.2601C115.383 39.2601 113.477 35.3317 113.477 31.6567C113.477 29.0867 114.526 27.0801 116.597 25.6884C118.045 24.789 119.709 24.2962 121.413 24.2617C125.498 24.2617 128.352 27.2017 128.352 31.4084C128.352 34.2717 127.211 36.5284 125.055 37.9384C124.02 38.5751 122.223 39.2601 120.737 39.2601Z" fill="#21313C"/>
<path d="M102.145 25.6167C100.494 25.6167 99.4279 26.92 99.4279 28.9383C99.4279 30.9567 100.346 33.3533 102.926 33.3533C103.371 33.3533 104.176 33.155 104.574 32.7167C105.174 32.165 105.565 31.0233 105.565 29.82C105.565 27.1883 104.286 25.6167 102.143 25.6167H102.145ZM101.929 39.5383C101.463 39.5341 101.004 39.6489 100.596 39.8717C99.2897 40.705 98.6849 41.5467 98.6849 42.51C98.6849 43.4183 99.0381 44.14 99.7944 44.7817C100.712 45.5583 101.948 45.9367 103.574 45.9367C106.775 45.9367 108.209 44.215 108.209 42.51C108.209 41.3217 107.613 40.5267 106.388 40.0767C105.444 39.73 103.866 39.54 101.935 39.54L101.929 39.5383ZM102.15 47.7183C100.228 47.7183 98.8432 47.3117 97.6604 46.4017C96.5109 45.5133 95.9944 44.195 95.9944 43.285C96.0065 42.698 96.2301 42.1351 96.6242 41.7C96.9574 41.3183 97.7353 40.6067 99.5262 39.3667C99.5546 39.3555 99.5788 39.336 99.5958 39.3106C99.6128 39.2853 99.6216 39.2555 99.6212 39.225C99.6218 39.1913 99.6109 39.1584 99.5903 39.1318C99.5697 39.1051 99.5406 39.0863 99.5079 39.0783C98.0302 38.5133 97.5854 37.5783 97.4521 37.0783C97.4521 37.06 97.4438 37.0317 97.4371 37C97.3938 36.8017 97.3538 36.6167 97.6221 36.4233C97.8286 36.2767 98.1602 36.08 98.5133 35.8717C99.0122 35.5955 99.4905 35.2835 99.9444 34.9383C99.9698 34.9127 99.9887 34.8812 99.9994 34.8467C100.01 34.8122 100.012 34.7756 100.006 34.74C100 34.7049 99.9863 34.6715 99.9655 34.6426C99.9447 34.6137 99.9175 34.59 99.8861 34.5733C97.7004 33.84 96.6008 32.215 96.6008 29.74C96.5941 28.9663 96.7739 28.2024 97.1251 27.513C97.4763 26.8236 97.9885 26.2292 98.6183 25.78C99.4979 25.085 101.704 24.25 103.133 24.25H103.216C104.686 24.285 105.515 24.5933 106.661 25.0183C107.313 25.2576 108.005 25.3707 108.699 25.3517C109.915 25.3517 110.446 24.965 110.903 24.5183C110.977 24.7202 111.017 24.9332 111.019 25.1483C111.048 25.6631 110.907 26.1729 110.618 26.6C110.368 26.945 109.785 27.1967 109.249 27.1967C109.192 27.1967 109.14 27.1967 109.082 27.1883C108.801 27.1663 108.522 27.12 108.249 27.05L108.112 27.0967C108.069 27.1617 108.097 27.2317 108.132 27.3217C108.14 27.339 108.147 27.3568 108.152 27.375C108.25 27.8204 108.316 28.272 108.351 28.7267C108.351 31.3217 107.329 32.4517 106.223 33.2883C105.152 34.0923 103.88 34.5843 102.547 34.71C102.518 34.71 102.38 34.7233 102.122 34.7467C101.955 34.7617 101.737 34.78 101.705 34.78H101.674C101.434 34.8483 100.806 35.1467 100.806 35.7C100.806 36.1617 101.091 36.735 102.445 36.8367L103.321 36.8983C105.11 37.0233 107.343 37.1783 108.394 37.535C109.091 37.7803 109.693 38.2391 110.114 38.8462C110.535 39.4533 110.754 40.1778 110.74 40.9167C110.74 43.25 109.087 45.4333 106.317 46.77C105.011 47.3952 103.581 47.7171 102.133 47.7117" fill="#21313C"/>
<path d="M93.9587 37.6964C93.174 37.5914 92.6026 37.4847 91.9279 37.1681C91.7952 37.0311 91.7079 36.8565 91.678 36.6681C91.6064 35.5747 91.6064 32.4031 91.6064 30.3231C91.6064 28.6314 91.3215 27.1564 90.6068 26.0947C89.7522 24.8964 88.5411 24.1914 86.9734 24.1914C85.5841 24.1914 83.7315 25.1414 82.1989 26.4464C82.1622 26.4814 81.9273 26.7047 81.934 26.3581C81.9407 26.0114 81.9923 25.3064 82.0239 24.8581C82.0391 24.7385 82.0259 24.617 81.9854 24.5035C81.9449 24.39 81.8782 24.2876 81.7907 24.2047C80.7912 24.7047 77.9841 25.3714 76.9462 25.4731C76.1882 25.6197 75.9966 26.3497 76.8046 26.6014H76.8162C77.4656 26.7798 78.0857 27.0515 78.6571 27.4081C78.977 27.6547 78.9403 28.0081 78.9403 28.2897C78.9753 30.6514 78.9753 34.2814 78.8703 36.2564C78.8337 37.0314 78.6204 37.3131 78.049 37.4547L78.1023 37.4364C77.6679 37.5452 77.2273 37.6275 76.7829 37.6831C76.6047 37.8581 76.6047 38.8814 76.7829 39.0931C77.1394 39.0931 78.957 38.9881 80.448 38.9881C82.5137 38.9881 83.5833 39.0931 84.113 39.0931C84.3279 38.8464 84.3979 37.8947 84.2546 37.6831C83.7619 37.6606 83.2725 37.5897 82.7936 37.4714C82.2239 37.3314 82.0823 37.0481 82.0473 36.4147C81.9756 34.7581 81.9756 31.2331 81.9756 28.8364C81.9756 28.1697 82.1522 27.8497 82.3671 27.6697C83.0802 27.0347 84.2546 26.6131 85.2892 26.6131C86.2887 26.6131 86.9634 26.9297 87.4549 27.3531C88.1329 27.9164 88.3812 28.7264 88.4545 29.3264C88.5977 30.6597 88.5611 33.3447 88.5611 35.6697C88.5611 36.9397 88.4545 37.2581 87.9913 37.3981C87.7781 37.5031 87.2067 37.6097 86.5303 37.6797C86.3171 37.8914 86.387 38.8781 86.5303 39.0897C87.4566 39.0897 88.5294 38.9847 90.0937 38.9847C92.0529 38.9847 93.299 39.0897 93.7988 39.0897C94.012 38.8431 94.0837 37.9231 93.942 37.6797" fill="#21313C"/>
<path d="M21.9387 20.0822C19.3982 8.86552 13.3941 5.17719 12.7494 3.76885C12.0397 2.77219 11.3284 1.00052 11.3284 1.00052C11.315 0.972188 11.2967 0.918854 11.2751 0.867188C11.2018 1.85885 11.1634 2.24552 10.2255 3.24885C8.76617 4.39385 1.30278 10.6572 0.694716 23.4022C0.128298 35.2839 9.27761 42.3672 10.5237 43.2705L10.6637 43.3688C10.672 43.4272 11.0568 46.2022 11.33 49.1305H12.2979C12.5266 47.0579 12.8681 44.9993 13.3208 42.9638L13.3958 42.9138C13.9487 42.5161 14.4762 42.0842 14.9751 41.6205L15.0317 41.5688C17.3732 39.4022 19.2339 36.7678 20.4935 33.8362C21.753 30.9047 22.3833 27.7412 22.3435 24.5505C22.3319 23.0525 22.1965 21.5579 21.9387 20.0822ZM11.2151 36.5605C11.2151 36.5605 11.2151 19.8939 11.7732 19.8939C12.2013 19.8939 12.7577 41.3938 12.7577 41.3938C11.9947 41.3038 11.2151 37.8572 11.2151 36.5605Z" fill="#21313C"/>
</svg>
