<svg width="203" height="50" viewBox="0 0 203 50" fill="none" xmlns="http://www.w3.org/2000/svg">
<g clip-path="url(#clip0)">
<path d="M18.3633 19.0244L18.6978 18.903C21.1726 17.9359 23.6004 16.7742 25.9679 15.4241C28.369 14.1929 30.6219 12.5162 32.6573 10.4457C34.8197 8.1995 36.4473 5.19412 37.3492 1.78194C37.5427 1.22099 37.6846 0.632007 37.7719 0.0273438C34.5201 5.83149 21.6291 6.43254 21.6291 6.43254L24.6718 2.78978C15.8165 2.82799 7.19126 6.47871 0 13.2324C4.86737 13.9131 9.44576 16.5862 13.0815 20.87C14.8282 20.1658 16.6074 19.6558 18.368 19.0487L18.3633 19.0244ZM38.5849 18.4537C38.5849 18.4537 26.6879 17.2394 14.3358 22.4668C15.9842 24.7159 17.3597 27.2814 18.4144 30.0741C24.9088 25.3446 33.9116 19.3037 38.5849 18.4537ZM19.2274 32.4965C19.9974 35.0774 20.4928 37.7841 20.7 40.541L32.0209 25.3203L19.2274 32.4965ZM25.1735 39.9581V39.7942C25.1704 39.7283 25.1526 39.665 25.1224 39.6121C25.1108 39.5868 25.0945 39.5658 25.075 39.551C25.0555 39.5361 25.0335 39.5279 25.011 39.5271L25.0853 39.4907C25.1151 39.464 25.139 39.4275 25.1545 39.3848C25.17 39.3421 25.1766 39.2949 25.1735 39.2478C25.1779 39.1837 25.1662 39.1194 25.1403 39.0646C25.1143 39.0099 25.0754 38.9676 25.0295 38.9442C24.9528 38.9037 24.8707 38.883 24.788 38.8835H24.4721V40.0371H24.6207V39.6182H24.7601C24.8138 39.6117 24.868 39.6221 24.918 39.6485C24.9461 39.675 24.9679 39.7112 24.981 39.7531C24.9941 39.7949 24.9981 39.8407 24.9924 39.8853V40.0553H25.1596L25.1735 39.9581ZM24.6718 39.0657H24.7833C24.8435 39.06 24.9039 39.0725 24.9599 39.1021C24.9779 39.1177 24.9923 39.1397 25.0013 39.1654C25.0103 39.1912 25.0137 39.2197 25.011 39.2478C25.0125 39.2817 25.0057 39.3154 24.9915 39.3438C24.9773 39.3723 24.9564 39.394 24.932 39.4057C24.8858 39.4154 24.8388 39.4154 24.7926 39.4057H24.6765V39.0657H24.6718Z" fill="#F99D1E"/>
<path d="M25.3826 38.7435C25.233 38.55 25.031 38.4414 24.8205 38.4414C24.61 38.4414 24.408 38.55 24.2584 38.7435C24.1834 38.8388 24.124 38.9531 24.0841 39.0794C24.0442 39.2058 24.0244 39.3414 24.0261 39.4781C24.025 39.6147 24.0449 39.7502 24.0849 39.8764C24.1248 40.0027 24.1838 40.1171 24.2584 40.2128C24.3321 40.3093 24.4198 40.3859 24.5162 40.4382C24.6127 40.4904 24.7161 40.5173 24.8205 40.5173C24.9249 40.5173 25.0283 40.4904 25.1247 40.4382C25.2212 40.3859 25.3088 40.3093 25.3826 40.2128C25.5306 40.0172 25.6137 39.7532 25.6137 39.4781C25.6137 39.203 25.5306 38.939 25.3826 38.7435ZM24.8205 40.3402C24.7338 40.3417 24.6478 40.3198 24.5679 40.2759C24.488 40.232 24.4158 40.1671 24.3559 40.0853C24.2345 39.923 24.1665 39.7051 24.1665 39.4781C24.1665 39.2512 24.2345 39.0332 24.3559 38.871C24.4165 38.7902 24.4888 38.7261 24.5685 38.6823C24.6483 38.6384 24.7339 38.6159 24.8205 38.6159C24.907 38.6159 24.9926 38.6384 25.0724 38.6823C25.1522 38.7261 25.2245 38.7902 25.285 38.871C25.4064 39.0332 25.4744 39.2512 25.4744 39.4781C25.4744 39.7051 25.4064 39.923 25.285 40.0853C25.2251 40.1671 25.1529 40.232 25.073 40.2759C24.9931 40.3198 24.9071 40.3417 24.8205 40.3402Z" fill="#F99D1E"/>
<path d="M59.4614 26.8544C59.4922 28.9055 59.2486 30.9478 58.7414 32.8892C58.3222 34.4801 57.6546 35.9397 56.781 37.1755C55.986 38.2804 55.0156 39.1446 53.938 39.7073C52.8619 40.2657 51.714 40.5501 50.5561 40.5451C49.6358 40.5495 48.7174 40.4315 47.8153 40.193C46.9787 39.9714 46.1581 39.6565 45.3626 39.2519V49.4335L43.4254 49.9738V14.894H44.819L45.3115 18.5367C46.0914 17.407 46.978 16.4114 47.9501 15.5739C49.0139 14.7208 50.2472 14.2983 51.4945 14.3597C52.5394 14.3524 53.5756 14.608 54.5466 15.1125C55.5121 15.6185 56.3788 16.4005 57.083 17.4014C57.8605 18.5347 58.4505 19.8659 58.8157 21.3113C59.2681 23.0983 59.4864 24.9724 59.4614 26.8544ZM57.4406 26.9637C57.4406 23.588 56.877 21.028 55.7497 19.2835C55.2347 18.4498 54.5806 17.781 53.8374 17.3286C53.0942 16.8761 52.2817 16.6518 51.462 16.6728C50.3219 16.6504 49.2025 17.0732 48.2474 17.8871C47.1739 18.8423 46.2036 19.9818 45.3626 21.2749V36.7748C46.1376 37.2811 46.9542 37.6702 47.7968 37.9345C48.6886 38.211 49.6024 38.3476 50.519 38.3412C51.4496 38.3481 52.3725 38.1192 53.2365 37.6673C54.093 37.2147 54.8508 36.4932 55.4431 35.5667C56.1027 34.5159 56.5997 33.3076 56.9064 32.0089C57.2888 30.3749 57.4706 28.672 57.4453 26.9637H57.4406ZM76.5751 40.2233L76.1106 36.8295C75.1252 37.953 74.0321 38.9041 72.8588 39.6587C71.0328 40.8303 68.94 41.0789 66.9823 40.3569C66.3085 40.1136 65.6774 39.7012 65.1242 39.1426C64.5861 38.5861 64.155 37.873 63.8653 37.0602C63.5433 36.1195 63.3847 35.0973 63.4007 34.0671C63.3826 32.7666 63.6091 31.4803 64.0604 30.3211C64.5674 29.1359 65.3086 28.1505 66.2066 27.4676C67.419 26.5439 68.7338 25.8721 70.1041 25.4762C72.0516 24.884 74.0296 24.4782 76.0223 24.2619V22.0095C76.0223 20.2124 75.6445 18.8828 74.8889 18.0207C73.9943 17.0987 72.8718 16.6385 71.7346 16.7275C70.5994 16.7339 69.4699 16.9381 68.376 17.3346C67.2413 17.7404 66.1421 18.3 65.0963 19.0042L64.8501 16.6303C65.9315 15.992 67.048 15.4603 68.1902 15.0397C69.3726 14.6216 70.5933 14.4173 71.8182 14.4325C73.7972 14.4325 75.3085 15.07 76.3522 16.345C77.3958 17.62 77.9239 19.4656 77.9362 21.882V40.2233H76.5751ZM76.0409 26.3201C74.3421 26.5419 72.6556 26.9028 70.9913 27.4008C69.852 27.7258 68.7496 28.2421 67.7117 28.9368C66.984 29.4113 66.3702 30.1379 65.9371 31.0375C65.5737 31.8839 65.3893 32.8416 65.4029 33.8121C65.4029 35.4311 65.7885 36.6251 66.5596 37.3941C67.3627 38.1788 68.3445 38.5872 69.3469 38.5537C70.5094 38.516 71.6507 38.1385 72.6869 37.4488C73.902 36.6829 75.0268 35.6934 76.027 34.5103L76.0409 26.3201ZM100.16 26.8544C100.191 28.9055 99.9471 30.9478 99.4399 32.8892C99.0207 34.4801 98.3532 35.9397 97.4795 37.1755C96.6845 38.2804 95.7142 39.1446 94.6365 39.7073C93.5604 40.2657 92.4125 40.5501 91.2547 40.5451C90.3343 40.5495 89.416 40.4315 88.5139 40.193C87.6772 39.9714 86.8566 39.6565 86.0611 39.2519V49.4335L84.1239 49.9738V14.894H85.5176L86.01 18.5367C86.7899 17.407 87.6765 16.4114 88.6486 15.5739C89.7125 14.7208 90.9458 14.2983 92.193 14.3597C93.2329 14.3528 94.2642 14.6063 95.2312 15.1064C96.1968 15.6124 97.0634 16.3945 97.7676 17.3953C98.5424 18.5197 99.1322 19.8402 99.5003 21.2749C99.9606 23.0724 100.184 24.9591 100.16 26.8544ZM98.1392 26.9637C98.1392 23.588 97.5755 21.028 96.4482 19.2835C95.9332 18.4498 95.2791 17.781 94.5359 17.3286C93.7928 16.8761 92.9802 16.6518 92.1605 16.6728C91.0204 16.6504 89.9011 17.0732 88.9459 17.8871C87.8725 18.8423 86.9022 19.9818 86.0611 21.2749V36.7748C86.8361 37.2811 87.6528 37.6702 88.4953 37.9345C89.3871 38.211 90.301 38.3476 91.2175 38.3412C92.1466 38.3473 93.0678 38.1185 93.9304 37.6673C94.7958 37.2173 95.562 36.4934 96.1602 35.5606C96.8198 34.5098 97.3168 33.3015 97.6235 32.0028C97.9975 30.3691 98.1716 28.6684 98.1392 26.9637ZM119.787 27.5586H106.097C106.085 29.0589 106.23 30.5541 106.529 32.0028C106.777 33.2522 107.199 34.4314 107.774 35.4817C108.317 36.4456 109.031 37.2227 109.855 37.7463C110.75 38.3014 111.731 38.5778 112.721 38.5537C113.943 38.5428 115.148 38.1756 116.247 37.4791C117.415 36.7607 118.492 35.8149 119.443 34.6742L119.731 37.0602C118.799 38.1428 117.742 39.0278 116.6 39.683C115.361 40.4068 114.018 40.7753 112.661 40.7637C111.463 40.7809 110.276 40.4685 109.177 39.8469C108.138 39.2544 107.215 38.3618 106.478 37.2363C105.698 36.0156 105.109 34.6068 104.745 33.0896C104.315 31.3026 104.107 29.4376 104.127 27.5647C104.109 25.712 104.318 23.8674 104.745 22.1006C105.112 20.5756 105.7 19.1574 106.478 17.9235C107.194 16.7923 108.096 15.8855 109.116 15.2698C110.136 14.654 111.249 14.3451 112.373 14.3658C113.465 14.3275 114.548 14.6475 115.522 15.2965C116.495 15.9456 117.329 16.903 117.947 18.0814C118.593 19.2981 119.066 20.6577 119.341 22.0945C119.655 23.7055 119.811 25.362 119.805 27.0244L119.787 27.5586ZM117.311 21.9549C117.084 20.9342 116.73 19.9698 116.261 19.1013C115.83 18.3002 115.266 17.6362 114.612 17.1585C113.921 16.678 113.146 16.4375 112.363 16.4603C111.545 16.4072 110.728 16.6064 109.979 17.042C109.23 17.4776 108.57 18.1373 108.053 18.9678C106.965 20.8524 106.319 23.1092 106.194 25.4641H117.738C117.714 24.2748 117.571 23.0949 117.311 21.9549ZM131.846 17.4257C131.119 17.8209 130.433 18.3372 129.807 18.9617C129.181 19.5826 128.614 20.2979 128.116 21.0927C127.635 21.8559 127.221 22.6867 126.88 23.5698V40.2233H124.962V14.894H126.239L126.857 20.176C127.251 19.4431 127.677 18.7416 128.135 18.0753C128.607 17.3877 129.131 16.7652 129.7 16.2175C130.282 15.6574 130.92 15.2039 131.596 14.8697C132.297 14.5266 133.039 14.3518 133.788 14.3536L134.118 16.7275C133.337 16.7981 132.57 17.0339 131.846 17.4257ZM148.152 40.5208C147.549 40.6183 146.942 40.6629 146.335 40.6544C145.434 40.667 144.534 40.5407 143.655 40.278C142.902 40.0562 142.196 39.614 141.592 38.9848C140.995 38.3375 140.535 37.5015 140.255 36.5563C139.917 35.3686 139.76 34.1068 139.79 32.8407V19.4535H137.003V14.1715H139.79V5.95096L144.654 4.97955V14.1958H148.737L149.355 19.4778H144.649V31.76C144.598 32.6408 144.813 33.5126 145.248 34.1885C145.648 34.747 146.328 35.0263 147.288 35.0263C147.815 35.0407 148.341 34.9672 148.853 34.8078L149.471 40.2719L148.152 40.5208ZM160.602 21.7363C159.452 22.6322 158.468 23.8466 157.717 25.2941V40.2233H152.769V14.1958H156.95L157.591 19.4535C158.244 17.9562 159.097 16.6238 160.109 15.5193C161.211 14.3691 162.573 13.7286 163.983 13.6979L164.768 20.0606C163.296 20.1668 161.865 20.742 160.602 21.7363ZM178.333 40.2233L177.92 36.8234C177.114 37.9505 176.172 38.8979 175.132 39.6283C173.947 40.4165 172.629 40.8047 171.3 40.7576C169.793 40.8522 168.319 40.1648 167.198 38.8451C166.167 37.5702 165.651 35.8014 165.651 33.5389C165.651 30.3777 166.641 28.0342 168.62 26.5083C170.598 24.9824 173.609 23.9705 177.65 23.4727V22.7077C177.65 21.3072 177.354 20.3095 176.763 19.7146C176.007 19.0634 175.106 18.7581 174.203 18.8464C173.06 18.8489 171.923 19.0531 170.821 19.4535C169.711 19.856 168.625 20.3612 167.57 20.9652L166.952 15.8107C168.131 15.1913 169.343 14.688 170.58 14.305C171.986 13.8849 173.425 13.6812 174.868 13.6979C177.45 13.6979 179.381 14.3718 180.66 15.7196C181.939 17.0675 182.574 19.2936 182.565 22.3981V40.2233H178.333ZM177.632 27.2369C176.436 27.3901 175.255 27.6972 174.106 28.1536C173.339 28.4523 172.609 28.8961 171.941 29.4711C171.478 29.8693 171.102 30.4173 170.849 31.0618C170.646 31.6171 170.539 32.2248 170.538 32.8407C170.521 33.247 170.57 33.6535 170.68 34.034C170.791 34.4145 170.961 34.7607 171.179 35.0506C171.423 35.3307 171.707 35.5452 172.015 35.6816C172.323 35.8181 172.648 35.8739 172.972 35.8459C173.821 35.8465 174.66 35.5975 175.425 35.1174C176.247 34.5972 176.993 33.8947 177.632 33.041V27.2369ZM192.725 6.16345C192.736 6.65993 192.665 7.15376 192.515 7.6101C192.365 8.06644 192.14 8.47415 191.856 8.80446C191.295 9.4802 190.556 9.84763 189.793 9.83051C189.012 9.8596 188.253 9.49181 187.675 8.80446C187.392 8.47358 187.168 8.06562 187.019 7.60931C186.869 7.153 186.799 6.65946 186.811 6.16345C186.797 5.65564 186.868 5.14997 187.017 4.68069C187.166 4.21142 187.39 3.7895 187.675 3.44352C188.244 2.74678 189 2.36965 189.779 2.39319C190.55 2.37206 191.297 2.74952 191.856 3.44352C192.141 3.78895 192.367 4.21062 192.517 4.67993C192.667 5.14923 192.738 5.65518 192.725 6.16345ZM187.28 40.2233V14.1958H192.228V40.2233H187.28ZM197.259 40.2233V2.33855L202.206 1.3125V40.2233H197.259Z" fill="black"/>
</g>
<defs>
<clipPath id="clip0">
<rect width="202.206" height="50" fill="white"/>
</clipPath>
</defs>
</svg>
