<svg width="243" height="125" viewBox="0 0 243 125" fill="none" xmlns="http://www.w3.org/2000/svg">
<g clip-path="url(#clip0)">
<path d="M44.0732 58.3165L44.3842 58.2315C46.6851 57.5546 48.9424 56.7413 51.1435 55.7963C53.376 54.9345 55.4706 53.7608 57.363 52.3114C59.3735 50.7391 60.8867 48.6353 61.7252 46.2468C61.9052 45.8541 62.0371 45.4418 62.1183 45.0186C59.0949 49.0815 47.1095 49.5022 47.1095 49.5022L49.9385 46.9523C41.7053 46.979 33.686 49.5345 27 54.2621C31.5254 54.7386 35.7822 56.6097 39.1625 59.6084C40.7864 59.1155 42.4406 58.7585 44.0776 58.3335L44.0732 58.3165ZM62.8741 57.917C62.8741 57.917 51.813 57.067 40.3286 60.7262C41.8612 62.3005 43.1401 64.0964 44.1208 66.0513C50.1588 62.7406 58.5291 58.512 62.8741 57.917ZM44.8766 67.747C45.5925 69.5536 46.0531 71.4483 46.2457 73.3781L56.7713 62.7236L44.8766 67.747ZM50.405 72.9701V72.8554C50.4021 72.8092 50.3856 72.7649 50.3575 72.7279C50.3466 72.7102 50.3315 72.6955 50.3134 72.6851C50.2952 72.6747 50.2748 72.669 50.2538 72.6684L50.3229 72.6429C50.3507 72.6242 50.3729 72.5986 50.3873 72.5688C50.4017 72.5389 50.4078 72.5058 50.405 72.4729C50.409 72.428 50.3982 72.383 50.3741 72.3447C50.3499 72.3063 50.3138 72.2768 50.2711 72.2604C50.1998 72.232 50.1235 72.2175 50.0465 72.2179H49.7528V73.0254H49.891V72.7321H50.0206C50.0706 72.7276 50.1209 72.7349 50.1674 72.7534C50.1935 72.7719 50.2138 72.7973 50.226 72.8266C50.2382 72.8558 50.2418 72.8879 50.2365 72.9191V73.0381H50.392L50.405 72.9701ZM49.9385 72.3454H50.0422C50.0982 72.3414 50.1543 72.3501 50.2063 72.3709C50.2231 72.3818 50.2365 72.3972 50.2449 72.4152C50.2533 72.4332 50.2564 72.4532 50.2538 72.4729C50.2553 72.4966 50.2489 72.5202 50.2357 72.5401C50.2225 72.56 50.2031 72.5752 50.1804 72.5834C50.1375 72.5902 50.0937 72.5902 50.0508 72.5834H49.9428V72.3454H49.9385Z" fill="#F99D1E"/>
<path d="M50.5993 72.1197C50.4602 71.9842 50.2724 71.9082 50.0767 71.9082C49.881 71.9082 49.6932 71.9842 49.5541 72.1197C49.4844 72.1864 49.4292 72.2664 49.3921 72.3548C49.355 72.4433 49.3366 72.5382 49.3382 72.6339C49.3371 72.7295 49.3557 72.8244 49.3928 72.9127C49.4299 73.0011 49.4848 73.0812 49.5541 73.1481C49.6227 73.2157 49.7042 73.2694 49.7939 73.3059C49.8835 73.3425 49.9797 73.3614 50.0767 73.3614C50.1738 73.3614 50.2699 73.3425 50.3596 73.3059C50.4493 73.2694 50.5307 73.2157 50.5993 73.1481C50.737 73.0113 50.8142 72.8265 50.8142 72.6339C50.8142 72.4413 50.737 72.2565 50.5993 72.1197ZM50.0767 73.2374C49.9961 73.2384 49.9162 73.2231 49.8419 73.1923C49.7676 73.1616 49.7005 73.1162 49.6448 73.0589C49.5319 72.9453 49.4687 72.7928 49.4687 72.6339C49.4687 72.475 49.5319 72.3225 49.6448 72.2089C49.7011 72.1524 49.7683 72.1075 49.8425 72.0768C49.9166 72.0461 49.9963 72.0303 50.0767 72.0303C50.1572 72.0303 50.2368 72.0461 50.311 72.0768C50.3851 72.1075 50.4523 72.1524 50.5086 72.2089C50.6215 72.3225 50.6848 72.475 50.6848 72.6339C50.6848 72.7928 50.6215 72.9453 50.5086 73.0589C50.4529 73.1162 50.3859 73.1616 50.3115 73.1923C50.2372 73.2231 50.1573 73.2384 50.0767 73.2374Z" fill="#F99D1E"/>
<path d="M82.284 63.7983C82.3126 65.234 82.0861 66.6636 81.6145 68.0227C81.2248 69.1362 80.6041 70.158 79.7919 71.0231C79.0527 71.7965 78.1505 72.4014 77.1486 72.7953C76.1481 73.1862 75.0808 73.3853 74.0043 73.3818C73.1486 73.3849 72.2948 73.3023 71.4561 73.1353C70.6782 72.9802 69.9153 72.7598 69.1756 72.4765V79.6036L67.3746 79.9819V55.426H68.6703L69.1281 57.9759C69.8532 57.1851 70.6776 56.4882 71.5813 55.9019C72.5705 55.3047 73.7171 55.009 74.8768 55.052C75.8483 55.0469 76.8116 55.2258 77.7144 55.579C78.6122 55.9331 79.4179 56.4806 80.0726 57.1812C80.7956 57.9745 81.344 58.9063 81.6836 59.9181C82.1043 61.169 82.3072 62.4808 82.284 63.7983ZM80.4052 63.8748C80.4052 61.5118 79.8811 59.7198 78.833 58.4986C78.3542 57.915 77.746 57.4469 77.0551 57.1302C76.3641 56.8134 75.6087 56.6564 74.8465 56.6712C73.7865 56.6555 72.7458 56.9514 71.8578 57.5212C70.8597 58.1898 69.9576 58.9874 69.1756 59.8926V70.7426C69.8962 71.097 70.6555 71.3693 71.4388 71.5543C72.268 71.7479 73.1176 71.8435 73.9698 71.8391C74.8351 71.8439 75.6931 71.6837 76.4964 71.3673C77.2927 71.0505 77.9973 70.5454 78.548 69.8969C79.1612 69.1613 79.6233 68.3155 79.9085 67.4064C80.264 66.2626 80.4331 65.0706 80.4095 63.8748H80.4052ZM98.1954 73.1565L97.7635 70.7808C96.8473 71.5673 95.831 72.233 94.7401 72.7613C93.0424 73.5814 91.0967 73.7554 89.2765 73.25C88.65 73.0797 88.0632 72.791 87.5489 72.4C87.0487 72.0105 86.6479 71.5113 86.3784 70.9423C86.0791 70.2838 85.9316 69.5683 85.9465 68.8471C85.9296 67.9368 86.1403 67.0364 86.5598 66.2249C87.0312 65.3953 87.7204 64.7055 88.5552 64.2275C89.6825 63.5809 90.9049 63.1107 92.1789 62.8335C93.9897 62.419 95.8287 62.1349 97.6814 61.9835V60.4068C97.6814 59.1489 97.3301 58.2181 96.6276 57.6147C95.7959 56.9693 94.7522 56.6471 93.6949 56.7094C92.6395 56.7139 91.5893 56.8569 90.5722 57.1344C89.5173 57.4185 88.4953 57.8102 87.523 58.3031L87.2941 56.6414C88.2995 56.1946 89.3376 55.8224 90.3995 55.528C91.4989 55.2353 92.6338 55.0923 93.7727 55.103C95.6126 55.103 97.0177 55.5492 97.9881 56.4417C98.9584 57.3342 99.4494 58.6261 99.4609 60.3176V73.1565H98.1954ZM97.6987 63.4243C96.1192 63.5795 94.5512 63.8322 93.0039 64.1807C91.9446 64.4083 90.9197 64.7697 89.9546 65.256C89.2781 65.5881 88.7073 66.0968 88.3047 66.7264C87.9668 67.3189 87.7954 67.9893 87.808 68.6686C87.808 69.8019 88.1665 70.6378 88.8835 71.1761C89.6301 71.7253 90.543 72.0113 91.4749 71.9878C92.5558 71.9614 93.6169 71.6971 94.5803 71.2143C95.7101 70.6782 96.7558 69.9855 97.6857 69.1574L97.6987 63.4243ZM120.123 63.7983C120.152 65.234 119.925 66.6636 119.454 68.0227C119.064 69.1362 118.443 70.158 117.631 71.0231C116.892 71.7965 115.99 72.4014 114.988 72.7953C113.987 73.1862 112.92 73.3853 111.844 73.3818C110.988 73.3849 110.134 73.3023 109.295 73.1353C108.517 72.9802 107.755 72.7598 107.015 72.4765V79.6036L105.214 79.9819V55.426H106.51L106.967 57.9759C107.693 57.1851 108.517 56.4882 109.421 55.9019C110.41 55.3047 111.556 55.009 112.716 55.052C113.683 55.0472 114.642 55.2246 115.541 55.5747C116.438 55.9289 117.244 56.4763 117.899 57.1769C118.619 57.964 119.168 58.8883 119.51 59.8926C119.938 61.1509 120.145 62.4716 120.123 63.7983ZM118.244 63.8748C118.244 61.5118 117.72 59.7198 116.672 58.4986C116.193 57.915 115.585 57.4469 114.894 57.1302C114.203 56.8134 113.448 56.6564 112.686 56.6712C111.626 56.6555 110.585 56.9514 109.697 57.5212C108.699 58.1898 107.797 58.9874 107.015 59.8926V70.7426C107.735 71.097 108.495 71.3693 109.278 71.5543C110.107 71.7479 110.957 71.8435 111.809 71.8391C112.673 71.8433 113.529 71.6831 114.331 71.3673C115.136 71.0523 115.848 70.5456 116.405 69.8926C117.018 69.1571 117.48 68.3112 117.765 67.4022C118.113 66.2586 118.275 65.0681 118.244 63.8748ZM138.371 64.2912H125.643C125.632 65.3414 125.767 66.3881 126.045 67.4022C126.276 68.2768 126.668 69.1022 127.202 69.8374C127.707 70.5121 128.371 71.0561 129.137 71.4226C129.969 71.8112 130.881 72.0046 131.802 71.9878C132.938 71.9801 134.058 71.7231 135.08 71.2356C136.166 70.7327 137.168 70.0707 138.052 69.2721L138.319 70.9423C137.452 71.7001 136.47 72.3196 135.408 72.7783C134.256 73.285 133.008 73.5429 131.746 73.5348C130.632 73.5468 129.529 73.3281 128.507 72.893C127.541 72.4783 126.683 71.8535 125.997 71.0656C125.272 70.2111 124.725 69.2249 124.386 68.1629C123.987 66.912 123.793 65.6065 123.812 64.2955C123.795 62.9986 123.989 61.7074 124.386 60.4706C124.727 59.4031 125.274 58.4103 125.997 57.5467C126.663 56.7548 127.502 56.12 128.45 55.689C129.399 55.258 130.433 55.0418 131.478 55.0562C132.494 55.0294 133.501 55.2534 134.406 55.7078C135.311 56.1621 136.086 56.8323 136.661 57.6572C137.262 58.5088 137.701 59.4606 137.957 60.4663C138.248 61.594 138.393 62.7536 138.389 63.9173L138.371 64.2912ZM136.069 60.3686C135.859 59.6541 135.529 58.9791 135.093 58.3711C134.692 57.8103 134.168 57.3455 133.56 57.0112C132.917 56.6748 132.197 56.5065 131.469 56.5224C130.708 56.4852 129.949 56.6247 129.253 56.9296C128.556 57.2345 127.943 57.6963 127.461 58.2776C126.45 59.5969 125.85 61.1766 125.734 62.825H136.467C136.444 61.9926 136.311 61.1666 136.069 60.3686ZM149.584 57.1982C148.907 57.4749 148.27 57.8362 147.687 58.2734C147.106 58.708 146.578 59.2087 146.115 59.7651C145.668 60.2993 145.283 60.8809 144.966 61.4991V73.1565H143.183V55.426H144.37L144.945 59.1234C145.311 58.6104 145.707 58.1193 146.133 57.6529C146.571 57.1716 147.059 56.7358 147.588 56.3524C148.129 55.9604 148.722 55.6429 149.35 55.409C150.002 55.1688 150.693 55.0464 151.389 55.0477L151.696 56.7094C150.969 56.7589 150.256 56.9239 149.584 57.1982ZM164.743 73.3648C164.183 73.433 163.619 73.4642 163.055 73.4583C162.216 73.4671 161.38 73.3787 160.563 73.1948C159.862 73.0395 159.206 72.73 158.645 72.2895C158.09 71.8364 157.662 71.2513 157.401 70.5896C157.088 69.7582 156.941 68.875 156.969 67.9887V58.6176H154.378V54.9202H156.969V49.1659L161.491 48.4859V54.9372H165.288L165.862 58.6346H161.487V67.2322C161.439 67.8487 161.639 68.459 162.044 68.9321C162.415 69.3231 163.048 69.5186 163.94 69.5186C164.43 69.5287 164.919 69.4773 165.396 69.3656L165.97 73.1905L164.743 73.3648ZM176.319 60.2156C175.25 60.8427 174.335 61.6928 173.636 62.706V73.1565H169.037V54.9372H172.924L173.52 58.6176C174.127 57.5695 174.92 56.6368 175.861 55.8637C176.885 55.0586 178.152 54.6102 179.463 54.5887L180.193 59.0426C178.823 59.1169 177.493 59.5196 176.319 60.2156ZM192.804 73.1565L192.42 70.7766C191.671 71.5655 190.795 72.2287 189.829 72.74C188.726 73.2917 187.501 73.5635 186.265 73.5305C184.864 73.5967 183.494 73.1155 182.452 72.1918C181.493 71.2993 181.013 70.0612 181.013 68.4774C181.013 66.2646 181.933 64.6242 183.773 63.556C185.613 62.4879 188.412 61.7796 192.169 61.4311V60.8956C192.169 59.9153 191.895 59.2169 191.345 58.8004C190.641 58.3446 189.804 58.1308 188.965 58.1926C187.902 58.1944 186.844 58.3374 185.82 58.6176C184.788 58.8994 183.778 59.2531 182.797 59.6759L182.223 56.0677C183.319 55.6341 184.446 55.2818 185.596 55.0137C186.903 54.7196 188.241 54.577 189.582 54.5887C191.984 54.5887 193.779 55.0605 194.968 56.0039C196.157 56.9474 196.748 58.5057 196.739 60.6788V73.1565H192.804ZM192.152 64.066C191.041 64.1733 189.943 64.3882 188.874 64.7077C188.161 64.9168 187.483 65.2275 186.861 65.63C186.431 65.9087 186.081 66.2923 185.846 66.7434C185.657 67.1322 185.558 67.5576 185.557 67.9887C185.542 68.2731 185.587 68.5576 185.689 68.824C185.792 69.0903 185.95 69.3327 186.153 69.5356C186.38 69.7317 186.644 69.8818 186.93 69.9773C187.216 70.0729 187.519 70.1119 187.82 70.0924C188.61 70.0927 189.389 69.9184 190.101 69.5824C190.865 69.2182 191.559 68.7265 192.152 68.1289V64.066ZM206.185 49.3146C206.196 49.6621 206.129 50.0078 205.99 50.3273C205.85 50.6467 205.641 50.9321 205.377 51.1633C204.856 51.6363 204.169 51.8935 203.46 51.8815C202.733 51.9019 202.027 51.6445 201.49 51.1633C201.227 50.9317 201.019 50.6461 200.88 50.3267C200.741 50.0073 200.675 49.6618 200.687 49.3146C200.674 48.9591 200.739 48.6052 200.878 48.2767C201.017 47.9482 201.225 47.6528 201.49 47.4107C202.019 46.9229 202.722 46.659 203.447 46.6754C204.163 46.6606 204.857 46.9249 205.377 47.4107C205.643 47.6525 205.852 47.9476 205.992 48.2761C206.131 48.6047 206.197 48.9588 206.185 49.3146ZM201.123 73.1565V54.9372H205.723V73.1565H201.123ZM210.4 73.1565V46.6372L215 45.9189V73.1565H210.4Z" fill="black"/>
</g>
<defs>
<clipPath id="clip0">
<rect width="188" height="35" fill="white" transform="translate(27 45)"/>
</clipPath>
</defs>
</svg>
