<?xml version="1.0" encoding="UTF-8" standalone="no"?>
<svg
   xmlns:dc="http://purl.org/dc/elements/1.1/"
   xmlns:cc="http://creativecommons.org/ns#"
   xmlns:rdf="http://www.w3.org/1999/02/22-rdf-syntax-ns#"
   xmlns:svg="http://www.w3.org/2000/svg"
   xmlns="http://www.w3.org/2000/svg"
   xmlns:sodipodi="http://sodipodi.sourceforge.net/DTD/sodipodi-0.dtd"
   xmlns:inkscape="http://www.inkscape.org/namespaces/inkscape"
   version="1.1"
   id="svg10"
   width="600"
   height="315"
   viewBox="0 0 600 315"
   sodipodi:docname="seo4ajax3.svg"
   inkscape:version="1.0.1 (3bc2e813f5, 2020-09-07)">
  <metadata
     id="metadata16">
    <rdf:RDF>
      <cc:Work
         rdf:about="">
        <dc:format>image/svg+xml</dc:format>
        <dc:type
           rdf:resource="http://purl.org/dc/dcmitype/StillImage" />
        <dc:title></dc:title>
      </cc:Work>
    </rdf:RDF>
  </metadata>
  <defs
     id="defs14" />
  <sodipodi:namedview
     pagecolor="#ffffff"
     bordercolor="#666666"
     borderopacity="1"
     objecttolerance="10"
     gridtolerance="10"
     guidetolerance="10"
     inkscape:pageopacity="0"
     inkscape:pageshadow="2"
     inkscape:window-width="1920"
     inkscape:window-height="1001"
     id="namedview12"
     showgrid="false"
     fit-margin-top="0"
     fit-margin-left="0"
     fit-margin-right="0"
     fit-margin-bottom="0"
     inkscape:pagecheckerboard="true"
     inkscape:zoom="1"
     inkscape:cx="300"
     inkscape:cy="157.5"
     inkscape:window-x="-9"
     inkscape:window-y="-9"
     inkscape:window-maximized="1"
     inkscape:current-layer="g22"
     inkscape:document-rotation="0" />
  <g
     inkscape:groupmode="layer"
     inkscape:label="Image"
     id="g18">
    <g
       id="g22">
      <path
         style="fill:#d0d0d0;fill-opacity:1;stroke-width:0.302026"
         d="m 43.176513,143.6019 c 10e-4,-1.16276 0.05588,-1.60146 0.12132,-0.97477 0.06538,0.62675 0.06431,1.57807 -0.002,2.1142 -0.06672,0.53639 -0.120223,0.023 -0.118882,-1.13943 z m 44.701874,0 c 10e-4,-1.16276 0.05591,-1.60146 0.121315,-0.97477 0.06539,0.62675 0.06432,1.57807 -0.002,2.1142 -0.06674,0.53639 -0.120236,0.023 -0.11889,-1.13943 z m 72.843623,0.45318 c 0.30053,-0.33224 0.61449,-0.60411 0.69752,-0.60411 0.0828,0 -0.0949,0.27187 -0.39559,0.60411 -0.30079,0.33225 -0.61471,0.60406 -0.69778,0.60406 -0.0828,0 0.0949,-0.27181 0.39585,-0.60406 z m 7.85291,-0.60411 c 0.30079,-0.33231 0.61463,-0.60412 0.69772,-0.60412 0.0825,0 -0.0956,0.27181 -0.39565,0.60412 -0.30073,0.3323 -0.61471,0.60411 -0.6978,0.60411 -0.0824,0 0.0957,-0.27181 0.39573,-0.60411 z m -64.18345,-0.60412 -2.86937,-0.18636 2.77603,-0.058 c 1.5906,-0.0331 2.85574,0.0711 2.96271,0.24429 0.10288,0.1661 0.14465,0.27605 0.0934,0.24421 -0.0514,-0.0307 -1.38456,-0.14167 -2.96269,-0.24421 z m 42.06814,-0.22234 c 0.79401,-0.0618 2.01733,-0.0612 2.71831,0.002 0.70095,0.063 0.0513,0.11473 -1.4438,0.11398 -1.49507,-8.8e-4 -2.06871,-0.0529 -1.27451,-0.11536 z m 32.81468,-0.60836 -0.732,-0.83045 0.83053,0.73229 c 0.77629,0.68425 0.96922,0.92886 0.73223,0.92886 -0.054,0 -0.42784,-0.37378 -0.83076,-0.8307 z m -7.70759,-0.45305 -0.57552,-0.6794 0.67959,0.57532 c 0.63866,0.54071 0.81712,0.78378 0.57545,0.78378 -0.0571,0 -0.36314,-0.30592 -0.67952,-0.6797 z m -38.35319,-6.56929 c 0,-3.57154 0.043,-5.03267 0.0974,-3.24691 0.0533,1.78583 0.0533,4.70804 0,6.49389 -0.0531,1.78589 -0.0974,0.32475 -0.0974,-3.24698 z m 32.64302,3.6245 c 0.30079,-0.3323 0.61471,-0.60405 0.69765,-0.60405 0.0829,0 -0.0949,0.27175 -0.39571,0.60405 -0.30066,0.33224 -0.61451,0.60412 -0.69759,0.60412 -0.0828,0 0.0949,-0.27188 0.39565,-0.60412 z M 75.999056,137.4856 c -3.09e-4,-0.12448 0.985022,-0.18929 2.189779,-0.144 3.962806,0.14944 4.356005,0.26821 1.057821,0.31984 -1.785816,0.0277 -3.247246,-0.0503 -3.2476,-0.17584 z m 11.912851,-0.16536 c -0.08282,-0.21573 -0.108223,-2.28847 -0.05678,-4.60632 l 0.09368,-4.21392 0.06631,4.44068 0.06629,4.44068 1.887751,0.10746 1.887746,0.10753 -1.897228,0.0583 c -1.320803,0.0406 -1.942938,-0.0606 -2.047682,-0.33385 z m -67.223988,-0.43869 c -0.375684,-0.47906 -0.365,-0.48968 0.11403,-0.11401 0.290724,0.22783 0.528585,0.46565 0.528585,0.52841 0,0.24861 -0.248042,0.0887 -0.642624,-0.41456 z M 166.57313,136.2775 c -0.37572,-0.47899 -0.36502,-0.48962 0.11446,-0.11452 0.50321,0.39468 0.66326,0.64263 0.41454,0.64263 -0.0627,0 -0.30064,-0.23781 -0.52859,-0.52853 z M 62.181421,134.16595 c 1.121309,-0.0582 2.956209,-0.0582 4.077523,0 1.121327,0.0582 0.203881,0.10565 -2.038762,0.10565 -2.242648,0 -3.160087,-0.0475 -2.038761,-0.10565 z m 116.662869,-1.5884 c 0.30066,-0.33225 0.61456,-0.60405 0.69759,-0.60405 0.0829,0 -0.0949,0.2718 -0.39559,0.60405 -0.30067,0.33218 -0.61465,0.60405 -0.69772,0.60405 -0.0829,0 0.0949,-0.27187 0.39572,-0.60405 z m -135.667777,-1.9632 c 10e-4,-1.16291 0.05588,-1.6016 0.12132,-0.9748 0.06538,0.62651 0.06431,1.57777 -0.002,2.11416 -0.06672,0.53613 -0.120223,0.0229 -0.118882,-1.13936 z m 126.275847,0.98156 -0.57537,-0.67957 0.67951,0.57538 c 0.37378,0.31651 0.67964,0.62225 0.67964,0.67951 0,0.24182 -0.2431,0.063 -0.78378,-0.57532 z m -7.8531,-0.60399 -0.57532,-0.6797 0.67945,0.57544 c 0.63879,0.54068 0.8172,0.78384 0.5755,0.78384 -0.0575,0 -0.36299,-0.30592 -0.67963,-0.67958 z M 2,130.34924 c 0,-0.0622 0.2378565,-0.30058 0.5285688,-0.52859 0.4790525,-0.37578 0.4897359,-0.36496 0.1140373,0.1144 C 2.2480307,130.43778 2,130.59784 2,130.34924 Z"
         id="path38" />
      <path
         style="display:inline;fill:#b9b9b9;fill-opacity:1;stroke-width:1.06858"
         d="m 274.76588,167.46466 c 0,-11.75303 -0.29173,-21.36923 -0.64833,-21.36923 -1.37579,0 -24.99478,13.3579 -24.99478,14.13603 0,0.45236 5.00783,0.82245 11.12871,0.82245 h 11.12882 l -2.83336,6.41075 -2.83335,6.41074 H 248.33623 230.959 v -9.47585 -9.47574 L 252.18514,141.96191 273.41129,129 h 8.6623 8.66199 l 0.29594,15.75986 0.29551,15.75979 6.66773,0.31779 6.66768,0.31789 -3.17564,6.29095 c -2.79529,5.53742 -3.59403,6.33118 -6.66755,6.62704 l -3.49222,0.33641 -0.31595,7.212 -0.31595,7.21222 h -7.96456 -7.96469 z m 297.5671,18.1639 c 1.06363,-1.1753 2.17424,-2.13688 2.46816,-2.13688 0.29384,0 -0.33607,0.96158 -1.39968,2.13688 -1.06368,1.17529 -2.17435,2.13687 -2.46814,2.13687 -0.29384,0 0.33594,-0.96158 1.39966,-2.13687 z m -126.61291,-0.40341 c 0,-0.22182 0.84129,-1.06328 1.86977,-1.86985 1.69465,-1.32903 1.73246,-1.29118 0.40343,0.40347 -1.3958,1.77977 -2.2732,2.34581 -2.2732,1.46638 z m 107.91478,-6.54161 c 1.38018,-1.46916 2.7499,-2.67108 3.04368,-2.67108 0.29381,0 -0.59502,1.20192 -1.97522,2.67108 -1.38021,1.46914 -2.7498,2.67114 -3.04365,2.67114 -0.29385,0 0.59504,-1.202 1.97519,-2.67114 z m 37.82895,0.2671 -2.03538,-2.40404 2.40397,2.03545 c 2.25922,1.91264 2.8905,2.77263 2.03545,2.77263 -0.20276,0 -1.28462,-1.08182 -2.40404,-2.40404 z m -195.16017,-4.80267 c 5.43582,-0.19415 14.33069,-0.19415 19.76655,0 5.43577,0.19379 0.98834,0.35255 -9.88318,0.35255 -10.87169,0 -15.31908,-0.15876 -9.88337,-0.35255 z m 213.32406,-2.67655 -2.03544,-2.40403 2.40403,2.03538 c 2.25922,1.91276 2.89044,2.77263 2.03545,2.77263 -0.20275,0 -1.28462,-1.08174 -2.40404,-2.40398 z M 221.74675,161.05391 c 0,-6.75804 0.17338,-9.52268 0.3856,-6.14364 0.21199,3.37902 0.21199,8.90827 0,12.2873 -0.21222,3.37907 -0.3856,0.61439 -0.3856,-6.14366 z m 349.0908,-0.75272 c 0.77797,-1.29541 1.64439,-2.12553 1.92555,-1.84439 0.28108,0.28108 -0.35543,1.34109 -1.41455,2.35552 -1.83991,1.76217 -1.86263,1.73933 -0.511,-0.51113 z m 37.82316,-13.1373 c 1.06369,-1.17529 2.17436,-2.13694 2.46815,-2.13694 0.29378,0 -0.33594,0.96165 -1.39967,2.13694 -1.06363,1.1753 -2.17424,2.13688 -2.46815,2.13688 -0.29384,0 0.33607,-0.96158 1.39967,-2.13688 z m -51.90136,-5.07524 -2.59031,-2.93837 2.9383,2.59038 c 1.61614,1.42466 2.9383,2.74695 2.9383,2.93837 0,0.8379 -0.86511,0.15585 -3.28629,-2.59038 z m 32.66907,-1.33568 c 1.0636,-1.17513 2.17421,-2.13675 2.46809,-2.13675 0.29378,0 -0.33607,0.96162 -1.39957,2.13675 -1.06378,1.17542 -2.1744,2.13704 -2.46819,2.13704 -0.2938,0 0.33599,-0.96162 1.39967,-2.13704 z m -13.99157,-5.60927 -2.03539,-2.4041 2.40404,2.03539 c 2.25916,1.91294 2.89044,2.77275 2.03532,2.77275 -0.20268,0 -1.28445,-1.08187 -2.40397,-2.40404 z m -358.50429,-1.60272 c -1.32905,-1.69466 -1.29126,-1.73241 0.40346,-0.40341 1.02838,0.80654 1.86972,1.64806 1.86972,1.86983 0,0.87936 -0.87735,0.31334 -2.27318,-1.46642 z"
         id="path36" />
      <path
         style="display:inline;fill:#008080;fill-opacity:1;stroke-width:1.05657"
         d="m 304.35728,169.07691 c 5.80533,-12.46077 12.25309,-26.29439 14.32825,-30.74169 l 3.77306,-8.0861 8.74884,-0.009 c 4.81197,-0.004 9.0418,-0.13405 9.39981,-0.28769 0.52573,-0.22493 29.34509,59.98051 29.34509,61.30422 0,0.2104 -3.57143,0.38246 -7.93649,0.38246 h -7.9365 l -2.72106,-5.5824 -2.72099,-5.58242 -9.08985,-0.009 -9.08987,-0.009 -2.68867,-7.24864 -2.68883,-7.24865 h 7.93808 c 4.36588,0 7.93804,-0.20712 7.93804,-0.4602 0,-1.62001 -8.40381,-16.32267 -9.16729,-16.0384 -0.51846,0.1929 -5.57185,9.63633 -11.22964,20.98528 l -10.28689,20.63514 -8.2352,0.32569 -8.23515,0.32574 z m 83.59265,21.85252 c -8.37035,-1.77838 -12.99817,-5.75316 -12.99817,-11.16394 v -2.64063 h 18.77497 c 15.37461,0 19.17751,-0.31478 20.99724,-1.73813 2.16567,-1.69378 2.22224,-2.28545 2.22224,-23.26024 0,-11.83726 0.18544,-21.73148 0.41204,-21.98753 0.22668,-0.25579 4.08143,-0.30024 8.56568,-0.0982 l 8.15376,0.36629 -0.3169,25.31299 c -0.355,28.36641 -0.60701,29.46552 -7.62433,33.25355 -2.9963,1.61735 -6.70224,2.03895 -19.68895,2.23977 -8.79877,0.13605 -17.12274,0.009 -18.49758,-0.28364 z m 50.03229,-0.12753 c 0.0206,-0.4607 6.29779,-14.15156 13.94767,-30.42446 l 13.90891,-29.58719 h 9.79916 9.79921 l 6.50141,13.95625 c 3.57566,7.67605 9.97206,21.36698 14.2141,30.42437 l 7.71278,16.46833 -8.21497,-0.003 -8.21494,-0.003 -2.49982,-5.30007 -2.49947,-5.30017 -9.1337,-0.31925 -9.13374,-0.31938 -2.6147,-6.73233 c -1.43814,-3.70256 -2.61461,-6.95015 -2.61461,-7.2168 0,-0.26646 3.37443,-0.48462 7.49886,-0.48462 4.12427,0 7.49901,-0.45419 7.49901,-1.00916 0,-1.08186 -6.65406,-14.61676 -7.87851,-16.02546 -0.40416,-0.46491 -5.63668,8.95559 -11.62764,20.93425 l -10.89292,21.77966 h -7.79747 c -4.28852,0 -7.77999,-0.37675 -7.75862,-0.83731 z m 87.07732,-2.20292 c 0.75472,-1.05804 6.20907,-7.67013 12.12078,-14.69367 5.91177,-7.02356 10.74865,-13.1642 10.74865,-13.64623 0,-0.482 -5.6245,-7.56083 -12.49884,-15.73085 l -12.49886,-14.85433 10.749,-0.35347 10.7491,-0.35343 7.53775,8.9891 7.53772,8.98913 7.93677,-8.91492 7.93677,-8.91469 h 10.35547 c 6.09441,0 10.21836,0.43565 10.02213,1.0587 -0.18324,0.58231 -5.86494,7.59913 -12.62592,15.59284 l -12.29251,14.53403 12.49465,14.83165 12.49467,14.83167 -10.70069,0.33616 -10.70072,0.33603 -7.43284,-8.62248 -7.43291,-8.62245 -7.06517,8.58836 -7.06521,8.58845 -10.87104,-0.0218 c -10.15154,-0.0203 -10.78022,-0.1503 -9.49875,-1.94672 z M 9.2497992,176.29106 c 6.4616368,-0.19443 17.0352488,-0.19443 23.4969028,0 6.461644,0.1945 1.174844,0.35361 -11.748464,0.35361 -12.9233003,0 -18.2101021,-0.15911 -11.7484388,-0.35361 z m 95.0417508,1e-5 c 5.9417,-0.19775 15.39046,-0.19704 20.99729,0.001 5.607,0.1986 0.74559,0.36052 -10.80294,0.35952 -11.54839,-9.4e-4 -16.135921,-0.16343 -10.19435,-0.36116 z m -5.053587,-8.92311 c 3.162117,-0.22167 8.336437,-0.22167 11.498517,0 3.16214,0.2214 0.57486,0.40266 -5.7493,0.40266 -6.324112,0 -8.911281,-0.18126 -5.749217,-0.40266 z m 90.541177,-22.33834 c 5.66611,-0.19943 14.66494,-0.19859 19.99749,0.002 5.3326,0.20037 0.69669,0.36352 -10.30184,0.36251 -10.99849,-9.4e-4 -15.36148,-0.16491 -9.69565,-0.36428 z M 61.865321,133.86071 c -1.243718,-1.77092 -1.208353,-1.81033 0.377507,-0.42154 0.962365,0.84281 1.749758,1.72205 1.749758,1.95386 0,0.91883 -0.821073,0.32756 -2.127265,-1.53232 z"
         id="path30" />
      <path
         style="display:inline;fill:#008080;fill-opacity:1"
         d="m 9.5,183.26724 c -3.7178716,-0.93089 -7.1185215,-4.11763 -8.2184408,-7.7015 L 0.18720118,172 H 23.659342 C 47.948819,172 51,171.54729 51,167.94338 c 0,-2.99525 -3.038361,-3.74589 -20,-4.94111 -17.833025,-1.25663 -21.7747234,-2.10039 -25.8562835,-5.53479 -6.217262,-5.23149 -6.2349844,-18.68856 -0.031486,-23.90846 4.5380257,-3.8185 12.0552825,-4.81655 32.8008165,-4.35489 14.060055,0.31288 19.468444,0.79977 22.20626,1.99911 C 64.259598,133.01696 67,136.40996 67,139.72251 V 142 H 43.571429 c -19.965368,0 -23.66086,0.23229 -25,1.57143 -1.85436,1.85436 -2.0339,4.02471 -0.415674,5.02483 0.635666,0.39286 8.848166,1.31552 18.25,2.05034 18.824922,1.47132 24.200377,2.90817 28.065807,7.50197 C 66.670017,160.76129 67,162.10465 67,168.44187 c 0,5.96238 -0.394423,7.78984 -2.1679,10.04445 -3.967241,5.04353 -6.732707,5.52428 -31.049981,5.39768 C 21.526953,183.8202 10.6,183.54265 9.5,183.26724 Z m 74,-0.42197 c -4.33743,-2.37239 -4.5,-3.30496 -4.5,-25.81389 0,-24.21267 0.240736,-25.17096 6.779483,-26.98694 2.086749,-0.57955 14.369277,-1.03574 27.970517,-1.03886 L 138,129 v 6.5 6.5 H 116.5 95 v 4.46247 4.46248 l 9.09011,0.28752 9.0901,0.28753 2.32426,5.5 2.32427,5.5 -11.41437,0.28174 L 95,163.06347 V 167.53174 172 h 21.5 21.5 v 6 6 l -26.25,-0.0304 C 94.689644,183.9498 84.799837,183.55623 83.5,182.84528 Z m 72.9449,0.0865 c -3.82442,-1.11148 -7.21876,-4.65641 -8.39898,-8.77159 L 147.13961,171 h 18.9302 c 10.4116,0 18.93019,0.27864 18.93019,0.61919 0,0.34055 -1.60758,3.26555 -3.5724,6.5 L 177.85519,184 168.6776,183.9098 c -5.04768,-0.0496 -10.5524,-0.48974 -12.2327,-0.97809 z M 190.27995,173.5 C 193.6663,167.725 196.68614,163 196.9907,163 197.59788,163 209,182.33343 209,183.36296 209,183.71333 203.40266,184 196.56147,184 h -12.43853 z m 19.66024,0.30745 c -2.31832,-4.0191 -6.474,-11.13245 -9.23485,-15.80745 -2.76085,-4.675 -5.20055,-8.8375 -5.42155,-9.25 -0.221,-0.4125 5.52686,-0.75 12.77302,-0.75 h 13.17485 l -0.39344,13.46365 c -0.33897,11.59981 -0.67491,13.84064 -2.42667,16.18695 -1.11828,1.49781 -2.53341,2.89002 -3.14474,3.0938 -0.61132,0.20377 -3.0083,-2.91786 -5.32662,-6.93695 z M 147.00558,154.25 c 0.006,-12.25061 1.01521,-16.98145 4.27423,-20.04314 l 2.28286,-2.14463 9.21866,15.82869 C 167.8516,156.5967 172,164.0077 172,164.3598 172,164.71191 166.375,165 159.5,165 H 147 l 0.006,-10.75 z m 17.74428,-13.45023 c -3.16257,-5.57306 -5.48767,-10.39539 -5.16687,-10.7163 0.32079,-0.32091 6.01764,-0.74549 12.65964,-0.94351 l 12.07639,-0.36003 -2.80798,4.86003 c -1.54439,2.67302 -4.42867,7.66392 -6.40951,11.09088 -1.98084,3.42697 -3.82653,6.2243 -4.10153,6.2163 -0.275,-0.008 -3.08756,-4.57432 -6.25014,-10.14737 z M 186.27854,136 l 4.21109,-7 h 6.20597 c 13.3348,0 21.26731,3.66718 23.25344,10.75 l 0.91135,3.25 h -19.39648 -19.39647 z"
         id="path24" />
    </g>
  </g>
</svg>
