<svg width="196" height="80" viewBox="0 0 196 80" fill="none" xmlns="http://www.w3.org/2000/svg">
<path d="M69.6541 50.7936L71.6037 46.2653C73.7107 47.8376 76.5094 48.6552 79.2767 48.6552C81.3207 48.6552 82.61 47.8691 82.61 46.6741C82.5786 43.3407 70.3773 45.9508 70.283 37.586C70.2515 33.3408 74.0251 30.0703 79.371 30.0703C82.5471 30.0703 85.7232 30.8565 87.9874 32.6489L86.1635 37.2716C84.088 35.9508 81.5094 35.0074 79.0566 35.0074C77.3899 35.0074 76.2893 35.7936 76.2893 36.7999C76.3207 40.0703 88.6163 38.2779 88.7421 46.2653C88.7421 50.6049 85.0629 53.6552 79.7798 53.6552C75.9119 53.6552 72.3585 52.7433 69.6541 50.7936Z" fill="black"/>
<path d="M144.465 44.6301C143.491 46.3282 141.667 47.4917 139.56 47.4917C136.447 47.4917 133.931 44.976 133.931 41.8628C133.931 38.7496 136.447 36.2338 139.56 36.2338C141.667 36.2338 143.491 37.3974 144.465 39.0955L149.843 36.108C147.83 32.5231 143.962 30.0703 139.56 30.0703C133.05 30.0703 127.767 35.3533 127.767 41.8628C127.767 48.3722 133.05 53.6552 139.56 53.6552C143.994 53.6552 147.83 51.2338 149.843 47.6175L144.465 44.6301Z" fill="black"/>
<path d="M98.176 20.2891H91.4464V53.2136H98.176V20.2891Z" fill="black"/>
<path d="M152.484 20.2891V53.2136H159.214V43.3394L167.201 53.2136H175.818L165.66 41.484L175.063 30.5406H166.824L159.214 39.6287V20.2891H152.484Z" fill="black"/>
<path d="M118.176 44.693C117.201 46.2967 115.189 47.4917 112.925 47.4917C109.811 47.4917 107.296 44.976 107.296 41.8628C107.296 38.7496 109.811 36.2338 112.925 36.2338C115.189 36.2338 117.201 37.4917 118.176 39.1269V44.693ZM118.176 30.542V33.215C117.075 31.3596 114.34 30.0703 111.478 30.0703C105.566 30.0703 100.912 35.2904 100.912 41.8313C100.912 48.3722 105.566 53.6552 111.478 53.6552C114.34 53.6552 117.075 52.3659 118.176 50.5106V53.1835H124.906V30.542H118.176Z" fill="black"/>
<path d="M28.0503 44.6549C28.0503 46.9504 26.195 48.8058 23.8994 48.8058C21.6038 48.8058 19.7484 46.9504 19.7484 44.6549C19.7484 42.3593 21.6038 40.5039 23.8994 40.5039H28.0503V44.6549Z" fill="#E01E5A"/>
<path d="M30.1257 44.6548C30.1257 42.3593 31.9811 40.5039 34.2767 40.5039C36.5723 40.5039 38.4276 42.3593 38.4276 44.6548V55.0322C38.4276 57.3278 36.5723 59.1831 34.2767 59.1831C31.9811 59.1831 30.1257 57.3278 30.1257 55.0322V44.6548Z" fill="#E01E5A"/>
<path d="M34.2767 27.9894C31.9811 27.9894 30.1257 26.134 30.1257 23.8384C30.1257 21.5428 31.9811 19.6875 34.2767 19.6875C36.5723 19.6875 38.4276 21.5428 38.4276 23.8384V27.9894H34.2767Z" fill="#36C5F0"/>
<path d="M34.2767 30.0938C36.5723 30.0938 38.4276 31.9491 38.4276 34.2447C38.4276 36.5403 36.5723 38.3956 34.2767 38.3956H23.8679C21.5723 38.3956 19.7169 36.5403 19.7169 34.2447C19.7169 31.9491 21.5723 30.0938 23.8679 30.0938H34.2767Z" fill="#36C5F0"/>
<path d="M50.9119 34.2447C50.9119 31.9491 52.7672 30.0938 55.0628 30.0938C57.3584 30.0938 59.2138 31.9491 59.2138 34.2447C59.2138 36.5403 57.3584 38.3956 55.0628 38.3956H50.9119V34.2447Z" fill="#2EB67D"/>
<path d="M48.8364 34.2473C48.8364 36.5428 46.9811 38.3982 44.6855 38.3982C42.3899 38.3982 40.5345 36.5428 40.5345 34.2473V23.8384C40.5345 21.5428 42.3899 19.6875 44.6855 19.6875C46.9811 19.6875 48.8364 21.5428 48.8364 23.8384V34.2473Z" fill="#2EB67D"/>
<path d="M44.6855 50.8789C46.9811 50.8789 48.8364 52.7343 48.8364 55.0298C48.8364 57.3254 46.9811 59.1808 44.6855 59.1808C42.3899 59.1808 40.5345 57.3254 40.5345 55.0298V50.8789H44.6855Z" fill="#ECB22E"/>
<path d="M44.6855 48.8058C42.3899 48.8058 40.5345 46.9504 40.5345 44.6549C40.5345 42.3593 42.3899 40.5039 44.6855 40.5039H55.0943C57.3899 40.5039 59.2452 42.3593 59.2452 44.6549C59.2452 46.9504 57.3899 48.8058 55.0943 48.8058H44.6855Z" fill="#ECB22E"/>
</svg>
