<svg width="112" height="65" viewBox="0 0 112 65" fill="none" xmlns="http://www.w3.org/2000/svg">
<path d="M55.8391 13.0447C43.4656 13.0447 33.4349 23.0753 33.4349 35.4489C33.4349 47.8224 43.4656 57.853 55.8391 57.853C68.2126 57.853 78.2433 47.8224 78.2433 35.4489C78.2433 23.0753 68.2126 13.0447 55.8391 13.0447Z" fill="#FF6D70"/>
<path d="M67.7639 38.4965C67.3896 38.2287 67.1175 37.8762 66.9471 37.4386C66.7766 37.0003 66.692 36.5122 66.692 35.9729C66.692 35.453 66.7991 34.9703 67.0146 34.5248C67.2295 34.0792 67.5527 33.7213 67.9825 33.4498C68.4128 33.1784 68.9369 33.0426 69.5547 33.0426C69.8724 33.0426 70.1421 33.0682 70.3624 33.1187C70.5834 33.1692 70.8135 33.2672 71.0533 33.4133L71.0028 31.2744C71.0028 31.0278 70.9066 30.8556 70.7136 30.7582C70.5207 30.6608 70.2413 30.5993 69.8743 30.5731C69.8292 30.5543 69.7957 30.5281 69.7732 30.494C69.7513 30.4605 69.7397 30.4125 69.7397 30.3485C69.7397 30.2962 69.7525 30.2426 69.7787 30.1885C69.8049 30.1343 69.8371 30.1051 69.8743 30.1014C70.458 30.0637 71.2103 30.0454 72.1313 30.0454H72.5969C72.6377 30.0454 72.6767 30.0631 72.712 30.0984C72.7473 30.1343 72.7656 30.1915 72.7656 30.27V37.7527C72.7656 37.9024 72.796 38.0156 72.8581 38.0923C72.9196 38.169 72.9926 38.2183 73.0772 38.2409C73.1612 38.2634 73.2665 38.2823 73.3937 38.2969C73.4765 38.3042 73.5307 38.3206 73.5569 38.3449C73.583 38.3693 73.5964 38.4222 73.5964 38.5044C73.5964 38.5537 73.5782 38.6036 73.5429 38.6566C73.507 38.7083 73.4613 38.7345 73.4053 38.7345H71.4745C71.3321 38.7345 71.2298 38.7132 71.1683 38.67C71.1069 38.6274 71.0704 38.5683 71.0588 38.4935C71.0478 38.4186 71.0442 38.2969 71.0478 38.1283C70.8677 38.3754 70.6041 38.5659 70.2559 38.698C69.9084 38.8313 69.5584 38.8976 69.2065 38.8976C68.6191 38.8976 68.1383 38.7637 67.7639 38.4965ZM70.5761 37.9462C70.7666 37.8543 70.909 37.7265 71.0028 37.5616V34.2387C70.973 34.1486 70.9072 34.0561 70.8062 33.9605C70.7051 33.865 70.5901 33.7864 70.461 33.725C70.332 33.6629 70.2115 33.6324 70.0989 33.6324C69.5523 33.6324 69.1633 33.8351 68.9314 34.2411C68.6995 34.6477 68.5838 35.2248 68.5838 35.9729C68.5838 37.3802 69.0586 38.0838 70.0094 38.0838C70.1963 38.0838 70.3856 38.0376 70.5761 37.9462Z" fill="#F8F3EF"/>
<path d="M53.5998 38.1283C53.0726 37.6164 52.8085 36.8787 52.8085 35.917C52.8085 35.3144 52.9497 34.7964 53.2321 34.3624C53.5146 33.9284 53.8938 33.5997 54.3692 33.3769C54.8439 33.1547 55.3662 33.0427 55.9353 33.0427C56.7656 33.0427 57.3846 33.2052 57.7931 33.5285C58.2009 33.8523 58.4571 34.3265 58.5624 34.9516C58.5959 35.1537 58.6124 35.4623 58.6124 35.878L54.7167 35.8835C54.7167 36.4258 54.8019 36.8659 54.9724 37.2025C55.1422 37.5391 55.3589 37.7808 55.6206 37.9269C55.8824 38.073 56.1593 38.1454 56.4515 38.1454C56.796 38.1454 57.0852 38.101 57.3189 38.0109C57.5526 37.9214 57.7571 37.7729 57.9331 37.5678C57.9373 37.5641 57.9477 37.5513 57.9641 37.5312C57.9811 37.5105 57.9988 37.4965 58.0177 37.4892C58.0359 37.4813 58.0566 37.4795 58.0798 37.4831L58.3263 37.6012C58.364 37.6164 58.3823 37.6384 58.3823 37.6688C58.3823 37.6907 58.3713 37.723 58.3488 37.7637C58.1467 38.1156 57.8509 38.3925 57.4619 38.5946C57.0724 38.7967 56.5939 38.8977 56.0248 38.8977C54.9358 38.8977 54.1275 38.6415 53.5998 38.1283ZM56.5471 33.9552C56.4162 33.6648 56.2062 33.5199 55.9183 33.5199C55.6152 33.5199 55.354 33.6709 55.1349 33.9722C54.9164 34.2729 54.7825 34.7367 54.7338 35.3612H56.7437C56.7437 34.7142 56.6779 34.2455 56.5471 33.9552Z" fill="#F8F3EF"/>
<path d="M59.0924 38.6591C59.0583 38.6086 59.0418 38.5575 59.0418 38.5051C59.0418 38.4412 59.0546 38.3925 59.0808 38.359C59.107 38.325 59.1557 38.3043 59.2269 38.297C59.6237 38.2489 59.8216 38.1283 59.8216 37.9378V34.3678C59.8216 34.1956 59.7899 34.0647 59.7266 33.9746C59.6627 33.8852 59.5884 33.8255 59.5051 33.7951C59.4211 33.7652 59.3109 33.7409 59.1764 33.722C59.0674 33.7074 59.0041 33.6958 58.9858 33.6885C58.9402 33.6697 58.9067 33.6435 58.8848 33.61C58.8623 33.5759 58.8507 33.5279 58.8507 33.4639C58.8507 33.4116 58.8629 33.3586 58.8872 33.3038C58.9116 33.2497 58.9445 33.2205 58.9858 33.2168C59.8611 33.1651 60.6524 33.1383 61.3604 33.1383C61.3975 33.1383 61.4328 33.1553 61.4669 33.1888C61.5004 33.2229 61.5211 33.2807 61.5284 33.3629V33.9917C61.6148 33.8906 61.7755 33.764 62.0111 33.6125C62.2472 33.4609 62.5211 33.3282 62.8334 33.2144C63.1463 33.0999 63.4543 33.0427 63.7568 33.0427C64.3107 33.0427 64.7508 33.162 65.0764 33.3994C65.4015 33.6374 65.5646 34.0757 65.5646 34.7154V37.7528C65.5646 37.9622 65.617 38.0991 65.7217 38.1624C65.8263 38.2263 65.9359 38.2635 66.0503 38.2744C66.1642 38.286 66.2396 38.2933 66.2774 38.297C66.345 38.3043 66.3924 38.3225 66.421 38.3505C66.4484 38.3785 66.4624 38.4303 66.4624 38.5051C66.4624 38.5575 66.446 38.6086 66.4119 38.6591C66.3784 38.7097 66.3316 38.7352 66.2719 38.7352H63.2577C63.1974 38.7352 63.1505 38.7097 63.117 38.6591C63.0836 38.6086 63.0665 38.5575 63.0665 38.5051C63.0665 38.4376 63.0775 38.3883 63.1 38.356C63.1225 38.3244 63.1694 38.3043 63.2406 38.297C63.3788 38.2823 63.5036 38.2428 63.6137 38.1789C63.7239 38.1156 63.7793 38.0352 63.7793 37.9378V34.744C63.7793 34.5979 63.7684 34.4671 63.7458 34.3508C63.7233 34.2345 63.6624 34.1305 63.5632 34.0367C63.464 33.943 63.3137 33.8961 63.1116 33.8961C62.9204 33.8961 62.725 33.9326 62.5248 34.0057C62.3245 34.0787 62.1413 34.1694 61.9745 34.2778C61.8084 34.3867 61.6781 34.4932 61.5844 34.5979V37.7528C61.5844 37.9025 61.6117 38.0157 61.6659 38.0924C61.7201 38.1691 61.7864 38.2197 61.8656 38.244C61.9441 38.2684 62.0451 38.286 62.1681 38.297C62.2503 38.3043 62.305 38.3207 62.3312 38.345C62.3574 38.3694 62.3702 38.4223 62.3702 38.5051C62.3702 38.5538 62.3525 38.6037 62.3172 38.6567C62.2813 38.709 62.2357 38.7352 62.1796 38.7352H59.2324C59.1727 38.7352 59.1258 38.7097 59.0924 38.6591Z" fill="#F8F3EF"/>
<path d="M52.5721 38.3453C52.5459 38.3204 52.4918 38.3045 52.409 38.2972C52.2708 38.282 52.1564 38.2643 52.0669 38.2437C51.9768 38.2236 51.8977 38.1785 51.8283 38.1091C51.7589 38.0404 51.7242 37.9399 51.7242 37.8091V30.2698C51.7242 30.1913 51.7065 30.1346 51.6712 30.0987C51.6353 30.0634 51.597 30.0452 51.5562 30.0452C50.6992 30.0452 49.8665 30.0719 49.0581 30.1243C49.0204 30.128 48.9887 30.1566 48.9625 30.2113C48.9364 30.2655 48.9236 30.3185 48.9236 30.3708C48.9236 30.4347 48.9345 30.4834 48.9571 30.5169C48.9796 30.5504 49.0131 30.5772 49.0581 30.5954C49.0733 30.5991 49.1439 30.6106 49.2712 30.6295C49.4245 30.6478 49.5499 30.6727 49.6473 30.7019C49.7447 30.7324 49.8287 30.792 49.8999 30.8821C49.9712 30.9716 50.0065 31.1043 50.0065 31.2808L50.001 37.9941C50.001 38.0878 49.4385 38.3173 49.0319 38.3173C48.6253 38.3173 48.0939 38.0909 48.0526 37.991C48.0118 37.8918 47.9911 37.7695 47.9911 37.6234V34.6037C47.9911 34.2969 47.9046 34.0266 47.733 33.7929C47.5607 33.5585 47.2929 33.3753 46.9301 33.242C46.5667 33.1093 46.109 33.043 45.5545 33.043C45.1655 33.043 44.7644 33.0911 44.3505 33.186C43.9372 33.2816 43.5872 33.4295 43.3011 33.6298C43.015 33.83 42.8714 34.0796 42.8714 34.3791C42.8714 34.611 42.9566 34.8009 43.127 34.9488C43.2414 35.0486 43.3802 35.1113 43.5385 35.1442C43.7047 35.1679 43.8794 35.129 43.8574 34.9098C43.8562 34.8946 43.8574 34.8867 43.8574 34.8758C43.8191 34.4192 44.0461 33.9402 44.6189 33.6918C44.6445 33.6809 44.6676 33.6736 44.6914 33.6644C44.79 33.6158 45.0073 33.5762 45.3134 33.5762C45.5904 33.5762 45.7986 33.6389 45.9392 33.7643C46.0798 33.8897 46.1498 34.1191 46.1498 34.4521V35.3779C45.5094 35.4455 44.936 35.5423 44.429 35.6671C43.922 35.7924 43.4916 35.9939 43.138 36.2709C42.7843 36.5478 42.6078 36.9161 42.6078 37.3763C42.6078 37.7135 42.6948 37.9941 42.8689 38.2187C43.043 38.4433 43.2585 38.6076 43.5172 38.713C43.7753 38.817 44.0297 38.87 44.2805 38.87C44.681 38.87 45.0505 38.8049 45.3889 38.6758C45.728 38.5474 46.0171 38.3575 46.2563 38.1061V38.1231C46.2563 38.2503 46.2819 38.4488 46.2819 38.4488C46.2819 38.4488 46.3032 38.6113 46.4949 38.7111C46.6866 38.8116 47.876 38.7349 48.0927 38.7349H52.4205C52.4802 38.7349 52.5271 38.7099 52.5611 38.6594C52.5946 38.6089 52.6111 38.5577 52.6111 38.5048C52.6111 38.4226 52.5983 38.3697 52.5721 38.3453ZM46.1498 37.635C45.9179 37.9192 45.6166 38.0617 45.2459 38.0617C45.014 38.0617 44.8332 37.9886 44.7041 37.8425C44.5751 37.6964 44.5106 37.5224 44.5106 37.3203C44.5106 36.9575 44.5897 36.6732 44.7461 36.4675C44.9038 36.2618 45.0973 36.1157 45.3274 36.0292C45.5575 35.9434 45.832 35.8758 46.1498 35.8271V37.635Z" fill="#F8F3EF"/>
<path d="M42.2234 38.1425C42.2009 38.0773 42.1693 38.0165 42.1279 37.9605C42.0865 37.9039 42.0548 37.8813 42.0329 37.8929C41.8905 37.9641 41.7347 38.0238 41.5667 38.0725C41.398 38.1212 41.252 38.1455 41.129 38.1455C40.9902 38.1455 40.8843 38.1145 40.8119 38.053C40.7388 37.9909 40.6865 37.8771 40.6542 37.7103C40.6226 37.5441 40.6067 37.3019 40.6067 36.9835V33.7556H41.8138C41.8552 33.7556 41.8929 33.7166 41.9288 33.6381C41.9641 33.5596 41.9824 33.4622 41.9824 33.3459C41.9824 33.2979 41.9696 33.254 41.9453 33.2169C41.9209 33.1798 41.8887 33.1585 41.8473 33.1554H40.6067V31.5886C40.6067 31.5235 40.5635 31.4779 40.4868 31.4468C40.3468 31.4024 40.2647 31.5552 40.2647 31.5552C39.8873 32.428 39.1459 33.1013 38.2292 33.3886C38.2292 33.3886 38.0417 33.4336 38.0898 33.629C38.0959 33.646 38.1008 33.6631 38.1087 33.6801C38.1348 33.7343 38.1665 33.7635 38.2042 33.7672H38.8044V37.4832C38.8044 38.011 38.9645 38.3792 39.2847 38.5886C39.6048 38.7986 40.034 38.9033 40.5733 38.9033C40.7413 38.9033 40.9367 38.8717 41.1594 38.8078C41.3822 38.7444 41.5916 38.6629 41.7882 38.5637C41.9848 38.4645 42.1297 38.3646 42.2234 38.2636C42.246 38.2484 42.246 38.2082 42.2234 38.1425Z" fill="#F8F3EF"/>
</svg>
