<svg width="100" height="100" viewBox="0 0 100 100" fill="none" xmlns="http://www.w3.org/2000/svg">
<path d="M100 0H0V100H100V0Z" fill="#262627"/>
<path d="M49.1786 77.4278C56.9143 76.9101 65.5221 76.9868 71.3594 71.3411C77.1968 65.6954 78.4746 57.5543 78.3653 49.1994C78.256 40.8444 76.1708 34.9241 70.8129 29.5662C65.455 24.2083 60.0501 22.677 51.5758 22.4099C43.1016 22.1428 34.653 22.7756 28.4416 28.2308C22.2301 33.6861 19.6706 40.5462 20.5186 49.686C21.3665 58.8257 26.9493 68.3811 32.6813 73.9295C38.4134 79.4779 41.443 77.9455 49.1786 77.4278Z" stroke="white"/>
<path d="M29.9681 46.8959V45.9492H34.991V46.8959H32.9803V52.3219H31.9788V46.8959H29.9681Z" fill="white"/>
<path d="M40.3714 47.7344H39.2696L37.7066 51.0968L36.2328 47.7344H35.1419L37.1452 52.3045L36.2733 54.1797H37.3752L40.3714 47.7344Z" fill="white"/>
<path d="M44.4879 50.0272C44.4879 49.5629 44.3788 49.1896 44.1604 48.9167C43.9418 48.6344 43.6596 48.4978 43.3135 48.4978C42.9676 48.4978 42.6854 48.6344 42.467 48.9167C42.2484 49.1896 42.1393 49.5629 42.1393 50.0272C42.1393 50.4915 42.2484 50.8646 42.467 51.147C42.6854 51.42 42.9676 51.5567 43.3135 51.5567C43.6596 51.5567 43.9418 51.42 44.1604 51.147C44.3788 50.8646 44.4879 50.4915 44.4879 50.0272ZM43.4228 52.3943C42.8856 52.3943 42.4214 52.1392 42.1939 51.8117V54.1784H41.247V47.7332H42.1939V48.2611C42.367 47.9605 42.8856 47.6602 43.4412 47.6602C44.7794 47.6602 45.4894 48.534 45.4894 50.0272C45.4894 51.4838 44.7701 52.3943 43.4228 52.3943Z" fill="white"/>
<path d="M47.333 49.4993H49.5634C49.4815 48.9257 49.0991 48.4979 48.4528 48.4979C47.8429 48.4979 47.4421 48.9074 47.333 49.4993ZM50.5648 50.2912H47.3146C47.3146 51.0105 47.7334 51.5567 48.4528 51.5567C48.9625 51.5567 49.427 51.2652 49.6545 50.7828L50.4646 51.1014C50.0004 52.0026 49.4632 52.3943 48.4528 52.3943C46.9415 52.3943 46.3132 51.1196 46.3132 50.0272C46.3132 48.9346 46.9415 47.6602 48.4528 47.6602C49.9185 47.6602 50.5648 48.8528 50.5648 49.8817V50.2912Z" fill="white"/>
<path d="M51.3367 48.5696V47.7322H51.9285V47.4955C51.9285 46.412 52.5113 45.875 53.4669 45.875C53.7673 45.875 54.0134 45.9295 54.2227 46.0388L54.0312 46.8399C53.8677 46.7579 53.6855 46.7124 53.4942 46.7124C53.0847 46.7124 52.8752 46.9492 52.8752 47.4318V47.7322H53.8857V48.5696H52.8752V52.3204H51.9285V48.5696H51.3367Z" fill="white"/>
<path d="M55.5138 50.0272C55.5138 50.446 55.6229 50.8102 55.8413 51.1105C56.069 51.4111 56.3785 51.5567 56.7699 51.5567C57.1614 51.5567 57.4711 51.4111 57.6895 51.1105C57.917 50.8102 58.0263 50.446 58.0263 50.0272C58.0263 49.6084 57.917 49.2534 57.6895 48.953C57.4711 48.6524 57.1614 48.4978 56.7699 48.4978C56.3785 48.4978 56.069 48.6524 55.8413 48.953C55.6229 49.2534 55.5138 49.6084 55.5138 50.0272ZM54.5122 50.0272C54.5122 49.3627 54.7124 48.7983 55.1221 48.3431C55.532 47.8877 56.0872 47.6602 56.7699 47.6602C57.4529 47.6602 57.999 47.8877 58.4087 48.3431C58.8184 48.7983 59.0277 49.3627 59.0277 50.0272C59.0277 50.6917 58.8184 51.2563 58.4087 51.7115C57.999 52.1665 57.4529 52.3943 56.7699 52.3943C56.0872 52.3943 55.532 52.1665 55.1221 51.7115C54.7124 51.2563 54.5122 50.6917 54.5122 50.0272Z" fill="white"/>
<path d="M60.8739 52.3214H59.9272V47.7332H60.8739V48.4979C61.1745 47.9607 61.7206 47.6602 62.2305 47.6602C62.4398 47.6602 62.6309 47.6968 62.8131 47.7695L62.6491 48.6344C62.5036 48.5433 62.3216 48.4979 62.1121 48.4979C61.7753 48.4979 61.4838 48.6799 61.2382 49.053C60.9923 49.4171 60.8739 49.9361 60.8739 50.6189V52.3214Z" fill="white"/>
<path d="M63.7867 47.733H64.7334V48.516C65.1069 47.9423 65.5619 47.6602 66.1172 47.6602C66.7364 47.6602 67.2462 48.0334 67.3829 48.6069C67.7013 47.997 68.2203 47.6602 68.8121 47.6602C69.6404 47.6602 70.123 48.2063 70.123 49.0348V52.3212H69.1763V49.2443C69.1763 48.7617 68.9121 48.4978 68.5024 48.4978C67.9108 48.4978 67.4282 49.2714 67.4282 50.4823V52.3212H66.4813V49.2443C66.4813 48.7617 66.2174 48.4978 65.8079 48.4978C65.1978 48.4978 64.7334 49.2714 64.7334 50.5824V52.3212H63.7867V47.733Z" fill="white"/>
</svg>
