<svg width="20" height="20" viewBox="0 0 20 20" fill="none" xmlns="http://www.w3.org/2000/svg">
<circle cx="10" cy="10" r="9" fill="#94A5FF"/>
<path d="M8.8 15C8.69391 15 8.59217 14.9579 8.51716 14.8828C8.44214 14.8078 8.4 14.7061 8.4 14.6V13.4H6.8C6.58783 13.4 6.38434 13.3157 6.23431 13.1657C6.08429 13.0157 6 12.8122 6 12.6V7.8C6 7.58783 6.08429 7.38434 6.23431 7.23431C6.38434 7.08429 6.58783 7 6.8 7H13.2C13.4122 7 13.6157 7.08429 13.7657 7.23431C13.9157 7.38434 14 7.58783 14 7.8V12.6C14 12.8122 13.9157 13.0157 13.7657 13.1657C13.6157 13.3157 13.4122 13.4 13.2 13.4H10.76L9.28 14.884C9.2 14.96 9.1 15 9 15H8.8ZM12.3 10.6V9.8H11.5V10.6H12.3ZM10.4 10.6V9.8H9.6V10.6H10.4ZM8.5 10.6V9.8H7.7V10.6H8.5Z" fill="white"/>
</svg>
