<svg width="20" height="20" viewBox="0 0 20 20" fill="none" xmlns="http://www.w3.org/2000/svg">
<path fill-rule="evenodd" clip-rule="evenodd" d="M5.83333 14C5.83333 14 5 14 5 13.1667C5 12.3333 5.83333 9.83333 10 9.83333C14.1667 9.83333 15 12.3333 15 13.1667C15 14 14.1667 14 14.1667 14H5.83333ZM10 9C10.663 9 11.2989 8.73661 11.7678 8.26777C12.2366 7.79893 12.5 7.16304 12.5 6.5C12.5 5.83696 12.2366 5.20107 11.7678 4.73223C11.2989 4.26339 10.663 4 10 4C9.33696 4 8.70107 4.26339 8.23223 4.73223C7.76339 5.20107 7.5 5.83696 7.5 6.5C7.5 7.16304 7.76339 7.79893 8.23223 8.26777C8.70107 8.73661 9.33696 9 10 9Z" fill="white"/>
</svg>
