<svg width="18" height="18" viewBox="0 0 18 18" fill="none" xmlns="http://www.w3.org/2000/svg">
<circle cx="9" cy="9" r="9" fill="#FF5656"/>
<path d="M14.0004 6.54527C13.5538 5.6286 12.2671 4.8786 10.7704 5.31527C10.0553 5.52185 9.43128 5.96486 9.00044 6.57193C8.56961 5.96486 7.94562 5.52185 7.23044 5.31527C5.73044 4.88527 4.44711 5.6286 4.00044 6.54527C3.37378 7.8286 3.63378 9.27193 4.77378 10.8353C5.66711 12.0586 6.94378 13.2986 8.79711 14.7386C8.85568 14.7843 8.92783 14.8091 9.00211 14.8091C9.07639 14.8091 9.14854 14.7843 9.20711 14.7386C11.0571 13.3019 12.3371 12.0719 13.2304 10.8353C14.3671 9.27193 14.6271 7.8286 14.0004 6.54527Z" fill="white"/>
</svg>
