<svg width="18" height="18" viewBox="0 0 24 24" fill="none" xmlns="http://www.w3.org/2000/svg">
<path d="M19.8933 1.98926H3.9786C2.88446 1.98926 1.9992 2.88446 1.9992 3.9786L1.98926 21.8827L5.96794 17.904H19.8933C20.9875 17.904 21.8827 17.0088 21.8827 15.9147V3.9786C21.8827 2.88446 20.9875 1.98926 19.8933 1.98926Z" fill="#ff4500" stroke="#ff4500" stroke-width="1.5"/>
<path d="M13.0944 5.276L12.8544 11.024H11.1144L10.8744 5.276H13.0944ZM12.0144 14.096C11.6544 14.096 11.3584 13.992 11.1264 13.784C10.9024 13.568 10.7904 13.304 10.7904 12.992C10.7904 12.672 10.9024 12.404 11.1264 12.188C11.3584 11.972 11.6544 11.864 12.0144 11.864C12.3664 11.864 12.6544 11.972 12.8784 12.188C13.1104 12.404 13.2264 12.672 13.2264 12.992C13.2264 13.304 13.1104 13.568 12.8784 13.784C12.6544 13.992 12.3664 14.096 12.0144 14.096Z" fill="white"/>
</svg>
