<svg width="20" height="20" viewBox="0 0 20 20" fill="none" xmlns="http://www.w3.org/2000/svg">
<circle cx="10" cy="10" r="9" fill="#A542F2"/>
<path d="M12 12.0647C11.6202 12.0647 11.2776 12.2123 11.0178 12.4499L7.455 10.3721C7.4826 10.2593 7.5 10.1417 7.5 10.0217C7.5 9.90173 7.4826 9.78473 7.455 9.67193L10.98 7.61453C11.256 7.87456 11.6208 8.01942 12 8.01953C12.8274 8.01953 13.5 7.34693 13.5 6.51953C13.5 5.69213 12.8274 5.01953 12 5.01953C11.1726 5.01953 10.5 5.69213 10.5 6.51953C10.5 6.63953 10.5174 6.75713 10.545 6.86933L7.02 8.92673C6.74386 8.66696 6.37913 8.52214 6 8.52173C5.1726 8.52173 4.5 9.19433 4.5 10.0217C4.5 10.8491 5.1726 11.5217 6 11.5217C6.37918 11.5216 6.74402 11.3768 7.02 11.1167L10.5828 13.1945C10.5566 13.3018 10.5431 13.4117 10.5426 13.5221C10.5427 13.8102 10.6282 14.0918 10.7884 14.3313C10.9485 14.5707 11.176 14.7574 11.4422 14.8676C11.7084 14.9777 12.0012 15.0065 12.2838 14.9503C12.5663 14.8941 12.8258 14.7553 13.0295 14.5516C13.2332 14.3479 13.3719 14.0884 13.4282 13.8059C13.4844 13.5233 13.4556 13.2305 13.3454 12.9643C13.2352 12.6981 13.0486 12.4706 12.8091 12.3105C12.5697 12.1504 12.2881 12.0648 12 12.0647Z" fill="white"/>
</svg>
