<svg xmlns="http://www.w3.org/2000/svg" width="257" height="224" fill="none" viewBox="0 0 257 224">
    <g clip-path="url(#clip0)">
        <path fill="#425AF2" d="M142.362 1.349c-3.236.58-6.429 1.382-9.555 2.4-20.722 6.755-60.092 17.222-75.45 32.633-17.806 17.91-12.343 41.479-30.224 59.283C12.32 110.395-.037 124.814 0 147.163c.06 39.38 34.096 53.065 65.919 62.986 37.702 11.739 77.799 17.138 117.116 11.776 16.669-2.272 33.497-6.641 47.097-16.524 20.344-14.768 30.126-41.88 25.898-66.402-2.144-12.443-5.895-23.689-6.918-36.473-1.333-16.66 1.478-33.76-3.417-50.05-8.524-28.378-38.354-45.44-67.54-50.605-11.805-2.105-24.034-2.658-35.793-.522z" opacity=".18"/>
        <path fill="#fff" d="M236.02 30.126v147.829c0 2.478-.985 4.855-2.739 6.608-1.753 1.753-4.131 2.737-6.611 2.737H30.33c-2.48 0-4.858-.984-6.611-2.737-1.754-1.753-2.739-4.13-2.739-6.608V32.89c0-2.478.985-4.855 2.739-6.608 1.753-1.753 4.132-2.737 6.611-2.737h199.105c1.747 0 3.421.693 4.656 1.927 1.235 1.235 1.929 2.909 1.929 4.654z"/>
        <path fill="#D7D9E1" d="M149.447 55.617H55.592v57.655h93.855V55.617zM149.447 118.801H55.592v57.655h93.855v-57.655z" opacity=".33"/>
        <path fill="#425AF2" d="M236.02 30.271v.242H20.98v-.242c0-2.478.985-4.855 2.739-6.608 1.753-1.753 4.132-2.737 6.611-2.737h196.34c1.228-.001 2.444.24 3.579.71 1.135.468 2.166 1.157 3.034 2.025.869.868 1.558 1.898 2.027 3.033.47 1.134.711 2.35.71 3.577z"/>
        <path fill="#D7D7D7" d="M49.992 30.512v156.765H30.33c-2.48 0-4.858-.985-6.611-2.737-1.754-1.753-2.739-4.13-2.739-6.608V30.512h29.012z"/>
        <path fill="#fff" d="M45.514 69.99H30.368v1.5h15.146v-1.5zM45.522 65.56h-18.67v1.901h18.67v-1.9zM45.514 87.713H30.368v1.5h15.146v-1.5zM45.522 83.275h-18.67v1.901h18.67v-1.9zM45.514 105.426H30.368v1.499h15.146v-1.499zM45.522 100.996h-18.67v1.901h18.67v-1.901zM45.514 123.141H30.368v1.499h15.146v-1.499zM45.522 118.709h-18.67v1.901h18.67v-1.901z"/>
        <path fill="#425AF2" d="M248.719 47.983v31.3c0 2.172-.836 4.261-2.336 5.834-1.5 1.572-3.548 2.507-5.719 2.61-.133.007-.267.007-.401 0h-51.788l-4.455 10.345-4.698-10.345h-71.329c-1.832-.002-3.615-.597-5.079-1.698-1.465-1.1-2.533-2.647-3.043-4.406-.212-.762-.314-1.55-.303-2.34v-31.3c0-2.237.886-4.383 2.465-5.969 1.579-1.585 3.722-2.48 5.96-2.49h132.27c1.111 0 2.211.218 3.237.643 1.027.426 1.959 1.049 2.745 1.835.785.785 1.408 1.718 1.832 2.744.425 1.026.643 2.126.642 3.237z"/>
        <path fill="#fff" d="M248.719 51.15v28.135c0 2.172-.836 4.261-2.336 5.834-1.5 1.572-3.548 2.507-5.719 2.61-.133.008-.267.008-.401 0h-51.788l-4.455 10.345-4.698-10.345h-71.329c-1.832-.001-3.615-.597-5.079-1.698-1.465-1.1-2.533-2.647-3.043-4.406-.212-.762-.314-1.55-.303-2.34V51.15h149.151z" opacity=".33"/>
        <path fill="#fff" d="M30.99 27.84c1.18 0 2.136-.956 2.136-2.136 0-1.18-.957-2.136-2.137-2.136-1.18 0-2.136.956-2.136 2.136 0 1.18.956 2.136 2.136 2.136zM38.316 27.84c1.18 0 2.137-.956 2.137-2.136 0-1.18-.957-2.136-2.137-2.136-1.18 0-2.136.956-2.136 2.136 0 1.18.956 2.136 2.136 2.136zM45.643 27.84c1.18 0 2.137-.956 2.137-2.136 0-1.18-.957-2.136-2.137-2.136-1.18 0-2.136.956-2.136 2.136 0 1.18.956 2.136 2.136 2.136z"/>
        <path fill="#425AF2" d="M201.197 178.03c0 8.118-3.227 15.904-8.971 21.645-5.743 5.74-13.533 8.965-21.655 8.965-8.123 0-15.912-3.225-21.656-8.965-5.743-5.741-8.97-13.527-8.97-21.645 0-.788.03-1.568.091-2.341.61-7.889 4.252-15.236 10.163-20.499 5.912-5.264 13.632-8.035 21.543-7.732 7.911.303 15.398 3.656 20.889 9.355 5.491 5.7 8.561 13.304 8.566 21.217z"/>
        <path fill="#020202" d="M157.697 191.935c-1.015 4.423.228 9.141-.681 13.549-7.075-3.498-12.532-9.583-15.238-16.995-.145-1.513-.107-3.039.114-4.543.205-1.629.508-3.318.046-4.893-.44-1.213-1.083-2.342-1.902-3.34.34-4.475 1.662-8.821 3.872-12.728 2.211-3.907 5.255-7.28 8.918-9.878.037.206.037.416 0 .621l-1.281 5.832c.258 1.727.258 3.483 0 5.21-.14.862-.467 1.682-.958 2.405-.491.722-1.134 1.328-1.883 1.776-.566.233-1.115.504-1.644.81-.509.421-.933.935-1.251 1.515-.846 1.18-1.477 2.5-1.864 3.9-.187.7-.196 1.436-.027 2.141.169.705.512 1.356.997 1.895l8.539-1.658c.894-.174 1.978-.296 2.592.378.757.803.272 2.083.432 3.166.204 1.378 1.432 2.37 2 3.65.985 2.219-.22 4.771-.781 7.187z" opacity=".14"/>
        <path fill="#020202" d="M146.362 162.308c.396.857 1.027 1.584 1.819 2.098 3.581 2.685 7.905 4.198 12.38 4.332-1.447.356-2.977.757-4.008 1.84-1.03 1.083-1.25 3.029-.053 3.946.422.281.9.465 1.402.537 2.28.448 4.641.257 6.819-.553 1.318-.492 2.614-1.219 4.023-1.204 1.129.094 2.228.408 3.236.924 1.515.621 3.099 1.182 4.675.864 1.576-.319 3.03-1.833 2.674-3.408-.083-.372-.242-.758-.06-1.099.153-.204.368-.353.613-.424l14.495-6.444c.917-.417 1.97-1 2.068-2 .099-.999-.916-1.855-1.856-2.34-4.993-2.605-10.82-2.938-16.449-3.211l-9.994-.492c-4.834-.235-9.714-.47-14.54.098-1.675.197-4.63.22-5.91 1.469-1.114 1.061-1.849 3.696-1.334 5.067z" opacity=".4"/>
        <path fill="#020202" d="M201.196 178.03c.005 4.63-1.043 9.2-3.064 13.365-2.021 4.166-4.964 7.818-8.604 10.68-.421-.279-.782-.64-1.061-1.06-.917-1.386-.614-3.575.864-4.355-.515.273-2.538-.394-3.145-.484l-3.152-.493c-1.515-.234-4.137-.136-5.023-1.651-.102-.211-.221-.413-.356-.606-.188-.187-.409-.339-.652-.446-.947-.462-2.061-.985-2.273-2.015-.159-.757.22-1.62-.167-2.272-.121-.212-.31-.378-.431-.583-.134-.31-.184-.65-.147-.986.037-.336.161-.656.359-.93 1.326-2.325 4.084-3.446 6.72-3.893 2.637-.446 5.372-.386 7.949-1.128 1.621-.47 3.159-1.257 4.834-1.515.924-.128 2.076-.219 2.417-1.09.189-.492 0-1.06.197-1.56.075-.212.219-.394.295-.606.059-.178.077-.367.053-.553-.024-.186-.089-.364-.191-.522-.101-.158-.237-.29-.397-.389-.159-.098-.339-.16-.526-.179.212-.576.394-1.311-.06-1.72-.158-.115-.342-.192-.536-.222s-.392-.014-.578.048c-1.099.28-1.894 1.204-2.819 1.856-3.03 2.173-7.243 1.401-9.804-1.151-.415-.364-.711-.845-.849-1.379-.038-.455.066-.911.298-1.304.232-.394.581-.705.998-.892.837-.361 1.741-.539 2.652-.523l-1.023-6.664c-5.092 1.363-7.16-3.484-7.888-7.513-.727-4.029 2.137-5.467 5.827-5.733 5.696 2.271 10.578 6.199 14.016 11.274 3.438 5.075 5.273 11.065 5.267 17.194z" opacity=".14"/>
        <path fill="#68E1FD" d="M183.064 109.392l-.71.056c-.442.035-.772.422-.737.864l.371 4.696c.035.442.422.772.864.737l.71-.056c.443-.035.773-.422.738-.864l-.372-4.696c-.035-.442-.421-.772-.864-.737z"/>
        <path fill="#425AF2" d="M178.087 107.517l.326 1.81c.106.583.53.97.985.894 1.758-.303 6.061-.901 9.16-.114 1.684.429 3.331.991 4.925 1.681.629.281 1.258-.424 1.152-1.287l-1.114-9.633c-.106-.848-.848-1.272-1.386-.757-2.22 2.014-7.365 6.02-13.131 5.998-.637-.023-1.046.674-.917 1.408z"/>
        <path fill="#425AF2" d="M193.962 111.841c1.602-.127 2.686-2.944 2.421-6.292-.265-3.348-1.778-5.96-3.38-5.833-1.602.127-2.686 2.944-2.421 6.292.265 3.348 1.778 5.959 3.38 5.833z"/>
        <path fill="url(#paint0_linear)" d="M193.962 111.841c1.602-.127 2.686-2.944 2.421-6.292-.265-3.348-1.778-5.96-3.38-5.833-1.602.127-2.686 2.944-2.421 6.292.265 3.348 1.778 5.959 3.38 5.833z"/>
        <path fill="#425AF2" d="M159.281 118.764c-3.576.507-12.123 20.584-9.577 25.181 2.546 4.596 16.601 9.958 16.601 9.958l-.758-7.914s-9.615-4.089-8.85-6.641c.766-2.553 6.297-12.08 6.297-12.08l-3.713-8.504zM182.156 118.219c0-.5 3.326.901 3.477.984 1.91 1.054 3.721 2.279 5.41 3.658 1.516 1.212 3.099 2.393 4.546 3.734 1.311 1.242 3.084 2.772 2.766 4.786-.25 1.515-1.894 2.514-3.44 2.522-1.55-.119-3.041-.641-4.326-1.515-2.698-1.552-5.251-3.226-7.873-4.93l-.56-9.239z"/>
        <path fill="#425AF2" d="M161.486 118.181h19.639c.687-.014 1.371.11 2.009.365.638.255 1.218.636 1.706 1.12.488.484.874 1.061 1.133 1.697.26.637.39 1.318.38 2.005 0 0-3.743 15.283-3.788 20.41 0 2.81.886 11.201.886 11.201h-24.246s1.122-8.77 1.099-11.716c-.046-4.998-4.008-19.895-4.008-19.895-.009-.683.119-1.362.376-1.996.258-.633.64-1.209 1.123-1.692.484-.484 1.06-.866 1.694-1.123.634-.257 1.313-.385 1.997-.376z"/>
        <path fill="#FCA89E" d="M185.308 109.509c-.334-.468-.783-.841-1.303-1.083-.495-.146-1.021-.146-1.516 0-.671.157-1.299.459-1.839.886-.541.426-.981.967-1.29 1.582-.131.254-.201.534-.205.818.025.284.1.561.22.818.47 1.189 1.091 2.522 2.326 2.871.654.082 1.311.13 1.97.143.432.069.841.235 1.273.311 1.091.197 3.281-.545 3.364-1.916.038-.674-.826-1.575-1.189-2.098-.591-.81-1.175-1.583-1.811-2.332zM174.329 121.05c-.081.574-.379 1.096-.833 1.458-.454.361-1.028.536-1.607.488-2.409-.114-2.584-1.946-2.584-1.946v-9.558h5.024v9.558z"/>
        <path fill="url(#paint1_linear)" d="M169.275 116.217s3.144 4.9 5.023 2.545v-3.832l-5.023 1.287z"/>
        <path fill="#FCA89E" d="M167.192 113.78c1.257 3.9 7.508 4.013 9.607.916 1.122-1.883 1.475-4.126.985-6.263-.333-2.103-.977-4.145-1.909-6.059-.644-1.204-1.296-2.272-2.758-2.453-1.669-.109-3.334.265-4.796 1.075-1.386.747-2.471 1.95-3.07 3.404-.599 1.455-.677 3.073-.219 4.578.251.754.568 1.483.947 2.181.471.841.877 1.717 1.213 2.621z"/>
        <path fill="#B8C2F8" d="M187.762 137.461h-32.898v19.607h32.898v-19.607z"/>
        <path fill="#425AF2" d="M187.762 137.461h-32.898v19.607h32.898v-19.607z" opacity=".1"/>
        <path fill="#473F47" d="M169.108 167.527c-.686.541-1.453.97-2.273 1.273-1.765.757-5.251 2.12-4.728 3.635.705 2.045 3.16 1.893 4.789 1.408 2.543-.871 4.965-2.065 7.205-3.551l-4.993-2.765z"/>
        <path fill="#473F47" d="M173.329 162.196c5.97-4.355 9.092-7.574 15.797-11.648 1.599-.969 2.69-1.257 5.456-.174 2.356.924 2.106 4.975.818 6.664-3.857 5.067-18.722 12.064-21.73 13.125-1.289.454-5.873-3.401-4.016-5.241 1.164-.988 2.392-1.899 3.675-2.726z"/>
        <path fill="#473F47" d="M170.571 170.586c.926 1.192 1.984 2.277 3.152 3.234 2.023 1.568 3.425 2.083 5.069 1.318 2.379-1.106.189-3.446-1.66-5.302-1.41-1.472-2.989-2.774-4.705-3.877l-1.856 4.627z"/>
        <path fill="#FCA89E" d="M170.874 164.861l2.553 2.113c.527.426.978.939 1.334 1.515.826 1.515-2.038 4.703-3.902 2.847-1.864-1.855-3.531-3.839-3.531-3.839l3.546-2.636z"/>
        <path fill="#473F47" d="M163.282 168.185c-6.941-3.491-11.199-4.748-15.662-11.027-1.136-1.605-1.591-4.248-1.151-5.558.545-1.606 2.894-2.575 5.667-1.916 2.319.56 17.912 12.768 20.352 15.07 1.045.992-2.152 5.953-4.774 5.097-1.525-.421-3.008-.978-4.432-1.666zM177.557 102.004c-.269.648-.666 1.235-1.167 1.726-1.019.984-2.325 1.618-3.728 1.81-2.046.326-4.122 0-6.183-.204-.046.332-.185.645-.401.902-.215.257-.499.449-.819.552.312 1.439.727 2.854 1.243 4.233.508 1.348 1.235 2.606 1.781 3.923-1.698-1.173-3.031-3.173-4.244-4.793-.657-.771-1.184-1.643-1.56-2.583-.188-.471-.261-.98-.212-1.484.049-.505.217-.99.492-1.416.283-.286.514-.619.682-.985.057-.318.057-.644 0-.962-.026-.755.118-1.507.423-2.199.304-.693.76-1.308 1.335-1.8 1.162-.972 2.526-1.673 3.993-2.052 1.255-.441 2.596-.586 3.917-.424 1.909.326 4.198 2.431 4.599 4.332.086.479.034.973-.151 1.424z"/>
        <path fill="#FCA89E" d="M165.843 111.22c-.221.039-.431.121-.62.242-.188.121-.351.278-.479.462-.07.144-.111.3-.12.46-.009.16.014.321.067.472.108.304.27.586.478.833.105.15.235.281.386.386.254.142.542.215.833.212h.682c.117-.007.23-.038.334-.091.106-.08.186-.191.227-.318.156-.475.156-.987 0-1.462-.106-.447-.322-.861-.629-1.204-.295-.28-.758-.121-1.159.008z"/>
        <path fill="#425AF2" d="M191.187 130.162c.438 1.04 1.107 1.967 1.955 2.711.6.448 1.32.708 2.068.747.748.039 1.491-.144 2.134-.526.644-.383 1.16-.948 1.483-1.623.323-.676.438-1.432.331-2.172-.25-1.091-.739-2.113-1.432-2.992-2.97-4.392-6.023-8.734-9.16-13.026-.834.477-3.789 1.56-3.993 2.507-.205.947 1.576 3.787 2.015 4.756.758 1.636 1.516 3.272 2.273 4.892.758 1.621 1.841 3.12 2.326 4.726zM182.714 113.535l-.964.321c-.424.141-.654.6-.513 1.024l.32.963c.142.425.601.655 1.026.513l.963-.32c.425-.141.655-.6.513-1.025l-.32-.963c-.141-.424-.6-.654-1.025-.513z"/>
        <path stroke="#fff" stroke-linecap="round" stroke-miterlimit="10" stroke-width="2" d="M104.766 44.395l3.561 3.551M108.539 44.395l-3.562 3.551"/>
        <path fill="#fff" d="M194.551 61.805h-79.049c-1.038 0-1.879.84-1.879 1.878 0 1.037.841 1.878 1.879 1.878h79.049c1.038 0 1.879-.84 1.879-1.878 0-1.037-.841-1.878-1.879-1.878zM194.551 71.172h-79.049c-1.038 0-1.879.84-1.879 1.878 0 1.037.841 1.878 1.879 1.878h79.049c1.038 0 1.879-.84 1.879-1.878 0-1.037-.841-1.878-1.879-1.878z"/>
    </g>
    <defs>
        <linearGradient id="paint0_linear" x1="186.498" x2="228.983" y1="102.8" y2="120.9" gradientUnits="userSpaceOnUse">
            <stop offset=".01"/>
            <stop offset=".08" stop-opacity=".69"/>
            <stop offset=".21" stop-opacity=".32"/>
            <stop offset="1" stop-opacity="0"/>
        </linearGradient>
        <linearGradient id="paint1_linear" x1="1484.47" x2="1469.45" y1="840.217" y2="982.847" gradientUnits="userSpaceOnUse">
            <stop offset=".01"/>
            <stop offset=".08" stop-opacity=".69"/>
            <stop offset=".21" stop-opacity=".32"/>
            <stop offset="1" stop-opacity="0"/>
        </linearGradient>
        <clipPath id="clip0">
            <path fill="#fff" d="M0 0H257V224H0z"/>
        </clipPath>
    </defs>
</svg>
