<svg width="98" height="98" viewBox="0 0 98 98" fill="none" xmlns="http://www.w3.org/2000/svg">
<path d="M60.3624 86.164H83.2754C85.9574 86.164 88.1314 88.3796 88.1314 91.0606C88.1314 93.7426 85.9574 96.3095 83.2754 96.3095H47.4034L23.1233 77.7097H10.0278V55.7285H34.872L48.9698 72.4203L58.3364 78.4809C60.584 79.9351 61.3793 82.8473 60.1815 85.2419C58.7921 88.0216 55.3052 88.994 52.6774 87.3347L42.7041 81.0361L30.9554 70.0702" fill="#425AF2"/>
<path d="M83.2764 97.9996H47.4035C47.0319 97.9996 46.671 97.8777 46.3759 97.6513L22.5506 79.3998H10.0279C9.09425 79.3998 8.33765 78.6432 8.33765 77.7096V55.7283C8.33765 54.7937 9.09425 54.0371 10.0279 54.0371H34.8721C35.3694 54.0371 35.8415 54.2567 36.1637 54.637L50.1 71.1372L59.2557 77.0623C61.7664 78.6858 62.9042 81.6745 62.2473 84.4726H83.2755C86.8853 84.4726 89.8218 87.4284 89.8218 91.0614C89.8218 94.7574 86.7634 97.9996 83.2764 97.9996ZM47.9762 94.6181H83.2764C84.9319 94.6181 86.4403 92.923 86.4403 91.0614C86.4403 89.2928 85.0219 87.8541 83.2764 87.8541H60.3625C60.3548 87.8541 60.347 87.8541 60.3393 87.8541C59.5121 88.6649 58.4845 89.2647 57.3487 89.5821C55.463 90.1084 53.4312 89.8095 51.7738 88.7645L41.8005 82.4659C41.7105 82.4089 41.6264 82.344 41.5499 82.2715L29.8013 71.3065C29.1182 70.6689 29.0814 69.6007 29.719 68.9177C30.3576 68.2346 31.4277 68.1988 32.1078 68.8354L43.7414 79.6911L53.5792 85.9045C54.4413 86.4502 55.4572 86.5982 56.4392 86.3244C57.4212 86.0516 58.2136 85.3985 58.6693 84.4852C59.4821 82.8597 58.9441 80.8889 57.4183 79.901L48.0507 73.8395C47.9114 73.7495 47.7856 73.6392 47.6773 73.5115L34.0864 57.4196H11.7192V76.0193H23.1234C23.4949 76.0193 23.8568 76.1412 24.1519 76.3676L47.9762 94.6181Z" fill="#425AF2"/>
<path d="M43.6446 13.2514C40.1392 9.0088 42.5629 2.28836 48.0391 1.73203C48.311 1.70397 48.5867 1.69043 48.8663 1.69043C51.6818 1.69043 54.1587 3.13011 55.6081 5.31188C57.0564 3.13011 59.5343 1.69043 62.3488 1.69043C62.6284 1.69043 62.9042 1.70397 63.177 1.73203C68.6532 2.28836 71.0769 9.00783 67.5706 13.2514L55.6081 27.7314L43.6446 13.2514Z" fill="#6C80FF"/>
<path d="M55.607 29.4216C55.1029 29.4216 54.625 29.1962 54.3038 28.8072L42.3413 14.3282C40.2514 11.7991 39.7338 8.31987 40.9935 5.25087C42.2019 2.30862 44.7717 0.363896 47.8678 0.0494498C50.6949 -0.233068 53.5704 0.752841 55.608 2.69563C57.6446 0.751874 60.5492 -0.237906 63.3443 0.0494498C66.4443 0.363896 69.0131 2.30862 70.2215 5.25087C71.4812 8.31987 70.9655 11.7972 68.8747 14.3282L56.9113 28.8072C56.59 29.1962 56.1121 29.4216 55.607 29.4216ZM48.8663 3.38064C48.6447 3.38064 48.4231 3.39225 48.2074 3.41451C46.3488 3.60317 44.8588 4.74002 44.1225 6.53478C43.3378 8.44758 43.6542 10.6081 44.9488 12.1745V12.1755L55.607 25.0765L66.2672 12.1755C67.5618 10.6081 67.8782 8.44758 67.0925 6.53478C66.3562 4.74002 64.8653 3.60317 63.0047 3.41354C62.7909 3.39225 62.5713 3.38064 62.3487 3.38064C60.2008 3.38064 58.2077 4.4517 57.0157 6.24646C56.3898 7.1898 54.8243 7.1898 54.1983 6.24646C53.0063 4.45266 51.0132 3.38064 48.8663 3.38064Z" fill="#425AF2"/>
<path d="M60.3624 82.7826H83.2754C85.9574 82.7826 88.1314 84.9973 88.1314 87.6793C88.1314 90.3613 85.9574 92.9272 83.2754 92.9272H47.4034L23.1233 74.3274H10.0278V52.3462H34.872L48.9698 69.038L58.3364 75.0995C60.584 76.5537 61.3793 79.466 60.1815 81.8606C58.7921 84.6403 55.3052 85.6127 52.6774 83.9524L42.7041 77.6538L30.9554 66.6888" fill="#94A5FF"/>
<path d="M83.2764 94.6182H47.4035C47.0319 94.6182 46.671 94.4963 46.3759 94.2699L22.5506 76.0185H10.0279C9.09425 76.0185 8.33765 75.2619 8.33765 74.3273V52.346C8.33765 51.4124 9.09425 50.6558 10.0279 50.6558H34.8721C35.3694 50.6558 35.8415 50.8754 36.1637 51.2556L50.1 67.7558L59.2557 73.681C61.7664 75.3045 62.9042 78.2932 62.2473 81.0912H83.2755C86.8853 81.0912 89.8218 84.047 89.8218 87.6801C89.8218 91.376 86.7634 94.6182 83.2764 94.6182ZM47.9762 91.2367H83.2764C84.9319 91.2367 86.4403 89.5416 86.4403 87.6801C86.4403 85.9115 85.0219 84.4727 83.2764 84.4727H60.3625C60.3548 84.4727 60.347 84.4727 60.3393 84.4727C59.5121 85.2826 58.4845 85.8834 57.3487 86.1998C55.463 86.7251 53.4312 86.4291 51.7738 85.3822L41.8005 79.0846C41.7105 79.0275 41.6264 78.9627 41.5499 78.8901L29.8013 67.9251C29.1182 67.2875 29.0814 66.2184 29.719 65.5363C30.3576 64.8532 31.4277 64.8155 32.1078 65.4531L43.7414 76.3097L53.5792 82.5232C54.4413 83.0679 55.4572 83.2169 56.4392 82.9431C57.4212 82.6693 58.2136 82.0162 58.6693 81.1038C59.4821 79.4784 58.9441 77.5075 57.4183 76.5197L48.0507 70.4581C47.9114 70.3681 47.7856 70.2569 47.6773 70.1301L34.0864 54.0373H11.7192V72.637H23.1234C23.4949 72.637 23.8568 72.7599 24.1519 72.9853L47.9762 91.2367Z" fill="#425AF2"/>
<path d="M66.9273 58.5189C63.6958 61.7504 56.4935 61.6808 56.4935 61.6808C56.4935 61.6808 56.4239 54.4785 59.6554 51.247C62.886 48.0154 70.0882 48.0851 70.0882 48.0851C70.0882 48.0851 70.1579 55.2873 66.9273 58.5189Z" fill="#6C80FF"/>
<path d="M56.5438 63.3712C56.5119 63.3712 56.4896 63.3712 56.477 63.3712C55.556 63.3625 54.8119 62.6175 54.8022 61.6964C54.7993 61.3733 54.7684 53.7424 58.4595 50.0513C62.1506 46.3592 69.7863 46.4008 70.1046 46.395C71.0257 46.4037 71.7698 47.1487 71.7794 48.0688C71.7823 48.392 71.8133 56.0229 68.1222 59.715C64.5704 63.2667 57.3672 63.3712 56.5438 63.3712ZM68.3118 49.8617C65.9811 50.0745 62.5531 50.7402 60.8503 52.4421C59.1484 54.1439 58.4827 57.5738 58.2699 59.9036C60.6006 59.6908 64.0296 59.0251 65.7314 57.3232C67.4343 55.6213 68.099 52.1924 68.3118 49.8617Z" fill="#425AF2"/>
<path d="M45.2826 45.8372C42.0511 42.6057 42.1207 35.4034 42.1207 35.4034C42.1207 35.4034 49.323 35.3338 52.5545 38.5653C55.7861 41.7959 55.7164 48.9982 55.7164 48.9982C55.7164 48.9982 48.5141 49.0688 45.2826 45.8372Z" fill="#6C80FF"/>
<path d="M55.6652 50.6896C54.8428 50.6896 47.6396 50.5851 44.0868 47.0323C40.3957 43.3412 40.4267 35.7103 40.4305 35.3872C40.4392 34.4661 41.1842 33.7221 42.1044 33.7124C42.4285 33.7172 50.0574 33.6776 53.7495 37.3697C57.4416 41.0608 57.4097 48.6916 57.4067 49.0148C57.398 49.9359 56.653 50.6799 55.732 50.6896C55.7194 50.6896 55.6971 50.6896 55.6652 50.6896ZM43.8972 37.18C44.11 39.5108 44.7757 42.9387 46.4776 44.6416C48.1794 46.3435 51.6093 47.0091 53.9391 47.222C53.7263 44.8912 53.0606 41.4623 51.3587 39.7604C49.6559 38.0576 46.2279 37.3929 43.8972 37.18Z" fill="#425AF2"/>
<path d="M55.6817 74.7916C54.7481 74.7916 53.9915 74.035 53.9915 73.1013V26.9832C53.9915 26.0496 54.7481 25.292 55.6817 25.292C56.6154 25.292 57.373 26.0496 57.373 26.9832V73.1013C57.373 74.035 56.6154 74.7916 55.6817 74.7916Z" fill="#425AF2"/>
<path d="M67.5184 96.3095C66.5838 96.3095 65.8271 95.552 65.8271 94.6183V87.8543C65.8271 86.9207 66.5838 86.1641 67.5184 86.1641C68.452 86.1641 69.2087 86.9207 69.2087 87.8543V94.6183C69.2087 95.552 68.452 96.3095 67.5184 96.3095Z" fill="white"/>
<path d="M70.8998 92.9269H64.1358C63.2022 92.9269 62.4456 92.1703 62.4456 91.2367C62.4456 90.303 63.2022 89.5454 64.1358 89.5454H70.8998C71.8335 89.5454 72.5901 90.303 72.5901 91.2367C72.5901 92.1703 71.8335 92.9269 70.8998 92.9269Z" fill="white"/>
<path d="M47.2274 10.9193C46.2937 10.9193 45.5361 10.1627 45.5361 9.22908C45.5361 6.8983 47.4325 5.00195 49.7633 5.00195C50.6979 5.00195 51.4545 5.75856 51.4545 6.69222C51.4545 7.62589 50.6979 8.38346 49.7633 8.38346C49.2969 8.38346 48.9186 8.76176 48.9186 9.22908C48.9186 10.1627 48.161 10.9193 47.2274 10.9193Z" fill="white"/>
</svg>
