<svg width="16668" height="3293" viewBox="0 0 16668 3293" fill="none" xmlns="http://www.w3.org/2000/svg">
<path d="M4844.37 1680.31H4336.24V2206.85H4129.06V971.995H4932.53V1137.75H4336.24V1515.11H4841.57L4844.37 1680.31Z" fill="#425AF2"/>
<path d="M5296.39 1064.19H5086.96V884.077H5296.39V1064.19ZM5296.39 2206.78H5086.96V1289.06H5296.39V2206.78Z" fill="#425AF2"/>
<path d="M5487.3 1758.11C5481.21 1633.29 5514.77 1509.7 5583.31 1404.5C5612.97 1361.71 5653.24 1327.08 5700.3 1303.87C5747.37 1280.67 5799.67 1269.67 5852.26 1271.9C5903.57 1271.01 5954.25 1283.19 5999.36 1307.26C6042.75 1332.12 6079.51 1366.78 6106.6 1408.37L6127.38 1289.03H6301.44V2206.74C6304.4 2257.66 6295.87 2308.59 6276.46 2355.88C6257.04 2403.17 6227.22 2445.64 6189.14 2480.23C6099.77 2549.83 5987.32 2584.29 5873.59 2576.92C5824.15 2576.52 5774.94 2570.21 5727.05 2558.14C5677.7 2546.6 5629.85 2529.54 5584.43 2507.31L5617.56 2345.42C5655.62 2363.84 5695.77 2377.75 5737.15 2386.86C5781.35 2396.85 5826.56 2401.85 5871.91 2401.78C5932.23 2407.43 5992.47 2390.24 6040.35 2353.71C6059.18 2334.26 6073.61 2311.11 6082.7 2285.78C6091.8 2260.45 6095.35 2233.52 6093.13 2206.74V2112.27C6065.66 2147.73 6030.07 2176.31 5989.26 2195.69C5946.27 2215.59 5899.19 2225.43 5851.7 2224.42C5800.41 2226.79 5749.31 2216.8 5702.84 2195.33C5656.36 2173.86 5615.91 2141.55 5585 2101.22C5517.21 2007.26 5483.4 1893.65 5488.98 1778.55L5487.3 1758.11ZM5696.17 1776.34C5692.41 1847.1 5709.78 1917.4 5746.14 1978.56C5763.17 2003.75 5786.71 2024.04 5814.33 2037.34C5841.96 2050.64 5872.68 2056.48 5903.35 2054.25C5942.64 2055.26 5981.46 2045.71 6015.65 2026.63C6047.32 2007.39 6073.12 1980.09 6090.32 1947.62V1547.6C6071.92 1515.95 6046.13 1489.06 6015.08 1469.15C5981.14 1449.44 5942.18 1439.66 5902.79 1440.97C5870.56 1439.23 5838.51 1446.64 5810.44 1462.31C5782.37 1477.98 5759.47 1501.26 5744.45 1529.37C5707.89 1600.86 5690.49 1680.36 5693.92 1760.32L5696.17 1776.34Z" fill="#425AF2"/>
<path d="M6723.66 1407.85C6752.61 1366.32 6791.08 1332.07 6835.95 1307.85C6881.29 1283.77 6932.1 1271.41 6983.62 1271.94C7026.7 1269.65 7069.76 1276.73 7109.74 1292.68C7149.72 1308.63 7185.64 1333.05 7214.95 1364.2C7270.72 1425.72 7298.42 1520.2 7298.04 1647.64V2206.78H7087.49V1647.64C7092.41 1592.2 7077.3 1536.84 7044.82 1491.28C7028.73 1474.33 7008.96 1461.17 6987 1452.75C6965.03 1444.33 6941.43 1440.89 6917.93 1442.66C6877.9 1441.66 6838.16 1449.59 6801.7 1465.87C6769.85 1480.45 6742.24 1502.68 6721.41 1530.51V2206.78H6511.98V884.077H6721.41L6723.66 1407.85Z" fill="#425AF2"/>
<path d="M7766.92 1066.24V1287.25H7935.36V1439.74H7766.92V1946.94C7765.4 1961.41 7766.8 1976.03 7771.04 1989.97C7775.28 2003.91 7782.27 2016.89 7791.62 2028.16C7800.5 2036.26 7810.94 2042.53 7822.31 2046.61C7833.69 2050.69 7845.78 2052.49 7857.87 2051.91C7869.07 2053.05 7880.36 2053.05 7891.56 2051.91C7902.09 2050.07 7912.42 2047.3 7922.44 2043.63L7944.9 2195.01C7924.88 2205.21 7903.53 2212.64 7881.46 2217.11C7856.59 2222.72 7831.16 2225.5 7805.66 2225.4C7772.37 2227.25 7739.05 2222.26 7707.83 2210.75C7676.61 2199.24 7648.16 2181.46 7624.3 2158.55C7575.14 2100.23 7551.34 2025.18 7558.05 1949.7V1441.39H7415.99V1288.9H7558.05V1067.9L7766.92 1066.24Z" fill="#425AF2"/>
<path d="M8372.72 1738.39V2206.92H8163.29V972.067H8643.92C8762.14 965.3 8878.56 1003.03 8969.57 1077.6C9006.77 1114.09 9036.28 1157.45 9056.42 1205.18C9076.55 1252.92 9086.92 1304.1 9086.92 1355.78C9086.92 1407.47 9076.55 1458.65 9056.42 1506.38C9036.28 1554.12 9006.77 1597.48 8969.57 1633.97C8878.29 1707.95 8761.97 1745.25 8643.92 1738.39H8372.72ZM8372.72 1572.64H8643.92C8675.8 1574.94 8707.82 1570.73 8737.96 1560.27C8768.11 1549.81 8795.73 1533.33 8819.1 1511.87C8857.45 1469.17 8877.57 1413.55 8875.24 1356.61C8877.3 1326.3 8872.59 1295.91 8861.45 1267.58C8850.31 1239.24 8833.01 1213.65 8810.75 1192.59C8788.5 1171.53 8761.83 1155.52 8732.62 1145.68C8703.41 1135.84 8672.37 1132.4 8641.67 1135.61H8370.48L8372.72 1572.64Z" fill="#425AF2"/>
<path d="M9742.08 2206.9C9734.97 2183.69 9728.79 2161.04 9723.55 2138.94C9718.54 2117.11 9715.16 2094.95 9713.45 2072.64C9684.87 2117.26 9646.5 2155.02 9601.15 2183.14C9554.02 2212.08 9499.49 2227.22 9443.94 2226.79C9362.09 2232.16 9281.39 2205.55 9219.35 2152.75C9192.8 2126.21 9172.15 2094.53 9158.72 2059.72C9145.28 2024.9 9139.35 1987.72 9141.3 1950.53C9139.81 1909.8 9148.87 1869.36 9167.63 1833.02C9186.39 1796.68 9214.23 1765.63 9248.55 1742.79C9338.61 1688.43 9443.46 1662.59 9548.93 1668.75H9711.76V1585.88C9712.71 1565.57 9709.41 1545.28 9702.07 1526.27C9694.73 1507.27 9683.5 1489.94 9669.09 1475.38C9652.29 1460.83 9632.72 1449.72 9611.51 1442.7C9590.3 1435.68 9567.88 1432.89 9545.56 1434.49C9505.32 1432.77 9465.69 1444.67 9433.27 1468.19C9419.7 1478.31 9408.76 1491.45 9401.35 1506.52C9393.93 1521.6 9390.25 1538.19 9390.6 1554.94H9189.03V1549.97C9188.03 1512.35 9196.47 1475.08 9213.61 1441.44C9230.75 1407.81 9256.05 1378.85 9287.29 1357.14C9364.73 1298.75 9460.41 1268.67 9557.92 1272.06C9652.61 1267.66 9745.78 1296.65 9820.69 1353.83C9854.54 1382.55 9881.18 1418.6 9898.52 1459.15C9915.85 1499.69 9923.42 1543.63 9920.63 1587.54V1995.29C9920.56 2032.26 9923.19 2069.19 9928.49 2105.79C9933.59 2140.57 9942.05 2174.8 9953.76 2208L9742.08 2206.9ZM9486.05 2059.38C9536.23 2059.89 9585.52 2046.28 9628.1 2020.15C9664.88 1999.99 9694.18 1968.84 9711.76 1931.2V1795.28H9543.32C9491.63 1792.37 9440.65 1808.3 9400.14 1840.03C9384.23 1852.6 9371.34 1868.49 9362.41 1886.54C9353.48 1904.6 9348.72 1924.38 9348.49 1944.46C9347.74 1960.02 9350.47 1975.56 9356.49 1989.97C9362.5 2004.38 9371.65 2017.32 9383.3 2027.88C9412.14 2051.03 9448.95 2062.31 9486.05 2059.38Z" fill="#425AF2"/>
<path d="M10326.1 1288.93L10338.4 1421.53C10366.2 1376.26 10404.7 1338.32 10450.7 1311.03C10498.4 1284.23 10552.5 1270.49 10607.4 1271.25C10649.1 1269.26 10690.7 1276.13 10729.5 1291.39C10768.2 1306.64 10803.2 1329.92 10832 1359.65C10888.1 1418.22 10913.4 1510.48 10913.4 1635.9V2206.64H10704V1637.56C10709.4 1583.54 10694.4 1529.46 10661.9 1485.62C10644.9 1469.9 10624.8 1457.8 10602.9 1450.1C10581 1442.39 10557.6 1439.25 10534.4 1440.87C10494.2 1439.83 10454.3 1448.36 10418.2 1465.73C10387.7 1482.91 10362.2 1507.44 10344.1 1537.01V2206.64H10134.6V1288.93H10326.1Z" fill="#425AF2"/>
<path d="M11094.2 1758.14C11088.3 1633.42 11121.6 1509.96 11189.6 1404.54C11219.1 1361.38 11259.2 1326.33 11306.3 1302.74C11353.4 1279.15 11405.8 1267.78 11458.6 1269.73C11505.7 1269.17 11552.2 1279.59 11594.4 1300.11C11635.2 1320.87 11670.6 1350.32 11698.3 1386.3V884.077H11907.7V2206.78H11739.3L11712.9 2089.65C11685.2 2131.02 11647.8 2165.29 11604 2189.65C11558.7 2213.11 11508.1 2224.89 11456.9 2223.9C11405.5 2226.26 11354.3 2216.28 11307.8 2194.81C11261.2 2173.34 11220.6 2141.04 11189.6 2100.7C11122.3 2006.56 11088.7 1893.03 11094.2 1778.03V1758.14ZM11303.6 1776.37C11300.3 1847.41 11318.1 1917.84 11354.7 1979.14C11371.7 2004.34 11395.3 2024.63 11422.9 2037.93C11450.5 2051.23 11481.2 2057.06 11511.9 2054.84C11551.3 2056.15 11590.2 2046.37 11624.2 2026.66C11656.1 2007.11 11682.2 1979.68 11700 1947.1V1548.74C11681.9 1516.41 11655.8 1489.05 11624.2 1469.18C11590.2 1449.5 11551.3 1439.72 11511.9 1441C11479.8 1439.37 11447.8 1446.83 11419.9 1462.5C11391.9 1478.16 11369.1 1501.38 11354.1 1529.4C11317.6 1600.89 11300.2 1680.39 11303.6 1760.35V1776.37Z" fill="#425AF2"/>
<path d="M12520.9 2224.54C12461.5 2227.67 12402.1 2217.91 12347 2195.95C12291.9 2173.98 12242.4 2140.36 12202 2097.46C12121.9 2006.71 12079.9 1889.37 12084.6 1769.27V1735.02C12080.1 1614.33 12121.1 1496.26 12199.7 1403.51C12235.8 1361.06 12281.3 1327.25 12332.6 1304.66C12384 1282.07 12439.9 1271.28 12496.2 1273.12C12549.3 1269.55 12602.6 1278 12652 1297.82C12701.3 1317.64 12745.4 1348.32 12780.8 1387.49C12848.9 1474.61 12883.1 1582.75 12877.4 1692.47V1802.97H12303V1806.84C12302.2 1872.79 12323.3 1937.18 12363.1 1990.27C12384.1 2014.12 12410.5 2032.82 12440.1 2044.9C12469.7 2056.99 12501.8 2062.12 12533.8 2059.89C12583.8 2060.96 12633.7 2054.06 12681.5 2039.45C12722.8 2025.53 12761.7 2005.2 12796.6 1979.22L12864.5 2114.04C12822.8 2148.25 12775 2174.49 12723.6 2191.39C12658.5 2213.96 12589.9 2225.18 12520.9 2224.54ZM12498.4 1437.77C12473.8 1436.54 12449.2 1440.89 12426.5 1450.46C12403.8 1460.04 12383.7 1474.6 12367.6 1493.02C12333.1 1537.84 12312.8 1591.64 12309.2 1647.72V1651.59H12673.6V1635.57C12675.9 1584.87 12661.3 1534.82 12632 1493.02C12616 1473.79 12595.5 1458.7 12572.2 1449.07C12548.9 1439.44 12523.6 1435.56 12498.4 1437.77Z" fill="#425AF2"/>
<path d="M13244.1 1289.02L13255.3 1408.36C13284.2 1366.63 13322.7 1332.19 13367.6 1307.81C13417 1283.13 13471.8 1270.79 13527.1 1271.9C13582.4 1270.44 13637 1284.63 13684.3 1312.78C13729.5 1342.1 13763.9 1384.9 13782.6 1434.88C13808.9 1386.2 13847.6 1345.08 13894.9 1315.54C13944.8 1285.87 14002.2 1270.74 14060.5 1271.9C14103.3 1269.99 14146 1277.99 14185.1 1295.26C14224.2 1312.54 14258.6 1338.6 14285.7 1371.35C14346.4 1456.13 14375.2 1559.1 14367.1 1662.52V2209.5H14157.6V1658.65C14163.4 1599.38 14148.9 1539.92 14116.6 1489.58C14101.4 1472.76 14082.5 1459.62 14061.2 1451.18C14040 1442.75 14017.1 1439.25 13994.2 1440.96C13953.8 1439.98 13914.3 1452.44 13881.9 1476.32C13850.3 1501.1 13826.9 1534.56 13814.6 1572.46C13814.6 1580.75 13814.6 1587.93 13814.6 1594.56C13814.6 1601.19 13814.6 1606.71 13814.6 1612.24V2206.74H13605.1V1658.65C13610.2 1600.4 13595.6 1542.13 13563.6 1492.9C13548.5 1475.66 13529.5 1462.1 13508.2 1453.29C13486.8 1444.47 13463.7 1440.63 13440.6 1442.07C13403.2 1440.73 13366 1449.12 13332.8 1466.38C13303.9 1481.9 13280 1505.06 13263.8 1533.23V2206.74H13054.3V1289.02H13244.1Z" fill="#425AF2"/>
<path d="M14798.2 1064.19H14588.8V884.077H14798.2V1064.19ZM14798.2 2206.78H14588.8V1289.06H14798.2V2206.78Z" fill="#425AF2"/>
<path d="M15403.5 2059.66C15448 2060.6 15491.2 2044.79 15524.2 2015.46C15540.1 2001.69 15552.8 1984.67 15561.3 1965.58C15569.9 1946.49 15574.1 1925.8 15573.6 1904.95H15763.4V1909.93C15764.4 1952.12 15755.6 1993.99 15737.6 2032.3C15719.5 2070.61 15692.9 2104.35 15659.5 2130.93C15588.8 2193.09 15496.6 2226.47 15401.8 2224.3C15343.2 2227.68 15284.6 2217.6 15230.6 2194.88C15176.6 2172.16 15128.8 2137.4 15090.8 2093.36C15015.3 1999.22 14976.5 1881.66 14981.3 1761.85V1732.02C14976.5 1612.22 15015.3 1494.68 15090.8 1400.52C15128.6 1356.49 15176.2 1321.7 15230 1298.88C15283.8 1276.07 15342.2 1265.84 15400.7 1269.02C15449.7 1267.66 15498.6 1276.01 15544.3 1293.57C15590 1311.13 15631.7 1337.54 15666.8 1371.23C15700.2 1402.49 15726.3 1440.52 15743.3 1482.69C15760.2 1524.86 15767.7 1570.16 15765.1 1615.44V1620.97H15575.3C15576.7 1573.9 15559.8 1528.08 15528.1 1492.78C15513 1474.98 15494 1460.76 15472.5 1451.19C15451 1441.63 15427.6 1436.96 15404.1 1437.53C15371.7 1434.94 15339.3 1441.59 15310.7 1456.68C15282.2 1471.78 15258.6 1494.67 15242.9 1522.62C15208.4 1587.46 15191.6 1659.98 15194.1 1733.12V1762.96C15191.4 1836.59 15208 1909.66 15242.4 1975.12C15258.5 2002.65 15282.1 2025.17 15310.6 2040.11C15339.1 2055.06 15371.3 2061.83 15403.5 2059.66Z" fill="#425AF2"/>
<path d="M16457.3 1955.19C16457.5 1939.83 16453.8 1924.67 16446.7 1911C16439.5 1897.34 16429.1 1885.58 16416.3 1876.74C16369 1848.66 16316.6 1829.9 16261.9 1821.49C16171.9 1807.26 16086 1773.89 16010.4 1723.69C15982.5 1704.18 15960 1678.18 15944.8 1648C15929.6 1617.82 15922.2 1584.41 15923.4 1550.76C15923.5 1512.72 15932.4 1475.2 15949.5 1441.1C15966.7 1407 15991.5 1377.23 16022.2 1354.07C16096.4 1296.68 16189 1267.46 16283.3 1271.74C16380.5 1267.06 16476.2 1297.08 16552.8 1356.28C16584.4 1380.01 16609.8 1410.86 16626.8 1446.24C16643.8 1481.62 16651.9 1520.49 16650.5 1559.6V1564.57H16449.5C16449.6 1546.19 16445.7 1527.99 16438 1511.22C16430.3 1494.45 16419.1 1479.48 16405.1 1467.33C16371.8 1439.08 16328.9 1424.45 16285 1426.44C16244.6 1424.06 16204.8 1436.02 16172.7 1460.15C16160.1 1470.23 16150 1482.96 16143.1 1497.4C16136.2 1511.84 16132.7 1527.62 16132.8 1543.58C16132.4 1558.03 16135.6 1572.36 16142 1585.35C16148.5 1598.34 16158 1609.6 16169.9 1618.16C16217.1 1644.23 16268.9 1661.11 16322.6 1667.89C16415.1 1681.89 16503.3 1715.85 16580.9 1767.34C16608.7 1787.67 16631.1 1814.3 16646.3 1844.99C16661.4 1875.67 16668.8 1909.49 16667.9 1943.59C16667.7 1983.24 16657.8 2022.26 16638.9 2057.3C16620 2092.33 16592.8 2122.32 16559.5 2144.7C16479.7 2199.99 16383.5 2227.59 16286.1 2223.16C16182.2 2228.98 16079.8 2196.26 15999.2 2131.44C15967.3 2106.77 15941.7 2075.17 15924.4 2039.13C15907.1 2003.08 15898.4 1963.57 15899.2 1923.7V1918.73H16094.1C16093.1 1941.11 16097.7 1963.39 16107.5 1983.62C16117.2 2003.85 16131.9 2021.4 16150.2 2034.75C16190.4 2060 16237.3 2072.71 16285 2071.22C16328.6 2073.9 16372 2063.08 16409 2040.28C16424 2031.53 16436.3 2019.06 16444.8 2004.12C16453.3 1989.18 16457.6 1972.3 16457.3 1955.19Z" fill="#425AF2"/>
<path d="M1646.8 3293C2556.31 3293 3293.61 2555.84 3293.61 1646.5C3293.61 737.163 2556.31 0 1646.8 0C737.299 0 0 737.163 0 1646.5C0 2555.84 737.299 3293 1646.8 3293Z" fill="#425AF2"/>
<path d="M2936.04 1645.03C2966.66 1590.29 2990.23 1532.01 3006.22 1471.54C3035.09 1362.83 3038.55 1249.09 3016.34 1138.88C2994.13 1028.66 2946.83 924.829 2877.99 835.182C2809.15 745.536 2720.56 672.404 2618.88 621.282C2517.2 570.159 2405.07 542.374 2290.91 540.014C2223.2 431.813 2128.47 342.473 2015.74 280.504C1903 218.534 1776.03 186 1646.9 186C1517.77 186 1390.79 218.534 1278.05 280.504C1165.32 342.473 1070.59 431.813 1002.88 540.014C872.621 542.707 745.277 578.493 633.215 643.9C521.152 709.307 428.177 802.113 363.315 913.308C298.453 1024.5 263.907 1150.31 263.031 1278.52C262.154 1406.73 294.977 1532.98 358.312 1645.03C295.017 1756.99 262.191 1883.14 263.015 2011.26C263.84 2139.38 298.287 2265.12 363.019 2376.28C427.75 2487.45 520.57 2580.27 632.48 2645.75C744.389 2711.24 871.594 2747.16 1001.76 2750.04C1069.18 2859.11 1163.99 2949.27 1277.08 3011.84C1390.17 3074.4 1517.72 3107.27 1647.46 3107.27C1777.19 3107.27 1904.74 3074.4 2017.83 3011.84C2130.92 2949.27 2225.74 2859.11 2293.15 2750.04C2423.08 2746.6 2549.92 2710.32 2661.48 2644.69C2773.03 2579.06 2865.55 2486.28 2930.12 2375.29C2994.7 2264.29 3029.16 2138.81 3030.2 2010.92C3031.24 1883.02 2998.81 1757.02 2936.04 1645.03ZM2876.52 935.608C2923.08 1013.19 2953.51 1099.1 2966.04 1188.35C2978.57 1277.61 2972.95 1368.42 2949.52 1455.52C2937.52 1500.32 2920.96 1543.82 2900.1 1585.36C2836.91 1494.7 2753.83 1419.17 2656.99 1364.35C2557.27 1306.85 2445.48 1272.64 2330.21 1264.35L2326.28 1258.27C2377.79 1156 2404.59 1043.4 2404.59 929.254C2404.59 815.11 2377.79 702.509 2326.28 600.237C2438.72 608.167 2547.54 642.825 2643.37 701.239C2739.21 759.652 2819.22 840.076 2876.52 935.608ZM2258.9 2691.47C2142.4 2688.63 2028.48 2657.1 1927.56 2599.77C1826.63 2542.44 1741.91 2461.13 1681.15 2363.28C1688.44 2350.58 1695.18 2337.87 1701.92 2324.61C1817.36 2316.32 1929.34 2282.11 2029.26 2224.6C2117.28 2173.57 2193.71 2105.31 2253.85 2024.04C2310.97 2125.49 2340.94 2239.57 2340.94 2355.55C2340.94 2471.53 2310.97 2585.6 2253.85 2687.05L2258.9 2691.47ZM952.352 2359.97C952.209 2243.98 982.164 2129.87 1039.38 2028.47C1104.2 2114.29 1187.05 2185.37 1282.29 2236.86C1377.53 2288.34 1482.93 2319.02 1591.31 2326.82C1597.49 2340.08 1604.78 2353.34 1611.52 2366.05C1550.83 2463.21 1466.35 2543.86 1365.82 2600.61C1265.28 2657.36 1151.89 2688.41 1036.01 2690.92C979.14 2589.43 949.57 2475.31 950.106 2359.42L952.352 2359.97ZM1037.13 595.264C1136.45 597.497 1234.13 620.704 1323.54 663.313C1412.95 705.923 1492.01 766.941 1555.38 842.235C1442.77 855.907 1334.72 894.28 1239.19 954.524C1143.67 1014.77 1063.1 1095.35 1003.45 1190.31C968.175 1106.79 950.047 1017.22 950.106 926.768C949.863 810.766 979.825 696.637 1037.13 595.264ZM1294.85 989.201C1387.11 935.802 1490.71 904.216 1597.49 896.933C1602.54 904.668 1607.59 912.403 1612.08 920.138C1519.8 1085.74 1494.53 1279.54 1541.34 1462.7C1404.49 1335.25 1224.39 1262.39 1036.01 1258.27V1254.4C1096.63 1145.39 1186.06 1054.52 1294.85 991.411V989.201ZM2344.25 926.768C2343.67 1017.43 2324.58 1107.06 2288.1 1190.31C2187.45 1026.92 2026.51 908.136 1838.92 858.81C1805.68 850.42 1771.92 844.145 1737.85 840.025C1789.99 779.873 1852.3 729.032 1922.02 689.743C2024.17 630.237 2140.21 597.694 2258.9 595.264C2315.53 696.828 2344.9 810.924 2344.25 926.768ZM1631.17 2269.36C1593.26 2179.72 1575.1 2083.19 1577.91 1986.14C1580.72 1889.08 1604.42 1793.72 1647.46 1706.35C1690.31 1793.8 1713.82 1889.2 1716.44 1986.25C1719.05 2083.31 1700.71 2179.8 1662.62 2269.36H1631.17ZM1647.46 1580.93C1601.73 1487.91 1577.97 1385.92 1577.97 1282.58C1577.97 1179.25 1601.73 1077.25 1647.46 984.229C1693.07 1077.28 1716.76 1179.27 1716.76 1282.58C1716.76 1385.9 1693.07 1487.88 1647.46 1580.93ZM1437.47 1645.03C1277.25 1691.62 1137.01 1788.67 1038.26 1921.28C950.063 1766.88 926.498 1584.74 972.565 1413.53C981.019 1383.22 991.523 1353.5 1004.01 1324.57C1103.4 1480.32 1257.77 1594.45 1437.47 1645.03ZM1075.88 1322.36C1178.33 1330.35 1277.71 1360.6 1366.84 1410.96C1455.97 1461.31 1532.64 1530.5 1591.31 1613.53C1488.82 1605.19 1389.47 1574.67 1300.36 1524.14C1211.26 1473.61 1134.6 1404.33 1075.88 1321.26V1322.36ZM1590.75 1677.07C1496.57 1810.39 1357.25 1906.36 1197.72 1947.8C1158.29 1957.69 1118.1 1964.34 1077.56 1967.69C1136.02 1884.91 1212.33 1815.84 1301.03 1765.41C1389.74 1714.98 1488.67 1684.44 1590.75 1675.97V1677.07ZM1211.19 2004.15C1334.85 1972.73 1448.3 1910.73 1540.78 1824.04C1503.4 1970.44 1512.02 2124.56 1565.48 2266.04C1388.07 2245.48 1225.47 2158.65 1111.25 2023.49C1145.03 2019.09 1178.43 2012.26 1211.19 2003.05V2004.15ZM1753.58 1821.28C1871.81 1931.61 2023.01 2001.55 2184.79 2020.73C2070.6 2157.06 1907.21 2244.58 1728.87 2264.94C1782.51 2122.91 1791.12 1968.22 1753.58 1821.28ZM1704.73 1675.97C1806.54 1684.19 1905.27 1714.4 1993.87 1764.44C2082.47 1814.48 2158.78 1883.12 2217.35 1965.48C2115.49 1957.15 2016.72 1926.9 1928.05 1876.87C1839.37 1826.84 1762.94 1758.26 1704.17 1675.97H1704.73ZM1856.89 1645.03C2037.19 1593.76 2191.69 1478.36 2290.34 1321.26C2330.74 1416.94 2348.59 1520.38 2342.56 1623.82C2336.53 1727.26 2306.78 1828.01 2255.53 1918.52C2156.58 1786.95 2016.56 1690.89 1856.89 1645.03ZM1703.04 1613.53C1761.88 1530.88 1838.54 1462.02 1927.54 1411.88C2016.54 1361.74 2115.69 1331.55 2217.91 1323.47C2158.93 1405.89 2082.22 1474.51 1993.23 1524.46C1904.24 1574.4 1805.16 1604.43 1703.04 1612.43V1613.53ZM1823.76 921.243C1912.37 943.877 1995.56 983.555 2068.51 1037.99C2141.46 1092.42 2202.73 1160.53 2248.8 1238.38C2252.73 1244.46 2256.09 1251.09 2259.46 1257.17V1262.14C2071.02 1266.46 1890.93 1339.51 1754.14 1467.12C1801.19 1283.49 1775.49 1089.13 1682.27 923.453C1687.32 915.718 1691.81 907.983 1697.43 900.248C1740.05 903.227 1782.32 909.882 1823.76 920.138V921.243ZM993.901 1959.4C995.76 1962.66 997.823 1965.79 1000.08 1968.79C884.797 1965.55 772.123 1934.29 672.1 1877.8C572.076 1821.3 487.81 1741.34 426.812 1645.03C481.931 1557.06 556.59 1482.52 645.181 1427.02C733.773 1371.52 833.993 1336.49 938.315 1324.57C899.243 1427.84 883.961 1538.35 893.574 1648.14C903.187 1757.92 937.454 1864.23 993.901 1959.4ZM2356.04 1324.57C2460.34 1336.3 2560.56 1371.25 2649.09 1426.77C2737.62 1482.29 2812.14 1556.93 2866.98 1645.03C2806.32 1741.28 2722.37 1821.23 2622.62 1877.73C2522.87 1934.23 2410.44 1965.52 2295.4 1968.79C2353.97 1872.77 2389.84 1765 2400.33 1653.48C2410.83 1541.97 2395.69 1429.55 2356.04 1324.57ZM1646.9 242.766C1759.85 242.92 1871.07 270.05 1971.02 321.825C2070.97 373.6 2156.66 448.473 2220.72 540.014C2111.72 547.617 2005.69 578.372 1909.92 630.163C1814.16 681.954 1730.94 753.551 1665.99 840.025H1627.24C1566.64 759.625 1490.27 691.993 1402.65 641.123C1302.22 582.774 1189.4 548.163 1073.07 540.014C1137.06 448.405 1222.73 373.481 1322.7 321.698C1422.66 269.915 1533.93 242.826 1646.9 242.766ZM417.829 936.713C474.889 840.905 554.708 760.141 650.445 701.346C746.181 642.55 854.979 607.477 967.512 599.132C916.277 701.681 889.634 814.43 889.634 928.702C889.634 1042.97 916.277 1155.72 967.512 1258.27L964.704 1263.8C850.953 1271.65 740.499 1304.82 641.679 1360.81C542.859 1416.8 458.253 1494.15 394.247 1587.01C343.086 1485.19 318.455 1372.45 322.572 1258.93C326.688 1145.42 359.422 1034.69 417.829 936.713ZM417.829 2350.58C359.422 2252.6 326.688 2141.87 322.572 2028.36C318.455 1914.84 343.086 1802.1 394.247 1700.28C458.767 1794.26 544.261 1872.48 644.2 1928.98C744.138 1985.47 855.877 2018.75 970.88 2026.26C918.088 2129.04 890.585 2242.59 890.59 2357.76C890.163 2472.24 916.481 2585.28 967.512 2688.16C854.954 2679.9 746.119 2644.87 650.368 2586.06C554.616 2527.26 474.815 2446.45 417.829 2350.58ZM1646.9 3045.63C1534 3045.75 1422.76 3018.92 1322.71 2967.43C1222.67 2915.95 1136.81 2841.35 1072.51 2750.04C1187.61 2741.57 1299.21 2707.3 1398.77 2649.84C1498.33 2592.38 1583.21 2513.26 1646.9 2418.53C1709.84 2511.79 1793.81 2589.5 1892.26 2645.61C1991.96 2705.19 2104.45 2740.95 2220.72 2750.04C2156.54 2841.34 2070.79 2915.94 1970.83 2967.43C1870.88 3018.92 1759.72 3045.75 1646.9 3045.63ZM2876.52 2351.68C2830.53 2429.59 2769.28 2497.75 2696.32 2552.19C2623.36 2606.63 2540.14 2646.27 2451.49 2668.82C2410.35 2679.7 2368.22 2686.54 2325.72 2689.26C2377.96 2586.32 2405.15 2472.83 2405.15 2357.76C2405.15 2242.69 2377.96 2129.2 2325.72 2026.26C2440.18 2018.14 2551.29 1984.59 2650.68 1928.12C2750.07 1871.66 2835.16 1793.76 2899.54 1700.28C2920.4 1741.81 2936.95 1785.31 2948.95 1830.12C2972.7 1917.43 2978.53 2008.52 2966.1 2098.07C2953.66 2187.63 2923.21 2273.84 2876.52 2351.68Z" fill="white"/>
</svg>
