<svg id="Layer_1" data-name="Layer 1" xmlns="http://www.w3.org/2000/svg" viewBox="0 0 296.78 58.67"><defs><style>.cls-1{fill:#5b6db3;}.cls-2{fill:#fff;}</style></defs><path class="cls-1" d="M100.05,69.59H91v9.53H87.31V56.77h14.31v3H91v6.83h9Z" transform="translate(-13.77 -39.65)"/><path class="cls-1" d="M108.1,58.44h-3.73V55.18h3.73Zm0,20.68h-3.73V62.51h3.73Z" transform="translate(-13.77 -39.65)"/><path class="cls-1" d="M111.5,71a10.89,10.89,0,0,1,1.71-6.4A5.51,5.51,0,0,1,118,62.2a5.3,5.3,0,0,1,2.62.64,5.64,5.64,0,0,1,1.91,1.83l.37-2.16H126V79.12a6.25,6.25,0,0,1-2,4.95,8.19,8.19,0,0,1-5.62,1.75,10.88,10.88,0,0,1-2.61-.34,11.85,11.85,0,0,1-2.54-.92l.59-2.93a9.55,9.55,0,0,0,2.13.75,10.64,10.64,0,0,0,2.4.27,4.24,4.24,0,0,0,3-.87,3.45,3.45,0,0,0,.94-2.66V77.41a5.13,5.13,0,0,1-1.85,1.51,5.48,5.48,0,0,1-2.45.52,5.62,5.62,0,0,1-4.75-2.23,9.32,9.32,0,0,1-1.71-5.84Zm3.72.33a6.57,6.57,0,0,0,.89,3.66,3.09,3.09,0,0,0,2.8,1.37,3.85,3.85,0,0,0,2-.5,3.68,3.68,0,0,0,1.33-1.43V67.19a4.16,4.16,0,0,0-1.34-1.42,3.69,3.69,0,0,0-2-.51,3,3,0,0,0-2.82,1.6,8.5,8.5,0,0,0-.9,4.18Z" transform="translate(-13.77 -39.65)"/><path class="cls-1" d="M133.52,64.66a5.82,5.82,0,0,1,2-1.81,5.42,5.42,0,0,1,2.63-.65,5.23,5.23,0,0,1,4.12,1.67q1.49,1.67,1.48,5.13V79.12H140V69a4.28,4.28,0,0,0-.76-2.83,2.8,2.8,0,0,0-2.26-.88,4.72,4.72,0,0,0-2.07.42,3.73,3.73,0,0,0-1.43,1.17V79.12h-3.73V55.18h3.73Z" transform="translate(-13.77 -39.65)"/><path class="cls-1" d="M152.1,58.48v4h3v2.76h-3v9.18a2,2,0,0,0,.44,1.47,1.62,1.62,0,0,0,1.18.43,2.92,2.92,0,0,0,.6,0,3.17,3.17,0,0,0,.55-.15l.4,2.74a4.38,4.38,0,0,1-1.13.4,5.94,5.94,0,0,1-1.35.15,4.28,4.28,0,0,1-3.23-1.21,5.21,5.21,0,0,1-1.18-3.78V65.27h-2.53V62.51h2.53v-4Z" transform="translate(-13.77 -39.65)"/><path class="cls-1" d="M162.89,70.64v8.48h-3.73V56.77h8.56a8.31,8.31,0,0,1,5.8,1.91,7.11,7.11,0,0,1,0,10.07,8.35,8.35,0,0,1-5.8,1.89Zm0-3h4.83a4.13,4.13,0,0,0,3.12-1.1,4,4,0,0,0,1-2.81,3.77,3.77,0,0,0-4.16-4h-4.83Z" transform="translate(-13.77 -39.65)"/><path class="cls-1" d="M187.28,79.12q-.19-.63-.33-1.23a8.28,8.28,0,0,1-.18-1.2,6.39,6.39,0,0,1-2,2,5.21,5.21,0,0,1-2.8.79,5.55,5.55,0,0,1-4-1.34,4.86,4.86,0,0,1-1.39-3.66,4.35,4.35,0,0,1,1.91-3.76,9.19,9.19,0,0,1,5.35-1.34h2.9V67.88a2.69,2.69,0,0,0-.76-2,3,3,0,0,0-2.2-.74,3.14,3.14,0,0,0-2,.61,1.92,1.92,0,0,0-.76,1.57l-3.59,0v-.09a4.14,4.14,0,0,1,1.75-3.49A7.49,7.49,0,0,1,184,62.2a7.09,7.09,0,0,1,4.68,1.48,5.16,5.16,0,0,1,1.78,4.23v7.38a14,14,0,0,0,.14,2,10,10,0,0,0,.45,1.85Zm-4.56-2.67a4.69,4.69,0,0,0,2.53-.71,3.53,3.53,0,0,0,1.49-1.61V71.67h-3a3.75,3.75,0,0,0-2.55.81,2.46,2.46,0,0,0-.92,1.89,1.93,1.93,0,0,0,.62,1.51A2.57,2.57,0,0,0,182.72,76.45Z" transform="translate(-13.77 -39.65)"/><path class="cls-1" d="M197.68,62.51l.22,2.4a5.88,5.88,0,0,1,2-2,5.47,5.47,0,0,1,2.79-.72,5.18,5.18,0,0,1,4,1.6c1,1.06,1.45,2.73,1.45,5V79.12h-3.73V68.82a4,4,0,0,0-.75-2.75,3,3,0,0,0-2.27-.81,4.45,4.45,0,0,0-2.07.45A3.68,3.68,0,0,0,198,67V79.12h-3.73V62.51Z" transform="translate(-13.77 -39.65)"/><path class="cls-1" d="M211.36,71a11,11,0,0,1,1.7-6.4,5.52,5.52,0,0,1,4.79-2.44,5.32,5.32,0,0,1,2.42.55,5.48,5.48,0,0,1,1.85,1.56V55.18h3.73V79.12h-3L222.38,77a5.65,5.65,0,0,1-1.94,1.81,5.4,5.4,0,0,1-2.62.62,5.64,5.64,0,0,1-4.76-2.23,9.38,9.38,0,0,1-1.7-5.84Zm3.73.33A6.65,6.65,0,0,0,216,75a3.09,3.09,0,0,0,2.8,1.37,3.69,3.69,0,0,0,2-.51,3.83,3.83,0,0,0,1.35-1.44V67.21a4,4,0,0,0-1.35-1.44,3.7,3.7,0,0,0-2-.51,3,3,0,0,0-2.81,1.6,8.5,8.5,0,0,0-.9,4.18Z" transform="translate(-13.77 -39.65)"/><path class="cls-1" d="M236.77,79.44a7.22,7.22,0,0,1-5.68-2.3A8.56,8.56,0,0,1,229,71.2v-.62a8.86,8.86,0,0,1,2.05-6,6.6,6.6,0,0,1,5.28-2.36,6.22,6.22,0,0,1,5.07,2.07,8.36,8.36,0,0,1,1.72,5.52v2H232.89l0,.07a5.49,5.49,0,0,0,1.07,3.32A3.68,3.68,0,0,0,237,76.46a8.26,8.26,0,0,0,2.63-.37A7.32,7.32,0,0,0,241.68,75l1.21,2.44a7.74,7.74,0,0,1-2.51,1.4A10.56,10.56,0,0,1,236.77,79.44Zm-.4-14.24a2.88,2.88,0,0,0-2.33,1A5.19,5.19,0,0,0,233,69l0,.07h6.49v-.29a4.22,4.22,0,0,0-.74-2.58A2.76,2.76,0,0,0,236.37,65.2Z" transform="translate(-13.77 -39.65)"/><path class="cls-1" d="M249.65,62.51l.2,2.16a5.82,5.82,0,0,1,2-1.82,6,6,0,0,1,2.84-.65,5.15,5.15,0,0,1,2.8.74,4.51,4.51,0,0,1,1.75,2.21,5.76,5.76,0,0,1,2-2.16,5.49,5.49,0,0,1,2.95-.79A4.88,4.88,0,0,1,268.2,64a8.07,8.07,0,0,1,1.45,5.27v9.9h-3.73V69.2a4.87,4.87,0,0,0-.73-3.06,2.65,2.65,0,0,0-2.18-.88,3.2,3.2,0,0,0-2,.64,3.64,3.64,0,0,0-1.2,1.74c0,.15,0,.28,0,.4s0,.22,0,.32V79.12h-3.73V69.2a4.8,4.8,0,0,0-.74-3,2.67,2.67,0,0,0-2.19-.92,3.81,3.81,0,0,0-1.92.44A3.15,3.15,0,0,0,250,66.93V79.12h-3.73V62.51Z" transform="translate(-13.77 -39.65)"/><path class="cls-1" d="M277.33,58.44H273.6V55.18h3.73Zm0,20.68H273.6V62.51h3.73Z" transform="translate(-13.77 -39.65)"/><path class="cls-1" d="M288.11,76.46a3.11,3.11,0,0,0,2.15-.8,2.59,2.59,0,0,0,.88-2h3.38l0,.09a5,5,0,0,1-1.85,4,6.66,6.66,0,0,1-4.59,1.69,6.75,6.75,0,0,1-5.54-2.37,9.11,9.11,0,0,1-1.95-6v-.54a9.12,9.12,0,0,1,1.95-6,6.74,6.74,0,0,1,5.52-2.38A6.53,6.53,0,0,1,292.8,64a5.66,5.66,0,0,1,1.75,4.42l0,.1h-3.38a3.36,3.36,0,0,0-.84-2.32,2.79,2.79,0,0,0-2.21-1,3,3,0,0,0-2.87,1.54,7.67,7.67,0,0,0-.87,3.81v.54a7.76,7.76,0,0,0,.86,3.84A3.07,3.07,0,0,0,288.11,76.46Z" transform="translate(-13.77 -39.65)"/><path class="cls-1" d="M306.88,74.57a1.72,1.72,0,0,0-.73-1.42,7.61,7.61,0,0,0-2.75-1,11.18,11.18,0,0,1-4.48-1.77,3.69,3.69,0,0,1-1.55-3.13,4.5,4.5,0,0,1,1.76-3.56,7,7,0,0,1,4.65-1.49,7.2,7.2,0,0,1,4.8,1.53,4.43,4.43,0,0,1,1.74,3.68l0,.09h-3.58a2.33,2.33,0,0,0-.79-1.76,3.06,3.06,0,0,0-2.14-.74,3,3,0,0,0-2,.61,1.93,1.93,0,0,0-.71,1.51,1.62,1.62,0,0,0,.66,1.35,7.51,7.51,0,0,0,2.72.9,11.3,11.3,0,0,1,4.6,1.8,3.84,3.84,0,0,1,1.55,3.19A4.43,4.43,0,0,1,308.7,78a7.83,7.83,0,0,1-4.87,1.42,7.41,7.41,0,0,1-5.11-1.66A4.67,4.67,0,0,1,296.94,74l0-.09h3.47a2.48,2.48,0,0,0,1,2.1,4.21,4.21,0,0,0,2.4.66,3.73,3.73,0,0,0,2.21-.56A1.76,1.76,0,0,0,306.88,74.57Z" transform="translate(-13.77 -39.65)"/><circle class="cls-1" cx="29.33" cy="29.33" r="29.33"/><path class="cls-2" d="M66.06,69a13.63,13.63,0,0,0,1.25-3.14A13.46,13.46,0,0,0,54.57,49a13.47,13.47,0,0,0-22.94,0A13.46,13.46,0,0,0,20.15,69,13.46,13.46,0,0,0,31.61,89a13.46,13.46,0,0,0,23,0A13.49,13.49,0,0,0,66.06,69ZM65,56.16a12.31,12.31,0,0,1,1.3,9.41,12.49,12.49,0,0,1-.88,2.35,13.28,13.28,0,0,0-4.33-4,13.45,13.45,0,0,0-5.82-1.81L55.2,62a13.41,13.41,0,0,0,0-11.91A12.41,12.41,0,0,1,65,56.16ZM54,87.94A12.42,12.42,0,0,1,43.71,82c.13-.23.25-.46.37-.7a13.49,13.49,0,0,0,5.83-1.81,13.3,13.3,0,0,0,4-3.63h0a12.38,12.38,0,0,1,0,12Zm-23.27-6a12.33,12.33,0,0,1,1.55-6h0a13.47,13.47,0,0,0,9.83,5.4c.11.24.24.48.36.71a12.35,12.35,0,0,1-10.25,5.88A12.31,12.31,0,0,1,30.69,81.93ZM32.24,50a12.35,12.35,0,0,1,9.23,4.47,13.5,13.5,0,0,0-9.83,6.3A12.41,12.41,0,0,1,30.69,56,12.29,12.29,0,0,1,32.24,50Zm4.59,7.13a12.31,12.31,0,0,1,5.39-1.67c.09.14.18.28.26.42a13.55,13.55,0,0,0-1.26,9.82,13.53,13.53,0,0,0-9-3.7l0-.07A12.48,12.48,0,0,1,36.83,57.17ZM55.52,56a12.24,12.24,0,0,1-1,4.77,13.4,13.4,0,0,0-8-6,14.24,14.24,0,0,0-1.8-.34A12.43,12.43,0,0,1,48,51.71,12.28,12.28,0,0,1,54,50,12.33,12.33,0,0,1,55.52,56ZM42.82,80.3a12.42,12.42,0,0,1,.29-10.19,12.42,12.42,0,0,1,.27,10.19Zm.29-12.46a12.4,12.4,0,0,1,0-10.8A12.43,12.43,0,0,1,43.11,67.84ZM39.37,69a13.59,13.59,0,0,0-7.11,5,12.32,12.32,0,0,1-1.17-9.19,12.76,12.76,0,0,1,.56-1.61A13.5,13.5,0,0,0,39.37,69Zm-6.44-5.84a12.37,12.37,0,0,1,9.18,5.27A12.43,12.43,0,0,1,32.93,63.14Zm9.17,6.42a12.37,12.37,0,0,1-7,4.9,13.1,13.1,0,0,1-2.14.36A12.4,12.4,0,0,1,42.1,69.56Zm-6.76,5.92a13.35,13.35,0,0,0,5.87-3.26,13.51,13.51,0,0,0,.44,8,12.41,12.41,0,0,1-8.09-4.39A12.4,12.4,0,0,0,35.34,75.48ZM45,72.19a13.51,13.51,0,0,0,7.68,3.61,12.37,12.37,0,0,1-8.12,4.42A13.56,13.56,0,0,0,45,72.19Zm-.87-2.63a12.38,12.38,0,0,1,9.13,5.24A12.43,12.43,0,0,1,44.12,69.56ZM46.84,69a13.47,13.47,0,0,0,7.72-5.86,12.42,12.42,0,0,1-.62,10.81A13.56,13.56,0,0,0,46.84,69Zm-2.74-.57a12.41,12.41,0,0,1,9.17-5.25A12.42,12.42,0,0,1,44.1,68.41Zm2.15-12.53a12.35,12.35,0,0,1,7.57,5.74c.07.11.13.23.19.34l0,.09a13.54,13.54,0,0,0-9,3.71,13.5,13.5,0,0,0-1.28-9.84c.09-.14.17-.28.27-.42A13,13,0,0,1,46.25,55.88ZM31.47,74.69a1.63,1.63,0,0,0,.11.17A12.45,12.45,0,0,1,21.37,69a12.38,12.38,0,0,1,9.11-5.8A13.47,13.47,0,0,0,31.47,74.69ZM55.73,63.2A12.31,12.31,0,0,1,64.83,69a12.4,12.4,0,0,1-10.18,5.86A13.51,13.51,0,0,0,55.73,63.2ZM43.1,43.62A12.43,12.43,0,0,1,53.32,49a13.47,13.47,0,0,0-9.88,5.43h-.69a13.56,13.56,0,0,0-4-3.6A13.42,13.42,0,0,0,32.88,49,12.41,12.41,0,0,1,43.1,43.62ZM21.21,56.18A12.43,12.43,0,0,1,31,50.07,13.52,13.52,0,0,0,31,62l-.05.1a13.41,13.41,0,0,0-10.16,5.85A12.4,12.4,0,0,1,21.21,56.18Zm0,25.59A12.4,12.4,0,0,1,20.79,70,13.47,13.47,0,0,0,31.06,75.9a13.3,13.3,0,0,0-1.43,6A13.52,13.52,0,0,0,31,87.88,12.41,12.41,0,0,1,21.21,81.77ZM43.1,94.35A12.43,12.43,0,0,1,32.87,89,13.47,13.47,0,0,0,43.1,83a13.17,13.17,0,0,0,4.37,4.11A13.3,13.3,0,0,0,53.32,89,12.41,12.41,0,0,1,43.1,94.35ZM65,81.79a12.32,12.32,0,0,1-7.57,5.74,11.51,11.51,0,0,1-2.24.37,13.43,13.43,0,0,0,0-12A13.52,13.52,0,0,0,65.41,70a12.49,12.49,0,0,1,.88,2.35A12.31,12.31,0,0,1,65,81.79Z" transform="translate(-13.77 -39.65)"/></svg>