<svg xmlns="http://www.w3.org/2000/svg" width="112" height="112" fill="none" viewBox="0 0 112 112">
    <g clip-path="url(#clip0)">
        <path fill="#C8CDFF" stroke="#C8CDFF" stroke-miterlimit="10" stroke-width="2" d="M59.501 39.824C69.576 37.668 79.48 28.545 79.597 18.26c.098-7.883-4.023-12.314-9.988-12.26-2.045.04-4.032.687-5.709 1.858-1.676 1.17-2.967 2.813-3.708 4.719-.053.139-.147.258-.27.342-.122.084-.267.129-.415.129-.149 0-.294-.045-.416-.13-.122-.083-.216-.202-.27-.341-.74-1.906-2.031-3.548-3.708-4.72C53.436 6.687 51.45 6.04 49.405 6c-5.966 0-10.086 4.377-9.99 12.26.109 9.985 11.468 19.743 20.086 21.565zM102.067 101.987c-.908-.165-1.828-.251-2.75-.258.636-1.262-2.773-6.136-5.793-6.632-1.08-.183-5.016-.28-9.709-.334.108-1.391-2.157-4.777-4.875-5.165-1.726-.248-11.057-.313-18.576-.324-2.686-1.8-5.393-3.601-7.96-5.272-2.904-1.9-5.288-4.495-6.937-7.548-2.236-3.911-5.344-7.255-9.082-9.77-4.245-3.044-9.254-4.847-14.466-5.208v0h-1.197L4.304 61.25c-1.097 0-2.15.432-2.93 1.203-.779.772-1.222 1.82-1.234 2.916L0 89.09c0 2.275 2.157 4.486 4.11 4.162 1.079-.172 8.554-3.148 15.652-5.391.724-.239 1.505-.244 2.232-.016.728.228 1.366.679 1.824 1.288.248.324.507.636.787.938L39.071 106.3c1.944 2.062 4.602 3.304 7.432 3.472h27.626c4.573 2.351 6.59 1.704 7.184 0h19.298c3.883.27 7.044-.894 7.356-2.857.313-1.962-3.441-4.324-5.9-4.928z"/>
        <path stroke="#F3F4FE" stroke-linecap="round" stroke-miterlimit="10" stroke-width="3" d="M47.042 14.442c-.154-.627-.18-1.28-.077-1.917.104-.637.336-1.247.681-1.793.454-.812 1.18-1.437 2.051-1.765.871-.328 1.83-.336 2.706-.025"/>
        <path stroke="#425AF2" stroke-miterlimit="10" stroke-width="3" d="M62.791 38.627l.205 47.1"/>
        <path fill="#425AF2" stroke="#425AF2" stroke-miterlimit="10" stroke-width="3" d="M77.483 51.243c.89-.191 1.81-.213 2.708-.065.766.152 1.078 1.176 1.154 1.877.841 4.766-3.074 9.704-8.91 10.782-1.079.184-2.535.27-3.096-.172-.515-.518-.828-1.202-.885-1.93-.84-4.755 3.204-9.457 9.03-10.492zM47.452 43.76c-.957-.21-1.946-.236-2.912-.075-.831.161-1.079 1.272-1.252 2.027-.916 5.143 3.312 10.534 9.612 11.656 1.186.205 2.75.291 3.344-.183.558-.563.902-1.303.97-2.092.853-5.154-3.516-10.255-9.762-11.333z"/>
        <path fill="#425AF2" d="M72.899 3.238c5.89 0 9.956 4.432 9.87 12.26-.119 10.233-10.032 19.41-20.096 21.512-8.63-1.822-19.978-11.58-20.097-21.512-.086-7.828 3.97-12.26 9.87-12.26h.12c2.044.04 4.032.685 5.709 1.857 1.677 1.17 2.967 2.814 3.707 4.72.054.14.148.259.272.342.124.083.27.125.419.122.148.002.294-.041.417-.124.123-.083.218-.201.273-.34.74-1.904 2.028-3.546 3.703-4.717 1.675-1.172 3.66-1.819 5.703-1.86h.13zm0-3.235h-.162c-1.92.036-3.81.48-5.545 1.302-1.735.821-3.275 2.002-4.52 3.464-1.245-1.462-2.788-2.643-4.525-3.465C56.41.483 54.52.04 52.597.004h-.15c-1.661-.039-3.313.26-4.855.877-1.543.617-2.944 1.54-4.12 2.713-2.762 2.793-4.186 6.923-4.132 11.936.13 11.215 12.287 22.45 22.653 24.64l.669.14.669-.14c10.787-2.276 22.523-12.336 22.652-24.64.054-5.013-1.38-9.143-4.142-11.936C80.667 2.42 79.268 1.498 77.727.88c-1.54-.617-3.19-.916-4.85-.878h.022z"/>
        <path stroke="#425AF2" stroke-miterlimit="10" stroke-width="2" d="M63.492 86.492s15.663-.172 18.651.248c2.988.42 5.523 4.615 4.747 5.575"/>
        <path stroke="#425AF2" stroke-miterlimit="10" stroke-width="2" d="M71.939 91.873s21.682-.14 24.745.366c3.064.507 6.57 5.553 5.771 6.697"/>
        <path stroke="#425AF2" stroke-linecap="round" stroke-miterlimit="10" stroke-width="3" d="M81.647 98.752l16.688.076c2.302-.06 4.605.04 6.893.302 2.459.647 6.213 3.019 5.9 4.949-.313 1.93-3.473 3.127-7.357 2.858h-19.2"/>
        <path stroke="#425AF2" stroke-linecap="round" stroke-miterlimit="10" stroke-width="3" d="M42.21 85.295c7.4 5.392 21.973 13.49 32.264 20.046 14.077 8.96 10.398-3.699 7.55-6.114-1.769-1.467-15.522-11.01-26.374-18.083-2.904-1.903-5.291-4.497-6.947-7.548-2.232-3.914-5.34-7.258-9.082-9.77-4.569-3.31-10.043-5.143-15.685-5.25l-16.471-.184c-1.098-.003-2.152.429-2.933 1.2-.78.773-1.223 1.822-1.231 2.92L3.15 86.232c0 2.276 2.157 4.486 4.11 4.162 1.078-.183 8.554-3.148 15.662-5.39.725-.24 1.505-.245 2.233-.017.728.229 1.365.68 1.823 1.288.24.328.5.641.777.939l14.53 16.282c1.942 2.065 4.602 3.308 7.432 3.472h27.507"/>
    </g>
    <defs>
        <clipPath id="clip0">
            <path fill="#fff" d="M0 0H111.146V111.302H0z"/>
        </clipPath>
    </defs>
</svg>
