<svg xmlns="http://www.w3.org/2000/svg" width="108" height="120" fill="none" viewBox="0 0 108 120">
    <path stroke="#F3F4FE" stroke-miterlimit="10" stroke-width="3" d="M54.38 46.75v43.369"/>
    <path fill="#F3F4FE" stroke="#F3F4FE" stroke-miterlimit="10" stroke-width="3" d="M69.333 57.483c.867-.216 1.842-.216 2.708-.108.759.108 1.084 1.193 1.192 1.843.867 4.77-3.142 9.758-8.993 10.842-1.083.217-2.6.326-3.142-.216-.541-.543-.866-1.193-.866-1.952-.759-4.662 3.25-9.324 9.1-10.409zM39.212 50.002c-.975-.217-1.95-.217-2.925-.108-.867.217-1.083 1.3-1.3 2.06-.975 5.204 3.25 10.625 9.643 11.71 1.191.216 2.708.325 3.358-.217.542-.543.867-1.301.976-2.06.866-5.205-3.468-10.3-9.752-11.385zM65.974 4.03c-4.55-.325-8.993 1.952-11.377 5.856-.108.216-.325.216-.541.108-.109 0-.109-.108-.109-.108-2.383-3.904-6.717-6.18-11.376-5.855-6.5.65-11.376 6.397-11.051 12.902.65 18.757 22.644 29.708 22.752 29.708 0 0 21.995-11.06 22.753-29.816.433-6.397-4.442-12.144-11.051-12.794z"/>
    <path stroke="#F3F4FE" stroke-linecap="round" stroke-miterlimit="10" stroke-width="3" d="M35.42 88.384c7.151 5.204 26.112 17.673 26.112 17.781 8.992 4.554 9.75 1.844 8.342-1.301-.758-1.735-1.841-3.252-3.25-4.553-1.192-1.085-3.575-3.145-8.56-6.831-2.166-1.627-4.875-3.47-8.125-5.638-2.926-1.952-5.31-4.554-6.934-7.59-2.276-3.903-5.418-7.264-9.102-9.866-4.55-3.361-10.076-5.205-15.71-5.313H4"/>
    <path stroke="#F3F4FE" stroke-linecap="round" stroke-miterlimit="10" stroke-width="3" d="M4.108 96.516c3.467-2.169 7.26-3.795 11.16-4.988.217-.108.433-.108.65-.108 1.409-.109 2.709.433 3.792 1.3.217.326 27.737 19.517 28.604 20.168 2.058 1.626 4.333 2.819 6.825 3.469 2.384.434 26.979-4.337 28.387-4.987.867-.434 1.734-.976 2.492-1.627l16.902-19.624c1.3-1.843-4.334-3.144-6.934-1.735-2.167 1.193-2.926 2.06-5.418 4.554l-9.967 10.083c-.325.325-.759.542-1.192.759-.975.434-8.885.867-8.885.867"/>
    <path stroke="#F3F4FE" stroke-linecap="round" stroke-miterlimit="10" stroke-width="2" d="M96.528 88.058c.216-1.192-.542-2.276-1.734-2.493-1.409-.542-2.925-.76-4.334-.434-1.733.434-3.25 1.193-4.442 2.385l-12.243 9.758M86.234 86.65c-1.625-.435-3.358-.651-4.984-.651-1.841 0-3.683.65-5.2 1.734l-4.984 3.578c-.867.542-1.842.976-2.925 1.084l-8.235.976"/>
</svg>
