<svg xmlns="http://www.w3.org/2000/svg" width="109" height="109" fill="none" viewBox="0 0 109 109">
    <g clip-path="url(#clip0)">
        <path stroke="#F1F2F9" stroke-miterlimit="10" stroke-width="3" d="M59.954 37.18l.108 49.093M74.55 51.197c1.089-.194 1.94-.227 2.707-.076.766.162 1.035 1.186 1.154 1.877.841 4.766-3.074 9.758-8.91 10.793-1.09.194-2.546.27-3.096-.161-.55-.443-.766-1.24-.895-1.93-.842-4.777 3.203-9.479 9.04-10.503zM44.486 43.692c-1.176-.205-2.093-.248-2.923-.075-.831.172-1.122 1.272-1.252 2.027-.906 5.143 3.323 10.535 9.622 11.656 1.176.205 2.75.291 3.344-.183.593-.475.83-1.337.96-2.092.928-5.144-3.44-10.222-9.751-11.333z"/>
        <path fill="#F3F4FE" d="M70.062 3.235c5.89 0 9.956 4.42 9.87 12.26-.119 10.233-10.032 19.387-20.096 21.512-8.63-1.823-19.978-11.581-20.097-21.512-.086-7.828 3.97-12.26 9.87-12.26h.12c4.239.043 7.938 2.782 9.416 6.567.119.312.41.474.69.474.281 0 .562-.162.691-.474 1.478-3.785 5.178-6.524 9.417-6.567h.119zm0-3.235h-.151c-3.905.043-7.573 1.844-10.075 4.755C57.344 1.844 53.666.032 49.76 0h-.151c-3.55 0-6.645 1.24-8.965 3.59-2.76 2.793-4.196 6.923-4.13 11.937.129 11.214 12.285 22.45 22.663 24.639l.669.14.668-.14C71.302 37.891 83.04 27.82 83.18 15.527c.054-5.014-1.37-9.144-4.132-11.936C76.707 1.24 73.611 0 70.062 0z"/>
        <path stroke="#F1F2F9" stroke-linecap="round" stroke-miterlimit="10" stroke-width="3" d="M44.184 14.374s-.561-1.995.615-3.71c2.017-2.965 4.746-1.79 4.746-1.79"/>
        <path stroke="#F1F2F9" stroke-linecap="round" stroke-miterlimit="10" stroke-width="2" d="M60.871 86.489s15.34-.14 18.327.28c2.988.432 5.491 4.195 4.714 5.154"/>
        <path stroke="#F1F2F9" stroke-linecap="round" stroke-miterlimit="10" stroke-width="2" d="M68.994 91.913s21.682-.151 24.756.367c3.074.506 6.569 5.39 5.76 6.534"/>
        <path stroke="#F1F2F9" stroke-linecap="round" stroke-miterlimit="10" stroke-width="3" d="M78.702 98.781l16.688.076s5.48-.076 6.903.302c2.46.647 6.214 3.03 5.901 4.96-.313 1.962-3.473 3.127-7.357 2.857l-19.233.033"/>
        <path stroke="#F1F2F9" stroke-linecap="round" stroke-miterlimit="10" stroke-width="3" d="M39.254 85.324c7.4 5.424 21.973 13.5 32.264 20.057 14.088 8.971 10.399-3.699 7.508-6.114-1.758-1.478-15.523-11.02-26.385-18.094-2.902-1.887-5.275-4.475-6.936-7.505-1.942-3.537-5.049-6.998-9.083-9.78-5.189-3.58-10.852-5.337-15.684-5.24l-16.634-.162C2.028 58.476.151 60.319.14 62.594L0 86.35c-.01 2.275 2.19 4.485 4.11 4.162 1.057-.183 8.554-3.149 15.663-5.435 1.488-.485 3.117.022 4.056 1.273.237.323.496.636.787.938l14.53 16.293c2.017 2.146 4.693 3.299 7.432 3.461l1.004.022 26.697-.033"/>
    </g>
    <defs>
        <clipPath id="clip0">
            <path fill="#fff" d="M0 0H108.212V108.551H0z"/>
        </clipPath>
    </defs>
</svg>
