<svg xmlns="http://www.w3.org/2000/svg" width="108" height="120" fill="none" viewBox="0 0 108 120">
    <path fill="#C8CDFF" d="M97.932 89.793l.087-.087c.08-.562-.052-1.133-.369-1.604-.317-.471-.796-.808-1.347-.947-1.357-.631-2.886-.788-4.343-.446-1.315.332-2.549.926-3.627 1.748l-.62-.195c-1.645-.444-3.344-.663-5.049-.651-1.862-.004-3.674.602-5.158 1.726l-5.039 3.572c-.858.594-1.85.967-2.888 1.085l-8.59 1.02-3.258-1.302c-1.78-1.26-3.833-2.65-6.222-4.212-2.923-1.917-5.326-4.528-6.994-7.6-2.245-3.942-5.375-7.309-9.143-9.836-4.6-3.334-10.11-5.179-15.79-5.287L6.03 66.625c-.397-.004-.79.07-1.157.219-.368.148-.702.368-.984.647-.281.279-.505.61-.658.976-.152.366-.231.758-.23 1.154v24.601c-.004.507.123 1.007.366 1.452.244.445.598.82 1.027 1.09.429.271.92.428 1.427.456.506.028 1.012-.073 1.468-.295 3.136-1.54 6.38-2.846 9.709-3.908.72-.222 1.492-.216 2.21.017.717.233 1.345.682 1.797 1.286.228.293 27.832 19.542 28.712 20.139 2.031 1.618 4.37 2.807 6.874 3.495 2.422.467 26.985-4.342 28.484-5.015.928-.393 1.78-.944 2.52-1.629l17.027-19.683c1.216-1.758-3.953-3.04-6.69-1.834z"/>
    <path fill="#C8CDFF" stroke="#C8CDFF" stroke-miterlimit="10" d="M66.006 4.635c-2.252-.18-4.51.277-6.515 1.32-2.005 1.042-3.676 2.628-4.822 4.575-.038.063-.09.115-.155.151-.063.036-.135.055-.209.055-.073 0-.145-.019-.209-.055-.064-.036-.117-.088-.155-.151-1.157-1.935-2.834-3.506-4.84-4.535-2.006-1.029-4.26-1.474-6.508-1.284-3.144.332-6.042 1.856-8.096 4.26-2.055 2.402-3.11 5.502-2.948 8.659.685 18.803 22.729 29.768 22.805 29.79 0 0 22.088-11.063 22.805-29.866.16-3.174-.91-6.288-2.987-8.694-2.077-2.406-5.002-3.92-8.166-4.225z"/>
    <path stroke="#425AF2" stroke-miterlimit="10" stroke-width="3" d="M56.808 44.836v43.415"/>
    <path fill="#C8CDFF" stroke="#C8CDFF" stroke-miterlimit="10" d="M70.187 57.224c.897-.19 1.82-.212 2.726-.066.77.152 1.086 1.184 1.162 1.89.847 4.798-3.095 9.77-8.97 10.856-1.086.184-2.552.271-3.117-.174-.521-.52-.837-1.21-.89-1.943-.847-4.788 3.225-9.521 9.09-10.564z"/>
    <path stroke="#425AF2" stroke-miterlimit="10" stroke-width="3" d="M71.837 55.573c.897-.195 1.822-.217 2.726-.065.771.152 1.086 1.183 1.162 1.89.847 4.798-3.095 9.77-8.97 10.856-1.086.184-2.552.271-3.116-.174-.522-.52-.838-1.21-.89-1.943-.848-4.788 3.224-9.522 9.088-10.564z"/>
    <path fill="#C8CDFF" stroke="#C8CDFF" stroke-miterlimit="10" d="M39.238 50.047c-.963-.215-1.96-.24-2.932-.076-.836.163-1.086 1.281-1.26 2.041-.923 5.179 3.334 10.607 9.676 11.736 1.194.207 2.769.293 3.366-.184.565-.565.911-1.311.977-2.107.858-5.135-3.54-10.324-9.827-11.41z"/>
    <path stroke="#425AF2" stroke-miterlimit="10" stroke-width="3" d="M41.638 48.039c-.963-.216-1.96-.242-2.932-.076-.837.163-1.086 1.28-1.26 2.04-.956 5.234 3.301 10.662 9.621 11.748 1.195.206 2.77.293 3.367-.185.564-.565.91-1.31.977-2.106.88-5.2-3.518-10.336-9.773-11.421zM68.504 2.04c-2.257-.184-4.519.271-6.528 1.314-2.009 1.043-3.683 2.63-4.831 4.58-.036.064-.089.117-.151.153-.063.037-.135.056-.208.056-.072 0-.144-.02-.207-.056-.063-.036-.115-.089-.151-.152-1.159-1.936-2.838-3.507-4.846-4.536-2.008-1.029-4.264-1.473-6.513-1.283-3.148.335-6.048 1.865-8.101 4.275-2.053 2.41-3.103 5.516-2.932 8.677.684 18.792 22.74 29.768 22.805 29.79 0 0 22.088-11.063 22.804-29.866.164-3.177-.902-6.295-2.977-8.706-2.075-2.412-4.998-3.932-8.164-4.246z"/>
    <path stroke="#F3F4FE" stroke-linecap="round" stroke-miterlimit="10" stroke-width="3" d="M41.03 14.503c-.16-.638-.19-1.302-.085-1.952.105-.65.34-1.27.693-1.826.46-.815 1.191-1.442 2.067-1.771.875-.33 1.839-.34 2.722-.031"/>
    <path stroke="#425AF2" stroke-linecap="round" stroke-miterlimit="10" stroke-width="3" d="M37.826 86.514c7.167 5.222 26.16 17.74 26.226 17.772 8.958 4.517 9.773 1.835 8.405-1.313-.762-1.73-1.871-3.286-3.258-4.57-1.238-1.087-3.551-3.193-8.525-6.808-2.172-1.574-4.865-3.441-8.177-5.602-2.928-1.91-5.332-4.523-6.993-7.6-2.25-3.938-5.38-7.304-9.144-9.835-4.6-3.333-10.11-5.178-15.79-5.288H6.368"/>
    <path stroke="#425AF2" stroke-linecap="round" stroke-miterlimit="10" stroke-width="3" d="M6.486 94.624c3.483-2.167 7.241-3.854 11.175-5.016.215-.068.437-.115.662-.14 1.372-.068 2.717.403 3.747 1.313.217.304 27.821 19.541 28.712 20.149 2.025 1.619 4.36 2.805 6.863 3.485 2.421.478 26.996-4.342 28.495-5.004.92-.4 1.768-.951 2.508-1.629l16.995-19.694c1.271-1.823-4.344-3.148-6.983-1.704-2.171 1.183-2.899 2.03-5.43 4.603l-9.957 10.086c-.353.326-.771.574-1.227.727-.967.445-8.905.814-8.905.814"/>
    <path stroke="#425AF2" stroke-linecap="round" stroke-miterlimit="10" stroke-width="2" d="M99.04 86.156c.08-.56-.051-1.128-.366-1.597-.315-.468-.791-.805-1.339-.944-1.375-.56-2.883-.715-4.343-.445-1.685.39-3.232 1.23-4.475 2.432l-12.26 9.771M88.713 84.723c-1.645-.45-3.344-.673-5.05-.662-1.865.004-3.679.614-5.169 1.737l-5.038 3.572c-.86.594-1.851.967-2.889 1.085l-8.253.988"/>
</svg>
