<svg xmlns="http://www.w3.org/2000/svg" width="89" height="139" fill="none" viewBox="0 0 89 139">
    <path fill="#C8CDFF" stroke="#C8CDFF" stroke-miterlimit="10" d="M54.267 6.95c-3.267-.11-6.504.662-9.37 2.235-2.866 1.572-5.256 3.886-6.919 6.7-.06.09-.14.163-.235.214-.094.05-.2.077-.308.077-.107 0-.213-.026-.308-.077-.095-.05-.175-.124-.235-.214-1.677-2.793-4.073-5.085-6.938-6.637-2.865-1.553-6.094-2.309-9.35-2.19-10.22.348-17.94 9.316-17.593 19.542 1 28.38 34.218 44.957 34.424 45.066 6.645-3.554 12.776-7.995 18.222-13.202.989-.955-1.368-11.942 2.031-11.573 2.172.217 2.737 6.514 3.616 5.428 5.669-6.959 10.197-15.655 10.555-25.87.359-10.216-7.351-19.184-17.592-19.499z"/>
    <path fill="#425AF2" d="M39.564 43.678c-.27.001-.538-.051-.787-.154-.25-.102-.477-.253-.668-.444-.19-.19-.342-.418-.444-.667-.103-.25-.155-.517-.154-.787v-.076c.01-1.149.242-2.284.685-3.344.439-.959.989-1.862 1.64-2.692.923-1.03 1.917-1.996 2.975-2.888 1.082-.87 2.03-1.894 2.812-3.04.43-.75.655-1.6.652-2.464-.003-.803-.174-1.596-.5-2.329-.328-.733-.805-1.39-1.4-1.927-.612-.6-1.337-1.073-2.133-1.39-.796-.317-1.648-.472-2.504-.456-1.637-.045-3.227.55-4.431 1.661-.967.98-1.65 2.203-1.976 3.54-.137.455-.43.848-.827 1.11-.396.261-.873.376-1.345.323h-.196c-.27-.035-.53-.123-.767-.259-.237-.135-.444-.316-.61-.532-.167-.216-.289-.462-.36-.725-.071-.263-.09-.538-.054-.808.01-.099.029-.197.054-.293.498-1.882 1.527-3.582 2.964-4.896 2.108-1.746 4.792-2.641 7.526-2.508 2.887-.152 5.721.812 7.916 2.692.937.807 1.687 1.807 2.199 2.932.512 1.124.773 2.347.766 3.582-.003 1.432-.377 2.838-1.086 4.082-1.111 1.717-2.486 3.248-4.072 4.538-.958.82-1.845 1.721-2.65 2.693-.422.599-.734 1.268-.923 1.976-.133.556-.216 1.122-.25 1.693-.043.514-.276.993-.653 1.344-.378.352-.873.55-1.388.556l-.011-.043zm-2.291 6.286v-.63c.008-.539.228-1.052.612-1.43.384-.378.901-.59 1.44-.59h.63c.541 0 1.06.216 1.444.598.382.383.597.902.597 1.444v.63c0 .542-.214 1.062-.597 1.446-.382.385-.902.602-1.444.605h-.63c-.271 0-.54-.054-.79-.158-.25-.105-.478-.258-.669-.45-.19-.193-.342-.422-.444-.674-.101-.251-.152-.52-.15-.791z"/>
    <path stroke="#425AF2" stroke-miterlimit="10" stroke-width="3" d="M61.163 52.537c7.015-7.6 13.118-17.544 13.541-29.595.359-10.357-7.601-19.607-18.015-19.933-3.262-.103-6.494.655-9.37 2.197-2.877 1.541-5.297 3.813-7.017 6.586-.081.133-.196.242-.332.318-.136.076-.289.116-.444.116-.156 0-.309-.04-.445-.116-.136-.076-.25-.185-.332-.318-1.734-2.753-4.16-5.003-7.035-6.527s-6.1-2.268-9.351-2.158c-10.328.347-18.31 9.597-17.951 19.932 1.01 28.868 34.75 45.793 35.14 46.01 5.737-3.074 11.1-6.796 15.986-11.095"/>
    <path fill="#C8CDFF" d="M68.884 88.493v-6.112c0-1.012-.4-1.982-1.115-2.698-.715-.717-1.684-1.12-2.696-1.124h-.804c-1.012.003-1.981.407-2.696 1.124-.714.716-1.116 1.686-1.116 2.698v6.112h-.803l-1.792-35.598v-.391c0-2.562-1.27-4.658-2.813-4.658-1.541 0-2.834 2.096-2.834 4.658v.152l-1.52 31.028-.391 7.838c-.032 1.36-.56 2.662-1.483 3.661-.924 1-2.18 1.628-3.534 1.767h-.456c-.576-.015-1.142-.156-1.658-.413s-.97-.623-1.329-1.074c-1.227-1.498-2.4-2.92-3.518-4.18-1.238-1.532-2.62-2.943-4.126-4.212-2.683-1.922-8.536-2.171-8.97-.065-.163.803 1.52 2.4 2.79 3.691 4.073 4.006 14.476 22.212 17.104 25.426.887 1.28 2.067 2.33 3.442 3.061.729.374 1.334.95 1.744 1.658.41.709.608 1.52.57 2.338l-.641 10.541c.003.893.358 1.749.988 2.381.63.632 1.485.99 2.378.996h20.46c.863 0 1.692-.343 2.303-.954.61-.611.954-1.439.954-2.303l-.717-10.553c-.064-.813.116-1.628.516-2.339.4-.712 1.003-1.288 1.732-1.656 1.466-.73 2.729-1.81 3.676-3.146.947-1.335 1.55-2.884 1.754-4.508.01-.039.01-.08 0-.119V85.508c0-.864-.343-1.693-.954-2.303-.611-.611-1.44-.954-2.304-.954h-1.086c-.864 0-1.693.343-2.303.954-.611.61-.955 1.439-.955 2.303v2.996-4.69c-.005-.957-.388-1.873-1.065-2.55-.677-.677-1.594-1.06-2.55-1.065h-.522c-.957.005-1.874.388-2.55 1.065-.678.677-1.06 1.593-1.066 2.55v4.68"/>
    <path stroke="#425AF2" stroke-linecap="round" stroke-linejoin="round" stroke-width="3" d="M80.525 132.375l-.75-10.498c-.064-.811.113-1.623.51-2.334.395-.711.993-1.289 1.717-1.661 1.457-.727 2.714-1.8 3.66-3.125.947-1.325 1.554-2.861 1.77-4.475V84.227c-.017-.859-.366-1.678-.973-2.285-.607-.607-1.426-.956-2.285-.972h-1.086c-.859.016-1.678.365-2.285.972-.608.607-.956 1.426-.973 2.285v2.996-4.657c-.003-.958-.385-1.876-1.062-2.554-.678-.677-1.596-1.059-2.554-1.062h-.51c-.96 0-1.88.381-2.557 1.06-.679.677-1.06 1.597-1.06 2.556V80.97c0-1.012-.4-1.982-1.115-2.699-.715-.716-1.684-1.12-2.696-1.123h-.804c-1.012.003-1.981.407-2.696 1.123-.714.717-1.115 1.687-1.115 2.699v6.112h-.76l-1.792-35.588v-.401c0-2.573-1.271-4.647-2.824-4.647s-2.823 2.074-2.823 4.647v.162L53.93 82.284l-.38 7.817c-.034 1.36-.563 2.66-1.486 3.659-.923.998-2.178 1.627-3.53 1.77h-.457c-.58-.022-1.15-.17-1.668-.434-.518-.265-.971-.64-1.329-1.097-1.216-1.499-2.4-2.92-3.507-4.18-1.241-1.53-2.623-2.94-4.127-4.213-2.682-1.91-8.535-2.17-8.97-.054-.174.803 1.52 2.4 2.791 3.691 4.072 3.996 14.476 22.202 17.104 25.426.887 1.273 2.063 2.319 3.431 3.051.732.373 1.34.949 1.75 1.66.41.711.606 1.526.563 2.346l-.64 10.531"/>
</svg>
