<svg xmlns="http://www.w3.org/2000/svg" width="86" height="151" fill="none" viewBox="0 0 86 151">
    <path fill="#F3F4FE" d="M23.214 50.314c12.82 0 23.213-10.39 23.213-23.205 0-12.815-10.393-23.204-23.213-23.204S0 14.294 0 27.109c0 12.816 10.393 23.205 23.214 23.205z"/>
    <path fill="#425AF2" d="M28.866 33.622c-.253 0-.503-.05-.736-.15-.233-.099-.443-.244-.618-.426-.176-.182-.313-.398-.402-.635-.09-.236-.131-.488-.12-.74.01-1.049.223-2.084.625-3.052.403-.878.906-1.707 1.5-2.47.847-.942 1.76-1.824 2.728-2.641.989-.796 1.854-1.733 2.568-2.782.396-.685.601-1.463.593-2.254-.003-.734-.158-1.46-.457-2.13-.3-.67-.735-1.27-1.28-1.763-.558-.55-1.22-.982-1.949-1.27-.728-.29-1.507-.43-2.29-.412-1.5-.044-2.956.502-4.056 1.52-.885.894-1.508 2.013-1.801 3.236-.13.422-.404.785-.775 1.023-.372.24-.816.339-1.253.281h-.195c-.27-.035-.53-.127-.76-.271-.232-.144-.43-.336-.58-.563-.15-.227-.25-.484-.293-.753-.042-.27-.026-.544.048-.806.455-1.72 1.395-3.274 2.707-4.475 1.931-1.598 4.39-2.417 6.893-2.297 2.64-.138 5.233.746 7.238 2.47.859.739 1.545 1.656 2.013 2.688.468 1.031.705 2.152.695 3.285.011 1.305-.316 2.59-.95 3.73-1.015 1.57-2.27 2.971-3.72 4.152-.878.753-1.69 1.58-2.428 2.47-.387.544-.672 1.154-.841 1.8-.122.51-.201 1.03-.238 1.553-.035.47-.247.911-.593 1.233-.346.322-.8.501-1.273.503v-.054zm-2.093 5.747v-.571c0-.247.049-.49.143-.718.095-.228.233-.435.407-.609.174-.174.381-.312.61-.407.227-.094.47-.142.717-.142h.572c.247 0 .49.048.718.142.228.095.435.233.61.407.174.174.312.381.406.609.095.227.143.471.143.718v.571c0 .498-.198.975-.55 1.327-.352.352-.83.55-1.327.55h-.572c-.497 0-.975-.198-1.327-.55-.352-.352-.55-.83-.55-1.327z"/>
    <path stroke="#425AF2" stroke-miterlimit="10" stroke-width="3" d="M36.892 47.003c-5.18 1.874-10.859 1.845-16.019-.083-5.16-1.927-9.466-5.627-12.147-10.438-2.681-4.81-3.563-10.418-2.487-15.818s4.04-10.243 8.36-13.66c4.32-3.416 9.715-5.185 15.22-4.99 5.506.196 10.762 2.343 14.829 6.058 4.066 3.715 6.678 8.755 7.368 14.218.69 5.463-.588 10.994-3.604 15.602"/>
    <path fill="#C8CDFF" d="M59.35 84.517v-8.25c-.003-1.362-.546-2.669-1.51-3.633s-2.271-1.507-3.635-1.51h-1.079c-1.364.003-2.67.546-3.635 1.51-.964.964-1.507 2.27-1.51 3.634v8.249h-1.079l-2.416-47.984v-.539c0-3.45-1.705-6.265-3.797-6.265-2.093 0-3.808 2.815-3.808 6.265v.216l-2.06 41.826-.518 10.557c-.06 1.822-.779 3.56-2.022 4.894-1.243 1.334-2.928 2.173-4.742 2.363-.205.01-.41.01-.615 0-.779-.015-1.545-.203-2.242-.55-.698-.347-1.31-.844-1.792-1.456-1.65-2.016-3.236-3.936-4.735-5.629-1.675-2.062-3.539-3.965-5.567-5.682-3.613-2.577-11.51-2.966-12.092-.076-.226 1.079 2.05 3.235 3.765 4.971 5.49 5.392 19.514 29.944 23.052 34.279 1.2 1.719 2.79 3.13 4.638 4.119.985.502 1.803 1.278 2.356 2.235.553.956.818 2.053.762 3.156l-.863 14.212c.005 1.202.486 2.354 1.336 3.204.85.85 2.002 1.33 3.205 1.336h27.582c1.175-.003 2.301-.471 3.132-1.302.831-.83 1.3-1.956 1.302-3.13l-.96-14.223c-.088-1.098.153-2.197.693-3.157.54-.961 1.354-1.738 2.338-2.234 1.986-.975 3.7-2.427 4.988-4.226 1.287-1.799 2.109-3.889 2.39-6.083.006-.053.006-.107 0-.161V80.495c-.002-1.178-.472-2.306-1.304-3.138-.833-.833-1.962-1.302-3.14-1.305h-1.5c-1.173.003-2.299.47-3.131 1.297-.832.828-1.304 1.95-1.313 3.124v4.044-6.33c-.005-1.29-.521-2.525-1.434-3.436-.914-.911-2.15-1.424-3.441-1.427h-.69c-1.291.003-2.528.516-3.441 1.427-.914.911-1.43 2.146-1.435 3.436v6.319"/>
    <path stroke="#425AF2" stroke-linecap="round" stroke-linejoin="round" stroke-width="3" d="M63.007 83.083v-8.238c-.003-1.365-.545-2.672-1.51-3.638-.964-.966-2.27-1.51-3.635-1.517h-1.079c-1.365.006-2.672.551-3.636 1.517-.964.966-1.507 2.273-1.51 3.638v8.238h-1.024L48.197 35.11v-.54c0-3.46-1.705-6.264-3.797-6.264-2.093 0-3.808 2.803-3.808 6.265v.215l-2.06 41.827-.518 10.546c-.058 1.824-.776 3.565-2.019 4.901-1.243 1.336-2.93 2.177-4.745 2.366h-.615c-.778-.02-1.543-.209-2.24-.555-.697-.347-1.31-.842-1.794-1.45-1.65-2.017-3.236-3.936-4.736-5.629-1.675-2.063-3.538-3.965-5.566-5.683-3.613-2.577-11.51-2.965-12.092-.075-.227 1.078 2.05 3.235 3.765 4.97 5.49 5.392 19.513 29.934 23.051 34.279 1.204 1.717 2.792 3.127 4.639 4.119.985.503 1.803 1.279 2.356 2.235.553.957.818 2.053.761 3.157l-.863 14.201c.003 1.204.482 2.358 1.333 3.211.85.852 2.004 1.334 3.209 1.339h27.517c1.177-.003 2.305-.472 3.136-1.305s1.298-1.961 1.298-3.137l-1.003-14.158c-.085-1.098.157-2.196.697-3.156.54-.959 1.352-1.737 2.334-2.236 1.986-.973 3.699-2.423 4.986-4.22 1.288-1.797 2.11-3.885 2.392-6.077.005-.054.005-.108 0-.162V79.072c-.003-1.179-.471-2.308-1.304-3.143-.832-.834-1.961-1.305-3.14-1.31h-1.5c-1.173.005-2.296.472-3.128 1.299-.832.827-1.304 1.948-1.316 3.121v4.044-6.276c-.005-1.29-.52-2.527-1.434-3.44-.913-.913-2.15-1.428-3.441-1.434h-.69c-1.293.003-2.531.517-3.445 1.43-.914.914-1.429 2.152-1.431 3.444l.021 6.276z"/>
</svg>
