<svg xmlns="http://www.w3.org/2000/svg" width="89" height="139" fill="none" viewBox="0 0 89 139">
    <path fill="#F3F4FE" d="M70.259 11.354c-3.546-3.87-8.488-6.129-13.752-6.344-6.768-.215-13.215 3.01-17.082 8.602-3.868-5.484-10.314-8.71-17.083-8.494-5.156.215-10.098 2.473-13.644 6.344-3.76 4.086-5.801 9.462-5.694 15.053.967 28.388 32.23 45.162 35.454 46.882l.967.43.967-.43c3.652-1.935 7.09-4.193 10.313-6.559l.645-12.043c0-1.398.322-2.796.645-4.086 1.289-3.226 3.115-4.731 6.123-4.731 3.009 0 5.157 2.15 6.017 5.699 0 .107.215 1.72.322 2.258 7.198-8.71 10.959-17.957 11.388-27.527.215-5.591-1.826-10.968-5.586-15.054zM42.003 53.182c0 1.075-.86 2.043-2.041 2.043h-.645c-1.074 0-2.041-.86-2.041-2.043v-.645c0-1.075.86-2.043 2.041-2.043h.645c1.074 0 2.041.968 2.041 2.043v.645zm7.413-18.817c-1.074 1.72-2.47 3.226-4.082 4.516-.967.86-1.827 1.72-2.579 2.688-.43.538-.752 1.29-.967 1.936-.107.537-.215 1.075-.215 1.72-.107 1.075-.967 1.828-2.04 1.828v-.107c-1.075 0-2.042-.86-2.042-2.043v-.108c0-1.183.215-2.258.645-3.333.43-.968.966-1.828 1.611-2.689l2.9-2.903c1.075-.86 2.042-1.828 2.794-3.01.43-.753.645-1.613.645-2.473 0-1.613-.645-3.119-1.934-4.194-1.182-1.183-2.9-1.828-4.62-1.828-1.611 0-3.223.538-4.405 1.613-.967.968-1.611 2.15-1.934 3.548-.322.968-1.181 1.506-2.148 1.398h-.215c-1.074-.107-1.934-1.183-1.827-2.258v-.323c.538-1.828 1.505-3.548 2.901-4.838 2.042-1.72 4.727-2.58 7.413-2.473 2.901-.108 5.694.86 7.843 2.688 1.826 1.613 2.9 3.978 2.9 6.451.323 1.506 0 2.904-.644 4.194z"/>
    <path stroke="#F3F4FE" stroke-linecap="round" stroke-linejoin="round" stroke-width="3" d="M80.035 134.795l-.644-10.43c-.108-1.613.751-3.226 2.256-3.979 2.9-1.505 4.942-4.301 5.371-7.526V87.053c0-1.828-1.396-3.226-3.223-3.333h-1.074c-1.719 0-3.223 1.505-3.223 3.226v2.903-4.623c0-1.936-1.612-3.55-3.545-3.55h-.538c-1.934 0-3.545 1.614-3.545 3.55v-1.399c0-2.043-1.719-3.763-3.76-3.763h-.752c-2.042 0-3.76 1.72-3.76 3.763v6.022h-.753l-1.933-35.162v-.43c0-2.58-1.29-4.623-2.794-4.623s-2.793 2.043-2.793 4.623v.108l-1.504 30.753-.43 7.742c-.107 2.795-2.149 5.053-4.942 5.376h-.43c-1.181 0-2.256-.538-3.008-1.505-1.182-1.506-2.363-2.904-3.438-4.194-1.182-1.505-2.578-2.903-4.082-4.194-2.686-1.935-8.488-2.15-8.918 0-.214.753 1.505 2.366 2.794 3.656 4.082 3.979 14.289 22.043 16.975 25.162.86 1.29 2.04 2.258 3.438 3.01 1.504.753 2.363 2.258 2.256 3.979l-.645 10.43"/>
</svg>
