<svg xmlns="http://www.w3.org/2000/svg" width="81" height="148" fill="none" viewBox="0 0 81 148">
    <g clip-path="url(#clip0)">
        <path stroke="#F3F4FE" stroke-miterlimit="10" stroke-width="3" d="M36.25 43.67c-3.334 1.844-7.163 2.89-11.24 2.89-12.859 0-23.29-10.427-23.29-23.28C1.72 10.427 12.151 0 25.01 0c12.857 0 23.288 10.427 23.288 23.28 0 4.971-1.553 9.575-4.217 13.36"/>
        <path fill="#F1F2F9" d="M25.03 31.885c-1.067 0-1.92-.885-1.876-1.952.043-1.024.194-2.21.625-3.04.4-.777.81-1.64 1.5-2.47.507-.604 1.413-1.488 2.729-2.642s2.168-2.08 2.556-2.771c.389-.69.594-1.445.594-2.254 0-1.477-.572-2.77-1.726-3.892-1.154-1.122-2.567-1.672-4.24-1.672-1.617 0-2.966.507-4.045 1.52-.809.756-1.413 1.834-1.801 3.236-.248.873-1.122 1.412-2.028 1.304l-.194-.021c-1.154-.14-1.899-1.283-1.586-2.394.529-1.855 1.435-3.343 2.708-4.464 1.736-1.531 4.034-2.297 6.882-2.297 3.02 0 5.436.82 7.227 2.47 1.79 1.65 2.697 3.633 2.697 5.962 0 1.348-.313 2.588-.95 3.731-.636 1.143-1.865 2.523-3.71 4.152-1.24 1.1-2.05 1.908-2.427 2.426-.378.517-.658 1.121-.842 1.79-.108.377-.183.905-.237 1.552-.075.96-.884 1.726-1.855 1.726zm-2.092 5.736v-.571c0-1.035.841-1.877 1.877-1.877h.572c1.035 0 1.877.841 1.877 1.877v.571c0 1.035-.842 1.876-1.877 1.876h-.572c-1.046-.01-1.877-.84-1.877-1.876z"/>
        <path stroke="#F1F2F9" stroke-linecap="round" stroke-linejoin="round" stroke-miterlimit="10" stroke-width="3" d="M80.012 81.464v-4.033c0-2.458-2.006-4.464-4.466-4.464h-1.51c-2.448 0-4.444 1.995-4.466 4.443v4.054-4.033-2.307c0-2.685-2.2-4.885-4.886-4.885h-.701c-2.686 0-4.887 2.2-4.887 4.885v6.34-8.281c0-2.847-2.33-5.165-5.167-5.165h-1.1c-2.848 0-5.167 2.329-5.167 5.165v8.281h-1.036L44.2 33.297c.011-.172.022-.356.022-.539 0-3.472-1.704-6.286-3.819-6.286-2.114 0-3.818 2.814-3.818 6.286v.216l-2.071 41.999-.518 10.589c-.184 3.763-3.031 6.987-6.785 7.289-.205.021-.41.021-.626.021h-.032c-1.575-.01-3.053-.798-4.056-2.016-1.65-2.016-3.269-3.947-4.746-5.65-2.384-2.74-4.402-4.863-5.588-5.704C8.537 76.924.609 76.526.016 79.426c-.227 1.11 2.06 3.289 3.786 4.993 5.512 5.434 19.59 30.062 23.138 34.418 1.208 1.715 2.794 3.138 4.66 4.141 2.006 1.078 3.268 3.138 3.14 5.402l-.864 14.266c0 2.512 2.05 4.561 4.563 4.561h27.626c2.448 0 4.455-2.006 4.455-4.453l-.96-14.277c-.151-2.243 1.024-4.399 3.042-5.391 3.958-1.941 6.817-5.78 7.4-10.352.01-.054.021-.108.021-.151V81.464"/>
    </g>
    <defs>
        <clipPath id="clip0">
            <path fill="#fff" d="M0 0H80.023V147.207H0z"/>
        </clipPath>
    </defs>
</svg>
