<svg xmlns="http://www.w3.org/2000/svg" width="417" height="302" fill="none" viewBox="0 0 417 302">
    <path fill="#A8B3F9" d="M66.476 63.233c-12.323 2.61-25.133 5.443-35.025 13.239-8.354 6.576-21.37 18.717-25.315 28.581-16.707 41.668 2.182 92.37 38.848 118.301 17.244 12.196 38.736 18.1 54.233 32.456 9.802 9.08 16.667 21.1 27.097 29.446 15.239 12.187 35.815 14.883 55.287 16.188 13.528.916 27.582 1.31 40.133-3.829 9.073-3.713 16.758-10.082 24.302-16.36l49.976-41.698c8.03-6.693 15.538-17.351 25.993-17.281 94.099.673 100.443-109.974-43.976-158.982-12.728-4.32-21.457-16.33-33.415-22.486-24.702-12.722-53.13-8.6-78.045.203-31.633 11.204-67.265 15.246-100.093 22.222z" opacity=".18"/>
    <path fill="#425AF2" d="M312.548 101.47v131.808c-.001 1.651-.327 3.287-.96 4.812-.634 1.526-1.561 2.912-2.731 4.079-1.169 1.167-2.557 2.093-4.084 2.724-1.527.632-3.164.956-4.817.956H102.66c-3.338 0-6.54-1.325-8.9-3.684-2.36-2.358-3.686-5.557-3.686-8.892V101.47c-.001-3.333 1.322-6.53 3.68-8.89 2.356-2.359 5.555-3.686 8.891-3.69h197.311c1.654-.001 3.291.324 4.819.956 1.528.632 2.917 1.559 4.086 2.727 1.169 1.168 2.097 2.556 2.729 4.082.633 1.527.958 3.163.958 4.815z"/>
    <path fill="#425AF2" d="M309.135 92.912H93.157l1.752-1.34c.08-.07.165-.137.253-.198l102.736-78.692 3.246-2.484 104.533 80.068 3.458 2.646z"/>
    <path fill="#425AF2" d="M312.548 101.47l-2.628 1.897-19.133 13.846-92.889 67.224-89.334-68.742-18.49-14.225.238-2.443c.45-2.29 1.534-4.41 3.129-6.116.447-.487.935-.935 1.458-1.34.08-.07.165-.136.253-.197 2.168-1.618 4.802-2.49 7.508-2.484h197.296c3.128.002 6.143 1.168 8.459 3.268 2.316 2.101 3.768 4.988 4.072 8.098.04.405.061.81.061 1.214z"/>
    <path fill="url(#prefix__paint0_linear)" d="M94.899 91.561c-.52.408-1.008.857-1.458 1.341h-.284l1.742-1.34z" opacity=".61"/>
    <path fill="url(#prefix__paint1_linear)" d="M312.548 101.471l-2.628 1.902-19.133 13.841-92.889 67.224-89.334-68.737-18.49-14.23.238-2.438c.585-2.959 2.213-5.61 4.587-7.472l.253-.192 102.746-78.687 3.246-2.484 104.533 80.068c1.885.96 3.498 2.378 4.688 4.125 1.19 1.748 1.92 3.767 2.122 5.871.04.402.061.805.061 1.209z"/>
    <path fill="#fff" d="M290.787 91.733v25.486l-34.281 24.787-7.862 5.706-50.746 36.726-47.728-36.726-7.396-5.686-34.221-26.305V91.733c0-.98.194-1.953.57-2.859.375-.906.926-1.73 1.621-2.424.694-.694 1.518-1.244 2.426-1.62.907-.375 1.879-.568 2.861-.568h167.283c1.982.002 3.882.79 5.283 2.191 1.401 1.401 2.189 3.3 2.19 5.28z"/>
    <path fill="#000405" d="M197.898 184.438l-82.454 61.421h166.61l-84.156-61.421z" opacity=".05"/>
    <path fill="#425AF2" d="M126.775 45.63c-4.152-8.899-19.745-7.437-19.745-7.437 9.619-5.67 7.776-20.073 7.66-20.922 4.207 12.555 18.732 9.783 20.034 9.51-9.645 2.377-7.949 18.848-7.949 18.848zM99.739 63.885C97.1 58.23 87.183 59.16 87.183 59.16c6.278-3.728 4.855-13.324 4.855-13.324v.056c2.694 7.937 11.908 6.176 12.728 6.004-6.106 1.518-5.027 11.99-5.027 11.99z"/>
    <path fill="url(#prefix__paint2_linear)" d="M356.428 67.082s-.081 1.462-.183 3.364c-.8 1.78-1.549 3.233-1.959 3.956-.825 1.462-4.217 3.763-7.594 4.224.033-1.189-.074-2.377-.319-3.541-1.317-3.253 10.055-8.003 10.055-8.003z"/>
    <path fill="url(#prefix__paint3_linear)" d="M411.952 32.497c-.302.098-.623.124-.936.076-1.021-.078-2.046-.095-3.069-.051-.688.03-2.111.506-2.146-.561 0-.284.071-.562.055-.845-.006-.123-.023-.245-.05-.364.844-.512 1.619-1.131 2.303-1.842.311.104.604.252.871.44l1.995 1.29c.354.233.709.466 1.048.718.15.094.27.23.344.39.032.154.007.314-.069.451-.076.137-.199.243-.346.298z"/>
    <path fill="url(#prefix__paint4_linear)" d="M315.418 8.048c.211.243.476.432.775.552.907.475 1.786 1.002 2.632 1.578.573.39 1.519 1.553 2.122.653.162-.233.238-.506.4-.744.074-.1.153-.197.238-.288-.46-.877-.801-1.81-1.013-2.778-.318-.074-.646-.102-.972-.08l-2.374.045c-.426-.01-.853.01-1.276.056-.18-.001-.357.051-.507.151-.106.116-.167.266-.172.423-.005.157.048.31.147.432z"/>
    <path fill="#fff" d="M109.262 37.465l-2.222.728c9.619-5.67 7.776-20.073 7.66-20.922.152.682 2.389 10.188 1.169 13.309-1.524 3.9-6.607 6.885-6.607 6.885zM93.365 54.856c-1.175 1.624-5.843 4.128-6.162 4.295 6.278-3.729 4.855-13.325 4.855-13.325v.056c.248.657 2.45 7.385 1.307 8.974zM90.449 108.391l103.116 79.274 4.333-3.228-107.824-82.966.375 6.92zM201.311 187.154l111.237-79.997v-5.459l-114.65 82.962 3.413 2.494zM312.487 100.485l-.304.849-2.263 2.262c1.59-2.742-2.901-9.106-2.901-9.106l-1.792-1.34-5.382-4.047L197.898 12.91l3.246-2.484 104.533 80.063c1.885.96 3.496 2.38 4.686 4.126 1.191 1.747 1.921 3.766 2.124 5.87z" opacity=".22"/>
    <path stroke="#425AF2" stroke-linecap="round" stroke-linejoin="round" stroke-width="8" d="M233.149 109.555l-34.291 34.779-15.587-15.809"/>
    <defs>
        <linearGradient id="prefix__paint0_linear" x1="93.223" x2="95.159" y1="94.404" y2="89.137" gradientUnits="userSpaceOnUse">
            <stop offset=".36" stop-color="#00272E"/>
            <stop offset=".75" stop-color="#3F80A1" stop-opacity=".25"/>
            <stop offset="1" stop-color="#69B9EB" stop-opacity="0"/>
        </linearGradient>
        <linearGradient id="prefix__paint1_linear" x1="225.142" x2="163.976" y1="15.99" y2="233.538" gradientUnits="userSpaceOnUse">
            <stop stop-opacity="0"/>
            <stop offset=".91" stop-opacity=".8"/>
            <stop offset="1"/>
        </linearGradient>
        <linearGradient id="prefix__paint2_linear" x1="7402.94" x2="7346.29" y1="5363.94" y2="4804.78" gradientUnits="userSpaceOnUse">
            <stop stop-color="#ECC4D7"/>
            <stop offset=".42" stop-color="#EFD4D1"/>
            <stop offset="1" stop-color="#F2EAC9"/>
        </linearGradient>
        <linearGradient id="prefix__paint3_linear" x1="5737.48" x2="5724.52" y1="1975.21" y2="2152.13" gradientUnits="userSpaceOnUse">
            <stop stop-color="#ECC4D7"/>
            <stop offset=".42" stop-color="#EFD4D1"/>
            <stop offset="1" stop-color="#F2EAC9"/>
        </linearGradient>
        <linearGradient id="prefix__paint4_linear" x1="-2054.2" x2="-1934.03" y1="-4085.76" y2="-4246.07" gradientUnits="userSpaceOnUse">
            <stop stop-color="#ECC4D7"/>
            <stop offset=".42" stop-color="#EFD4D1"/>
            <stop offset="1" stop-color="#F2EAC9"/>
        </linearGradient>
    </defs>
</svg>
