<svg width="364" height="301" viewBox="0 0 364 301" fill="none" xmlns="http://www.w3.org/2000/svg">
<path opacity="0.24" d="M87.4029 293.273C92.6472 293.577 97.4739 296.483 102.999 297.229C140.19 302.255 177.889 302.255 215.08 297.229C232.555 294.872 249.571 290.386 267.171 289.329C285.231 288.238 303.941 290.099 321.339 284.073C342.131 276.866 357.184 257.995 358.025 238.074C358.831 219.077 348.02 201.453 342.215 183.184C335.347 161.508 335.533 138.212 342.746 116.649C349.995 94.9915 364.296 74.3602 362.953 51.79C361.074 20.2048 322.622 -5.25314 288.31 2.35381C270.34 6.33328 255.263 17.4842 237.495 22.1319C208.637 29.6911 177.63 19.1487 147.751 22.1319C122.371 24.7212 98.9953 37.2205 82.0154 54.2958C65.0355 71.3712 54.0755 92.7064 47.453 114.746C41.6121 134.208 38.8079 154.791 27.8301 172.385C19.7876 185.266 7.4554 196.423 3.8518 210.838C-0.372293 227.728 -12.9073 287.51 87.4029 293.273Z" fill="#425AF2"/>
<path d="M47.5664 142.513V173.06C47.5656 174.739 47.8956 176.401 48.5376 177.952C49.1796 179.503 50.1209 180.912 51.3077 182.099C52.4946 183.285 53.9037 184.227 55.4546 184.869C57.0054 185.511 58.6676 185.841 60.3461 185.84H62.6431V199.27L69.6176 185.84H122.651C126.041 185.84 129.291 184.493 131.688 182.097C134.085 179.7 135.431 176.45 135.431 173.06V142.513C135.432 140.835 135.102 139.172 134.46 137.622C133.818 136.071 132.877 134.662 131.69 133.475C130.503 132.288 129.094 131.347 127.543 130.705C125.992 130.063 124.33 129.733 122.651 129.733H60.3461C58.6676 129.733 57.0054 130.063 55.4546 130.705C53.9037 131.347 52.4946 132.288 51.3077 133.475C50.1209 134.662 49.1796 136.071 48.5376 137.622C47.8956 139.172 47.5656 140.835 47.5664 142.513Z" fill="#425AF2"/>
<path d="M47.5664 142.513V173.06C47.5656 174.739 47.8956 176.401 48.5376 177.952C49.1796 179.503 50.1209 180.912 51.3077 182.099C52.4946 183.285 53.9037 184.227 55.4546 184.869C57.0054 185.511 58.6676 185.841 60.3461 185.84H62.6431V199.27L69.6176 185.84H122.651C126.041 185.84 129.291 184.493 131.688 182.097C134.085 179.7 135.431 176.45 135.431 173.06V142.513C135.432 140.835 135.102 139.172 134.46 137.622C133.818 136.071 132.877 134.662 131.69 133.475C130.503 132.288 129.094 131.347 127.543 130.705C125.992 130.063 124.33 129.733 122.651 129.733H60.3461C58.6676 129.733 57.0054 130.063 55.4546 130.705C53.9037 131.347 52.4946 132.288 51.3077 133.475C50.1209 134.662 49.1796 136.071 48.5376 137.622C47.8956 139.172 47.5656 140.835 47.5664 142.513Z" fill="url(#paint0_linear)"/>
<path d="M58.8963 144.488H124.364V140.831H58.8963V144.488Z" fill="#425AF2"/>
<path d="M58.8963 154.147H124.364V150.49H58.8963V154.147Z" fill="#425AF2"/>
<path d="M58.8963 163.801H124.364V160.143H58.8963V163.801Z" fill="#425AF2"/>
<path d="M173.376 291.967C228.206 291.967 272.654 284.616 272.654 275.548C272.654 266.48 228.206 259.129 173.376 259.129C118.547 259.129 74.0983 266.48 74.0983 275.548C74.0983 284.616 118.547 291.967 173.376 291.967Z" fill="url(#paint1_linear)"/>
<path d="M221.041 36.8574H131.547C121.296 36.8574 112.986 45.1674 112.986 55.4184V262.882C112.986 273.133 121.296 281.443 131.547 281.443H221.041C231.292 281.443 239.602 273.133 239.602 262.882V55.4184C239.602 45.1674 231.292 36.8574 221.041 36.8574Z" fill="#425AF2"/>
<path d="M230.724 57.5058V260.459H121.261V57.5058C121.268 55.4713 122.079 53.5218 123.517 52.0832C124.956 50.6446 126.905 49.8335 128.94 49.8273H157.148C157.151 51.5473 157.836 53.196 159.053 54.4117C160.27 55.6274 161.919 56.311 163.639 56.3125H189.085C189.94 56.3149 190.786 56.1488 191.576 55.8237C192.366 55.4986 193.084 55.0209 193.689 54.418C194.294 53.8151 194.775 53.0987 195.103 52.31C195.431 51.5212 195.6 50.6755 195.601 49.8213H223.045C225.082 49.8244 227.034 50.6353 228.473 52.0759C229.913 53.5165 230.722 55.4693 230.724 57.5058Z" fill="url(#paint2_linear)"/>
<path opacity="0.24" d="M224.543 205.666H126.243V255.609H224.543V205.666Z" fill="#425AF2"/>
<path opacity="0.51" d="M225.289 95.875H126.01V191.418H225.289V95.875Z" fill="#425AF2"/>
<path d="M168.18 224.095L173.818 218.522L177.6 219.376V220.456L171.652 226.941L166.635 227.173L168.18 224.095Z" fill="#606161"/>
<path d="M173.382 219.322L176.252 220.116L170.805 225.718L168.711 225.736L169.063 223.528L173.382 219.322Z" fill="url(#paint3_linear)"/>
<path d="M141.546 240.162C141.546 240.162 163.258 230.175 167.374 231.774C171.491 233.373 182.469 253.133 182.469 253.133L174.719 252.978L162.369 242.322L151.868 251.122L136.606 250.216L141.546 240.162Z" fill="#606161"/>
<path d="M141.546 240.162C141.546 240.162 163.258 230.175 167.374 231.774C171.491 233.373 182.469 253.133 182.469 253.133L174.719 252.978L162.369 242.322L151.868 251.122L136.606 250.216L141.546 240.162Z" fill="url(#paint4_linear)"/>
<path d="M124.25 255.06C124.25 255.06 125.718 260.078 129.656 260.621C133.593 261.164 192.349 259.762 192.349 259.762C192.832 259.488 193.249 259.111 193.569 258.657C193.888 258.203 194.104 257.684 194.198 257.137C194.664 255.126 193.429 252.96 193.429 252.96L144.255 247.274L124.25 255.06Z" fill="#606161"/>
<path d="M124.25 255.06C124.25 255.06 125.718 260.078 129.656 260.621C133.593 261.164 192.349 259.762 192.349 259.762C192.832 259.488 193.249 259.111 193.569 258.657C193.888 258.203 194.104 257.684 194.198 257.137C194.664 255.126 193.429 252.96 193.429 252.96L144.255 247.274L124.25 255.06Z" fill="url(#paint5_linear)"/>
<path d="M164.785 227.013C166.462 227.036 168.099 227.535 169.504 228.451C170.197 228.917 170.762 229.55 171.148 230.291C171.534 231.032 171.728 231.858 171.712 232.693C171.717 232.936 171.639 233.174 171.491 233.367C171.316 233.533 171.082 233.623 170.841 233.618C169.51 233.659 168.663 232.108 167.374 231.774C166.545 231.559 165.674 231.881 164.821 231.828C164.314 231.789 163.825 231.621 163.401 231.34C162.977 231.059 162.632 230.675 162.398 230.223C162.205 229.84 162.099 229.42 162.089 228.992C162.079 228.563 162.164 228.138 162.339 227.747C162.822 226.911 163.896 226.947 164.785 227.013Z" fill="#F4A982"/>
<path d="M150.788 226.625C150.782 226.703 150.792 226.782 150.816 226.857C150.841 226.932 150.88 227.001 150.931 227.06C151.054 227.143 151.203 227.177 151.349 227.156L162.876 226.929C163.155 228.318 163.169 229.747 162.918 231.141C162.896 231.371 162.811 231.59 162.673 231.774C162.429 231.985 162.118 232.103 161.796 232.108C156.927 232.736 152.131 233.839 147.477 235.401C147.01 235.613 146.494 235.692 145.985 235.628C145.043 235.419 144.613 234.333 144.416 233.391C143.754 230.211 143.999 226.917 143.623 223.69C143.438 222.12 143.122 220.456 143.772 219.012C144.369 217.676 148.664 214.382 149.571 216.506C150.168 217.914 150.126 220.032 150.305 221.548C150.52 223.234 150.681 224.927 150.788 226.625Z" fill="#425AF2"/>
<path d="M150.788 226.625C150.782 226.703 150.792 226.782 150.816 226.857C150.841 226.932 150.88 227.001 150.931 227.06C151.054 227.143 151.203 227.177 151.349 227.156L162.876 226.929C163.155 228.318 163.169 229.747 162.918 231.141C162.896 231.371 162.811 231.59 162.673 231.774C162.429 231.985 162.118 232.103 161.796 232.108C156.927 232.736 152.131 233.839 147.477 235.401C147.01 235.613 146.494 235.692 145.985 235.628C145.043 235.419 144.613 234.333 144.416 233.391C143.754 230.211 143.999 226.917 143.623 223.69C143.438 222.12 143.122 220.456 143.772 219.012C144.369 217.676 148.664 214.382 149.571 216.506C150.168 217.914 150.126 220.032 150.305 221.548C150.52 223.234 150.681 224.927 150.788 226.625Z" fill="url(#paint6_linear)"/>
<path d="M164.958 227.096C165.373 226.122 165.983 225.243 166.75 224.514C167.518 223.784 168.427 223.219 169.421 222.854C169.886 223.654 168.401 224.764 169.033 225.444C169.162 225.545 169.311 225.618 169.471 225.657C169.63 225.696 169.796 225.7 169.958 225.671L173.776 225.509C173.894 225.489 174.016 225.515 174.116 225.581C174.186 225.654 174.229 225.749 174.236 225.85C174.25 226.233 174.172 226.614 174.008 226.961C173.844 227.308 173.599 227.61 173.293 227.842C172.696 228.349 172.028 228.719 171.467 229.238C170.554 230.08 169.976 231.321 168.854 231.863C168.007 232.275 167.004 232.21 166.121 232.526C165.036 232.92 164.021 233.91 162.912 233.576C162.381 233.421 162.977 230.288 163.246 229.93C163.944 229.069 164.52 228.115 164.958 227.096Z" fill="#F4A982"/>
<path d="M148.998 208.172C149.672 208.773 150.399 209.312 151.17 209.782C151.461 209.996 151.812 210.111 152.172 210.111C152.578 210.031 152.939 209.804 153.187 209.472C153.879 208.719 154.45 207.864 154.881 206.937C154.931 206.798 155.01 206.672 155.114 206.567C155.472 206.25 156.05 206.567 156.504 206.4C156.668 206.332 156.811 206.221 156.916 206.078C157.021 205.935 157.085 205.765 157.1 205.588C157.131 205.236 157.105 204.882 157.023 204.538C156.878 203.762 156.834 202.969 156.892 202.181C157.017 200.923 157.518 199.67 157.262 198.435C156.951 197.367 156.328 196.417 155.472 195.708C154.897 195.114 154.228 194.62 153.491 194.246C152.616 193.889 151.679 193.711 150.734 193.721C149.581 193.6 148.42 193.849 147.417 194.431C146.492 195.076 145.979 196.15 145.508 197.176L141.493 205.922C141.369 206.149 141.305 206.404 141.308 206.662C141.349 206.883 141.448 207.088 141.594 207.259C142.399 208.4 143.46 209.337 144.691 209.997C145.383 210.367 146.606 210.874 147.364 210.397C148.121 209.92 148.467 208.78 148.998 208.172Z" fill="#F4A982"/>
<path d="M161.098 197.021C161.684 196.35 162.087 195.54 162.269 194.669C162.45 193.797 162.405 192.894 162.136 192.045C162.062 191.767 161.918 191.512 161.718 191.305C161.436 191.101 161.109 190.97 160.764 190.923C158.478 190.403 156.281 189.551 154.243 188.394C153.103 187.743 151.946 186.98 150.663 186.938C149.95 186.928 149.251 187.131 148.655 187.522C148.059 187.912 147.592 188.471 147.316 189.127C146.983 188.92 146.604 188.798 146.213 188.772C145.822 188.746 145.43 188.817 145.073 188.978C144.357 189.309 143.76 189.85 143.36 190.529C142.251 192.319 142.203 194.515 142.167 196.603L142.125 203.369C142.117 203.494 142.133 203.62 142.173 203.739C142.243 203.867 142.354 203.968 142.488 204.025C142.622 204.082 142.772 204.093 142.913 204.055C143.193 203.977 143.45 203.834 143.665 203.637C144.542 202.945 145.407 202.241 146.272 201.531C145.884 200.952 145.71 200.256 145.777 199.562C145.845 198.868 146.15 198.219 146.642 197.725C146.758 197.597 146.91 197.506 147.077 197.462C147.221 197.456 147.365 197.483 147.496 197.542C147.628 197.601 147.744 197.69 147.835 197.802C148.361 198.382 148.646 199.141 148.632 199.924C148.617 200.707 148.305 201.454 147.757 202.014C148.721 201.645 149.5 200.909 149.923 199.968C150.334 199.032 150.872 198.156 151.522 197.367C152.238 196.639 153.425 196.233 154.29 196.77C155.484 197.504 155.657 198.727 157.273 198.727C157.994 198.724 158.707 198.57 159.365 198.276C160.024 197.982 160.614 197.555 161.098 197.021Z" fill="#606161"/>
<path d="M161.098 197.021C161.684 196.35 162.087 195.54 162.269 194.669C162.45 193.797 162.405 192.894 162.136 192.045C162.062 191.767 161.918 191.512 161.718 191.305C161.436 191.101 161.109 190.97 160.764 190.923C158.478 190.403 156.281 189.551 154.243 188.394C153.103 187.743 151.946 186.98 150.663 186.938C149.95 186.928 149.251 187.131 148.655 187.522C148.059 187.912 147.592 188.471 147.316 189.127C146.983 188.92 146.604 188.798 146.213 188.772C145.822 188.746 145.43 188.817 145.073 188.978C144.357 189.309 143.76 189.85 143.36 190.529C142.251 192.319 142.203 194.515 142.167 196.603L142.125 203.369C142.117 203.494 142.133 203.62 142.173 203.739C142.243 203.867 142.354 203.968 142.488 204.025C142.622 204.082 142.772 204.093 142.913 204.055C143.193 203.977 143.45 203.834 143.665 203.637C144.542 202.945 145.407 202.241 146.272 201.531C145.884 200.952 145.71 200.256 145.777 199.562C145.845 198.868 146.15 198.219 146.642 197.725C146.758 197.597 146.91 197.506 147.077 197.462C147.221 197.456 147.365 197.483 147.496 197.542C147.628 197.601 147.744 197.69 147.835 197.802C148.361 198.382 148.646 199.141 148.632 199.924C148.617 200.707 148.305 201.454 147.757 202.014C148.721 201.645 149.5 200.909 149.923 199.968C150.334 199.032 150.872 198.156 151.522 197.367C152.238 196.639 153.425 196.233 154.29 196.77C155.484 197.504 155.657 198.727 157.273 198.727C157.994 198.724 158.707 198.57 159.365 198.276C160.024 197.982 160.614 197.555 161.098 197.021Z" fill="url(#paint7_linear)"/>
<path d="M144.202 241.934C144.404 243.724 144.727 245.549 144.255 247.303C143.712 249.296 142.191 250.937 140.467 252.22C137.03 254.725 132.882 256.065 128.63 256.044C126.273 256.044 123.63 255.447 122.449 253.52C121.667 252.261 121.709 250.716 121.774 249.26L122.115 241.683C122.359 236.182 122.616 230.64 124.018 225.294C125.42 219.948 128.081 214.752 132.466 211.065C133.876 209.814 135.538 208.882 137.34 208.332C144.1 206.477 151.51 210.623 149.118 217.448C146.182 225.819 143.175 232.859 144.202 241.934Z" fill="#425AF2"/>
<path d="M134.083 241.493C134.184 242.089 133.868 243.628 134.19 244.148C134.966 245.377 135.58 254.577 136.994 254.225C138.408 253.872 142.853 249.159 143.993 248.258C144.983 247.471 144.351 240.407 143.993 239.184C143.787 238.675 143.487 238.21 143.11 237.811C141.708 236.022 141.356 233.599 141.32 231.314C141.284 229.029 141.511 226.708 141.081 224.465C140.628 222.078 139.148 219.394 136.595 218.863C133.224 218.171 133.182 219.925 133.862 222.234C135.676 228.379 133.045 235.174 134.083 241.493Z" fill="url(#paint8_linear)"/>
<path d="M197.898 254.117C198.286 254.586 198.48 255.186 198.441 255.794C198.492 256.271 198.478 256.752 198.399 257.226C198.318 257.705 198.052 258.133 197.659 258.419C197.173 258.66 196.628 258.755 196.09 258.693L194.676 258.658C194.19 258.673 193.705 258.613 193.238 258.479C193.005 258.411 192.791 258.291 192.612 258.127C192.433 257.964 192.294 257.762 192.206 257.536C192.108 257.185 192.108 256.813 192.206 256.462C192.468 255.269 192.802 253.64 194.216 253.628C195.189 253.61 197.176 253.455 197.898 254.117Z" fill="#F4A982"/>
<path d="M201.436 243.402C200.193 245.974 198.798 248.471 197.259 250.878C196.748 251.54 196.428 252.331 196.334 253.163C196.383 253.723 196.503 254.274 196.692 254.803C196.927 255.672 196.989 256.578 196.877 257.47C196.779 257.974 196.725 258.485 196.716 258.998C196.715 259.254 196.776 259.508 196.893 259.736C197.01 259.965 197.181 260.162 197.39 260.31C197.726 260.481 198.1 260.561 198.476 260.543L202.969 260.734C203.242 260.761 203.519 260.743 203.786 260.68C204.288 260.48 204.698 260.102 204.938 259.618C207.056 256.158 206.358 251.743 207.092 247.751C207.396 246.099 207.957 244.476 207.998 242.793C208.048 242.301 207.992 241.804 207.835 241.335C207.677 240.866 207.422 240.436 207.086 240.073C206.346 239.416 204.968 239.476 204.55 240.365" fill="#606161"/>
<path d="M201.436 243.402C200.193 245.975 198.798 248.471 197.259 250.878C196.748 251.541 196.428 252.331 196.334 253.163C196.383 253.723 196.503 254.274 196.692 254.804C196.927 255.672 196.989 256.578 196.877 257.47C196.779 257.974 196.725 258.485 196.716 258.998C196.715 259.255 196.776 259.508 196.893 259.737C197.01 259.965 197.181 260.162 197.39 260.31C197.726 260.481 198.1 260.561 198.476 260.543C199.974 260.609 199.866 260.489 201.364 260.543C201.638 260.565 201.914 260.545 202.181 260.483C202.683 260.284 203.093 259.905 203.333 259.421C205.451 255.961 205.266 252.107 206 248.115C206.304 246.463 206.865 244.84 206.907 243.157C206.956 242.665 206.901 242.168 206.743 241.699C206.586 241.23 206.33 240.8 205.994 240.437C205.254 239.775 204.968 239.458 204.55 240.353" fill="url(#paint9_linear)"/>
<path d="M134.238 218.905C134.238 218.905 134.136 212.342 140.001 211.799C145.866 211.256 146.797 217.461 146.594 219.191C146.391 220.922 147.519 230.82 147.519 230.82L163.27 229.793L163.866 234.322C163.866 234.322 141.737 241.01 140.502 239.572C139.267 238.134 137.728 235.372 134.238 218.905Z" fill="#425AF2"/>
<path d="M128.099 216.065C128.099 216.065 132.203 216.435 134.876 215.194C137.549 213.953 144.75 212.551 146.904 213.099C149.47 213.756 149.237 211.906 149.237 211.906L139.232 208.804C139.232 208.804 130.461 212.222 129.715 213.654C129.264 214.513 128.722 215.321 128.099 216.065Z" fill="url(#paint10_linear)"/>
<path d="M141.648 204.699C140.616 203.744 139.518 202.754 138.146 202.443C136.774 202.133 135.073 202.796 134.769 204.168C134.656 204.663 134.644 205.313 134.172 205.474C133.874 205.576 133.576 205.403 133.242 205.415C133.009 205.445 132.79 205.538 132.607 205.684C132.424 205.831 132.284 206.024 132.203 206.244C132.007 206.674 131.935 207.145 131.738 207.568C131.249 208.648 130.103 209.227 129.208 210.003C128.313 210.778 127.621 212.151 128.337 213.093C129.053 214.036 130.342 213.797 131.398 213.511C134.029 212.795 136.612 211.84 139.309 211.417C142.006 210.993 144.9 211.142 147.256 212.514C149.846 214.03 149.774 211.041 147.936 209.979C145.55 208.607 143.694 206.56 141.648 204.699Z" fill="#425AF2"/>
<path d="M141.117 208.005C140.442 207.915 139.789 207.703 139.19 207.378C137.849 206.764 136.475 206.226 135.073 205.767C134.995 205.747 134.921 205.711 134.858 205.66C134.786 205.583 134.74 205.485 134.727 205.38C134.608 204.783 134.775 203.661 135.479 203.56C136.034 203.476 137.108 204.276 137.561 204.556C138.982 205.435 140.195 206.611 141.117 208.005Z" fill="url(#paint11_linear)"/>
<path d="M139.56 209.048C138.88 209.007 138.534 209.794 134.984 209.096C133.54 208.81 133.629 209.03 132.227 208.571C132.149 208.551 132.075 208.514 132.012 208.464C131.94 208.387 131.894 208.288 131.881 208.183C131.762 207.616 131.929 206.465 132.633 206.364C133.188 206.28 134.262 207.079 134.715 207.36C136.129 208.255 136.947 208.971 139.56 209.048Z" fill="url(#paint12_linear)"/>
<path opacity="0.24" d="M137.513 92.1403C142.357 92.1403 146.284 88.2137 146.284 83.37C146.284 78.5262 142.357 74.5996 137.513 74.5996C132.67 74.5996 128.743 78.5262 128.743 83.37C128.743 88.2137 132.67 92.1403 137.513 92.1403Z" fill="#425AF2"/>
<path opacity="0.51" d="M186.723 78.7041H150.394V82.9342H186.723V78.7041Z" fill="#425AF2"/>
<path opacity="0.24" d="M199.825 86.7285H150.394V88.8406H199.825V86.7285Z" fill="#425AF2"/>
<path d="M236.171 161.915C236.171 176.383 251.23 188.101 269.797 188.101C272.916 188.112 276.027 187.766 279.068 187.069L293.745 194.58L287.827 183.99C297.199 179.372 303.404 171.241 303.404 161.915C303.404 147.441 288.346 135.729 269.773 135.729C251.2 135.729 236.171 147.447 236.171 161.915Z" fill="#425AF2"/>
<path d="M235.401 161.546C235.401 176.02 250.46 187.731 269.027 187.731C272.147 187.742 275.258 187.396 278.299 186.699L292.975 194.211L287.081 183.597C296.454 178.979 302.659 170.853 302.659 161.522C302.659 147.054 287.6 135.336 269.027 135.336C250.454 135.336 235.401 147.077 235.401 161.546Z" fill="url(#paint13_linear)"/>
<defs>
<linearGradient id="paint0_linear" x1="94.1686" y1="221.912" x2="86.0367" y2="26.7324" gradientUnits="userSpaceOnUse">
<stop stop-color="white" stop-opacity="0"/>
<stop offset="0.95" stop-color="white"/>
</linearGradient>
<linearGradient id="paint1_linear" x1="175.828" y1="222.735" x2="135.521" y2="1091.6" gradientUnits="userSpaceOnUse">
<stop stop-color="#010101" stop-opacity="0"/>
<stop offset="0.95" stop-color="#010101"/>
</linearGradient>
<linearGradient id="paint2_linear" x1="26717.4" y1="155903" x2="74731.4" y2="5111.01" gradientUnits="userSpaceOnUse">
<stop stop-color="white" stop-opacity="0"/>
<stop offset="0.95" stop-color="white"/>
</linearGradient>
<linearGradient id="paint3_linear" x1="2317.68" y1="2700.01" x2="2339.72" y2="2543.39" gradientUnits="userSpaceOnUse">
<stop stop-color="white" stop-opacity="0"/>
<stop offset="0.95" stop-color="white"/>
</linearGradient>
<linearGradient id="paint4_linear" x1="13223" y1="8805.41" x2="13343.7" y2="9596.22" gradientUnits="userSpaceOnUse">
<stop stop-color="#010101" stop-opacity="0"/>
<stop offset="0.95" stop-color="#010101"/>
</linearGradient>
<linearGradient id="paint5_linear" x1="20560.8" y1="5891.13" x2="20570.1" y2="6267.9" gradientUnits="userSpaceOnUse">
<stop stop-color="#010101" stop-opacity="0"/>
<stop offset="0.95" stop-color="#010101"/>
</linearGradient>
<linearGradient id="paint6_linear" x1="5791.39" y1="7576.69" x2="5164.09" y2="9083.87" gradientUnits="userSpaceOnUse">
<stop stop-color="#010101" stop-opacity="0"/>
<stop offset="0.95" stop-color="#010101"/>
</linearGradient>
<linearGradient id="paint7_linear" x1="5496.87" y1="5831.07" x2="6184.52" y2="5831.07" gradientUnits="userSpaceOnUse">
<stop stop-color="#010101" stop-opacity="0"/>
<stop offset="0.95" stop-color="#010101"/>
</linearGradient>
<linearGradient id="paint8_linear" x1="2788.44" y1="14498.4" x2="4367.84" y2="14344.6" gradientUnits="userSpaceOnUse">
<stop stop-color="#010101" stop-opacity="0"/>
<stop offset="0.95" stop-color="#010101"/>
</linearGradient>
<linearGradient id="paint9_linear" x1="3958.58" y1="8979.6" x2="4146.23" y2="8979.6" gradientUnits="userSpaceOnUse">
<stop stop-color="#010101" stop-opacity="0"/>
<stop offset="0.95" stop-color="#010101"/>
</linearGradient>
<linearGradient id="paint10_linear" x1="5599.49" y1="2856.9" x2="5583.12" y2="2403.17" gradientUnits="userSpaceOnUse">
<stop stop-color="#010101" stop-opacity="0"/>
<stop offset="0.95" stop-color="#010101"/>
</linearGradient>
<linearGradient id="paint11_linear" x1="1784.4" y1="1758.75" x2="1816.74" y2="1587.42" gradientUnits="userSpaceOnUse">
<stop stop-color="#010101" stop-opacity="0"/>
<stop offset="0.95" stop-color="#010101"/>
</linearGradient>
<linearGradient id="paint12_linear" x1="2082.91" y1="1275.98" x2="2093" y2="1181.61" gradientUnits="userSpaceOnUse">
<stop stop-color="#010101" stop-opacity="0"/>
<stop offset="0.95" stop-color="#010101"/>
</linearGradient>
<linearGradient id="paint13_linear" x1="55841.2" y1="16441.9" x2="69977.7" y2="16570.2" gradientUnits="userSpaceOnUse">
<stop stop-color="white" stop-opacity="0"/>
<stop offset="0.95" stop-color="white"/>
</linearGradient>
</defs>
</svg>
