<svg width="382" height="300" viewBox="0 0 382 300" fill="none" xmlns="http://www.w3.org/2000/svg">
<g clip-path="url(#clip0)">
<path opacity="0.24" d="M52.6608 48.6458C46.147 65.096 45.0042 83.0621 41.6703 100.424C37.7936 120.582 30.9719 140.059 21.4243 158.231C14.6974 171.022 6.57298 183.291 2.68249 197.201C-0.669135 209.186 -0.698742 221.965 1.58107 234.199C4.33433 248.866 10.2977 262.742 19.0439 274.833C23.7811 281.347 29.5369 287.505 36.933 290.75C42.3927 293.119 48.4268 293.835 54.3544 294.445C133.977 302.635 214.273 301.765 293.699 291.852C304.003 290.567 314.425 289.092 324.024 285.143C337.922 279.428 349.208 268.923 360.146 258.632C366.944 252.254 373.913 245.634 377.709 237.118C383.429 224.298 380.984 209.192 375.595 196.259C370.206 183.327 362.088 171.655 356.054 158.983C348.093 142.177 343.917 123.829 343.82 105.233C343.743 89.6647 346.449 73.5106 341.049 58.9079C335.399 43.642 321.75 32.7522 307.538 24.8173C284.403 11.9387 258.5 4.83866 232.032 4.12127C194.347 3.13829 157.674 15.0289 120.013 14.3656C89.1911 13.8208 66.014 14.7624 52.6608 48.6458Z" fill="#425AF2"/>
<path opacity="0.24" d="M52.9628 48.6458C46.4845 65.096 45.3061 83.0621 41.9782 100.424C38.1021 120.583 31.2783 140.061 21.7263 158.231C15.0053 171.022 6.88089 183.291 2.9904 197.201C-0.361227 209.186 -0.390836 221.965 1.88898 234.199C4.63763 248.866 10.5992 262.743 19.3458 274.833C24.0831 281.347 29.8448 287.505 37.2409 290.75C42.7006 293.119 48.7288 293.835 54.6623 294.445C134.285 302.635 214.58 301.765 294.007 291.852C304.311 290.567 314.733 289.092 324.326 285.143C338.23 279.428 349.516 268.923 360.448 258.632C367.246 252.254 374.215 245.634 378.011 237.118C383.731 224.298 381.286 209.192 375.897 196.259C370.508 183.327 362.39 171.655 356.356 158.983C348.388 142.186 344.202 123.846 344.092 105.256C344.015 89.6884 346.727 73.5342 341.327 58.9316C335.678 43.6657 322.028 32.7759 307.817 24.8409C284.692 11.9593 258.8 4.85136 232.34 4.12127C194.655 3.13829 157.982 15.0289 120.321 14.3656C89.4813 13.8208 66.316 14.7624 52.9628 48.6458Z" fill="#425AF2"/>
<path opacity="0.46" d="M200.405 268.444C285.54 268.444 354.556 262.585 354.556 255.357C354.556 248.13 285.54 242.271 200.405 242.271C115.269 242.271 46.2536 248.13 46.2536 255.357C46.2536 262.585 115.269 268.444 200.405 268.444Z" fill="#425AF2"/>
<path opacity="0.24" d="M305.211 59.9385H100.507V254.054H305.211V59.9385Z" fill="#425AF2"/>
<path d="M297.85 59.3223H93.1467V253.438H297.85V59.3223Z" fill="white"/>
<path d="M288.317 90.9854H102.473V217.494H288.317V90.9854Z" fill="#425AF2"/>
<path d="M324.711 129.701C324.711 141.591 312.335 151.214 297.075 151.214C294.512 151.222 291.957 150.938 289.46 150.367L277.403 156.537L282.235 147.815C274.537 144.025 269.439 137.346 269.439 129.701C269.439 117.81 281.815 108.182 297.069 108.182C312.323 108.182 324.711 117.81 324.711 129.701Z" fill="#425AF2"/>
<path d="M321.318 129.393C321.318 141.284 308.948 150.906 293.688 150.906C291.125 150.918 288.57 150.634 286.072 150.059L274.01 156.23L278.854 147.513C271.156 143.717 266.057 137.038 266.057 129.393C266.057 117.503 278.428 107.874 293.688 107.874C308.948 107.874 321.318 117.503 321.318 129.393Z" fill="url(#paint0_linear)"/>
<path d="M112.783 140.738V165.84C112.783 167.219 112.511 168.585 111.983 169.859C111.455 171.133 110.681 172.291 109.706 173.266C108.73 174.241 107.572 175.014 106.297 175.541C105.023 176.069 103.657 176.34 102.278 176.339H100.395V187.377L94.6627 176.339H51.0856C49.7069 176.339 48.3416 176.067 47.0678 175.54C45.794 175.012 44.6366 174.239 43.6617 173.264C42.6868 172.289 41.9135 171.131 41.3858 169.858C40.8582 168.584 40.5866 167.219 40.5866 165.84V140.738C40.5859 139.359 40.8569 137.994 41.3842 136.72C41.9116 135.445 42.6849 134.288 43.66 133.313C44.6351 132.338 45.7928 131.564 47.0669 131.037C48.3411 130.51 49.7067 130.238 51.0856 130.239H102.278C103.657 130.238 105.023 130.509 106.297 131.037C107.572 131.564 108.73 132.337 109.706 133.312C110.681 134.287 111.455 135.445 111.983 136.719C112.511 137.993 112.783 139.359 112.783 140.738Z" fill="#425AF2"/>
<path d="M112.783 140.738V165.84C112.783 167.219 112.511 168.585 111.983 169.859C111.455 171.133 110.681 172.291 109.706 173.266C108.73 174.241 107.572 175.014 106.297 175.541C105.023 176.069 103.657 176.34 102.278 176.339H100.395V187.377L94.6627 176.339H51.0856C49.7069 176.339 48.3416 176.067 47.0678 175.54C45.794 175.012 44.6366 174.239 43.6617 173.264C42.6868 172.289 41.9135 171.131 41.3858 169.858C40.8582 168.584 40.5866 167.219 40.5866 165.84V140.738C40.5859 139.359 40.8569 137.994 41.3842 136.72C41.9116 135.445 42.6849 134.288 43.66 133.313C44.6351 132.338 45.7928 131.564 47.0669 131.037C48.3411 130.51 49.7067 130.238 51.0856 130.239H102.278C103.657 130.238 105.023 130.509 106.297 131.037C107.572 131.564 108.73 132.337 109.706 133.312C110.681 134.287 111.455 135.445 111.983 136.719C112.511 137.993 112.783 139.359 112.783 140.738Z" fill="url(#paint1_linear)"/>
<path d="M103.474 139.353H49.6822V142.361H103.474V139.353Z" fill="#425AF2"/>
<path d="M103.474 147.288H49.6822V150.296H103.474V147.288Z" fill="#425AF2"/>
<path d="M103.474 155.223H49.6822V158.231H103.474V155.223Z" fill="#425AF2"/>
<path opacity="0.24" d="M116.43 226.004C116.43 226.004 111.521 219.561 106.92 225.696C102.319 231.831 117.348 239.191 117.348 239.191C117.348 239.191 128.084 231.493 126.852 226.922C125.621 222.35 118.894 221.095 116.43 226.004Z" fill="#425AF2"/>
<path opacity="0.24" d="M116.43 226.004C116.43 226.004 111.521 219.561 106.92 225.696C102.319 231.831 117.348 239.191 117.348 239.191C117.348 239.191 128.084 231.493 126.852 226.922C125.621 222.35 118.894 221.095 116.43 226.004Z" fill="#425AF2"/>
<path d="M246.777 158.824C246.777 158.824 241.868 152.381 237.267 158.516C232.666 164.65 247.695 172.011 247.695 172.011C247.695 172.011 258.43 164.343 257.199 159.741C255.967 155.14 249.228 153.932 246.777 158.824Z" fill="white"/>
<path opacity="0.24" d="M149.627 230.51C149.627 234.537 145.44 237.788 140.283 237.788C139.416 237.792 138.552 237.696 137.707 237.504L133.603 239.588L135.237 236.627C132.632 235.348 130.909 233.074 130.909 230.498C130.909 226.478 135.095 223.227 140.259 223.227C145.423 223.227 149.627 226.489 149.627 230.51Z" fill="#425AF2"/>
<path opacity="0.24" d="M152.002 229.752L167.333 224.535L156.905 234.045L152.002 229.752Z" fill="#425AF2"/>
<path opacity="0.24" d="M157.674 234.607L167.64 224.949L161.198 239.356L157.674 234.607Z" fill="#425AF2"/>
<path opacity="0.24" d="M115.205 87.2019C121.049 87.2019 125.787 82.4642 125.787 76.62C125.787 70.7758 121.049 66.0381 115.205 66.0381C109.36 66.0381 104.623 70.7758 104.623 76.62C104.623 82.4642 109.36 87.2019 115.205 87.2019Z" fill="#425AF2"/>
<path d="M254.285 76.3001C254.226 77.3482 254.173 78.497 254.806 79.332C256.464 78.3431 256.962 76.2054 257.175 74.2927C257.589 70.4984 257.483 66.6653 256.861 62.8995C256.792 62.2922 256.613 61.7025 256.334 61.1586C255.803 60.3798 255.05 59.7793 254.173 59.4354C253.647 59.1446 253.056 58.9899 252.455 58.9854C252.156 58.9914 251.866 59.0896 251.624 59.2666C251.383 59.4435 251.201 59.6906 251.105 59.9743C251.052 60.3421 251.095 60.7174 251.23 61.0638C251.5 62.3381 251.934 63.5722 252.521 64.7352C253.114 65.669 253.552 66.6929 253.817 67.7671C254.426 70.5685 254.584 73.449 254.285 76.3001Z" fill="url(#paint2_linear)"/>
<path d="M231.665 62.4669C232.891 63.4143 234.495 63.7104 236.041 63.817C236.603 63.8525 237.178 63.8703 237.746 63.894C238.543 63.9285 239.297 64.2591 239.862 64.821C240.428 65.3829 240.763 66.1357 240.802 66.9318C240.849 68.1161 240.873 69.3004 240.873 70.4847C240.873 73.3153 240.772 76.2701 242.016 78.8105C242.276 79.3434 242.697 79.906 243.289 79.9178C243.607 79.8976 243.908 79.7727 244.148 79.5625C244.902 78.9285 245.425 78.0621 245.634 77.0992C245.84 76.1405 245.926 75.1597 245.888 74.1798C245.888 70.4314 245.563 66.612 244.112 63.1538C243.945 62.7599 243.747 62.3797 243.52 62.0168C242.561 60.6329 241.11 59.6671 239.464 59.3166C237.833 58.9751 236.159 58.8872 234.501 59.056C233.714 59.1093 232.92 59.1745 232.133 59.2159C231.688 59.2159 230.036 58.9909 229.728 59.2159C229.101 59.7548 231.197 62.0997 231.665 62.4669Z" fill="url(#paint3_linear)"/>
<path d="M264.547 60.5783C264.719 64.303 259.958 82.8376 258.922 83.5305C258.057 84.1226 256.5 83.3291 255.612 82.7903C255.44 82.6659 255.316 82.5652 255.191 82.4942C254.504 81.9731 255.612 67.7376 255.612 67.7376C255.612 67.7376 255.961 62.8996 252.58 60.0868C248.802 56.9543 244.485 54.0646 244.781 51.844C244.807 51.5109 244.947 51.1971 245.178 50.9557C247.073 48.6878 251.396 45.2355 253.664 46.9113L260.278 52.1637C260.283 52.1792 260.283 52.1957 260.278 52.2111C260.325 52.2644 260.402 52.3592 260.527 52.4835C260.698 52.7085 260.971 53.0283 261.267 53.3954C262.067 54.5012 262.783 55.6651 263.41 56.8773C264.023 58.0269 264.409 59.2833 264.547 60.5783Z" fill="#606161"/>
<path d="M255.097 57.8422C256.074 59.4055 256.204 58.8015 256.92 62.3545C257.637 65.9074 256.92 80.593 256.133 82.1445C256.01 82.3961 255.832 82.6168 255.612 82.7899C255.44 82.6656 255.316 82.5649 255.191 82.4938C254.504 81.9727 255.612 67.7372 255.612 67.7372C255.612 67.7372 255.961 62.8993 252.58 60.0865C252.58 60.0865 253.095 56.877 250.75 55.0531C248.896 53.7486 246.892 52.6711 244.781 51.8436C245.054 51.743 249.122 46.9287 252.9 47.1064C256.328 47.2544 250.395 50.2981 255.097 57.8422Z" fill="url(#paint4_linear)"/>
<path d="M249.791 82.1203C249.404 83.24 248.761 84.2539 247.914 85.0811C247.002 85.845 245.622 86.1648 244.633 85.5489C243.449 84.8324 243.247 83.3047 243.129 81.996C242.732 77.3594 242.709 69.2882 242.312 64.6516C242.271 64.1301 242.034 63.6433 241.649 63.2897C241.058 62.8356 240.39 62.4925 239.677 62.2771C238.273 61.8093 236.52 61.4421 235.212 60.5776C234.75 60.2844 234.349 59.9067 234.027 59.4643C231.706 56.2844 230.842 49.818 232.766 46.7329C233.021 46.2633 233.385 45.8614 233.827 45.5606C234.269 45.2599 234.776 45.069 235.307 45.0038C238.664 44.5833 244.71 46.7802 246.119 49.818C246.564 50.8069 246.759 51.8906 247.398 52.7788C248.512 54.3303 250.709 54.804 251.792 56.3792C252.286 57.2082 252.589 58.1366 252.681 59.0972C253.882 66.8909 252.881 74.8654 249.791 82.1203Z" fill="#606161"/>
<path d="M242.264 62.1587C242.366 62.3857 242.414 62.6329 242.405 62.8814C242.395 63.1299 242.329 63.3729 242.211 63.5917C242.016 63.491 241.844 63.3667 241.619 63.266C240.979 62.9226 240.316 62.5732 239.647 62.2534C238.711 61.833 237.723 61.4422 236.734 61.0691C236.218 60.8974 235.697 60.7257 235.182 60.5302C234.721 60.237 234.319 59.8593 233.998 59.417C231.677 56.2371 230.812 49.7707 232.737 46.6855C234.614 46.8099 236.438 47.6745 238.143 48.462C239.156 48.9594 240.162 49.4272 241.104 49.9957C241.743 50.3629 243.052 50.9076 242.039 51.6242C240.66 52.5835 238.019 50.884 236.959 52.4354C236.757 52.7969 236.654 53.2057 236.663 53.6197C236.609 54.2119 236.562 54.8041 236.515 55.4436C236.448 55.9877 236.48 56.5394 236.609 57.072C236.91 57.748 237.41 58.3161 238.042 58.7005C239.195 59.4039 240.308 60.171 241.376 60.9981C241.744 61.3239 242.046 61.7181 242.264 62.1587Z" fill="url(#paint5_linear)"/>
<path d="M244.479 91.0448C244.889 91.4525 245.353 91.8012 245.859 92.0811L248.014 93.4253C248.79 93.9049 249.791 94.3846 250.549 93.8398C251.307 93.295 251.141 92.3475 250.892 91.5659C250.51 90.4104 249.837 89.3726 248.938 88.5518C248.747 88.4057 248.588 88.2223 248.47 88.0129C248.385 87.7904 248.353 87.5513 248.376 87.3142V85.0936C248.376 82.8434 245.284 83.246 244.307 84.5784C243.117 86.2187 243.076 89.5407 244.479 91.0448Z" fill="#606161"/>
<path d="M255.286 88.2794C255.82 89.1086 256.601 89.7488 257.518 90.1092C258.398 90.5267 259.314 90.8636 260.254 91.1159C260.445 91.1972 260.652 91.2305 260.859 91.213C261.065 91.1954 261.264 91.1275 261.439 91.0152C261.587 90.8486 261.686 90.6433 261.723 90.423C261.879 89.7207 261.863 88.9908 261.674 88.2964C261.485 87.602 261.13 86.9641 260.639 86.4378C260.195 86.0555 259.798 85.6222 259.455 85.1469C259.034 84.4067 259.123 83.5007 259.046 82.6539C258.88 80.7945 255.92 81.2801 255.203 82.4822C254.487 83.6843 254.652 87.1129 255.286 88.2794Z" fill="#606161"/>
<path d="M232.038 44.8914C231.986 45.6482 232.168 46.4026 232.559 47.0528C232.962 47.5071 233.464 47.8618 234.027 48.0891C236.775 49.4688 239.57 50.8663 242.59 51.4348C245.61 52.0032 248.944 51.6539 251.39 49.7945C252.279 49.1693 252.954 48.284 253.32 47.26C253.711 46.0106 253.444 44.6664 253.379 43.3577C253.208 40.1067 254.297 36.9387 255.055 33.7647C255.813 30.5907 256.239 27.1147 254.777 24.1895C253.646 21.886 256.08 19.9555 253.936 18.5521C250.916 16.5684 247.369 15.5913 242.418 16.3493C240.506 16.6335 233.962 19.3101 233.258 21.1221C232.553 22.9341 234.614 24.7639 234.377 26.6884C233.625 32.6929 232.038 38.8869 232.038 44.8914Z" fill="#425AF2"/>
<path d="M261.225 34.8608C261.818 36.2169 262.315 37.9045 261.379 39.0059C261.034 39.3667 260.6 39.63 260.121 39.7694C259.642 39.9087 259.134 39.9191 258.65 39.7994C257.691 39.5408 256.771 39.1565 255.914 38.6566C255.349 38.4317 254.843 38.0814 254.433 37.6321C253.877 36.9038 253.942 35.8971 253.977 34.9793C254.131 30.4433 252.84 26.0021 252.917 21.4721C252.917 20.7911 252.722 19.2811 253.569 18.9969C254.51 18.683 254.789 20.1397 255.073 20.7733C256.05 22.9406 257.021 25.1139 257.969 27.2871C259.078 29.8018 260.163 32.3264 261.225 34.8608Z" fill="#425AF2"/>
<path d="M253.871 32.9419L255.606 28.3231C255.746 27.9536 256.011 27.6449 256.355 27.4502C256.699 27.2555 257.1 27.1873 257.489 27.2572L260.544 27.7961C260.78 27.836 261.004 27.9258 261.202 28.0594C261.4 28.1931 261.567 28.3676 261.692 28.5712C261.818 28.7747 261.898 29.0027 261.927 29.2397C261.957 29.4768 261.936 29.7175 261.865 29.9456L259.407 37.7266C259.274 38.1456 258.982 38.4959 258.593 38.7027C258.205 38.9096 257.751 38.9566 257.329 38.8339L254.202 37.9457C253.989 37.8901 253.788 37.7925 253.613 37.6587C253.437 37.5249 253.29 37.3575 253.18 37.1663C253.07 36.9751 252.999 36.7638 252.971 36.5449C252.943 36.3259 252.959 36.1036 253.018 35.8909L253.812 33.0781C253.812 33.0367 253.853 32.9893 253.871 32.9419Z" fill="#606161"/>
<path d="M235.952 45.4368C236.011 45.3297 236.096 45.2399 236.201 45.1763C236.355 45.1158 236.523 45.0994 236.686 45.1289C237.63 45.2148 238.579 45.2148 239.523 45.1289C239.819 45.1289 254.457 39.5212 253.51 39.0297C253.048 38.7928 246.196 37.7684 241.489 35.3701C237.474 33.3331 235.626 29.5966 234.039 32.0777C233.631 32.7172 232.583 41.2029 232.328 41.9135C232.28 42.079 232.256 42.2505 232.257 42.4227L232.15 44.5782C232.038 45.3795 232.138 46.1962 232.44 46.9468C232.938 47.9121 234.027 48.3976 235.034 48.8062C235.332 48.9626 235.675 49.0128 236.005 48.9483C235.514 47.8055 235.212 46.5915 235.952 45.4368Z" fill="url(#paint6_linear)"/>
<path d="M243.33 47.166L249.424 47.2075C249.424 47.2075 248.139 49.3333 247.055 49.4458L243.33 47.166Z" fill="#425AF2"/>
<path d="M230.676 27.7664C230.86 30.8191 231.374 33.8429 232.21 36.785C232.802 38.8635 233.643 41.0249 235.395 42.2862C236.986 43.3241 238.918 43.7061 240.784 43.3521C242.63 42.9939 244.422 42.3967 246.113 41.5756L251.342 39.3135C251.759 39.163 252.139 38.9247 252.455 38.6148C253.344 37.6022 252.42 35.9027 251.153 35.4349C249.886 34.9671 248.494 35.2572 247.144 35.2513C245.652 35.2513 242.797 36.1099 241.489 35.3934C241.23 35.2813 241.011 35.0934 240.861 34.8546C240.747 34.5838 240.708 34.2871 240.748 33.9959C240.879 30.0048 240.334 23.7516 236.852 21.4895C232.577 18.7241 230.469 24.326 230.676 27.7664Z" fill="#425AF2"/>
<path d="M244.929 22.5025C245.495 22.8041 246.136 22.9345 246.774 22.8778C247.412 22.821 248.02 22.5795 248.524 22.1827C248.996 21.7623 249.308 21.1909 249.406 20.5661C249.672 18.7896 248.18 17.1553 248.31 15.3729C248.375 14.4846 248.837 13.5964 248.524 12.7437C248.257 12.0331 244.29 10.8784 244.142 11.6245C243.153 16.8947 240.606 20.3411 244.929 22.5025Z" fill="#F4A982"/>
<path d="M244.722 11.8848C244.722 11.8848 244.337 19.6184 248.482 19.0736C248.482 19.0736 249.133 18.9848 248.938 18.0314C248.743 17.078 247.937 16.095 247.985 15.2482C248.032 14.4014 244.722 11.8848 244.722 11.8848Z" fill="url(#paint7_linear)"/>
<path d="M255.108 7.08198C255.052 7.98354 254.812 8.86413 254.404 9.66971C253.87 10.9459 253.247 12.1827 252.538 13.3707C251.997 14.4069 251.249 15.3217 250.341 16.0591C249.875 16.4125 249.328 16.6432 248.75 16.7301C248.172 16.817 247.581 16.7573 247.031 16.5565C246.048 16.1361 245.427 15.1472 244.959 14.1879C244.229 12.6464 243.874 10.9542 243.922 9.24928C243.994 7.97614 244.301 6.17005 245.427 5.38248C245.689 5.19964 246.001 5.09868 246.321 5.09232C246.735 5.09232 247.049 5.35879 247.428 5.39432C247.719 5.37244 248.006 5.31067 248.281 5.21075C248.624 5.14561 248.968 5.09824 249.317 5.06271C249.989 5.00644 250.664 5.00644 251.336 5.06271C251.901 5.10316 252.461 5.18831 253.012 5.31734C253.541 5.4051 254.044 5.60719 254.487 5.9095C254.67 6.04707 254.821 6.22351 254.929 6.42619C255.036 6.62888 255.098 6.85281 255.108 7.08198Z" fill="#F4A982"/>
<path d="M257.364 32.0181C258.195 32.2488 258.924 32.7538 259.431 33.4511C259.546 33.57 259.631 33.714 259.68 33.8715C259.718 34.0739 259.685 34.2834 259.585 34.4637C258.904 35.8849 256.92 36.027 255.76 37.0929C255.496 37.3839 255.218 37.6606 254.925 37.9219C254.504 38.2124 254.029 38.4139 253.527 38.5141C253.012 38.6444 252.485 38.7509 251.964 38.8398C250.685 39.053 250.039 37.7857 250.128 36.6547C250.205 35.6421 250.72 35.275 251.567 34.8782C253.338 33.99 255.25 31.5917 257.364 32.0181Z" fill="#F4A982"/>
<path d="M243.994 7.77476C243.89 7.72714 243.776 7.70481 243.662 7.70963C243.572 7.72821 243.488 7.76729 243.416 7.8238C243.345 7.88031 243.287 7.9527 243.247 8.03531C243.178 8.20418 243.143 8.38559 243.147 8.56826C243.14 8.83882 243.166 9.10921 243.224 9.37359C243.258 9.62139 243.359 9.85509 243.517 10.0493C243.675 10.2435 243.882 10.3907 244.118 10.475C244.333 10.5121 244.555 10.4694 244.741 10.355C244.928 10.2405 245.066 10.0622 245.13 9.85324C245.179 9.43181 245.095 9.00579 244.892 8.63365C244.688 8.26151 244.374 7.96149 243.994 7.77476Z" fill="#F4A982"/>
<path d="M244.224 9.15465C244.147 9.01846 244.224 8.84673 244.224 8.68685C244.224 8.52696 244.011 8.39077 243.792 8.28418C243.777 8.28845 243.763 8.29594 243.75 8.30615C243.738 8.31636 243.728 8.32905 243.721 8.34339C243.632 8.49797 243.576 8.66992 243.559 8.84766C243.542 9.0254 243.563 9.20479 243.62 9.37375C243.652 9.50064 243.713 9.61833 243.798 9.71721C243.842 9.76637 243.898 9.80397 243.96 9.82668C244.021 9.8494 244.088 9.85654 244.153 9.84748C244.233 9.82225 244.305 9.77682 244.362 9.71561C244.419 9.65439 244.46 9.57947 244.479 9.49811C244.521 9.2494 244.337 9.34415 244.224 9.15465Z" fill="url(#paint8_linear)"/>
<path d="M249.666 0.124531C247.937 0.0771587 246.007 0.337709 244.9 1.66415C243.893 2.84847 243.863 4.58942 244.023 6.1468C244.05 6.5508 244.131 6.94927 244.266 7.33112C244.55 8.04171 245.178 8.62202 245.231 9.38591C245.255 8.84621 245.441 8.32613 245.764 7.89319C246.087 7.46025 246.533 7.13444 247.043 6.95806C247.485 6.83599 247.941 6.77033 248.399 6.76264L252.645 6.53762C252.861 6.51275 253.079 6.52679 253.29 6.57907C253.577 6.71717 253.852 6.87754 254.114 7.05872C254.396 7.17469 254.703 7.21599 255.006 7.17865C255.309 7.14131 255.597 7.02659 255.843 6.84554C256.328 6.47618 256.731 6.01045 257.027 5.47766C257.386 5.01277 257.593 4.44811 257.619 3.86106C257.59 3.2689 257.08 2.67674 256.506 2.77741C256.34 2.77741 256.156 2.87215 256.026 2.77741C254.937 1.97207 256.174 0.260728 254.25 0.0534724C252.722 0.00100376 251.192 0.0247195 249.666 0.124531Z" fill="#606161"/>
<path d="M228.822 217.228C220.787 218.673 209.488 219.004 201.34 219.798C188.313 221.107 174.219 216.44 161.15 217.329C160.558 208.446 161.079 196.082 162.193 192.328C163.501 187.738 166.142 183.445 169.979 180.65C170.702 180.65 172.674 179.01 173.396 178.649C174.681 178.076 176 177.584 177.346 177.174C179.745 176.405 182.187 175.774 184.659 175.285C190.16 174.142 196.668 175.368 202.288 175.617C205.734 175.759 209.293 175.925 212.354 177.453C215.108 178.815 217.246 181.124 218.998 183.623C222.22 188.183 227.905 205.888 228.822 217.228Z" fill="white"/>
<path d="M185.121 174.296C184.635 175.481 184.014 176.665 184.037 177.968C184.134 179.314 184.722 180.579 185.689 181.521C186.638 182.556 187.813 183.358 189.123 183.864C190.432 184.371 191.841 184.568 193.24 184.44C194.635 184.281 195.963 183.751 197.084 182.904C198.204 182.057 199.077 180.925 199.611 179.626C199.798 179.17 199.898 178.684 199.907 178.193C199.859 177.561 199.717 176.941 199.487 176.351C198.635 173.713 198.272 170.942 198.415 168.173C198.51 166.45 198.664 164.389 197.296 163.335C196.875 163.041 196.403 162.828 195.904 162.708C193.489 162.021 190.93 162.021 188.514 162.708C185.778 163.483 186.542 164.952 186.53 167.261C186.513 169.675 186.034 172.062 185.121 174.296Z" fill="url(#paint9_linear)"/>
<path d="M191.102 172.543C192.878 173.272 195.063 173.207 196.431 171.91C197.799 170.613 198.036 168.676 198.208 166.853L198.462 164.348C198.499 164.167 198.48 163.979 198.409 163.809C198.318 163.696 198.203 163.605 198.071 163.544C197.94 163.482 197.796 163.451 197.651 163.454C195.489 163.212 193.309 163.157 191.137 163.288C189.692 163.377 187.626 163.288 186.88 164.804C185.518 167.646 188.674 171.519 191.102 172.543Z" fill="url(#paint10_linear)"/>
<path d="M178.323 157.639C179.183 159.771 180.383 161.748 181.876 163.495C185.547 167.516 191.664 168.866 196.899 167.362C202.134 165.858 206.439 161.784 208.807 156.893C211.176 152.002 211.822 146.37 211.253 140.952C210.933 137.991 210.217 134.9 208.363 132.531C206.842 130.694 204.854 129.301 202.607 128.499C198.579 126.945 194.137 126.838 190.038 128.195C185.94 129.553 182.439 132.291 180.135 135.942C175.771 142.871 175.013 150.166 178.323 157.639Z" fill="url(#paint11_linear)"/>
<path d="M173.361 148.905C173.099 149.283 172.925 149.714 172.849 150.168C172.773 150.621 172.798 151.086 172.923 151.528C173.181 152.411 173.625 153.229 174.225 153.926C174.395 154.197 174.62 154.429 174.885 154.607C175.151 154.786 175.45 154.907 175.765 154.963C176.071 154.948 176.369 154.859 176.633 154.703C176.897 154.547 177.12 154.329 177.281 154.069C179.199 151.439 175.824 145.701 173.361 148.905Z" fill="url(#paint12_linear)"/>
<path d="M212.118 147.069C212.572 147.051 213.022 147.16 213.417 147.384C213.813 147.608 214.138 147.938 214.356 148.337C214.773 149.151 214.86 150.095 214.599 150.972C214.329 151.842 213.883 152.648 213.29 153.34C212.788 154.036 212.098 154.575 211.3 154.892C210.9 155.039 210.463 155.057 210.051 154.945C209.64 154.832 209.273 154.594 209.003 154.264C208.826 153.981 208.702 153.668 208.636 153.34C208.109 151.214 209.524 147.306 212.118 147.069Z" fill="url(#paint13_linear)"/>
<path d="M179.306 160.783C179.624 161.864 180.088 162.896 180.686 163.851C181.829 165.556 183.647 166.717 185.47 167.629C186.447 168.134 187.475 168.531 188.538 168.813C190.04 169.126 191.576 169.253 193.109 169.192C196.366 169.162 199.623 168.973 202.874 168.76C203.589 168.776 204.296 168.609 204.929 168.274C205.475 167.863 205.908 167.321 206.19 166.699C208.024 163.511 209.164 159.971 209.536 156.312C209.567 155.027 209.664 153.745 209.826 152.469C210.163 150.586 211.069 148.739 210.809 146.844C209.992 147.057 209.548 147.91 209.21 148.679C208.529 150.249 207.89 151.836 207.126 153.363C206.69 154.314 206.11 155.193 205.408 155.969C203.685 157.745 201.068 158.338 198.593 158.527C196.702 158.653 194.807 158.685 192.914 158.622C189.953 158.563 186.755 158.409 184.31 156.697C181.349 154.613 180.301 150.468 177.204 148.614C176.866 149.206 177.381 150.166 177.429 150.799C177.512 151.984 177.606 153.115 177.778 154.264C178.1 156.476 178.611 158.658 179.306 160.783Z" fill="#606161"/>
<path d="M179.306 160.783C179.624 161.864 180.088 162.896 180.686 163.851C181.829 165.556 183.647 166.717 185.47 167.629C186.447 168.134 187.475 168.531 188.538 168.813C190.04 169.126 191.576 169.253 193.109 169.192C196.366 169.162 199.623 168.973 202.874 168.76C203.589 168.776 204.296 168.609 204.929 168.274C205.475 167.863 205.908 167.321 206.19 166.699C208.024 163.511 209.164 159.971 209.536 156.312C209.567 155.027 209.664 153.745 209.826 152.469C210.163 150.586 211.069 148.739 210.809 146.844C209.992 147.057 209.548 147.91 209.21 148.679C208.529 150.249 207.89 151.836 207.126 153.363C206.69 154.314 206.11 155.193 205.408 155.969C203.685 157.745 201.068 158.338 198.593 158.527C196.702 158.653 194.807 158.685 192.914 158.622C189.953 158.563 186.755 158.409 184.31 156.697C181.349 154.613 180.301 150.468 177.204 148.614C176.866 149.206 177.381 150.166 177.429 150.799C177.512 151.984 177.606 153.115 177.778 154.264C178.1 156.476 178.611 158.658 179.306 160.783Z" fill="url(#paint14_linear)"/>
<path d="M195.969 160.89L192.097 160.76C191.499 160.699 190.896 160.756 190.32 160.926C190.032 161.013 189.774 161.18 189.576 161.407C189.378 161.635 189.248 161.913 189.201 162.211C189.204 162.695 189.374 163.163 189.681 163.537C189.834 163.794 190.035 164.019 190.273 164.2C190.77 164.465 191.336 164.57 191.895 164.502L198.859 164.354C199.047 164.365 199.235 164.326 199.404 164.242C199.568 164.124 199.686 163.952 199.735 163.756C199.899 163.261 199.915 162.728 199.781 162.224C199.648 161.719 199.371 161.264 198.983 160.914C198.249 160.357 196.887 160.92 195.969 160.89Z" fill="url(#paint15_linear)"/>
<path d="M177.423 150.036C178.122 149.852 178.193 148.899 178.151 148.176C177.938 144.518 178.731 140.87 180.443 137.63C181.692 138.767 183.647 138.121 185.245 137.571C192.073 135.202 199.516 135.984 206.705 136.617C206.958 136.58 207.215 136.633 207.432 136.767C207.649 136.902 207.811 137.109 207.89 137.352C209.574 140.854 210.493 144.676 210.584 148.561C211.176 148.088 212.497 147.714 212.899 147.152C213.183 146.761 213.142 145.671 213.349 145.15C213.941 143.706 215.185 142.651 215.54 141.076C216.203 138.116 213.586 135.261 214.048 132.289C214.267 130.862 215.173 129.642 215.611 128.268C215.921 127.278 215.991 126.229 215.814 125.207C215.636 124.186 215.218 123.221 214.593 122.394C213.74 121.292 212.224 120.445 210.975 121.038C210.56 121.227 210.223 121.559 209.79 121.76C207.978 122.648 206.113 120.83 204.319 119.913C201.512 118.474 198.018 119.32 195.33 120.967C194.483 121.488 193.595 122.115 192.6 122.074C191.981 121.987 191.381 121.799 190.824 121.517C187.04 120.019 182.474 121.286 179.602 124.164C176.73 127.042 175.457 131.27 175.694 135.35C175.777 136.771 176.025 138.24 175.564 139.584C174.806 141.811 174.148 145.103 175.06 147.424C175.273 147.975 176.967 150.148 177.423 150.036Z" fill="#606161"/>
<path d="M177.423 150.036C178.122 149.852 178.193 148.899 178.151 148.176C177.938 144.518 178.731 140.87 180.443 137.63C181.692 138.767 183.647 138.121 185.245 137.571C192.073 135.202 199.516 135.984 206.705 136.617C206.958 136.58 207.215 136.633 207.432 136.767C207.649 136.902 207.811 137.109 207.89 137.352C209.574 140.854 210.493 144.676 210.584 148.561C211.176 148.088 212.497 147.714 212.899 147.152C213.183 146.761 213.142 145.671 213.349 145.15C213.941 143.706 215.185 142.651 215.54 141.076C216.203 138.116 213.586 135.261 214.048 132.289C214.267 130.862 215.173 129.642 215.611 128.268C215.921 127.278 215.991 126.229 215.814 125.207C215.636 124.186 215.218 123.221 214.593 122.394C213.74 121.292 212.224 120.445 210.975 121.038C210.56 121.227 210.223 121.559 209.79 121.76C207.978 122.648 206.113 120.83 204.319 119.913C201.512 118.474 198.018 119.32 195.33 120.967C194.483 121.488 193.595 122.115 192.6 122.074C191.981 121.987 191.381 121.799 190.824 121.517C187.04 120.019 182.474 121.286 179.602 124.164C176.73 127.042 175.457 131.27 175.694 135.35C175.777 136.771 176.025 138.24 175.564 139.584C174.806 141.811 174.148 145.103 175.06 147.424C175.273 147.975 176.967 150.148 177.423 150.036Z" fill="url(#paint16_linear)"/>
<path d="M238.273 191.315C238.51 190.889 238.845 190.525 239.25 190.255C239.659 190.053 240.109 189.947 240.565 189.947C242.559 189.811 244.562 189.888 246.54 190.178C246.988 190.201 247.417 190.365 247.766 190.646C248.251 191.126 248.18 191.919 248.062 192.588C246.664 200.758 243.942 208.645 240.002 215.937C239.803 216.399 239.476 216.796 239.061 217.08C238.646 217.311 239.114 217.412 238.634 217.435C234.448 217.637 228.106 217.435 221.669 217.637C222.806 216.541 224.985 215.161 225.927 213.799C227.478 211.555 228.366 208.576 229.604 206.137C232.189 201.024 235.084 196.074 238.273 191.315Z" fill="white"/>
<path d="M240.837 185.808C241.822 183.944 243.411 182.47 245.344 181.627C246.895 181.035 248.601 181.005 250.265 180.987L262.889 180.893C263.054 180.869 263.222 180.881 263.383 180.927C263.543 180.973 263.692 181.052 263.819 181.159C264.145 181.526 263.89 182.101 263.588 182.492C261.018 185.819 256.18 186.08 252.39 187.91C250.205 188.964 248.322 190.58 246.09 191.534C244.444 192.238 241.311 192.872 239.89 191.309C238.469 189.745 240.002 187.276 240.837 185.808Z" fill="url(#paint17_linear)"/>
</g>
<defs>
<linearGradient id="paint0_linear" x1="335.755" y1="131.643" x2="232.719" y2="132.46" gradientUnits="userSpaceOnUse">
<stop stop-color="white" stop-opacity="0"/>
<stop offset="0.95" stop-color="white"/>
</linearGradient>
<linearGradient id="paint1_linear" x1="9510.55" y1="20164.9" x2="10021" y2="4679.79" gradientUnits="userSpaceOnUse">
<stop stop-color="white" stop-opacity="0"/>
<stop offset="0.95" stop-color="white"/>
</linearGradient>
<linearGradient id="paint2_linear" x1="250.987" y1="70.2127" x2="269.314" y2="62.5679" gradientUnits="userSpaceOnUse">
<stop stop-color="#010101" stop-opacity="0"/>
<stop offset="0.95" stop-color="#010101"/>
</linearGradient>
<linearGradient id="paint3_linear" x1="-20916.8" y1="2614.7" x2="-19845.9" y2="2206.33" gradientUnits="userSpaceOnUse">
<stop stop-color="#010101" stop-opacity="0"/>
<stop offset="0.95" stop-color="#010101"/>
</linearGradient>
<linearGradient id="paint4_linear" x1="-15363.9" y1="4247.26" x2="-16088.3" y2="4108.3" gradientUnits="userSpaceOnUse">
<stop stop-color="#010101" stop-opacity="0"/>
<stop offset="0.95" stop-color="#010101"/>
</linearGradient>
<linearGradient id="paint5_linear" x1="-13614.8" y1="1674.24" x2="-14025.2" y2="1647.08" gradientUnits="userSpaceOnUse">
<stop stop-color="#010101" stop-opacity="0"/>
<stop offset="0.95" stop-color="#010101"/>
</linearGradient>
<linearGradient id="paint6_linear" x1="-27166.6" y1="1361.66" x2="-28712.7" y2="927.779" gradientUnits="userSpaceOnUse">
<stop stop-color="#010101" stop-opacity="0"/>
<stop offset="0.95" stop-color="#010101"/>
</linearGradient>
<linearGradient id="paint7_linear" x1="-5220.61" y1="258.249" x2="-4958.17" y2="69.4168" gradientUnits="userSpaceOnUse">
<stop stop-color="#010101" stop-opacity="0"/>
<stop offset="0.95" stop-color="#010101"/>
</linearGradient>
<linearGradient id="paint8_linear" x1="-952.001" y1="36.7117" x2="-945.256" y2="36.1563" gradientUnits="userSpaceOnUse">
<stop stop-color="#010101" stop-opacity="0"/>
<stop offset="0.95" stop-color="#010101"/>
</linearGradient>
<linearGradient id="paint9_linear" x1="184.049" y1="173.313" x2="199.919" y2="173.313" gradientUnits="userSpaceOnUse">
<stop stop-color="#E5C6D6"/>
<stop offset="0.42" stop-color="#EAD4D0"/>
<stop offset="1" stop-color="#F0E9CB"/>
</linearGradient>
<linearGradient id="paint10_linear" x1="4083.48" y1="3055.11" x2="4189.51" y2="2680.18" gradientUnits="userSpaceOnUse">
<stop stop-color="#010101" stop-opacity="0"/>
<stop offset="0.95" stop-color="#010101"/>
</linearGradient>
<linearGradient id="paint11_linear" x1="10836.7" y1="10388.6" x2="12926.8" y2="10388.6" gradientUnits="userSpaceOnUse">
<stop stop-color="#E5C6D6"/>
<stop offset="0.42" stop-color="#EAD4D0"/>
<stop offset="1" stop-color="#F0E9CB"/>
</linearGradient>
<linearGradient id="paint12_linear" x1="1671.02" y1="1959.17" x2="1713.87" y2="1959.17" gradientUnits="userSpaceOnUse">
<stop stop-color="#E5C6D6"/>
<stop offset="0.42" stop-color="#EAD4D0"/>
<stop offset="1" stop-color="#F0E9CB"/>
</linearGradient>
<linearGradient id="paint13_linear" x1="2432.49" y1="2196.9" x2="2497.74" y2="2196.9" gradientUnits="userSpaceOnUse">
<stop stop-color="#E5C6D6"/>
<stop offset="0.42" stop-color="#EAD4D0"/>
<stop offset="1" stop-color="#F0E9CB"/>
</linearGradient>
<linearGradient id="paint14_linear" x1="10456" y1="6176.8" x2="12381.9" y2="6176.8" gradientUnits="userSpaceOnUse">
<stop stop-color="#010101" stop-opacity="0"/>
<stop offset="0.95" stop-color="#010101"/>
</linearGradient>
<linearGradient id="paint15_linear" x1="3655.56" y1="1229.96" x2="3847.94" y2="1229.96" gradientUnits="userSpaceOnUse">
<stop stop-color="#E5C6D6"/>
<stop offset="0.42" stop-color="#EAD4D0"/>
<stop offset="1" stop-color="#F0E9CB"/>
</linearGradient>
<linearGradient id="paint16_linear" x1="12572.8" y1="7220.57" x2="15451.4" y2="7220.57" gradientUnits="userSpaceOnUse">
<stop stop-color="#010101" stop-opacity="0"/>
<stop offset="0.95" stop-color="#010101"/>
</linearGradient>
<linearGradient id="paint17_linear" x1="10338.6" y1="3803.96" x2="11365.5" y2="3803.96" gradientUnits="userSpaceOnUse">
<stop stop-color="#E5C6D6"/>
<stop offset="0.42" stop-color="#EAD4D0"/>
<stop offset="1" stop-color="#F0E9CB"/>
</linearGradient>
<clipPath id="clip0">
<rect width="381.315" height="300" fill="white"/>
</clipPath>
</defs>
</svg>
