<svg width="98" height="98" viewBox="0 0 98 98" fill="none" xmlns="http://www.w3.org/2000/svg">
<g clip-path="url(#clip0)">
<path d="M58.9994 58.9332V13.6901C58.9994 7.03204 53.9872 1.63379 47.3281 1.63379C40.6691 1.63379 36.1325 7.03204 36.1325 13.6901V58.9332C31.2324 62.067 26.6594 68.7877 26.6594 75.6981C26.6594 87.1133 35.9129 96.3668 47.3281 96.3668C58.7433 96.3668 67.9977 87.1133 67.9977 75.6981C67.9977 68.7877 64.2079 62.6857 58.9994 58.9332Z" fill="#425AF2"/>
<path d="M47.3281 98.0004C35.0315 98.0004 25.0266 87.9955 25.0266 75.698C25.0266 68.1324 29.8015 61.4238 34.4997 58.0658V13.69C34.4997 5.88612 40.0139 0 47.3281 0C54.789 0 60.633 6.01322 60.633 13.69V58.1144C66.2827 62.4865 69.6304 68.9997 69.6304 75.698C69.6304 87.9955 59.6265 98.0004 47.3281 98.0004ZM47.3281 3.26643C41.7877 3.26643 37.7662 7.64971 37.7662 13.69V58.9322C37.7662 59.4892 37.482 60.007 37.0129 60.3089C32.6791 63.079 28.293 69.2558 28.293 75.698C28.293 86.1936 36.8325 94.733 47.3281 94.733C57.8236 94.733 66.364 86.1936 66.364 75.698C66.364 69.7838 63.2537 64.0108 58.0442 60.2584C57.618 59.95 57.3657 59.4574 57.3657 58.9331V13.69C57.3657 7.84597 52.9572 3.26643 47.3281 3.26643Z" fill="#425AF2"/>
<path d="M62.2658 58.9332V13.6901C62.2658 7.03204 57.2544 1.63379 50.5954 1.63379C43.9364 1.63379 39.3989 7.03204 39.3989 13.6901V58.9332C34.4997 62.067 29.9258 68.7877 29.9258 75.6981C29.9258 87.1133 39.1793 96.3668 50.5954 96.3668C62.0106 96.3668 71.2641 87.1133 71.2641 75.6981C71.2641 68.7877 67.4743 62.6857 62.2658 58.9332Z" fill="#94A5FF"/>
<path d="M50.5956 98.0004C38.2981 98.0004 28.2932 87.9955 28.2932 75.698C28.2932 68.1324 33.069 61.4238 37.7663 58.0658V13.69C37.7663 5.88612 43.2814 0 50.5956 0C58.0556 0 63.8996 6.01322 63.8996 13.69V58.1144C69.5493 62.4865 72.897 68.9997 72.897 75.698C72.897 87.9955 62.8931 98.0004 50.5956 98.0004ZM50.5956 3.26643C45.0553 3.26643 41.0328 7.64971 41.0328 13.69V58.9322C41.0328 59.4892 40.7486 60.007 40.2795 60.3089C35.9467 63.079 31.5596 69.2558 31.5596 75.698C31.5596 86.1936 40.0991 94.733 50.5956 94.733C61.0902 94.733 69.6306 86.1936 69.6306 75.698C69.6306 69.7838 66.5203 64.0108 61.3108 60.2584C60.8846 59.95 60.6332 59.4574 60.6332 58.9331V13.69C60.6332 7.84597 56.2238 3.26643 50.5956 3.26643Z" fill="#425AF2"/>
<path d="M62.4116 75.698C62.4116 82.2233 57.1208 87.5141 50.5954 87.5141C44.0691 87.5141 38.7783 82.2233 38.7783 75.698C38.7783 69.1716 44.0691 63.8809 50.5954 63.8809C57.1208 63.8809 62.4116 69.1716 62.4116 75.698Z" fill="#6C80FF"/>
<path d="M50.5953 89.1468C43.1784 89.1468 37.1455 83.113 37.1455 75.6979C37.1455 68.2818 43.1784 62.248 50.5953 62.248C58.0105 62.248 64.0442 68.2818 64.0442 75.6979C64.0442 83.113 58.0105 89.1468 50.5953 89.1468ZM50.5953 65.5145C44.9803 65.5145 40.4119 70.0837 40.4119 75.6979C40.4119 81.313 44.9803 85.8804 50.5953 85.8804C56.2095 85.8804 60.7778 81.312 60.7778 75.6979C60.7778 70.0828 56.2095 65.5145 50.5953 65.5145Z" fill="#425AF2"/>
<path d="M56.374 77.3316C55.4712 77.3316 54.7403 76.6008 54.7403 75.698C54.7403 73.4119 52.8804 71.553 50.5954 71.553C49.6925 71.553 48.9617 70.8222 48.9617 69.9193C48.9617 69.0165 49.6925 68.2856 50.5954 68.2856C54.6814 68.2856 58.0067 71.6119 58.0067 75.698C58.0067 76.6008 57.2768 77.3316 56.374 77.3316Z" fill="white"/>
<path d="M50.8329 57.167C49.9301 57.167 49.1992 56.4361 49.1992 55.5333V14.7006C49.1992 13.7978 49.9301 13.0669 50.8329 13.0669C51.7357 13.0669 52.4656 13.7978 52.4656 14.7006V55.5333C52.4656 56.4361 51.7357 57.167 50.8329 57.167Z" fill="#425AF2"/>
<path d="M68.7998 22.867H57.3659C56.4631 22.867 55.7332 22.1362 55.7332 21.2333C55.7332 20.3305 56.4631 19.6006 57.3659 19.6006H68.7998C69.7026 19.6006 70.4326 20.3305 70.4326 21.2333C70.4326 22.1362 69.7026 22.867 68.7998 22.867Z" fill="#425AF2"/>
<path d="M68.7998 31.0335H57.3659C56.4631 31.0335 55.7332 30.3027 55.7332 29.3998C55.7332 28.497 56.4631 27.7671 57.3659 27.7671H68.7998C69.7026 27.7671 70.4326 28.497 70.4326 29.3998C70.4326 30.3027 69.7026 31.0335 68.7998 31.0335Z" fill="#425AF2"/>
<path d="M68.7998 39.2H57.3659C56.4631 39.2 55.7332 38.4692 55.7332 37.5663C55.7332 36.6635 56.4631 35.9336 57.3659 35.9336H68.7998C69.7026 35.9336 70.4326 36.6635 70.4326 37.5663C70.4326 38.4692 69.7026 39.2 68.7998 39.2Z" fill="#425AF2"/>
<path d="M68.7998 47.3665H57.3659C56.4631 47.3665 55.7332 46.6366 55.7332 45.7338C55.7332 44.831 56.4631 44.1001 57.3659 44.1001H68.7998C69.7026 44.1001 70.4326 44.831 70.4326 45.7338C70.4326 46.6366 69.7026 47.3665 68.7998 47.3665Z" fill="#425AF2"/>
</g>
<defs>
<clipPath id="clip0">
<rect width="98" height="98" fill="white"/>
</clipPath>
</defs>
</svg>
