<svg id="Layer_1" xmlns="http://www.w3.org/2000/svg" xmlns:xlink="http://www.w3.org/1999/xlink" viewBox="0 0 283.5 283.5"><style>.st0{fill:#4b98c8}.st1{fill:#cc2229}.st2{clip-path:url(#SVGID_2_)}.st3{fill:none;stroke:#4b98c8;stroke-width:7.2122;stroke-miterlimit:10}</style><title>covid19-symptoms</title><g id="Layer_2_1_"><g id="Layer_1-2"><path class="st0" d="M107.3 71.5h1.1c7.2.4 14 3.4 19 8.5 1.3 1.2 1.3 3.1.1 4.4-1.2 1.3-3.1 1.3-4.4.1l-.2-.2c-3.9-3.9-9.1-6.3-14.6-6.6-5.5-.3-10.9 1.6-15.1 5.2-1.3 1.1-3.3 1-4.4-.3-1.1-1.3-1-3.3.3-4.4 5-4.3 11.5-6.7 18.2-6.7"/><path class="st1" d="M264 142.8c-.3-.2-.7-.2-1.1-.1-.3.1-.5.6-.7.8-.2.3-.6.2-1.3.2s-1.6-.1-1.6-.1c0-.7-.1-1.4-.2-2h.3c.6-.1.8-.2.9-.1.2.2.5.3.7.4.4 0 .7-.2.8-.5.1-.4-.2-.5-.3-.7 0-.2.1-.2.1-.4s-.2-.4-.4-.5c-.2-.1-.5-.1-.8 0-.2.1-.3.5-.4.7-.1.2-.4.2-.9.3h-.3c-.1-.5-.2-.9-.4-1.4.3-.2.8-.3 1.5-.6s1.1-.5 1.3-.4c.3.2.7.3 1.1.3.5 0 .9-.4 1-.9 0-.6-.5-.6-.5-.9v-.6c0-.3-.3-.5-.6-.6-.4-.1-.8 0-1.1.3-.2.3-.3.7-.4 1 0 .3-.5.4-1.2.7-.7.3-1.6.5-1.6.5-.3-.6-.5-1.1-.9-1.7l.3-.2c.5-.4.7-.5.8-.5h.8c.3-.1.6-.4.5-.8 0-.4-.4-.4-.5-.5s0-.2 0-.4c-.1-.2-.3-.3-.5-.3-.3 0-.5.1-.7.4-.1.2 0 .5-.1.8s-.3.3-.7.6l-.4.2c-.3-.4-.6-.8-1-1.3.2-.3.6-.6 1.2-1.1.5-.5.8-.9 1.1-.8.4 0 .8 0 1.2-.1.5-.2.7-.7.5-1.2-.2-.5-.7-.4-.8-.6s0-.3-.2-.6-.5-.4-.8-.3c-.4.1-.7.3-.9.7-.1.4-.1.7 0 1.1 0 .3-.3.6-.8 1.1s-1.2 1-1.2 1c-.4-.4-.9-.8-1.3-1.1l.2-.3c.4-.6.4-.7.6-.7.3 0 .5-.1.8-.2.3-.2.4-.6.2-.9-.2-.3-.5-.2-.6-.3-.1-.1 0-.2-.2-.4-.2-.1-.4-.1-.6 0-.2.1-.4.3-.5.6 0 .3.1.5.2.7 0 .2-.1.4-.4.8l-.2.1-1.5-.9c.1-.3.4-.8.6-1.5s.4-1.1.7-1.2c.4-.1.7-.3 1-.5.3-.4.3-1 0-1.4-.4-.4-.8-.1-1-.2s-.2-.3-.4-.5c-.3-.2-.6-.2-.9 0-.3.2-.5.6-.5 1 0 .3.3.7.5 1s0 .6-.4 1.3c-.2.5-.5 1-.7 1.5-.5-.2-1-.4-1.5-.5v-.3c.1-.6.1-.8.3-.9.2-.1.5-.3.6-.5.2-.3.1-.7-.2-.9-.3-.2-.6 0-.7 0-.2 0-.1-.2-.3-.3-.2-.1-.5 0-.6.1-.2.2-.3.5-.2.7 0 .3.3.4.5.6.2.2 0 .4 0 .9v.3c-.7-.1-1.4-.2-2-.3v-1.6c0-.8 0-1.2.3-1.3.3-.2.7-.4.8-.7.2-.3.2-.8 0-1.1-.2-.3-.5-.4-.8-.4-.3 0-.3.3-.6.2-.2 0-.5-.4-1-.2s-.7.7-.6 1.2c.2.3.4.7.7.9.2.2.1.4 0 1.4-.1.9 0 1.3 0 1.6-.6 0-1.2 0-1.8.1v-.3c-.1-.5-.2-.8 0-.9.2-.2.5-.3.5-.6.1-.3 0-.5-.2-.8-.2-.2-.4-.2-.6-.2-.2 0-.2.2-.3.2-.2 0-.4-.2-.7 0-.3.2-.4.6-.2.9.2.2.4.4.6.5.2 0 .1.3.2.9v.3c-.6.1-1.1.3-1.7.5 0 0-.4-.7-.7-1.5-.3-.8-.5-1.1-.3-1.3.2-.3.5-.6.5-1s-.2-.8-.5-1c-.3-.2-.6-.2-.9 0-.2.2-.2.3-.4.4s-.6-.2-1 .2c-.3.4-.3.9 0 1.3.3.3.6.5 1 .6.3 0 .3.3.6 1.2.3.9.5 1.2.5 1.5-.6.3-1.1.5-1.7.9l-.2-.4c-.3-.4-.5-.6-.4-.9s.3-.5.2-.7c-.1-.3-.2-.5-.5-.6-.2-.1-.4-.1-.6 0-.1.1 0 .3-.2.3-.2.1-.4 0-.7.3-.2.3-.1.7.1.9.2.1.5.2.8.3.2 0 .3.2.6.8l.2.4c-.4.3-.8.6-1.1.9-.3-.2-.6-.6-1.2-1.2-.5-.5-.9-.8-.8-1.1 0-.4 0-.8-.1-1.2-.2-.5-.7-.7-1.2-.5-.5.2-.4.7-.6.8-.2.2-.3 0-.6.2s-.4.5-.3.8c.1.4.3.7.7.9.3.1.8 0 1.1 0 .3 0 .6.3 1.1.8.5.5 1 1.2 1 1.2-.4.4-.8.8-1.1 1.3l-.4-.2c-.6-.4-.7-.4-.7-.6 0-.3-.1-.5-.2-.8-.2-.3-.6-.4-.9-.2-.3.2-.2.5-.3.6s-.2 0-.4.2c-.1.2-.1.4 0 .6.1.2.3.4.6.5.2 0 .5-.1.7-.2s.4.1.8.4l.4.3-.9 1.5c-.3-.1-.8-.4-1.5-.6s-1.1-.4-1.2-.7c-.1-.4-.3-.7-.5-1-.4-.3-1-.3-1.3 0-.4.4-.1.8-.2 1-.1.2-.3.2-.5.4-.2.3-.2.6 0 .9.2.3.6.5 1 .5.3 0 .7-.3 1-.5s.6 0 1.3.4c.5.2 1 .5 1.5.7l-.6 1.8h-.3c-.6-.1-.8-.1-.9-.3-.1-.2-.3-.5-.5-.6-.3-.2-.7-.1-.9.2-.2.3 0 .5 0 .7 0 .2-.2.2-.3.3-.1.2 0 .5.1.6.2.2.5.3.7.2.2 0 .4-.3.6-.5.2-.1.4 0 .9 0h.3c-.1.6-.2 1.2-.2 1.8h-1.6c-.8 0-1.2 0-1.3-.3s-.4-.7-.7-.8c-.3-.2-.8-.2-1.1 0-.3.2-.4.5-.4.8 0 .3.2.3.2.6s-.4.5-.2 1 .7.7 1.2.6c.3-.2.7-.4.9-.7.2-.2.4-.1 1.4-.1.9.1 1.3 0 1.6.1 0 .6 0 1.2.1 1.8h-.3c-.5 0-.8.2-.9 0s-.3-.4-.6-.5c-.3 0-.5 0-.8.2-.2.2-.2.4-.2.6.1.2.2.2.2.4s-.2.4 0 .7c.2.3.6.4.9.2.2-.2.4-.4.5-.6.1-.2.3-.2.9-.3h.3c.1.6.3 1.1.5 1.7 0 0-.7.4-1.5.7-.8.3-1.1.5-1.3.3-.3-.2-.6-.5-1-.5s-.7.2-1 .5c-.2.3-.2.6 0 .9.2.2.3.2.4.4.1.2-.2.6.2 1 .4.3.9.3 1.3 0 .3-.3.5-.6.6-1 .1-.3.3-.3 1.2-.6s1.2-.5 1.5-.6c.2.6.5 1.1.9 1.7l-.4.3c-.4.3-.6.5-.9.4-.2-.1-.5-.3-.7-.2-.3 0-.5.2-.6.5-.1.2-.1.4 0 .6.2.1.3 0 .4.2s0 .5.3.7c.3.2.7.1.9-.1.1-.2.2-.5.3-.8 0-.2.2-.3.8-.6l.4-.2c.3.5.6.9 1 1.3 0 0-.5.6-1.1 1.2-.6.6-.8.8-1.1.8-.3-.1-.7-.2-1.1-.1-.4.2-.6.5-.7.8-.1.3 0 .7.3.9.2.1.4 0 .6.2.2.2 0 .6.5.8.5.2 1 0 1.3-.4.1-.4.2-.8.2-1.2 0-.3.2-.4.9-1s.9-.9 1.2-1.1c.4.4.9.7 1.3 1.1-.1.1-.1.3-.2.4-.3.4-.4.7-.7.7h-.7c-.2.1-.4.4-.4.7 0 .2.1.4.3.5h.4c.1 0 .1.4.5.5.3.1.7-.1.8-.5v-.8c0-.2 0-.3.5-.8l.3-.3 1.5.9s-.3.8-.6 1.5c-.3.8-.4 1.1-.7 1.1-.3.1-.8 0-1 .3-.3.3-.4.7-.4 1 0 .3.3.6.6.7.3 0 .4-.1.6 0 .2.1.3.6.8.6s.9-.4 1-.9c0-.4-.1-.8-.3-1.1-.1-.3 0-.5.5-1.3s.5-1.2.7-1.5c.6.2 1.2.4 1.8.5v.3c-.1.5-.1.8-.3.9-.3 0-.5.2-.7.3-.1.2-.2.5-.1.8 0 .2.3.4.5.4s.3-.1.4 0c.2.1.3.4.6.3.4-.1.6-.4.6-.8-.1-.3-.2-.5-.4-.7-.1-.2 0-.3.1-1v-.3c.5.1 1 .1 1.5.2v1.6c0 .7 0 1.2-.2 1.4-.3.2-.6.5-.7.9-.2.5.1 1 .5 1.2.5.2.8-.2 1-.2s.3.2.5.3c.3 0 .6-.1.8-.4.2-.3.2-.7.1-1.1-.1-.3-.5-.5-.8-.7-.3-.2-.2-.6-.2-1.3 0-.7.1-1.6.1-1.6.7 0 1.4-.1 2-.2v.3c.1.6.2.8 0 .9-.2.2-.3.5-.4.7 0 .4.2.7.5.8.4 0 .5-.2.6-.3.2 0 .2 0 .4.1.2 0 .4-.2.5-.4.1-.2.1-.5 0-.8-.1-.2-.5-.3-.6-.4-.2-.1-.2-.4-.3-.9v-.4c.5-.1.9-.2 1.4-.4.2.3.3.8.6 1.5s.5 1.1.4 1.3c-.2.3-.3.7-.4 1.1 0 .5.4.9 1 1 .6 0 .6-.5.9-.5.2-.1.3 0 .6 0s.5-.3.6-.6c.1-.4-.1-.8-.3-1.1-.2-.3-.7-.3-1-.3-.3-.1-.4-.5-.7-1.2s-.5-1.6-.5-1.6c.6-.2 1.2-.5 1.7-.9l.2.3c.4.5.5.7.4.8v.8c.1.3.4.6.8.5.4 0 .4-.4.5-.5.1-.1.2 0 .4 0 .2-.1.3-.3.3-.5 0-.3-.1-.5-.4-.7-.2-.1-.5 0-.8 0-.2 0-.3-.3-.6-.7l-.2-.4c.5-.3 1-.7 1.4-1.1.4.4.8.7 1.2 1.1.5.5.8.8.8 1.1-.1.3-.2.7-.1 1.1.2.4.5.6.8.7.2 0 .3-.1.5-.1.1-.3 0-.4.2-.6.2-.2.6 0 .8-.5.2-.5 0-1-.4-1.3-.4-.1-.8-.2-1.2-.1-.3 0-.4-.2-1-.9s-.9-.9-1.1-1.2c.5-.5.9-1 1.3-1.6l.2.1c.4.3.7.4.7.7v.8c.2.2.4.4.7.4.2 0 .5-.1.5-.3v-.4c0-.1.4-.1.5-.5.1-.3-.2-.7-.5-.8-.3-.1-.5-.1-.8 0-.2 0-.3 0-.8-.5v.5c.3-.4.5-.8.7-1.3 0 0 .8.3 1.5.6s1.1.4 1.1.7c.1.3 0 .8.3 1 .3.3.7.4 1 .4.3 0 .6-.3.7-.6 0-.3-.1-.4 0-.6s.6-.3.6-.8-.4-.9-.9-1c-.4 0-.8.1-1.1.3-.3.1-.5 0-1.3-.5s-1.2-.5-1.5-.7c.2-.6.4-1.2.5-1.8h.3c.5.1.8.1.9.3.1.2.1.5.3.7.2.2.5.2.8.1.2-.1.4-.3.4-.5s-.1-.2 0-.4.4-.3.3-.6c-.1-.3-.4-.6-.8-.6-.3.1-.5.2-.7.4-.2.1-.3 0-1-.1h-.1c.1-.5.1-1 .2-1.5h1.6c.7 0 1.2 0 1.4.1.2.3.5.6.9.8.5.2 1-.1 1.2-.5.2-.5-.2-.8-.2-1s.2-.3.3-.5c.1-.3-.1-.6-.4-.8"/><path class="st1" d="M244.3 134.4c0 .9-.8 1.6-1.6 1.5-.9 0-1.6-.8-1.5-1.6 0-.9.8-1.6 1.6-1.5.9 0 1.6.8 1.5 1.6M250.5 134.4c0 .9-.7 1.6-1.6 1.6-.9 0-1.6-.7-1.6-1.6 0-.9.7-1.6 1.6-1.6.9.1 1.6.8 1.6 1.6M249.8 140.3c0 .9-.8 1.6-1.6 1.5-.9 0-1.6-.8-1.5-1.6 0-.9.8-1.6 1.6-1.5.8 0 1.5.7 1.5 1.6M244 140.5c0 .9-.7 1.6-1.6 1.5s-1.6-.7-1.5-1.6c0-.9.7-1.6 1.6-1.5.8 0 1.5.7 1.5 1.6M244.1 147.1c0 .9-.8 1.6-1.6 1.5-.9 0-1.6-.8-1.5-1.6 0-.9.8-1.6 1.6-1.5.8 0 1.5.7 1.5 1.6M249.8 146.2c0 .9-.7 1.6-1.6 1.5-.9 0-1.6-.7-1.5-1.6 0-.9.7-1.6 1.6-1.5.9 0 1.6.7 1.5 1.6M255 138.8c0 .9-.7 1.6-1.6 1.5-.9 0-1.6-.7-1.5-1.6 0-.9.7-1.6 1.6-1.5.8 0 1.5.7 1.5 1.6M238.9 138.4c0 .9-.7 1.6-1.6 1.6-.9 0-1.6-.7-1.6-1.6 0-.9.7-1.6 1.6-1.6 1 0 1.6.7 1.6 1.6M237.7 143.9c0 .9-.8 1.6-1.6 1.5-.9 0-1.6-.8-1.5-1.6s.8-1.6 1.6-1.5c.9 0 1.5.8 1.5 1.6M238.6 149.2c0 .9-.7 1.6-1.6 1.5-.9 0-1.6-.7-1.5-1.6s.7-1.6 1.6-1.5c.9 0 1.5.7 1.5 1.6M243.9 152.9c0 .9-.8 1.6-1.6 1.6-.9 0-1.6-.8-1.6-1.6 0-.9.8-1.6 1.6-1.6.9-.1 1.6.7 1.6 1.6M250 153c0 .9-.7 1.6-1.6 1.5s-1.6-.7-1.5-1.6c0-.9.7-1.6 1.6-1.5.8 0 1.5.7 1.5 1.6M254.7 149.6c0 .9-.7 1.6-1.6 1.5s-1.6-.7-1.5-1.6c0-.9.7-1.6 1.6-1.5.9 0 1.6.8 1.5 1.6M256.2 144.4c0 .9-.7 1.6-1.6 1.5-.9 0-1.6-.7-1.5-1.6 0-.9.7-1.6 1.6-1.5.9 0 1.6.7 1.5 1.6M224.9 123.7c-.3-.2-.6-.2-.9-.1-.3.1-.4.5-.6.7s-.5.2-1.1.1c-.5 0-.9-.1-1.4-.1 0-.6-.1-1.1-.1-1.7h.3c.5-.1.7-.2.8 0 .2.1.4.3.6.3.3 0 .6-.1.6-.4 0-.3-.2-.4-.2-.5 0-.1 0-.2.1-.3 0-.2-.1-.3-.3-.4-.2-.1-.4-.1-.6 0-.2.1-.2.4-.3.5-.1.2-.3.2-.7.3h-.3l-.3-1.2c.3-.1.7-.3 1.2-.5.6-.2.9-.4 1.1-.3.3.2.6.2.9.3.4 0 .7-.4.8-.8 0-.5-.4-.5-.5-.7-.1-.2 0-.3 0-.5-.1-.3-.3-.5-.5-.5-.3-.1-.6 0-.9.3-.2.2-.2.6-.3.8-.1.3-.4.3-1 .6-.4.2-.9.3-1.3.4-.2-.5-.4-.9-.7-1.4l.3-.2c.5-.3.5-.4.7-.4h.7c.3-.1.5-.4.4-.6 0-.3-.3-.3-.4-.4s0-.2 0-.3c-.1-.2-.3-.3-.5-.3s-.4.1-.6.3c-.1.2-.1.4-.1.6 0 .2-.2.3-.6.5l-.3.2c-.2-.4-.5-.7-.8-1l1-1c.5-.5.7-.7.9-.7.3.1.6.1 1 0 .4-.2.6-.6.4-1-.2-.4-.6-.3-.7-.5-.1-.1 0-.3-.1-.5-.2-.2-.4-.3-.7-.3-.3.1-.6.3-.7.6-.1.3-.1.6 0 .9 0 .3-.3.5-.7.9s-1 .9-1 .9c-.3-.3-.7-.6-1.1-.9l.2-.3c.3-.5.3-.6.5-.6s.4-.1.6-.2c.2-.2.3-.5.1-.8-.2-.3-.4-.2-.5-.2-.1-.1 0-.2-.2-.3-.2-.1-.4-.1-.5 0-.2.1-.4.3-.4.5s0 .4.2.6c.2.2-.1.3-.3.7l-.2.3c-.4-.3-.8-.5-1.2-.7 0-.3.3-.7.5-1.2s.3-.9.6-1c.3-.1.6-.3.8-.5.3-.3.3-.8 0-1.1-.3-.3-.6-.1-.8-.2-.2-.1-.1-.2-.3-.4-.2-.1-.5-.1-.7 0-.3.2-.4.5-.5.8 0 .3.3.6.4.8s0 .5-.3 1.1l-.6 1.2c-.4-.2-.8-.3-1.2-.4v-.5c.1-.5.1-.7.3-.8.2-.1.4-.2.5-.4.1-.3.1-.6-.2-.8-.3-.2-.5 0-.6 0-.1 0-.1-.1-.3-.2-.1-.1-.4 0-.5.1-.1.2-.2.4-.2.6 0 .2.3.4.4.5.1.1 0 .4 0 .8v.3c-.6-.1-1.2-.2-1.8-.2v-1.4c0-.7 0-1 .2-1.1.2-.1.6-.3.7-.6.1-.3.1-.6 0-.9-.1-.2-.4-.4-.7-.3-.2 0-.3.2-.5.2s-.4-.3-.8-.2c-.4.2-.6.6-.5 1 .1.3.3.6.6.8.2.2.1.4 0 1.1-.1.8 0 1 0 1.4-.5 0-1 0-1.4.1v-.2c0-.4-.1-.6 0-.8.1-.1.4-.3.4-.5s0-.4-.2-.6c-.1-.1-.3-.2-.5-.1-.1 0-.1.2-.3.2-.1 0-.3-.2-.6 0-.2.2-.3.5-.2.8.1.2.3.3.5.5.1 0 .1.2.2.8v.2c-.5.1-.9.2-1.4.4l-.6-1.2c-.2-.6-.4-.9-.2-1.1.2-.2.5-.5.4-.8 0-.3-.1-.6-.4-.8-.2-.1-.5-.1-.7 0-.2.1-.1.3-.3.4-.2.1-.5-.2-.8.1-.3.3-.3.8 0 1.1.2.2.5.4.8.5.2 0 .3.3.5 1 .3.7.4 1 .5 1.3-.5.2-.9.4-1.4.7l-.2-.3c-.2-.4-.4-.5-.3-.7.1-.2.2-.4.2-.6-.1-.2-.2-.4-.4-.5-.2-.1-.4-.1-.5 0-.1.1 0 .2-.2.3-.2.1-.4 0-.5.2-.2.3-.1.6.1.8.2.1.4.2.6.2.1 0 .2.2.5.6l.2.3c-.3.2-.6.5-.9.7l-1-1c-.5-.5-.7-.6-.7-.9.1-.3.1-.7 0-1-.2-.4-.6-.5-1-.4-.4.2-.3.5-.5.7-.1.1-.3 0-.5.2s-.3.4-.3.7c.1.3.3.6.6.7.3.1.6 0 .9 0s.5.2.9.7.9 1 .9 1c-.3.3-.6.7-.9 1.1l-.3-.2c-.5-.3-.6-.4-.6-.5 0-.2-.1-.4-.2-.6-.2-.2-.5-.3-.8-.1-.3.2-.2.4-.2.5-.1.1-.2 0-.3.2-.1.1-.2.3-.1.5s.3.4.5.4.4 0 .6-.2c.2-.2.4 0 .7.3l.3.2c-.3.4-.5.8-.7 1.2-.3-.1-.7-.3-1.2-.5-.6-.2-.9-.3-1-.6-.1-.3-.3-.6-.5-.8-.3-.3-.8-.3-1.1 0-.3.3-.1.6-.2.8-.1.2-.2.1-.4.3-.1.2-.1.5 0 .7.2.3.5.4.8.4.3 0 .6-.3.8-.4.2-.1.5 0 1.1.3l1.2.6c-.2.5-.4 1-.5 1.5h-.4c-.5-.1-.7-.1-.8-.3-.1-.2-.2-.4-.4-.5-.3-.1-.6-.1-.8.2-.2.3 0 .5 0 .6s-.1.1-.2.3c-.1.2 0 .4.1.5.2.2.4.2.6.2.2 0 .4-.3.5-.4s.4 0 .8 0h.2c-.1.5-.2 1-.2 1.5h-1.4c-.7 0-1 0-1.1-.2s-.3-.6-.6-.7c-.3-.1-.6-.1-.9 0-.2.1-.4.4-.3.7 0 .2.2.3.2.5s-.4.4-.2.8.6.6 1 .5c.3-.1.6-.3.8-.6.1-.2.4-.1 1.1 0 .8.1 1 0 1.3 0 0 .5.1 1 .1 1.4h-.2c-.4 0-.6.1-.8 0-.1-.1-.3-.4-.5-.4s-.5 0-.6.2c-.1.1-.2.3-.1.5 0 .1.2.1.2.3 0 .1-.2.3 0 .6.2.2.5.3.8.2.2-.1.3-.3.4-.5.1-.1.2-.1.8-.2h.2c.1.5.2.9.4 1.4l-1.2.6c-.6.2-.9.4-1.1.2s-.5-.5-.8-.4c-.3 0-.6.1-.8.4-.1.2-.1.5 0 .7.1.2.3.1.4.3.1.2-.2.5.1.8.3.3.8.3 1.1 0 .2-.2.4-.5.5-.8 0-.2.3-.2 1-.5l1.3-.5c.2.5.4.9.7 1.4l-.3.2c-.4.2-.5.4-.7.3-.2-.1-.4-.2-.6-.2-.2.1-.4.2-.5.4-.1.2-.1.4 0 .5.1.1.2 0 .3.2.1.2 0 .4.2.5.3.2.6.1.8-.1.1-.2.2-.4.2-.6 0-.1.2-.2.6-.5l.3-.2c.3.4.5.7.8 1.1 0 0-.4.5-.9 1s-.7.7-.9.6c-.3-.1-.6-.2-.9-.1-.3.1-.5.4-.6.7-.1.3 0 .5.2.7.2.1.3 0 .5.2s0 .5.5.7c.4.2.8 0 1-.4.1-.3.1-.6.1-.9 0-.2.2-.3.7-.9.6-.5.8-.7 1-.9.3.3.7.6 1.1.9l-.2.3c-.2.4-.3.6-.5.6h-.6c-.2.1-.3.3-.3.5s.1.4.3.5h.3c.1 0 .1.3.4.4.3.1.6-.1.7-.4v-.7c0-.2 0-.3.4-.7l.2-.3c.4.3.8.5 1.3.7 0 0-.2.6-.5 1.3s-.3.9-.6.9c-.3.1-.7 0-.9.2-.2.2-.3.6-.3.9 0 .3.2.5.5.6.2 0 .3-.1.5 0s.2.5.7.5c.4 0 .8-.3.8-.7 0-.3-.1-.6-.2-.9-.1-.2 0-.4.4-1.1.4-.7.4-1 .6-1.2.5.2 1 .3 1.4.5v.2c-.1.4-.1.6-.3.7s-.5.1-.6.3c-.1.2-.2.4-.1.6 0 .2.2.3.4.3s.2-.1.3 0c.1.1.2.3.5.2.3-.1.5-.3.5-.6l-.3-.6c-.1-.1 0-.3.1-.8v-.2c.4 0 .8.1 1.2.2v1.4c0 .6 0 1-.1 1.1-.2.2-.5.5-.6.7-.1.4 0 .8.4 1 .4.2.6-.1.8-.1s.2.2.5.2.5-.1.7-.3c.2-.3.2-.6.1-.9-.1-.3-.5-.4-.7-.6-.2-.2-.4-.3-.4-1 0-.5.1-.9.1-1.4.6 0 1.1-.1 1.7-.1v.3c.1.5.2.6 0 .8l-.3.6c0 .3.1.6.4.6.3 0 .4-.2.5-.2h.3c.2 0 .3-.1.4-.3.1-.2.1-.4 0-.6-.1-.2-.4-.2-.5-.3-.2-.1-.2-.3-.3-.7v-.3c.4 0 .8-.2 1.2-.3.1.3.3.7.5 1.2.2.6.4.9.3 1.1l-.3.9c0 .4.4.8.8.8.5 0 .5-.4.7-.5.2-.1.3 0 .5 0 .2-.1.4-.3.5-.5.1-.3 0-.6-.3-.9-.2-.2-.6-.2-.8-.3-.3-.1-.3-.4-.6-1-.2-.4-.3-.9-.4-1.3.5-.2.9-.4 1.4-.7l.2.3c.3.5.4.5.4.7v.7c.1.3.4.5.6.4.3 0 .3-.3.4-.4.1-.1.2 0 .3 0 .2-.1.3-.3.3-.5s-.1-.4-.3-.6c-.2-.1-.4 0-.6 0-.2 0-.3-.2-.5-.6l-.2-.3 1.2-.9c.3.3.7.6 1 .9.4.4.7.6.6.9-.1.3-.2.6-.1.9.1.3.4.5.7.6.3.1.5 0 .7-.2.1-.2 0-.3.2-.5s.5 0 .7-.5c.1-.4 0-.8-.4-1-.3-.1-.6-.1-1-.1-.2 0-.3-.2-.8-.8-.5-.6-.7-.8-.9-1 .4-.4.8-.8 1.1-1.3h.1c.3.3.6.4.6.5v.6c.1.2.3.3.5.3s.4-.1.5-.3v-.3c0-.1.4 0 .4-.4.1-.3-.1-.6-.4-.7h-.7c-.2 0-.3 0-.7-.4l-.1-.1c.2-.3.4-.7.6-1 .4.1.9.3 1.3.5.6.3.9.3.9.6s.1.6.2.9c.2.2.5.3.9.3.3 0 .5-.2.6-.5 0-.2-.1-.3 0-.5s.5-.2.5-.7c0-.4-.3-.8-.7-.8-.3 0-.6.1-.9.3-.2 0-.4 0-1.1-.4-.7-.4-1-.4-1.2-.6.2-.5.3-1 .5-1.4h.2c.4.1.7.1.7.3.1.2.1.4.3.5.2.1.4.1.6 0 .2-.1.3-.2.3-.4s-.1-.2 0-.3c.1-.1.3-.2.2-.5-.1-.3-.3-.5-.6-.5l-.6.3c-.1 0-.3 0-.8-.1h-.2c.1-.4.1-.8.2-1.2h1.4c.6 0 1 0 1.1.1.2.2.5.5.7.6.4.1.8 0 1-.4.2-.4-.1-.6-.1-.8 0-.2.2-.2.2-.5s-.1-.5-.3-.7M234.3 127.7c0 .9-.8 1.6-1.7 1.6-.9.1-1.7-.6-1.8-1.5-.1-.9.6-1.7 1.5-1.8h.3c1 0 1.7.8 1.7 1.7M240.7 127.7c0 .9-.8 1.6-1.7 1.6-.9-.1-1.6-.9-1.4-1.9.1-.8.7-1.4 1.5-1.4.9 0 1.6.8 1.6 1.7M240 133.7c0 .9-.8 1.6-1.7 1.6-.9 0-1.6-.8-1.6-1.7 0-.9.8-1.6 1.7-1.6.9 0 1.6.8 1.6 1.7M233.9 133.9c0 .9-.8 1.6-1.7 1.6-.9 0-1.6-.8-1.6-1.7 0-.9.7-1.6 1.6-1.6s1.7.7 1.7 1.7M234 140.8c-.1.9-.9 1.6-1.8 1.5-.8-.1-1.4-.7-1.5-1.5 0-.9.7-1.6 1.6-1.6h.1c.9 0 1.7.7 1.6 1.6"/><path class="st1" d="M240 139.9c0 .9-.7 1.6-1.6 1.6s-1.6-.7-1.6-1.6c0-.9.7-1.6 1.6-1.6s1.6.6 1.6 1.6M245.4 132.2c0 .9-.8 1.6-1.7 1.6-.9 0-1.6-.8-1.6-1.7 0-.9.8-1.6 1.7-1.6.9 0 1.6.8 1.6 1.7M228.7 131.7c0 .9-.8 1.6-1.7 1.6-.9 0-1.6-.8-1.6-1.7 0-.9.8-1.6 1.7-1.6.9.1 1.6.8 1.6 1.7M227.4 137.5c.1.9-.6 1.7-1.5 1.8-.9.1-1.7-.6-1.8-1.5v-.3c.1-.9.9-1.6 1.8-1.5.8.1 1.4.7 1.5 1.5M228.4 142.9c.1.9-.6 1.7-1.5 1.8s-1.7-.6-1.8-1.5v-.3c.1-.9.9-1.6 1.8-1.5.8.1 1.4.8 1.5 1.5M233.8 146.7c0 .9-.8 1.6-1.7 1.6-.9 0-1.6-.7-1.6-1.6v-.1c0-.9.8-1.6 1.7-1.6.9.1 1.6.8 1.6 1.7M240.2 146.9c0 .9-.8 1.6-1.7 1.6-.9 0-1.6-.8-1.6-1.7 0-.9.8-1.6 1.7-1.6.9 0 1.6.8 1.6 1.7M245.1 143.5c0 .9-.8 1.6-1.7 1.6-.9 0-1.6-.8-1.6-1.7 0-.9.8-1.6 1.7-1.6s1.6.7 1.6 1.7M246.5 138.1c0 .9-.8 1.6-1.7 1.6s-1.6-.8-1.6-1.7c0-.9.8-1.6 1.7-1.6.9 0 1.7.7 1.6 1.7 0-.1 0-.1 0 0M224.5 156.6c-.2-.1-.4-.1-.6 0-.2 0-.3.3-.4.5-.1.1-.3.1-.7 0-.4-.1-.9 0-.9 0V156h.2c.4 0 .5-.1.5 0 .1.1.3.2.4.2.2 0 .4-.1.4-.3 0-.2-.1-.3-.1-.4v-.2c0-.1 0-.2-.2-.3-.1-.1-.3-.1-.4 0-.1 0-.2.3-.2.4-.1.1-.2.1-.5.2h-.2c-.1-.3-.1-.5-.2-.8l.8-.3c.5-.2.6-.3.7-.2.2.1.4.2.6.2.3 0 .5-.2.5-.5s-.3-.3-.3-.5v-.3c0-.2-.2-.3-.4-.3s-.4 0-.6.2c-.1.1-.2.4-.2.6s-.3.2-.6.4l-.9.3c-.1-.3-.3-.6-.5-.9l.2-.1c.3-.2.4-.3.5-.2h.5c.2-.1.3-.2.3-.4s-.2-.2-.3-.3v-.2c-.1-.1-.2-.2-.3-.2-.2 0-.3.1-.4.2v.4c0 .1-.1.2-.4.3l-.2.1c-.2-.2-.3-.5-.5-.7.1-.1.4-.3.6-.6.3-.3.4-.5.6-.5h.6c.2-.1.4-.4.3-.7-.1-.3-.4-.2-.5-.3-.1-.1 0-.2-.1-.3-.1-.1-.3-.2-.5-.2s-.4.2-.5.4v.6c0 .2-.2.3-.5.6s-.7.6-.7.6c-.2-.2-.5-.4-.7-.6.1-.1.1-.1.1-.2.2-.3.2-.4.3-.4.1 0 .3-.1.4-.1.1-.1.2-.3.1-.5s-.3-.1-.3-.2c-.1-.1 0-.1-.1-.2s-.2-.1-.3 0l-.3.3c0 .1 0 .3.1.4 0 .1 0 .2-.2.5 0 .1-.1.1-.1.2-.3-.2-.5-.3-.8-.5 0-.2.2-.5.3-.8.1-.4.2-.6.4-.6l.6-.3c.2-.2.2-.5 0-.7-.2-.2-.4 0-.5-.1-.1-.1 0-.1-.2-.3-.1-.1-.3-.1-.5 0s-.3.3-.3.5.2.4.3.5c.1.2 0 .3-.2.7-.1.3-.3.5-.4.8l-.8-.3v-.2c0-.3 0-.5.2-.5l.3-.3c.1-.2.1-.4-.1-.5-.2-.1-.3 0-.4 0-.1 0-.1 0-.2-.1s-.2-.1-.3 0c-.1.1-.1.3-.1.4 0 .1.2.2.3.3.1.1 0 .2 0 .5v.2c-.4-.1-.7-.1-1.1-.2v-.9c0-.4 0-.6.1-.7.1-.1.4-.2.5-.4.1-.2.1-.4 0-.6-.1-.2-.3-.2-.4-.2-.1 0-.2.1-.3.1-.1 0-.3-.2-.5-.1-.3.1-.4.4-.3.7.1.2.2.4.4.5.1 0 0 .2 0 .7v.9h-1v-.2-.5l.3-.3c0-.1 0-.3-.1-.4-.1-.1-.2-.1-.3 0-.1 0-.1.1-.2.1s-.2-.1-.4 0-.2.3-.1.5l.3.3s0 .1.1.5v.1c-.3.1-.6.1-.9.3l-.4-.8c-.2-.4-.3-.6-.2-.7.1-.1.3-.3.3-.5s-.1-.4-.3-.5c-.1-.1-.3-.1-.5 0-.1 0-.1.2-.2.2-.1.1-.3-.1-.5 0-.2.2-.2.5 0 .7.2.1.3.2.5.3.1 0 .2.2.3.7.2.5.3.6.3.8-.3.1-.6.3-.9.5 0-.1-.1-.1-.1-.2-.1-.3-.3-.4-.2-.5.1-.1.1-.3.1-.4 0-.1-.1-.3-.3-.3-.1-.1-.2-.1-.3 0 0 0 0 .1-.1.2s-.2 0-.4.1c-.1.2-.1.4 0 .5.1.1.3.1.4.1.1 0 .1 0 .3.4l.1.2c-.2.1-.4.3-.6.5l-.6-.6c-.4-.4-.5-.4-.5-.6v-.6c-.1-.3-.4-.4-.7-.3-.3.1-.2.4-.3.5-.1.1-.2 0-.3 0-.1.1-.2.3-.2.5.1.2.2.4.4.5h.6c.2 0 .3.1.6.5.3.3.6.7.6.7-.2.2-.4.5-.6.7l-.2-.1c-.3-.2-.4-.2-.4-.3 0-.2-.1-.3-.1-.4-.1-.2-.3-.2-.5-.1s-.1.3-.2.4c-.1.1-.1 0-.2.1s-.1.2 0 .3l.3.3c.1 0 .3 0 .4-.1.1-.1.2 0 .5.2l.2.1c-.2.3-.3.5-.5.8-.3-.1-.6-.2-.8-.3-.5-.2-.6-.2-.6-.4l-.3-.6c-.2-.2-.5-.2-.7 0-.2.2 0 .4-.1.5-.1.1-.2.1-.3.2-.1.1-.1.3 0 .5s.3.3.5.3.4-.2.5-.3c.1-.1.3 0 .7.2.3.1.5.3.8.4-.1.3-.2.6-.3 1h-.2c-.3 0-.5 0-.5-.2l-.3-.3c-.2-.1-.4-.1-.5.1-.1.2 0 .3 0 .4 0 .1 0 .1-.1.2s-.1.2 0 .3c.1.1.3.1.4.1.1 0 .2-.2.3-.3.1-.1.2 0 .5 0h.1c0 .3-.1.7-.1 1h-.9c-.4 0-.6 0-.7-.1-.1-.1-.2-.4-.4-.5-.2-.1-.4-.1-.6 0-.1.1-.3.3-.2.4.1.1.1.2.1.3 0 .1-.2.3-.1.5.1.3.4.4.7.3.2-.1.4-.2.5-.4.1-.1.2 0 .7 0h.9v1h-.2c-.3 0-.4.1-.5 0l-.3-.3c-.1 0-.3 0-.4.1-.1.1-.1.2-.1.3 0 0 .1 0 .1.2s-.1.2 0 .4.3.2.5.1l.3-.3c0-.1.1-.1.5-.1h.1c.1.3.1.6.3.9-.3.1-.5.3-.8.4-.4.1-.6.3-.7.2-.1-.1-.3-.3-.5-.3s-.4.1-.6.3c-.1.1-.1.3 0 .5 0 .1.2.1.2.2.1.1-.1.3 0 .5.2.2.5.2.7 0 .1-.2.3-.4.3-.6 0-.1.2-.2.7-.3l.8-.3c.1.3.3.6.5.9l-.2.1c-.2.1-.4.3-.5.2-.1-.1-.3-.1-.4-.1-.2 0-.3.1-.3.3-.1.1-.1.2 0 .3.1 0 .1 0 .2.1s0 .2.1.4c.1.1.4.1.5 0 .1-.1.1-.3.1-.4 0-.1.1-.1.4-.3l.2-.1c.2.2.3.5.5.7l-.6.6c-.3.3-.4.5-.6.4-.2-.1-.4-.1-.6 0-.2.1-.3.2-.4.5-.1.2 0 .3.1.5.1 0 .2 0 .3.1.1.1 0 .3.3.5.3.1.6 0 .7-.2v-.6c0-.2.1-.2.5-.6.2-.2.4-.4.7-.6.2.2.5.4.7.6l-.1.2c-.2.2-.2.4-.3.4h-.4c-.1.1-.2.2-.2.4 0 .1.1.2.2.3h.2c.1 0 0 .2.3.3.2 0 .4-.1.5-.3v-.4c0-.1 0-.2.3-.5l.1-.2c.3.2.6.3.8.5 0 0-.1.4-.3.8-.2.4-.2.6-.4.6s-.4.1-.6.2c-.1.2-.2.4-.2.6 0 .2.2.4.3.4h.3c.1 0 .1.3.5.3.3 0 .5-.2.5-.5 0-.2-.1-.4-.2-.6 0-.1 0-.3.3-.7s.3-.6.4-.8c.3.1.6.2 1 .3v.1c0 .3 0 .4-.2.5s-.3 0-.4.2c-.1.1-.1.3 0 .4 0 .1.2.2.3.2h.2c.1 0 .1.2.4.1.2 0 .3-.2.3-.4 0-.1-.1-.3-.2-.4v-.5-.1h.8v.9c0 .4 0 .6-.1.7-.2.1-.3.3-.4.5-.1.3 0 .6.3.7.3.1.4-.1.6-.1s.1.1.3.2c.2 0 .3-.1.4-.2.1-.2.1-.4 0-.6 0-.2-.3-.3-.5-.4-.2-.1-.1-.3-.1-.7v-.9h1.1v.2c0 .4.1.4 0 .5-.1.1-.2.3-.2.4 0 .2.1.4.3.4.2 0 .3-.1.4-.1h.2c.1 0 .2-.1.3-.2.1-.1.1-.3 0-.4 0-.1-.3-.1-.4-.2-.1-.1-.1-.2-.2-.5v-.2l.8-.2c.1.2.2.5.3.8.2.4.3.6.2.7-.1.2-.2.4-.2.6 0 .3.2.5.5.5s.4-.3.5-.3c.1-.1.2 0 .3 0 .2-.1.3-.2.3-.4s0-.4-.2-.6c-.1-.1-.4-.2-.6-.2-.2 0-.2-.3-.4-.6-.1-.3-.2-.6-.3-.8.3-.1.6-.3.9-.5l.1.2c.2.3.3.4.2.5v.4c0 .2.2.3.4.3s.2-.2.3-.3c.1-.1.1 0 .2 0 .1-.1.2-.2.2-.3 0-.1-.1-.3-.2-.4-.1-.1-.3 0-.4 0s-.2-.1-.3-.4c-.1-.1-.1-.1-.1-.2.3-.2.5-.4.8-.6.2.2.5.4.7.6.3.3.5.4.4.6 0 .2-.1.4 0 .6.1.2.2.3.5.4.2 0 .3 0 .5-.1 0-.1 0-.2.1-.3.1-.1.4 0 .5-.3.1-.3 0-.6-.3-.7h-.6c-.1 0-.2-.1-.6-.5l-.6-.6c.3-.3.5-.6.7-.9h.1c.2.1.4.2.4.3v.4c.1.1.2.2.4.2.1 0 .2-.1.3-.2v-.2c0-.1.2 0 .3-.3 0-.2-.1-.4-.3-.5h-.5s-.2 0-.5-.3c.1-.2.3-.5.4-.7.1-.2.4.1.8.3.4.2.6.2.6.4s0 .4.2.6c.2.1.4.2.6.2.2 0 .3-.2.4-.3v-.3c0-.1.3-.1.3-.5 0-.3-.2-.5-.5-.5-.2 0-.4.1-.6.2-.1 0-.2 0-.7-.3l-.8-.4c.1-.3.2-.6.3-1h.2c.3 0 .4 0 .5.2 0 .2 0 .3.2.4.1.1.3.1.4 0 .1 0 .2-.1.2-.3v-.2c0-.1.2-.2.2-.4s-.2-.3-.4-.3c-.1 0-.3.1-.4.2h-.6c.1-.3.1-.5.1-.8h1.6c.1.2.3.3.5.4.3.1.6 0 .7-.3.1-.3-.1-.4-.1-.5 0-.1.1-.1.1-.3s0-.3-.2-.4"/><path class="st1" d="M213.7 152.1c0 .5-.4.9-.9.8-.5 0-.9-.4-.8-.9 0-.5.4-.9.9-.8.4 0 .8.4.8.9M217.1 152.1c0 .5-.4.8-.9.8s-.9-.4-.8-.9c0-.5.4-.9.9-.9s.9.4.8 1M216.7 155.3c0 .5-.4.9-.9.9s-.9-.4-.9-.9.4-.9.9-.9.9.4.9.9M213.5 155.4c0 .5-.4.9-.9.9s-.9-.4-.9-.9.4-.9.9-.9c.6 0 1 .4.9.9M213.6 159c0 .5-.4.9-.9.9s-.9-.4-.9-.9.4-.9.9-.9.9.4.9.9M216.7 158.5c0 .5-.4.8-.9.8s-.9-.4-.9-.9.4-.9.9-.9c.5.1.9.5.9 1M219.6 154.5c0 .5-.4.8-.9.8s-.9-.4-.9-.9.4-.9.9-.9c.5.1.8.4.9 1M210.8 154.3c0 .5-.4.9-.9.9s-.9-.4-.9-.9.4-.9.9-.9.9.4.9.9M210.1 157.3c0 .5-.4.8-.9.8s-.9-.4-.9-.9.4-.9.9-.9.9.4.9 1M210.6 160.1c0 .5-.4.9-.9.9s-.9-.4-.9-.9.4-.9.9-.9.9.4.9.9M213.5 162.1c0 .5-.4.8-.9.8s-.8-.4-.8-.8c0-.5.4-.9.9-.9.4 0 .8.4.8.9M216.8 162.2c0 .5-.4.8-.9.8s-.8-.4-.8-.9.4-.8.9-.8.8.5.8.9M219.4 160.4c0 .5-.4.9-.9.8-.5 0-.8-.4-.8-.9s.4-.9.9-.8c.4 0 .8.4.8.9M220.2 157.5c0 .5-.4.9-.9.9s-.9-.4-.9-.9.4-.9.9-.8c.5 0 .8.4.9.8"/><path class="st0" d="M165.9 155.8c7.6.3 13.8-.7 17.7-3.3 3.3-2.2 4.1-6.6 1.9-9.9-2.2-3.3-6.6-4.1-9.9-1.9-3.8 2.6-7.2 8-9.7 15.1M167.5 162.8c2.8 5.3 5.8 9 9 10.6 2.7 1.3 6 .2 7.4-2.5 1.3-2.7.2-6-2.5-7.4-3.3-1.6-8.2-1.8-13.9-.7M181.4 159.5c5 3.2 9.6 4.9 13.2 4.7 3.1-.1 5.5-2.6 5.4-5.7-.1-3.1-2.6-5.5-5.7-5.4h-.5c-3.6.2-7.9 2.6-12.4 6.4"/><defs><path id="SVGID_1_" d="M3 142.6c0 75.5 61.2 136.7 136.7 136.7 75.5 0 136.7-61.2 136.7-136.7 0-75.5-61.2-136.7-136.7-136.7C64.2 5.9 3 67.1 3 142.6"/></defs><clipPath id="SVGID_2_"><use xlink:href="#SVGID_1_" overflow="visible"/></clipPath><path class="st2 st3" d="M150.5 172.3c-25.1-7.9-18-14.2 6-23.2 11.5-4.3 4.5-13.4 4.8-20.7.1-3.3 13.2-2.7 12.3-15.5-.7-9-29.9-60.9-16.4-36.8 2.5 4.4-13.6-24.1-17.5-40.6-13.3-56.8-7.9-42.8 2.3-41.1 0 0-1.9 19.2-12.5 0C97-64.7 10.5-10.1-27 34.7-65.5 81-57.2 159.3 5 198.2c27.7 17.3-2.4 96-2.4 96l99.6 49.8c0-10.5-7.5-115.2 13.9-113.5 18.6 1.5 41.5.6 39.4-20.4-.6-6.3-1.3-12 3.1-17.3 4.4-5.2 10.9-14.6-8.1-20.5z"/><path class="st3" d="M116.1 229.7s-34.1-2.4-50.7-29.8"/><path class="st0" d="M141 279.5c-76.5 0-138.4-62-138.4-138.4C2.6 64.6 64.6 2.6 141 2.6c76.5 0 138.4 62 138.4 138.4 0 76.5-61.9 138.4-138.4 138.5M141 9C68.1 9 9 68.1 9 141.1s59.1 132.1 132 132.1S273.1 214 273.1 141.1C273 68.1 213.9 9.1 141 9"/><path class="st1" d="M215.3 189.5h-12.6v-3.3h12.6v3.3zm-5.3 3.8h-7.4v3.3h7.4v-3.3zm-7.3 10.4h12.6v-3.3h-12.6v3.3zm7.3 3.9h-7.4v3.3h7.4v-3.3zm-7.3 10.4h12.6v-3.3h-12.6v3.3zm2 18.6c0 9.1-7.4 16.5-16.5 16.6-9.1 0-16.5-7.4-16.6-16.5 0-5.9 3.1-11.3 8.2-14.3V185c0-4.6 3.7-8.4 8.4-8.4 4.6 0 8.4 3.7 8.4 8.4v37.5c5 2.9 8.1 8.3 8.1 14.1m-3.3.1c0-5-2.8-9.6-7.2-11.8l-.9-.5v-39.5c0-2.8-2.3-5.1-5.1-5.1s-5.1 2.3-5.1 5.1v39.5l-.9.5c-6.5 3.3-9.1 11.3-5.8 17.8s11.3 9.1 17.8 5.8c4.5-2.3 7.3-6.8 7.2-11.8m-2.7 0c0 5.8-4.7 10.6-10.5 10.6s-10.6-4.7-10.6-10.5c0-4.8 3.2-9 7.8-10.2l.6-.2V190h4.2v36.3l.6.2c4.7 1.1 7.9 5.3 7.9 10.2m-10-7.2c-.3-1.1-1.4-1.8-2.5-1.6-4 .9-6.8 4.4-6.8 8.5 0 1.2.9 2.1 2.1 2.1 1.2 0 2.1-.9 2.1-2.1 0-2.1 1.5-3.9 3.5-4.4 1.2-.2 1.9-1.3 1.6-2.5"/></g></g></svg>