<?xml version="1.0" encoding="UTF-8"?>
<!DOCTYPE svg PUBLIC "-//W3C//DTD SVG 1.1//EN" "http://www.w3.org/Graphics/SVG/1.1/DTD/svg11.dtd">
<!-- Creator: CorelDRAW -->
<svg xmlns="http://www.w3.org/2000/svg" xml:space="preserve" width="8.5in" height="11in" style="shape-rendering:geometricPrecision; text-rendering:geometricPrecision; image-rendering:optimizeQuality; fill-rule:evenodd; clip-rule:evenodd"
viewBox="0 0 8.5 11"
 xmlns:xlink="http://www.w3.org/1999/xlink">
 <defs>
  <style type="text/css">
   <![CDATA[
    .fil1 {fill:white}
    .fil2 {fill:#64C3F2}
    .fil0 {fill:#FF0004}
   ]]>
  </style>
 </defs>
 <g id="Layer_x0020_1">
  <metadata id="CorelCorpID_0Corel-Layer"/>
  <g id="_125851728">
   <path id="_125328840" class="fil0" d="M7.6826 -0.581724c-0.0315787,-0.0246063 -0.701886,1.31641 -1.26546,2.34903 -1.30452,0.176185 -2.46462,1.86049 -2.46462,1.86049l0.548575 -0.00389764c0.0632165,-0.000452756 0.392461,-0.434528 0.916925,-0.541713l-0.0527717 0.62187c-0.0364882,0.430075 -0.33837,1.06407 -0.641756,1.63657 -0.100319,0.189291 -0.200783,0.371862 -0.291894,0.538106l0.621043 0.129945 -0.219539 0.38561 0.473543 0.0984921 0.247398 -0.354618 0.483461 0.0866142 0.147866 -0.236126 0.389528 0.0947874c0,0 0.845591,-1.2317 1.50294,-2.1405 0.65735,-0.908795 0.212319,-2.02304 0.212319,-2.02304l1.3697 -1.65253 -1.97726 -0.849091zm-2.62996 6.5904c1.46883,-2.59176 1.03214,-1.96084 -0.0753386,-0.0157598l0.0753386 0.0157598zm0.557835 0.139594c1.53716,-2.44789 1.07843,-1.8636 -0.0564331,-0.0101102l0.0564331 0.0101102zm0.637193 -0.144457c1.27075,-1.84455 1.09487,-1.78808 -0.0622992,-0.0151654l0.0622992 0.0151654zm-0.657949 -2.8762c0,0 1.5841,0.172374 1.89857,-1.05893 -0.554854,1.12552 -1.89857,1.05892 -1.89857,1.05893zm0.10139 0.670693c0.46889,0.484898 1.13295,0.674717 1.79111,0.680283 -0.544657,0.033315 -1.38944,-0.12137 -1.79111,-0.680283zm1.70873 -1.40875c-0.0251811,0.0628268 -0.071622,0.10361 -0.071622,0.10361 -3.93701e-006,3.93701e-006 -0.0885394,1.07214 0.211787,1.57828 -0.314654,-0.856138 -0.140161,-1.68189 -0.140165,-1.68189z"/>
   <path id="_54969352" class="fil1" d="M5.58972 3.12762c0,0 1.5841,0.172374 1.89857,-1.05893 -0.554854,1.12552 -1.89857,1.05892 -1.89857,1.05893zm0.10139 0.670693c0.46889,0.484898 1.13295,0.674717 1.79111,0.680283 -0.544657,0.033315 -1.38944,-0.12137 -1.79111,-0.680283zm1.70873 -1.40875c-0.0251811,0.0628268 -0.071622,0.10361 -0.071622,0.10361 -3.93701e-006,3.93701e-006 -0.0885394,1.07214 0.211787,1.57828 -0.314654,-0.856138 -0.140161,-1.68189 -0.140165,-1.68189z"/>
  </g>
  <path class="fil2" d="M1.33433 11.1971c0.028311,0.0283071 0.752634,-1.347 1.43912,-2.30234 1.31628,-0.0141575 2.67502,-1.54274 2.67502,-1.54274l-0.544878 -0.0637008c-0.0627913,-0.00734252 -0.443,0.38287 -0.976669,0.424634l0.128965 -0.610634c0.0891929,-0.422299 0.46687,-1.01429 0.838465,-1.54506 0.122866,-0.175496 0.245063,-0.344295 0.355949,-0.498055l-0.600303 -0.205457 0.265366 -0.355634 -0.457815 -0.156079 -0.289189 0.321465 -0.469102 -0.145516 -0.175835 0.216114 -0.374878 -0.142047c0,0 -0.99087,1.11817 -1.75516,1.93907 -0.764287,0.820906 -0.459894,1.98148 -0.459894,1.98148l-1.45677 1.59831 1.85761 1.08618zm3.31567 -6.34335c0,0 -0.935413,1.25876 -1.13125,1.56064 -0.195839,0.301886 0.045311,0.0170984 0.045311,0.0170984l1.15876 -1.55281 -0.0728189 -0.0249291zm-0.536394 -0.207232c0,0 -0.953362,1.16883 -1.1492,1.47072 -0.195835,0.301882 0.0338465,0.0144528 0.0338465,0.0144528l1.17011 -1.46819 -0.0547559 -0.0169843zm-0.650138 0.0648661c0,0 -0.811378,0.912618 -1.00722,1.2145 -0.195839,0.301886 0.045311,0.0170984 0.045311,0.0170984l1.02186 -1.20889 -0.0599567 -0.0227165z"/>
 </g>
</svg>
