<svg height="512" viewBox="0 0 60 60" width="512" xmlns="http://www.w3.org/2000/svg"><g id="036---IVF" fill="none"><g id="Layer_4" transform="translate(0 1)"><path id="Shape" d="m59 31c-.0014188 8.8969383-5.1339129 16.9951103-13.1789803 20.7941104-8.0450674 3.7990002-17.5596172 2.6173797-24.4310197-3.0341104l-4.41-4.83c-3.2871393-4.8291757-4.6102622-10.7295888-3.7-16.5l4.52-10.48c6.0096917-7.79417955 16.313801-10.8988613 25.6290723-7.7221729s15.5755268 11.9301402 15.5709277 21.7721729z" fill="#cad9fc"/><path id="Shape" d="m56 31c-.0012302 12.1270561-9.4180768 22.1696504-21.52 22.95-4.8005552-.3103677-9.3810371-2.1264641-13.09-5.19l-4.41-4.83c-3.2871393-4.8291757-4.6102622-10.7295888-3.7-16.5l4.52-10.48c4.0163968-5.2228586 10.0857594-8.46519517 16.66-8.9 12.1098159.77026335 21.5380933 10.8157121 21.54 22.95z" fill="#e8edfc"/><path id="Shape" d="m55 31c-.0152228 6.981084-3.854051 13.3926695-10.0005072 16.7027814-6.1464563 3.3101119-13.6124036 2.986599-19.4494928-.8427814l-3.43-2.9c-3.9785479-4.2355675-5.7858287-10.0668142-4.9-15.81l4.22-9.35c5.1318681-6.1211707 13.5442761-8.3789337 21.0514105-5.6498801 7.5071344 2.7290537 12.5057239 9.8620899 12.5085895 17.8498801z" fill="#a4c2f7"/><path id="Shape" d="m52 31c-.0068277 9.9237586-7.6459533 18.1726205-17.54 18.94-3.1824828-.2575756-6.2478399-1.3172052-8.91-3.08l-3.43-2.9c-3.9785479-4.2355675-5.7858287-10.0668142-4.9-15.81l4.22-9.35c3.2707706-3.9156777 7.9832426-6.3458278 13.07-6.74 9.8724781.7957725 17.4813977 9.0355059 17.49 18.94z" fill="#cad9fc"/><path id="Shape" d="m26.95 43.69c-.1742582 1.9240654-1.3480659 3.6145005-3.09 4.45-1.548.722-2.23.593-5.26.76-2.07-.08-1.7 1.649-2.13 4.29-.342 2.1-1.03 3.51-2.97 4.41-1.75.77-2.86.32-4.5-.34 1.088-.528 2.254-.556 3.08-1.72 1.1-1.64-.41-4.4.13-6.85.5765699-2.7549739 2.9479761-4.7681989 5.76-4.89.82-.02 3.19.11 3.09.11.6399568.1644829 1.3193559.059682 1.88-.29 1.055-.757.684-1.215 1.25-2.46l.01.01c.3985989.5952501.876311 1.1335173 1.42 1.6.3895651.3779131.8389654.6887765 1.33.92z" fill="#e8edfc"/><path id="Shape" d="m40.83 25.83c-1.562556 1.5608186-4.0944069 1.5598797-5.6558049-.0020974s-1.561398-4.0938281 0-5.6558052 4.0932489-1.562916 5.6558049-.0020974c1.5592345 1.5645095 1.5592345 4.0954905 0 5.66z" fill="#cad9fc"/><g fill="#e8edfc"><path id="Shape" d="m36.5 26.71c-1.509318-.613742-2.4963831-2.0806688-2.4963831-3.71s.9870651-3.096258 2.4963831-3.71c1.509318.613742 2.4963831 2.0806688 2.4963831 3.71s-.9870651 3.096258-2.4963831 3.71z"/><circle id="Oval" cx="47" cy="28" r="2"/><circle id="Oval" cx="28" cy="26" r="2"/></g><path id="Shape" d="m21.511 31.788 1.865-1.24c.4219084-.2792766.5687406-.8296829.342-1.282l-3.211-6.44-5.007 3.33 4.7 5.452c.329143.3819033.8911068.4590608 1.311.18z" fill="#cad9fc"/><path id="Shape" d="m19.12 18.93-6.67 4.44-11.28-16.96c-.231-.335-.17-.076-.17-5.41 0-.55228475.44771525-1 1-1h3.99c.3374777.00071348.65243869.16944259.84.45z" fill="#e8edfc"/><path id="Shape" d="m22.18 21.72c-8.826 5.907-8.427 5.686-8.86 5.71-.3506099.0197883-.6854647-.1476391-.88-.44l-1.11-1.67c-.1478952-.2212469-.2015002-.4923195-.1489477-.7532053s.2069274-.4900631.4289477-.6367947c7.407-4.878 5.545-3.674 8.35-5.55.2212469-.1478952.4923195-.2015002.7532053-.1489477s.4900631.2069274.6367947.4289477l1.11 1.67c.3028179.4618784.1780252 1.081385-.28 1.39z" fill="#e8edfc"/><path id="Shape" d="m32.57 42.1-.76.76c-1.1846216 1.1774275-2.9485466 1.5528971-4.51.96-.9669258-.3874259-1.8151993-1.0219069-2.46-1.84-1.7339591-1.6829956-1.7786905-4.4518728-.1-6.19l.76-.76c2.434-2.434 7.095-5.1 9.63-2.56 2.75 2.75-.67 7.74-2.56 9.63z" fill="#cad9fc"/><path id="Shape" d="m29.57 42.1c-.6009704.7540953-1.3814361 1.3454613-2.27 1.72-.9669258-.3874259-1.8151993-1.0219069-2.46-1.84-1.7339591-1.6829956-1.7786905-4.4518728-.1-6.19l.76-.76c1.528973-1.5185242 3.3869281-2.6647765 5.43-3.35.4506769.1768416.8594162.4459284 1.2.79 2.75 2.75-.67 7.74-2.56 9.63z" fill="#e8edfc"/></g><path id="Shape" d="m9.9 56.536c-.251.13-1.361.466-1.895.721.6523917.2941656 1.33194964.5239225 2.029.686.7302055.1135051 1.4773824.0349275 2.168-.228-.4-.135-.779-.289-1.2-.458 1.137-.543 2.25-.544 3.076-1.718 1.554-2.311-2.782-9.216 4.292-11.462.2-.06.407-.1.612-.147-2.5985294-3.8109497-3.9863763-8.3174439-3.982-12.93-.0035879-1.1956224.090054-2.3895568.28-3.57-.3365955.0076372-.6537752-.1571756-.841-.437l-1.565-2.993c-.1478952-.2212469-.2015002-.4923195-.1489477-.7532053s.2069274-.4900631.4289477-.6367947l.846-.563h-.006l-10.824-15.637c-.1098407-.16247305-.16900409-.35388401-.17-.55v-4.86c0-.55228475.44771525-1 1-1h-3c-.55228475 0-1 .44771525-1 1v4.86c.00099591.19611599.0601593.38752695.17.55l11.28 16.96h.006l-.846.563c-.2220203.1467316-.3763952.3759089-.4289477.6367947s.0010525.5319584.1489477.7532053l1.11 1.67c.1872248.2798244.5044045.4446372.841.437-.1902809 1.1804159-.2842573 2.3743504-.281 3.57-.0049657 4.6123455 1.3821786 9.1188218 3.98 12.93-.205.043-.411.087-.612.147-2.1145642.6765079-3.7025166 2.4370804-4.158 4.61-.728 3.278 1.901 6.131-1.31 7.849z" fill="#fff" transform="translate(1 1)"/><g id="Layer_2" fill="#428dff"><path id="Shape" d="m41.54 20.46c-1.9539232-1.9489899-5.1174497-1.9463241-7.0680854.005956-1.9506357 1.9522802-1.9506357 5.1158078 0 7.068088 1.9506357 1.9522801 5.1141622 1.9549459 7.0680854.005956.9418957-.9372557 1.471439-2.2112353 1.471439-3.54s-.5295433-2.6027443-1.471439-3.54zm-1.42 5.66c-1.187403 1.130159-3.052597 1.130159-4.24 0-.8587681-.8577-1.1161198-2.1483463-.6519956-3.2698278.4641241-1.1214815 1.5582691-1.8528121 2.7719956-1.8528121s2.3078715.7313306 2.7719956 1.8528121c.4641242 1.1214815.2067725 2.4121278-.6519956 3.2698278z"/><path id="Shape" d="m49.12 26.88c-.7478823-.8026127-1.8742222-1.1329967-2.9371556-.8615422-1.0629335.2714546-1.892932 1.1014531-2.1643866 2.1643866-.2714545 1.0629334.0589295 2.1892733.8615422 2.9371556.7478823.8026127 1.8742222 1.1329967 2.9371556.8615422 1.0629335-.2714546 1.892932-1.1014531 2.1643866-2.1643866.2714545-1.0629334-.0589295-2.1892733-.8615422-2.9371556zm-1.41 2.83c-.3930079.3899779-1.0269921.3899779-1.42 0-.3867403-.3943361-.3867403-1.0256639 0-1.42.3943361-.3867403 1.0256639-.3867403 1.42 0 .3867403.3943361.3867403 1.0256639 0 1.42z"/><path id="Shape" d="m30.12 24.88c-.7478823-.8026127-1.8742222-1.1329967-2.9371556-.8615422-1.0629335.2714546-1.892932 1.1014531-2.1643866 2.1643866-.2714545 1.0629334.0589295 2.1892733.8615422 2.9371556.7478823.8026127 1.8742222 1.1329967 2.9371556.8615422 1.0629335-.2714546 1.892932-1.1014531 2.1643866-2.1643866.2714545-1.0629334-.0589295-2.1892733-.8615422-2.9371556zm-1.41 2.83c-.3930079.3899779-1.0269921.3899779-1.42 0-.3867403-.3943361-.3867403-1.0256639 0-1.42.3943361-.3867403 1.0256639-.3867403 1.42 0 .3867403.3943361.3867403 1.0256639 0 1.42z"/><path id="Shape" d="m36 8c-6.9581411-.0229452-13.5782585 2.9984881-18.12 8.27l-2.37-3.57-2.22-3.34-2.22-3.34-2.22-3.33v-.01l-1.19-1.79c-.37033725-.55999358-.99864386-.89483961-1.67-.89h-3.99c-1.10320187.0032948-1.9967052.89679813-2 2v4.86c.00454041.39350318.11882875.77792761.33 1.11l10.73 16.12v.01c-.4435956.2914091-.7523247.7480237-.8574967 1.2682498-.1051721.520226.0019372 1.0609091.2974967 1.5017502l1.11 1.67c.149011.2277011.3472121.4190677.58.56-.120011.9621173-.1834534 1.9304488-.19 2.9.0005919 4.3607731 1.1936157 8.6383687 3.45 12.37-2.1609345.9010035-3.7393875 2.8086124-4.22 5.1-.1790244 1.4933876-.1182583 3.0057889.18 4.48.0730376.4334444.1197896.8709099.14 1.31-.09.93-.9 1.3-2.14 1.76-.31.11-.6.22-.84.33-.3562883.1787459-.57239299.5520176-.55.95.01868054.3994447.26882862.7512154.64.9.96747498.4669849 2.0174607.7388259 3.09.8.7528087-.0101802 1.4952434-.1770578 2.18-.49 2.002862-.9407214 3.3467466-2.884009 3.52-5.09 0-.03.01-.06.01-.09.21-1.48.28-2.23.31-2.64.02-.17.02-.26.03-.33l-.89-.35.94.24c.17-.38.65-.44 2.24-.46.3 0 .63-.01.97-.02 8.2358889 6.5624552 19.7877019 6.9894966 28.485644 1.0530423 8.697942-5.9364543 12.5099886-16.8495221 9.400135-26.9105606s-12.4150793-16.91957492-22.945779-16.9124817zm-34-1.14v-4.86h3.99l.64.96-1.67 1.11c-.45753997.30893857-.58224524.92801117-.28 1.39.18723292.27966262.50348992.44532105.84.44.19501272.00143758.38619016-.05417767.55-.16l1.67-1.11 1.11 1.67-1.67 1.11c-.46115777.30651804-.58651804.92884223-.28 1.39s.92884223.58651804 1.39.28l1.67-1.12 1.11 1.68-1.67 1.11c-.456275.3051825-.58124727.9211173-.28 1.38.1876841.280422.50256701.4491093.84.45.1966104.0023152.3889872-.0571467.55-.17l1.67-1.11 1.11 1.68-1.67 1.11c-.456275.3051825-.5812473.9211173-.28 1.38.1876841.280422.502567.4491093.84.45.1966104.0023152.3889872-.0571467.55-.17l1.67-1.11 1.11 1.67-1.67 1.12c-.456275.3051825-.5812473.9211173-.28 1.38.1467316.2220203.3759089.3763952.6367947.4289477s.5319584-.0010525.7532053-.1489477l1.67-1.11 1.11 1.67-3.93 2.62-1.07.71zm11.27 20.57-1.11-1.67.84-.55v-.01l1.41-.93 6.1-4.06 1.11 1.67-8.34 5.55zm10.02-6.66-.58-.87c6.352128-6.9854269 17.0231132-7.8731884 24.442218-2.0334449 7.4191047 5.8397435 9.0628198 16.4206814 3.7649796 24.2359618-5.2978402 7.8152805-15.7352462 10.2066404-23.9071976 5.4774831.3133691-.4958861.5525646-1.0349183.71-1.6.3290309.0700842.6637292.110248 1 .12h.09c1.3913318.0057386 2.7271802-.5451639 3.71-1.53l.76-.76c2.63-2.63 5.65-7.95 2.55-11.04-2.87-2.88-7.68-.46-10.45 2l-1.55-2.32.1-.07c.8402293-.5594517 1.1318554-1.6573382.68-2.56l-2.81-5.65.93-.62c.9165369-.6169054 1.1662101-1.8563542.56-2.78zm5.54 19.19-2.33-3.5c1.85-1.71 5.92-4.28 7.92-2.28.9.9.98 2.26.25 4.05-.6746075 1.5467185-1.6270115 2.9566831-2.81 4.16l-.76.77c-.6227751.6200746-1.4713873.9595195-2.35.94-.9108383-.0205197-1.7782649-.393298-2.42-1.04l-.79-.79c-1.1732931-1.1415035-1.3666125-2.957025-.46-4.32l2.08 3.12c.1859338.2823456.5019353.4516321.84.45.3683977-.0035463.705389-.2081835.8784359-.5334283s.1544656-.719065-.0484359-1.0265717zm-5.73 2.26c-.0897342.2458043-.1665064.4961486-.23.75-.12.46-.15.57-.45.8-2.8527876-3.2569856-4.4237503-7.4402958-4.42-11.77 0-.13.01-.26.01-.39l1.43 1.65c.3787458.4459384.9349315.7020766 1.52.7.3927379.0013489.7765213-.1172751 1.1-.34l.1-.07 1.77 2.66c-1.5093397 1.6311875-1.8407314 4.0307828-.83 6.01zm-.28-11.5-1.86 1.24.55.83-.56-.83-3.95-4.6 3.12-2.07zm-8.82 1.28c.0043998-.9400609.0712135-1.8787923.2-2.81.06-.04.12-.05.18-.09l.94-.62.86.99c-.1164347.838367-.1765694 1.6835931-.18 2.53-.0000905 4.2715918 1.3743077 8.4298474 3.92 11.86-.0292484-.0082476-.0596546-.0116261-.09-.01-.7784231-.0701423-1.5615769-.0701423-2.34 0-2.2815677-3.5308725-3.4935692-7.6461209-3.49-11.85zm6.06 16.79c-1.72.02-3.35.04-4.02 1.63-.1702855.3417281-.2592687.7181954-.26 1.1-.04.41-.1 1.09-.29 2.48-.0190155.0755693-.0323857.1524479-.04.23-.0998992 1.4934733-.9985385 2.8165763-2.35 3.46-.3439604.1603597-.7124254.2617721-1.09.3.8647877-.5358817 1.4276544-1.446837 1.52-2.46.0404627-.6268105-.0066575-1.2562016-.14-1.87-.2517816-1.2433608-.3191706-2.5170121-.2-3.78.3904521-1.8031675 1.7071182-3.2644384 3.46-3.84.9915154-.2593041 2.0239138-.323829 3.04-.19.46.03.92.06 1.41.06.04 0 .1.01.15.01.2778767.042674.5597871.0527423.84.03.01 0 .02.01.03.01s.05-.01.07-.01c1.0580425-.1431412 1.9663325-.8243588 2.4-1.8l.32.32c.2865434.2859576.6053485.5376459.95.75-.1135044.4817287-.3061178.9412973-.57 1.36-.8423176 1.2842498-2.246237 2.0902036-3.78 2.17-.52.03-1 .03-1.45.04zm15.94 5.21c-4.3683368-.0051-8.6362665-1.3105434-12.26-3.75.7107271-.2604875 1.3706046-.6428781 1.95-1.13 9.0053693 5.4317089 20.6789916 2.961218 26.7118133-5.6530261 6.0328216-8.614244 4.3636662-20.429095-3.8193944-27.0349754-8.1830605-6.60588049-20.0841985-5.7458226-27.2324189 1.9680015-.1393938-.0692238-.2873493-.1196631-.44-.15-.5218741-.1075047-1.0650788-.0031806-1.51.29l-.36-.53c4.1570237-5.0898547 10.3883224-8.03282069 16.96-8.01 12.1502645 0 22 9.8497355 22 22s-9.8497355 22-22 22z"/></g></g></svg>