<?xml version="1.0" standalone="no"?>
<!DOCTYPE svg PUBLIC "-//W3C//DTD SVG 20010904//EN"
 "http://www.w3.org/TR/2001/REC-SVG-20010904/DTD/svg10.dtd">
<svg version="1.0" xmlns="http://www.w3.org/2000/svg"
 width="800.000000pt" height="772.000000pt" viewBox="0 0 800.000000 772.000000"
 preserveAspectRatio="xMidYMid meet">
<metadata>
Created by potrace 1.15, written by Peter Selinger 2001-2017
</metadata>
<g transform="translate(0.000000,772.000000) scale(0.100000,-0.100000)"
fill="#000000" stroke="none">
<path d="M3368 7244 c-326 -261 -603 -487 -615 -500 -20 -21 -23 -36 -23 -102
l0 -77 -130 -68 -130 -68 0 -67 c0 -37 -3 -105 -6 -152 -4 -47 -4 -82 0 -79 4
3 10 70 14 148 l7 143 358 185 c197 102 360 183 363 181 3 -4 -6 -384 -19
-725 -1 -40 0 -73 4 -73 3 0 11 215 18 478 6 262 13 510 14 550 1 39 0 72 -2
72 -2 0 -108 -83 -234 -185 -127 -102 -232 -183 -235 -180 -3 3 -3 7 -1 9 25
21 1200 966 1207 970 8 5 420 -327 1004 -812 l257 -213 4 -82 3 -82 2 85 2 85
-621 510 c-342 281 -627 513 -634 518 -9 5 -213 -153 -607 -469z"/>
<path d="M3868 7612 l-98 -77 0 -185 c0 -102 -3 -222 -7 -267 l-6 -82 92 48
c73 39 91 45 91 32 0 -11 -30 -31 -90 -61 l-90 -44 2 -246 c1 -135 4 -200 5
-146 3 68 8 103 17 110 8 6 42 56 76 111 57 91 63 107 71 175 4 41 6 -351 3
-872 -3 -649 -1 -948 6 -948 6 0 10 36 10 93 0 50 7 616 15 1257 7 641 11
1168 7 1172 -4 3 -51 -28 -104 -70z"/>
<path d="M3986 7367 c-3 -160 -8 -542 -11 -847 -3 -305 -8 -732 -12 -948 -5
-362 -5 -392 11 -386 15 6 16 63 16 670 0 711 -3 679 50 649 14 -8 30 -14 35
-14 6 0 -12 11 -38 25 -41 21 -48 29 -43 47 3 12 6 129 6 260 l0 238 87 -45
c48 -25 89 -44 91 -42 2 3 -32 23 -76 46 -113 58 -110 55 -102 125 l7 60 2
-52 c1 -51 2 -53 44 -73 38 -19 40 -19 18 -2 l-23 19 51 79 c28 43 52 88 53
99 1 11 5 -36 8 -105 5 -107 6 -90 8 112 l2 236 -77 64 c-43 36 -83 68 -89 71
-9 5 -13 -72 -18 -286z"/>
<path d="M3664 7450 l-71 -59 -6 -167 c-4 -92 -7 -200 -7 -239 l0 -72 79 40
78 41 7 125 c8 171 8 391 -1 391 -5 -1 -40 -27 -79 -60z"/>
<path d="M3490 7308 l-75 -60 -6 -126 c-4 -70 -7 -167 -8 -215 l-1 -88 79 41
78 42 6 232 c3 127 4 232 4 233 -1 0 -36 -26 -77 -59z"/>
<path d="M3318 7172 c-31 -26 -60 -50 -64 -55 -7 -6 -23 -377 -16 -377 1 0 34
16 72 35 l70 35 0 63 c0 34 3 126 7 205 3 83 2 142 -3 141 -5 0 -35 -21 -66
-47z"/>
<path d="M3654 6923 l-72 -36 -7 -233 c-4 -127 -6 -236 -4 -241 2 -5 24 2 49
15 25 12 37 20 27 17 -17 -4 -16 -1 4 33 13 20 33 53 46 72 22 33 23 34 25 10
0 -14 4 13 9 60 10 114 11 340 2 339 -5 0 -40 -16 -79 -36z"/>
<path d="M3474 6833 l-71 -36 -7 -105 c-11 -184 -8 -365 7 -359 6 3 42 17 78
32 l66 27 2 197 c1 108 4 215 7 239 4 23 2 42 -2 41 -5 0 -41 -16 -80 -36z"/>
<path d="M3298 6741 l-68 -36 0 -91 c0 -50 -3 -152 -7 -227 l-6 -137 71 32 70
31 6 101 c11 199 14 366 8 365 -4 -1 -37 -18 -74 -38z"/>
<path d="M3465 6329 c-38 -17 -73 -33 -76 -37 -4 -4 -8 -117 -11 -252 -2 -135
-1 -216 3 -180 4 36 8 110 9 165 1 55 5 92 9 82 5 -15 19 1 66 77 l60 95 5
-52 c5 -46 6 -41 10 41 3 50 3 92 0 92 -3 -1 -36 -14 -75 -31z"/>
<path d="M3283 6252 l-61 -27 -6 -110 c-3 -60 -7 -169 -10 -241 l-4 -131 43
16 c24 8 42 17 40 19 -2 3 -18 0 -34 -6 -30 -11 -31 -10 -31 19 0 16 3 29 8
29 4 0 30 36 57 81 l50 80 6 -48 c5 -40 6 -33 7 37 1 47 5 136 9 198 3 65 2
112 -3 111 -5 0 -37 -13 -71 -27z"/>
<path d="M2770 6045 c-18 -13 -36 -26 -40 -27 -11 -4 -24 -208 -13 -208 5 0 9
8 10 18 1 10 14 56 29 103 15 46 27 89 27 96 0 7 5 14 11 16 8 3 10 -21 8 -77
-2 -82 -40 -981 -45 -1069 -1 -26 1 -47 4 -47 3 0 9 66 13 148 3 81 15 323 26
537 22 430 24 535 12 535 -4 0 -23 -11 -42 -25z"/>
<path d="M2653 5989 c-45 -19 -46 -21 -56 -180 l-3 -56 47 21 47 21 7 103 c4
57 5 105 4 106 -2 2 -23 -5 -46 -15z"/>
<path d="M2634 5753 l-42 -16 -5 -71 c-18 -238 -49 -847 -44 -852 4 -4 17 -2
29 4 l23 11 -23 0 c-22 1 -22 4 -17 64 3 34 10 152 15 262 6 110 13 214 16
230 7 38 35 116 47 133 8 10 5 11 -17 3 -20 -8 -26 -7 -26 3 0 8 14 19 30 25
17 5 29 14 28 18 -3 13 14 78 22 83 9 6 19 120 11 119 -3 0 -25 -8 -47 -16z"/>
<path d="M4647 5622 c-69 -48 -133 -91 -141 -97 -12 -8 -15 -58 -19 -275 l-5
-265 13 245 c7 135 14 255 14 266 1 12 9 25 19 29 14 5 15 4 5 -6 -23 -23 -14
-48 75 -194 79 -132 88 -143 93 -118 4 16 8 -19 9 -77 l3 -105 7 105 c4 58 8
188 9 290 2 202 9 261 30 268 14 5 12 -318 -9 -1338 -5 -239 -12 -590 -14
-780 -5 -329 -4 -319 14 205 10 303 19 556 19 563 1 9 9 11 24 7 17 -4 16 -2
-6 10 -16 9 -26 22 -24 29 3 8 8 114 12 237 3 123 8 252 11 286 5 59 6 61 27
52 12 -5 53 -61 90 -124 38 -63 73 -115 78 -115 5 0 10 -91 11 -212 1 -198 2
-205 8 -93 9 152 12 480 4 473 -10 -11 -224 101 -224 117 0 8 2 15 4 15 3 0
54 -24 114 -53 l109 -53 7 134 c3 75 6 212 6 307 l0 171 -87 64 c-48 36 -103
77 -123 92 l-37 28 -126 -88z"/>
<path d="M5047 5348 c-4 -83 -7 -218 -7 -299 l0 -148 105 -54 105 -54 0 281
-1 281 -61 45 c-34 25 -78 57 -98 72 l-37 27 -6 -151z"/>
<path d="M5422 5342 c-2 -63 -5 -81 -14 -76 -40 22 63 -57 464 -360 247 -186
451 -342 454 -348 3 -5 4 -11 2 -13 -2 -2 -137 98 -301 222 -164 124 -301 223
-304 220 -3 -3 -5 -363 -5 -799 0 -437 -4 -773 -8 -748 -5 25 -9 161 -9 303
-1 142 -5 256 -10 253 -4 -3 -45 10 -91 30 -46 19 -85 33 -87 30 -2 -2 -1 -75
3 -162 4 -88 10 -148 14 -135 5 21 15 8 75 -93 64 -107 70 -115 76 -89 3 16 8
-16 10 -72 3 -55 4 -101 4 -102 -1 -2 -41 11 -90 27 -49 17 -92 30 -97 30 -4
0 -9 -177 -10 -392 -2 -374 -2 -364 -9 207 -3 330 -7 645 -8 700 l-1 100 -53
21 c-28 12 -76 31 -104 42 -61 25 -72 20 -15 -6 20 -10 38 -24 40 -31 2 -8 26
-52 55 -99 50 -82 52 -84 58 -56 3 16 8 -83 10 -221 2 -137 3 -252 2 -254 -1
-1 -25 5 -53 14 -28 9 -53 15 -56 13 -2 -3 20 -12 50 -21 l53 -17 6 -118 c4
-64 7 -503 7 -974 l0 -858 -108 0 c-59 0 -114 -4 -122 -10 -11 -7 -15 -50 -18
-229 -5 -252 9 -224 -119 -237 l-72 -7 -3 159 c-3 157 -3 159 -26 160 -18 1
-19 1 -2 -3 20 -4 20 -11 20 -513 l0 -509 -32 5 c-18 3 -73 11 -123 17 -86 12
-90 13 -93 38 l-3 27 98 -2 98 -1 3 177 c2 177 2 178 -20 183 -38 8 -188 11
-188 3 0 -4 44 -9 98 -10 l97 -3 3 -173 2 -172 -57 0 c-32 1 -77 5 -101 9
l-43 8 2 -94 c1 -71 -2 -98 -12 -104 -8 -5 -138 -9 -290 -9 l-275 0 -23 71
c-43 133 -134 198 -262 186 -65 -6 -104 -24 -149 -69 -34 -34 -90 -140 -90
-171 0 -10 -6 -19 -12 -22 -22 -7 -982 -11 -1227 -5 -197 4 -235 7 -237 20
-39 200 -125 271 -311 257 -116 -9 -158 -45 -199 -172 -9 -27 -23 -55 -31 -62
-17 -13 -46 -6 -40 11 3 7 -9 10 -37 8 -22 -1 -45 1 -51 5 -13 10 -55 94 -55
109 0 14 28 26 41 18 21 -13 7 17 -21 43 -30 28 -30 28 -30 140 0 125 4 143
31 143 18 0 19 -9 19 -122 0 -68 4 -128 8 -135 4 -6 5 36 4 93 l-4 105 289 -1
c251 -1 301 2 393 19 58 12 106 21 107 21 1 0 4 -30 6 -67 2 -40 4 -16 5 57 3
184 15 172 -136 133 -125 -31 -131 -32 -357 -32 -143 -1 -225 3 -220 8 6 6 79
21 163 36 112 19 169 24 216 19 43 -4 66 -3 70 5 10 16 26 4 26 -20 0 -10 5
-19 11 -19 7 0 9 9 5 22 -3 13 -6 26 -6 29 0 4 -13 9 -30 13 -28 5 -30 8 -30
51 0 45 5 50 34 39 11 -4 16 -19 16 -48 0 -29 3 -37 9 -26 6 8 8 17 5 22 -3 4
20 57 51 117 30 61 55 117 55 125 0 23 -39 27 -51 5 -9 -18 -8 -19 10 -7 11 7
23 10 26 7 3 -4 -16 -52 -41 -108 -42 -90 -49 -100 -63 -87 -24 21 -61 30 -61
15 0 -7 -8 -22 -18 -33 -16 -20 -16 -20 1 -7 15 12 17 10 17 -23 0 -23 5 -39
15 -42 27 -11 16 -24 -19 -24 -61 0 -69 8 -44 44 12 17 15 25 8 18 -8 -6 -29
-12 -47 -12 l-33 0 0 145 0 146 139 -2 c99 -1 147 3 167 12 28 14 44 39 25 39
-6 0 -11 -7 -11 -15 0 -8 -5 -15 -11 -15 -5 0 -7 6 -3 13 4 6 -2 4 -13 -6 -18
-15 -38 -17 -154 -15 l-134 3 -3 113 -3 112 231 0 230 0 0 -53 c0 -29 -6 -59
-12 -66 -11 -11 -9 -11 7 -1 17 10 19 20 17 66 l-4 54 146 0 c145 0 146 0 145
-22 -1 -48 -15 -103 -22 -90 -5 6 -13 12 -19 12 -5 0 0 -8 12 -18 l23 -19 -24
-16 c-13 -10 -29 -17 -36 -17 -7 0 -13 -4 -13 -9 0 -6 -19 -12 -42 -14 -27 -2
-16 -4 27 -4 40 -1 60 2 46 6 l-24 6 27 13 c36 16 38 15 31 -8 -4 -14 -2 -20
9 -20 13 0 16 20 18 123 l3 122 1050 5 c578 3 1022 6 987 8 l-62 2 5 188 c3
103 10 475 16 827 5 352 19 1047 29 1545 11 498 20 912 20 921 0 13 -12 10
-67 -16 -38 -17 -94 -42 -125 -56 l-58 -24 2 -75 2 -75 3 71 4 71 116 51 116
51 -6 -77 c-4 -42 -7 -182 -8 -309 0 -128 -3 -233 -7 -233 -4 0 -7 -96 -7
-212 0 -235 -2 -350 -15 -828 -5 -179 -11 -449 -14 -600 -3 -151 -9 -319 -12
-372 -6 -89 -8 -97 -28 -101 -20 -4 -19 -4 3 -6 l23 -1 -6 -287 c-4 -159 -9
-317 -12 -352 l-6 -64 -96 7 c-54 3 -114 6 -134 6 -26 0 -38 5 -41 18 -4 16
-5 16 -6 0 -1 -20 -29 -22 -143 -11 l-68 6 -2 101 c-1 83 -2 92 -8 51 l-7 -50
-3 50 c-3 43 -4 45 -7 15 -4 -35 -5 -35 -43 -32 -28 3 -40 9 -40 20 0 13 -37
14 -337 9 -186 -4 -455 -13 -598 -21 -343 -20 -308 -22 -299 16 6 29 5 31 -10
19 -11 -9 -29 -11 -59 -7 -36 6 -46 3 -61 -13 -14 -15 -29 -19 -60 -18 -23 2
-47 7 -55 11 -11 7 -13 3 -9 -18 4 -19 0 -29 -13 -37 -11 -5 -19 -21 -19 -34
0 -32 34 -34 90 -5 22 11 48 20 60 20 17 0 20 -6 20 -49 0 -26 -3 -69 -6 -95
l-7 -46 -143 0 -144 0 0 81 c0 44 3 79 8 77 48 -25 84 -37 96 -32 20 8 20 20
0 28 -11 4 -14 14 -9 35 8 38 -8 48 -25 15 -21 -38 -45 -27 -45 21 0 35 -3 40
-25 43 -13 2 -37 15 -53 28 -29 25 -61 31 -72 15 -3 -5 -1 -12 5 -16 15 -9 12
-25 -5 -25 -20 0 -19 -19 2 -42 16 -17 9 -18 -184 -18 l-201 0 -4 45 -3 44 58
27 c32 14 56 31 54 37 -5 16 -45 9 -82 -13 l-30 -19 4 46 c2 25 -2 50 -8 56
-8 8 -11 -6 -11 -51 0 -34 -4 -62 -8 -62 -15 0 -124 -90 -161 -133 -20 -23
-56 -72 -80 -110 -24 -37 -47 -67 -51 -67 -18 0 -9 107 15 172 29 80 32 122 5
63 -16 -35 -29 -82 -46 -173 -3 -13 -8 -20 -13 -17 -5 3 -5 -12 0 -33 12 -51
11 -571 -1 -657 -12 -79 -33 -104 -87 -105 -41 0 -41 6 -3 45 l30 31 6 321 7
321 -27 54 c-15 29 -43 70 -61 91 -48 55 -34 12 16 -48 54 -65 52 -73 -23 -78
l-63 -3 62 -2 62 -2 0 -332 0 -331 -35 -34 c-20 -18 -40 -33 -45 -33 -5 0 -9
-3 -9 -7 0 -5 27 -6 59 -5 l59 4 -5 -124 -5 -123 33 -18 c32 -18 32 -18 11
-33 -29 -20 -27 -38 6 -99 23 -43 32 -50 61 -53 19 -2 45 -11 58 -19 19 -13
29 -14 49 -4 14 6 26 11 27 11 1 0 3 -16 5 -36 6 -86 94 -184 179 -200 120
-23 317 66 339 153 l6 23 723 0 723 0 6 -22 c9 -37 60 -83 135 -122 107 -55
196 -49 285 19 37 29 75 94 78 138 2 25 18 40 18 17 0 -16 572 -13 594 3 14
11 17 24 15 65 -5 61 -15 58 136 37 59 -9 109 -14 111 -13 1 2 4 64 6 137 3
132 3 134 30 154 17 13 49 22 83 25 56 5 57 5 50 31 -4 14 -7 36 -8 48 -3 36
-21 7 -20 -32 1 -31 -2 -35 -25 -35 -15 0 -46 -9 -69 -20 l-43 -19 0 134 0
134 53 5 c57 7 298 25 365 28 23 1 42 4 43 7 2 15 8 38 13 51 7 16 3 16 -391
-15 l-83 -6 0 34 c0 39 -4 37 148 53 l62 7 0 48 0 48 90 3 89 3 -6 -25 c-5
-21 -3 -23 8 -13 19 19 33 16 44 -9 12 -25 38 -38 29 -14 -7 19 0 20 28 5 20
-11 21 -9 15 24 l-5 35 78 6 c49 5 83 13 91 22 15 19 43 18 36 -1 -5 -12 7
-13 76 -9 45 3 115 3 155 -1 69 -6 72 -8 72 -32 0 -20 3 -23 14 -14 10 9 16 8
26 -4 22 -26 32 -17 28 25 -3 36 -1 40 19 40 24 0 26 -9 27 -123 1 -17 7 -29
19 -33 34 -11 48 -49 54 -152 4 -68 2 -106 -5 -115 -8 -10 -7 -26 3 -62 18
-60 4 -76 -35 -42 -21 19 -22 19 -8 2 10 -12 24 -38 33 -59 26 -62 17 -66
-164 -66 -151 0 -157 -1 -170 -23 -13 -21 -13 -22 6 -5 14 13 37 18 79 18 l60
0 -4 -84 c-6 -115 6 -274 21 -273 45 1 67 -5 67 -17 0 -8 -5 -17 -10 -19 -6
-3 -5 -4 2 -3 10 2 13 35 14 128 2 204 21 295 38 187 4 -23 29 -95 56 -160 47
-114 48 -119 29 -129 -10 -6 -19 -18 -18 -28 0 -14 2 -14 6 -2 10 24 56 55 85
56 30 2 36 -14 16 -35 -11 -10 -9 -11 5 -5 24 9 20 32 -34 178 -38 101 -42
122 -48 242 -4 71 -11 136 -15 143 -5 7 -5 32 -1 57 6 42 7 44 43 46 l37 1
-33 4 c-39 5 -38 26 1 31 l27 3 -2 87 -2 87 -3 -82 c-3 -72 -6 -83 -22 -83
-17 0 -19 14 -24 158 -2 86 -3 161 0 165 6 10 38 -40 46 -69 3 -10 4 53 3 141
l-1 160 -27 3 c-16 2 -28 8 -28 13 0 14 58 11 63 -3 4 -10 6 -10 6 0 1 8 20
12 61 12 l60 0 2 -247 c2 -137 3 -274 3 -306 l0 -58 65 7 c36 3 68 8 73 11 4
2 7 40 7 83 l0 78 38 6 c20 3 94 8 165 12 l127 6 0 -70 0 -71 -112 -4 c-62 -1
9 -3 157 -3 149 0 201 2 117 3 l-153 4 3 67 3 67 203 5 202 5 0 -72 c0 -40 3
-73 8 -73 4 0 7 33 7 72 l0 73 208 3 207 2 0 -69 0 -70 -127 -4 c-74 -1 -26
-4 111 -5 l239 -2 -7 1462 c-4 805 -10 1466 -14 1470 -4 4 -72 9 -152 12 -80
3 -127 2 -105 -2 l40 -7 3 -92 3 -92 -28 -4 -28 -4 28 -2 27 -1 0 -119 0 -120
-47 -4 -48 -3 48 -2 47 -2 0 -126 0 -127 -61 7 c-34 3 -120 6 -190 6 l-129 0
0 125 0 124 58 4 57 3 -57 2 -58 2 0 120 0 119 113 4 112 3 -112 2 -112 2 -4
68 -3 67 -2 -67 -2 -67 -72 -4 -73 -3 73 -2 72 -2 0 -120 0 -121 -196 1 c-108
1 -198 -1 -202 -4 -3 -3 85 -6 196 -6 l202 0 0 -125 0 -125 -190 0 -190 0 -2
98 -2 97 -5 -95 c-3 -52 -9 -94 -13 -92 -5 1 -78 2 -163 2 l-154 0 -4 63 c-1
34 -3 13 -3 -48 0 -60 2 -95 4 -77 l3 32 164 0 164 0 -5 -157 c-2 -87 -7 -200
-10 -250 l-6 -93 -149 0 -149 0 -2 128 -2 127 -4 -115 c-4 -175 -19 -160 158
-160 l150 0 0 -87 c0 -49 -3 -166 -7 -261 l-6 -173 -138 3 c-117 3 -137 1
-136 -12 1 -13 22 -15 140 -12 l140 3 -7 -89 c-7 -84 -6 -91 14 -105 18 -12
22 -27 26 -101 4 -84 4 -86 -18 -87 -22 -1 -22 -1 2 -10 33 -11 -326 -3 -670
16 -146 8 -386 17 -533 21 -238 6 -268 9 -265 23 3 14 33 16 273 13 240 -3
645 -15 870 -26 44 -2 65 -2 48 1 -30 4 -33 7 -34 41 0 20 -4 71 -7 113 l-7
75 54 -8 c29 -5 56 -7 58 -4 2 2 -14 7 -36 11 -41 7 -41 7 -43 53 l-1 47 -4
-42 c-5 -51 2 -50 -148 -24 -99 17 -280 37 -230 25 19 -4 20 -12 17 -121 -2
-87 0 -118 10 -125 8 -6 -30 -8 -102 -4 -63 3 -230 8 -370 11 -140 3 -274 8
-297 11 l-43 5 0 144 0 144 48 4 47 3 -52 2 -53 2 0 690 c0 545 3 690 13 690
6 0 55 -14 107 -30 52 -16 97 -30 100 -30 3 0 4 286 2 635 l-2 634 337 -166
c186 -91 398 -194 470 -229 l133 -63 3 -173 3 -173 2 178 2 177 -165 82 -165
83 0 101 c0 72 -4 103 -12 107 -7 3 -213 156 -458 341 l-445 336 -6 87 -5 88
-2 -83z m2548 -1632 l0 -90 -95 0 -95 0 0 90 0 90 95 0 95 0 0 -90z m0 -167
c0 -38 3 -92 6 -120 l7 -53 -102 0 -101 0 0 120 0 120 95 0 95 0 0 -67z m10
-438 l0 -255 -38 -2 -37 -1 38 -4 37 -4 0 -117 c0 -64 3 -361 6 -659 l7 -543
-102 0 -101 0 0 135 0 135 83 2 82 2 -82 3 -82 4 0 264 0 265 37 2 37 1 -37 4
-38 4 3 385 c1 211 -1 384 -5 384 -5 0 -8 56 -8 125 l0 125 100 0 100 0 0
-255z m-662 -11 l52 -7 0 -243 c0 -133 -3 -244 -7 -246 -5 -2 -89 -2 -188 0
l-180 4 3 216 c1 120 5 232 8 250 l5 32 127 0 c70 0 151 -3 180 -6z m189 -272
c52 -92 103 -179 114 -194 l20 -28 -126 0 -125 0 0 98 c0 118 13 334 18 309 2
-10 46 -93 99 -185z m-137 -404 c0 -90 -3 -207 -7 -260 l-6 -98 -190 0 -190 0
8 253 c4 138 9 255 12 260 2 4 87 7 189 7 l184 0 0 -162z m235 152 l50 0 50
-90 c27 -50 53 -90 57 -90 5 0 8 -74 8 -165 l0 -165 -189 0 c-105 0 -192 4
-195 8 -3 5 -2 123 1 262 l6 253 81 -7 c45 -3 104 -6 131 -6z m-245 -789 l0
-259 -189 -7 c-104 -4 -194 -4 -200 -1 -6 4 -11 25 -11 47 0 38 1 39 35 39
l35 0 0 109 0 110 -30 21 c-33 23 -37 54 -24 154 l7 46 188 0 189 0 0 -259z
m414 228 c3 -17 6 -132 6 -254 l0 -222 -31 -7 c-17 -3 -107 -6 -200 -6 l-169
0 0 260 0 260 194 0 194 0 6 -31z m-4344 -401 c0 -35 -4 -68 -8 -75 -5 -9 -65
-13 -210 -15 l-202 -3 0 50 c0 101 -14 94 199 98 102 1 194 3 204 5 15 2 17
-7 17 -60z m-1125 32 c3 -6 17 -7 31 -4 l24 6 0 -91 0 -91 -230 0 -230 0 -2
73 -2 72 -3 -72 -4 -73 -160 0 -160 0 12 23 c6 12 36 55 65 95 l54 72 300 0
c189 0 301 -4 305 -10z m687 -44 c4 -6 8 -24 8 -40 l0 -29 -82 6 c-46 4 -118
7 -160 7 l-78 0 0 29 c0 58 -3 57 158 47 89 -5 150 -13 154 -20z m3585 0 c2
-1 5 -568 4 -683 l-1 -83 -28 0 -29 0 -6 158 c-4 86 -7 226 -7 311 l0 153
-127 -7 c-71 -4 -129 -9 -131 -10 -2 -2 -4 -121 -4 -266 -1 -145 -3 -247 -5
-227 -3 24 -14 47 -34 66 l-30 29 -6 286 -6 285 204 -5 c112 -3 205 -6 206 -7z
m365 -41 l-4 -45 -119 0 -119 0 0 45 0 45 123 0 122 0 -3 -45z m-3217 10 c277
-15 376 -20 685 -31 328 -13 151 -22 -432 -23 l-538 -1 0 28 c0 27 7 42 19 42
3 0 123 -7 266 -15z m2205 -55 c140 -8 217 -16 222 -23 6 -9 -107 -14 -443
-21 -247 -5 -453 -6 -456 -2 -13 12 5 15 135 22 126 7 132 8 132 28 0 21 2 21
98 15 53 -4 194 -13 312 -19z m1840 -234 l0 -234 -192 -4 c-106 -2 -196 -3
-200 -1 -10 5 -11 351 -2 416 l7 47 171 3 c94 1 181 4 194 5 l22 2 0 -234z
m220 104 l0 -130 -100 0 -100 0 0 130 0 130 100 0 100 0 0 -130z m-633 -32
c-4 -83 -7 -189 -7 -235 l0 -83 -202 0 -201 0 6 133 c4 72 7 176 7 229 l0 97
68 4 c37 2 127 4 201 5 l134 2 -6 -152z m-422 -85 c-4 -126 -8 -229 -9 -229 0
-1 -48 -4 -104 -8 -98 -6 -104 -5 -109 14 -5 17 -11 19 -62 14 l-56 -6 0 73 0
74 58 3 c56 3 57 4 57 32 0 30 0 30 -60 30 l-61 0 3 78 3 77 59 3 58 3 -4 35
-4 34 119 0 119 0 -7 -227z m-5045 72 l0 -115 -132 -2 -133 -2 133 -3 132 -4
0 -144 0 -145 -170 0 -170 0 0 249 c0 137 3 256 6 265 5 14 30 16 170 16 l164
0 0 -115z m4270 -15 l0 -79 -52 -5 c-29 -3 -181 -10 -338 -16 -157 -6 -338
-13 -402 -17 l-118 -6 0 92 c0 66 3 91 13 92 53 4 884 24 890 21 4 -2 7 -39 7
-82z m1830 -260 l0 -180 -99 0 -99 0 0 180 0 180 99 0 99 0 0 -180z m-6038
-162 c-7 -7 -85 -25 -174 -40 -116 -20 -171 -34 -190 -48 l-28 -21 0 38 c0 21
-3 48 -6 61 l-6 22 208 0 c162 0 205 -3 196 -12z m46 -492 c31 -16 74 -61 91
-93 15 -30 14 -107 -3 -146 -27 -67 -113 -114 -188 -104 -83 11 -158 96 -158
178 0 40 29 107 56 131 54 47 146 63 202 34z m2037 -20 c167 -128 14 -393
-177 -308 -138 61 -145 241 -13 324 46 29 141 21 190 -16z"/>
<path d="M1850 371 c-40 -21 -80 -83 -80 -124 0 -69 59 -140 127 -153 50 -9
121 21 150 65 29 44 31 113 3 159 -42 68 -129 91 -200 53z m149 -55 c21 -22
26 -36 26 -77 0 -45 -4 -54 -33 -80 -52 -47 -126 -36 -162 23 -24 39 -25 69
-5 108 33 64 123 77 174 26z"/>
<path d="M3852 371 c-73 -47 -94 -148 -44 -219 29 -40 98 -67 149 -57 49 9
109 69 118 118 10 51 -17 120 -57 149 -44 31 -123 35 -166 9z m150 -50 c29
-26 33 -35 33 -81 0 -46 -4 -55 -33 -81 -87 -78 -218 6 -182 116 26 78 120
102 182 46z"/>
<path d="M3879 325 c-14 -8 -32 -28 -39 -46 -11 -27 -11 -36 1 -58 17 -31 73
-42 67 -13 -2 9 -8 17 -15 17 -6 0 -15 4 -20 8 -4 5 -3 7 4 5 6 -1 18 6 27 17
12 16 18 18 33 9 10 -7 17 -18 16 -25 -4 -22 35 -43 53 -28 31 26 12 89 -36
114 -36 18 -57 18 -91 0z"/>
<path d="M5280 5051 l0 -268 96 -47 c53 -25 98 -46 100 -46 2 0 4 110 4 244
l0 243 -94 72 c-51 39 -96 71 -100 71 -3 0 -6 -121 -6 -269z"/>
<path d="M5510 4910 l0 -242 90 -41 c65 -30 90 -46 90 -59 0 -16 -13 -12 -90
27 l-90 45 0 -273 0 -273 38 -13 c20 -8 63 -26 95 -41 l57 -27 0 372 c0 204
-3 432 -7 506 l-6 134 -69 50 c-38 28 -78 56 -88 64 -20 13 -20 10 -20 -229z"/>
<path d="M6962 4533 c1 -219 3 -377 5 -350 l4 47 384 0 384 0 4 -22 c2 -13 5
145 6 350 l1 372 -395 0 -395 0 2 -397z m288 167 l0 -100 105 0 105 0 0 100 0
100 55 0 55 0 0 -265 0 -265 -61 0 -60 0 3 115 3 115 -102 0 -103 0 0 -115 0
-115 -55 0 -55 0 0 265 0 265 55 0 55 0 0 -100z"/>
<path d="M5041 4693 c1 -92 4 -155 8 -139 6 27 12 20 88 -108 44 -75 83 -131
86 -124 3 7 6 -13 6 -44 1 -50 -1 -57 -16 -52 -14 4 -13 2 2 -7 11 -7 23 -17
27 -23 4 -6 8 120 7 279 l0 290 -95 45 c-53 25 -100 47 -105 48 -5 2 -8 -69
-8 -165z"/>
<path d="M5282 4469 l3 -280 95 -40 c52 -21 96 -39 98 -39 1 0 2 123 1 273 l0
272 -100 47 -99 47 2 -280z"/>
<path d="M2412 4529 l-2 -46 -61 -12 c-34 -7 -59 -15 -56 -18 3 -3 29 0 57 6
79 17 75 22 72 -83 -3 -94 -4 -95 -30 -99 -15 -3 83 -3 218 0 225 4 243 3 225
-12 -17 -13 -62 -15 -350 -14 l-330 0 3 69 c4 77 8 83 79 110 26 11 41 19 33
19 -26 1 -117 -46 -123 -64 -4 -9 -7 -54 -7 -100 l0 -82 38 -7 c20 -3 77 -6
126 -6 l89 0 -7 -80 -6 -80 45 0 45 0 0 -70 0 -70 -44 6 c-40 6 -44 5 -48 -19
-4 -23 -1 -25 44 -31 l48 -7 0 -60 0 -61 -50 4 c-46 3 -50 1 -50 -18 0 -24 17
-34 61 -34 35 0 40 -26 7 -33 -13 -2 74 -4 192 -4 118 1 173 3 122 4 l-93 4 6
42 c8 60 55 485 55 501 0 7 126 72 280 146 154 73 279 135 277 137 -2 2 -84
-35 -181 -82 l-178 -85 -120 0 c-65 0 -117 3 -114 8 2 4 5 50 7 102 3 86 5 96
23 102 19 5 18 6 -4 7 -23 1 -177 -20 -257 -35 l-32 -6 -4 48 -3 49 -2 -46z
m293 -376 c-5 -35 -55 -491 -55 -503 0 -3 -41 -6 -91 -8 l-91 -3 6 73 c3 40 8
164 12 276 l7 202 108 0 109 0 -5 -37z"/>
<path d="M3135 3834 l-80 -33 -11 -68 c-17 -100 -25 -213 -17 -213 5 0 46 11
93 24 l85 23 1 62 1 61 -4 -59 c-4 -56 -5 -59 -35 -65 -17 -3 -50 -6 -74 -6
l-44 0 7 113 c3 61 8 115 12 118 3 4 15 10 27 13 15 5 24 0 32 -16 6 -13 22
-42 36 -65 l23 -43 8 53 9 52 6 -40 c6 -35 7 -32 9 27 0 36 4 73 7 82 8 21 4
20 -91 -20z"/>
<path d="M6210 3704 c0 -339 29 -1334 39 -1334 3 0 5 24 4 52 -9 225 -24 1340
-19 1345 15 15 36 -27 65 -128 17 -58 32 -115 34 -127 2 -12 6 -25 10 -28 9
-9 8 134 -1 198 -7 44 -11 50 -62 83 -30 19 -58 35 -62 35 -4 0 -8 -43 -8 -96z"/>
<path d="M6370 3595 l0 -123 60 -24 c33 -12 60 -28 60 -35 0 -9 -14 -6 -46 7
-25 11 -50 20 -55 20 -12 0 -12 -127 0 -135 5 -3 15 -30 22 -59 11 -49 15 -55
50 -69 22 -9 39 -21 39 -27 0 -10 -15 -9 -56 7 -6 2 4 -40 22 -94 35 -106 34
-92 50 -537 7 -187 7 -188 -14 -182 -11 4 -23 2 -26 -3 -6 -9 51 -27 60 -19 5
6 -23 886 -36 1143 -6 110 -14 203 -18 207 -4 3 -31 15 -59 26 l-53 20 0 -123z"/>
<path d="M1753 3683 c-7 -3 -13 -12 -13 -20 0 -9 -6 -13 -15 -9 -9 3 -25 -4
-36 -15 -19 -19 -20 -22 -4 -39 10 -11 20 -19 24 -18 20 2 31 -4 31 -17 0 -26
44 -47 74 -35 36 13 36 13 36 -8 0 -11 -9 -27 -20 -37 -18 -16 -20 -16 -46 4
-36 29 -52 26 -61 -8 -7 -26 -10 -28 -25 -17 -15 11 -16 18 -7 46 13 36 -1 54
-33 44 -12 -3 -27 5 -42 23 l-25 28 -38 -20 c-35 -19 -40 -19 -66 -5 -26 14
-29 14 -41 -2 -7 -10 -21 -18 -30 -18 -9 0 -16 -7 -16 -15 0 -8 -6 -12 -14 -9
-7 3 -23 -7 -35 -22 -24 -31 -27 -44 -7 -44 9 0 12 -7 9 -20 -3 -12 0 -20 6
-20 7 0 9 -5 6 -11 -4 -6 -13 -8 -20 -5 -16 6 -35 -13 -35 -37 0 -14 5 -17 20
-12 14 4 20 2 20 -9 0 -8 -4 -18 -10 -21 -5 -3 -10 -19 -10 -36 0 -24 4 -29
25 -29 16 0 25 -6 25 -15 0 -8 9 -15 20 -15 16 0 20 -7 20 -35 0 -19 -3 -35
-6 -35 -3 0 -19 11 -36 25 -49 42 -53 28 -5 -17 44 -42 46 -45 49 -110 3 -69
-9 -101 -29 -76 -6 7 -13 22 -15 33 -3 15 -11 20 -31 18 -24 -2 -26 0 -17 18
15 27 3 42 -30 36 -15 -3 -32 -1 -37 4 -7 7 -15 5 -26 -5 -9 -9 -24 -16 -35
-16 -10 0 -27 -9 -37 -20 -22 -24 -50 -27 -41 -4 3 9 6 17 6 19 0 2 17 9 37
16 l37 12 -32 28 c-20 18 -44 29 -61 29 -25 0 -28 3 -23 25 5 27 9 29 32 15
18 -11 60 24 60 52 0 12 7 18 21 18 16 0 20 5 16 20 -3 13 1 24 14 30 29 16
23 46 -10 60 -21 8 -35 9 -49 1 -11 -6 -22 -8 -25 -4 -13 12 -96 -20 -122 -47
-17 -17 -33 -26 -45 -23 -23 6 -40 -23 -37 -63 2 -22 -4 -31 -25 -42 -21 -10
-28 -20 -28 -43 0 -17 -5 -39 -10 -49 -7 -13 -7 -21 1 -26 17 -10 41 27 36 54
-4 23 3 26 50 23 13 -2 23 5 26 16 3 12 5 9 6 -9 1 -19 12 -35 41 -55 42 -30
47 -42 28 -61 -18 -18 -28 -14 -28 11 0 18 -4 15 -25 -18 -28 -46 -31 -81 -9
-113 17 -25 44 -29 44 -7 0 18 21 20 37 4 8 -8 17 -8 31 0 15 8 23 8 27 0 4
-6 18 -8 32 -4 22 5 23 4 12 -16 -9 -17 -8 -23 2 -30 9 -5 5 -11 -17 -20 -50
-22 -75 -49 -63 -70 9 -18 10 -18 31 3 20 20 22 20 34 3 12 -16 14 -16 44 5
32 23 64 73 53 84 -4 3 -1 6 5 6 7 0 12 -5 12 -11 0 -6 7 -8 16 -5 9 4 22 2
29 -4 10 -8 22 0 49 31 27 32 36 38 36 24 0 -10 -10 -29 -22 -42 l-21 -23 23
-25 c22 -23 25 -24 46 -10 29 19 32 19 37 -2 4 -17 5 -17 6 0 2 32 21 17 21
-17 0 -41 15 -54 38 -33 15 14 19 14 41 -2 27 -21 26 -64 -2 -69 -32 -6 -65 7
-72 28 -4 13 -15 20 -31 20 -22 0 -23 2 -14 21 7 11 9 23 6 26 -10 10 -64
-114 -87 -197 -12 -47 -27 -89 -32 -95 -6 -6 -7 0 -3 19 4 15 9 42 12 60 4 29
4 30 -7 8 -9 -15 -18 -21 -31 -16 -23 7 -22 6 3 -58 11 -29 15 -48 9 -42 -10
10 -40 73 -87 182 -3 6 0 12 6 12 6 0 13 -11 17 -25 3 -14 10 -25 16 -25 8 0
5 18 -10 59 -8 20 68 5 84 -17 15 -21 18 -19 48 50 26 58 25 68 -6 68 -13 0
-18 -8 -18 -29 0 -16 -7 -34 -15 -41 -13 -11 -15 -9 -15 13 0 14 -7 28 -16 31
-15 6 -15 8 1 26 18 20 17 20 -32 20 -40 0 -56 -5 -78 -26 -15 -14 -24 -29
-19 -32 5 -4 10 -17 11 -30 3 -20 0 -21 -17 -12 -12 6 -20 7 -20 1 0 -5 -13
-12 -29 -16 -22 -5 -45 2 -91 25 -81 41 -101 33 -24 -10 32 -18 61 -34 62 -36
2 -1 -1 -11 -7 -21 -10 -17 -10 -16 -11 5 0 26 -3 27 -34 7 -39 -26 -73 -16
-92 27 -9 21 -21 38 -26 38 -12 0 -10 -14 7 -36 21 -28 19 -31 -16 -26 -22 3
-30 1 -25 -7 4 -6 17 -11 30 -11 30 0 39 -10 24 -27 -6 -7 -9 -15 -7 -17 2 -1
21 -13 41 -25 31 -18 41 -20 59 -10 21 11 22 10 16 -24 -4 -26 -1 -39 10 -49
14 -11 11 -14 -23 -20 -21 -3 -43 -2 -48 3 -6 5 -20 9 -33 9 -16 0 -27 8 -33
24 -11 30 -30 42 -39 27 -6 -9 -17 -8 -46 1 -31 10 -41 20 -47 45 -7 27 -14
33 -58 43 -42 10 -49 15 -39 26 9 11 6 14 -19 14 -16 0 -35 -7 -42 -15 -10
-12 -16 -13 -24 -4 -7 7 -7 13 -1 16 77 30 86 38 72 57 -11 15 -21 18 -52 12
-44 -9 -110 -69 -81 -74 35 -7 6 -42 -36 -42 -19 0 -33 8 -44 26 -13 19 -19
22 -25 12 -7 -10 -9 -10 -9 0 0 22 -17 13 -29 -17 -7 -15 -11 -50 -9 -77 l4
-49 18 40 c17 37 19 38 27 19 7 -21 23 -26 128 -37 33 -3 38 19 6 27 -40 10
-25 29 23 30 32 1 44 -3 48 -16 3 -11 15 -18 32 -18 14 0 35 -9 46 -19 12 -11
36 -23 55 -28 19 -5 36 -14 38 -20 6 -16 -37 -3 -104 31 -29 14 -59 26 -66 26
-8 0 -33 -14 -56 -30 -32 -23 -48 -29 -64 -23 -12 4 -35 8 -52 9 -16 0 -34 2
-40 3 -5 2 -25 3 -42 2 -27 -1 -33 -5 -33 -24 0 -12 -9 -31 -21 -40 -24 -21
-21 -41 7 -45 14 -2 25 7 36 32 14 27 21 33 38 29 12 -3 27 -14 33 -24 10 -16
13 -17 28 -3 14 12 22 13 38 4 12 -6 21 -15 21 -19 0 -5 12 -16 26 -26 23 -15
27 -15 49 -1 13 9 30 34 36 56 11 37 15 40 48 39 20 -1 47 -5 61 -9 l25 -8
-24 -1 c-23 -1 -76 -47 -63 -55 4 -2 44 -12 90 -21 79 -17 83 -20 78 -41 -10
-40 59 -60 100 -29 29 22 42 18 36 -10 -5 -29 4 -32 30 -8 10 9 19 14 21 12 1
-2 9 -17 17 -34 17 -32 58 -51 47 -21 -8 21 -1 20 38 -4 l33 -21 46 23 c38 18
46 27 46 50 0 22 -5 28 -22 28 -15 0 -38 18 -66 50 -24 28 -47 50 -52 50 -15
0 1 -33 33 -67 l31 -33 -30 0 c-16 0 -40 9 -54 20 -14 11 -41 20 -61 20 -44 0
-67 21 -44 40 12 10 13 15 3 28 -11 13 -7 14 40 10 60 -6 65 3 25 44 -20 21
-23 28 -11 28 12 0 18 15 23 55 3 30 11 57 16 61 12 7 79 -34 79 -50 0 -15
-54 -56 -75 -56 -21 0 -19 -6 13 -51 32 -45 72 -57 125 -38 l36 13 -21 40 -20
40 -18 -22 c-18 -22 -45 -29 -53 -14 -6 12 39 83 48 75 4 -5 3 1 -3 13 -6 11
-27 32 -46 45 -42 28 -43 30 -15 47 18 11 24 11 40 -4 10 -9 19 -22 19 -28 0
-6 27 -64 60 -128 32 -65 65 -136 71 -158 16 -54 64 -77 122 -60 22 6 42 8 45
5 4 -4 9 -34 12 -68 7 -86 30 -90 30 -5 0 57 11 88 30 88 10 0 -8 -131 -20
-145 -7 -9 -6 -16 5 -25 8 -7 15 -17 15 -23 0 -6 -10 -1 -22 10 -29 25 -67 41
-49 19 15 -17 3 -96 -14 -96 -6 0 -20 10 -31 22 -12 13 -13 18 -4 13 13 -8 13
-7 1 8 -7 9 -19 17 -26 17 -17 0 -25 23 -25 72 0 32 -6 45 -27 61 -34 27 -63
29 -63 6 0 -10 5 -21 10 -24 6 -3 10 -14 10 -23 0 -12 -9 -7 -29 18 -49 58
-47 24 2 -47 25 -38 51 -81 57 -96 l10 -28 -27 19 c-16 11 -37 30 -48 42 -11
12 -36 30 -55 40 -19 10 -53 32 -75 50 -32 26 -41 29 -43 16 -2 -9 -13 -16
-24 -16 -20 0 -20 -1 -4 -18 15 -18 15 -20 -5 -38 l-21 -19 22 -17 c25 -21 40
-16 40 13 0 19 1 19 22 5 28 -20 38 -20 38 -1 0 22 12 19 58 -14 52 -39 55
-45 31 -67 -15 -13 -34 -18 -69 -16 -41 2 -50 -2 -64 -23 -16 -25 -16 -25 11
-27 16 -1 39 -1 52 0 13 1 30 -6 36 -15 11 -15 13 -15 24 5 6 11 11 28 11 37
0 9 7 23 15 32 14 13 18 13 40 -1 35 -23 56 -69 62 -135 3 -31 14 -83 25 -115
13 -40 19 -81 17 -128 -1 -37 0 -71 3 -73 3 -3 13 13 22 36 12 29 14 45 7 52
-12 12 -15 66 -5 91 3 9 14 16 23 16 13 0 23 31 50 158 19 86 42 171 52 187
37 63 176 142 202 116 5 -5 1 -25 -7 -46 -21 -50 -20 -65 4 -65 14 0 25 11 34
31 24 58 169 102 264 81 28 -7 42 -7 42 0 0 16 111 -1 146 -23 17 -10 40 -19
50 -18 14 0 11 4 -11 14 -26 12 -16 13 88 8 l117 -6 11 32 c6 17 15 31 20 31
13 0 41 60 35 75 -2 7 3 15 13 18 23 6 30 33 19 75 l-9 33 -62 -2 c-75 -2
-103 6 -117 32 -9 17 -7 19 16 19 15 0 35 -6 43 -14 13 -12 23 -12 54 -3 20 7
37 15 37 18 0 16 -34 32 -70 33 -24 0 -42 6 -45 14 -4 10 -15 12 -39 8 -31 -6
-35 -4 -45 26 -13 38 -1 58 24 38 8 -7 15 -19 15 -26 0 -21 49 -36 88 -29 25
5 32 3 26 -6 -5 -9 3 -11 34 -6 23 3 40 1 37 -3 -3 -5 2 -13 12 -18 12 -7 24
-4 45 11 27 20 38 47 19 47 -4 0 -6 11 -3 25 3 20 0 25 -17 25 -12 0 -21 6
-21 15 0 17 -35 21 -45 5 -9 -15 -25 -2 -25 21 0 10 -6 19 -14 19 -8 0 -16 7
-20 15 -3 8 -15 15 -27 15 -12 0 -27 7 -33 15 -7 9 -30 16 -58 17 -40 1 -48 4
-48 20 0 11 5 16 10 13 6 -3 10 -1 10 5 0 7 6 8 19 1 10 -6 21 -8 24 -4 4 3
13 0 21 -6 8 -7 20 -10 25 -7 5 4 16 -2 23 -12 18 -27 82 -19 75 9 -5 18 -4
18 23 -1 17 -12 31 -16 35 -10 10 16 -13 49 -47 66 -17 9 -46 31 -65 50 -41
41 -56 43 -47 7 6 -23 5 -25 -15 -20 -12 3 -27 -1 -36 -9 -8 -9 -16 -10 -20
-4 -3 5 -11 10 -16 10 -6 0 -7 -5 -3 -12 5 -8 2 -9 -11 -4 -11 4 -25 0 -35 -9
-17 -15 -19 -15 -31 2 -18 24 -60 53 -77 53 -10 0 -12 -7 -8 -25 10 -39 -1
-46 -40 -28 -29 14 -38 15 -56 4 -11 -7 -23 -9 -27 -4 -19 25 -70 51 -97 47
-16 -2 -20 -1 -9 2 24 7 55 33 55 47 0 6 -9 2 -19 -7 -16 -15 -22 -15 -39 -5
-18 11 -24 10 -39 -3 -12 -12 -23 -14 -33 -8 -10 6 -22 3 -37 -12 -13 -12 -23
-16 -23 -10 0 7 -11 12 -25 12 -19 0 -25 -5 -25 -22 -1 -21 -2 -22 -14 -5 -25
32 -38 21 -31 -25 4 -24 11 -47 16 -53 16 -16 10 -25 -16 -25 -20 0 -25 -5
-25 -25 0 -28 12 -32 30 -10 7 8 19 15 27 15 19 0 10 -31 -27 -90 -37 -58 -62
-120 -49 -120 5 0 19 16 30 35 23 39 61 51 137 42 36 -4 52 -12 75 -38 21 -26
25 -28 16 -10 l-12 24 37 -21 c47 -28 72 -29 29 -1 -40 25 -42 32 -7 19 31
-12 34 -12 34 -2 0 4 -38 18 -85 31 -81 22 -85 25 -70 41 15 16 14 18 -5 23
-42 11 -36 38 19 89 51 46 54 48 72 32 10 -9 25 -14 33 -11 15 6 30 -16 19
-27 -4 -3 -17 -6 -30 -6 -32 0 -25 -24 7 -28 14 -2 29 3 36 13 8 11 14 13 19
5 4 -6 -2 -22 -14 -34 -12 -12 -18 -26 -14 -29 13 -14 40 -6 64 19 22 23 24
24 36 8 10 -13 15 -15 27 -5 23 19 28 -4 6 -32 -22 -27 -26 -52 -10 -62 5 -3
7 -12 3 -21 -5 -13 -8 -13 -24 2 -15 14 -21 14 -34 4 -8 -7 -15 -20 -15 -29 0
-9 -10 -21 -22 -26 -24 -10 -38 -55 -18 -55 6 0 24 7 40 15 27 14 30 14 30 0
0 -8 14 -28 32 -44 18 -16 28 -33 24 -39 -12 -20 -45 -13 -62 14 -15 22 -19
23 -26 10 -15 -26 8 -91 37 -104 32 -15 32 -25 -1 -47 -20 -13 -24 -22 -20
-41 6 -22 4 -23 -25 -20 -31 4 -49 19 -49 44 0 7 -7 24 -16 37 -17 26 -12 45
12 45 19 0 18 24 -2 41 -12 10 -20 10 -34 1 -14 -9 -19 -8 -24 3 -15 40 -81 2
-91 -52 l-7 -38 -14 34 c-18 42 -19 38 16 56 20 10 30 23 30 38 0 13 5 28 10
33 8 8 6 15 -5 24 -10 8 -15 9 -15 1 0 -6 -13 -11 -28 -11 -16 0 -36 -6 -46
-13 -15 -11 -16 -18 -7 -34 9 -18 8 -20 -9 -16 -11 3 -25 11 -31 19 -19 23
-39 16 -39 -12 0 -23 -2 -25 -16 -13 -14 11 -18 10 -31 -6 -8 -12 -13 -34 -11
-54 4 -29 3 -31 -9 -15 -12 16 -13 16 -19 0 -3 -9 -7 -29 -8 -44 -3 -41 -66
-130 -66 -92 0 6 4 10 10 10 5 0 12 12 16 28 3 15 9 36 14 47 4 11 23 58 42
104 18 47 35 89 36 93 2 4 -3 8 -12 8 -9 0 -16 6 -16 14 0 21 -19 30 -34 17
-11 -9 -15 -6 -19 11 -4 12 -2 27 2 32 14 17 25 106 13 106 -6 0 -9 18 -7 43
2 23 4 50 4 60 1 13 6 17 20 12 14 -4 21 0 26 15 4 11 18 28 31 37 16 10 23
22 19 31 -3 9 0 19 7 24 8 4 -4 8 -31 8 -46 0 -46 -1 -25 67 3 10 -4 2 -15
-17 l-20 -35 -1 43 c0 26 4 41 10 37 21 -13 31 7 14 26 -16 18 -16 19 11 19
23 0 26 3 17 12 -7 7 -12 20 -12 30 0 23 45 25 67 2 10 -9 26 -14 41 -11 29 5
74 -11 66 -24 -9 -15 26 -70 39 -62 7 4 24 6 39 4 23 -2 27 2 30 26 l3 28 24
-24 c22 -22 23 -25 8 -36 -21 -15 -21 -24 -1 -46 11 -13 22 -16 33 -10 9 5 19
8 23 8 4 -1 21 18 39 42 l32 45 23 -27 c23 -27 44 -35 44 -18 0 15 38 20 44 5
14 -37 106 16 106 61 0 27 -37 45 -50 25 -9 -15 -40 25 -40 52 0 22 26 24 38
2 8 -14 12 -14 30 -3 25 16 29 44 7 56 -12 7 -13 16 -4 47 8 30 7 42 -6 62
-13 21 -19 23 -31 13 -11 -9 -18 -9 -26 -1 -7 7 -24 12 -39 12 -15 0 -31 5
-34 10 -12 20 -31 9 -43 -25 -9 -23 -18 -32 -28 -28 -22 8 -44 -16 -44 -49 0
-31 26 -50 40 -28 9 15 30 5 30 -16 0 -8 -8 -14 -19 -14 -10 0 -24 -7 -31 -15
-16 -19 8 -30 46 -21 23 6 24 5 14 -14 -6 -11 -15 -20 -21 -20 -5 0 -15 -11
-21 -25 l-11 -25 -19 27 c-19 30 -25 15 -8 -18 6 -11 8 -24 4 -30 -8 -14 -74
58 -74 81 0 10 -14 30 -32 45 -31 26 -32 28 -13 42 18 12 20 12 24 -4 4 -21
19 -33 44 -33 26 0 24 89 -4 124 -11 15 -18 33 -15 41 3 10 -1 15 -13 15 -28
0 -44 -25 -36 -59 9 -40 0 -54 -25 -38 -23 14 -27 63 -6 86 7 9 21 39 31 67
l18 51 -28 49 c-37 65 -64 94 -87 94 -10 0 -21 7 -24 15 -7 17 -40 20 -49 5
-4 -6 7 -23 24 -37 35 -31 42 -73 12 -73 -10 0 -21 9 -24 20 -3 12 -14 20 -27
20 -18 0 -21 4 -17 21 3 12 0 22 -9 26 -10 4 -11 10 -4 23 10 19 -4 31 -27 23z
m-87 -346 c25 -23 33 -37 28 -50 -8 -22 -26 -17 -39 11 -12 27 -41 24 -37 -3
1 -11 -6 -25 -18 -33 -18 -11 -21 -10 -30 14 -10 26 -11 26 -30 9 -10 -9 -23
-14 -29 -11 -11 7 -61 -21 -61 -34 0 -5 7 -16 15 -24 13 -13 20 -13 35 -3 11
6 20 17 20 24 0 7 2 13 4 13 2 0 13 3 23 6 15 6 16 4 6 -7 -19 -20 -16 -27 18
-44 39 -21 30 -32 -11 -15 -35 14 -61 1 -53 -28 3 -14 -2 -18 -24 -17 -36 0
-42 -31 -13 -68 23 -29 40 -35 40 -13 0 24 29 27 41 5 14 -28 3 -37 -17 -13
-16 20 -16 13 2 -31 11 -26 -11 -17 -54 23 -34 32 -42 46 -42 75 0 24 6 39 17
46 17 9 16 11 -5 33 -12 14 -22 29 -22 34 0 6 19 27 42 47 36 32 46 36 78 31
34 -6 38 -4 50 25 7 17 16 31 21 31 5 0 25 -15 45 -33z m-166 -654 c0 -42 33
-192 41 -187 5 3 6 17 3 31 -5 20 -2 30 17 44 28 21 20 36 -10 19 -12 -6 -21
-7 -21 -1 0 5 -3 16 -6 24 -9 24 24 28 61 8 25 -13 31 -21 23 -29 -9 -9 -8
-16 3 -29 23 -27 12 -51 -31 -73 -44 -22 -55 -46 -40 -84 9 -24 8 -27 -9 -21
-10 3 -30 1 -44 -4 -33 -13 -46 3 -17 21 11 7 20 16 20 20 0 13 -44 8 -64 -7
-28 -21 -33 -19 -38 14 -2 17 -1 28 3 25 5 -3 17 0 29 6 11 5 29 15 41 20 11
6 30 8 41 4 17 -5 20 -3 15 11 -4 9 -7 20 -7 25 0 5 -7 16 -15 24 -13 13 -20
13 -35 3 -17 -10 -23 -8 -41 9 -18 19 -19 26 -10 62 14 51 30 57 59 23 l23
-26 -4 43 c-3 23 -1 42 4 42 5 0 9 -8 9 -17z"/>
<path d="M1253 3578 c-4 -7 -6 -20 -5 -30 4 -25 -16 -31 -44 -13 -25 16 -26
16 -61 -20 -26 -27 -32 -39 -24 -49 8 -10 4 -13 -19 -13 -17 0 -30 3 -30 6 0
4 -20 8 -44 9 -35 1 -48 -3 -67 -24 -20 -21 -21 -27 -9 -34 8 -5 29 -10 47
-10 17 0 35 -4 38 -10 4 -6 18 -3 38 7 18 9 36 16 41 15 4 -2 14 2 21 8 10 8
15 8 20 0 4 -6 17 -10 28 -9 12 1 35 -1 50 -6 46 -13 87 36 53 64 -11 9 -20 9
-35 2 -14 -8 -22 -8 -26 0 -11 16 2 23 45 24 29 1 44 7 56 23 14 20 14 22 -1
22 -9 0 -14 4 -11 8 5 9 -29 42 -44 42 -5 0 -12 -6 -17 -12z"/>
<path d="M2414 3429 c-5 -9 28 -10 130 -5 l136 8 0 -231 0 -231 -66 0 c-41 0
-63 -4 -59 -10 3 -5 33 -10 66 -10 l59 0 2 -52 c1 -29 1 -78 -1 -109 -1 -33 2
-60 8 -64 8 -4 11 27 11 100 l0 107 40 -4 c22 -2 40 0 40 4 0 5 -18 8 -40 8
l-40 0 0 119 0 120 53 4 52 3 -52 2 -53 2 0 125 0 125 -139 0 c-94 0 -142 -4
-147 -11z"/>
<path d="M3199 3310 c-2 -28 -3 -30 -6 -9 l-4 26 -84 -30 c-87 -30 -95 -38
-95 -99 0 -14 -4 -28 -9 -30 -14 -5 -40 -197 -27 -201 9 -3 205 33 215 39 2 2
5 29 8 61 2 32 8 103 12 158 4 55 4 104 0 110 -5 5 -10 -6 -10 -25z m-74 -108
l39 -67 13 70 c12 69 12 69 8 -59 -2 -70 -6 -131 -10 -134 -3 -3 -41 -6 -85
-7 -93 -2 -87 -16 -69 147 6 57 16 106 23 110 26 17 43 4 81 -60z"/>
<path d="M742 3287 c-1 -57 -18 -102 -42 -114 l-25 -12 33 -12 c45 -15 59 -43
28 -57 -12 -5 -34 -8 -48 -5 -19 4 -29 0 -37 -15 -10 -18 -7 -22 25 -32 42
-14 69 -8 108 23 25 20 27 26 17 44 -6 12 -11 33 -11 47 0 16 -6 26 -15 26
-25 0 -17 30 16 61 35 32 34 54 -2 54 -13 0 -29 3 -35 7 -8 5 -12 0 -12 -15z"/>
<path d="M3115 2731 c-11 -5 -53 -14 -92 -21 -63 -11 -73 -16 -73 -34 0 -12
-7 -42 -14 -67 -8 -26 -18 -88 -22 -139 l-7 -92 99 7 c100 7 137 15 72 15 -19
0 -57 3 -83 7 l-47 6 7 131 c4 72 10 134 14 137 8 9 88 22 79 14 -4 -4 11 -36
33 -71 21 -35 39 -72 40 -82 2 -30 17 50 24 126 7 73 6 77 -30 63z"/>
<path d="M2687 2563 c-4 -3 -7 -17 -7 -30 0 -15 -6 -23 -17 -23 -17 -1 -17 -1
0 -14 23 -18 26 -181 2 -190 -8 -3 -15 -14 -15 -25 0 -14 -9 -23 -25 -27 -21
-5 -25 -12 -25 -41 0 -31 3 -35 21 -30 14 4 27 -2 41 -18 20 -23 22 -23 34 -7
10 13 17 15 31 6 14 -9 20 -8 28 3 8 11 17 12 38 4 23 -9 27 -8 27 8 0 12 -12
24 -32 32 -45 18 -66 49 -33 49 8 0 15 5 15 10 0 10 -13 14 -42 11 -9 -1 -19
3 -23 9 -4 6 -6 72 -6 146 1 74 0 134 -2 134 -2 0 -7 -3 -10 -7z"/>
<path d="M548 2277 c-28 -14 -38 -25 -38 -43 0 -34 -26 -30 -45 6 -13 25 -21
30 -48 28 -18 0 -46 -10 -63 -20 -31 -18 -32 -18 -37 3 -4 14 -10 18 -19 13
-7 -5 -20 -7 -29 -6 -9 2 -21 -4 -28 -12 -17 -20 3 -58 26 -49 10 4 21 -1 30
-13 9 -12 26 -19 46 -19 26 0 33 -4 35 -23 2 -12 17 -32 33 -44 30 -23 38 -55
17 -76 -10 -10 -8 -19 5 -41 21 -35 7 -50 -26 -28 -21 14 -22 13 -32 -17 -13
-40 -41 -42 -38 -2 2 27 1 28 -17 11 -11 -10 -26 -15 -35 -12 -25 10 -17 -17
15 -48 19 -18 33 -43 36 -66 6 -35 8 -37 29 -27 30 13 81 -10 77 -35 -4 -24
25 -21 33 3 8 24 23 26 32 5 5 -14 8 -14 24 1 11 9 19 27 19 38 0 36 15 49 48
43 24 -5 31 -2 35 13 3 13 14 20 30 20 31 0 59 41 55 78 -3 23 -22 40 -66 58
-8 4 23 54 34 54 7 0 16 5 20 12 5 8 -5 9 -37 4 -51 -8 -129 -41 -129 -54 0
-6 17 -1 37 9 36 18 73 25 73 14 0 -4 -7 -19 -15 -35 -25 -49 -145 -70 -153
-27 -3 17 39 92 72 130 21 23 63 22 104 -3 18 -11 40 -20 48 -20 26 0 1 24
-46 45 -26 12 -39 24 -38 34 2 11 -6 17 -24 19 -21 3 -28 9 -28 26 0 30 10 39
27 24 25 -21 36 6 11 28 -23 20 -24 20 -60 1z"/>
<path d="M2063 2168 c-9 -10 -24 -18 -33 -18 -10 0 -28 -9 -42 -19 -14 -11
-33 -18 -44 -15 -15 4 -25 -7 -47 -45 -15 -28 -41 -58 -57 -68 l-30 -17 22
-23 c25 -27 72 -30 124 -8 32 13 38 13 59 -1 24 -15 24 -17 9 -47 -15 -28 -15
-31 2 -44 28 -20 71 -16 88 9 14 20 14 24 -2 41 -16 18 -16 20 5 34 19 13 21
18 11 37 -17 32 -30 37 -55 20 -22 -14 -23 -13 -23 14 0 37 17 52 60 52 19 0
46 7 59 16 21 15 24 15 50 -10 23 -22 30 -24 39 -13 7 8 40 17 73 21 56 5 64
4 91 -19 38 -32 43 -31 58 5 7 17 22 33 36 36 24 6 40 36 29 54 -9 15 -45 12
-51 -4 -3 -8 -19 -19 -36 -25 -40 -14 -51 -14 -42 1 5 8 2 9 -12 3 -10 -4 -36
-10 -57 -13 -33 -4 -43 0 -73 29 -33 32 -38 33 -115 34 -64 1 -83 -3 -96 -17z"/>
<path d="M3983 2113 l27 -4 0 -148 0 -148 -227 -6 c-126 -4 -307 -10 -403 -13
l-175 -7 6 104 c4 57 7 114 8 126 1 14 9 23 24 27 12 2 -7 2 -43 0 -85 -7
-303 -43 -311 -52 -18 -20 -25 -76 -20 -149 l6 -83 -25 0 c-14 0 -32 -5 -40
-10 -12 -8 -9 -9 10 -6 48 10 426 26 755 32 367 6 451 10 448 18 -2 3 -3 78
-3 166 l0 160 -32 -1 c-31 -2 -31 -2 -5 -6z"/>
<path d="M2834 2085 c-3 -8 -15 -15 -27 -15 -19 0 -19 -1 -3 -19 11 -12 16
-30 13 -48 -4 -27 -4 -27 -12 -5 -5 14 -18 25 -36 29 -15 3 -30 11 -33 19 -7
19 -56 18 -56 0 0 -21 -59 -39 -77 -24 -13 10 -12 14 3 25 16 12 15 13 -7 21
-31 12 -49 5 -49 -19 0 -10 -7 -19 -15 -19 -8 0 -24 -9 -34 -19 -19 -19 -20
-19 -36 -1 -9 10 -24 16 -36 13 -10 -3 -26 0 -34 7 -11 9 -22 10 -42 2 -16 -6
-56 -10 -89 -8 -57 2 -61 0 -51 -16 9 -13 8 -21 -1 -30 -6 -6 -12 -22 -12 -35
0 -19 5 -23 32 -23 29 0 30 -1 15 -17 -17 -19 -64 -46 -108 -62 -31 -11 -48
-59 -27 -72 22 -15 38 -10 38 11 0 21 15 27 25 10 10 -17 25 -11 25 10 0 12
12 26 30 35 28 14 32 14 55 -2 13 -10 25 -28 25 -40 0 -17 9 -25 41 -33 23 -6
43 -9 46 -7 7 8 -27 80 -49 104 -12 13 -17 23 -12 23 5 1 -7 9 -26 20 -34 19
-34 19 -8 20 14 0 33 3 42 6 11 4 25 -15 54 -73 52 -103 69 -118 124 -109 24
4 63 11 88 15 25 4 60 15 78 25 24 12 45 16 72 11 39 -7 39 -6 45 32 4 21 22
70 41 110 39 83 44 137 14 153 -16 9 -22 8 -26 -5z"/>
<path d="M825 2079 c-7 -10 21 -38 40 -39 5 0 -13 -24 -40 -52 -28 -29 -36
-41 -20 -27 67 59 76 61 123 33 23 -14 42 -29 42 -33 0 -5 -19 -16 -42 -25
-39 -15 -142 -96 -123 -96 5 0 31 18 59 39 28 21 68 46 88 54 34 14 39 14 75
-5 l38 -20 -50 7 c-46 6 -49 5 -30 -9 20 -15 20 -15 -2 -16 -13 0 -33 -14 -49
-36 -23 -29 -25 -37 -13 -45 20 -13 35 -11 49 6 18 22 29 18 23 -7 l-6 -23 24
22 c13 12 38 25 54 28 17 4 39 13 51 20 32 21 67 7 144 -56 40 -32 76 -59 80
-59 5 0 27 -16 50 -35 44 -36 75 -39 43 -3 -40 45 -253 209 -263 203 -5 -3
-10 0 -10 8 0 17 -118 92 -128 82 -4 -4 7 -18 23 -32 55 -45 -82 29 -149 81
-63 49 -71 52 -81 35z"/>
<path d="M1227 1771 c-4 -17 -4 -37 -1 -45 3 -7 -8 -28 -25 -46 -24 -27 -33
-31 -45 -21 -10 8 -16 9 -21 1 -9 -15 -36 -12 -57 7 -17 15 -18 15 -18 -1 0
-14 -3 -14 -20 -4 -17 11 -22 10 -30 -2 -12 -19 -3 -52 17 -65 9 -5 36 -25 60
-42 50 -38 51 -39 49 -16 0 11 7 19 21 21 12 2 44 23 70 48 44 41 45 44 21 38
-29 -6 -40 9 -13 20 8 3 15 13 15 21 0 9 6 23 14 31 13 12 15 12 21 -5 3 -11
13 -25 22 -33 9 -7 1 15 -18 51 -19 36 -39 66 -45 68 -6 2 -14 -10 -17 -26z"/>
<path d="M3640 1420 c0 -35 -2 -36 -35 -14 -23 15 -24 14 -39 -15 -15 -28 -15
-30 10 -48 l26 -19 -26 -17 c-25 -17 -26 -18 -10 -48 15 -29 16 -30 39 -15 33
22 35 21 35 -14 0 -28 3 -30 35 -30 32 0 35 2 35 30 0 34 6 36 37 15 19 -14
22 -13 38 12 18 26 17 27 -10 49 l-29 23 27 12 c31 14 33 26 11 57 -14 20 -17
21 -37 7 -31 -21 -37 -19 -37 15 0 28 -3 30 -35 30 -32 0 -35 -2 -35 -30z"/>
<path d="M6344 1385 c-4 -8 -4 -48 -2 -88 2 -54 8 -78 23 -95 11 -12 33 -46
48 -75 l28 -52 -5 85 c-3 47 -6 120 -6 163 l0 77 -40 0 c-27 0 -43 -5 -46 -15z"/>
<path d="M2365 1187 c-12 -28 4 -36 75 -39 l65 -3 0 -125 0 -125 -87 -3 -87
-3 -7 28 c-10 48 -14 50 -8 3 4 -25 8 -128 10 -230 2 -102 3 -200 3 -219 1
-19 4 -31 9 -27 4 4 7 33 7 64 l0 57 100 2 c55 1 94 -1 87 -3 -12 -6 -10 -63
4 -131 4 -23 3 -23 -90 -23 -66 0 -96 4 -99 13 -3 7 -6 6 -6 -5 -1 -10 -11
-18 -28 -21 -16 -2 31 -5 104 -6 96 -1 134 2 140 12 4 6 10 66 13 132 l5 120
48 0 c31 0 47 4 47 13 0 9 216 12 1045 12 l1045 0 0 80 0 80 -1045 0 c-690 0
-1045 -3 -1045 -10 0 -5 -22 -10 -48 -10 l-49 0 -7 162 c-3 93 -11 167 -17
175 -8 9 -36 13 -89 13 -67 0 -79 3 -83 18 -4 16 -4 16 -12 -1z m195 -417 l-1
-190 -112 2 -112 2 94 3 c82 3 93 6 88 21 -13 45 -12 47 12 44 20 -2 22 0 11
13 -7 8 -18 15 -26 15 -21 0 -24 14 -10 61 8 25 17 84 21 132 5 65 11 87 21
87 12 0 14 -33 14 -190z"/>
<path d="M5440 516 c0 -2 41 -34 91 -72 l90 -67 32 34 c25 26 26 28 5 9 l-28
-23 0 25 c0 14 3 40 6 57 6 30 7 31 65 31 l59 0 -38 -36 -37 -36 48 38 c26 21
47 40 47 41 0 2 -76 3 -170 3 -93 0 -170 -2 -170 -4z"/>
</g>
</svg>
