<svg id="Layer_1" data-name="Layer 1" xmlns="http://www.w3.org/2000/svg" viewBox="0 0 922 922"><title>emergency-stop</title><circle cx="461" cy="461" r="461" style="fill:red"/><path d="M430.49,496.75,292.86,319.16c-8.76-11.33-14.8-23.34-14.43-37.4.82-31.83,33.14-56.18,75.68-55.09,35.3.91,52.06,18.38,60.79,31.19L518.7,412.37,637.56,263.59c15.9-19.58,28.82-28.88,61.4-28,36.21.93,71.08,18.12,70.09,56.61-.26,10.36-7,24.26-14.41,32.22L598.84,501.09,741.71,686.22c14.89,19.64,23.69,29.5,23.33,43.56-1,39.23-35.94,59.07-77.57,58-24.44-.63-45.14-5.61-61.73-29.74L510.47,591.39,377.62,756.1c-13.11,16.7-35.91,22.78-58.53,22.2-43.45-1.12-70.94-24-70.17-53.66.32-12.58,3.38-25.83,21.11-46.11Z" transform="translate(-51 -51)" style="fill:#fff"/></svg>