<svg xmlns="http://www.w3.org/2000/svg" width="1281" height="504" fill="none" viewBox="0 0 1281 504">
    <path fill="#FBE4D8" d="M-1.055 306.502h569.917v14h14v13.793h13.917v14h14.083v14h13.542v14.125h14.125v13.75h642.041V143.168H-1.055v163.334z"/>
    <path fill="#FBE4D8" d="M1280.56 44.167c-19.75-.008-56.21 15.334-66.88 58.277 0 0-31.38-.549-68.91-.549-27.93-64.73-75.41-24.23-75.41-24.23-13.99-27.5-45.89-24.755-58.47-12.872-19.486-37.127-74.459-56.627-115.607-7.952-22.464-42.357-111.658-91.606-175.37-7.277-16.859-24.397-52.341-29.397-74.014-4.9-46.843-60.163-126.047-34.33-140.196 5.126-24.339-13.55-56.883.21-56.748 35.018-26.384 2.285-34.56 19-35.7 32.168-1.06-2.682-23.083-17.764-44.363-4.02-8.514-36.651-51.074-34.36-64.351-15.76-27.647-17.62-51.225 2.838-53.828 22.766-17.828-15.129-33.221-3.551-36.488-1.381 0 0-8.937-30.162-42.885-21.53 0 0-18.493-43.884-64.848-28.761-13.177-14.328-32.32-19.794-53.598-2.94 0 0-20.876-22.472-53.953-21.183v183H1280.56v-183z"/>
    <path fill="#DAE0FF" d="M1280.57 140.17h-57v166.299h57V140.17zM18.778 130.17H-1.055v176.299h19.833V130.17z"/>
    <path stroke="#546BF7" stroke-miterlimit="10" d="M1250.95 284.83v21.5M1257.45 284.83v21.5M1263.95 284.83v21.5M1270.45 284.83v21.5M1276.95 284.83v21.5M1214.03 284.83h66.53M1244.87 284.83v21.5M1238.7 284.83v21.5M1232.53 284.83v21.5M1226.37 284.83v21.5M1220.2 284.83v21.5M1214.03 284.83v21.5"/>
    <path fill="#DAE0FF" d="M905.278 22.669h-109v367.5h109v-367.5z"/>
    <path fill="#EEF0F8" d="M-1.055 306.502h569.918v14h14v13.793h13.917v14h14.083v14h13.542v14.125h14.125v13.75h225v95.997H-1.055V306.502z"/>
    <path fill="#FBE4D8" d="M4.432 239.635c-37.5-3.738-15.38-42.471-34.302-62.574-25.957-27.58 9.073-90.042 43.048-62.641 32.698-23.215 64.825-6.359 70.807 37.528 2.146 15.762 14.866 14.381 19.36 31.318 4.126 15.555-9.003 45.896-36.322 48.725 5.218 9.93-5.396 22.678-15.532 17.93 0 0 6.75 33-31.5 32.75v23.5h-8.75v-39l-6.809-27.536z"/>
    <path stroke="#546BF7" stroke-miterlimit="10" d="M17.914 307.959l3.27-82.701 50.82-95.235M10.707 284.922l3.458-82.145M20.977 239.768l64.92-74.184M11.783 253.461l-29.701-58.039M11.297 271.232l-9.801-38.003M18.251 212.18l-40.259-102.593M7.218 244.469l-3.202-68.463M10.374 192.158l-4.383 21.451M4.766 198.078l-41.895-74.594M37.121 221.785l57.768-19.416M54.426 201.757l42.918-19.822M46.32 178.254l32.631-22.481M37.315 194.975l-.463-82.118M4.559 114.083l15.396 107.905 17.392-33.398M13.613 177.461l26.097-73.188"/>
    <path stroke="#546BF7" stroke-miterlimit="10" d="M19.273 276.35c17.984.818 31.95-9.4 29.497-28.203 0 0 18.732-2.859 14.237-17.982M97.342 192.15l-33.72 20.643M79.359 223.623l-24.32-7.766M63.008 116.126l-25.75 38.013M37.283 183.485l-13.92-33.841M33.988 250.6l13.897-20.846"/>
    <path stroke="#546BF7" stroke-miterlimit="10" d="M2.653 236.021c-47.486.592-18.492-39.012-38.524-60.295-25.957-27.58 6.867-88.717 40.842-61.317 32.698-23.215 67.03-7.684 73.013 36.204 2.145 15.762 14.866 14.383 19.36 31.32 5.313 20.027-17.984 64.578-63.354 43.324M-33.452 178.662l39.239 40.875M48.771 248.146l-28.475 5.315M19.273 272.672l29.02-15.123M45.023 212.588l19.211-46.596M12.734 170.896l23.514-67.32M48.568 251.418l-28.474 5.312M14.37 307.959l3.883-95.779"/>
    <path fill="#FBE4D8" d="M1286.05 239.635c-37.5-3.738-15.38-42.471-34.3-62.574-25.96-27.58 9.07-90.042 43.05-62.641 32.7-23.215 64.82-6.359 70.81 37.528 2.14 15.762 14.86 14.381 19.36 31.318 4.12 15.555-9.01 45.896-36.33 48.725 5.22 9.93-5.39 22.678-15.53 17.93 0 0 6.75 33-31.5 32.75v23.5h-8.75v-39l-6.81-27.536z"/>
    <path stroke="#546BF7" stroke-miterlimit="10" d="M1293.4 253.461l-29.7-58.039M1299.88 212.18l-40.26-102.593M1286.39 198.078l-41.89-74.594M1236.73 143.512l36.58 31.064M1284.28 236.021c-47.49.592-18.5-39.012-38.53-60.295-25.95-27.58 6.87-88.717 40.85-61.317 32.69-23.215 67.03-7.684 73.01 36.204 2.14 15.762 14.86 14.383 19.36 31.32 5.31 20.027-17.99 64.578-63.36 43.324M1275.97 150.87l-1.23-42.1M1248.58 152.912l-6.95-22.889M1248.17 178.662l39.24 40.875M1275.96 220.354l-21.25-16.35"/>
    <path fill="#F2F4FC" d="M1280.57 306.17H822.922v103h457.648v-103z"/>
    <path fill="#FFEFEA" d="M595.945 181.17h-88v125.111h88V181.17zM384.943 142.475h-96.806v164h96.806v-164z"/>
    <path fill="#DAE0FF" d="M225.028 147.336H69.778v38.834h155.25v-38.834z"/>
    <path stroke="#546BF7" stroke-miterlimit="10" d="M23.36 284.832v21.5M16.86 284.832v21.5M10.36 284.832v21.521M3.86 284.832v20.427M60.278 284.83H-.91M29.445 284.832v21.5M35.61 284.832v21.5M41.778 284.832v21.5M47.945 284.832v21.5M54.113 284.832v21.5"/>
    <path fill="#546BF7" d="M219.457 184.992h-141.5v95.201h141.5v-95.201z"/>
    <path fill="#92A9F8" d="M227.082 143.066l-79.259-29.918-78.117 30.293v4.627h157.376v-5.002zM87.428 185.259H73.39v94.037h14.038v-94.037zM121.624 185.259h-14.038v94.037h14.038v-94.037zM155.826 185.259h-14.037v94.037h14.037v-94.037zM224.226 185.259h-14.038v94.037h14.038v-94.037zM190.026 185.259h-14.038v94.037h14.038v-94.037z"/>
    <path fill="#92A9F8" d="M252.303 306.8v-13.791h-14v-14H59.551v14h-14V306.8h206.752z"/>
    <path fill="#EEF0F8" d="M224.791 153.279H69.766v30.666H224.79v-30.666z"/>
    <path stroke="#658AF2" stroke-miterlimit="10" d="M226.792 151.279H71.767v30.666h155.025v-30.666z"/>
    <path fill="#546BF7" d="M102.026 161.938c.803.606 1.302 1.428 1.498 2.464h-2.534c-.168-.354-.425-.637-.77-.847-.346-.21-.761-.315-1.246-.315-.756 0-1.363.255-1.82.763-.457.51-.686 1.197-.686 2.065 0 .942.24 1.666.72 2.17s1.165.756 2.052.756c.569 0 1.068-.156 1.498-.469.43-.313.733-.758.91-1.337h-3.024v-1.722h5.026v2.365c-.187.579-.485 1.116-.896 1.61-.411.495-.936.896-1.575 1.204-.64.308-1.37.462-2.191.462-1 0-1.871-.212-2.618-.637-.747-.425-1.323-1.02-1.73-1.785-.405-.766-.608-1.638-.608-2.618 0-.979.203-1.853.609-2.618.406-.765.98-1.36 1.722-1.785.742-.424 1.608-.637 2.597-.637 1.241 0 2.263.304 3.066.911zM112.52 161.623c.761.435 1.36 1.036 1.799 1.807.438.77.658 1.64.658 2.61s-.222 1.844-.665 2.618c-.443.775-1.045 1.379-1.806 1.813-.761.434-1.603.65-2.527.65-.924 0-1.766-.217-2.527-.65-.761-.435-1.363-1.038-1.806-1.813-.443-.774-.665-1.647-.665-2.618 0-.971.221-1.841.665-2.61.443-.771 1.045-1.372 1.806-1.807.761-.434 1.603-.65 2.527-.65.933 0 1.78.216 2.541.65zm-4.41 2.338c-.462.51-.693 1.202-.693 2.079 0 .868.231 1.56.693 2.072.462.514 1.085.771 1.869.771.775 0 1.396-.257 1.862-.771.466-.513.7-1.204.7-2.072 0-.867-.231-1.559-.693-2.071-.462-.514-1.085-.771-1.869-.771s-1.407.255-1.869.763zM118.449 161.126l2.422 7.448 2.422-7.448h2.562l-3.444 9.898h-3.094l-3.43-9.898h2.562zM129.453 163.03v2.072h3.346v1.806h-3.346v2.198h3.766v1.918h-6.16v-9.898h6.16v1.904h-3.766zM139.938 171.024l-2.142-3.738h-.546v3.738h-2.394v-9.898h4.088c.784 0 1.446.136 1.988.406.542.271.947.642 1.218 1.113.271.472.406 1.011.406 1.617 0 .719-.198 1.33-.595 1.834-.397.504-.973.85-1.729 1.036l2.352 3.892h-2.646zm-2.688-5.376h1.484c.476 0 .826-.105 1.05-.315.224-.21.336-.52.336-.931 0-.392-.114-.7-.343-.924-.229-.224-.577-.336-1.043-.336h-1.484v2.506zM152.832 171.024h-2.394l-4.004-6.076v6.076h-2.394v-9.898h2.394l4.004 6.133v-6.133h2.394v9.898zM165.893 161.195v9.828h-2.394v-6.146l-2.128 6.146h-2.072l-2.142-6.16v6.16h-2.394v-9.828h2.926l2.674 6.846 2.618-6.846h2.912zM170.219 163.03v2.072h3.346v1.806h-3.346v2.198h3.766v1.918h-6.16v-9.898h6.16v1.904h-3.766zM184.414 171.024h-2.394l-4.004-6.076v6.076h-2.394v-9.898h2.394l4.004 6.133v-6.133h2.394v9.898zM193.46 161.126v1.904h-2.688v7.994h-2.408v-7.994h-2.66v-1.904h7.756zM201.461 169.681c-.266.438-.658.788-1.176 1.05-.518.262-1.146.392-1.883.392-1.111 0-2.025-.271-2.744-.812-.719-.541-1.111-1.297-1.176-2.269h2.548c.037.374.17.668.399.883.229.215.521.321.875.321.308 0 .551-.084.728-.252.177-.168.266-.392.266-.672 0-.252-.082-.462-.245-.63-.163-.168-.366-.306-.609-.413-.243-.107-.579-.235-1.008-.385-.625-.215-1.137-.422-1.533-.623-.397-.2-.737-.499-1.022-.896-.285-.396-.427-.912-.427-1.547 0-.588.149-1.097.448-1.525.299-.43.711-.759 1.239-.987.527-.229 1.131-.343 1.813-.343 1.101 0 1.976.261 2.625.784.648.522 1.015 1.241 1.099 2.155h-2.59c-.047-.326-.166-.585-.357-.776-.191-.191-.451-.287-.777-.287-.28 0-.507.074-.679.224-.173.149-.259.369-.259.658 0 .233.077.432.231.595.154.164.347.297.581.399.234.102.569.233 1.008.392.635.215 1.152.427 1.554.637.401.211.747.517 1.036.918.289.401.434.924.434 1.567 0 .522-.132 1.003-.399 1.442z"/>
    <path fill="#92A9F8" d="M87.41 272.9h-14l-4.376 6.5h22.5l-4.125-6.5zM121.457 272.9h-14l-4.375 6.5h22.5l-4.125-6.5zM155.707 272.9h-14l-4.375 6.5h22.5l-4.125-6.5zM190.082 272.9h-14l-4.375 6.5h22.5l-4.125-6.5zM224.207 272.9h-14l-4.375 6.5h22.5l-4.125-6.5zM210.207 191.4h14l4.375-6.5h-22.5l4.125 6.5zM175.957 191.4h14l4.375-6.5h-22.5l4.125 6.5zM141.707 191.4h14l4.375-6.5h-22.5l4.125 6.5zM107.582 191.4h14l4.375-6.5h-22.5l4.125 6.5zM73.41 191.4h14l4.374-6.5h-22.5l4.125 6.5z"/>
    <path stroke="#658AF2" stroke-miterlimit="10" d="M73.362 191.808h14.11M73.362 272.49h14.11M78.124 192.193v80.166M82.792 192.193v80.166M210.195 191.808h14.11M210.195 272.49h14.11M214.957 192.193v80.166M219.621 192.193v80.166M175.988 191.808h14.11M175.988 272.49h14.11M180.749 192.193v80.166M185.417 192.193v80.166M141.781 191.808h14.11M141.781 272.49h14.11M146.543 192.193v80.166M151.207 192.193v80.166M107.57 191.808h14.11M107.57 272.49h14.11M112.331 192.193v80.166M117 192.193v80.166M59.55 279.027h178.74"/>
    <path stroke="#DAE0FF" stroke-miterlimit="10" d="M45.55 292.859h206.753"/>
    <path fill="#546BF7" d="M209.688 142.944l-61.807-23.356-61.066 23.356h122.873z"/>
    <path fill="#DAE0FF" d="M298.108 239.939c37.5-3.738 15.38-42.471 34.301-62.574 25.957-27.58-9.073-90.042-43.048-62.641-32.698-23.215-64.825-6.359-70.806 37.528-2.148 15.762-14.867 14.381-19.36 31.318-4.127 15.555 9.002 45.896 36.322 48.725-5.219 9.93 5.396 22.678 15.531 17.93 0 0-6.75 33 31.5 32.75v23.5h8.75v-39l6.81-27.536z"/>
    <path stroke="#546BF7" stroke-miterlimit="10" d="M284.545 306.475l-3.19-80.913-50.819-95.234M292.719 306.475l-4.379-104.473M281.923 240.586l-65.283-74.697M290.754 253.766l30.33-59.237M291.235 271.654l9.808-38.121M284.285 212.484l40.26-102.592M295.32 244.773l3.202-68.462M292.173 192.42l4.583 22.332M297.423 199.045l42.245-75.256M265.965 222.252l-58.317-19.578M248.423 202.211l-43.228-19.973M256.217 178.559l-32.631-22.481M265.379 195.502l.292-82.938M297.979 114.388l-15.396 107.905-17.099-32.902M288.879 177.711l-26.055-73.133"/>
    <path stroke="#546BF7" stroke-miterlimit="10" d="M283.263 276.654c-17.984.818-31.948-9.4-29.496-28.203 0 0-18.734-2.859-14.238-17.982M205.195 192.455l33.721 20.643M223.18 223.928l24.319-7.766M239.528 116.431l25.75 38.012M265.484 183.26l13.693-33.313M347.433 143.816l-36.581 31.065M268.882 251.295l-14.23-21.236"/>
    <path stroke="#546BF7" stroke-miterlimit="10" d="M299.885 236.326c47.486.592 18.492-39.012 38.524-60.295 25.957-27.58-6.866-88.717-40.842-61.317-32.697-23.215-67.031-7.684-73.012 36.204-2.148 15.762-14.867 14.383-19.36 31.32-5.314 20.027 17.984 64.578 63.353 43.324M308.195 151.174l1.226-42.1M335.582 153.217l6.948-22.889M335.987 178.967l-39.483 41.203M307.379 221.336l22.068-17.027M253.766 248.451l28.474 5.315M283.263 272.977l-29.02-15.123M257.258 212.336l-18.953-46.039M289.803 171.201l-23.521-67.282M253.973 251.723l28.474 5.312M288.087 306.475l-3.802-93.991"/>
    <path fill="#EEF0F8" d="M543.189 171.004h-85.501v30.666h85.501v-30.666z"/>
    <path stroke="#658AF2" stroke-miterlimit="10" d="M545.189 169.002h-85.501v30.666h85.501v-30.666z"/>
    <path fill="#546BF7" d="M470.579 187.746h-1.881l-3.146-4.774v4.774h-1.881v-7.777h1.881l3.146 4.818v-4.818h1.881v7.777zM477.789 180.359c.598.341 1.069.814 1.414 1.419.345.605.517 1.289.517 2.052 0 .763-.174 1.448-.522 2.057-.349.609-.821 1.084-1.419 1.425-.598.341-1.26.512-1.985.512-.726 0-1.388-.171-1.986-.512-.598-.341-1.071-.815-1.419-1.425-.348-.608-.522-1.294-.522-2.057 0-.763.174-1.446.522-2.052.348-.604.821-1.078 1.419-1.419.598-.341 1.26-.512 1.986-.512.732.001 1.397.172 1.995.512zm-3.465 1.837c-.363.4-.544.944-.544 1.634 0 .682.182 1.225.544 1.628.362.403.853.605 1.469.605.608 0 1.096-.202 1.463-.605.367-.403.55-.946.55-1.628 0-.682-.182-1.225-.544-1.628-.362-.403-.853-.605-1.468-.605-.617 0-1.107.2-1.47.599zM487.904 187.746h-1.881l-3.146-4.774v4.774h-1.881v-7.777h1.881l3.146 4.818v-4.818h1.881v7.777zM493.689 183.104v1.561h-4.851v-1.561h4.851zM497.494 185.019v2.728h-1.881v-7.777h3.047c.924 0 1.628.229 2.112.688.484.459.726 1.076.726 1.854 0 .484-.108.915-.325 1.293-.217.378-.537.675-.962.891-.425.217-.942.325-1.551.325h-1.166v-.002zm2.09-2.509c0-.682-.378-1.022-1.133-1.022h-.957v2.023h.957c.755 0 1.133-.333 1.133-1.001zM506.638 187.746l-1.683-2.937h-.429v2.937h-1.881v-7.777h3.212c.616 0 1.137.106 1.562.319.425.213.743.504.956.874.213.371.32.794.32 1.271 0 .565-.156 1.046-.468 1.441-.312.396-.765.667-1.358.814l1.847 3.058h-2.078zm-2.113-4.224h1.165c.374 0 .65-.083.826-.248.176-.165.264-.408.264-.731 0-.308-.09-.55-.27-.726-.18-.177-.453-.265-.82-.265h-1.167v1.97h.002zM515.554 180.359c.598.341 1.069.814 1.414 1.419.345.605.517 1.289.517 2.052 0 .763-.174 1.448-.522 2.057-.349.609-.821 1.084-1.419 1.425-.598.341-1.26.512-1.985.512-.726 0-1.388-.171-1.986-.512-.598-.341-1.071-.815-1.419-1.425-.348-.608-.522-1.294-.522-2.057 0-.763.174-1.446.522-2.052.348-.604.821-1.078 1.419-1.419.598-.341 1.26-.512 1.986-.512.732.001 1.397.172 1.995.512zm-3.465 1.837c-.363.4-.544.944-.544 1.634 0 .682.182 1.225.544 1.628.362.403.853.605 1.469.605.608 0 1.096-.202 1.463-.605.367-.403.55-.946.55-1.628 0-.682-.182-1.225-.544-1.628-.362-.403-.853-.605-1.468-.605-.618 0-1.107.2-1.47.599zM523.828 179.969v1.496h-3.19v1.705h2.464v1.43h-2.464v3.146h-1.881v-7.777h5.071zM526.9 179.969v7.777h-1.881v-7.777h1.881zM534.004 179.969v1.496h-2.112v6.281H530v-6.281h-2.09v-1.496h6.094zM540.29 186.69c-.209.345-.517.619-.924.824-.407.206-.9.309-1.479.309-.873 0-1.591-.213-2.156-.638-.564-.426-.873-1.02-.924-1.782h2.002c.029.293.134.524.313.692.18.169.409.253.688.253.242 0 .433-.065.572-.197.139-.132.209-.309.209-.528 0-.198-.064-.363-.192-.495s-.288-.24-.479-.324c-.191-.084-.455-.186-.792-.303-.492-.169-.893-.332-1.205-.489-.312-.158-.58-.393-.803-.704-.223-.311-.335-.717-.335-1.216 0-.462.117-.861.352-1.198.234-.338.559-.596.974-.776.414-.18.889-.27 1.424-.27.865 0 1.553.206 2.062.616.51.411.797.976.864 1.694h-2.035c-.037-.257-.13-.46-.281-.61-.151-.15-.354-.226-.61-.226-.22 0-.398.059-.534.176-.136.117-.203.29-.203.517 0 .184.061.34.181.468.121.129.273.233.457.313.184.081.447.184.792.309.499.168.906.335 1.221.5.315.165.586.405.814.721.227.315.341.726.341 1.231-.001.411-.105.789-.314 1.133z"/>
    <path stroke="#658AF2" stroke-miterlimit="10" d="M473.688 199.668v18.66M531.855 199.668v18.66"/>
    <path fill="#546BF7" d="M454.356 133.836H327.69V307.17h126.666V133.836z"/>
    <path fill="#DAE0FF" d="M369.024 156.986c0-6.73-6.119-12.188-13.667-12.188s-13.666 5.457-13.667 12.188v52.318h27.334v-52.318z"/>
    <path stroke="#546BF7" stroke-miterlimit="10" d="M369.024 156.986c0-6.73-6.119-12.188-13.667-12.188s-13.666 5.457-13.667 12.188v52.318h27.334v-52.318 0zM355.357 144.502v64.803M355.025 158.002l-9.667-9.666M355.608 158.004l9.666-9.668M341.94 192.229h26.834M341.94 175.146h26.834M341.94 158.062h26.834"/>
    <path fill="#DAE0FF" d="M369.024 229.518c0-6.73-6.119-12.188-13.667-12.188s-13.666 5.457-13.667 12.188v52.318h27.334v-52.318z"/>
    <path stroke="#546BF7" stroke-miterlimit="10" d="M369.024 229.518c0-6.73-6.119-12.188-13.667-12.188s-13.666 5.457-13.667 12.188v52.318h27.334v-52.318 0zM355.357 217.033v64.803M355.025 230.533l-9.667-9.666M355.608 230.535l9.666-9.668M341.94 264.76h26.834M341.94 247.678h26.834M341.94 230.594h26.834"/>
    <path fill="#DAE0FF" d="M404.524 156.986c0-6.73-6.119-12.188-13.667-12.188s-13.666 5.457-13.667 12.188v52.318h27.334v-52.318z"/>
    <path stroke="#546BF7" stroke-miterlimit="10" d="M404.524 156.986c0-6.73-6.119-12.188-13.667-12.188s-13.666 5.457-13.667 12.188v52.318h27.334v-52.318 0zM390.857 144.502v64.803M390.525 158.002l-9.667-9.666M391.108 158.004l9.666-9.668M377.44 192.229h26.834M377.44 175.146h26.834M377.44 158.062h26.834"/>
    <path fill="#DAE0FF" d="M404.524 229.518c0-6.73-6.119-12.188-13.667-12.188s-13.666 5.457-13.667 12.188v52.318h27.334v-52.318z"/>
    <path stroke="#546BF7" stroke-miterlimit="10" d="M404.524 229.518c0-6.73-6.119-12.188-13.667-12.188s-13.666 5.457-13.667 12.188v52.318h27.334v-52.318 0zM390.857 217.033v64.803M390.525 230.533l-9.667-9.666M391.108 230.535l9.666-9.668M377.44 264.76h26.834M377.44 247.678h26.834M377.44 230.594h26.834"/>
    <path fill="#DAE0FF" d="M440.024 156.986c0-6.73-6.119-12.188-13.667-12.188s-13.666 5.457-13.667 12.188v52.318h27.334v-52.318z"/>
    <path stroke="#546BF7" stroke-miterlimit="10" d="M440.024 156.986c0-6.73-6.119-12.188-13.667-12.188s-13.666 5.457-13.667 12.188v52.318h27.334v-52.318 0zM426.357 144.502v64.803M426.025 158.002l-9.667-9.666M426.608 158.004l9.666-9.668M412.94 192.229h26.834M412.94 175.146h26.834M412.94 158.062h26.834"/>
    <path fill="#DAE0FF" d="M440.024 229.518c0-6.73-6.119-12.188-13.667-12.188s-13.666 5.457-13.667 12.188v52.318h27.334v-52.318z"/>
    <path stroke="#546BF7" stroke-miterlimit="10" d="M440.024 229.518c0-6.73-6.119-12.188-13.667-12.188s-13.666 5.457-13.667 12.188v52.318h27.334v-52.318 0zM426.357 217.033v64.803M426.025 230.533l-9.667-9.666M426.608 230.535l9.666-9.668M412.94 264.76h26.834M412.94 247.678h26.834M412.94 230.594h26.834"/>
    <path fill="#546BF7" d="M454.361 133.908H327.689l-2.001-6h130.674l-2.001 6z"/>
    <path stroke="#DAE0FF" stroke-miterlimit="10" d="M327.69 133.836h126.666M327.69 137.17h126.666M327.69 291.502h126.666"/>
    <path fill="#546BF7" d="M823.811 127.502H691.653v266.67h132.158v-266.67z"/>
    <path fill="#DAE0FF" d="M745.476 346.506h-33.667v33.668h33.667v-33.668z"/>
    <path stroke="#DAE0FF" stroke-miterlimit="10" d="M823.143 326.504H698.81M824.089 380.506H698.81"/>
    <path fill="#DAE0FF" d="M769.98 143.615h-10.115V133.5h-6.436v10.115h-10.116v6.438h10.116v10.113h6.436v-10.113h10.115v-6.438z"/>
    <path stroke="#DAE0FF" stroke-miterlimit="10" d="M691.981 167.168H824.14"/>
    <path fill="#DAE0FF" d="M738.478 181.836h-30v12.666h30v-12.666zM772.81 181.836h-30v12.666h30v-12.666zM807.139 181.836h-30v12.666h30v-12.666zM738.478 205.168h-30v12.668h30v-12.668zM772.81 205.168h-30v12.668h30v-12.668zM807.139 205.168h-30v12.668h30v-12.668zM738.478 228.502h-30v12.666h30v-12.666zM772.81 228.502h-30v12.666h30v-12.666zM807.139 228.502h-30v12.666h30v-12.666zM738.478 251.834h-30v12.668h30v-12.668zM772.81 251.834h-30v12.668h30v-12.668zM738.478 275.168h-30v12.666h30v-12.666zM772.81 275.168h-30v12.666h30v-12.666zM807.139 275.168h-30v12.666h30v-12.666zM738.478 298.5h-30v12.668h30V298.5zM772.81 298.5h-30v12.668h30V298.5zM807.139 298.5h-30v12.668h30V298.5z"/>
    <path stroke="#546BF7" stroke-miterlimit="10" d="M723.524 180.836v14.334"/>
    <path fill="#DAE0FF" d="M772.978 181.836h-30v12.666h30v-12.666z"/>
    <path stroke="#546BF7" stroke-miterlimit="10" d="M758.024 180.836v14.334"/>
    <path fill="#DAE0FF" d="M807.103 181.836h-30v12.666h30v-12.666z"/>
    <path stroke="#546BF7" stroke-miterlimit="10" d="M792.149 180.836v14.334"/>
    <path fill="#DAE0FF" d="M772.81 205.211h-30v12.666h30v-12.666zM807.139 205.211h-30v12.666h30v-12.666z"/>
    <path stroke="#546BF7" stroke-miterlimit="10" d="M723.524 204.211v14.334M758.024 204.211v14.334M792.149 204.211v14.334"/>
    <path fill="#DAE0FF" d="M772.81 228.461h-30v12.666h30v-12.666zM807.139 228.461h-30v12.666h30v-12.666z"/>
    <path stroke="#546BF7" stroke-miterlimit="10" d="M723.524 227.461v14.334M758.024 227.461v14.334M792.149 227.461v14.334"/>
    <path fill="#DAE0FF" d="M772.81 251.711h-30v12.666h30v-12.666zM807.139 251.711h-30v12.666h30v-12.666z"/>
    <path stroke="#546BF7" stroke-miterlimit="10" d="M723.524 250.711v14.334M758.024 250.711v14.334M792.149 250.711v14.334"/>
    <path fill="#DAE0FF" d="M772.81 274.961h-30v12.666h30v-12.666zM807.139 274.961h-30v12.666h30v-12.666z"/>
    <path stroke="#546BF7" stroke-miterlimit="10" d="M723.524 273.961v14.334M758.024 273.961v14.334M792.149 273.961v14.334"/>
    <path fill="#DAE0FF" d="M772.81 298.211h-30v12.666h30v-12.666zM807.139 298.211h-30v12.666h30v-12.666z"/>
    <path stroke="#546BF7" stroke-miterlimit="10" d="M723.524 297.211v14.334M758.024 297.211v14.334M792.149 297.211v14.334"/>
    <path fill="#546BF7" d="M698.144 200.838l44.333 192.668-54 .666 9.667-193.334z" opacity=".7"/>
    <path fill="#92A9F8" d="M698.997 200.838h-60.5v193.334h60.5V200.838z"/>
    <path fill="#DAE0FF" d="M801.954 342.006h-43.75v51.918h43.75v-51.918z"/>
    <path fill="#DAE0FF" stroke="#658AF2" stroke-miterlimit="10" d="M805.413 341.092h-50.667v5.334h50.667v-5.334z"/>
    <path stroke="#658AF2" stroke-miterlimit="10" d="M779.645 345.84v47.834"/>
    <path stroke="#DAE0FF" stroke-miterlimit="10" d="M639.161 231.506h59.168"/>
    <path fill="#DAE0FF" d="M671.747 243.504h-6v25.334h6v-25.334zM671.746 276.281h-6v25.334h6v-25.334zM671.746 309.059h-6v25.334h6v-25.334zM671.747 341.838h-6v25.336h6v-25.336z"/>
    <path stroke="#DAE0FF" stroke-miterlimit="10" d="M697.831 380.506h-60.17"/>
    <path fill="#DAE0FF" d="M1280.57 391.502H525.863l-5.334 2.377v11.623h-14v13.791h-13.916v14h-14.084v14h-13.541v14.125h-14.125v13.75H-1.055v14.002H1280.57v-97.668z"/>
    <path fill="#EEF0F8" d="M1280.57 391.504h-17.04v14h-14v13.791h-13.92v14h-14.08v14h-13.54v14.125h-14.13v13.75h86.71v-83.666zM431.606 87.837h-85.501v30.666h85.501V87.837z"/>
    <path stroke="#658AF2" stroke-miterlimit="10" d="M433.606 85.835h-85.501v30.668h85.501V85.835z"/>
    <path fill="#546BF7" d="M361.714 104.238c-.266.438-.658.788-1.176 1.05-.518.262-1.146.392-1.883.392-1.111 0-2.025-.271-2.744-.812-.719-.541-1.111-1.297-1.176-2.269h2.548c.037.374.17.668.399.883.229.215.521.321.875.321.308 0 .551-.084.728-.252.177-.168.266-.392.266-.672 0-.252-.082-.462-.245-.63-.163-.168-.366-.306-.609-.413-.243-.107-.579-.235-1.008-.385-.625-.215-1.137-.422-1.533-.623-.397-.2-.737-.499-1.022-.896-.285-.396-.427-.912-.427-1.547 0-.588.149-1.097.448-1.525.299-.43.711-.759 1.239-.987.527-.229 1.131-.343 1.813-.343 1.101 0 1.976.261 2.625.784.648.522 1.015 1.241 1.099 2.155h-2.59c-.047-.326-.166-.585-.357-.776-.191-.19-.451-.287-.777-.287-.28 0-.507.074-.679.224-.173.15-.259.37-.259.658 0 .233.077.432.231.595.154.164.347.297.581.4.234.101.569.232 1.008.391.635.215 1.152.427 1.554.637.401.211.747.517 1.036.918.289.401.434.924.434 1.567 0 .522-.133 1.004-.399 1.442zM370.835 95.685v1.904h-2.688v7.994h-2.408v-7.994h-2.66v-1.904h7.756zM378.252 103.776h-3.71l-.616 1.806h-2.52l3.626-9.828h2.758l3.626 9.828h-2.548l-.616-1.806zm-.616-1.82l-1.232-3.64-1.246 3.64h2.478zM387.703 105.583l-2.142-3.738h-.546v3.738h-2.394v-9.898h4.088c.784 0 1.446.136 1.988.406s.947.642 1.218 1.113c.271.472.406 1.01.406 1.617 0 .719-.198 1.33-.595 1.834-.397.504-.973.85-1.729 1.036l2.352 3.892h-2.646zm-2.688-5.376h1.484c.476 0 .826-.105 1.05-.315.224-.21.336-.52.336-.931 0-.392-.114-.7-.343-.924-.229-.224-.577-.336-1.043-.336h-1.484v2.506zM398.916 95.685v1.904h-2.688v7.994h-2.408v-7.994h-2.66v-1.904h7.756zM402.528 95.685v5.713c0 .653.147 1.152.441 1.497.294.346.721.519 1.281.519.56 0 .987-.173 1.281-.519.294-.345.441-.844.441-1.497v-5.713h2.394v5.713c0 .933-.182 1.72-.546 2.358-.364.64-.861 1.12-1.491 1.442-.63.321-1.342.482-2.135.482-.793 0-1.493-.158-2.1-.476-.606-.317-1.083-.798-1.428-1.442-.346-.644-.518-1.433-.518-2.365v-5.713h2.38zM412.636 102.111v3.472h-2.394v-9.898h3.878c1.176 0 2.072.292 2.688.875.616.584.924 1.37.924 2.359 0 .616-.138 1.164-.413 1.646-.275.48-.684.858-1.225 1.134-.542.275-1.2.413-1.974.413h-1.484v-.001zm2.66-3.192c0-.868-.48-1.302-1.442-1.302h-1.218v2.576h1.218c.961 0 1.442-.424 1.442-1.274zM425.901 104.238c-.266.438-.658.788-1.176 1.05-.518.262-1.146.392-1.883.392-1.111 0-2.025-.271-2.744-.812-.719-.541-1.111-1.297-1.176-2.269h2.548c.037.374.17.668.399.883.229.215.521.321.875.321.308 0 .551-.084.728-.252.177-.168.266-.392.266-.672 0-.252-.082-.462-.245-.63-.163-.168-.366-.306-.609-.413-.243-.107-.579-.235-1.008-.385-.625-.215-1.137-.422-1.533-.623-.397-.2-.737-.499-1.022-.896-.285-.396-.427-.912-.427-1.547 0-.588.149-1.097.448-1.525.299-.43.711-.759 1.239-.987.527-.229 1.131-.343 1.813-.343 1.101 0 1.976.261 2.625.784.648.522 1.015 1.241 1.099 2.155h-2.59c-.047-.326-.166-.585-.357-.776-.191-.19-.451-.287-.777-.287-.28 0-.507.074-.679.224-.173.15-.259.37-.259.658 0 .233.077.432.231.595.154.164.347.297.581.4.234.101.569.232 1.008.391.635.215 1.152.427 1.554.637.401.211.747.517 1.036.918.289.401.434.924.434 1.567 0 .522-.133 1.004-.399 1.442z"/>
    <path stroke="#658AF2" stroke-miterlimit="10" d="M362.105 116.503v12.667M420.273 116.503v12.667"/>
    <path fill="#EEF0F8" d="M807.199 86.669h-100v30.668h100V86.669z"/>
    <path stroke="#658AF2" stroke-miterlimit="10" d="M809.199 84.669h-100v30.666h100V84.669zM723.199 115.335v12.669M795.867 115.335v12.669"/>
    <path fill="#546BF7" d="M728.074 91.195v7.777h-1.893v-3.245h-2.948v3.245h-1.881v-7.777h1.881v3.014h2.948v-3.014h1.893zM731.471 92.691v1.628h2.629v1.42h-2.629v1.726h2.959v1.507h-4.84v-7.777h4.84v1.496h-2.959zM740.534 97.553h-2.915l-.483 1.419h-1.98l2.849-7.722h2.168l2.849 7.722h-2.002l-.486-1.419zm-.483-1.43l-.969-2.86-.979 2.86h1.948zM745.85 97.531h2.508v1.441h-4.389v-7.777h1.881v6.336zM755.035 91.195v1.496h-2.112v6.281h-1.892v-6.28h-2.09v-1.497h6.094zM762.769 91.195v7.777h-1.893v-3.245h-2.947v3.245h-1.882v-7.777h1.882v3.014h2.947v-3.014h1.893zM772.717 91.898c.648.521 1.068 1.225 1.259 2.112h-1.991c-.146-.359-.372-.642-.676-.847-.305-.205-.666-.308-1.084-.308-.55 0-.993.202-1.331.605-.337.404-.506.942-.506 1.617s.169 1.212.506 1.611c.338.4.781.6 1.331.6.418 0 .779-.103 1.084-.308.304-.205.529-.484.676-.836h1.991c-.19.88-.61 1.583-1.259 2.106-.649.524-1.469.787-2.459.787-.756 0-1.419-.167-1.991-.5-.571-.333-1.014-.8-1.325-1.402-.311-.6-.468-1.287-.468-2.057s.156-1.456.468-2.057c.312-.6.754-1.068 1.325-1.402.572-.333 1.235-.5 1.991-.5.99 0 1.809.26 2.459.78zM780.07 97.553h-2.916l-.483 1.419h-1.98l2.85-7.722h2.167l2.849 7.722h-2.002l-.485-1.419zm-.484-1.43l-.969-2.86-.979 2.86h1.948zM787.493 98.972l-1.684-2.937h-.429v2.937h-1.88v-7.777h3.212c.616 0 1.137.106 1.562.32.426.212.744.503.957.874.213.371.319.794.319 1.271 0 .565-.155 1.045-.468 1.441-.312.396-.764.667-1.358.814l1.849 3.058h-2.08zm-2.112-4.224h1.166c.374 0 .648-.083.825-.248.176-.165.264-.409.264-.73 0-.309-.09-.55-.27-.727-.18-.176-.453-.264-.819-.264h-1.166v1.97zM792.6 92.691v1.628h2.629v1.42H792.6v1.726h2.959v1.507h-4.84v-7.777h4.84v1.496H792.6zM730.568 107.252v2.728h-1.88v-7.777h3.046c.924 0 1.628.229 2.112.688.483.458.727 1.076.727 1.854 0 .484-.108.915-.325 1.292-.217.377-.537.675-.963.891-.425.217-.941.325-1.551.325h-1.166v-.001zm2.091-2.507c0-.682-.377-1.023-1.133-1.023h-.958v2.024h.958c.756 0 1.133-.334 1.133-1.001zM739.712 109.98l-1.683-2.937h-.429v2.937h-1.881v-7.777h3.212c.616 0 1.136.106 1.562.319.426.213.744.504.957.875.213.371.319.794.319 1.271 0 .565-.156 1.045-.468 1.441-.312.396-.765.667-1.358.814l1.848 3.058h-2.079v-.001zm-2.111-4.224h1.166c.374 0 .648-.083.824-.248.177-.165.265-.409.265-.731 0-.308-.09-.55-.27-.726-.18-.176-.453-.264-.819-.264h-1.166v1.969zM748.625 102.594c.598.341 1.068.814 1.413 1.419.345.605.517 1.289.517 2.051 0 .762-.174 1.448-.521 2.057-.349.609-.822 1.083-1.42 1.424-.598.341-1.259.512-1.985.512-.726 0-1.388-.17-1.985-.512-.598-.341-1.07-.815-1.419-1.424s-.522-1.294-.522-2.057c0-.763.174-1.446.522-2.051.348-.605.821-1.078 1.419-1.419.598-.341 1.26-.511 1.985-.511.732 0 1.398.17 1.996.511zm-3.465 1.837c-.363.399-.545.944-.545 1.633 0 .682.182 1.225.545 1.628.362.403.852.605 1.468.605.608 0 1.097-.202 1.464-.605.366-.403.549-.946.549-1.628 0-.682-.181-1.225-.544-1.628-.363-.403-.853-.605-1.469-.605-.616 0-1.106.2-1.468.6zM753.284 102.204l1.902 5.852 1.903-5.852h2.013l-2.705 7.777h-2.432l-2.695-7.777h2.014zM761.932 102.204v7.777h-1.881v-7.777h1.881zM769.955 108.105c-.326.59-.796 1.05-1.408 1.38-.612.33-1.332.495-2.161.495h-2.937v-7.777h2.937c.836 0 1.559.161 2.167.484.608.323 1.076.777 1.402 1.364.326.587.49 1.262.49 2.024s-.164 1.44-.49 2.03zm-2.023-.391c.406-.389.61-.935.61-1.639s-.204-1.25-.61-1.639c-.407-.389-.978-.583-1.711-.583h-.891v4.444h.891c.733 0 1.303-.194 1.711-.583zM773.613 103.7v1.628h2.629v1.419h-2.629v1.727h2.959v1.507h-4.841v-7.777h4.841v1.496h-2.959zM781.853 109.98l-1.684-2.937h-.429v2.937h-1.881v-7.777h3.212c.616 0 1.137.106 1.562.319.425.213.744.504.957.875.212.371.318.794.318 1.271 0 .565-.155 1.045-.467 1.441-.312.396-.765.667-1.359.814l1.849 3.058h-2.078v-.001zm-2.113-4.224h1.166c.374 0 .649-.083.825-.248.176-.165.264-.409.264-.731 0-.308-.09-.55-.27-.726-.18-.176-.453-.264-.819-.264h-1.166v1.969zM790.349 108.924c-.209.345-.518.62-.925.825-.407.206-.9.308-1.479.308-.873 0-1.591-.213-2.155-.638-.564-.425-.873-1.019-.924-1.782h2.002c.029.293.134.524.313.693.18.168.409.253.688.253.242 0 .433-.066.572-.198.14-.132.209-.308.209-.528 0-.198-.064-.363-.192-.495-.129-.132-.288-.24-.479-.324-.191-.084-.455-.185-.792-.303-.491-.168-.894-.332-1.205-.489-.311-.157-.579-.393-.803-.704-.224-.311-.335-.717-.335-1.215 0-.462.116-.862.351-1.199.235-.337.56-.596.975-.775.414-.18.889-.27 1.425-.27.865 0 1.553.206 2.062.616.509.411.797.976.863 1.694h-2.036c-.037-.257-.13-.46-.279-.611-.15-.15-.354-.225-.61-.225-.221 0-.398.059-.534.176-.136.118-.203.29-.203.517 0 .183.061.339.182.467.12.128.272.233.456.313.184.081.447.184.792.308.499.169.905.335 1.222.5.314.165.586.405.813.721.227.316.341.726.341 1.232-.002.411-.106.789-.315 1.133z"/>
    <path fill="#EEF0F8" d="M398.863 315.338h-100v30.666h100v-30.666z"/>
    <path stroke="#658AF2" stroke-miterlimit="10" d="M400.863 313.336h-100v30.668h100v-30.668zM322.863 344.004l-10.277 44.832"/>
    <path fill="#546BF7" d="M322.007 320.564c.649.521 1.069 1.225 1.26 2.112h-1.991c-.146-.359-.372-.642-.676-.847-.304-.205-.666-.309-1.083-.309-.55 0-.994.202-1.331.605-.337.403-.506.941-.506 1.617 0 .674.168 1.211.506 1.611.337.399.781.6 1.331.6.418 0 .779-.104 1.083-.309.304-.205.53-.484.676-.836h1.991c-.19.881-.61 1.582-1.26 2.106-.648.524-1.468.786-2.458.786-.756 0-1.419-.166-1.991-.5-.572-.334-1.014-.801-1.325-1.402-.312-.602-.468-1.287-.468-2.057 0-.771.156-1.456.468-2.058.312-.601.753-1.068 1.325-1.402.572-.333 1.235-.501 1.991-.501.99.003 1.809.264 2.458.784zM330.236 320.251c.598.341 1.067.814 1.412 1.419.345.605.517 1.289.517 2.052 0 .763-.174 1.448-.522 2.058-.348.608-.821 1.083-1.419 1.424-.598.342-1.259.512-1.986.512-.726 0-1.387-.17-1.984-.512-.598-.341-1.07-.815-1.419-1.424s-.523-1.295-.523-2.058c0-.763.175-1.446.523-2.052.349-.604.821-1.078 1.419-1.419.598-.341 1.259-.511 1.984-.511.734 0 1.4.17 1.998.511zm-3.465 1.837c-.363.4-.544.945-.544 1.634 0 .683.182 1.225.544 1.628.362.403.852.605 1.467.605.609 0 1.098-.202 1.464-.605.366-.403.549-.945.549-1.628 0-.683-.181-1.225-.544-1.628-.363-.403-.853-.605-1.469-.605-.616-.001-1.104.199-1.467.599zM342.186 319.916v7.722h-1.881v-4.829l-1.672 4.829h-1.628l-1.683-4.84v4.84h-1.881v-7.722h2.299l2.102 5.379 2.057-5.379h2.287zM352.448 319.916v7.722h-1.881v-4.829l-1.672 4.829h-1.628l-1.683-4.84v4.84h-1.881v-7.722h2.299l2.101 5.379 2.057-5.379h2.288zM355.792 319.861v4.487c0 .514.116.905.346 1.177.231.271.566.407 1.007.407.44 0 .775-.136 1.006-.407.231-.271.346-.663.346-1.177v-4.487h1.881v4.487c0 .733-.143 1.352-.429 1.854-.286.503-.676.88-1.171 1.133s-1.054.38-1.677.38c-.624 0-1.174-.125-1.65-.374s-.851-.627-1.122-1.134c-.271-.506-.407-1.125-.407-1.858v-4.487h1.87v-.001zM368.763 327.638h-1.881l-3.146-4.774v4.774h-1.882v-7.776h1.882l3.146 4.817v-4.817h1.881v7.776zM372.161 319.861v7.776h-1.881v-7.776h1.881zM379.266 319.861v1.496h-2.112v6.28h-1.892v-6.28h-2.09v-1.496h6.094zM387 319.861l-2.695 5.191v2.585h-1.892v-2.585l-2.695-5.191h2.156l1.496 3.168 1.496-3.168H387zM334.777 331.508c.63.477 1.022 1.121 1.177 1.936h-1.991c-.132-.278-.333-.5-.604-.666-.271-.164-.598-.247-.979-.247-.594 0-1.07.2-1.43.6-.36.4-.539.94-.539 1.622 0 .741.188 1.31.566 1.705.378.396.915.594 1.611.594.447 0 .84-.122 1.177-.367.337-.246.576-.596.715-1.051h-2.376v-1.354h3.949v1.859c-.147.455-.381.876-.704 1.265-.323.39-.735.704-1.238.946-.502.242-1.076.363-1.721.363-.785 0-1.47-.167-2.057-.501-.587-.333-1.039-.802-1.358-1.402-.319-.6-.479-1.287-.479-2.058 0-.77.159-1.455.479-2.057.32-.602.77-1.068 1.353-1.402.583-.334 1.263-.5 2.041-.5.974 0 1.777.238 2.408.715zM341.322 338.646l-1.684-2.938h-.429v2.938h-1.881v-7.777h3.212c.616 0 1.137.107 1.562.319.425.213.744.505.957.874.213.371.319.795.319 1.271 0 .564-.156 1.045-.468 1.44-.312.396-.764.667-1.358.813l1.848 3.059h-2.078v.001zm-2.112-4.224h1.166c.374 0 .649-.082.825-.247.176-.165.264-.409.264-.731 0-.309-.09-.55-.27-.727-.18-.176-.453-.264-.819-.264h-1.166v1.969zM350.237 331.26c.598.342 1.069.814 1.414 1.42.345.604.517 1.288.517 2.051 0 .763-.174 1.448-.522 2.057-.349.609-.821 1.084-1.419 1.425-.598.341-1.26.512-1.985.512-.727 0-1.388-.171-1.985-.512-.598-.341-1.071-.815-1.419-1.425-.348-.608-.522-1.294-.522-2.057 0-.763.174-1.446.522-2.051.348-.605.821-1.078 1.419-1.42.597-.341 1.259-.512 1.985-.512.732 0 1.398.171 1.995.512zm-3.465 1.838c-.363.398-.544.943-.544 1.633 0 .682.181 1.225.544 1.628.363.403.853.604 1.469.604.608 0 1.096-.201 1.463-.604.366-.403.55-.946.55-1.628 0-.682-.182-1.225-.544-1.628-.362-.403-.853-.604-1.468-.604-.617-.001-1.106.198-1.47.599zM355.272 330.869v4.488c0 .514.116.906.347 1.178.231.271.566.406 1.006.406.44 0 .776-.136 1.006-.406.231-.271.347-.664.347-1.178v-4.488h1.881v4.488c0 .733-.143 1.352-.429 1.854-.286.502-.677.88-1.172 1.133-.495.254-1.054.38-1.677.38s-1.173-.125-1.65-.374c-.477-.25-.851-.627-1.122-1.133-.271-.506-.407-1.126-.407-1.859v-4.488h1.87v-.001zM363.213 335.918v2.729h-1.881v-7.777h3.047c.924 0 1.628.229 2.112.688.484.459.726 1.076.726 1.854 0 .484-.108.915-.325 1.293-.216.377-.538.675-.962.891-.426.217-.942.324-1.551.324h-1.166v-.002zm2.09-2.508c0-.682-.378-1.022-1.133-1.022h-.957v2.024h.957c.755 0 1.133-.334 1.133-1.002zM373.634 337.59c-.209.346-.517.621-.924.826-.407.205-.9.308-1.479.308-.873 0-1.591-.213-2.156-.638-.564-.426-.873-1.02-.924-1.782h2.002c.029.293.134.524.313.692.18.169.409.254.688.254.242 0 .433-.066.572-.199.139-.131.209-.307.209-.527 0-.197-.064-.363-.192-.495-.129-.132-.288-.239-.479-.324-.191-.085-.455-.185-.792-.303-.492-.169-.893-.331-1.205-.489-.312-.158-.579-.393-.803-.704-.224-.311-.335-.717-.335-1.216 0-.462.117-.861.352-1.199.234-.337.559-.596.974-.775.414-.18.889-.27 1.424-.27.865 0 1.553.206 2.062.616.509.411.797.976.864 1.694h-2.035c-.037-.257-.13-.461-.28-.611-.15-.149-.354-.225-.611-.225-.22 0-.398.059-.534.176-.136.117-.203.29-.203.518 0 .183.061.339.182.467.121.129.272.232.456.313.184.081.447.184.792.308.499.17.906.336 1.221.501.315.165.586.405.814.721.228.316.341.726.341 1.231-.001.41-.105.788-.314 1.132z"/>
    <path stroke="#546BF7" stroke-miterlimit="10" d="M296.359 284.992v21.5M302.859 284.992v21.5M309.359 284.992v21.5M315.859 284.992v21.5M322.359 284.992v21.5M290.276 284.992v21.5M277.941 284.992v21.5M271.777 284.992v21.5M265.608 284.992v21.5M259.441 306.492v-21.5h68.92M856.111 368.832v21.5M849.611 368.832v21.5M843.111 368.832v21.5M836.611 368.832v21.5M830.111 368.832v21.5M893.028 368.832H824.11M862.196 368.832v21.5M868.361 368.832v21.5M874.528 368.832v21.5M880.695 368.832v21.5M886.86 368.832v21.5M893.028 368.832v21.5"/>
    <path fill="#92A9F8" d="M551.193 213.691h-97.666v92.666h97.666v-92.666z"/>
    <path stroke="#DAE0FF" stroke-miterlimit="10" d="M453.547 291.586h69.815"/>
    <path fill="#546BF7" d="M561.194 241.689H453.527v-30h97.667l10 30z"/>
    <path fill="#DAE0FF" d="M508.528 254.107h-23.334v52.25h23.334v-52.25z"/>
    <path stroke="#DAE0FF" stroke-miterlimit="10" d="M454.155 219.201h100.373M454.027 226.67h102.629M454.027 234.14h105.004"/>
    <path fill="#DAE0FF" d="M539.695 254.273h-24.75v32.998h24.75v-32.998zM479.194 254.273h-24.75v32.998h24.75v-32.998z"/>
    <path stroke="#869EF3" stroke-miterlimit="10" d="M466.82 254.189v33.334"/>
    <path stroke="#90A5F4" stroke-miterlimit="10" d="M454.449 265.246h25.417M454.449 276.302h25.417M527.405 254.189v30.5M514.03 265.246h26.418M514.03 276.302h20.333"/>
    <path fill="#546BF7" d="M478.024 306.357h-24.497v-94.562h4.997l19.5 94.562z" opacity=".7"/>
    <path fill="#FFEFEA" stroke="#FFAC84" stroke-linecap="round" stroke-linejoin="round" stroke-miterlimit="10" d="M636.626 155.822c0-3.295-2.671-5.965-5.966-5.965-2.97 0-5.426 2.172-5.882 5.014-.457-2.842-2.912-5.014-5.883-5.014-2.97 0-5.426 2.172-5.882 5.014-.456-2.842-2.912-5.014-5.884-5.014-3.293 0-5.926 2.771-5.926 6.066-.089-.721-.097-1.354-.097-2.098 0-9.793 7.938-17.73 17.729-17.73s17.73 7.938 17.73 17.73c0 .699-.041 1.389-.12 2.066l.181-.069z"/>
    <path stroke="#FFAC84" stroke-linejoin="round" stroke-miterlimit="10" d="M618.51 136.168s-5.459 4.094-5.459 18.016M619.329 136.168s5.459 4.094 5.459 18.016M601.04 155.684l17.489 22.486M618.529 178.17l17.996-22.486M618.53 178.17l-5.615-23.441M618.529 178.17l6.326-23.441M618.603 177.502v5.75"/>
    <path fill="#FFAC84" d="M623.762 177.662c-2.26 0-4.208 1.309-5.146 3.205-.938-1.896-2.886-3.205-5.146-3.205-3.174 0-5.743 2.574-5.743 5.744 0 7.641 10.889 14.602 10.889 14.602s10.888-6.961 10.888-14.602c0-3.17-2.57-5.744-5.742-5.744z"/>
    <path fill="#DAE0FF" d="M524.027 392.752l1.417-1s11.666-3.584 18.833-.75c7.167 2.834 2.667 4.168 2.667 4.168l-22.917-2.418zM521.267 393.734s-6.252 3.547-3.751 12.131l4.967.811-1.216-12.942zM614.136 392.475l11.975-.285s-4.689-3.738-7.603-3.516"/>
    <path fill="#DAE0FF" d="M638.527 374.336h-23.5v16.5h23.5v-16.5z"/>
    <path fill="#F9E2D6" stroke="#FFAC84" stroke-linejoin="round" stroke-miterlimit="10" d="M471.881 321.055c0-4.221-3.307-7.643-7.527-7.643-3.804 0-6.95 2.783-7.535 6.424-.585-3.641-3.73-6.424-7.535-6.424s-6.953 2.783-7.537 6.424c-.583-3.641-3.729-6.424-7.535-6.424-4.22 0-7.592 3.553-7.592 7.771-.114-.922-.124-1.732-.124-2.688 0-12.543 10.167-22.711 22.711-22.711 12.545 0 22.714 10.168 22.714 22.711 0 .896.062 1.779-.04 2.648v-.088 0z"/>
    <path stroke="#FFAC84" stroke-miterlimit="10" d="M448.788 295.877s-6.992 5.244-6.992 23.078M449.839 295.877s6.992 5.244 6.992 23.078"/>
    <path stroke="#FFAC84" stroke-linecap="round" stroke-miterlimit="10" d="M426.585 321.107l22.23 28.575M448.812 349.682l23.067-28.627M448.815 349.682l-7.136-30.262M448.812 349.682l8.02-30.043"/>
    <path fill="#FFAC84" d="M462.191 349.252h-26.5v26.5h26.5v-26.5z"/>
    <path fill="#ECEEF7" d="M458.277 360.248h-7.082v-7.08h-4.506v7.08h-7.08v4.506h7.08v7.08h4.506v-7.08h7.082v-4.506z"/>
    <path stroke="#FFAC84" stroke-linejoin="round" stroke-miterlimit="10" d="M118.551 55.941v6.343"/>
    <path fill="#FFAC84" d="M125.141 56.145c-2.887 0-5.376 1.67-6.574 4.093-1.199-2.423-3.687-4.093-6.574-4.093-4.054 0-7.337 3.286-7.337 7.337 0 9.764 13.911 18.654 13.911 18.654s13.913-8.89 13.913-18.653c-.001-4.051-3.286-7.338-7.339-7.338z"/>
    <path stroke="#FFAC84" stroke-linejoin="round" stroke-miterlimit="10" d="M141.497 28.306c0-4.22-3.307-7.643-7.527-7.643-3.804 0-6.95 2.783-7.535 6.424-.585-3.64-3.731-6.424-7.535-6.424-3.805 0-6.952 2.783-7.536 6.424-.584-3.64-3.729-6.424-7.535-6.424-4.22 0-7.592 3.553-7.592 7.771-.115-.922-.124-1.732-.124-2.688 0-12.543 10.167-22.71 22.711-22.71 12.545 0 22.714 10.167 22.714 22.71 0 .896.062 1.78-.04 2.648v-.088h-.001z"/>
    <path stroke="#FFAC84" stroke-miterlimit="10" d="M118.403 3.128s-6.993 5.244-6.993 23.078M119.453 3.128s6.993 5.244 6.993 23.078"/>
    <path stroke="#FFAC84" stroke-linecap="round" stroke-miterlimit="10" d="M96.2 28.36l22.23 28.573M118.43 56.934l23.066-28.627M118.431 56.933l-7.138-30.262M118.43 56.934l8.019-30.043"/>
    <path stroke="#FBC0A0" stroke-linecap="round" stroke-linejoin="round" stroke-miterlimit="10" stroke-width="1.309" d="M1136.91 99.38c-3.73-2.27-7.21-4-11.78-3.924-4.11.066-6.6 2.641-9.76 4.811-3.7-7.064-15.54-11.586-22.96-8.74"/>
    <path fill="#546BF7" d="M1110.96 87.542h-71.59v9.238h71.59v-9.238zM1195.64 87.542h-71.59v9.238h71.59v-9.238z"/>
    <path fill="#90A5F4" d="M1223.55 96.008H855.196v210.159h368.354V96.007z"/>
    <path stroke="#546BF7" stroke-miterlimit="10" d="M1177.5 96.008v209.389M1131.46 96.008v209.389M1085.42 96.008v206.387M1039.37 96.008v209.389M993.328 96.008v209.389M947.285 96.008v209.389M901.239 96.008v209.389M855.196 271.14h367.774M855.196 236.114h367.774M855.196 201.089h367.774M855.196 166.062h367.774M855.196 131.036h367.774"/>
    <path fill="#546BF7" d="M1063.04 271.331h-47.34v34.643h47.34v-34.643z"/>
    <path stroke="#869EF3" stroke-miterlimit="10" d="M1039.18 270.757v35.41"/>
    <path fill="#546BF7" d="M927.689 96.008l48.776 210.159H855.196l-.231-210.16h72.724z" opacity=".7"/>
    <path fill="#EEF0F8" d="M1101.72 151.14H971.871v30.668h129.849V151.14z"/>
    <path stroke="#658AF2" stroke-miterlimit="10" d="M1103.72 149.14H973.875v30.666h129.845V149.14z"/>
    <path fill="#546BF7" d="M988.417 160.884c.826.663 1.361 1.559 1.604 2.688h-2.534c-.187-.457-.474-.816-.86-1.077-.389-.262-.848-.393-1.379-.393-.701 0-1.266.257-1.695.771-.429.513-.644 1.199-.644 2.058 0 .859.215 1.542.644 2.051.43.509.994.764 1.695.764.531 0 .99-.131 1.379-.393.387-.261.674-.616.86-1.063h2.534c-.242 1.12-.777 2.014-1.604 2.681-.827.667-1.869 1.001-3.129 1.001-.961 0-1.806-.212-2.533-.637-.729-.425-1.291-1.02-1.688-1.785-.397-.765-.595-1.638-.595-2.618 0-.979.198-1.853.595-2.618.396-.765.959-1.36 1.688-1.785.728-.424 1.572-.637 2.533-.637 1.26-.002 2.303.329 3.129.992zM998.89 160.484c.76.435 1.36 1.036 1.8 1.807.44.77.66 1.64.66 2.61s-.23 1.844-.67 2.618c-.44.775-1.044 1.379-1.804 1.813-.762.434-1.604.65-2.527.65s-1.767-.217-2.527-.65c-.761-.435-1.363-1.038-1.807-1.813-.443-.774-.664-1.647-.664-2.618 0-.971.221-1.841.664-2.61.443-.771 1.046-1.372 1.807-1.807.761-.434 1.604-.65 2.527-.65.933 0 1.779.217 2.541.65zm-4.411 2.338c-.462.51-.693 1.202-.693 2.079 0 .868.231 1.56.693 2.072.462.514 1.085.771 1.869.771.774 0 1.395-.257 1.861-.771.467-.513.7-1.204.7-2.072 0-.867-.231-1.559-.692-2.071-.463-.514-1.086-.771-1.869-.771-.784.001-1.407.255-1.869.763zM1008.05 169.886l-2.14-3.738h-.55v3.738h-2.39v-9.898h4.09c.78 0 1.44.136 1.99.406.54.271.94.642 1.21 1.113.27.472.41 1.011.41 1.617 0 .719-.2 1.33-.6 1.834-.39.504-.97.85-1.73 1.036l2.36 3.892h-2.65zm-2.69-5.376h1.49c.47 0 .82-.105 1.05-.315.22-.21.33-.52.33-.931 0-.392-.11-.7-.34-.924-.23-.224-.58-.336-1.04-.336h-1.49v2.506zM1014.55 166.414v3.472h-2.39v-9.898h3.87c1.18 0 2.08.292 2.69.875.62.584.93 1.37.93 2.359 0 .616-.14 1.164-.42 1.646-.27.48-.68.858-1.22 1.134-.54.275-1.2.413-1.98.413h-1.48v-.001zm2.66-3.192c0-.868-.48-1.302-1.44-1.302h-1.22v2.576h1.22c.96 0 1.44-.425 1.44-1.274zM1028.35 160.484c.76.435 1.36 1.036 1.8 1.807.43.77.65 1.64.65 2.61s-.22 1.844-.66 2.618c-.44.775-1.05 1.379-1.81 1.813-.76.434-1.6.65-2.52.65-.93 0-1.77-.217-2.53-.65-.76-.435-1.36-1.038-1.81-1.813-.44-.774-.66-1.647-.66-2.618 0-.971.22-1.841.66-2.61.45-.771 1.05-1.372 1.81-1.807.76-.434 1.6-.65 2.53-.65.93 0 1.78.217 2.54.65zm-4.41 2.338c-.46.51-.7 1.202-.7 2.079 0 .868.24 1.56.7 2.072.46.514 1.08.771 1.87.771.77 0 1.39-.257 1.86-.771.46-.513.7-1.204.7-2.072 0-.867-.23-1.559-.7-2.071-.46-.514-1.08-.771-1.86-.771-.79.001-1.41.255-1.87.763zM1037.51 169.886l-2.14-3.738h-.55v3.738h-2.39v-9.898h4.08c.79 0 1.45.136 1.99.406.54.271.95.642 1.22 1.113.27.472.4 1.011.4 1.617 0 .719-.19 1.33-.59 1.834-.4.504-.97.85-1.73 1.036l2.35 3.892h-2.64zm-2.69-5.376h1.48c.48 0 .83-.105 1.05-.315.23-.21.34-.52.34-.931 0-.392-.12-.7-.34-.924-.23-.224-.58-.336-1.05-.336h-1.48v2.506zM1047.74 168.08h-3.71l-.62 1.806h-2.52l3.63-9.828h2.76l3.62 9.828h-2.54l-.62-1.806zm-.62-1.82l-1.23-3.64-1.24 3.64h2.47zM1059.22 159.987v1.904h-2.68v7.994h-2.41v-7.994h-2.66v-1.904h7.75zM1062.9 159.987v9.898h-2.39v-9.898h2.39zM1072.08 160.484c.76.435 1.36 1.036 1.8 1.807.44.77.66 1.64.66 2.61s-.22 1.844-.67 2.618c-.44.775-1.04 1.379-1.8 1.813-.76.434-1.61.65-2.53.65-.92 0-1.77-.217-2.53-.65-.76-.435-1.36-1.038-1.8-1.813-.45-.774-.67-1.647-.67-2.618 0-.971.22-1.841.67-2.61.44-.771 1.04-1.372 1.8-1.807.76-.434 1.61-.65 2.53-.65.93 0 1.78.217 2.54.65zm-4.41 2.338c-.46.51-.69 1.202-.69 2.079 0 .868.23 1.56.69 2.072.46.514 1.09.771 1.87.771.77 0 1.4-.257 1.86-.771.47-.513.7-1.204.7-2.072 0-.867-.23-1.559-.69-2.071-.46-.514-1.09-.771-1.87-.771-.78.001-1.41.255-1.87.763zM1084.95 169.886h-2.39l-4.01-6.076v6.076h-2.39v-9.898h2.39l4.01 6.133v-6.133h2.39v9.898zM1093.6 168.542c-.27.438-.66.788-1.18 1.05-.52.262-1.14.392-1.88.392-1.11 0-2.03-.271-2.75-.812-.71-.541-1.1-1.297-1.17-2.269h2.55c.03.374.17.668.4.883.22.215.52.321.87.321.31 0 .55-.084.73-.252.18-.168.27-.392.27-.672 0-.252-.09-.462-.25-.63-.16-.168-.36-.306-.61-.413-.24-.107-.58-.235-1.01-.385-.62-.215-1.13-.422-1.53-.623-.4-.2-.74-.499-1.02-.896-.28-.396-.43-.912-.43-1.547 0-.588.15-1.097.45-1.525.3-.43.71-.759 1.24-.987.53-.229 1.13-.343 1.81-.343 1.1 0 1.98.261 2.63.784.64.522 1.01 1.241 1.1 2.155h-2.59c-.05-.326-.17-.585-.36-.776-.19-.191-.45-.287-.78-.287-.28 0-.5.074-.68.224-.17.149-.25.369-.25.658 0 .233.07.432.23.595.15.164.34.297.57.399.24.103.57.233 1.01.392.64.215 1.16.427 1.56.637.4.211.74.517 1.03.918.29.401.44.924.44 1.567 0 .522-.14 1.004-.4 1.442z"/>
    <path stroke="#869EF3" stroke-miterlimit="10" d="M268.921 354.504h2M273.585 358.504h2M287.585 355.504h2M13.921 449.504h2M256.921 321.836h2M360.254 390.17h2M1043.92 333.17h2M1240.17 369.17h2M1172.92 335.17h2M1243.42 323.086h2M1255.25 369.086h2M834.421 328.67h2M1048.67 337.086h2M948.671 354.92h2M905.671 372.92h2M1005.17 314.92h2M168.585 402.504h2M374.585 382.17h2M448.921 400.17h2M98.921 389.836h2M251.254 456.504h2M236.921 459.17h2M27.254 431.836h2M149.921 317.502h2M233.921 368.17h2M468.254 402.504h2M11.921 324.836h2M161.254 327.17h2M33.796 331.002h2"/>
    <path fill="url(#paint0_linear)" d="M275.319 441.523l64.2-3.365 7.365 3.682-66.377.808-5.188-1.125z"/>
    <path fill="#BDCAFA" d="M276.046 436.504c-.017 1.121-.246 2.379-.411 3.504-.094.637-1.029 2.656.264 1.936 1.512-.842 2.237-4.594 2.231-6.105M291.632 437.088c.958 3.791 3.347 5.648 3.983 5 .346-.35-.888-2.139-1.064-2.588-.426-1.086-.595-2.262-.836-3.412"/>
    <path fill="#546BF7" d="M280.194 375.898c-.922 2.096-1.529 4.457-1.128 6.193.29 1.258 1.14 2.316 1.5 3.498.409 1.342 1.03 2.201 2.229 3.062 1.323.951 3.18 1.506 4.375 2.594.807.734 1.404 2.016 2.021 2.904.958 1.381 5.306 6.582 6.845 3.82 1.176 2.113 5.477 5.154 7.783 3.393 2.724-2.078-.481-6-2.405-7.305-1.843-1.252-2.679-1.619-3.564-3.625-.811-1.838-1.503-3.703-2.656-5.371-1.746-2.527-5.199-3.373-6.719-5.973-1.005-1.719-1.58-4.594-3.559-5.477-1.376-.611-2.694-.555-3.535.598-.323.447-.722.635-1.187 1.689z"/>
    <path fill="url(#paint1_linear)" d="M325.087 443.711l64.513-3.303 7.365 3.682-68.378.871-3.5-1.25z"/>
    <path fill="#B8C5F5" d="M322.712 401.504c-1.026 1.559-4.082 4.295-4.855 2.48-.686-1.605.73-5.146.855-6.73.039-.496.433-2.809-.541-2.791-.458.008-.795 2.188-1 2.541-1.716 2.967-4.793 10.527-.084 12.094 2.124.705 3.872-.881 5.635-1.783.035-1.885.434-3.549-.01-5.436"/>
    <path fill="#FFAC84" d="M328.354 430.566c.22 1.273.403 11.896.215 13.078-.071.443-.298 1.713.486 1.17.592-.408.862-1.234 1.144-1.852.446-.979 2.055-5.016 1.611-13.51"/>
    <path fill="#FFAC84" d="M324.854 429.505c.219 1.273.403 11.896.215 13.078-.071.443-.3 1.713.484 1.17.593-.408.864-1.234 1.146-1.852.445-.979 2.055-5.016 1.611-13.51"/>
    <path fill="#DAE0FF" d="M334.393 403.344c-.931-3.133-2.521-6.895-7.265-10.178-.022-.004-.049-.014-.071-.018-.686-.1-1.091.227-1.638.656-1.068.842-1.842 2.496-2.322 3.74-.264.684-.566 1.357-.897 2.006-.134 4.635-1.813 12.162-1.944 13.916-.216 2.893-1.155 12.455-1.187 14.281-.036 2.121.122 2.066 1.901 2.367 2.688.453 5.276.334 7.941.049 2.04-.219 4.256.201 6.258-.248 2.29-.511.313-22.901-.776-26.571z"/>
    <path fill="#EEF0F8" d="M331.921 420.67c-.354-.654-1.626-1.123-2.334 1.043 0 0-2.208 8.916-1.75 10.291.459 1.375 2.459 1.25 2.959 2.291.5 1.043 2.791-1.416 2.75-2.875-.042-1.457-.792-9.207-1.625-10.75zm-.794 3.283c-.579.268-.945-.775-.988-1.242-.067-.727.268-1.592.678-1.914.488-.385.887.924.896 1.248.014.533-.008 1.641-.586 1.908z"/>
    <path fill="#B8C5F5" d="M331.631 400.461c-1.733-.934-2.891.293-3.105 2.271-.2 1.844.287 3.697.463 5.479.349 3.549 1.144 7.023.768 10.668-.154 1.506-.125 3.584 1 4.238.743.434.661-.648.792-1.529.095-.633.28-1.426.375-2.039.393-2.537 1.626-4.791 1.731-7.449.086-2.176.325-10.373-2.024-11.639z"/>
    <path fill="#FFAC84" d="M322.622 390.684c-1.387-.887-2.652-1.871-3.606-3.176-.157.236-.3.484-.41.764-.667 1.695-.508 3.35-.425 5.131.101 2.164.23 3.461 2.378 2.547 1.333-.578 1.714 1.088 1.641 3.602.331-.648.634-1.322.897-2.006.48-1.244 1.254-2.898 2.322-3.74.505-.396.898-.689 1.493-.656-.313-.082-.624-.18-.909-.301-1.262-.538-2.234-1.435-3.381-2.165z"/>
    <path fill="#B8C5F5" d="M327.13 393.166c-.014-.01-.026-.02-.042-.029 2.935.365 3.115-5.744-1.168-4.693-1.191-3.43-5.239-3.436-6.902-.936.954 1.305 2.219 2.289 3.606 3.176 1.147.73 2.12 1.627 3.381 2.164.286.121.596.219.909.301.049.004.091-.008.145 0 .022.003.048.013.071.017z"/>
    <path fill="#B8C5F5" d="M319.631 388.045c.425.938 1.118 1.906 1.709 2.75.528.752 1.068 1.363 1.836 1.865 1.224.803 2.92.982 4.196.25.132-.076.283-.18.384-.281"/>
    <path fill="#FFAC84" d="M286.59 397.463c4.083 4.584 4.81 11.812 5.271 14.316.66 3.576.605 7.389.96 11.027.273 2.805.853 5.629 1.329 8.383.214 1.234.387 2.541.736 3.727.118.402.449 1.164.328 1.588-.183.646-.753.607-1.421.672-1.195.117-5.929.225-6.899-.186-.341-1.746-.959-3.521-1.179-5.316-.263-2.145-.509-4.312-.853-6.477-.763-4.814-1.455-9.766-1.561-14.584-.359.934-2.339 16.924-2.819 20.391-.229 1.652-.438 3.432-1.022 5.004-.3.809-.449.664-1.447.664-1.025-.002-1.965.268-2.956.322-.115-2.896.304-16.221.655-19.955.601-6.361.662-13.561 4.336-18.867 1.501-2.168 4.917-2.918 6.542-.709z"/>
    <path fill="#BDCAFA" d="M282.88 389.424c1.124 1.238 2.095-1.365 2.5-2.254.21-.459.332-1.291.521-2.041-.242-.221-.471-.445-.615-.693-1.218-2.1.47-3.158.72-4.537.278-1.535 1.146-4.322.356-5.697-1.046-1.822-3.848-1.361-5.027.119-1.445 1.811.983 6.453.171 9.328-.046.162-.099.314-.157.457.229.219.251.592.49.939.308 1.457-.088 3.137 1.041 4.379z"/>
    <path fill="#546BF7" d="M284.192 373.586c-1.211 1.029-1.083 2.986-2.101 4.256-.994 1.242-1.562 2.285-2.021 3.514-.833-2.975.158-9.885 4.309-8.832 3.496.887 3.861 8.062 3.663 11.025-2.165-2.959-1.492-6.98-3.851-9.838"/>
    <path fill="#BDCAFA" d="M286.878 385.961c3.436 3.516 5.388 7.725 7.344 12.191 1.023 2.338 2.082 4.562 3.562 6.656.377.533 3.829 4.121 3.603 4.781.017.078.007.154-.027.227-1.566-.123-3.654-1.785-4.704-2.971-1.953-2.205-3.544-5.164-4.93-7.732-1.089-2.014-2.434-3.844-3.504-5.902-.909-1.748-2.952-4.473-1.844-6.5M281.023 384.918c-1.159 1.416-3.821 2.492-5.563 3.186-2.568 1.023-5.497 1.707-7.861 3.172-1.116.691-1.337.775-.441 1.766.76.84 1.879 1.572 2.876 2.107 2.235 1.195 10.653 2.986 10.722 2.312.25-2.438-7.297-3.91-8.625-4.75 1.921-.479 5.468-1.533 7.188-2.688 1.491-1.002 1.571-2.789 1.236-4.549"/>
    <path fill="#FFAC84" d="M279.316 393.57c.316.951 1.061 3.301 1.835 3.934.661.539 1.869.574 2.692.615 2.561.131 2.374-1.477 2.865-3.402.482-1.889.915-3.564.92-5.584.003-1.072-.033-2.084-.681-2.982-.255-.354-.673-.68-1.049-1.021-.188.75-.311 1.582-.521 2.041-.405.889-1.376 3.492-2.5 2.254-1.129-1.242-.732-2.922-1.042-4.379-.239-.348-.262-.721-.49-.939-.411 1.008-1.105 1.629-1.614 2.57-1.027 1.905-1.086 4.872-.415 6.893z"/>
    <path fill="url(#paint2_linear)" d="M242.569 445.023l64.699-2.119 7.364 3.682-66.875-.438-5.188-1.125z"/>
    <path fill="#546BF7" d="M249.13 390.837c.89 1.361 3.978 2.717 5.531 3.473 1.611.785 3.752 1.578 5.472.9 3.462-1.365 7.833-4.973 11.728-2.467.983.633-2.103.438-2.884.588-1.192.229-2.141.816-3.228 1.355-2.177 1.08-4.098 2.617-6.369 3.525-2.347.939-5.169.809-7.333-.375-1.883-1.029-4.449-1.777-5.688-3.621-.476-.707-.039-2.137.488-2.91.414-.605 1.988-1.253 2.283-.468zM241.839 443.23c.218.664.312 2.281 1.059 2.203.63-.066.581-3.266.482-5.227-.046-.93-.96-6.527-1.046-10.645-1.424.451-2.882.818-4.347.986.425 1.993 3.336 11.112 3.852 12.683zM252.448 426.601c.333.467.654.943.994 1.402 2.072 2.805 9.66 16.521 11.689 16.459 1.986-.059-2.767-4.742-8.15-18.617-.87.131-1.737.281-2.619.416-.641.099-1.278.217-1.914.34z"/>
    <path fill="#546BF7" d="M243.194 389.024l.688.438c.445.695.801 3.035 1.375 3.75.541.674 1.912 1.514 3 1 .768-.361.463-2.98.646-3.793-.146-.402-.286-.809-.397-1.223-.829-3.104.792-1.088 2.375-1.83.837-.395 1.119-2.461 1.218-3.209.363-2.74-.891-6.234-3.671-5.568-2.91.699-3.369 5.227-4.309 7.451-.511 1.209-1.392 2.182-2.249 3.189.39.18.838.165 1.324-.205z"/>
    <path fill="#FFAC84" d="M250.963 380.086c3.131 1.932 6.476-3.717 3.354-5.234-.64-.311-1.347-.158-1.921.258-.589.428-.695 1.334-1.267 1.727-.688.473-1.275-.252-2.083-.398-.831-.148-1.542.111-2.228.543-1.256.793-1.639 2.74-2.919 3.293-1.459.631-3.116-1.113-4.516.412-1.398 1.525-.953 3.814.598 4.963 1.452 1.078 3.066 1.168 4.746.773 2.725-.641 5.864-3.227 5.567-6.336"/>
    <path fill="#DAE0FF" d="M256.821 425.438c-1.579-4.113-3.363-7.881-5.363-11.82-1.42-2.795-2.577-5.572-2.738-8.73-.082-1.625-.271-3.367-.173-4.973.092-1.467 1.015-2.512 1.354-3.947.477-2.025-.351-3.746-1.001-5.549-.183.812-.162 2.291-.833 2.668-2 1.125-3.742-2.93-4.188-3.625l-.688-.438c-.487.369-.935.385-1.325.205-.771.906-1.525 1.84-1.971 3.006-.964 2.527-1.277 5.182-2.442 7.504-1.269 2.533-2.431 4.754-2.574 7.713-.284 5.916 1.581 11.557 2.194 17.301.208 1.941.505 3.881.914 5.795 1.465-.168 2.923-.535 4.347-.986l10.111-2.961c.636-.123 1.272-.24 1.914-.34.882-.135 1.749-.285 2.619-.416-.051-.138-.104-.269-.157-.407z"/>
    <path fill="#546BF7" d="M235.777 390.815c-1.757.607-3.514 1.182-5.144 1.9-1.928.852-4.333 1.381-2.101 3.719 2.024 2.119 4.945 2.895 7.087 4.625-1.09.078-4.018-.137-3.35 1.006.695 1.191 5.143 1.098 5.116-1.354-.021-1.902-3.074-4.311-4.649-5.193 2.464.732 6.077-.898 8.24-2.088 1.5-.824 4.684-4.75 1.902-4.969-1.863-.146-5.656 1.856-7.101 2.354z"/>
    <path fill="url(#paint3_linear)" d="M220.253 451.17l60.798-1.432 7.365 3.682-62.405.916-5.758-3.166z"/>
    <path fill="#BDCAFA" d="M220.024 397.46c1.304.988 3.204 1.66 4.53 2.627.228.166.473.312.716.461-.907-1.854-1.86-3.279-2.635-4.275-.441-.566-.594-.998-.564-1.334l-6.267-1.705c-.002.365-.011.715-.043 1.018.513.446 3.352 2.518 4.263 3.208z"/>
    <path fill="#FFC5A5" d="M224.137 450.336c.232-2.211 3.226-22.859 4.041-31.672l-13.277-7.172c.007 1.066-.021 2.074-.146 2.553-.262 1.012-.726 1.971-1 3-.832 3.123.607 6.584 1.65 9.506.33.926.608 2.086.851 3.398v22.014h3.353c1.521 2.318 6.023 2.988 6.404 2.373.45-.729-2.126-1.625-1.876-4z"/>
    <path fill="#DAE0FF" d="M228.38 415.697c.127-6.674-1.408-11.676-3.108-15.148-.243-.148-8.996-5.85-9.509-6.297l-.001.021c-.491 4.465-.912 9.307-.924 13.939-.002.613.056 1.988.062 3.279l13.277 7.172c.118-1.259.189-2.276.203-2.966z"/>
    <path fill="#BDCAFA" d="M216.765 396.307c-1.836.32-2.493 2.389-3.016 3.971-.595 1.803-2.059 8.408-2.206 9.873-.121 1.203 8.902 10.775 9.503 11.193.485-.383 1.664-1.26 1.792-1.924.18-.939-.501-1.812-.917-2.625-1.185-2.312-3.492-4.301-4.865-6.475.432-1.17 3.198-8.566 2.009-12.156-.175-.527-.811-2.119-2.3-1.857z"/>
    <path fill="#546BF7" d="M224.342 393.375c2.441-1.982 1.905-10.439-3.379-9.85-2.801.312-4.306 1.164-4.951 4.145-.393 1.807-.197 3.941-.206 5.564l6.267 1.705c.085-.994 1.767-1.156 2.269-1.564z"/>
    <path fill="#FFC5A5" d="M212.823 388.635c9.312-.031 14.226-2.504 16.234-3.023-1.314-.416-2.791.344-3.882-.586-1.168-.996-2.101-2.32-2.935-3.568-.815-.086-1.798.816-2.647.967-1.053.186-2.347-.883-3.255-.564-1.197.418-.786 4.225-.846 5.404-.888.245-1.89.831-2.669 1.37z"/>
    <path fill="url(#paint4_linear)" d="M349.917 453.252l64.685-3.511 8.231 4.595-60.333-.167-12.583-.917z"/>
    <path stroke="#658DF7" stroke-linecap="round" stroke-miterlimit="10" d="M343.546 419.528v34.376"/>
    <path fill="#DAE0FF" d="M359.071 401.394c-1.025 4.053-1.979 8.591-4.769 11.382-3.699 3.698-12.631 2.378-12.493 7.851.062 2.507 2.338-.081 4.487-.973 2.21-.916 6.392-1.366 8.694-2.14 2.476-.832 3.879-2.918 5.108-5.143 1.38-2.496 2.962-5.807 2.95-8.692"/>
    <path fill="#BDCAFA" d="M356.422 412.021c-1.608-4.007-3.038-9.447-.126-12.806 1.406-1.622 4.744-.876 6.562 0 8.762 4.225 10.428 13.828 10.524 21.548l-11.469 2.591c-3.641-5.069-4.784-9.57-5.491-11.333z"/>
    <path fill="#FFAC84" d="M355.924 405.153c-.516-1.184-1.754-2.355-3.25-2.541-1.327-.165-2.705.243-3.981.309-.401-1.706-1.367-8.952.129-10.272 1.239-1.094 4.299-1.029 5.73-.328 1.658.814 2.408 1.914 3.025 3.358.405.948.654 1.933.74 2.914-2.191 2.878-1.941 4.971-2.393 6.56z"/>
    <path fill="#B8C5F5" d="M352.169 391.567c-1.573-.047-3.807.109-5.114 1.06-1.329.966-.587 1.94.45 2.639-.553.15-2.57.625-3.036.725 2.765.799 13.297.543 13.121-.264 0 0-.955-4.026-5.421-4.16z"/>
    <path fill="#BDCAFA" d="M361.936 423.387l-.023-.032 11.469-2.591c.047 3.746-.274 7.052-.337 9.078-.127 4.143-.76 20.686-1.431 24.176-.07.014-9.344 0-9.344 0 2.991-1.57 3.298-9.468 2.509-17.1l-.004.011c-.187-3.286-.806-9.149-2.845-13.531.004-.003.005-.007.006-.011z"/>
    <path fill="#BDCAFA" d="M349.687 453.237c2.707-1.282 9.518-22.969 12.244-29.841 2.039 4.382 2.658 10.245 2.845 13.531-2.249 6.275-5.615 15.073-6.528 16.073l-8.561.237z"/>
    <path fill="#DAE0FF" d="M365.653 402c2.358 1.478 4.816 3.856 6.169 5.97 1.306 2.038-.504 3.287-1.922 5.12-1.364 1.766-2.332 3.394-3.192 5.403-.777 1.812-.129 4.175-1.142 5.854-2.066-.523-1.919-5.207-1.568-6.844.412-1.927 2.812-6.391 1.972-7.789-1.246-2.075-4.901-2.66-6.374-4.696-1.864-2.576.576-5.282 3.237-4.373.447.153 2.342 1.055 2.82 1.355z"/>
    <path fill="url(#paint5_linear)" d="M58.941 352.059l64.699-2.12 7.364 3.682-66.875-.437-5.188-1.125z"/>
    <path fill="#BDCAFA" d="M74.809 306.668c-.092 1.787.04 3.584-.417 5.33-.492 1.883-1.984 3.781-3.52 5.146-2.377 2.119-5.105 3.471-8.13 4.475-.87.289-2.966 1.416-3.811.951-1.254-.691.447-1.986 1.268-2.258 1.338-.443 2.49-.562 3.735-1.279 1.206-.695 2.456-1.607 3.41-2.617 2.023-2.141 2.389-4.457 3.12-7.039.288-1.01.799-2.326 1.88-2.852.582-.281 2.15-.586 2.465.143z"/>
    <path fill="#FFC5A5" d="M78.038 323.325c1.096 2.977 1.898 5.984 3.168 8.883.764 1.748 1.795 5.338 4.582 5.436 5.312.182 8.072-8.512 12.773-9.666 1.834-.449 3.377.652 5.155.934.237-1.258-2.502-2.449-3.663-2.727-1.724-.412-3.757.125-5.141.836-2.56 1.312-5.73 3.752-8.125 5.277-.486-3.705-.89-10.783-2.67-14.314-2.299-4.562-7.45-.68-6.17 4.195"/>
    <path fill="#546BF7" d="M73.567 292.459c-.382-.404.36-1.184.67-1.459.663-.594 1.635-.807 2.519-.791 1.293.021 2.27.453 3.585.137 1.178-.281 2.38-.693 3.572-.865 1.077-.154 2.2-.102 3.208.303.839.336 1.488.725 2.41.791 1.65.117 4.254-.232 5.56.973 1.763 1.625-1.075 2.816-2.513 3.145-1.505.342-3.207-.107-4.745-.107-1.224 0-2.656-.006-3.766.488-3.531 1.57-7.094-.209-10.195-1.9-.26-.141-.486-.205-.486-.531"/>
    <path fill="#FFC5A5" d="M75.879 316.822c.076 1.67-7.416 11.277-9.186 17.297-1.015 3.447-2.37 9.811-3.733 13.035-1.732 4.1-5.315 4.652-4.032 5.172 2.032.824 5.555-2.934 7.197-5.223 2.052-2.857 3.929-6.408 4.515-9.85.446-2.627 1.17-3.846 2.949-5.654 1.643-1.668 6.624-6.865 7.602-9.053.938-2.102.579-4.342.179-6.506-1.052 1.423-5.017.896-5.491.782z"/>
    <path fill="#546BF7" d="M76.784 301.726c-1.318-1.359-3.08-2.312-2.063-4.535 1.945-4.246-1.11-5.387-2.383-5.125-1.116.23-2.117.611-2.72 1.973-.882 2.002-.718 3.916.035 5.793.45 1.125 2.564-.053 2.335 1.803-.438 3.525-2.49 6.926-.668 7.838 1.509.756 3.848 4.787 4.36 6.32.123.373.181.711.195 1.031.475.113 1.216 1.701 5.49-.781-.058-.32-.118-.641-.175-.959-.733-4.087-1.453-10.31-4.406-13.358z"/>
    <path fill="#BDCAFA" d="M82.69 306.844c-2.163-.365-8.2.096-7.432-3.172.447-1.906 3.848-1.846 5.482-1.656 1.747.203 3.698 1.129 5.008 2.137 1.327 1.02 1.427 1.396 2.384 2.674.9 1.205 1.6 2.914 2.046 4.422.405 1.369.607 2.812 1.006 4.182.222.76 1.08 2.824-.302 3.203-1.404.387-1.628-1.178-1.716-2.035-.145-1.395-.62-2.586-1.192-3.818-.61-1.311-1.178-2.631-2.053-3.777-.291-.383-1.104-1.494-1.57-1.803-.363-.242-1.28-.172-1.66-.357zM117.13 304.688c1.77.257 3.57.297 5.268.914 1.827.668 3.577 2.332 4.793 3.986 1.886 2.568 2.976 5.41 3.691 8.516.206.893 1.13 3.086.588 3.883-.806 1.184-1.935-.631-2.128-1.473-.316-1.375-.325-2.533-.924-3.84-.578-1.266-1.368-2.596-2.285-3.641-1.941-2.215-4.212-2.797-6.715-3.768-.977-.381-2.24-1.012-2.661-2.139-.227-.605-.384-2.194.373-2.438z"/>
    <path fill="#546BF7" d="M112.72 304.973c.23-1.855-1.965-.777-2.417-1.902-.752-1.877-.902-4.43-.019-6.432.602-1.363 1.383-1.055 2.501-1.285 1.271-.262 2.771-1.646 3.747-.557.397.441-.251 1.336-.276 1.842-.032.625.822.992.94 1.594.182.928-.431.883-1.156 2.197-1.18 2.139.744 3.176 2.061 4.535 2.953 3.049 3.674 9.271 4.408 13.357.44 2.453 1.361 4.658.489 7.152-.789 2.264-6.333 9.973-7.83 11.771-1.622 1.951-2.241 3.227-2.466 5.883-.296 3.477-1.871 7.172-3.675 10.193-1.444 2.418-4.64 6.457-6.733 5.807-1.322-.41 2.201-1.262 3.585-5.49 1.088-3.328 1.284-6.883 2.007-10.404 1.26-6.145 4.829-11.664 6.883-17.457.747-2.113 2.029-3.559 1.255-5.871-.513-1.533-1.436-2.934-2.17-4.455-1.464-3.039-1.572-6.953-1.134-10.478z"/>
    <path fill="#BDCAFA" d="M110.208 311.695c.769-2.055 1.459-8.068 4.524-6.695 1.786.799 1.082 4.127.587 5.695-.529 1.678-1.809 3.418-3.046 4.514-1.254 1.109-2.292 1.449-3.885 1.367-1.502-.076-3.265-.635-4.707-1.256-1.312-.564-2.551-1.334-3.857-1.902-.727-.316-2.86-.975-2.269-2.281.602-1.326 1.946-.498 2.661-.018 1.165.783 2.385 1.178 3.698 1.527 1.396.371 2.774.779 4.216.84.479.02 1.024.172 1.415-.227.306-.312.408-1.224.663-1.564z"/>
    <path fill="#546BF7" d="M117.285 324.287c.944 3.412 1.922 6.695 3.159 10.086 1.29 3.533 1.863 7.609 5.473 9.416 3.185 1.594 6.005 1.854 9.614 1.668 1.894-.096 4.063-.145 5.838.404 1.628.502 3.288 4.383 3.46 2.752.317-3.02-2.915-4.963-5.476-6.219-3.459-1.695-7.094-1.568-10.755-2.738-3.521-1.127-3.27-6.783-3.69-10.131-.267-2.135-2.026-14.09-5.381-13.654-.346.045 1.066 5.193.767 5.393"/>
    <path fill="url(#paint6_linear)" d="M103.277 358.893l64.698-2.12 7.365 3.682-66.875-.437-5.188-1.125z"/>
    <path fill="url(#paint7_linear)" d="M1069.27 359.762l94.73-1.994 6.93 3.464-96.77-.412-4.89-1.058z"/>
    <path fill="#546BF7" d="M1096.42 303.941c-3.08 1.096-8.56-.543-10.48-3.344-1.12-1.631-2.87-4.018-3.75-6.273-.62-1.609-.63-3.486-1.48-3.232-2.77.828.85 10.117 3.93 13.369 1.49 1.57 11.91 6.689 12.4 1.855.07-.746-.06-2.053-.4-2.16"/>
    <path stroke="#546BF7" stroke-linecap="round" stroke-linejoin="round" stroke-miterlimit="10" d="M1078.57 317.641h4.55"/>
    <path fill="#546BF7" d="M1097.35 324.224c-.58.994-1.84 1.656-2.69 2.416-1.03.916-1.79 1.969-2.57 3.061-1.03 1.455-1.56 2.561-1.28 4.334.34 2.174.94 4.297 1.33 6.479.45 2.553.2 5.223.32 7.82.05.867-1.59 4.264-.7 4.73.93.484 2.64-2.998 2.83-4.102.5-2.811 1.41-3.211 1.15-8.641-.08-1.68-.25-3.309-.27-4.98-.01-.967-.06-1.24.74-1.873 1.69-1.346 9.46-8.371 9.46-10.51 0-1.377-2.43-1.592-3.64-1.619-.8-.018-2.19-.029-2.62.646"/>
    <path stroke="#546BF7" stroke-linecap="round" stroke-linejoin="round" stroke-miterlimit="10" d="M1071.55 360.25c7.23 0 13.09-5.861 13.09-13.091 0-7.23-5.86-13.091-13.09-13.091-7.23 0-13.09 5.861-13.09 13.091 0 7.23 5.86 13.091 13.09 13.091zM1097.19 353c2.34 0 4.23-1.893 4.23-4.229 0-2.336-1.89-4.229-4.23-4.229-2.33 0-4.23 1.893-4.23 4.229 0 2.336 1.9 4.229 4.23 4.229zM1116.52 360.249c7.23 0 13.09-5.86 13.09-13.09 0-7.229-5.86-13.09-13.09-13.09-7.23 0-13.09 5.861-13.09 13.09 0 7.23 5.86 13.09 13.09 13.09z"/>
    <path stroke="#546BF7" stroke-linecap="round" stroke-linejoin="round" stroke-miterlimit="10" d="M1071.35 347.639l7.05-29.875 3.17 3.582"/>
    <path stroke="#546BF7" stroke-linecap="round" stroke-linejoin="round" stroke-miterlimit="10" d="M1097.26 348.705l19.27-1.545-13.63-19.4h-25.96l20.32 20.945zM1097.26 348.704l6.31-23.094M1099.94 325.746h8.46"/>
    <path fill="#839EF4" d="M1107.89 317.688c-.83-1.859-8.15-15.836-11.49-14.748-2.85.932-3.71 6.26-2.72 8.045.86 1.535 7 8.074 7 8.584"/>
    <path fill="#9EB2F6" d="M1098.54 326.397c1.92-.275 3.83-.635 5.68-1.029 1.65-.354 2.94-.883 3.76-2.486.84-1.648.65-3.52-.09-5.193l-12.78 3.213"/>
    <path fill="#BDCAFA" d="M1095.11 320.901c-3.47.955-7.36 2.311-7.88 3.682-.51 1.363 7.21 9.508 9.29 12.641.81 1.229 1.89 4.434 1.74 5.842-.06.641-.84 3.926-.58 4.059.89.443 2.46-2.559 2.62-3.367.41-2.047.22-4.498-.42-6.488-1.27-3.949-3.58-6.785-5.44-10.434 1.36-.09 2.73-.242 4.1-.438M1100.68 319.569s-2.63.521-5.57 1.332zM1093.99 305.26c-1.78-4.984-2.28-8.861-.31-10.496 1.47-1.217 3.76-.08 4.71 1.373.76 1.158 1.69 4.73.43 5.492-.5.301-1.53.686-1.53.686s1.52 2.68 1.11 3.189c-.26.328-2.48-.168-2.87-.014-.35.141-1.4.254-1.54-.23z"/>
    <path fill="#839EF4" d="M1093.07 312.517c.34-.285.62-.547.83-.777 1.83-1.971 3.8-3.621 4.74-6.105 1.1-2.924-3.67-3.949-5.63.398-.53 1.186-1.55 2.5-2.77 3.803"/>
    <path fill="#BDCAFA" d="M1090.24 309.836c-3.23 3.441-7.9 6.799-8.96 7.457-.91.566-3.91 1.795-3.71 3.023.29 1.727 7.35-2.496 8.18-2.922 1.96-1.002 5.45-3.277 7.32-4.877"/>
    <path fill="#546BF7" d="M1101.62 294.376c.82-.9-.51-.617-1.1-.383-.69.26-1.37.621-2.07.826-1.17-.877-1.95-1.504-3.41-1.238-1.19.217-2.18 1.033-2.58 2.1-.2.52-.34 1.211-.29 1.795.11 1.127 9.05-2.659 9.45-3.1z"/>
    <path fill="url(#paint8_linear)" d="M1171.49 381.602l94.73-1.997 6.93 3.468-96.77-.413-4.89-1.058z"/>
    <path fill="#BDCAFA" d="M1202.35 342.028l4.23 5.506c.27-.055.53-.111.8-.168 1.65-.354 2.94-.883 3.76-2.486.84-1.648.65-3.52-.09-5.193"/>
    <path fill="#839EF4" d="M1211.05 339.686c-.83-1.859-8.15-15.836-11.49-14.746-2.84.93-3.86 5.861-2.87 7.646.85 1.535 5.65 8.934 5.66 9.441"/>
    <path fill="#546BF7" d="M1202.35 342.027s-11.01 2.018-11.96 4.553c-.51 1.363 7.21 9.508 9.29 12.643.81 1.229 1.89 4.432 1.75 5.84-.07.643-.85 3.926-.59 4.059.89.443 2.47-2.559 2.62-3.365.41-2.049.22-4.5-.42-6.488-1.27-3.951-3.58-6.787-5.44-10.434 3.01-.203 6.06-.699 8.98-1.301"/>
    <path stroke="#FFAC84" stroke-linecap="round" stroke-linejoin="round" stroke-miterlimit="10" d="M1181.36 339.262h4.55"/>
    <path fill="#546BF7" d="M1184.09 337.102c-.64.654-1.83 1.928-2.06 2.854-.17.68.4.809 1.06.484.83-.408 1.78-1.156 2.52-1.715 2.33-1.76 6.44-3.293 8.38-5.504.94-1.07 2.74-2.33 3.14-3.688.19-.639.26-2.93.15-3.609"/>
    <path fill="#546BF7" d="M1197.69 326.619c-1.51 2.283-3.83 4.146-5.77 6.102z"/>
    <path stroke="#FFAC84" stroke-linecap="round" stroke-linejoin="round" stroke-miterlimit="10" d="M1174.71 382.246c7.23 0 13.09-5.86 13.09-13.09 0-7.229-5.86-13.09-13.09-13.09-7.23 0-13.09 5.861-13.09 13.09 0 7.23 5.86 13.09 13.09 13.09zM1200.35 374.997c2.34 0 4.23-1.893 4.23-4.229 0-2.336-1.89-4.229-4.23-4.229-2.34 0-4.23 1.893-4.23 4.229 0 2.336 1.89 4.229 4.23 4.229zM1219.68 382.246c7.23 0 13.09-5.86 13.09-13.09 0-7.229-5.86-13.09-13.09-13.09-7.23 0-13.09 5.861-13.09 13.09 0 7.23 5.86 13.09 13.09 13.09z"/>
    <path stroke="#FFAC84" stroke-linecap="round" stroke-linejoin="round" stroke-miterlimit="10" d="M1174.51 369.635l7.05-29.873 3.17 3.58"/>
    <path stroke="#FFAC84" stroke-linecap="round" stroke-linejoin="round" stroke-miterlimit="10" d="M1200.42 370.701l19.27-1.545-13.63-19.4h-25.96l20.32 20.945zM1200.42 370.701l6.31-23.094M1203.1 347.742h8.46"/>
    <path fill="#BDCAFA" d="M1201.42 325.273c-2.73-3.855-2.04-7.148-4.08-8.162-1.83-.908-3.94.84-4.58 2.592-.5 1.396-.6 5.357.9 5.84.6.191 2.81.434 2.81.434s2.03 2.646 2.58 3.076c.35.279 2.93-2.987 2.37-3.78z"/>
    <path fill="#839EF4" d="M1195.75 334.912c.55-.438 1-.842 1.31-1.176 1.83-1.971 3.78-3.945 4.72-6.43 1.1-2.924-3.65-3.623-5.61.723-.59 1.312-1.77 2.785-3.17 4.223"/>
    <path fill="#BDCAFA" d="M1193 332.252c-3.2 3.291-7.55 6.404-8.56 7.037-.91.566-3.91 1.797-3.71 3.023.29 1.727 7.35-2.496 8.18-2.922 1.8-.922 4.89-2.92 6.84-4.479M1195.25 351.699c-1.04 1.455-1.56 2.559-1.28 4.332.34 2.176 4.29 11.844 4.42 14.441.04.867-1.6 4.264-.7 4.73.93.484 2.64-2.998 2.83-4.102.5-2.811-1.88-12.092-1.89-13.764-.01-.967-.06-1.24.73-1.873 1.69-1.346 9.14-8.336 9.14-10.477 0-1.377-2.27-3.453-3.49-3.479-.8-.018-2.88 1.893-3.31 2.568"/>
    <path fill="#FFC5A5" d="M1198.67 318.461c1.22.115 1.13 1.562 1.35 1.689.11.062.58-.215.75-.189 1.16.176 1.57 1.863.8 2.719 1.03.105 1.4 1.316.86 2.225-.39.656-1.24.799-1.92.684-1.49-.252-2.63-1.674-2.27-3.225-1.38-.055-3.49-1.369-3.47-3.016"/>
    <path fill="#546BF7" d="M1188.59 320.232c-1.22-.477.2-.838.88-.895.78-.074 1.61-.051 2.38-.184.71-1.402 1.16-2.373 2.69-2.811 1.25-.359 2.58-.041 3.48.793.44.404.9 1.004 1.13 1.59.44 1.136-9.97 1.74-10.56 1.507z"/>
    <path stroke="#EEF0F8" stroke-miterlimit="10" d="M625.255 391.17h655.315"/>
    <path fill="#546BF7" stroke="#546BF7" stroke-linejoin="round" stroke-miterlimit="10" d="M695.764 461.381c-.299.977 3.369 1.824 7.919 4.707 1.421.9-2.711 5.113-3.368 6.373-.869 1.666 1.394.74 2.194.301 1.219-.668 2.321-1.744 3.052-2.918 1.535 1.471 2.566 4.924 5.406 4.08-.384-.807-2.817-4.143-3.231-5.088 1.111.588 7.745 3.508 11.947-3.385 1.484-1.107 4.561-.271 5.438-2.125-.669-.26-1.089-.277-1.812-.107.713-.254 3.06-1.037 2.515-2.156-1.298-.066-3.376.828-4.415.459-1.241-.443-1.895-2.477-2.745-2.477-.75 0-.691 1.512-.137 2.293-.524-.234-2.414-1.447-2.73-.588-.312.848 1.615 1.557 2.052 1.957-2.685 4.213-12.492 2.287-13.624 1.965-2.814-.805-8.167-4.25-8.461-3.291z"/>
    <path fill="#546BF7" d="M716.023 469.021c-.087 1.469-1.314 2.676-1.593 4.07-.369 1.84 1.544.32 2.19-.326.983-.98 1.741-2.322 2.115-3.654 1.885.982 3.84 4.012 6.33 2.408-.593-.668-5.506-4.6-6.167-5.391"/>
    <path stroke="#546BF7" stroke-linejoin="round" stroke-miterlimit="10" d="M716.023 469.021c-.087 1.469-1.314 2.676-1.593 4.07-.369 1.84 1.544.32 2.19-.326.983-.98 1.741-2.322 2.115-3.654 1.885.982 3.84 4.012 6.33 2.408-.593-.668-5.506-4.6-6.167-5.391"/>
    <path fill="#EEF0F8" d="M782.61 373.172H671.438v30.666H782.61v-30.666z"/>
    <path stroke="#658AF2" stroke-miterlimit="10" d="M784.614 371.172H673.442v30.666h111.172v-30.666z"/>
    <path fill="#546BF7" d="M685.732 381.019v9.898h-2.395v-9.898h2.395zM696.453 390.917h-2.394l-4.004-6.076v6.076h-2.394v-9.898h2.394l4.004 6.133v-6.133h2.394v9.898zM706.668 388.53c-.415.751-1.012 1.337-1.791 1.757-.779.42-1.697.63-2.752.63h-3.737v-9.898h3.737c1.064 0 1.984.206 2.758.616.775.411 1.37.989 1.785 1.736.416.747.623 1.605.623 2.576 0 .971-.207 1.831-.623 2.583zm-2.576-.497c.519-.495.777-1.19.777-2.086 0-.896-.259-1.592-.777-2.086-.518-.495-1.243-.742-2.176-.742h-1.135v5.656h1.135c.933 0 1.658-.248 2.176-.742zM711.325 381.019v9.898h-2.394v-9.898h2.394zM715.104 381.019l2.422 7.448 2.422-7.448h2.562l-3.444 9.898h-3.095l-3.43-9.898h2.563zM726.107 381.019v9.898h-2.395v-9.898h2.395zM736.32 388.53c-.415.751-1.013 1.337-1.792 1.757-.779.42-1.696.63-2.751.63h-3.737v-9.898h3.737c1.063 0 1.983.206 2.758.616.774.411 1.37.989 1.785 1.736.415.747.623 1.605.623 2.576 0 .971-.208 1.831-.623 2.583zm-2.576-.497c.519-.495.777-1.19.777-2.086 0-.896-.259-1.592-.777-2.086-.518-.495-1.243-.742-2.177-.742h-1.134v5.656h1.134c.934 0 1.66-.248 2.177-.742zM740.902 381.019v5.713c0 .653.146 1.152.441 1.497.293.346.721.519 1.281.519.56 0 .986-.173 1.28-.519.294-.345.441-.844.441-1.497v-5.713h2.394v5.713c0 .933-.182 1.72-.546 2.358-.364.64-.86 1.12-1.491 1.442-.63.321-1.342.482-2.135.482-.793 0-1.493-.158-2.1-.476-.607-.317-1.083-.798-1.428-1.442-.346-.644-.519-1.433-.519-2.365v-5.713h2.382v.001zM754.75 389.11h-3.709l-.617 1.806h-2.52l3.626-9.828h2.759l3.625 9.828h-2.547l-.617-1.806zm-.615-1.82l-1.232-3.64-1.246 3.64h2.478zM761.513 389.083h3.192v1.834h-5.586v-9.898h2.394v8.064zM772.803 389.572c-.266.438-.658.788-1.176 1.05-.518.262-1.146.392-1.883.392-1.111 0-2.025-.271-2.744-.812-.719-.541-1.111-1.297-1.176-2.269h2.548c.037.374.171.668.399.883.228.215.52.321.875.321.308 0 .551-.084.728-.252.177-.168.267-.392.267-.672 0-.252-.082-.462-.246-.63-.162-.168-.365-.306-.608-.413-.243-.107-.579-.235-1.008-.385-.626-.215-1.137-.422-1.533-.623-.397-.2-.737-.499-1.022-.896-.284-.396-.426-.912-.426-1.547 0-.588.148-1.097.447-1.525.299-.43.711-.759 1.239-.987.526-.229 1.132-.343 1.813-.343 1.101 0 1.976.261 2.625.784.648.522 1.014 1.241 1.098 2.155h-2.59c-.047-.326-.166-.585-.356-.776-.191-.191-.45-.287-.776-.287-.281 0-.508.074-.68.224-.173.149-.259.369-.259.658 0 .233.077.432.231.595.153.164.347.297.58.399.233.102.569.233 1.008.392.635.215 1.152.427 1.555.637.4.211.746.517 1.035.918.289.401.435.924.435 1.567-.001.522-.134 1.004-.4 1.442z"/>
    <path stroke="#658AF2" stroke-miterlimit="10" d="M684.947 401.838l-19.751 21.666"/>
    <path stroke="#92A9F8" stroke-miterlimit="10" d="M664.391 443.463c21.81 17.582 52.292 19.791 52.292 19.791l3.833 3"/>
    <path fill="#546BF7" d="M661.36 441.004c1.116.32 2.304-.01 3.104.979.624.77 1.066 2.439-.188 2.457-1.08.014-2.478-.623-3.412-1.121-.604-.322-1.009-.5-.772-1.148.2-.553.908-.996 1.435-1.166M652.466 448.701c-.212 8.264 1.719 16.756 2.438 21.281.625 3.938 2.125 4.188 1.375 4.812-.294.244-2.25-.375-3.125-2.562-.95-2.375-1.673-2.289-5.591-24.277-.001 0 4.936-.572 4.903.746zM647.215 449.725c-.445 3.059-1.764 9.836-3.378 11.357-1.307 1.232-5.239 5.164-8.201 7.41-1.311.996-2.304 2.723-2.921 2.678-.798-.061-.498-2.049.487-3.322 2.074-2.68 6.618-6.893 7.385-7.785 1.466-1.701 1.416-8.131 2.167-11.34M649.791 423.654c.573-1.148.544-1.596 2.07-1.529.781.033 1.224-2.135 1.338-2.707.246-1.232.562-4.354-1.365-4.637"/>
    <path fill="#FFAC84" d="M653.134 414.32s-2.413 9.469-2.155 10.342c.294.996 5.411 23.506 5.596 24.281-10.509 4.939-17.573.701-17.576.697-.223-.336.129-13.111 2.467-20.477 1.698-5.352 4.332-8.068 4.332-8.068s-1.226-1.465-1.956-2.594c-.791-1.223-1.076-2.9-.408-4.283.628-1.301 2.988-1.691 4.278-1.703 1.969-.019 4.18.723 5.422 1.805z"/>
    <path fill="#FFAC84" d="M648.614 427.764c2.13 3.965 6.377 6.771 10.027 9.066 1.186.748 3.156 1.576 3.351 3.037.18 1.348-.091 2.182-1.146 2.803-3.111 1.836-7.871-2.172-10.831-4.203-2.042-1.404-2.493-2.34-3.694-4.332"/>
    <path fill="#DAE0FF" d="M591.719 438.99l-9.144 18.248-.262 18.049h-10.337l.382-16.977-13.562-20.967c-3.446 5.336-6.822 6.875-13.271 5.961-4.921-.697-11.062-2.957-14.318-6.986-3.398-4.205-.624-10.604-4.886-14.023-4.639-3.721-1.681-3.627-3.957-9.625-8.664-22.834 20.051-20.223 26.023-16.334-1.006-.688-1.996-1.553-2.946-2.219-7.837-5.48-10.332-12.17-9.966-21.525.093-2.363.269-5.404-1.866-6.971-1.765-1.293-5.384-1.158-7.666-1.322-8.52-.613-16.249-4.488-19.204-10.988-4.646-10.221 2.375-22.441 11.957-26.156-4.402-13.613-3.493-27.982 5.078-40.123 7.943-11.25 20.238-21.857 33.431-26.592 6.166-2.215 13.485-2.775 19.929-1.457 6.801 1.391 16.586 7.709 20.04 13.838 0 0 3.359-3.719 5.273-5.236 9.126-7.23 23.387-7.578 37.014 1.326 19.001 12.416 11.357 42.271 12.62 47.312 1.563 6.248 4.933 12.201 7.056 18.289 4.094 11.73.09 28.193-10.614 34.982-5.653 3.586-12.092 6.084-18.525 7.502-3.442.758-5.431.428-7.177 3.408-1.327 2.266-2.34 4.469-3.889 6.588-1.236 1.693-2.562 3.471-4.198 5.027 18.08 3.639 6.606 22.154-3.304 25.871 11.149 10.84-19.711 21.1-19.711 21.1zm-1.102-8.144c-2.322 4.803-7.778 4.678-7.778 4.678l-.224 14.27 5.964-9.908 2.038-9.04z"/>
    <path stroke="#658AF2" stroke-miterlimit="10" d="M586.363 474.947l1.549-152.701-37.478-59.158M577.525 369.67l-59.15-42.777"/>
    <path stroke="#658AF2" stroke-miterlimit="10" d="M576.027 474.67l2.749-158.617-19.823-31.283M585.434 317.91l6.35-57.765M576.605 254.879l11.151 40.111M586.055 310.168l34.38-51.107M601.231 269.127l-1.238 19.978M587.914 345.168l48.318-53.275M587.602 354.613l17.006-19.029 27.751-30.838M600.305 365.609l4.306-30.025M608.355 322.557l5.266-53.43M629.105 299.945l1.247-40.164M586.984 380.477l34.225-37.168"/>
    <path stroke="#658AF2" stroke-miterlimit="10" d="M587.293 397.203l28.807-36.859 27.876-95.088M603.553 418.729l-16.881 35.156M576.451 448.619l-37.088-58.207M576.455 454.969l-41.814-64.737M552.293 410.83l3.719-15.795M548.268 411.295l-30.045-14.711M529.683 418.42l30.509 11.926M570.568 439.326l-8.982-40.574M576.777 405.906l-9.617 19.172M603.088 395.965l-13.17 50.871M615.479 414.549l-18.584 6.504M577.776 386.17l-39.885-23.813M547.648 348.264l13.009 28.187M605.876 384.349l23.696-9.911M664.106 332.777l-39.492 21.217-37.942 60.863M656.364 302.424l-32.212 30.353M578.621 342.07l-47.39-62.568M578.31 365.301l-55.286-41.506M559.415 350.898l-38.251-51.572M550.127 304.281l-26.482-13.008M543.527 267.17l14.342 47.488M595.966 435.609s30.664-10.221 19.514-21.061c9.911-3.719 21.361-22.238 3.281-25.875"/>
    <path stroke="#658AF2" stroke-miterlimit="10" d="M599.353 394.785c8.921 3.258 18.364-3.928 23.628-11.135 1.549-2.121 2.561-4.324 3.888-6.588 1.747-2.982 3.735-2.652 7.177-3.41 6.434-1.416 12.871-3.916 18.525-7.5 10.704-6.791 14.708-23.252 10.614-34.984-2.123-6.09-5.492-12.043-7.056-18.289-1.263-5.041 6.381-34.898-12.62-47.314-13.627-8.904-27.888-8.555-37.014-1.324-1.914 1.516-5.273 5.236-5.273 5.236-3.454-6.131-13.239-12.447-20.04-13.84-6.443-1.318-13.764-.756-19.929 1.457-13.192 4.734-25.487 15.344-33.431 26.592-8.572 12.141-9.48 26.512-5.079 40.125-9.582 3.713-16.603 15.936-11.957 26.158 2.955 6.5 10.686 10.375 19.204 10.988 2.282.162 5.901.027 7.666 1.32 2.134 1.566 1.959 4.607 1.866 6.973-.366 9.355 2.129 16.045 9.966 21.525 7.937 5.549 17.942 12.197 27.286 15.018"/>
    <path stroke="#658AF2" stroke-miterlimit="10" d="M562.824 434.061c-3.448 5.336-6.8 6.816-13.249 5.9-4.921-.697-11.061-2.957-14.317-6.984-3.398-4.205-.624-10.605-4.887-14.023-4.638-3.721-9.879-4.842-12.156-10.84-8.664-22.834 28.672-18.873 34.646-14.984M586.984 432.203s5.436.299 8.102-5.201"/>
    <path fill="url(#paint9_linear)" d="M1262.68 362.154l94.72-1.996 6.93 3.467-96.77-.412-4.88-1.059z"/>
    <path stroke="#546BF7" stroke-linecap="round" stroke-linejoin="round" stroke-miterlimit="10" d="M1271.85 320.033h4.55M1264.95 362.643c7.23 0 13.09-5.861 13.09-13.09 0-7.23-5.86-13.09-13.09-13.09-7.23 0-13.09 5.86-13.09 13.09 0 7.229 5.86 13.09 13.09 13.09z"/>
    <path stroke="#546BF7" stroke-linecap="round" stroke-linejoin="round" stroke-miterlimit="10" d="M1264.75 350.031l7.06-29.875 3.16 3.58"/>
    <path stroke="#546BF7" stroke-linecap="round" stroke-linejoin="round" stroke-miterlimit="10" d="M1290.66 351.098l19.27-1.545-13.63-19.401h-25.96l20.32 20.946z"/>
    <path fill="#BDCAFA" d="M1283.65 312.229c-3.23 3.441-7.91 6.797-8.96 7.457-.91.566-3.91 1.795-3.71 3.023.28 1.727 7.35-2.497 8.18-2.923 1.95-1.002 5.44-3.278 7.32-4.876"/>
    <path fill="url(#paint10_linear)" d="M-18.969 362.153l94.723-1.996 6.933 3.467-96.772-.412-4.884-1.059z"/>
    <path fill="#546BF7" d="M9.107 326.616c-.576.994-1.836 1.656-2.69 2.416-1.027.916-1.787 1.969-2.566 3.061-1.037 1.455-1.559 2.561-1.28 4.334.34 2.174.936 4.297 1.323 6.479.453 2.553.607 5.279.736 7.877.043.867-1.597 4.264-.7 4.73.926.484 2.636-2.998 2.83-4.102.495-2.811.744-5.836.736-8.697-.003-1.682-.25-3.309-.266-4.98-.009-.967-.063-1.24.733-1.873 1.691-1.346 9.47-8.371 9.468-10.51 0-1.377-2.429-1.594-3.646-1.619-.802-.018-2.19-.031-2.619.646"/>
    <path stroke="#546BF7" stroke-linecap="round" stroke-linejoin="round" stroke-miterlimit="10" d="M8.952 355.393c2.335 0 4.229-1.894 4.229-4.229 0-2.336-1.894-4.229-4.23-4.229-2.335 0-4.228 1.893-4.228 4.229 0 2.335 1.893 4.229 4.229 4.229zM28.286 362.643c7.23 0 13.09-5.861 13.09-13.09 0-7.23-5.86-13.09-13.09-13.09-7.23 0-13.09 5.86-13.09 13.09 0 7.229 5.86 13.09 13.09 13.09z"/>
    <path stroke="#546BF7" stroke-linecap="round" stroke-linejoin="round" stroke-miterlimit="10" d="M9.018 351.097l19.266-1.545-13.628-19.401H-11.3l20.32 20.946zM9.02 351.098l6.31-23.094M11.704 328.139h8.459"/>
    <path fill="#839EF4" d="M19.644 320.082c-.83-1.859-8.15-15.836-11.482-14.748-2.85.93-3.711 6.26-2.72 8.045.852 1.535 6.99 8.074 6.998 8.584"/>
    <path fill="#9EB2F6" d="M10.298 328.79c1.924-.275 3.834-.635 5.684-1.029 1.646-.354 2.938-.883 3.757-2.486.84-1.648.654-3.52-.092-5.193l-12.78 3.213"/>
    <path fill="#BDCAFA" d="M12.442 321.963s-2.633.521-5.575 1.332zM9.56 306.521c-1.936-6.311-1.454-8.043-3.875-8.883-1.802-.626-3.546 1.238-3.93 2.932-.306 1.352.066 5.024 1.515 5.297.577.105 1.673.107 1.673.107s2.038 3.072 2.597 3.407c.362.216-.25-1.058.166-1.048.378.01 1.89-1.308 1.854-1.812z"/>
    <path fill="#839EF4" d="M4.834 314.91c.333-.285.615-.547.829-.777 1.83-1.971 3.8-3.621 4.738-6.105 1.103-2.924-3.666-3.949-5.626.398-.535 1.186-1.55 2.5-2.771 3.803"/>
    <path fill="#BDCAFA" d="M2.002 312.229c-3.23 3.441-7.904 6.797-8.96 7.457-.909.566-3.911 1.795-3.708 3.023.285 1.727 7.347-2.497 8.179-2.923 1.955-1.002 5.442-3.278 7.319-4.876"/>
    <path fill="#546BF7" d="M-1.89 300.052c-1.083-.557.268-.759.905-.746.73.004 1.499.104 2.222.053.792-1.232 1.302-2.092 2.76-2.352 1.2-.217 2.404.205 3.159 1.062.367.418.742 1.016.895 1.582.296 1.092-9.408.672-9.941.401z"/>
    <path fill="#BDCAFA" d="M6.853 323.346c-3.467.955-7.36 2.311-7.876 3.682-.513 1.363 7.213 9.508 9.289 12.641.814 1.229 1.888 4.434 1.745 5.842-.064.641-.848 3.926-.582 4.059.885.443 2.462-2.559 2.622-3.367.404-2.047.212-4.498-.426-6.488-1.27-3.949-3.58-6.785-5.444-10.434 1.364-.09 2.737-.242 4.102-.438"/>
    <path fill="#FFDCC9" stroke="#FFAC84" stroke-linejoin="round" stroke-miterlimit="10" d="M983.735 21.083c0-3.291-2.58-5.96-5.871-5.96-2.967 0-5.421 2.171-5.877 5.011-.457-2.84-2.91-5.011-5.877-5.011-2.968 0-5.423 2.171-5.878 5.011-.456-2.84-2.909-5.011-5.877-5.011-3.292 0-5.921 2.771-5.921 6.062-.09-.719-.098-1.352-.098-2.097 0-9.782 7.93-17.713 17.714-17.713 9.784 0 17.716 7.931 17.716 17.713 0 .699.047 1.389-.031 2.065v-.07 0z"/>
    <path stroke="#FFAC84" stroke-miterlimit="10" d="M965.723 1.447s-5.453 4.09-5.453 18M966.543 1.447s5.454 4.09 5.454 18"/>
    <path stroke="#FFAC84" stroke-linecap="round" stroke-miterlimit="10" d="M948.406 21.125l17.339 22.287M965.742 43.412l17.991-22.329M965.744 43.412l-5.565-23.603M965.742 43.413l6.255-23.432"/>
    <path fill="#FFAC84" d="M976.179 43.078h-20.668v20.668h20.668V43.078z"/>
    <path fill="#ECEEF7" d="M973.123 51.654H967.6V46.13h-3.515v5.523h-5.523v3.513h5.523v5.523h3.515v-5.523h5.523v-3.513z"/>
    <path fill="#546BF7" d="M493.727 441.9v-67.349h3.586V441.9M498.15 442.033h-5.259l-1.436 32.68h8.131l-1.436-32.68z"/>
    <path fill="#D8DFFC" stroke="#546BF7" stroke-miterlimit="10" d="M500.422 374.771h-9.803l-1.914-17.738h13.631l-1.914 17.738z"/>
    <path stroke="#546BF7" stroke-miterlimit="10" d="M495.52 356.838v17.836"/>
    <path fill="#546BF7" d="M488.685 356.24c0-2.459 3.061-4.449 6.836-4.449 3.775 0 6.836 1.99 6.836 4.449h-13.672z"/>
    <path fill="#546BF7" d="M495.521 352.234c.759 0 1.375-.685 1.375-1.529 0-.845-.616-1.529-1.375-1.529-.76 0-1.375.684-1.375 1.529 0 .844.615 1.529 1.375 1.529zM29.124 441.9v-67.349h3.586V441.9M33.547 442.033h-5.26l-1.436 32.68h8.132l-1.436-32.68z"/>
    <path fill="#D8DFFC" stroke="#546BF7" stroke-miterlimit="10" d="M35.82 374.771h-9.804l-1.915-17.738h13.632l-1.914 17.738z"/>
    <path stroke="#546BF7" stroke-miterlimit="10" d="M30.918 356.838v17.836"/>
    <path fill="#546BF7" d="M24.082 356.24c0-2.459 3.061-4.449 6.834-4.449 3.776 0 6.836 1.99 6.836 4.449h-13.67z"/>
    <path fill="#546BF7" d="M30.918 352.234c.76 0 1.375-.685 1.375-1.529 0-.845-.616-1.529-1.375-1.529-.76 0-1.375.684-1.375 1.529 0 .844.616 1.529 1.375 1.529zM958.327 441.9v-67.349h3.587V441.9M962.75 442.033h-5.26l-1.435 32.68h8.131l-1.436-32.68z"/>
    <path fill="#D8DFFC" stroke="#546BF7" stroke-miterlimit="10" d="M965.022 374.771h-9.803l-1.914-17.738h13.631l-1.914 17.738z"/>
    <path stroke="#546BF7" stroke-miterlimit="10" d="M960.12 356.838v17.836"/>
    <path fill="#546BF7" d="M953.285 356.24c0-2.459 3.061-4.449 6.835-4.449 3.775 0 6.835 1.99 6.835 4.449h-13.67z"/>
    <path fill="#546BF7" d="M960.121 352.234c.759 0 1.375-.685 1.375-1.529 0-.845-.616-1.529-1.375-1.529s-1.375.684-1.375 1.529c0 .844.616 1.529 1.375 1.529z"/>
    <path stroke="#92A9F8" stroke-miterlimit="10" d="M865.164 474.669c7.18 0 13-5.82 13-13s-5.82-13-13-13-13 5.82-13 13 5.82 13 13 13z"/>
    <path fill="#546BF7" d="M882.164 447.502c3.517 1.097-4.75 17.25-4.812 20.562-.034 1.836 2.25 4.438 1.743 4.676-.933.437-2.729.213-4.306-4.488-.56-1.67 1.085-12.684 2.312-15.938.536-1.42 2.688-5.312 5.625-4.812"/>
    <path fill="#546BF7" d="M879.664 445.939c1.758 0 3.476.152 5.2.562 1.146.273 2.259.537 2.838 1.812 1.273 2.802-1.008 15.743-.907 19.38.052 1.871 2.658 6.062 1.152 5.869-1.385-.179-1.929-1.855-2.392-2.676-1.941-3.44-2.334-16.17-2.354-16.823-.014-.442.074-1.017-.256-1.265-.336-.252-3.97.5-4.972.281-.724-.158-1.817-.243-2.449-.689-.622-.438-.671-1.423-.738-2.227-.216-2.592 1.054-3.84 3.126-4.101.614-.077 1.236-.062 1.858-.062"/>
    <path stroke="#546BF7" stroke-miterlimit="10" d="M889.582 473.586h-9.25l-4.25-25.167"/>
    <path fill="#FFAC84" d="M875.084 445.336l-2.334 4-11.5-1.334-.5-17.332 6.916-3.209 7.418 17.875z"/>
    <path fill="#FFAC84" d="M867.439 422.887c1.647-.359 3.766.926 4.303 2.297.477 1.219.109 2.645-.463 3.729 6.026.902 5.823 7.074 3.971 9.008 5.001-.311 7.998 4.854 5.799 8.529-.992 1.66-2.289 2.793-4.504 2.428-1.672-.277-3.024-1.304-3.701-2.697-.498-1.023-.518-2.238-.72-3.322-.256-1.373-.312-2.766-.465-4.126-1.637-.745-2.958-2.956-3.7-4.369-.687-1.31-.74-2.571-.572-3.953.061-.487.344-1.349.133-1.769-.271-.54-1.36-1.023-1.762-1.543-.516-.663-.303-1.301-.016-1.979.367-.859.92-1.941 1.945-2.2M864.664 423.564c-.719-.932-1.094-1.824-2.312-2.078-1.373-.285-3.005.236-3.766 1.438-1.239 1.961-1.298 5.271 1.194 6.4 1.62.732 3.253.355 4.248-1.248.918-1.48.832-3.305.385-4.824"/>
    <path fill="#546BF7" d="M866.478 427.004c.266-.73.507-1.256 1.289-1.372.726-.108 1.457.677 1.988.069.956-1.095 1.865-6.845-1.135-8.574-1.279-.736-3.58-1.33-5.185-.266-1.16.771-1.627 2.815-1.378 4.016.178.852 1.188 2.014 1.295 2.92.129 1.096-.625 1.713-.75 2.666-.304 2.32 1.56 6.914 3.876.541z"/>
    <path fill="#FFAC84" d="M860.084 428.752c-1.373-.529-1.471-2.057-.857-3.063.819-1.345-1.374-4.827 3.266-4.187 2.465.341 4.558 4.066 4.67 6.234.037.738.078 1.523-.234 2.214-.244.54-.68.963-.93 1.478 3.671 1.043 3.396 5.41 1.165 7.518.716.334 1.537.336 2.265.821.771.515 1.402 1.343 1.734 2.144.916 2.217.182 5.691-2.197 7.062-2.271 1.311-5.051 1.378-7.662 1.48-1.068.043-3.074.156-3.976-.402-1.399-.868-1.707-2.982-1.913-4.319-.428-2.78-.703-5.417 0-8.179.525-2.062 1.565-3.859 2.554-5.788.475-.925 1.013-2.452 1.97-3.075"/>
    <path fill="#546BF7" d="M869.332 414.003h-7.333v5.917h7.333v-5.917z"/>
    <path fill="#92A9F8" d="M853.332 456.919h24.75l-1.584-9.833h-23.166v9.833z"/>
    <path fill="#546BF7" d="M877.744 447.995c-.184 1.013-1.286 2.222-2.146 2.747-1.434.873-1.339-.953-1.045-1.929.301-.998.895-2.375 1.961-2.695 1.438-.431 1.477 1.118 1.203 2.062"/>
    <path stroke="#546BF7" stroke-miterlimit="10" d="M855.582 474.669c7.18 0 13-5.82 13-13s-5.82-13-13-13-13 5.82-13 13 5.82 13 13 13zM868.539 461.689h-25.937M855.571 474.658v-25.937M864.743 470.859l-18.341-18.339M846.402 470.859l18.341-18.339"/>
    <path fill="#FFAC84" d="M859.164 428.752c-2.611 0-4.717 3.674-3.463 6.371-4.879 1.416-4.361 6.119-3.107 8.395-5.596 3.276-3.09 8.73-1.68 10.017 2.362 2.151 6.041.464 6.441-2.853.19-1.572-.174-3.213-.059-4.752 1.041.004 2.486-.332 3.121-1.311.441-.68.436-1.633.435-2.438-.003-2.033-.854-3.516-1.241-5.389 1.379.081 2.697-1.458 2.866-2.918"/>
    <path fill="#546BF7" d="M854.17 453.936c-.061 1.344-1.218 4.994-2.729 4.654-1.415-.32-.533-3.537-.192-4.738.582-2.058 2.989-1.439 2.921.084z"/>
    <path fill="#FFAC84" d="M854.249 436.419s-2.332-6.667 4.084-9c6.416-2.333 2.166 2 2.166 2s-3.666 7.501-3.916 7.417"/>
    <path stroke="#546BF7" stroke-miterlimit="10" d="M-1.079 475.17H1280.57"/>
    <path fill="#546BF7" d="M889.99 474.795c-2.127 3.123-2.551 9.457-4.369 18.541-.417 2.084-3.931 5.277-3.084 6.25.718.826 2.917-.75 4.167-2.334 1.733-2.195 4.183-10.459 5.164-13.072.591-1.568 1.031-3.258 1.605-4.787.054-.145.105-.318.158-.502"/>
    <path fill="#546BF7" d="M897.944 482.403c-.041.09-.075.18-.084.264-.136 1.281.791 3.004 1.078 4.266 2.973 13.084-1.321 16.098-2.159 16.201-.814.1-.378-1.623.213-3.67 1.042-3.611-1.877-10.209-2.718-12.24-.692-1.672-1.552-3.807-1.635-5.605-.031-.68.305-1.596 1.022-2.721"/>
    <path fill="#FFAC84" d="M928.356 474.687c-.145-.031-.33-.129-.547-.283z"/>
    <path fill="#839EF4" d="M928.943 472.764c1.053.895 3.318 1.449 3.174 2.031-.229.91-2.675.311-3.867-.125"/>
    <path fill="#FFAC84" d="M927.81 474.404c-2.321-1.654-8.377-9.881-9.567-13.389-.176-.521-.312-1.055-.419-1.58-.07 1.922-.144 4.338.039 6.176.171 1.715.298 3.041.218 4.775-.073 1.578-.148 3.457-1.751 3.971-1.352.432-3.03.545-4.5.562-.079 0-.154-.006-.231-.01-1.824 5.135-3.899 8.324-5.23 11.885-1.699-.357-6.32-2.113-9.288-4.5-3.605-2.902-7.089-7.5-7.089-7.5.429-.629 1.679-1.406 3.332-2.236 2.485-3.395 5.327-8.287 7.372-11.869 1.117-1.957 1.7-4.09 2.743-6 1.052-1.924 2.069-4.062 3.944-5 .363-.207 1.191-.371 1.569-.65 1.169.92 2.105 1.873 3.57.777.551-.414 1.182-1.148 1.665-1.861.164.178.346.355.566.539 1.09.902 2.532 1.229 3.657 2.039 2.379 1.713.212 7.879 10.208 21.887l-.808 1.984zm-20.168-13.562c-.019-.404-.203-2.701-.339-5.107-.938 2.35-2.375 4.49-3.921 6.705-.676.971-3.773 5.541-6.503 8.488 3.449-1.477 7.312-2.926 9.483-3.861.103-.076.196-.148.3-.225.761-.561 1.027-.957 1.062-1.938.03-.82-.046-3.259-.082-4.062z"/>
    <path fill="#546BF7" d="M912.521 449.816c-1.465 1.096-2.401.143-3.57-.777.066-.049.123-.102.156-.158.769-1.332-1.257-2.121-2.117-2.16-.693-.033-1.103-.146-1.489-.785-.36-.6-.303-1.043-.304-1.742-.009-3.223 1.712-6.684 5.381-5.955 1.625.322 2.561 1.094 3.015 2.711.433 1.539-.015 2.789-.179 4.303-.128 1.188.078 1.947.772 2.703-.483.712-1.114 1.446-1.665 1.86z"/>
    <path fill="#839EF4" d="M908.402 438.676c.199 1.58-.561 4.529.363 5.932.871 1.322 1.745 1.404 2.938 2.438.234 2.578 1.818.932 2.511 1.523.666.568.372 1.766.745 2.557.206.434.451.66.613 1.127.203.582.213.963.609 1.467.317.4.759.59 1.013.99.288.455.167 1.803.617 1.467 1.22-.912-.33-2.152-.598-3.312-.199-.859.282-1.613-.254-2.424-.318-.479-.941-.729-1.193-1.303-.36-.824-.098-1.127-.921-1.723-.511-.369-.883-.539-1.125-1.182-.463-1.227.243-2.479.394-3.738.182-1.518-.524-2.623-1.7-3.533-.831-.643-4.523-2.791-5.398.146"/>
    <path fill="#546BF7" d="M949.414 472.988c.688-.461 1.288-.971 1.756-1.525 2.445-2.906 3.373-9.189 2.898-12.584-.27-1.93-.02-4.578-.117-6.482-1.062-6.1-24.34-3.135-27.862-2.033-5.11 1.598-8.726 4.805-6.494 5.211 1.092.199 5.55-3.305 9.616-2.613 4.386.746 9.557 1.785 13.555.436-.078 3.041.218 6.998.953 9.787"/>
    <path fill="#839EF4" d="M943.72 463.184c-1.49-2.355-12.895-12.037-14.678-9.83-2.066 2.555-.486 7.625-.463 10.314.039 4.271-1.387 11.332-.125 10.361 2.479-1.906 4.661-11.189 3.758-13.971 3.27 3.846 4.621 7.404 10.141 8.604-3.289 1.33-5.604 2.65-8.051 3.75-3.241 1.455-4.002 3.947-4.473 7.463-.52 3.873-1.539 7.436-2.4 12.285-.709 3.982-2.638 7.287-2.244 9.193.438 2.119 4.684-3.854 7.517-13.811.614-2.156 1.366-6.252 2.243-8.262 1.24-2.844 2.823-2.59 5.555-3.057 2.525-.43 6.331-1.502 8.916-3.236"/>
    <path fill="#546BF7" d="M951.147 449.782c4.977 2.095 7.982 9.706 9.829 12.183 1.86 2.496 3.271 7.211 6.739 10.114 1.591 1.329 4.259 1.036 3.186 2.822-.96 1.596-4.713-.552-6.101-1.62-1.047-.807-17.059-19.394-14.256-22.749"/>
    <path fill="#FFC5A5" d="M945.047 450.056c.371-.811.063-2.307-.598-2.797-1.007-.746-1.524-.455-2.308-1.555-1.014-1.424.627-4.623 1.436-6.051 1.092-1.926 3.029-2.713 4.873-1.676 1.924 1.08 2.168 3.131 1.85 5.281-.149 1.016-.559 1.973-.746 2.969-.59 3.133 1.211 2.936 3.135 4.254 1.832 1.256-7.961 2.606-7.642-.425z"/>
    <path fill="#839EF4" d="M943.266 440.74c-.395 1.18 1.131 1.932 1.974 1.539-.353.836-.521 1.875.326 2.35.431.24.585.006.918.402.2.236.252.709.417.984.474.789.963.967 1.799.832.414-.066.503-.256.931-.18.43.078.722.406 1.161.449 2.446.24 1.055-2.135 1.274-3.389.147-.846.803-1.441.815-2.373.006-.412.032-.988-.186-1.346-.383-.635-.674-.221-1.15-.518-.65-.404-.325-1.424-.604-2.164-.337-.898-.821-1.109-1.725-1.066-.799.037-1.074.479-1.749.066-.753-.459-1.14-1.197-2.106-1.324-.908-.121-1.49.451-1.734 1.328-.095.342.077.867-.078 1.191-.139.287-.388.186-.565.465-.385.602-.926 2.811.282 2.754.023.057-.02-.129 0 0z"/>
    <defs>
        <linearGradient id="paint0_linear" x1="275.319" x2="346.884" y1="440.403" y2="440.403" gradientUnits="userSpaceOnUse">
            <stop stop-color="#D5DCFF"/>
            <stop offset=".295" stop-color="#DCE2FF" stop-opacity=".705"/>
            <stop offset=".712" stop-color="#EEF1FF" stop-opacity=".288"/>
            <stop offset="1" stop-color="#fff" stop-opacity="0"/>
        </linearGradient>
        <linearGradient id="paint1_linear" x1="325.087" x2="396.965" y1="442.685" y2="442.685" gradientUnits="userSpaceOnUse">
            <stop stop-color="#FBC0A0"/>
            <stop offset=".172" stop-color="#FBC4A7" stop-opacity=".828"/>
            <stop offset=".416" stop-color="#FCD1B9" stop-opacity=".584"/>
            <stop offset=".703" stop-color="#FDE5D8" stop-opacity=".297"/>
            <stop offset="1" stop-color="#fff" stop-opacity="0"/>
        </linearGradient>
        <linearGradient id="paint2_linear" x1="242.569" x2="314.632" y1="444.745" y2="444.745" gradientUnits="userSpaceOnUse">
            <stop stop-color="#5984E9"/>
            <stop offset=".119" stop-color="#6089EA" stop-opacity=".881"/>
            <stop offset=".287" stop-color="#7297EC" stop-opacity=".713"/>
            <stop offset=".486" stop-color="#91ADF0" stop-opacity=".514"/>
            <stop offset=".707" stop-color="#BBCDF6" stop-opacity=".293"/>
            <stop offset=".944" stop-color="#F1F5FD" stop-opacity=".056"/>
            <stop offset="1" stop-color="#fff" stop-opacity="0"/>
        </linearGradient>
        <linearGradient id="paint3_linear" x1="220.253" x2="288.416" y1="452.037" y2="452.037" gradientUnits="userSpaceOnUse">
            <stop stop-color="#FFC5A5"/>
            <stop offset=".178" stop-color="#FFC9AB" stop-opacity=".822"/>
            <stop offset=".429" stop-color="#FFD5BE" stop-opacity=".571"/>
            <stop offset=".724" stop-color="#FFE9DC" stop-opacity=".276"/>
            <stop offset="1" stop-color="#fff" stop-opacity="0"/>
        </linearGradient>
        <linearGradient id="paint4_linear" x1="349.917" x2="422.833" y1="452.038" y2="452.038" gradientUnits="userSpaceOnUse">
            <stop stop-color="#BDCAFA"/>
            <stop offset=".22" stop-color="#C4CFFB" stop-opacity=".78"/>
            <stop offset=".531" stop-color="#D7DEFC" stop-opacity=".469"/>
            <stop offset=".897" stop-color="#F5F7FE" stop-opacity=".103"/>
            <stop offset="1" stop-color="#fff" stop-opacity="0"/>
        </linearGradient>
        <linearGradient id="paint5_linear" x1="58.941" x2="131.004" y1="351.781" y2="351.781" gradientUnits="userSpaceOnUse">
            <stop stop-color="#FFC5A5"/>
            <stop offset=".178" stop-color="#FFC9AB" stop-opacity=".822"/>
            <stop offset=".429" stop-color="#FFD5BE" stop-opacity=".571"/>
            <stop offset=".724" stop-color="#FFE9DC" stop-opacity=".276"/>
            <stop offset="1" stop-color="#fff" stop-opacity="0"/>
        </linearGradient>
        <linearGradient id="paint6_linear" x1="103.277" x2="175.339" y1="358.615" y2="358.615" gradientUnits="userSpaceOnUse">
            <stop stop-color="#5987EE"/>
            <stop offset=".119" stop-color="#608CEE" stop-opacity=".881"/>
            <stop offset=".288" stop-color="#7299F0" stop-opacity=".712"/>
            <stop offset=".486" stop-color="#91AFF3" stop-opacity=".514"/>
            <stop offset=".708" stop-color="#BCCEF8" stop-opacity=".292"/>
            <stop offset=".945" stop-color="#F1F5FE" stop-opacity=".055"/>
            <stop offset="1" stop-color="#fff" stop-opacity="0"/>
        </linearGradient>
        <linearGradient id="paint7_linear" x1="1069.27" x2="1170.93" y1="359.5" y2="359.5" gradientUnits="userSpaceOnUse">
            <stop stop-color="#5987EE"/>
            <stop offset=".119" stop-color="#608CEE" stop-opacity=".881"/>
            <stop offset=".288" stop-color="#7299F0" stop-opacity=".712"/>
            <stop offset=".486" stop-color="#91AFF3" stop-opacity=".514"/>
            <stop offset=".708" stop-color="#BCCEF8" stop-opacity=".292"/>
            <stop offset=".945" stop-color="#F1F5FE" stop-opacity=".055"/>
            <stop offset="1" stop-color="#fff" stop-opacity="0"/>
        </linearGradient>
        <linearGradient id="paint8_linear" x1="1171.49" x2="1273.15" y1="381.339" y2="381.339" gradientUnits="userSpaceOnUse">
            <stop stop-color="#FFAC84"/>
            <stop offset=".145" stop-color="#FFB08B" stop-opacity=".855"/>
            <stop offset=".35" stop-color="#FFBD9D" stop-opacity=".649"/>
            <stop offset=".592" stop-color="#FFD2BC" stop-opacity=".408"/>
            <stop offset=".86" stop-color="#FFEEE6" stop-opacity=".14"/>
            <stop offset="1" stop-color="#fff" stop-opacity="0"/>
        </linearGradient>
        <linearGradient id="paint9_linear" x1="1262.68" x2="1364.33" y1="361.892" y2="361.892" gradientUnits="userSpaceOnUse">
            <stop stop-color="#5987EE"/>
            <stop offset=".119" stop-color="#608CEE" stop-opacity=".881"/>
            <stop offset=".288" stop-color="#7299F0" stop-opacity=".712"/>
            <stop offset=".486" stop-color="#91AFF3" stop-opacity=".514"/>
            <stop offset=".708" stop-color="#BCCEF8" stop-opacity=".292"/>
            <stop offset=".945" stop-color="#F1F5FE" stop-opacity=".055"/>
            <stop offset="1" stop-color="#fff" stop-opacity="0"/>
        </linearGradient>
        <linearGradient id="paint10_linear" x1="-18.968" x2="82.688" y1="361.891" y2="361.891" gradientUnits="userSpaceOnUse">
            <stop stop-color="#5987EE"/>
            <stop offset=".119" stop-color="#608CEE" stop-opacity=".881"/>
            <stop offset=".288" stop-color="#7299F0" stop-opacity=".712"/>
            <stop offset=".486" stop-color="#91AFF3" stop-opacity=".514"/>
            <stop offset=".708" stop-color="#BCCEF8" stop-opacity=".292"/>
            <stop offset=".945" stop-color="#F1F5FE" stop-opacity=".055"/>
            <stop offset="1" stop-color="#fff" stop-opacity="0"/>
        </linearGradient>
    </defs>
</svg>
