<svg xmlns="http://www.w3.org/2000/svg" width="30" height="30" fill="none" viewBox="0 0 30 30">
    <path fill="#425AF2" d="M21.704 15.073c.013-.942.263-1.866.728-2.686.465-.819 1.13-1.508 1.933-2.001-.51-.728-1.183-1.328-1.965-1.75-.782-.423-1.652-.658-2.54-.686-1.896-.199-3.734 1.135-4.7 1.135-.985 0-2.472-1.115-4.074-1.082-1.036.033-2.045.335-2.93.874-.885.54-1.615 1.3-2.12 2.205-2.182 3.78-.554 9.336 1.537 12.391 1.047 1.496 2.27 3.168 3.87 3.108 1.566-.065 2.15-.998 4.04-.998 1.873 0 2.422.998 4.054.96 1.68-.027 2.74-1.502 3.749-3.012.752-1.067 1.33-2.245 1.714-3.492-.976-.413-1.81-1.104-2.395-1.987-.586-.883-.9-1.919-.9-2.979zM18.62 5.94c.917-1.1 1.368-2.513 1.259-3.94-1.4.147-2.693.816-3.621 1.874-.454.516-.802 1.117-1.023 1.768-.222.651-.313 1.34-.268 2.026.7.007 1.393-.144 2.025-.444.633-.299 1.19-.738 1.629-1.283z"/>
</svg>