<svg width="59" height="60" viewBox="0 0 59 60" fill="none" xmlns="http://www.w3.org/2000/svg">
<path d="M58.0424 24.223V57.0732C58.0485 57.8927 57.7019 58.6752 57.0912 59.2215L57.0049 59.3078C56.4781 59.7569 55.8079 60.0025 55.1156 60H2.92767C2.24032 59.9999 1.57558 59.7544 1.05299 59.3078C1.01736 59.2868 0.987684 59.2572 0.966701 59.2215C0.351368 58.6771 -0.000622699 57.8948 0.000122255 57.0732V24.223C-0.00670649 23.4927 0.272776 22.7887 0.778724 22.262C0.984952 22.0185 1.23277 21.8134 1.51039 21.6561C1.94358 21.4191 2.42954 21.295 2.92332 21.2954H55.115C55.9342 21.3102 56.7133 21.6529 57.2779 22.2466C57.7686 22.7881 58.0411 23.4923 58.0424 24.223Z" fill="#425AF2"/>
<path d="M57.2809 22.2436C57.0753 22.4975 29.0368 44.7957 29.0368 44.7957L0.777344 22.2684L0.78976 22.2568V22.2443L27.4367 0.567283C28.3666 -0.189094 29.6998 -0.189094 30.6299 0.567283L57.2809 22.2436Z" fill="#F6B863"/>
<path d="M51.3183 7.12866V27.0444L29.0326 44.7958L6.73438 27.0203V7.12866H51.3183Z" fill="white"/>
<path d="M57.087 59.22C57.0619 59.2513 57.0333 59.2797 57.0021 59.3049L31.8984 42.559L34.196 40.7085L57.087 59.22Z" fill="#F6B863"/>
<path d="M26.1573 42.546L1.05367 59.3021C1.0168 59.284 0.986877 59.2542 0.96875 59.2172L23.8479 40.6836L26.1573 42.546Z" fill="#F6B863"/>
<path d="M11.6758 12.3555H46.3684V13.8607H11.6758V12.3555Z" fill="#DBD8DD"/>
<path d="M11.6758 18.1609H46.3684V19.6661H11.6758V18.1609Z" fill="#DBD8DD"/>
<path d="M11.6758 23.967H46.3684V25.4722H11.6758V23.967Z" fill="#DBD8DD"/>
<path d="M17.5039 29.7725H40.5441V31.2776H17.5039V29.7725Z" fill="#DBD8DD"/>
</svg>
