<?xml version="1.0" encoding="UTF-8"?>
<svg xmlns="http://www.w3.org/2000/svg" xmlns:xlink="http://www.w3.org/1999/xlink" width="50pt" height="50pt" viewBox="0 0 50 50" version="1.1">
<g id="surface9550657">
<path style=" stroke:none;fill-rule:nonzero;fill:rgb(25.882353%,35.294118%,94.901961%);fill-opacity:1;" d="M 36.007812 5.074219 L 13.992188 5.074219 C 9.023438 5.074219 5 9.097656 5 14.0625 L 5 36 C 5 40.964844 9.023438 44.992188 13.992188 44.992188 L 36.011719 44.992188 C 40.976562 44.988281 45 40.964844 45 36 L 45 14.0625 C 45 9.097656 40.976562 5.074219 36.007812 5.074219 Z M 16.171875 36.753906 C 15.800781 37.390625 15.128906 37.742188 14.441406 37.742188 C 14.101562 37.742188 13.753906 37.65625 13.433594 37.46875 C 12.480469 36.910156 12.160156 35.6875 12.71875 34.734375 L 13.011719 34.238281 C 13.527344 34.074219 14.066406 33.988281 14.625 34.003906 L 14.628906 34.003906 C 15.652344 34.03125 16.507812 34.496094 17.09375 35.179688 Z M 27.414062 32 L 12 32 C 10.894531 32 10 31.105469 10 30 C 10 28.894531 10.894531 28 12 28 L 16.664062 28 L 22.53125 17.988281 L 20.71875 14.898438 C 20.160156 13.945312 20.480469 12.722656 21.433594 12.160156 C 22.386719 11.605469 23.613281 11.921875 24.171875 12.875 L 24.847656 14.03125 L 25.527344 12.875 C 26.085938 11.921875 27.308594 11.605469 28.265625 12.160156 C 29.21875 12.722656 29.535156 13.945312 28.976562 14.898438 L 21.300781 28 L 25.480469 28 C 26.105469 28.414062 26.644531 28.964844 27.03125 29.640625 L 27.03125 29.644531 C 27.472656 30.410156 27.570312 31.238281 27.414062 32 Z M 38 32 L 35.378906 32 L 36.980469 34.734375 C 37.539062 35.683594 37.21875 36.910156 36.265625 37.46875 C 35.945312 37.65625 35.597656 37.742188 35.257812 37.742188 C 34.570312 37.742188 33.902344 37.390625 33.527344 36.753906 L 27.378906 26.257812 C 26.542969 24.707031 26.574219 22.828125 27.484375 21.3125 L 28.3125 19.941406 L 33.03125 28 L 38 28 C 39.105469 28 40 28.894531 40 30 C 40 31.105469 39.105469 32 38 32 Z M 38 32 "/>
</g>
</svg>
