<svg width="9" height="14" viewBox="0 0 9 14" fill="none" xmlns="http://www.w3.org/2000/svg">
<path d="M7.29289 13.7071C7.68342 14.0976 8.31658 14.0976 8.70711 13.7071C9.09763 13.3166 9.09763 12.6834 8.70711 12.2929L7.29289 13.7071ZM2 7L1.29289 6.29289L0.585787 7L1.29289 7.70711L2 7ZM8.70711 1.70711C9.09763 1.31658 9.09763 0.683417 8.70711 0.292893C8.31658 -0.0976314 7.68342 -0.0976315 7.29289 0.292893L8.70711 1.70711ZM8.70711 12.2929L2.70711 6.29289L1.29289 7.70711L7.29289 13.7071L8.70711 12.2929ZM2.70711 7.70711L8.70711 1.70711L7.29289 0.292893L1.29289 6.29289L2.70711 7.70711Z" fill="#000000"/>
</svg>
