<svg width="24" height="24" viewBox="0 0 24 24" fill="none" xmlns="http://www.w3.org/2000/svg">
    <path d="M18.7913 11.0046H7.62126L12.5013 6.12459C12.8913 5.73459 12.8913 5.09459 12.5013 4.70459C12.3144 4.51734 12.0608 4.41211 11.7963 4.41211C11.5317 4.41211 11.2781 4.51734 11.0913 4.70459L4.50126 11.2946C4.11126 11.6846 4.11126 12.3146 4.50126 12.7046L11.0913 19.2946C11.4813 19.6846 12.1113 19.6846 12.5013 19.2946C12.8913 18.9046 12.8913 18.2746 12.5013 17.8846L7.62126 13.0046H18.7913C19.3413 13.0046 19.7913 12.5546 19.7913 12.0046C19.7913 11.4546 19.3413 11.0046 18.7913 11.0046Z" fill="#939393"/>
</svg>
