<svg
width="20"
height="20"
viewBox="0 0 20 20"
fill="none"
xmlns="http://www.w3.org/2000/svg"
>
<path
fill-rule="evenodd"
clip-rule="evenodd"
d="M2 0H18C19.1 0 20 0.9 20 2V14C20 15.1 19.1 16 18 16H4L0 20L0.01 2C0.01 0.9 0.9 0 2 0ZM15 7H5C4.45 7 4 7.45 4 8C4 8.55 4.45 9 5 9H15C15.55 9 16 8.55 16 8C16 7.45 15.55 7 15 7ZM11 12H5C4.45 12 4 11.55 4 11C4 10.45 4.45 10 5 10H11C11.55 10 12 10.45 12 11C12 11.55 11.55 12 11 12ZM5 6H15C15.55 6 16 5.55 16 5C16 4.45 15.55 4 15 4H5C4.45 4 4 4.45 4 5C4 5.55 4.45 6 5 6Z"
fill="#425af2"
/>
</svg>