<svg width="67" height="67" viewBox="0 0 67 67" fill="none" xmlns="http://www.w3.org/2000/svg">
<g filter="url(#filter0_d)">
<circle cx="33.5" cy="33.5" r="29.5" fill="#425AF2"/>
</g>
<path d="M43.7498 36.2082H35.2082V44.7498C35.2082 45.6894 34.4394 46.4582 33.4998 46.4582C32.5603 46.4582 31.7915 45.6894 31.7915 44.7498V36.2082H23.2498C22.3103 36.2082 21.5415 35.4394 21.5415 34.4998C21.5415 33.5603 22.3103 32.7915 23.2498 32.7915H31.7915V24.2498C31.7915 23.3103 32.5603 22.5415 33.4998 22.5415C34.4394 22.5415 35.2082 23.3103 35.2082 24.2498V32.7915H43.7498C44.6894 32.7915 45.4582 33.5603 45.4582 34.4998C45.4582 35.4394 44.6894 36.2082 43.7498 36.2082Z" fill="white"/>
<defs>
<filter id="filter0_d" x="0" y="0" width="67" height="67" filterUnits="userSpaceOnUse" color-interpolation-filters="sRGB">
<feFlood flood-opacity="0" result="BackgroundImageFix"/>
<feColorMatrix in="SourceAlpha" type="matrix" values="0 0 0 0 0 0 0 0 0 0 0 0 0 0 0 0 0 0 127 0"/>
<feOffset/>
<feGaussianBlur stdDeviation="2"/>
<feColorMatrix type="matrix" values="0 0 0 0 0 0 0 0 0 0 0 0 0 0 0 0 0 0 0.16 0"/>
<feBlend mode="normal" in2="BackgroundImageFix" result="effect1_dropShadow"/>
<feBlend mode="normal" in="SourceGraphic" in2="effect1_dropShadow" result="shape"/>
</filter>
</defs>
</svg>
