<svg width="478" height="300" viewBox="0 0 478 300" fill="none" xmlns="http://www.w3.org/2000/svg">
<g clip-path="url(#clip0)">
<path d="M90.1896 201.05L87.6504 199.473C87.4082 199.323 87.1701 199.162 86.9278 199.009C92.3318 198.079 97.2589 195.341 100.9 191.242C104.541 187.144 106.679 181.93 106.963 176.456C107.247 170.983 105.66 165.575 102.463 161.122C99.266 156.67 94.6489 153.436 89.3701 151.953L89.4952 161.903L84.0254 151.077H83.9568C77.5559 150.78 71.2991 153.036 66.5619 157.349C61.8247 161.662 58.9948 167.679 58.6946 174.077C58.6703 174.541 58.6946 174.992 58.6946 175.448C56.7932 173.278 55.0615 170.949 53.919 168.399C51.606 163.239 51.5616 157.392 51.7432 150.282C52.1065 136.2 52.7161 122.005 53.5073 107.859C59.2192 107.223 64.5173 104.573 68.4504 100.384C72.3835 96.1956 74.6939 90.7427 74.9669 85.0046C74.9991 84.2662 74.987 83.5399 74.9669 82.8136C74.9669 82.632 74.9669 82.4544 74.9386 82.2729C74.8902 81.5708 74.8256 80.8768 74.7166 80.1908C74.7166 80.0778 74.6762 79.9689 74.656 79.86C74.5591 79.2789 74.438 78.706 74.3008 78.1411C74.2483 77.9272 74.1958 77.7174 74.1393 77.5076C73.9698 76.8902 73.7841 76.2971 73.5661 75.6838C73.4934 75.4861 73.4127 75.2803 73.332 75.0947C73.1624 74.6548 72.9767 74.2191 72.7789 73.7914C72.674 73.5654 72.573 73.3394 72.4641 73.1175C72.4318 73.061 72.4116 73.0005 72.3793 72.944C69.8278 67.9102 65.593 63.9285 60.4103 61.6907C55.2276 59.4529 49.4245 59.1002 44.0087 60.6939L44.1702 73.6461L38.7609 62.9454C34.3167 65.4914 30.8021 69.3895 28.729 74.0715C26.656 78.7536 26.1329 83.975 27.2359 88.975H27.1874C27.2238 89.1485 27.2763 89.3139 27.3166 89.4834C27.3933 89.8021 27.4741 90.1169 27.5629 90.4316C27.6799 90.8351 27.8051 91.2386 27.9383 91.6421C28.0392 91.9407 28.1361 92.2352 28.2491 92.5298C28.4146 92.9575 28.6003 93.3731 28.786 93.7887C28.895 94.0308 28.9919 94.2809 29.1089 94.519C29.4157 95.1431 29.7495 95.7524 30.1101 96.3469C30.2352 96.5567 30.3765 96.7504 30.5138 96.9561C30.7721 97.3596 31.0305 97.7631 31.3211 98.1384C31.4947 98.3764 31.6804 98.6064 31.862 98.8364C32.1285 99.1713 32.3989 99.5022 32.6694 99.821C32.8672 100.051 33.0731 100.273 33.2789 100.491C33.5777 100.805 33.8804 101.108 34.1953 101.403C34.4052 101.6 34.599 101.806 34.8291 101.992C35.1843 102.311 35.5557 102.609 35.9311 102.904C36.1208 103.053 36.3065 103.206 36.5003 103.352C37.0735 103.755 37.6629 104.159 38.2725 104.562C38.3855 104.631 38.5106 104.687 38.6237 104.756C39.1363 105.054 39.653 105.341 40.1859 105.599C40.416 105.712 40.6501 105.813 40.8843 105.918C41.3202 106.111 41.7602 106.301 42.2124 106.475L43.0197 106.757C43.4638 106.906 43.9159 107.048 44.372 107.161C44.6385 107.233 44.9089 107.31 45.1794 107.374C45.6719 107.491 46.1765 107.588 46.6851 107.677L46.782 107.697C46.451 113.666 46.155 119.637 45.8939 125.608C44.4542 122.651 42.4251 120.019 39.9312 117.874C37.4373 115.729 34.5311 114.115 31.391 113.133C28.251 112.151 24.9432 111.82 21.6707 112.161C18.3982 112.502 15.2299 113.508 12.3603 115.118L16.6312 126.819L7.84316 118.386C5.50689 120.517 3.61353 123.088 2.2712 125.95C0.928868 128.813 0.16386 131.912 0.0198623 135.07C-0.0922869 137.306 0.114313 139.547 0.633454 141.724C1.73849 146.435 4.23408 150.705 7.7966 153.982C11.3591 157.258 15.8242 159.388 20.6129 160.097C25.4015 160.806 30.2927 160.06 34.6523 157.957C39.0119 155.854 42.6387 152.49 45.0623 148.301C45.0623 148.906 45.022 149.512 45.0058 150.121C44.8443 156.391 44.6425 164.195 47.771 171.163C49.8903 175.884 53.2974 179.721 56.6519 183.159C58.8439 185.395 61.1166 187.561 63.4459 189.656C65.7391 192.733 68.7302 195.222 72.1734 196.918C76.0003 199.864 79.9644 202.636 84.0617 205.194L86.6211 206.784C88.922 208.208 91.2795 209.673 93.5885 211.194C93.1849 211.154 92.7812 211.109 92.3775 211.089C87.2545 210.851 82.1883 212.247 77.9113 215.076C73.6343 217.904 70.368 222.019 68.5847 226.826L83.6823 239.104L67.0749 235.255C67.0826 239.34 68.1264 243.357 70.1087 246.93C72.0911 250.503 74.9474 253.515 78.4106 255.685C81.8738 257.855 85.8308 259.112 89.9119 259.338C93.9929 259.564 98.0648 258.753 101.747 256.979L100.625 258.371C99.8819 259.294 99.1486 260.211 98.4246 261.123C88.5991 273.563 85.8662 285.369 90.7305 294.371L96.6484 291.179C91.9133 282.415 99.0342 271.198 103.701 265.291C104.411 264.395 105.132 263.494 105.864 262.588C112.142 254.792 119.254 245.955 119.081 235.118C118.806 218.78 102.958 208.951 90.1896 201.05Z" fill="#F2F2F2"/>
<path d="M365.474 176.332L368.639 174.363C368.942 174.173 369.236 173.959 369.539 173.782C362.767 172.622 356.594 169.186 352.043 164.041C347.491 158.897 344.834 152.353 344.511 145.492C344.282 140.778 345.174 136.077 347.115 131.774C348.925 127.742 351.599 124.158 354.947 121.273C358.295 118.388 362.236 116.273 366.491 115.077L366.334 127.492L373.16 113.987H373.241C381.229 113.616 389.037 116.431 394.948 121.813C400.86 127.195 404.391 134.704 404.764 142.688C404.792 143.265 404.764 143.83 404.764 144.399C407.142 141.692 409.298 138.786 410.722 135.607C413.613 129.151 413.669 121.888 413.439 113.011C412.987 95.4387 412.228 77.7332 411.239 60.0843C404.113 59.2916 397.502 55.9852 392.595 50.7588C387.688 45.5324 384.806 38.7285 384.467 31.5691C384.427 30.6492 384.439 29.7413 384.467 28.8374C384.467 28.6115 384.479 28.3855 384.504 28.1596C384.56 27.284 384.645 26.4165 384.774 25.5651C384.794 25.4239 384.831 25.2867 384.851 25.1616C384.975 24.4353 385.124 23.7198 385.299 23.015C385.363 22.7527 385.428 22.4864 385.497 22.208C385.711 21.4413 385.941 20.6787 386.211 19.9363C386.3 19.6861 386.405 19.4481 386.502 19.2019C386.72 18.6491 386.95 18.1085 387.196 17.5879C387.325 17.3095 387.45 17.0271 387.6 16.7487C387.632 16.6801 387.664 16.6034 387.701 16.5348C390.881 10.2521 396.164 5.28263 402.631 2.49078C409.098 -0.301065 416.339 -0.738565 423.095 1.25439L422.893 17.3943L429.643 4.04659C435.189 7.22121 439.575 12.0842 442.161 17.9259C444.747 23.7677 445.397 30.2825 444.018 36.52H444.054C444.006 36.7339 443.937 36.9235 443.889 37.1535C443.792 37.557 443.691 37.9605 443.582 38.3358C443.441 38.8401 443.279 39.3324 443.114 39.8247C442.989 40.1959 442.867 40.5671 442.71 40.9343C442.504 41.4669 442.274 41.9874 442.04 42.5039C441.903 42.8065 441.782 43.1172 441.636 43.4158C441.253 44.1945 440.829 44.9572 440.389 45.6956C440.235 45.9578 440.058 46.204 439.892 46.4582C439.569 46.9585 439.242 47.4508 438.891 47.9309C438.673 48.2295 438.443 48.512 438.217 48.8025C437.886 49.206 437.551 49.6337 437.196 50.0331C436.951 50.3021 436.696 50.5806 436.433 50.8684C436.065 51.2719 435.682 51.635 435.294 52.0022C435.032 52.2524 434.774 52.5025 434.487 52.7406C434.039 53.1441 433.579 53.5073 433.106 53.8744C432.872 54.06 432.642 54.2578 432.4 54.4353C431.685 54.9598 430.951 55.4602 430.188 55.9242C430.047 56.0089 429.893 56.0816 429.748 56.1663C429.113 56.5429 428.464 56.8939 427.802 57.2194C427.515 57.3606 427.221 57.4817 426.93 57.6229C426.385 57.8691 425.836 58.1031 425.275 58.3169C424.944 58.442 424.613 58.559 424.282 58.672C423.725 58.8617 423.164 59.0311 422.595 59.1885C422.26 59.2813 421.925 59.3741 421.581 59.4588C420.964 59.6041 420.338 59.7251 419.704 59.8341L419.579 59.8583C419.999 67.3069 420.369 74.7568 420.689 82.208C422.486 78.5188 425.018 75.2355 428.13 72.5598C431.242 69.884 434.868 67.8722 438.786 66.648C442.704 65.4237 446.831 65.0128 450.913 65.4404C454.996 65.868 458.948 67.1252 462.527 69.1347L457.202 83.7252L468.162 73.206C471.084 75.8568 473.454 79.0571 475.138 82.6241C476.822 86.191 477.786 90.0546 477.975 93.9942C478.116 96.783 477.859 99.5776 477.212 102.294C475.834 108.172 472.721 113.501 468.276 117.588C463.831 121.676 458.26 124.335 452.285 125.219C446.31 126.104 440.207 125.174 434.768 122.549C429.328 119.925 424.803 115.727 421.779 110.501C421.779 111.256 421.832 112.018 421.852 112.773C422.054 120.597 422.304 130.333 418.405 139.024C415.76 144.92 411.506 149.701 407.299 153.99C404.562 156.782 401.737 159.484 398.822 162.096C395.957 165.933 392.221 169.035 387.923 171.147C383.147 174.823 378.202 178.281 373.092 181.476L369.898 183.458C367.028 185.233 364.09 187.061 361.203 188.957C361.712 188.909 362.212 188.852 362.729 188.828C369.116 188.533 375.431 190.275 380.763 193.801C386.096 197.327 390.169 202.455 392.395 208.446L373.56 223.779L394.281 218.981C394.273 224.077 392.975 229.088 390.505 233.545C388.036 238.003 384.476 241.763 380.16 244.473C375.843 247.183 370.909 248.756 365.82 249.044C360.73 249.332 355.65 248.326 351.055 246.121C351.523 246.702 351.987 247.283 352.456 247.86C353.38 249.01 354.304 250.156 355.205 251.293C367.46 266.808 370.871 281.556 364.8 292.773L357.421 288.79C363.327 277.856 354.442 263.862 348.617 256.511C347.732 255.393 346.828 254.267 345.92 253.137C338.089 243.413 329.212 232.39 329.43 218.868C329.769 198.447 349.565 186.185 365.474 176.332Z" fill="#F2F2F2"/>
<path d="M235.87 300C350.464 300 443.361 295.032 443.361 288.904C443.361 282.776 350.464 277.808 235.87 277.808C121.276 277.808 28.3789 282.776 28.3789 288.904C28.3789 295.032 121.276 300 235.87 300Z" fill="#3F3D56"/>
<path opacity="0.2" d="M235.466 294.351C338.021 294.351 421.158 290.376 421.158 285.474C421.158 280.571 338.021 276.597 235.466 276.597C132.911 276.597 49.7734 280.571 49.7734 285.474C49.7734 290.376 132.911 294.351 235.466 294.351Z" fill="black"/>
<path d="M59.958 283.155V283.154L59.958 69.8897L59.958 69.889C59.9576 69.5729 60.0195 69.2598 60.1402 68.9676C60.2609 68.6755 60.4381 68.4099 60.6616 68.1862C60.8851 67.9625 61.1505 67.785 61.4427 67.6639C61.7349 67.5428 62.0482 67.4805 62.3645 67.4805L409.351 67.4805L409.353 67.4805C409.67 67.4792 409.985 67.5405 410.278 67.661C410.572 67.7815 410.839 67.9588 411.064 68.1827C411.289 68.4065 411.467 68.6725 411.589 68.9655C411.711 69.2584 411.773 69.5725 411.773 69.8897V283.154C411.773 283.793 411.519 284.406 411.067 284.857C410.615 285.309 410.002 285.563 409.363 285.563H62.3645C62.0482 285.563 61.7349 285.501 61.4427 285.38C61.1505 285.259 60.8851 285.081 60.6616 284.857C60.4381 284.634 60.2609 284.368 60.1402 284.076C60.0195 283.784 59.9576 283.471 59.958 283.155Z" fill="white" stroke="black"/>
<path d="M412.273 68.9213V75.4539H59.458V68.9213C59.458 68.4065 59.6626 67.9129 60.0267 67.5489C60.3909 67.1849 60.8847 66.9805 61.3997 66.9805H410.332C410.847 66.9805 411.34 67.1849 411.705 67.5489C412.069 67.9129 412.273 68.4065 412.273 68.9213Z" fill="#CBCEDA"/>
<path d="M65.9168 73.033C67.0316 73.033 67.9352 72.1298 67.9352 71.0155C67.9352 69.9013 67.0316 68.998 65.9168 68.998C64.8021 68.998 63.8984 69.9013 63.8984 71.0155C63.8984 72.1298 64.8021 73.033 65.9168 73.033Z" fill="#425AF2"/>
<path d="M71.5682 73.033C72.6829 73.033 73.5866 72.1298 73.5866 71.0155C73.5866 69.9013 72.6829 68.998 71.5682 68.998C70.4535 68.998 69.5498 69.9013 69.5498 71.0155C69.5498 72.1298 70.4535 73.033 71.5682 73.033Z" fill="#425AF2"/>
<path d="M77.2196 73.033C78.3343 73.033 79.238 72.1298 79.238 71.0155C79.238 69.9013 78.3343 68.998 77.2196 68.998C76.1048 68.998 75.2012 69.9013 75.2012 71.0155C75.2012 72.1298 76.1048 73.033 77.2196 73.033Z" fill="#425AF2"/>
<path opacity="0.2" d="M175.722 153.935H92.9678V250.774H175.722V153.935Z" fill="#425AF2"/>
<path opacity="0.2" d="M277.045 153.935H194.291V250.774H277.045V153.935Z" fill="#425AF2"/>
<path opacity="0.2" d="M295.614 250.773H378.368V153.934H295.614V250.773Z" fill="#425AF2"/>
<path d="M130.642 203.152C130.396 204.609 128.955 205.525 127.595 206.094C126.234 206.663 124.712 207.135 123.84 208.325C122.666 209.939 123.158 212.251 124.244 213.926C125.475 215.847 127.34 217.263 129.165 218.635C129.955 219.304 130.857 219.83 131.829 220.188C132.57 220.378 133.334 220.459 134.098 220.43C136.557 220.429 139.012 220.209 141.433 219.773C144.537 219.208 147.855 218.078 149.506 215.382C150.846 213.175 150.762 210.419 150.632 207.837C149.171 207.712 147.863 206.917 146.62 206.146C145.151 205.235 143.564 204.173 143.088 202.515C142.587 200.776 143.386 198.629 142.196 197.27C141.388 196.35 140.02 196.241 138.801 196.208C137.146 196.165 135.492 196.142 133.839 196.14C132.701 196.14 130.158 195.664 129.221 196.422C127.498 197.798 130.953 201.304 130.642 203.152Z" fill="#A0616A"/>
<path opacity="0.1" d="M130.642 203.152C130.396 204.609 128.955 205.525 127.595 206.094C126.234 206.663 124.712 207.135 123.84 208.325C122.666 209.939 123.158 212.251 124.244 213.926C125.475 215.847 127.34 217.263 129.165 218.635C129.955 219.304 130.857 219.83 131.829 220.188C132.57 220.378 133.334 220.459 134.098 220.43C136.557 220.429 139.012 220.209 141.433 219.773C144.537 219.208 147.855 218.078 149.506 215.382C150.846 213.175 150.762 210.419 150.632 207.837C149.171 207.712 147.863 206.917 146.62 206.146C145.151 205.235 143.564 204.173 143.088 202.515C142.587 200.776 143.386 198.629 142.196 197.27C141.388 196.35 140.02 196.241 138.801 196.208C137.146 196.165 135.492 196.142 133.839 196.14C132.701 196.14 130.158 195.664 129.221 196.422C127.498 197.798 130.953 201.304 130.642 203.152Z" fill="black"/>
<path d="M136.282 202.322C142.821 202.322 148.122 197.023 148.122 190.487C148.122 183.951 142.821 178.652 136.282 178.652C129.743 178.652 124.442 183.951 124.442 190.487C124.442 197.023 129.743 202.322 136.282 202.322Z" fill="#A0616A"/>
<path d="M161.023 219.208C160.946 219.92 160.719 220.607 160.357 221.225C160.25 221.392 160.128 221.548 159.994 221.693C159.328 222.424 158.379 222.904 157.52 223.416C155.097 224.889 152.381 226.806 151.929 229.61C151.779 230.483 151.576 231.345 151.319 232.192C150.754 234.113 150.015 236.002 149.583 237.922C149.314 239.035 149.194 240.179 149.224 241.324C149.238 241.681 149.27 242.038 149.321 242.393C149.704 245.112 151.101 247.554 152.744 249.874C152.922 250.124 153.099 250.374 153.281 250.62L153.398 250.778H114.75C114.814 250.531 114.879 250.289 114.939 250.043C114.947 250.005 114.956 249.967 114.968 249.93C115.351 248.393 115.686 246.847 115.92 245.29C116.139 243.907 116.259 242.51 116.28 241.11C116.28 239.899 116.546 238.56 117.559 237.882C117.628 237.636 117.693 237.386 117.757 237.139C118.651 233.474 118.631 229.646 117.701 225.991C117.644 225.765 117.58 225.539 117.519 225.313C117.491 225.212 117.458 225.111 117.43 225.01C117.089 223.935 116.804 222.843 116.574 221.738C116.336 220.418 116.284 219.014 115.581 217.876C114.879 216.739 113.656 216.073 112.57 215.302C112.037 214.939 111.557 214.503 111.145 214.007C110.695 213.487 110.426 212.836 110.378 212.151C110.37 211.948 110.385 211.745 110.422 211.546C110.622 210.713 111.048 209.952 111.654 209.346C114.108 206.647 117.858 205.513 121.544 205.465C122.113 205.465 122.678 205.465 123.239 205.513C123.896 205.524 124.543 205.669 125.14 205.941C125.509 206.131 125.833 206.398 126.089 206.724C126.45 207.178 126.724 207.695 126.896 208.249C127.042 208.694 127.15 209.15 127.219 209.613C127.445 211.053 127.494 212.587 128.253 213.829C129.629 216.081 132.766 216.492 135.358 216.004C137.671 215.55 139.855 214.591 141.755 213.196C143.655 211.801 145.224 210.005 146.35 207.934C146.591 207.431 146.861 206.942 147.157 206.47C147.314 206.232 147.498 206.014 147.706 205.82C151.297 206.481 154.673 208.004 157.544 210.258C158.444 210.938 159.231 211.755 159.877 212.679C161.088 214.592 161.363 216.981 161.023 219.208Z" fill="#F2F2F2"/>
<path d="M162.235 243.575C161.908 244.702 161.408 245.772 160.753 246.746C160.321 247.574 159.741 248.315 159.042 248.933C157.609 250.059 155.626 250.035 153.794 249.93H153.648L152.74 249.877L147.529 249.567C146.148 249.517 144.772 249.37 143.411 249.127C143.048 249.054 142.689 248.966 142.329 248.869C140.311 248.328 138.337 247.521 136.25 247.404C135.644 247.368 135.039 247.404 134.421 247.404H134.252C133.847 247.404 133.442 247.377 133.041 247.323C132.379 247.226 131.729 247.017 131.055 246.984C129.327 246.896 127.801 247.933 126.327 248.877L125.924 249.127C124.87 249.794 123.75 250.351 122.581 250.789H115.582C115.463 250.699 115.354 250.598 115.255 250.487C115.135 250.354 115.029 250.21 114.94 250.055C114.919 250.019 114.899 249.982 114.883 249.946C114.656 249.459 114.538 248.928 114.538 248.39C114.538 247.853 114.656 247.322 114.883 246.835C115.144 246.275 115.488 245.758 115.904 245.302C116.363 244.804 116.857 244.34 117.382 243.914C120.103 241.646 123.231 239.733 126.711 239.072C126.953 239.027 127.199 238.987 127.442 238.955C129.183 238.755 130.938 238.697 132.689 238.781L134.332 238.813L141.215 238.955H141.405C144.17 239.007 147.077 239.027 149.575 237.926C149.893 237.784 150.203 237.625 150.504 237.45C150.76 237.32 150.981 237.128 151.146 236.893C151.306 236.568 151.372 236.204 151.335 235.844L151.311 232.212L151.263 225.212C151.263 223.493 151.252 221.775 151.23 220.059C151.162 219.527 151.216 218.987 151.387 218.478C151.558 217.97 151.843 217.508 152.219 217.126C153.225 215.863 155.675 211.404 157.411 211.331C157.719 211.314 158.024 211.399 158.279 211.573C159.756 212.558 159.764 216.29 159.8 217.549C159.841 218.94 159.901 220.329 159.982 221.717C160.313 227.402 160.987 233.061 162.001 238.664C162.299 240.274 162.622 241.961 162.235 243.575Z" fill="#A0616A"/>
<path opacity="0.1" d="M162.235 243.575C161.908 244.702 161.408 245.772 160.753 246.746C160.321 247.574 159.741 248.315 159.042 248.933C157.609 250.059 155.626 250.035 153.794 249.93H153.648L152.74 249.877L147.529 249.567C146.148 249.517 144.772 249.37 143.411 249.127C143.048 249.054 142.689 248.966 142.329 248.869C140.311 248.328 138.337 247.521 136.25 247.404C135.644 247.368 135.039 247.404 134.421 247.404H134.252C133.847 247.404 133.442 247.377 133.041 247.323C132.379 247.226 131.729 247.017 131.055 246.984C129.327 246.896 127.801 247.933 126.327 248.877L125.924 249.127C124.87 249.794 123.75 250.351 122.581 250.789H115.582C115.463 250.699 115.354 250.598 115.255 250.487C115.135 250.354 115.029 250.21 114.94 250.055C114.919 250.019 114.899 249.982 114.883 249.946C114.656 249.459 114.538 248.928 114.538 248.39C114.538 247.853 114.656 247.322 114.883 246.835C115.144 246.275 115.488 245.758 115.904 245.302C116.363 244.804 116.857 244.34 117.382 243.914C120.103 241.646 123.231 239.733 126.711 239.072C126.953 239.027 127.199 238.987 127.442 238.955C129.183 238.755 130.938 238.697 132.689 238.781L134.332 238.813L141.215 238.955H141.405C144.17 239.007 147.077 239.027 149.575 237.926C149.893 237.784 150.203 237.625 150.504 237.45C150.76 237.32 150.981 237.128 151.146 236.893C151.306 236.568 151.372 236.204 151.335 235.844L151.311 232.212L151.263 225.212C151.263 223.493 151.252 221.775 151.23 220.059C151.162 219.527 151.216 218.987 151.387 218.478C151.558 217.97 151.843 217.508 152.219 217.126C153.225 215.863 155.675 211.404 157.411 211.331C157.719 211.314 158.024 211.399 158.279 211.573C159.756 212.558 159.764 216.29 159.8 217.549C159.841 218.94 159.901 220.329 159.982 221.717C160.313 227.402 160.987 233.061 162.001 238.664C162.299 240.274 162.622 241.961 162.235 243.575Z" fill="black"/>
<path d="M128.483 171.721C127.457 171.874 126.323 172.148 125.766 173.02C125.33 173.698 125.362 174.557 125.213 175.348C124.972 176.618 124.263 177.751 123.227 178.524C122.379 179.149 121.354 179.5 120.478 180.085C119.602 180.67 118.827 181.627 118.944 182.676C119.045 183.592 119.775 184.29 120.118 185.153C120.752 186.727 120.005 188.482 119.311 190.031C118.617 191.581 117.963 193.405 118.758 194.902C119.602 196.479 121.778 197.076 122.391 198.751C123.154 200.768 121.18 202.919 121.434 205.07C121.652 206.837 123.396 208.1 125.16 208.358C126.004 208.479 126.941 208.395 127.582 207.834C128.224 207.273 128.426 206.357 128.454 205.505C128.563 202.221 126.694 199.207 126.149 195.963C125.972 194.893 125.948 193.748 126.444 192.783C126.759 192.174 127.251 191.674 127.526 191.04C128.071 189.721 127.453 188.127 128.039 186.824C128.37 186.253 128.753 185.712 129.181 185.21C129.556 184.665 129.807 183.943 129.512 183.349C130.555 184.013 131.388 184.959 131.914 186.077C132.677 185.924 132.657 184.286 133.404 184.52C133.613 184.588 133.735 184.81 133.872 184.984C134.146 185.29 134.504 185.508 134.902 185.613C135.299 185.718 135.719 185.704 136.108 185.573C136.885 185.295 137.567 184.804 138.078 184.156L139.354 185.738C139.469 185.465 139.665 185.234 139.915 185.076C140.166 184.917 140.458 184.839 140.755 184.85C141.347 184.891 141.918 185.087 142.41 185.419C144.832 186.868 146.648 189.834 145.72 192.497C145.316 193.635 144.509 194.567 143.968 195.648C143.427 196.729 143.29 198.182 144.154 199.021C144.331 199.199 144.557 199.336 144.711 199.53C145.344 200.276 144.945 201.414 145.134 202.354C145.47 204.085 147.512 204.775 149.232 205.179C150.443 205.453 151.884 205.659 152.732 204.775C153.66 203.807 153.244 202.221 152.683 201.002C152.122 199.784 151.472 198.376 152.074 197.181C152.675 195.987 154.439 195.567 155.073 194.321C155.88 192.735 154.455 190.996 153.886 189.309C153.107 187.001 153.975 184.411 153.337 182.046C152.95 180.853 152.345 179.742 151.553 178.77C149.668 176.236 147.407 173.908 144.606 172.439C141.958 171.051 139.289 170.825 136.371 171.176C133.751 171.507 131.111 171.329 128.483 171.721Z" fill="#3C354C"/>
<path d="M151.493 225.348C151.375 225.28 151.273 225.187 151.193 225.077C151.113 224.966 151.057 224.84 151.029 224.707C150.132 222.189 149.293 219.654 148.51 217.101C148.332 216.651 148.266 216.165 148.32 215.685C148.502 215.085 148.884 214.565 149.402 214.212C150.728 213.119 152.22 212.244 153.822 211.621C154.985 211.165 156.7 210.354 157.859 211.093C159.296 212.009 157.762 214.321 157.237 215.531C156.526 217.191 155.717 218.808 154.815 220.373C154.541 220.857 151.86 225.494 151.493 225.348Z" fill="#F2F2F2"/>
<path d="M153.797 249.93C153.696 250.127 153.569 250.309 153.418 250.471C153.374 250.523 153.325 250.572 153.273 250.616C153.216 250.673 153.155 250.726 153.091 250.774H146.071C144.903 250.336 143.783 249.779 142.729 249.111L142.325 248.861C140.851 247.917 139.326 246.88 137.598 246.969C136.924 247.001 136.274 247.211 135.612 247.308C135.21 247.361 134.806 247.388 134.401 247.388H134.231C133.622 247.388 133.02 247.36 132.402 247.388C130.315 247.505 128.346 248.312 126.323 248.853C125.964 248.95 125.605 249.039 125.241 249.111C123.881 249.354 122.505 249.501 121.124 249.551L115.004 249.914H114.859C113.03 250.019 111.048 250.043 109.611 248.918C108.911 248.299 108.331 247.558 107.899 246.731C107.244 245.756 106.745 244.686 106.418 243.559C106.014 241.945 106.353 240.258 106.648 238.624C107.904 231.649 108.637 224.59 108.84 217.505C108.876 216.242 108.884 212.498 110.37 211.525C110.537 211.41 110.729 211.335 110.931 211.308C111.03 211.297 111.13 211.297 111.23 211.308C112.965 211.38 115.416 215.839 116.421 217.102C116.797 217.484 117.082 217.946 117.253 218.455C117.425 218.963 117.478 219.503 117.41 220.035C117.41 221.692 117.399 223.352 117.378 225.014C117.378 225.091 117.378 225.168 117.378 225.24C117.359 228.775 117.336 232.308 117.309 235.84C117.272 236.201 117.338 236.564 117.499 236.889C117.556 236.984 117.627 237.069 117.709 237.143C117.842 237.258 117.987 237.36 118.141 237.446C120.825 239.028 124.123 239.012 127.239 238.951H127.429L134.312 238.81L135.955 238.778C137.706 238.693 139.461 238.752 141.203 238.951C141.445 238.983 141.691 239.024 141.933 239.068C144.607 239.635 147.127 240.772 149.321 242.401C149.993 242.877 150.647 243.38 151.283 243.91C152.276 244.717 153.252 245.653 153.781 246.831C154.009 247.316 154.129 247.844 154.132 248.379C154.134 248.914 154.02 249.444 153.797 249.93Z" fill="#A0616A"/>
<path d="M117.603 225.348C117.721 225.279 117.823 225.187 117.902 225.076C117.982 224.966 118.038 224.84 118.067 224.707C118.964 222.189 119.803 219.654 120.586 217.101C120.761 216.651 120.825 216.165 120.772 215.685C120.59 215.085 120.208 214.565 119.69 214.212C118.366 213.118 116.875 212.243 115.274 211.621C114.111 211.165 112.4 210.354 111.237 211.093C109.8 212.009 111.33 214.321 111.859 215.531C112.569 217.192 113.378 218.809 114.281 220.373C114.555 220.857 117.236 225.494 117.603 225.348Z" fill="#F2F2F2"/>
<path d="M336.015 179.548C338.416 178.963 340.281 182.938 342.699 182.466C344.028 182.207 345.053 180.634 346.397 180.751C347.927 180.884 348.581 182.974 349.364 184.503C350.725 187.15 353.474 188.752 356.122 188.433C356.953 187.336 356.796 185.649 356.372 184.277C355.948 182.906 355.302 181.574 355.286 180.113C355.266 178.181 356.328 176.042 355.367 174.464C354.628 173.254 353.118 173.157 352.008 172.411C351.14 171.83 350.531 170.857 349.804 170.062C348.638 168.763 347.043 167.925 345.311 167.702C343.882 167.54 342.445 167.847 341.032 168.154L334.428 169.582C334.044 169.627 333.683 169.792 333.399 170.054C333.13 170.463 332.948 170.923 332.866 171.406C332.24 173.456 330.278 174.416 328.676 175.554C327.073 176.692 325.551 178.943 326.435 180.86C326.936 181.945 328.115 182.615 328.24 183.834C328.349 184.923 327.561 185.815 326.92 186.622C324.195 190.035 330.302 191.811 331.764 189.495C333.391 186.945 332.579 180.388 336.015 179.548Z" fill="#3C354C"/>
<path d="M332.523 201.018C331.949 201.764 331.203 202.386 330.742 203.209C330.165 204.386 330.069 205.743 330.476 206.989C330.89 208.219 331.47 209.386 332.2 210.46C333.036 211.926 334.053 213.281 335.227 214.494C336.408 215.72 337.977 216.498 339.668 216.698C341.464 216.831 343.2 216.088 344.827 215.31C345.521 215.033 346.154 214.622 346.688 214.099C347.077 213.605 347.382 213.05 347.592 212.457L348.993 209.104C349.386 208.29 349.658 207.422 349.8 206.529C349.945 205.137 349.461 203.761 348.993 202.442L346.429 195.393C346.322 194.989 346.111 194.62 345.816 194.324C345.535 194.12 345.212 193.982 344.871 193.92C343.248 193.5 341.59 193.23 339.918 193.113C338.675 193.028 335.853 192.589 334.767 193.291C333.77 193.94 334.186 195.595 334.069 196.664C333.963 198.23 333.428 199.736 332.523 201.018Z" fill="#A0616A"/>
<path opacity="0.1" d="M332.523 201.018C331.949 201.764 331.203 202.386 330.742 203.209C330.165 204.386 330.069 205.743 330.476 206.989C330.89 208.219 331.47 209.386 332.2 210.46C333.036 211.926 334.053 213.281 335.227 214.494C336.408 215.72 337.977 216.498 339.668 216.698C341.464 216.831 343.2 216.088 344.827 215.31C345.521 215.033 346.154 214.622 346.688 214.099C347.077 213.605 347.382 213.05 347.592 212.457L348.993 209.104C349.386 208.29 349.658 207.422 349.8 206.529C349.945 205.137 349.461 203.761 348.993 202.442L346.429 195.393C346.322 194.989 346.111 194.62 345.816 194.324C345.535 194.12 345.212 193.982 344.871 193.92C343.248 193.5 341.59 193.23 339.918 193.113C338.675 193.028 335.853 192.589 334.767 193.291C333.77 193.94 334.186 195.595 334.069 196.664C333.963 198.23 333.428 199.736 332.523 201.018Z" fill="black"/>
<path d="M340.91 199.36C347.086 199.36 352.092 194.356 352.092 188.183C352.092 182.01 347.086 177.006 340.91 177.006C334.735 177.006 329.729 182.01 329.729 188.183C329.729 194.356 334.735 199.36 340.91 199.36Z" fill="#A0616A"/>
<path d="M365.688 216.093C365.712 219.176 364.53 222.146 363.307 224.97C362.083 227.795 360.529 230.583 359.334 233.484C359.237 233.718 359.145 233.956 359.052 234.194C356.996 239.504 355.176 244.896 353.594 250.37L353.477 250.774H318.801C320.383 244.721 321.74 238.669 317.945 234.493C317.828 234.364 317.711 234.23 317.598 234.089C315.115 231.099 314.001 227.02 311.05 224.478C310.372 223.893 309.585 223.376 309.165 222.581C308.924 222.092 308.802 221.553 308.81 221.008C308.807 220.528 308.837 220.048 308.899 219.571C309.189 216.949 309.565 214.197 311.147 212.082C311.87 211.158 312.735 210.355 313.711 209.702C315.866 208.188 318.293 207.104 320.86 206.51C323.75 205.848 326.939 205.752 329.297 203.948C329.793 203.491 330.334 203.085 330.911 202.737L331.073 202.669C331.352 202.537 331.662 202.485 331.969 202.517C332.276 202.55 332.568 202.667 332.813 202.854C333.118 203.194 333.32 203.614 333.394 204.065C333.822 205.631 334.251 207.196 334.682 208.762C334.827 209.536 335.162 210.262 335.655 210.876C336.797 212.062 338.981 211.921 339.869 213.297C340.402 214.132 341.803 213.16 342.412 212.385C343.89 210.514 345.169 208.494 346.227 206.357C346.584 205.51 347.059 204.718 347.64 204.004C348.057 203.545 348.598 203.217 349.198 203.06C349.491 202.988 349.797 202.98 350.094 203.036C350.966 203.214 351.604 203.932 352.197 204.594C355.748 208.558 359.943 211.893 364.606 214.459C364.976 214.615 365.292 214.876 365.515 215.21C365.612 215.412 365.665 215.634 365.668 215.859C365.684 215.944 365.688 216.021 365.688 216.093Z" fill="#3C354C"/>
<path d="M337.221 178.979C339.09 178.575 340.539 181.259 342.421 180.94C343.454 180.77 344.253 179.729 345.295 179.79C346.486 179.879 346.994 181.283 347.604 182.308C348.146 183.192 348.925 183.908 349.852 184.375C350.779 184.842 351.818 185.041 352.852 184.951C353.498 184.212 353.376 183.083 353.045 182.159C352.714 181.235 352.21 180.339 352.198 179.362C352.198 178.059 353.005 176.623 352.262 175.561C351.689 174.754 350.514 174.682 349.65 174.181C348.976 173.778 348.504 173.136 347.935 172.604C346.977 171.706 345.75 171.148 344.443 171.018C343.326 170.962 342.206 171.064 341.117 171.321L335.982 172.281C335.688 172.305 335.407 172.415 335.175 172.596C334.973 172.864 334.835 173.174 334.771 173.503C334.282 174.883 332.753 175.521 331.513 176.292C330.274 177.062 329.091 178.571 329.769 179.859C330.173 180.589 331.073 181.037 331.17 181.876C331.259 182.606 330.645 183.208 330.145 183.748C328.029 186.04 332.777 187.234 333.919 185.677C335.183 183.95 334.549 179.544 337.221 178.979Z" fill="#3C354C"/>
<path d="M370.937 250.773H361.495C361.648 246.907 360.074 242.981 359.88 239.039C359.807 237.558 359.932 236.053 359.634 234.601C359.555 234.222 359.454 233.849 359.331 233.483C359.093 232.737 358.802 232.002 358.576 231.252C357.825 228.746 357.853 226.083 357.89 223.468C357.933 220.582 357.978 217.698 358.027 214.817C358.027 214.067 357.805 212.961 358.487 212.646C360.025 211.936 361.624 213.344 363.037 214.26C363.884 214.825 364.853 215.269 365.677 215.874C366.167 216.212 366.593 216.636 366.932 217.125C367.33 217.799 367.612 218.534 367.768 219.3C368.911 223.666 369.907 228.068 370.755 232.507C371.158 234.436 371.428 236.391 371.562 238.357C371.809 242.489 370.949 246.657 370.937 250.773Z" fill="#3C354C"/>
<path d="M312.29 246.279C311.887 247.263 311.451 248.296 311.511 249.37C311.548 249.851 311.657 250.324 311.834 250.774H303.28C302.851 249.319 302.527 247.836 302.312 246.335C301.908 243.414 302.13 240.44 302.509 237.511C302.764 235.236 303.261 232.994 303.991 230.825C304.984 228.045 306.554 225.527 307.89 222.912C308.205 222.303 308.492 221.617 308.827 221.012C309.545 219.684 310.474 218.708 312.323 219.599C316.921 221.815 318.895 229.574 317.615 234.093C317.617 234.105 317.617 234.117 317.615 234.129C317.251 235.277 316.794 236.393 316.251 237.466C314.862 240.377 313.542 243.314 312.29 246.279Z" fill="#3C354C"/>
<path d="M237.359 173.898C238.274 174.232 239.04 174.882 239.519 175.73C239.886 176.493 239.874 177.385 240.124 178.196C240.653 179.903 242.243 181.02 243.233 182.513C244.573 184.531 244.73 187.101 244.637 189.522C244.544 191.943 244.234 194.412 244.839 196.765C245.126 197.911 245.614 199 245.812 200.166C246.05 201.578 245.852 203.055 246.216 204.443C246.535 205.706 247.281 206.812 248.016 207.885L251.157 212.473C249.751 212.14 248.367 211.724 247.011 211.226C247.429 212.54 248.205 213.713 249.251 214.611L246.983 211.868C246.521 211.232 245.948 210.685 245.291 210.254C244.46 209.781 243.475 209.709 242.538 209.515C240.742 209.152 238.941 208.232 238.061 206.614C236.887 204.459 237.658 201.752 236.984 199.387C236.503 197.66 235.316 196.236 234.501 194.646C232.648 191.043 232.761 186.794 232.18 182.783C231.93 181.081 231.55 179.39 231.542 177.667C231.542 176.396 231.667 173.983 232.999 173.334C234.154 172.789 236.285 173.443 237.359 173.898Z" fill="#3F3D56"/>
<path d="M238.744 202.761C238.934 204.867 239.374 207.353 241.295 208.237C242.381 208.737 243.645 208.551 244.823 208.745C247.048 209.104 248.86 210.815 249.91 212.82C250.959 214.826 251.294 217.102 251.524 219.345C251.827 222.149 251.928 225.196 250.382 227.56C249.135 229.477 246.979 230.643 244.771 231.236C242.548 231.815 240.226 231.898 237.968 231.48C235.709 231.061 233.571 230.152 231.704 228.815C229.875 227.488 228.365 225.777 226.896 224.066C223.695 220.342 220.473 216.258 219.815 211.392C219.739 210.839 219.747 210.182 220.219 209.843C220.532 209.667 220.892 209.595 221.249 209.637L224.316 209.693C225.096 209.693 225.976 209.693 226.504 209.108C227.033 208.523 227.001 207.789 226.981 207.091C226.903 204.132 226.825 201.166 226.747 198.194C226.7 197.879 226.772 197.558 226.948 197.294C227.144 197.117 227.392 197.011 227.655 196.991C229.346 196.705 231.114 196.991 232.77 196.531C234.344 196.1 236.806 194.292 237.973 196.148C238.95 197.701 238.595 200.97 238.744 202.761Z" fill="#FFC1C7"/>
<path opacity="0.1" d="M238.744 202.761C238.934 204.867 239.374 207.353 241.295 208.237C242.381 208.737 243.645 208.551 244.823 208.745C247.048 209.104 248.86 210.815 249.91 212.82C250.959 214.826 251.294 217.102 251.524 219.345C251.827 222.149 251.928 225.196 250.382 227.56C249.135 229.477 246.979 230.643 244.771 231.236C242.548 231.815 240.226 231.898 237.968 231.48C235.709 231.061 233.571 230.152 231.704 228.815C229.875 227.488 228.365 225.777 226.896 224.066C223.695 220.342 220.473 216.258 219.815 211.392C219.739 210.839 219.747 210.182 220.219 209.843C220.532 209.667 220.892 209.595 221.249 209.637L224.316 209.693C225.096 209.693 225.976 209.693 226.504 209.108C227.033 208.523 227.001 207.789 226.981 207.091C226.903 204.132 226.825 201.166 226.747 198.194C226.7 197.879 226.772 197.558 226.948 197.294C227.144 197.117 227.392 197.011 227.655 196.991C229.346 196.705 231.114 196.991 232.77 196.531C234.344 196.1 236.806 194.292 237.973 196.148C238.95 197.701 238.595 200.97 238.744 202.761Z" fill="black"/>
<path d="M231.017 202.184C237.493 202.184 242.744 196.936 242.744 190.463C242.744 183.989 237.493 178.741 231.017 178.741C224.54 178.741 219.29 183.989 219.29 190.463C219.29 196.936 224.54 202.184 231.017 202.184Z" fill="#FFC1C7"/>
<path d="M257.119 240.658C257.039 241.137 256.927 241.61 256.784 242.074C256.408 243.157 255.977 244.219 255.492 245.258C255.306 245.689 255.133 246.121 254.983 246.565C254.866 246.912 254.765 247.267 254.677 247.622C254.588 247.977 254.483 248.457 254.41 248.881C254.301 249.507 254.22 250.14 254.156 250.774H223.553C223.684 249.225 223.626 247.667 223.379 246.133C222.968 244.021 222.335 241.959 221.49 239.98C219.54 234.985 217.361 229.893 216.162 224.683C216.162 224.683 216.162 224.683 216.162 224.663C215.323 221.283 215.072 217.783 215.419 214.318C215.443 214.116 215.471 213.914 215.5 213.704C215.572 213.181 215.67 212.661 215.794 212.147C216.09 210.684 216.762 209.324 217.744 208.201C219.117 206.724 221.438 205.993 223.218 206.938C224.292 207.507 224.958 208.515 225.491 209.633C225.83 210.343 226.116 211.094 226.415 211.808C227.509 214.386 229.082 216.734 231.049 218.728C231.425 219.131 231.82 219.49 232.228 219.845C232.636 220.201 232.991 220.499 233.391 220.806C234.686 221.802 236.249 223.065 237.94 223.11C238.921 223.138 239.922 223.11 240.935 223.11C241.824 223.11 242.72 223.073 243.604 223.11C245.497 223.146 247.641 222.609 248.557 220.951C249.183 219.817 249.078 218.433 248.961 217.142C248.868 216.133 248.775 215.125 248.678 214.112C248.678 214.059 248.678 214.007 248.678 213.954C248.613 213.224 248.545 212.502 248.476 211.772C248.444 211.42 248.412 211.065 248.375 210.714L248.303 209.932C248.639 209.894 248.978 209.862 249.32 209.835C250.85 209.714 252.412 209.742 253.728 210.488C254.979 211.195 255.746 212.409 256.239 213.785C256.566 214.766 256.778 215.781 256.869 216.811C257.321 221.391 256.59 226.011 256.84 230.603C257.002 233.928 257.704 237.377 257.119 240.658Z" fill="#425AF2"/>
<path d="M264.107 250.773H254.851C254.774 249.724 254.714 248.675 254.677 247.622C254.645 246.895 254.621 246.165 254.609 245.439C254.568 243.481 254.584 241.528 254.657 239.58C256.479 240.609 258.52 241.192 260.611 241.279C261.458 242.226 262.14 243.307 262.63 244.479C262.904 245.123 263.135 245.784 263.32 246.46C263.322 246.469 263.322 246.479 263.32 246.488C263.7 247.892 263.963 249.325 264.107 250.773Z" fill="#FFC1C7"/>
<path d="M263.295 244.467C259.794 244.501 256.31 244.962 252.921 245.839C252.473 243.628 252.691 241.344 252.921 239.101L254.418 223.683C254.527 222.541 254.317 212.058 256.53 213.91C257.337 214.592 258.37 220.721 258.625 221.706C259.008 223.195 259.311 224.7 259.581 226.209C260.134 229.308 260.51 232.431 261.047 235.534C261.2 236.429 262.496 244.475 263.295 244.467Z" fill="#425AF2"/>
<path d="M235.487 175.558C235.503 175.191 235.419 174.827 235.244 174.504C235.093 174.313 234.903 174.155 234.687 174.041C234.47 173.927 234.233 173.859 233.989 173.843C232.297 173.58 230.441 174.246 228.911 173.488C228.103 173.084 227.494 172.277 226.686 171.829C224.781 170.752 222.375 171.829 220.688 173.225C218.001 175.455 216.043 178.437 215.064 181.788C214.314 184.378 214.011 187.408 211.863 189.05C210.975 189.728 209.845 190.104 209.179 191.007C208.678 191.701 208.561 192.593 208.468 193.428C208.246 195.397 208.065 197.415 208.577 199.328C208.981 200.752 209.728 202.043 210.192 203.443C210.831 205.425 210.89 207.548 210.362 209.563C209.835 211.577 208.742 213.399 207.213 214.814C207.995 215.301 208.936 215.464 209.837 215.27C209.819 215.683 209.688 216.084 209.457 216.428C212.202 216.339 214.588 213.668 217.273 214.253C219.323 214.697 220.466 216.811 221.996 218.247C223.966 220.1 227.025 220.874 229.5 219.777C231.975 218.679 233.476 215.556 232.427 213.063C231.216 210.238 227.546 209.104 226.267 206.3C225.278 204.125 226.012 201.591 225.798 199.215C225.617 197.173 224.737 195.272 224.184 193.299C223.63 191.326 223.457 189.071 224.587 187.352C225.774 185.528 228.047 184.818 230.114 184.124C234.768 182.623 235.664 180.262 235.487 175.558Z" fill="#3F3D56"/>
<path d="M232.603 217.699C232.938 216.085 233.269 214.321 232.68 212.76C231.582 209.846 227.993 208.939 225.511 207.062C224.072 205.971 222.968 204.499 222.322 202.814C221.869 201.631 221.809 199.989 222.919 199.392C223.351 199.19 223.829 199.107 224.304 199.15C228.171 199.239 231.715 201.341 234.682 203.826C236.406 205.275 238.045 206.933 238.905 209.011C239.514 210.484 239.712 212.09 239.886 213.672L240.491 218.917C240.891 221.924 241.124 224.951 241.189 227.984C241.194 229.723 241.084 231.46 240.862 233.185C240.709 234.395 240.459 235.67 239.76 236.675C238.42 238.543 235.845 238.963 233.544 239.027C232.675 239.078 231.803 239.022 230.948 238.862C227.125 238.031 224.227 232.68 227.117 229.376C228.328 227.972 230.193 227.935 230.892 226.011C231.828 223.461 232.054 220.374 232.603 217.699Z" fill="#FFC1C7"/>
<path d="M229.499 218.619L232.515 223.546C232.695 223.801 232.82 224.091 232.882 224.397C232.967 225.039 232.478 225.608 232.107 226.128C229.507 229.679 230.169 234.561 230.952 238.891C226.804 237.576 223.109 235.12 220.292 231.803C217.475 228.487 215.649 224.445 215.023 220.14C214.644 217.562 214.03 213.317 216.319 211.639C221.833 207.595 226.912 214.398 229.499 218.619Z" fill="#425AF2"/>
<path d="M244.823 208.745C243.644 208.551 242.401 208.745 241.295 208.237C239.373 207.353 238.933 204.867 238.743 202.761C238.743 202.567 238.715 202.358 238.707 202.128C239.395 201.419 240.142 200.77 240.939 200.187C241.659 199.766 242.424 199.429 243.22 199.182L245.352 198.432C245.547 198.998 245.701 199.578 245.812 200.167C246.05 201.579 245.852 203.056 246.215 204.444C246.534 205.707 247.281 206.812 248.016 207.886L251.156 212.473C250.587 212.34 250.022 212.187 249.461 212.025C248.375 210.379 246.748 209.056 244.823 208.745Z" fill="#3F3D56"/>
<path d="M43.1492 289.174C44.3602 286.951 42.9877 284.223 41.4174 282.242C39.8471 280.261 37.9417 278.207 37.9821 275.669C38.0426 272.038 41.8978 269.895 44.9778 267.966C47.2649 266.539 49.3735 264.845 51.2591 262.919C52.0493 262.178 52.7025 261.304 53.1887 260.336C53.8265 258.916 53.8103 257.302 53.7699 255.748C53.6327 250.567 53.3757 245.391 52.9989 240.218" stroke="#3F3D56" stroke-width="4" stroke-miterlimit="10"/>
<path d="M58.8561 239.936C58.8131 238.987 58.5317 238.065 58.0378 237.254C57.5439 236.443 56.8535 235.769 56.0303 235.295L54.7628 237.805L54.8031 234.767C54.1968 234.589 53.5653 234.513 52.9341 234.541C51.8191 234.596 50.7454 234.98 49.8486 235.645C48.9517 236.309 48.2719 237.224 47.8947 238.275C47.5176 239.325 47.4601 240.463 47.7295 241.546C47.999 242.629 48.5832 243.608 49.4086 244.359C50.2339 245.111 51.2634 245.601 52.3672 245.768C53.471 245.935 54.5996 245.772 55.6106 245.299C56.6216 244.826 57.4698 244.064 58.0481 243.109C58.6264 242.155 58.909 241.05 58.8601 239.936H58.8561Z" fill="#425AF2"/>
<path d="M48.7521 278.263C48.1578 279.415 47.1857 280.327 45.9986 280.847C44.8115 281.367 43.4817 281.464 42.2319 281.12C40.9822 280.777 39.8885 280.015 39.1341 278.961C38.3797 277.908 38.0105 276.627 38.0883 275.334C38.1662 274.041 38.6864 272.814 39.5617 271.858C40.437 270.903 41.6143 270.277 42.8962 270.086C44.1782 269.895 45.4868 270.15 46.6029 270.809C47.719 271.468 48.5747 272.49 49.0266 273.704L45.4863 276.581L49.3818 275.681C49.3804 276.58 49.1645 277.465 48.7521 278.263Z" fill="#425AF2"/>
<path d="M45.955 267.269C44.5473 267.368 43.1534 266.938 42.0472 266.062C40.9411 265.186 40.2029 263.928 39.9777 262.535C39.7525 261.143 40.0567 259.717 40.8304 258.537C41.6041 257.357 42.7913 256.51 44.1586 256.161L44.1263 258.493L45.41 255.955C46.1563 255.916 46.9028 256.026 47.6064 256.278C48.3099 256.53 48.9565 256.918 49.5088 257.422C50.061 257.925 50.5079 258.533 50.8236 259.209C51.1394 259.886 51.3176 260.619 51.3481 261.366C51.3813 262.019 51.2993 262.673 51.1059 263.298C50.7611 264.41 50.0812 265.388 49.1592 266.099C48.2372 266.809 47.1182 267.218 45.955 267.269Z" fill="#425AF2"/>
<path d="M59.7077 258.137C58.8381 258.169 57.9728 258 57.1793 257.642C56.3858 257.285 55.6856 256.75 55.1332 256.077C54.5808 255.405 54.1911 254.615 53.9946 253.767C53.7981 252.92 53.8 252.039 54.0002 251.192C54.2004 250.346 54.5935 249.557 55.1488 248.887C55.7041 248.217 56.4067 247.685 57.2017 247.331C57.9967 246.977 58.8627 246.812 59.7322 246.848C60.6017 246.883 61.4513 247.119 62.2146 247.537L61.2134 250.281L63.2722 248.304C64.3755 249.314 65.0331 250.72 65.1009 252.214C65.1277 252.738 65.0802 253.264 64.9596 253.775C64.6799 254.975 64.0153 256.051 63.0672 256.838C62.119 257.626 60.9392 258.082 59.7077 258.137Z" fill="#425AF2"/>
<path opacity="0.1" d="M58.0929 241.445C56.785 241.586 55.5134 241.994 54.2014 242.074C52.8895 242.155 51.4483 241.844 50.6168 240.823C50.1727 240.275 49.9467 239.581 49.5712 238.979C49.2127 238.421 48.7219 237.959 48.1422 237.636C47.8004 238.35 47.6126 239.128 47.591 239.919C47.5694 240.711 47.7144 241.498 48.0168 242.23C48.3191 242.962 48.772 243.622 49.346 244.167C49.9201 244.713 50.6024 245.132 51.3488 245.397C52.0952 245.662 52.889 245.767 53.6787 245.705C54.4685 245.644 55.2364 245.417 55.9328 245.04C56.6293 244.663 57.2386 244.144 57.7213 243.516C58.204 242.888 58.5493 242.166 58.7347 241.396C58.5194 241.404 58.3055 241.421 58.0929 241.445Z" fill="black"/>
<path opacity="0.1" d="M59.7084 258.137C58.7313 258.187 57.7581 257.982 56.8839 257.543C56.0098 257.104 55.2646 256.445 54.7215 255.632C54.1783 254.818 53.8557 253.878 53.7852 252.903C53.7147 251.927 53.8987 250.95 54.3193 250.067C54.7688 250.369 55.1554 250.756 55.4577 251.205C55.8613 251.815 56.1076 252.521 56.5799 253.077C57.4639 254.114 58.9697 254.453 60.3381 254.393C61.7066 254.332 63.0266 253.941 64.3749 253.816C64.5646 253.816 64.7544 253.788 64.9481 253.784C64.6675 254.98 64.0041 256.053 63.0585 256.839C62.1129 257.624 60.9367 258.08 59.7084 258.137Z" fill="black"/>
<path opacity="0.1" d="M45.9549 267.268C44.9868 267.317 44.0225 267.116 43.1545 266.685C42.2864 266.254 41.5439 265.607 40.9983 264.807C40.4526 264.006 40.1221 263.078 40.0386 262.113C39.9551 261.148 40.1213 260.177 40.5213 259.295C40.9914 259.602 41.4017 259.991 41.7324 260.445C42.1724 261.066 42.4469 261.785 42.9434 262.357C43.9001 263.419 45.5068 263.794 46.9519 263.762C48.3971 263.729 49.7091 263.386 51.1018 263.277C50.7606 264.392 50.0828 265.374 49.1613 266.089C48.2399 266.803 47.1198 267.215 45.9549 267.268Z" fill="black"/>
<path opacity="0.1" d="M48.7523 278.264C48.1394 279.633 47.0074 280.703 45.6053 281.238C44.2033 281.773 42.646 281.729 41.2762 281.116C39.9063 280.504 38.836 279.372 38.3008 277.971C37.7656 276.569 37.8092 275.013 38.4222 273.644C38.8898 273.949 39.3089 274.323 39.6655 274.753C40.2064 275.407 40.5617 276.153 41.1833 276.771C42.3419 277.908 44.2109 278.385 45.8781 278.421C46.8384 278.425 47.7982 278.373 48.7523 278.264Z" fill="black"/>
<path d="M34.6035 286.612C34.6035 286.612 39.0763 286.475 40.4246 285.514C41.7729 284.554 47.2871 283.412 47.6343 284.95C47.9814 286.487 54.3555 292.616 49.3095 292.64C44.2636 292.664 37.5786 291.857 36.2303 291.026C34.8821 290.195 34.6035 286.612 34.6035 286.612Z" fill="#656380"/>
<path opacity="0.2" d="M49.3983 292.107C44.3483 292.148 37.6674 291.3 36.3232 290.493C35.2978 289.868 34.8901 287.633 34.7529 286.6H34.6035C34.6035 286.6 34.8861 290.207 36.2182 291.038C37.5504 291.869 44.2474 292.68 49.2974 292.652C50.7547 292.652 51.2553 292.123 51.227 291.357C51.0373 291.809 50.4802 292.095 49.3983 292.107Z" fill="black"/>
<path d="M416.855 283.679C418.99 279.725 416.568 274.879 413.779 271.348C410.989 267.817 407.595 264.15 407.667 259.647C407.772 253.191 414.631 249.369 420.109 245.948C424.176 243.407 427.927 240.392 431.282 236.966C432.631 235.594 433.931 234.141 434.718 232.374C435.852 229.848 435.82 226.975 435.747 224.207C435.508 214.992 435.051 205.784 434.379 196.584" stroke="#3F3D56" stroke-width="4" stroke-miterlimit="10"/>
<path d="M444.798 196.092C444.72 194.404 444.219 192.763 443.34 191.32C442.461 189.878 441.232 188.679 439.768 187.836L437.511 192.299L437.58 186.896C435.528 186.289 433.335 186.35 431.32 187.07C429.305 187.79 427.571 189.132 426.368 190.902C425.166 192.671 424.557 194.777 424.631 196.915C424.704 199.053 425.456 201.112 426.777 202.795C428.098 204.478 429.92 205.698 431.98 206.278C434.04 206.858 436.231 206.769 438.237 206.023C440.243 205.277 441.959 203.912 443.139 202.127C444.318 200.342 444.899 198.228 444.798 196.092Z" fill="#425AF2"/>
<path d="M426.826 264.275C425.768 266.334 424.034 267.968 421.915 268.901C419.795 269.834 417.419 270.01 415.185 269.4C412.951 268.789 410.996 267.429 409.646 265.548C408.296 263.667 407.635 261.379 407.773 259.068C407.911 256.758 408.84 254.564 410.404 252.857C411.968 251.15 414.072 250.032 416.363 249.692C418.653 249.351 420.992 249.809 422.985 250.987C424.978 252.166 426.505 253.994 427.31 256.165L421.017 261.285L427.94 259.671C427.943 261.273 427.561 262.852 426.826 264.275Z" fill="#425AF2"/>
<path d="M421.865 244.713C419.4 244.81 416.986 244.003 415.077 242.442C413.168 240.882 411.897 238.676 411.503 236.243C411.11 233.81 411.621 231.317 412.941 229.234C414.261 227.152 416.298 225.625 418.667 224.942L418.615 229.094L420.896 224.579H420.924C422.286 224.445 423.661 224.589 424.966 225.004C426.271 225.418 427.477 226.093 428.513 226.988C429.548 227.883 430.39 228.979 430.988 230.21C431.586 231.441 431.928 232.78 431.992 234.147C432.055 235.514 431.84 236.879 431.36 238.16C430.879 239.441 430.143 240.611 429.195 241.599C428.248 242.586 427.11 243.371 425.849 243.905C424.589 244.439 423.233 244.711 421.865 244.705V244.713Z" fill="#425AF2"/>
<path d="M446.315 228.44C444.751 228.523 443.188 228.24 441.752 227.614C440.315 226.989 439.044 226.037 438.04 224.835C437.035 223.634 436.324 222.215 435.963 220.691C435.602 219.167 435.601 217.579 435.96 216.055C436.319 214.53 437.028 213.11 438.032 211.907C439.035 210.704 440.305 209.752 441.74 209.124C443.176 208.497 444.738 208.212 446.303 208.293C447.868 208.373 449.392 208.817 450.756 209.589L448.976 214.467L452.641 210.953C453.615 211.841 454.403 212.912 454.962 214.105C455.521 215.297 455.839 216.589 455.899 217.905C455.944 218.838 455.857 219.772 455.64 220.681C455.138 222.81 453.957 224.718 452.275 226.118C450.593 227.517 448.501 228.332 446.315 228.44Z" fill="#425AF2"/>
<path opacity="0.1" d="M443.441 198.775C441.116 199.029 438.856 199.751 436.518 199.896C434.181 200.042 431.622 199.493 430.144 197.669C429.337 196.693 428.933 195.458 428.279 194.389C427.644 193.397 426.773 192.578 425.744 192.004C425.079 193.283 424.696 194.691 424.621 196.131C424.546 197.571 424.781 199.01 425.31 200.352C425.838 201.693 426.649 202.906 427.686 203.908C428.723 204.91 429.963 205.679 431.323 206.161C432.682 206.644 434.129 206.829 435.567 206.705C437.004 206.581 438.398 206.151 439.655 205.443C440.912 204.735 442.002 203.766 442.852 202.601C443.702 201.436 444.293 200.102 444.584 198.69C444.2 198.706 443.821 198.734 443.441 198.775Z" fill="black"/>
<path opacity="0.1" d="M446.316 228.44C444.579 228.518 442.852 228.147 441.302 227.362C439.751 226.577 438.43 225.405 437.466 223.96C436.501 222.514 435.927 220.845 435.797 219.112C435.668 217.38 435.989 215.643 436.728 214.071C437.525 214.607 438.21 215.292 438.747 216.089C439.465 217.174 439.897 218.425 440.765 219.418C442.331 221.266 445.016 221.867 447.446 221.758C449.876 221.649 452.226 220.951 454.652 220.733C454.987 220.705 455.326 220.681 455.665 220.673C455.163 222.807 453.979 224.72 452.292 226.121C450.605 227.523 448.507 228.337 446.316 228.44Z" fill="black"/>
<path opacity="0.1" d="M421.864 244.713C420.144 244.793 418.432 244.432 416.89 243.664C415.349 242.896 414.03 241.746 413.059 240.325C412.088 238.903 411.497 237.257 411.343 235.542C411.188 233.828 411.475 232.103 412.176 230.53C413.004 231.079 413.725 231.773 414.303 232.58C415.086 233.686 415.575 234.957 416.491 235.973C418.195 237.866 421.053 238.536 423.628 238.475C426.123 238.419 428.525 237.805 431.008 237.616C430.396 239.594 429.191 241.335 427.555 242.605C425.92 243.875 423.933 244.611 421.864 244.713Z" fill="black"/>
<path opacity="0.1" d="M426.825 264.275C425.618 266.521 423.605 268.227 421.191 269.049C418.777 269.872 416.141 269.75 413.813 268.709C411.484 267.668 409.637 265.784 408.642 263.436C407.647 261.089 407.579 258.452 408.45 256.056C409.28 256.6 410.026 257.263 410.662 258.025C411.619 259.195 412.252 260.518 413.359 261.608C415.421 263.625 418.748 264.46 421.707 264.537C423.416 264.55 425.126 264.462 426.825 264.275Z" fill="black"/>
<path d="M401.656 279.119C401.656 279.119 409.609 278.873 412.007 277.166C414.404 275.459 424.242 273.422 424.839 276.158C425.437 278.893 436.792 289.772 427.811 289.84C418.829 289.909 406.944 288.444 404.551 286.987C402.157 285.531 401.656 279.119 401.656 279.119Z" fill="#656380"/>
<path opacity="0.2" d="M427.972 288.896C418.99 288.969 407.106 287.5 404.712 286.043C402.892 284.934 402.165 280.951 401.919 279.115H401.656C401.656 279.115 402.157 285.527 404.551 286.983C406.944 288.44 418.833 289.909 427.811 289.836C430.406 289.816 431.298 288.896 431.25 287.528C430.891 288.367 429.902 288.884 427.972 288.896Z" fill="black"/>
<path d="M213.895 115.208H210.759V118.457H209.48V110.837H214.439V111.86H210.759V114.188H213.877L213.895 115.208Z" fill="#425AF2"/>
<path d="M216.684 111.406H215.392V110.295H216.684V111.406ZM216.684 118.457H215.392V112.794H216.684V118.457Z" fill="#425AF2"/>
<path d="M217.862 115.689C217.824 114.918 218.031 114.156 218.454 113.507C218.637 113.242 218.886 113.029 219.176 112.886C219.467 112.742 219.789 112.674 220.114 112.688C220.431 112.683 220.743 112.758 221.022 112.906C221.289 113.06 221.516 113.274 221.683 113.53L221.812 112.794H222.886V118.457C222.904 118.771 222.851 119.086 222.732 119.377C222.612 119.669 222.428 119.931 222.193 120.145C221.641 120.574 220.947 120.787 220.246 120.741C219.94 120.739 219.637 120.7 219.341 120.626C219.037 120.554 218.741 120.449 218.461 120.312L218.666 119.313C218.9 119.427 219.148 119.512 219.404 119.569C219.676 119.63 219.955 119.661 220.235 119.661C220.607 119.696 220.979 119.589 221.275 119.364C221.391 119.244 221.48 119.101 221.536 118.945C221.592 118.789 221.614 118.622 221.6 118.457V117.874C221.431 118.093 221.211 118.269 220.959 118.389C220.694 118.512 220.404 118.572 220.11 118.566C219.794 118.581 219.479 118.519 219.192 118.387C218.905 118.254 218.655 118.055 218.465 117.806C218.046 117.226 217.838 116.525 217.872 115.815L217.862 115.689ZM219.151 115.801C219.127 116.238 219.235 116.672 219.459 117.049C219.564 117.204 219.709 117.33 219.88 117.412C220.05 117.494 220.24 117.53 220.429 117.516C220.672 117.522 220.911 117.463 221.122 117.346C221.318 117.227 221.477 117.058 221.583 116.858V114.39C221.469 114.194 221.31 114.028 221.119 113.905C220.909 113.784 220.669 113.723 220.426 113.732C220.227 113.721 220.029 113.767 219.856 113.863C219.683 113.96 219.541 114.104 219.449 114.277C219.223 114.718 219.116 115.209 219.137 115.702L219.151 115.801Z" fill="#425AF2"/>
<path d="M225.491 113.527C225.669 113.271 225.907 113.059 226.184 112.91C226.464 112.761 226.777 112.685 227.095 112.688C227.361 112.674 227.627 112.718 227.873 112.816C228.12 112.915 228.342 113.065 228.523 113.258C228.867 113.637 229.038 114.22 229.035 115.007V118.457H227.736V115.007C227.766 114.665 227.673 114.323 227.473 114.042C227.373 113.937 227.251 113.856 227.116 113.804C226.98 113.752 226.835 113.731 226.69 113.742C226.443 113.736 226.197 113.785 225.972 113.885C225.776 113.975 225.605 114.112 225.477 114.284V118.457H224.185V110.295H225.477L225.491 113.527Z" fill="#425AF2"/>
<path d="M231.929 111.42V112.784H232.969V113.725H231.929V116.855C231.92 116.944 231.928 117.034 231.955 117.12C231.981 117.206 232.024 117.286 232.082 117.356C232.136 117.406 232.201 117.445 232.271 117.47C232.341 117.495 232.416 117.506 232.49 117.502C232.56 117.509 232.629 117.509 232.698 117.502C232.763 117.491 232.827 117.474 232.889 117.451L233.028 118.385C232.904 118.448 232.772 118.494 232.636 118.522C232.483 118.556 232.326 118.574 232.168 118.573C231.963 118.584 231.757 118.554 231.565 118.483C231.372 118.412 231.196 118.302 231.049 118.16C230.746 117.801 230.599 117.337 230.64 116.872V113.735H229.764V112.794H230.64V111.43L231.929 111.42Z" fill="#425AF2"/>
<path d="M235.667 115.566V118.457H234.375V110.837H237.341C238.07 110.795 238.789 111.028 239.35 111.488C239.58 111.713 239.762 111.981 239.886 112.275C240.011 112.57 240.075 112.886 240.075 113.205C240.075 113.524 240.011 113.839 239.886 114.134C239.762 114.429 239.58 114.696 239.35 114.921C238.787 115.378 238.069 115.608 237.341 115.566H235.667ZM235.667 114.543H237.341C237.538 114.557 237.735 114.531 237.921 114.467C238.107 114.402 238.278 114.3 238.422 114.168C238.659 113.904 238.783 113.561 238.768 113.21C238.781 113.023 238.752 112.835 238.683 112.66C238.615 112.486 238.508 112.328 238.37 112.198C238.233 112.068 238.069 111.969 237.888 111.908C237.708 111.847 237.516 111.826 237.327 111.846H235.654L235.667 114.543Z" fill="#425AF2"/>
<path d="M244.118 118.457C244.074 118.314 244.036 118.174 244.003 118.038C243.973 117.903 243.952 117.766 243.941 117.629C243.765 117.904 243.528 118.137 243.248 118.31C242.957 118.489 242.621 118.583 242.278 118.58C241.773 118.613 241.275 118.449 240.892 118.123C240.728 117.959 240.601 117.764 240.518 117.549C240.435 117.334 240.398 117.105 240.41 116.875C240.401 116.624 240.457 116.374 240.573 116.15C240.689 115.926 240.86 115.734 241.072 115.593C241.628 115.258 242.275 115.098 242.926 115.136H243.931V114.625C243.937 114.499 243.916 114.374 243.871 114.257C243.826 114.14 243.756 114.033 243.667 113.943C243.564 113.853 243.443 113.785 243.312 113.741C243.181 113.698 243.043 113.681 242.905 113.691C242.657 113.68 242.412 113.753 242.212 113.899C242.128 113.961 242.061 114.042 242.015 114.135C241.969 114.228 241.947 114.331 241.949 114.434H240.705V114.403C240.699 114.171 240.751 113.941 240.857 113.734C240.962 113.526 241.119 113.347 241.311 113.213C241.789 112.853 242.38 112.667 242.981 112.688C243.566 112.661 244.141 112.84 244.603 113.193C244.812 113.37 244.976 113.593 245.083 113.843C245.19 114.093 245.237 114.364 245.22 114.635V117.151C245.219 117.379 245.235 117.607 245.268 117.833C245.3 118.048 245.352 118.259 245.424 118.464L244.118 118.457ZM242.538 117.547C242.848 117.55 243.152 117.466 243.414 117.305C243.641 117.18 243.822 116.988 243.931 116.756V115.917H242.891C242.572 115.899 242.258 115.997 242.008 116.193C241.91 116.271 241.83 116.369 241.775 116.48C241.72 116.592 241.69 116.714 241.689 116.838C241.684 116.934 241.701 117.029 241.738 117.118C241.775 117.207 241.832 117.287 241.904 117.352C242.082 117.495 242.309 117.565 242.538 117.547Z" fill="#425AF2"/>
<path d="M247.722 112.794L247.798 113.612C247.969 113.333 248.207 113.099 248.491 112.93C248.785 112.765 249.119 112.68 249.457 112.685C249.715 112.672 249.972 112.715 250.211 112.809C250.45 112.903 250.666 113.047 250.843 113.23C251.19 113.592 251.346 114.161 251.346 114.935V118.457H250.053V114.945C250.087 114.612 249.994 114.278 249.794 114.008C249.689 113.911 249.565 113.836 249.43 113.788C249.294 113.741 249.15 113.721 249.007 113.731C248.759 113.725 248.513 113.778 248.29 113.885C248.102 113.991 247.944 114.142 247.832 114.325V118.457H246.54V112.794H247.722Z" fill="#425AF2"/>
<path d="M252.461 115.689C252.425 114.919 252.631 114.157 253.05 113.507C253.232 113.24 253.48 113.024 253.77 112.878C254.061 112.733 254.384 112.663 254.71 112.675C255 112.671 255.288 112.736 255.548 112.862C255.8 112.99 256.019 113.172 256.189 113.394V110.295H257.482V118.457H256.442L256.279 117.734C256.108 117.99 255.878 118.201 255.607 118.352C255.328 118.496 255.015 118.569 254.699 118.563C254.382 118.577 254.067 118.516 253.779 118.383C253.492 118.251 253.242 118.052 253.05 117.803C252.634 117.222 252.427 116.521 252.461 115.811V115.689ZM253.753 115.801C253.733 116.24 253.843 116.674 254.069 117.053C254.174 117.208 254.319 117.333 254.49 117.415C254.66 117.497 254.85 117.533 255.039 117.52C255.282 117.528 255.522 117.467 255.732 117.346C255.929 117.225 256.09 117.056 256.2 116.855V114.397C256.088 114.197 255.927 114.028 255.732 113.906C255.522 113.784 255.282 113.724 255.039 113.732C254.841 113.722 254.644 113.768 254.471 113.864C254.298 113.961 254.158 114.104 254.065 114.277C253.84 114.718 253.732 115.209 253.753 115.702V115.801Z" fill="#425AF2"/>
<path d="M261.266 118.566C260.899 118.586 260.533 118.526 260.193 118.39C259.853 118.255 259.547 118.047 259.298 117.782C258.804 117.222 258.545 116.498 258.573 115.757V115.546C258.546 114.801 258.799 114.072 259.284 113.5C259.507 113.238 259.787 113.029 260.104 112.89C260.421 112.751 260.766 112.684 261.113 112.695C261.441 112.673 261.77 112.725 262.075 112.848C262.379 112.97 262.651 113.159 262.87 113.401C263.29 113.939 263.501 114.606 263.466 115.283V115.965H259.921V115.989C259.917 116.396 260.047 116.793 260.292 117.121C260.422 117.268 260.584 117.383 260.767 117.458C260.95 117.533 261.148 117.564 261.345 117.55C261.654 117.557 261.962 117.514 262.257 117.424C262.512 117.338 262.752 117.213 262.967 117.053L263.386 117.885C263.129 118.096 262.834 118.258 262.516 118.362C262.115 118.501 261.691 118.57 261.266 118.566ZM261.127 113.711C260.975 113.704 260.823 113.731 260.683 113.79C260.543 113.849 260.419 113.939 260.32 114.052C260.107 114.329 259.982 114.661 259.959 115.007V115.031H262.208V114.932C262.222 114.619 262.132 114.31 261.952 114.052C261.853 113.934 261.726 113.841 261.582 113.781C261.439 113.722 261.282 113.698 261.127 113.711Z" fill="#425AF2"/>
<path d="M265.729 112.794L265.798 113.53C265.976 113.273 266.214 113.06 266.491 112.91C266.796 112.758 267.133 112.681 267.475 112.688C267.816 112.679 268.153 112.767 268.445 112.941C268.724 113.121 268.936 113.386 269.051 113.694C269.214 113.394 269.453 113.14 269.744 112.958C270.052 112.774 270.407 112.681 270.767 112.688C271.031 112.676 271.294 112.726 271.535 112.832C271.777 112.939 271.989 113.1 272.156 113.302C272.531 113.825 272.708 114.461 272.658 115.099V118.474H271.366V115.075C271.401 114.709 271.312 114.342 271.113 114.032C271.019 113.928 270.902 113.847 270.771 113.795C270.64 113.743 270.499 113.721 270.358 113.732C270.108 113.725 269.864 113.802 269.665 113.95C269.47 114.103 269.325 114.309 269.249 114.543C269.249 114.594 269.249 114.638 269.249 114.679C269.249 114.72 269.249 114.754 269.249 114.788V118.457H267.957V115.075C267.988 114.715 267.898 114.356 267.7 114.052C267.607 113.946 267.49 113.862 267.358 113.808C267.227 113.753 267.084 113.729 266.941 113.738C266.71 113.73 266.481 113.782 266.276 113.888C266.098 113.984 265.95 114.127 265.85 114.301V118.457H264.558V112.794H265.729Z" fill="#425AF2"/>
<path d="M275.319 111.406H274.026V110.295H275.319V111.406ZM275.319 118.457H274.026V112.794H275.319V118.457Z" fill="#425AF2"/>
<path d="M279.054 117.55C279.329 117.556 279.595 117.459 279.799 117.278C279.897 117.193 279.976 117.088 280.028 116.97C280.081 116.852 280.107 116.724 280.104 116.596H281.275V116.626C281.281 116.887 281.227 117.145 281.116 117.382C281.005 117.618 280.84 117.826 280.634 117.99C280.198 118.374 279.629 118.58 279.044 118.566C278.682 118.587 278.321 118.525 277.987 118.385C277.654 118.245 277.359 118.03 277.124 117.758C276.659 117.177 276.419 116.452 276.449 115.713V115.529C276.419 114.789 276.659 114.064 277.124 113.483C277.358 113.211 277.652 112.997 277.984 112.856C278.316 112.715 278.676 112.652 279.037 112.671C279.34 112.663 279.641 112.715 279.923 112.823C280.205 112.931 280.462 113.094 280.679 113.302C280.885 113.495 281.046 113.73 281.151 113.99C281.256 114.25 281.302 114.53 281.286 114.809V114.843H280.115C280.123 114.553 280.019 114.27 279.823 114.052C279.73 113.942 279.613 113.855 279.48 113.796C279.348 113.737 279.203 113.708 279.058 113.711C278.858 113.695 278.658 113.736 278.482 113.83C278.305 113.923 278.16 114.064 278.063 114.236C277.851 114.637 277.747 115.084 277.762 115.535V115.72C277.745 116.174 277.848 116.625 278.06 117.029C278.159 117.199 278.305 117.338 278.481 117.43C278.657 117.522 278.856 117.564 279.054 117.55Z" fill="#425AF2"/>
<path d="M285.558 116.906C285.558 116.811 285.536 116.718 285.492 116.633C285.448 116.549 285.383 116.476 285.305 116.422C285.012 116.249 284.689 116.133 284.352 116.081C283.796 115.993 283.266 115.787 282.8 115.477C282.628 115.357 282.488 115.197 282.395 115.01C282.301 114.824 282.256 114.618 282.263 114.41C282.263 114.176 282.318 113.944 282.424 113.734C282.53 113.523 282.683 113.339 282.872 113.196C283.33 112.842 283.902 112.662 284.484 112.688C285.084 112.66 285.674 112.845 286.147 113.21C286.342 113.357 286.498 113.547 286.603 113.765C286.708 113.984 286.758 114.223 286.75 114.465V114.496H285.509C285.51 114.382 285.486 114.27 285.438 114.166C285.391 114.063 285.322 113.97 285.235 113.895C285.03 113.721 284.765 113.631 284.494 113.643C284.245 113.628 283.999 113.702 283.801 113.851C283.723 113.913 283.661 113.992 283.618 114.081C283.576 114.17 283.554 114.267 283.555 114.366C283.552 114.455 283.572 114.544 283.612 114.624C283.652 114.704 283.711 114.773 283.784 114.826C284.075 114.987 284.395 115.091 284.726 115.133C285.297 115.219 285.841 115.429 286.32 115.747C286.492 115.872 286.63 116.037 286.724 116.226C286.817 116.415 286.863 116.624 286.857 116.834C286.856 117.079 286.795 117.32 286.678 117.536C286.562 117.752 286.394 117.937 286.188 118.075C285.696 118.417 285.102 118.587 284.501 118.56C283.859 118.596 283.228 118.394 282.73 117.994C282.534 117.841 282.376 117.646 282.269 117.424C282.162 117.202 282.109 116.958 282.114 116.712V116.681H283.316C283.31 116.819 283.338 116.957 283.399 117.081C283.459 117.206 283.55 117.315 283.662 117.397C283.91 117.553 284.2 117.631 284.494 117.622C284.763 117.639 285.031 117.572 285.26 117.431C285.352 117.377 285.428 117.3 285.48 117.208C285.533 117.116 285.559 117.012 285.558 116.906Z" fill="#425AF2"/>
<path d="M194.162 125C199.775 125 204.325 120.523 204.325 115C204.325 109.477 199.775 105 194.162 105C188.55 105 184 109.477 184 115C184 120.523 188.55 125 194.162 125Z" fill="#425AF2"/>
<path d="M202.118 115.006C202.307 114.669 202.453 114.309 202.551 113.936C202.729 113.265 202.751 112.563 202.614 111.883C202.477 111.203 202.185 110.562 201.76 110.009C201.335 109.456 200.789 109.004 200.161 108.689C199.534 108.374 198.842 108.202 198.137 108.188C197.719 107.52 197.135 106.969 196.439 106.586C195.743 106.204 194.96 106.003 194.163 106.003C193.366 106.003 192.583 106.204 191.887 106.586C191.191 106.969 190.607 107.52 190.189 108.188C189.385 108.204 188.599 108.425 187.908 108.829C187.216 109.232 186.642 109.805 186.242 110.491C185.842 111.177 185.629 111.954 185.623 112.745C185.618 113.536 185.82 114.315 186.211 115.006C185.821 115.697 185.618 116.476 185.623 117.267C185.628 118.057 185.841 118.833 186.24 119.519C186.64 120.205 187.212 120.778 187.903 121.182C188.594 121.586 189.379 121.808 190.182 121.825C190.598 122.499 191.183 123.055 191.881 123.441C192.579 123.827 193.366 124.03 194.166 124.03C194.967 124.03 195.754 123.827 196.452 123.441C197.15 123.055 197.735 122.499 198.151 121.825C198.953 121.804 199.735 121.58 200.424 121.175C201.112 120.77 201.683 120.198 202.082 119.513C202.48 118.828 202.693 118.054 202.699 117.264C202.706 116.475 202.506 115.698 202.118 115.006ZM201.751 110.629C202.038 111.107 202.226 111.638 202.303 112.188C202.381 112.739 202.346 113.3 202.201 113.837C202.127 114.114 202.025 114.382 201.896 114.638C201.507 114.079 200.994 113.613 200.396 113.274C199.781 112.92 199.091 112.709 198.38 112.657L198.355 112.62C198.673 111.989 198.839 111.294 198.839 110.59C198.839 109.885 198.673 109.19 198.355 108.559C199.049 108.608 199.721 108.822 200.312 109.182C200.904 109.543 201.397 110.039 201.751 110.629ZM197.94 121.464C197.221 121.446 196.518 121.252 195.895 120.898C195.272 120.544 194.749 120.043 194.374 119.439C194.419 119.36 194.461 119.282 194.503 119.2C195.215 119.149 195.906 118.938 196.523 118.583C197.066 118.268 197.537 117.847 197.908 117.345C198.261 117.971 198.446 118.675 198.446 119.391C198.446 120.107 198.261 120.811 197.908 121.437L197.94 121.464ZM189.877 119.418C189.876 118.703 190.061 117.998 190.414 117.373C190.814 117.902 191.325 118.341 191.913 118.659C192.501 118.976 193.151 119.166 193.82 119.214C193.858 119.296 193.903 119.377 193.945 119.456C193.57 120.055 193.049 120.553 192.428 120.903C191.808 121.254 191.108 121.445 190.393 121.461C190.042 120.834 189.86 120.13 189.863 119.415L189.877 119.418ZM190.4 108.528C191.013 108.542 191.616 108.685 192.168 108.948C192.719 109.211 193.207 109.588 193.598 110.053C192.903 110.137 192.237 110.374 191.647 110.745C191.058 111.117 190.56 111.614 190.192 112.2C189.975 111.685 189.863 111.132 189.863 110.574C189.862 109.858 190.047 109.154 190.4 108.528ZM191.991 110.959C192.56 110.63 193.199 110.435 193.858 110.39C193.889 110.438 193.92 110.486 193.948 110.533C193.379 111.555 193.223 112.751 193.512 113.881C192.667 113.095 191.556 112.645 190.393 112.62V112.596C190.767 111.923 191.319 111.363 191.991 110.973V110.959ZM198.466 110.574C198.463 111.134 198.345 111.687 198.12 112.2C197.499 111.192 196.506 110.459 195.348 110.155C195.143 110.103 194.934 110.064 194.724 110.039C195.046 109.668 195.43 109.354 195.861 109.111C196.491 108.744 197.207 108.543 197.94 108.528C198.289 109.155 198.47 109.859 198.466 110.574ZM194.066 118.859C193.832 118.306 193.72 117.71 193.737 117.111C193.755 116.513 193.901 115.924 194.166 115.385C194.431 115.925 194.576 116.513 194.592 117.112C194.608 117.711 194.495 118.307 194.26 118.859H194.066ZM194.166 114.611C193.884 114.037 193.738 113.408 193.738 112.77C193.738 112.132 193.884 111.503 194.166 110.929C194.448 111.503 194.594 112.132 194.594 112.77C194.594 113.407 194.448 114.037 194.166 114.611ZM192.871 115.006C191.882 115.294 191.016 115.893 190.407 116.711C189.863 115.758 189.717 114.634 190.002 113.578C190.054 113.391 190.119 113.208 190.196 113.029C190.809 113.99 191.762 114.694 192.871 115.006ZM190.639 113.015C191.271 113.065 191.885 113.251 192.435 113.562C192.985 113.873 193.458 114.3 193.82 114.812C193.187 114.761 192.574 114.572 192.025 114.261C191.475 113.949 191.002 113.521 190.639 113.009V113.015ZM193.816 115.204C193.235 116.027 192.376 116.619 191.391 116.875C191.148 116.936 190.9 116.977 190.65 116.998C191.01 116.487 191.481 116.061 192.029 115.749C192.576 115.438 193.187 115.25 193.816 115.197V115.204ZM191.474 117.223C192.237 117.029 192.937 116.646 193.508 116.111C193.277 117.015 193.331 117.966 193.661 118.839C192.566 118.712 191.562 118.176 190.858 117.342C191.066 117.315 191.272 117.273 191.474 117.216V117.223ZM194.821 116.094C195.551 116.775 196.484 117.207 197.482 117.325C196.778 118.166 195.769 118.706 194.669 118.832C195 117.955 195.053 117.001 194.821 116.094ZM194.52 115.197C195.148 115.248 195.757 115.435 196.304 115.743C196.851 116.052 197.322 116.476 197.683 116.984C197.055 116.933 196.445 116.746 195.898 116.437C195.351 116.128 194.879 115.705 194.516 115.197H194.52ZM195.459 115.006C196.571 114.69 197.525 113.978 198.134 113.009C198.383 113.599 198.493 114.237 198.456 114.876C198.419 115.514 198.235 116.136 197.919 116.694C197.308 115.882 196.444 115.29 195.459 115.006ZM194.509 114.812C194.873 114.302 195.346 113.877 195.895 113.568C196.444 113.258 197.056 113.072 197.687 113.022C197.323 113.531 196.849 113.954 196.3 114.262C195.751 114.571 195.14 114.756 194.509 114.805V114.812ZM195.254 110.54C195.801 110.68 196.315 110.925 196.765 111.26C197.215 111.596 197.593 112.017 197.877 112.497C197.902 112.535 197.922 112.576 197.943 112.613V112.644C196.78 112.67 195.669 113.121 194.825 113.909C195.115 112.775 194.957 111.576 194.381 110.554C194.412 110.506 194.44 110.458 194.475 110.411C194.738 110.429 194.999 110.47 195.254 110.533V110.54ZM190.133 116.946C190.145 116.967 190.158 116.986 190.172 117.004C189.46 116.984 188.765 116.791 188.148 116.443C187.53 116.094 187.01 115.601 186.634 115.006C186.974 114.464 187.435 114.004 187.981 113.661C188.528 113.319 189.147 113.103 189.79 113.029C189.549 113.666 189.455 114.348 189.514 115.026C189.574 115.703 189.785 116.359 190.133 116.946ZM198.539 113.029C199.183 113.101 199.801 113.317 200.347 113.66C200.894 114.002 201.354 114.463 201.692 115.006C201.318 115.6 200.8 116.094 200.184 116.443C199.569 116.791 198.875 116.984 198.165 117.004C198.526 116.412 198.748 115.747 198.812 115.059C198.877 114.371 198.784 113.677 198.539 113.029ZM194.163 106.353C194.86 106.354 195.546 106.522 196.163 106.841C196.78 107.161 197.309 107.623 197.704 108.188C197.031 108.234 196.377 108.424 195.786 108.744C195.195 109.063 194.682 109.505 194.281 110.039H194.042C193.668 109.543 193.196 109.125 192.656 108.811C192.036 108.451 191.34 108.238 190.622 108.188C191.017 107.622 191.546 107.16 192.162 106.84C192.779 106.521 193.466 106.354 194.163 106.353ZM186.578 110.636C186.931 110.044 187.423 109.546 188.014 109.183C188.605 108.82 189.276 108.604 189.971 108.552C189.654 109.185 189.49 109.881 189.49 110.586C189.49 111.291 189.654 111.987 189.971 112.62L189.953 112.654C189.251 112.702 188.57 112.907 187.96 113.253C187.35 113.598 186.828 114.075 186.433 114.648C186.117 114.02 185.965 113.324 185.991 112.624C186.016 111.923 186.218 111.24 186.578 110.636ZM186.578 119.36C186.218 118.756 186.016 118.072 185.991 117.372C185.965 116.671 186.117 115.976 186.433 115.347C186.831 115.927 187.359 116.41 187.975 116.759C188.592 117.107 189.282 117.313 189.991 117.359C189.666 117.993 189.496 118.694 189.496 119.405C189.493 120.111 189.656 120.809 189.971 121.444C189.276 121.393 188.604 121.176 188.013 120.814C187.423 120.451 186.93 119.952 186.578 119.36ZM194.163 123.65C193.466 123.65 192.78 123.485 192.162 123.167C191.545 122.849 191.015 122.389 190.618 121.825C191.329 121.773 192.017 121.562 192.632 121.207C193.246 120.853 193.77 120.364 194.163 119.78C194.551 120.355 195.07 120.835 195.677 121.181C196.292 121.549 196.987 121.769 197.704 121.825C197.308 122.389 196.779 122.849 196.162 123.167C195.545 123.485 194.859 123.65 194.163 123.65ZM201.751 119.367C201.467 119.848 201.089 120.269 200.639 120.605C200.189 120.94 199.675 121.185 199.128 121.324C198.874 121.391 198.614 121.434 198.352 121.45C198.674 120.815 198.842 120.115 198.842 119.405C198.842 118.695 198.674 117.994 198.352 117.359C199.058 117.309 199.744 117.102 200.357 116.753C200.971 116.405 201.496 115.924 201.893 115.347C202.022 115.604 202.124 115.872 202.198 116.149C202.344 116.687 202.38 117.25 202.304 117.802C202.227 118.355 202.039 118.887 201.751 119.367Z" fill="white"/>
</g>
<defs>
<clipPath id="clip0">
<rect width="478" height="300" fill="white"/>
</clipPath>
</defs>
</svg>
