<svg xmlns="http://www.w3.org/2000/svg" width="50" height="45" fill="none" viewBox="0 0 50 45">
    <path fill="#425AF2" fill-rule="evenodd" d="M5.197 44.166h39.108c4 0 6.492-4.337 4.493-7.79L29.244 2.59c-2-3.453-6.986-3.453-8.985 0L.705 36.375c-2 3.454.493 7.79 4.492 7.79zm19.554-18.178c-1.428 0-2.596-1.169-2.596-2.597v-5.193c0-1.429 1.168-2.597 2.596-2.597 1.429 0 2.597 1.168 2.597 2.597v5.193c0 1.428-1.168 2.597-2.596 2.597zm-2.596 10.387h5.193v-5.193h-5.193v5.193z" clip-rule="evenodd"/>
</svg>
