<svg width="36" height="36" viewBox="0 0 36 36" fill="none" xmlns="http://www.w3.org/2000/svg">
<path fill-rule="evenodd" clip-rule="evenodd" d="M36 18C36 27.9411 27.9411 36 18 36C8.05888 36 0 27.9411 0 18C0 8.05887 8.05888 0 18 0C27.9411 0 36 8.05887 36 18Z" fill="#FF9C0D"/>
<path d="M25 14C25.56 14 26 14.43 26 15C26 15.2652 25.8946 15.5196 25.7071 15.7071C25.5196 15.8946 25.2652 16 25 16C24.43 16 24 15.55 24 15C24 14.43 24.43 14 25 14ZM8 8V17C8 19.96 10.19 22.5 13.14 22.91C13.76 25.92 16.42 28 19.5 28C20.3536 28 21.1988 27.8319 21.9874 27.5052C22.7761 27.1786 23.4926 26.6998 24.0962 26.0962C24.6998 25.4926 25.1786 24.7761 25.5052 23.9874C25.8319 23.1988 26 22.3536 26 21.5V17.81C27.16 17.39 28 16.29 28 15C28 14.2044 27.6839 13.4413 27.1213 12.8787C26.5587 12.3161 25.7956 12 25 12C24.2044 12 23.4413 12.3161 22.8787 12.8787C22.3161 13.4413 22 14.2044 22 15C22 16.29 22.84 17.4 24 17.81V21.41C24 23.91 22 25.91 19.5 25.91C17.5 25.91 15.82 24.7 15.22 22.9C18 22.3 20 19.8 20 17V8H16V11H18V17C18 18.0609 17.5786 19.0783 16.8284 19.8284C16.0783 20.5786 15.0609 21 14 21C12.9391 21 11.9217 20.5786 11.1716 19.8284C10.4214 19.0783 10 18.0609 10 17V11H12V8H8Z" fill="white"/>
</svg>
