<svg
    width="12"
    height="8"
    viewBox="0 0 12 8"
    fill="none"
    xmlns="http://www.w3.org/2000/svg"
>
    <path
    fill-rule="evenodd"
    clip-rule="evenodd"
    d="M1.1551 1.1204C1.34749 0.947178 1.64388 0.962711 1.8171 1.1551L6.04475 5.85038L10.2724 1.1551C10.4456 0.962711 10.742 0.947178 10.9344 1.1204C11.1268 1.29363 11.1423 1.59002 10.9691 1.78241L6.41085 6.84485C6.31406 6.95235 6.17882 7.00463 6.04475 6.99962C5.91068 7.00463 5.77544 6.95235 5.67865 6.84485L1.1204 1.78241C0.947178 1.59002 0.962711 1.29363 1.1551 1.1204Z"
    fill="#425af2"
    />
    <path
    d="M1.8171 1.1551L1.44553 1.48966L1.44553 1.48966L1.8171 1.1551ZM1.1551 1.1204L1.48966 1.49198L1.1551 1.1204ZM6.04475 5.85038L5.67318 6.18494L6.04475 6.59762L6.41632 6.18494L6.04475 5.85038ZM10.2724 1.1551L9.90083 0.820533V0.820534L10.2724 1.1551ZM10.9344 1.1204L11.269 0.748833L11.269 0.748832L10.9344 1.1204ZM10.9691 1.78241L10.5975 1.44784V1.44784L10.9691 1.78241ZM6.41085 6.84485L6.03928 6.51029L6.41085 6.84485ZM6.04475 6.99962L6.06342 6.49997L6.04475 6.49927L6.02608 6.49997L6.04475 6.99962ZM5.67865 6.84485L6.05022 6.51029L5.67865 6.84485ZM1.1204 1.78241L0.748832 2.11697H0.748832L1.1204 1.78241ZM2.18868 0.820534C1.83067 0.422932 1.21814 0.390831 0.820534 0.748833L1.48966 1.49198C1.47684 1.50353 1.45708 1.50249 1.44553 1.48966L2.18868 0.820534ZM6.41632 5.51581L2.18868 0.820534L1.44553 1.48966L5.67318 6.18494L6.41632 5.51581ZM6.41632 6.18494L10.644 1.48966L9.90083 0.820534L5.67318 5.51581L6.41632 6.18494ZM10.644 1.48966C10.6324 1.50249 10.6127 1.50353 10.5998 1.49198L11.269 0.748832C10.8714 0.390831 10.2588 0.422932 9.90083 0.820533L10.644 1.48966ZM10.5998 1.49198C10.587 1.48043 10.586 1.46067 10.5975 1.44784L11.3407 2.11697C11.6987 1.71937 11.6666 1.10683 11.269 0.748833L10.5998 1.49198ZM10.5975 1.44784L6.03928 6.51029L6.78242 7.17942L11.3407 2.11697L10.5975 1.44784ZM6.03928 6.51029C6.0419 6.50738 6.04605 6.5043 6.05092 6.50229C6.05532 6.50047 6.05952 6.49983 6.06342 6.49997L6.02608 7.49928C6.30193 7.50958 6.58228 7.4017 6.78242 7.17942L6.03928 6.51029ZM5.30708 7.17942C5.50722 7.4017 5.78758 7.50958 6.06342 7.49928L6.02608 6.49997C6.02999 6.49983 6.03418 6.50047 6.03858 6.50229C6.04345 6.5043 6.04761 6.50738 6.05022 6.51029L5.30708 7.17942ZM0.748832 2.11697L5.30708 7.17942L6.05022 6.51029L1.49198 1.44784L0.748832 2.11697ZM0.820534 0.748833C0.422932 1.10683 0.39083 1.71937 0.748832 2.11697L1.49198 1.44784C1.50353 1.46067 1.50249 1.48043 1.48966 1.49198L0.820534 0.748833Z"
    fill="#425af2"
    />
</svg>