<svg xmlns="http://www.w3.org/2000/svg" xmlns:xlink="http://www.w3.org/1999/xlink" width="22" height="22" viewBox="0 0 22 22"><defs><clipPath id="b"><rect width="22" height="22"/></clipPath></defs><g id="a" clip-path="url(#b)"><g transform="translate(-76.026 -119.539)"><path d="M86.925,133.241a2.826,2.826,0,0,0,2.826-2.826c0-.083,0-.165-.011-.246l-3.061,3.061C86.76,133.238,86.842,133.241,86.925,133.241Zm9.354-11.567L95.2,120.6a.2.2,0,0,0-.285,0l-2.758,2.759a11.112,11.112,0,0,0-5.131-1.166q-7.274,0-10.854,7.577a1.521,1.521,0,0,0,0,1.3,15.146,15.146,0,0,0,3.445,4.83l-2.669,2.668a.2.2,0,0,0,0,.285l1.077,1.077a.2.2,0,0,0,.285,0L96.278,121.96a.2.2,0,0,0,0-.286Zm-13.794,8.741a4.441,4.441,0,0,1,6.532-3.918l-1.227,1.227a2.828,2.828,0,0,0-3.556,3.556l-1.227,1.227A4.418,4.418,0,0,1,82.484,130.416Z" transform="translate(0 0)" fill="#b8c2f8"/><path d="M338.37,309.426a15.483,15.483,0,0,0-3.171-4.576l-3.637,3.637a4.443,4.443,0,0,1-5.737,5.737l-3.085,3.085a11.235,11.235,0,0,0,4.775.993q7.274,0,10.854-7.577A1.521,1.521,0,0,0,338.37,309.426Z" transform="translate(-240.49 -179.661)" fill="#b8c2f8"/></g></g></svg>