<svg width="23" height="23" viewBox="0 0 23 23" fill="none" xmlns="http://www.w3.org/2000/svg">
<path fill-rule="evenodd" clip-rule="evenodd" d="M18.3118 6.25817L22.0284 2.12132L19.9071 0L15.6465 4.6808C14.2281 4.07683 12.6674 3.74261 11.0283 3.74261C6.02827 3.74261 1.75831 6.85261 0.0283133 11.2426C0.83876 13.2992 2.20664 15.0748 3.94586 16.3814L0 20.6213L2.12132 22.7426L6.66176 17.9081C8.01233 18.4465 9.48554 18.7426 11.0283 18.7426C16.0283 18.7426 20.2984 15.6326 22.0284 11.2426C21.2494 9.26594 19.9555 7.54877 18.3118 6.25817ZM13.4561 6.8712C12.737 6.47078 11.9091 6.24261 11.0283 6.24261C8.26827 6.24261 6.02829 8.48261 6.02829 11.2426C6.02829 12.1235 6.25645 12.9514 6.65687 13.6704L8.16969 12.1576C8.07783 11.8693 8.02827 11.5619 8.02827 11.2426C8.02827 9.58261 9.36827 8.24261 11.0283 8.24261C11.3475 8.24261 11.6549 8.29217 11.9432 8.38403L13.4561 6.8712ZM13.9615 10.6084L15.5218 9.0482C15.8462 9.7108 16.0284 10.4556 16.0284 11.2426C16.0284 14.0026 13.7883 16.2426 11.0283 16.2426C10.2412 16.2426 9.49645 16.0605 8.83385 15.736L10.3941 14.1758C10.5985 14.2196 10.8106 14.2426 11.0283 14.2426C12.6883 14.2426 14.0283 12.9026 14.0283 11.2426C14.0283 11.025 14.0053 10.8128 13.9615 10.6084Z" fill="black"/>
</svg>
