<svg width="22" height="22" viewBox="0 0 22 22" fill="none" xmlns="http://www.w3.org/2000/svg">
<path d="M10.899 13.7021C11.6485 13.7021 12.3673 13.4044 12.8973 12.8744C13.4273 12.3444 13.725 11.6256 13.725 10.8761C13.725 10.7931 13.725 10.7111 13.714 10.6301L10.653 13.6911C10.734 13.6991 10.816 13.7021 10.899 13.7021ZM20.253 2.13513L19.174 1.06113C19.1554 1.04223 19.1332 1.02723 19.1087 1.01698C19.0843 1.00674 19.058 1.00146 19.0315 1.00146C19.005 1.00146 18.9787 1.00674 18.9543 1.01698C18.9298 1.02723 18.9076 1.04223 18.889 1.06113L16.131 3.82013C14.5387 3.02628 12.779 2.62641 11 2.65413C6.15067 2.65413 2.53267 5.1798 0.146004 10.2311C0.0499419 10.4344 0.00012207 10.6563 0.00012207 10.8811C0.00012207 11.1059 0.0499419 11.3279 0.146004 11.5311C0.964707 13.3525 2.1355 14.994 3.591 16.3611L0.922005 19.0291C0.903108 19.0477 0.888104 19.0699 0.877861 19.0944C0.867618 19.1188 0.862343 19.1451 0.862343 19.1716C0.862343 19.1981 0.867618 19.2244 0.877861 19.2489C0.888104 19.2733 0.903108 19.2955 0.922005 19.3141L1.99901 20.3911C2.01762 20.41 2.0398 20.425 2.06426 20.4353C2.08873 20.4455 2.11499 20.4508 2.14151 20.4508C2.16803 20.4508 2.19429 20.4455 2.21875 20.4353C2.24321 20.425 2.26539 20.41 2.284 20.3911L20.252 2.42113C20.2711 2.4025 20.2862 2.38025 20.2965 2.3557C20.3069 2.33114 20.3122 2.30477 20.3122 2.27813C20.3122 2.25149 20.3069 2.22511 20.2965 2.20055C20.2862 2.176 20.2711 2.15376 20.252 2.13513H20.253ZM6.45901 10.8761C6.459 10.1091 6.65764 9.35518 7.03558 8.68775C7.41353 8.02032 7.95789 7.46216 8.61565 7.06763C9.2734 6.67309 10.0221 6.45564 10.7889 6.43645C11.5557 6.41727 12.3143 6.59699 12.991 6.95813L11.764 8.18513C11.2692 8.0266 10.7403 8.00745 10.2353 8.12978C9.73036 8.25211 9.26886 8.51118 8.90147 8.87858C8.53407 9.24597 8.27499 9.70749 8.15266 10.2125C8.03033 10.7174 8.04948 11.2463 8.20801 11.7411L6.98101 12.9681C6.63672 12.325 6.45704 11.6066 6.45801 10.8771L6.45901 10.8761Z" fill="#B8C2F8"/>
<path d="M21.854 10.2259C21.0822 8.52149 20.0078 6.97111 18.683 5.6499L15.046 9.2869C15.3525 10.0883 15.4204 10.9613 15.2415 11.8005C15.0626 12.6396 14.6446 13.409 14.0378 14.0157C13.4311 14.6224 12.6617 15.0405 11.8226 15.2194C10.9834 15.3983 10.1104 15.3304 9.30902 15.0239L6.224 18.1089C7.72375 18.7855 9.35385 19.1245 10.999 19.1019C15.8484 19.1019 19.4663 16.5762 21.853 11.5249C21.9491 11.3219 21.999 11.1001 21.9991 10.8755C21.9993 10.6509 21.9498 10.4291 21.854 10.2259Z" fill="#B8C2F8"/>
</svg>
