<svg width="22" height="22" viewBox="0 0 22 22" fill="none" xmlns="http://www.w3.org/2000/svg">
<g clip-path="url(#clip0)">
<path d="M8.07391 11.225C8.07391 11.7839 8.23965 12.3303 8.55017 12.795C8.8607 13.2598 9.30206 13.622 9.81844 13.8359C10.3348 14.0498 10.903 14.1057 11.4512 13.9967C11.9994 13.8877 12.503 13.6185 12.8982 13.2233C13.2934 12.8281 13.5626 12.3245 13.6716 11.7763C13.7807 11.2281 13.7247 10.6599 13.5108 10.1435C13.2969 9.62716 12.9347 9.18578 12.4699 8.87526C12.0052 8.56473 11.4588 8.399 10.8999 8.399C10.1504 8.399 9.4316 8.69674 8.90163 9.22672C8.37165 9.75669 8.07391 10.4755 8.07391 11.225ZM21.8549 10.574C19.4619 5.53601 15.8459 3 10.9989 3C6.15191 3 2.53691 5.536 0.144905 10.577C0.0488432 10.7802 -0.000976562 11.0022 -0.000976562 11.227C-0.000976562 11.4518 0.0488432 11.6738 0.144905 11.877C2.53691 16.916 6.15191 19.451 10.9989 19.451C15.8459 19.451 19.4609 16.915 21.8529 11.874C21.9491 11.6708 21.9991 11.4489 21.9993 11.2241C21.9995 10.9993 21.9498 10.7773 21.8539 10.574H21.8549ZM10.8999 15.666C10.0216 15.666 9.16294 15.4055 8.43262 14.9176C7.7023 14.4296 7.13309 13.736 6.79696 12.9245C6.46083 12.113 6.37289 11.2201 6.54424 10.3586C6.7156 9.49713 7.13856 8.70582 7.75964 8.08473C8.38073 7.46365 9.17204 7.0407 10.0335 6.86934C10.895 6.69798 11.7879 6.78593 12.5994 7.12206C13.4109 7.45818 14.1045 8.02739 14.5925 8.75771C15.0804 9.48802 15.3409 10.3467 15.3409 11.225C15.3409 11.8083 15.226 12.3859 15.0028 12.9247C14.7795 13.4636 14.4523 13.9532 14.0398 14.3656C13.6273 14.778 13.1376 15.1051 12.5987 15.3282C12.0598 15.5514 11.4822 15.6661 10.8989 15.666H10.8999Z" fill="#B8C2F8"/>
</g>
<defs>
<clipPath id="clip0">
<rect width="22" height="22" fill="white"/>
</clipPath>
</defs>
</svg>
