<svg xmlns="http://www.w3.org/2000/svg" xmlns:xlink="http://www.w3.org/1999/xlink" width="22" height="22" viewBox="0 0 22 22"><defs><clipPath id="b"><rect width="22" height="22"/></clipPath></defs><g id="a" clip-path="url(#b)"><path d="M84.1,194.225a2.826,2.826,0,1,0,2.826-2.826A2.826,2.826,0,0,0,84.1,194.225Zm13.781-.651C95.488,188.536,91.872,186,87.025,186s-8.462,2.536-10.854,7.577a1.521,1.521,0,0,0,0,1.3c2.392,5.039,6.007,7.574,10.854,7.574s8.462-2.536,10.854-7.577A1.521,1.521,0,0,0,97.88,193.574Zm-10.955,5.092a4.441,4.441,0,1,1,4.441-4.441A4.441,4.441,0,0,1,86.925,198.666Z" transform="translate(-76.026 -183)" fill="#b8c2f8"/></g></svg>