<svg width="22" height="26" viewBox="0 0 22 26" fill="none" xmlns="http://www.w3.org/2000/svg">
<path fill-rule="evenodd" clip-rule="evenodd" d="M11 6.09473C6.41669 6.09473 2.50252 9.33486 0.916687 13.9086C2.50252 18.4823 6.41669 21.7224 11 21.7224C15.5834 21.7224 19.4975 18.4823 21.0834 13.9086C19.4975 9.33486 15.5834 6.09473 11 6.09473ZM11 19.1178C8.47002 19.1178 6.41669 16.784 6.41669 13.9085C6.41669 11.033 8.47002 8.69932 11 8.69932C13.53 8.69932 15.5834 11.033 15.5834 13.9085C15.5834 16.784 13.53 19.1178 11 19.1178ZM8.25002 13.9086C8.25002 12.1791 9.47835 10.783 11 10.783C12.5217 10.783 13.75 12.1791 13.75 13.9086C13.75 15.638 12.5217 17.0341 11 17.0341C9.47835 17.0341 8.25002 15.638 8.25002 13.9086Z" fill="#B8C2F8"/>
</svg>
