<svg width="22" height="22" viewBox="0 0 22 22" xmlns="http://www.w3.org/2000/svg">
<path fill="#425AF2" fill-rule="evenodd" clip-rule="evenodd" d="M19.8201 5.32943H16.6065C16.3075 3.86242 15.0172 2.80859 13.52 2.80859C12.0228 2.80859 10.7325 3.86242 10.4335 5.32943H2.18005V6.58943H10.4336C10.7326 8.05644 12.0229 9.11026 13.5201 9.11026C15.0173 9.11026 16.3076 8.05644 16.6066 6.58943H19.8201V5.32943ZM13.5201 7.84946C12.4762 7.84946 11.6301 7.00328 11.6301 5.95946C11.6301 4.91564 12.4762 4.06946 13.5201 4.06946C14.5639 4.06946 15.4101 4.91564 15.4101 5.95946C15.4089 7.00279 14.5634 7.84828 13.5201 7.84946V7.84946ZM19.8201 15.4094H11.5665C11.2675 13.9424 9.9772 12.8886 8.48002 12.8886C6.98285 12.8886 5.69253 13.9424 5.39349 15.4094H2.18005V16.6694H5.39356C5.6926 18.1364 6.98291 19.1903 8.48009 19.1903C9.97726 19.1903 11.2676 18.1364 11.5666 16.6694H19.8201V15.4094ZM8.48005 17.9295C7.43624 17.9295 6.59005 17.0833 6.59005 16.0395C6.59005 14.9956 7.43624 14.1495 8.48005 14.1495C9.52387 14.1495 10.3701 14.9956 10.3701 16.0395C10.3689 17.0828 9.52338 17.9283 8.48005 17.9295V17.9295Z" />
</svg>
