<svg xmlns="http://www.w3.org/2000/svg" width="19" height="19" fill="none" viewBox="0 0 19 19">
    <path fill="#fff" fill-rule="evenodd" d="M9.5 0C14.747 0 19 4.253 19 9.5S14.747 19 9.5 19 0 14.747 0 9.5 4.253 0 9.5 0zM1.784 8.56c.253.321.953.733 2.022 1.069.422.132.884.249 1.38.348-.003-.158-.005-.317-.005-.477 0-2.872.523-5.465 1.427-7.214C4.027 3.322 2.13 5.701 1.784 8.56zm3.51 3.196c-1.388-.24-2.577-.606-3.478-1.075.419 2.755 2.284 5.035 4.796 6.04-.662-1.276-1.12-3.005-1.319-4.965zm1.77.23c.774.07 1.59.106 2.435.106.832 0 1.652-.047 2.441-.135-.39 3.108-1.467 5.319-2.44 5.319-.97 0-2.045-2.197-2.437-5.29zm5.015-1.79c-.82.106-1.692.169-2.58.169-.902 0-1.767-.045-2.577-.13-.009-.24-.013-.485-.013-.732 0-4.332 1.376-7.773 2.59-7.773 1.215 0 2.592 3.441 2.592 7.773 0 .234-.004.465-.012.693zm1.634 1.488c-.195 1.99-.656 3.746-1.326 5.038 2.557-1.023 4.444-3.367 4.818-6.188-.915.476-2.122.875-3.492 1.15zm3.498-3.168c-.406.456-1.688.999-3.396 1.377.002-.13.003-.261.003-.393 0-2.872-.522-5.465-1.427-7.214 2.569 1.03 4.46 3.39 4.82 6.23z" clip-rule="evenodd"/>
</svg>
