<svg xmlns="http://www.w3.org/2000/svg" width="24" height="24" fill="none" viewBox="0 0 24 24">
    <path fill="#425AF2" fill-rule="evenodd" d="M12 1c6.075 0 11 4.925 11 11s-4.925 11-11 11S1 18.075 1 12 5.925 1 12 1zm-8.934 9.907c.291.373 1.102.85 2.342 1.24.489.154 1.024.288 1.598.403C7.002 12.368 7 12.184 7 12c0-3.328.606-6.333 1.655-8.358-2.99 1.198-5.189 3.955-5.59 7.265zm4.063 3.704c-1.606-.28-2.983-.702-4.026-1.245.485 3.188 2.644 5.826 5.551 6.992-.765-1.479-1.295-3.48-1.525-5.748zm2.05.266c.897.08 1.842.123 2.821.123.963 0 1.912-.055 2.825-.156C14.375 18.442 13.127 21 12 21c-1.123 0-2.367-2.543-2.821-6.123zm5.807-2.073c-.95.123-1.958.196-2.986.196-1.044 0-2.047-.052-2.985-.15C9.005 12.57 9 12.287 9 12c0-5.016 1.594-9 3-9s3 3.984 3 9c0 .271-.005.54-.014.804zm1.893 1.723c-.225 2.302-.758 4.334-1.534 5.83 2.96-1.185 5.143-3.897 5.576-7.16-1.06.55-2.456 1.012-4.042 1.33zm4.05-3.667c-.471.528-1.955 1.155-3.933 1.594.003-.15.004-.302.004-.454 0-3.328-.606-6.333-1.655-8.358 2.977 1.192 5.168 3.929 5.583 7.218z" clip-rule="evenodd"/>
</svg>
