<?xml version="1.0" encoding="UTF-8"?>
<svg xmlns="http://www.w3.org/2000/svg" xmlns:xlink="http://www.w3.org/1999/xlink" width="30pt" height="30pt" viewBox="0 0 30 30" version="1.1">
<g id="surface9550490">
<path style=" stroke:none;fill-rule:nonzero;fill:rgb(25.882353%,35.294118%,94.901961%);fill-opacity:1;" d="M 7.625 3.210938 L 18 13.585938 L 20.675781 10.910156 C 17.019531 8.6875 12.117188 5.710938 9.914062 4.371094 L 8.4375 3.476562 C 8.175781 3.316406 7.898438 3.230469 7.621094 3.210938 Z M 6.039062 4.453125 C 6.019531 4.566406 6 4.683594 6 4.804688 L 6 25.308594 C 6 25.394531 6.015625 25.476562 6.03125 25.558594 L 16.585938 15 Z M 22.4375 11.976562 L 19.414062 15 L 22.386719 17.96875 C 23.957031 17.015625 25.050781 16.355469 25.171875 16.28125 C 25.703125 15.953125 26.007812 15.460938 26 14.921875 C 25.988281 14.394531 25.6875 13.917969 25.175781 13.628906 C 25.058594 13.5625 23.984375 12.914062 22.4375 11.976562 Z M 18 16.414062 L 7.65625 26.761719 C 7.855469 26.726562 8.054688 26.664062 8.25 26.546875 C 8.515625 26.386719 15.699219 22.027344 20.625 19.039062 Z M 18 16.414062 "/>
</g>
</svg>
