<svg width="36" height="36" viewBox="0 0 36 36" fill="none" xmlns="http://www.w3.org/2000/svg">
<path fill-rule="evenodd" clip-rule="evenodd" d="M36 18C36 27.9411 27.9411 36 18 36C8.05888 36 0 27.9411 0 18C0 8.05887 8.05888 0 18 0C27.9411 0 36 8.05887 36 18Z" fill="#425AF2"/>
<path d="M24 20H20V24H16V20H12V16H16V12H20V16H24V20ZM25 9H11C9.89 9 9 9.89 9 11V25C9 25.5304 9.21071 26.0391 9.58579 26.4142C9.96086 26.7893 10.4696 27 11 27H25C25.5304 27 26.0391 26.7893 26.4142 26.4142C26.7893 26.0391 27 25.5304 27 25V11C27 9.89 26.1 9 25 9Z" fill="white"/>
</svg>
