<svg width="22" height="22" viewBox="0 0 22 22" fill="none" xmlns="http://www.w3.org/2000/svg">
  <path
    d="M11.7988 13.8129L9.47047 11.512L9.49797 11.4845C11.093 9.7062 12.2296 7.66203 12.8988 5.4987H15.5846V3.66536H9.16797V1.83203H7.33464V3.66536H0.917969V5.4987H11.1571C10.543 7.2587 9.5713 8.9362 8.2513 10.4029C7.3988 9.4587 6.69297 8.42286 6.1338 7.33203H4.30047C4.96964 8.8262 5.8863 10.2379 7.03214 11.512L2.3663 16.1137L3.66797 17.4154L8.2513 12.832L11.1021 15.6829L11.7988 13.8129ZM16.9596 9.16536H15.1263L11.0013 20.1654H12.8346L13.8613 17.4154H18.2155L19.2513 20.1654H21.0846L16.9596 9.16536ZM14.558 15.582L16.043 11.6129L17.528 15.582H14.558Z"
    fill="#939393" />
</svg>