<svg width="20" height="25" viewBox="0 0 20 25" fill="none" xmlns="http://www.w3.org/2000/svg">
<path d="M19 10.1941C19 17.3451 10 23.4745 10 23.4745C10 23.4745 1 17.3451 1 10.1941C1 7.75569 1.94821 5.41713 3.63604 3.6929C5.32387 1.96866 7.61305 1 10 1C12.3869 1 14.6761 1.96866 16.364 3.6929C18.0518 5.41713 19 7.75569 19 10.1941Z" stroke="#425AF2" stroke-width="2" stroke-linecap="round" stroke-linejoin="round"/>
<path d="M10 13.2583C11.6569 13.2583 13 11.8862 13 10.1936C13 8.50102 11.6569 7.12891 10 7.12891C8.34315 7.12891 7 8.50102 7 10.1936C7 11.8862 8.34315 13.2583 10 13.2583Z" stroke="#425AF2" stroke-width="2" stroke-linecap="round" stroke-linejoin="round"/>
</svg>
