<svg width="24" height="24" viewBox="0 0 24 24" fill="none" xmlns="http://www.w3.org/2000/svg">
<path d="M20 10.1818C20 16.5455 12 22 12 22C12 22 4 16.5455 4 10.1818C4 8.01187 4.84285 5.93079 6.34315 4.3964C7.84344 2.86201 9.87827 2 12 2C14.1217 2 16.1566 2.86201 17.6569 4.3964C19.1571 5.93079 20 8.01187 20 10.1818Z" stroke="#425AF2" stroke-width="1.5" stroke-linecap="round" stroke-linejoin="round"/>
<path d="M12 13C13.6569 13 15 11.6569 15 10C15 8.34315 13.6569 7 12 7C10.3431 7 9 8.34315 9 10C9 11.6569 10.3431 13 12 13Z" stroke="#425AF2" stroke-width="1.5" stroke-linecap="round" stroke-linejoin="round"/>
</svg>
