<svg width="92" height="92" viewBox="0 0 92 92" fill="none" xmlns="http://www.w3.org/2000/svg">
<path d="M46 92C71.4051 92 92 71.4051 92 46C92 20.5949 71.4051 0 46 0C20.5949 0 0 20.5949 0 46C0 71.4051 20.5949 92 46 92Z" fill="#425AF2"/>
<path d="M82.0105 46.0316C82.8657 44.4777 83.5243 42.8235 83.9709 41.1069C84.7773 38.021 84.8739 34.7925 84.2536 31.6639C83.6332 28.5352 82.3119 25.5879 80.389 23.0431C78.4662 20.4984 75.9916 18.4225 73.1513 16.9713C70.3111 15.5201 67.1789 14.7314 63.99 14.6644C62.0988 11.593 59.4527 9.05692 56.3038 7.29784C53.1548 5.53876 49.6079 4.61523 46.0009 4.61523C42.394 4.61523 38.8471 5.53876 35.6981 7.29784C32.5492 9.05692 29.903 11.593 28.0118 14.6644C24.3732 14.7408 20.8161 15.7567 17.6859 17.6133C14.5557 19.47 11.9586 22.1044 10.1468 25.2608C8.33503 28.4172 7.37007 31.9885 7.34558 35.6278C7.3211 39.2672 8.23793 42.8511 10.0071 46.0316C8.23905 49.2098 7.32212 52.7909 7.34515 56.4277C7.36818 60.0645 8.33041 63.6337 10.1385 66.7892C11.9467 69.9448 14.5394 72.5797 17.6654 74.4385C20.7913 76.2974 24.3445 77.3171 27.9805 77.3988C29.8636 80.495 32.5121 83.0543 35.671 84.8303C38.8298 86.6063 42.3927 87.5392 46.0166 87.5392C49.6405 87.5392 53.2034 86.6063 56.3623 84.8303C59.5211 83.0543 62.1696 80.495 64.0528 77.3988C67.682 77.3012 71.2251 76.2714 74.3411 74.4083C77.4572 72.5453 80.0414 69.9117 81.8452 66.761C83.649 63.6102 84.6117 60.0483 84.6406 56.4179C84.6696 52.7875 83.7638 49.2107 82.0105 46.0316ZM80.348 25.8938C81.6485 28.0961 82.4984 30.5349 82.8484 33.0684C83.1984 35.6019 83.0415 38.1797 82.3869 40.6521C82.0517 41.9239 81.5893 43.1586 81.0067 44.3377C79.2416 41.7643 76.9208 39.6203 74.2157 38.0643C71.4304 36.4321 68.3076 35.4609 65.0879 35.2256L64.9781 35.0531C66.4169 32.1499 67.1656 28.9536 67.1656 25.7135C67.1656 22.4733 66.4169 19.277 64.9781 16.3739C68.119 16.599 71.1584 17.5828 73.8355 19.241C76.5126 20.8991 78.7473 23.182 80.348 25.8938ZM63.0961 75.7363C59.8419 75.6556 56.6598 74.7607 53.8406 73.1333C51.0214 71.5059 48.655 69.1979 46.9576 66.4203C47.1615 66.0595 47.3497 65.6988 47.5379 65.3224C50.7626 65.0873 53.8906 64.1162 56.6815 62.4837C59.14 61.0351 61.2752 59.0974 62.9549 56.7905C64.5505 59.6703 65.3876 62.9085 65.3876 66.2007C65.3876 69.4929 64.5505 72.7311 62.9549 75.6109L63.0961 75.7363ZM26.6003 66.3262C26.5963 63.0336 27.4331 59.7946 29.0313 56.916C30.8417 59.3524 33.156 61.37 35.8164 62.8315C38.4768 64.2929 41.4209 65.1639 44.4483 65.3851C44.6208 65.7615 44.8247 66.138 45.0129 66.4987C43.3175 69.2569 40.9579 71.5461 38.1496 73.1571C35.3413 74.7681 32.174 75.6495 28.9372 75.7206C27.3486 72.8396 26.5226 69.6004 26.5376 66.3105L26.6003 66.3262ZM28.9685 16.2327C31.7428 16.2961 34.4711 16.9549 36.9686 18.1644C39.4661 19.3739 41.6746 21.106 43.4445 23.2433C40.2991 23.6314 37.2809 24.7207 34.6126 26.4308C31.9443 28.1409 29.694 30.4282 28.0275 33.124C27.0423 30.753 26.5359 28.2105 26.5376 25.6429C26.5308 22.35 27.3677 19.1103 28.9685 16.2327ZM36.1673 27.4151C38.7443 25.8993 41.6382 25.0027 44.6208 24.796C44.7619 25.0156 44.9031 25.2351 45.0286 25.4547C42.4508 30.1554 41.7449 35.6567 43.0524 40.856C39.2298 37.2381 34.1991 35.1699 28.9372 35.0531V34.9433C30.6305 31.8488 33.1286 29.2694 36.1673 27.4779V27.4151ZM65.48 25.6429C65.464 28.2165 64.9306 30.7606 63.9116 33.124C61.1003 28.4858 56.6046 25.114 51.3647 23.7138C50.4361 23.4757 49.4932 23.2976 48.5417 23.1806C49.9981 21.4731 51.7384 20.0299 53.6859 18.9146C56.5394 17.2255 59.7808 16.3017 63.0961 16.2327C64.6779 19.1157 65.4984 22.3545 65.48 25.6429ZM45.5618 63.7541C44.5027 61.2096 43.9956 58.4694 44.074 55.7144C44.1524 52.9595 44.8145 50.2525 46.0166 47.7725C47.2137 50.2548 47.8705 52.9629 47.9435 55.7178C48.0165 58.4728 47.5041 61.2118 46.4401 63.7541H45.5618ZM46.0166 44.2123C44.7392 41.5717 44.0757 38.6764 44.0757 35.7431C44.0757 32.8098 44.7392 29.9145 46.0166 27.274C47.2907 29.9155 47.9524 32.8104 47.9524 35.7431C47.9524 38.6759 47.2907 41.5708 46.0166 44.2123ZM40.151 46.0316C35.6757 47.3543 31.7582 50.1092 28.9999 53.8734C26.5364 49.4907 25.8781 44.3203 27.1649 39.4602C27.4011 38.5998 27.6945 37.7563 28.0432 36.9351C30.8196 41.3563 35.1316 44.5958 40.151 46.0316ZM30.0507 36.8724C32.9126 37.099 35.6885 37.9579 38.1782 39.3872C40.668 40.8165 42.8095 42.7805 44.4483 45.1376C41.5854 44.9009 38.8102 44.0344 36.3212 42.6001C33.8323 41.1659 31.691 39.1993 30.0507 36.841V36.8724ZM44.4326 46.9412C41.8021 50.7256 37.9102 53.4499 33.4541 54.6262C32.3528 54.9069 31.2302 55.0957 30.0978 55.1908C31.7307 52.8409 33.8622 50.8803 36.34 49.4489C38.8179 48.0175 41.5811 47.1505 44.4326 46.9099V46.9412ZM33.8305 56.2259C37.2847 55.3338 40.4537 53.5739 43.0367 51.1131C41.9928 55.2689 42.2334 59.6436 43.7268 63.6599C38.7713 63.0762 34.2292 60.6114 31.0388 56.7748C31.9823 56.65 32.9154 56.456 33.8305 56.1946V56.2259ZM48.9808 51.0347C52.2835 54.1666 56.5069 56.1519 61.0258 56.6964C57.8363 60.5662 53.2722 63.0507 48.2907 63.6286C49.789 59.597 50.0296 55.2058 48.9808 51.0347ZM47.6163 46.9099C50.4604 47.1433 53.218 48.0008 55.6929 49.4212C58.1679 50.8417 60.2993 52.7902 61.9355 55.1281C59.0901 54.8916 56.3313 54.0329 53.8543 52.6128C51.3773 51.1927 49.2424 49.2459 47.6007 46.9099H47.6163ZM51.8666 46.0316C56.9031 44.5765 61.2186 41.3007 63.9743 36.841C65.1027 39.557 65.6014 42.4933 65.433 45.4295C65.2645 48.3658 64.4334 51.2258 63.002 53.795C60.2379 50.0602 56.3268 47.3335 51.8666 46.0316ZM47.5693 45.1376C49.2129 42.7914 51.3541 40.8368 53.8401 39.4135C56.3261 37.9902 59.0957 37.1332 61.9512 36.9037C60.3036 39.2434 58.1608 41.1913 55.6751 42.609C53.1894 44.0267 50.4218 44.8793 47.5693 45.1063V45.1376ZM50.9413 25.4861C53.4165 26.1286 55.74 27.2549 57.7778 28.8C59.8155 30.3451 61.5271 32.2784 62.8138 34.4885C62.9235 34.661 63.0176 34.8492 63.1117 35.0217V35.1628C57.848 35.2855 52.8176 37.3591 48.9965 40.9815C50.3107 35.7689 49.593 30.2516 46.989 25.5488C47.1302 25.3292 47.2556 25.1097 47.4125 24.8901C48.603 24.9746 49.7838 25.1636 50.9413 25.4547V25.4861ZM27.7609 54.9556C27.8128 55.0479 27.8705 55.137 27.9334 55.2222C24.7133 55.13 21.566 54.2426 18.7721 52.6391C15.9781 51.0355 13.6243 48.7655 11.9205 46.0316C13.4601 43.5345 15.5455 41.4187 18.0202 39.8432C20.4948 38.2677 23.2942 37.2735 26.2082 36.9351C25.1168 39.8664 24.69 43.0035 24.9585 46.1199C25.227 49.2363 26.1842 52.2541 27.7609 54.9556ZM65.8093 36.9351C68.7229 37.2679 71.5223 38.26 73.9952 39.8361C76.4681 41.4123 78.5495 43.531 80.0814 46.0316C78.3871 48.7638 76.042 51.0334 73.2557 52.6373C70.4695 54.2412 67.3291 55.1293 64.1155 55.2222C65.7517 52.4964 66.7535 49.4373 67.0467 46.2717C67.3399 43.1061 66.917 39.9151 65.8093 36.9351ZM46.0009 6.2266C49.156 6.23099 52.2629 7.00111 55.0548 8.4708C57.8466 9.9405 60.2401 12.0659 62.0296 14.6644C58.9848 14.8802 56.023 15.7532 53.3481 17.2234C50.6731 18.6935 48.3484 20.7259 46.5342 23.1806H45.452C43.7591 20.8983 41.6259 18.9785 39.1786 17.5345C36.3733 15.8782 33.2218 14.8957 29.9723 14.6644C31.7599 12.0639 34.1529 9.93713 36.9452 8.46721C39.7375 6.99728 42.8454 6.22833 46.0009 6.2266ZM11.6695 25.9252C13.2634 23.2056 15.493 20.913 18.1672 19.244C20.8414 17.575 23.8804 16.5794 27.0238 16.3425C25.5926 19.2535 24.8484 22.454 24.8484 25.6978C24.8484 28.9416 25.5926 32.1421 27.0238 35.0531L26.9454 35.2099C23.768 35.4327 20.6827 36.3744 17.9223 37.9638C15.162 39.5531 12.7987 41.7487 11.0108 44.3848C9.58175 41.4944 8.89375 38.2941 9.00873 35.0718C9.12372 31.8495 10.0381 28.7064 11.6695 25.9252ZM11.6695 66.0595C10.0381 63.2784 9.12372 60.1352 9.00873 56.9129C8.89375 53.6906 9.58175 50.4903 11.0108 47.5999C12.8131 50.2677 15.2012 52.4882 17.9927 54.0919C20.7843 55.6957 23.9055 56.6402 27.1179 56.8533C25.6432 59.7709 24.875 62.9943 24.8751 66.2634C24.8632 69.513 25.5984 72.7219 27.0238 75.6422C23.8797 75.408 20.8396 74.4134 18.165 72.7442C15.4904 71.0749 13.2613 68.781 11.6695 66.0595ZM46.0009 85.7895C42.8474 85.7929 39.7401 85.0312 36.9456 83.5698C34.1511 82.1084 31.7528 79.9908 29.9566 77.3988C33.1717 77.1585 36.2891 76.1856 39.0702 74.5545C41.8512 72.9234 44.222 70.6774 46.0009 67.9886C47.7592 70.6359 50.1046 72.8418 52.8547 74.4346C55.6395 76.1256 58.7817 77.1408 62.0296 77.3988C60.2368 79.9905 57.8414 82.1082 55.0494 83.5697C52.2575 85.0313 49.1523 85.793 46.0009 85.7895ZM80.348 66.0909C79.0634 68.3026 77.3524 70.2372 75.3144 71.7825C73.2764 73.3279 70.9518 74.4532 68.4755 75.0933C67.3265 75.402 66.1497 75.5964 64.9624 75.6736C66.4217 72.7514 67.1813 69.5298 67.1813 66.2634C67.1813 62.9971 66.4217 59.7755 64.9624 56.8533C68.1598 56.6228 71.2633 55.6704 74.0396 54.0677C76.8159 52.465 79.1926 50.2536 80.9911 47.5999C81.5737 48.779 82.036 50.0138 82.3712 51.2856C83.0347 53.764 83.1974 56.3499 82.8501 58.8919C82.5027 61.434 81.6521 63.8813 80.348 66.0909Z" fill="white"/>
</svg>
