<svg width="40" height="40" viewBox="0 0 40 40" fill="none" xmlns="http://www.w3.org/2000/svg">
    <path d="M27.5 15.6676L12.5 7.01758" stroke="#425AF2" stroke-width="2" stroke-linecap="round" stroke-linejoin="round"/>
    <path d="M35 26.6659V13.3325C34.9994 12.748 34.8451 12.1739 34.5526 11.6678C34.26 11.1617 33.8396 10.7415 33.3333 10.4492L21.6667 3.78252C21.1599 3.48996 20.5851 3.33594 20 3.33594C19.4149 3.33594 18.8401 3.48996 18.3333 3.78252L6.66667 10.4492C6.16044 10.7415 5.73997 11.1617 5.44744 11.6678C5.1549 12.1739 5.0006 12.748 5 13.3325V26.6659C5.0006 27.2504 5.1549 27.8245 5.44744 28.3306C5.73997 28.8367 6.16044 29.2569 6.66667 29.5492L18.3333 36.2159C18.8401 36.5084 19.4149 36.6624 20 36.6624C20.5851 36.6624 21.1599 36.5084 21.6667 36.2159L33.3333 29.5492C33.8396 29.2569 34.26 28.8367 34.5526 28.3306C34.8451 27.8245 34.9994 27.2504 35 26.6659Z" stroke="#425AF2" stroke-width="2" stroke-linecap="round" stroke-linejoin="round"/>
    <path d="M5.45001 11.6016L20 20.0182L34.55 11.6016" stroke="#425AF2" stroke-width="2" stroke-linecap="round" stroke-linejoin="round"/>
    <path d="M20 36.8V20" stroke="#425AF2" stroke-width="2" stroke-linecap="round" stroke-linejoin="round"/>
</svg>
