<svg width="22" height="23" viewBox="0 0 22 23" fill="none" xmlns="http://www.w3.org/2000/svg">
<path d="M12.5742 17.5602C12.0141 17.6661 11.4452 17.7192 10.875 17.7188C6.81684 17.7188 3.38215 15.0517 2.22668 11.375C2.53777 10.3855 3.01693 9.45689 3.64315 8.62997M8.95197 9.45284C9.46187 8.94294 10.1535 8.65647 10.8746 8.65647C11.5957 8.65647 12.2873 8.94294 12.7972 9.45284C13.3071 9.96275 13.5936 10.6543 13.5936 11.3755C13.5936 12.0966 13.3071 12.7882 12.7972 13.2981M8.95197 9.45284L12.7972 13.2981M8.95197 9.45284L12.7963 13.2962M12.7972 13.2981L15.7797 16.2796M8.95378 9.45375L5.97222 6.47219M5.97222 6.47219L2.71878 3.21875M5.97222 6.47219C7.43341 5.5293 9.13602 5.0289 10.875 5.03125C14.9332 5.03125 18.3679 7.69834 19.5234 11.375C18.8854 13.3963 17.5608 15.131 15.7787 16.2787M5.97222 6.47219L15.7787 16.2787M15.7787 16.2787L19.0313 19.5312" stroke="#D7D7D7" stroke-width="1.8125" stroke-linecap="round" stroke-linejoin="round"/>
</svg>
