<svg width="29" height="31" viewBox="0 0 29 31" fill="none" xmlns="http://www.w3.org/2000/svg">
<rect width="29" height="31" fill="#FFFFFF"/>
<path d="M15 5C9.48 5 5 9.48 5 15C5 20.52 9.48 25 15 25C20.52 25 25 20.52 25 15C25 9.48 20.52 5 15 5ZM14 22.93C10.05 22.44 7 19.08 7 15C7 14.38 7.08 13.79 7.21 13.21L12 18V19C12 20.1 12.9 21 14 21V22.93ZM20.9 20.39C20.64 19.58 19.9 19 19 19H18V16C18 15.45 17.55 15 17 15H11V13H13C13.55 13 14 12.55 14 12V10H16C17.1 10 18 9.1 18 8V7.59C20.93 8.78 23 11.65 23 15C23 17.08 22.2 18.97 20.9 20.39Z" fill="black"/>
</svg>
