<svg width="22" height="23" viewBox="0 0 22 23" fill="none" xmlns="http://www.w3.org/2000/svg">
<path d="M13.7397 11.375C13.7397 12.0961 13.4533 12.7876 12.9434 13.2974C12.4336 13.8073 11.7421 14.0938 11.021 14.0938C10.2999 14.0938 9.60841 13.8073 9.09855 13.2974C8.58868 12.7876 8.30225 12.0961 8.30225 11.375C8.30225 10.6539 8.58868 9.96242 9.09855 9.45255C9.60841 8.94269 10.2999 8.65625 11.021 8.65625C11.7421 8.65625 12.4336 8.94269 12.9434 9.45255C13.4533 9.96242 13.7397 10.6539 13.7397 11.375V11.375Z" stroke="#D7D7D7" stroke-width="1.8125" stroke-linecap="round" stroke-linejoin="round"/>
<path d="M2.37357 11.375C3.52813 7.69834 6.96372 5.03125 11.021 5.03125C15.0792 5.03125 18.5139 7.69834 19.6684 11.375C18.5139 15.0517 15.0792 17.7188 11.021 17.7188C6.96372 17.7188 3.52813 15.0517 2.37357 11.375Z" stroke="#D7D7D7" stroke-width="1.8125" stroke-linecap="round" stroke-linejoin="round"/>
</svg>
