<svg width="22" height="23" viewBox="0 0 22 23" fill="none" xmlns="http://www.w3.org/2000/svg">
<path d="M10.875 14.0938V15.9062V14.0938ZM5.4375 19.5312H16.3125C16.7932 19.5312 17.2542 19.3403 17.5941 19.0004C17.934 18.6605 18.125 18.1995 18.125 17.7188V12.2812C18.125 11.8005 17.934 11.3395 17.5941 10.9996C17.2542 10.6597 16.7932 10.4688 16.3125 10.4688H5.4375C4.9568 10.4688 4.49578 10.6597 4.15587 10.9996C3.81596 11.3395 3.625 11.8005 3.625 12.2812V17.7188C3.625 18.1995 3.81596 18.6605 4.15587 19.0004C4.49578 19.3403 4.9568 19.5312 5.4375 19.5312ZM14.5 10.4688V6.84375C14.5 5.88234 14.1181 4.96031 13.4383 4.28049C12.7584 3.60067 11.8364 3.21875 10.875 3.21875C9.91359 3.21875 8.99156 3.60067 8.31174 4.28049C7.63192 4.96031 7.25 5.88234 7.25 6.84375V10.4688H14.5Z" stroke="#D7D7D7" stroke-width="1.8125" stroke-linecap="round" stroke-linejoin="round"/>
</svg>
