<svg width="29" height="24" viewBox="0 0 29 24" fill="none" xmlns="http://www.w3.org/2000/svg">
<rect width="29" height="24" fill="#425AF2"/>
<path d="M4.36328 18.6169C4.97016 16.5582 6.10805 15.8096 7.41663 15.8096H13.5992C14.9078 15.8096 16.0457 16.5582 16.6525 18.6169" stroke="white" stroke-width="1.75457" stroke-linecap="round" stroke-linejoin="round"/>
<path d="M14.2227 15.7893C14.5973 14.6849 15.0959 14.407 16.4045 14.407H22.587C23.8956 14.407 25.0335 15.1556 25.6404 17.2143" stroke="white" stroke-width="1.75457" stroke-linecap="round" stroke-linejoin="round"/>
<path fill-rule="evenodd" clip-rule="evenodd" d="M10.5088 13.0035C12.0799 13.0035 13.3535 11.7467 13.3535 10.1962C13.3535 8.64579 12.0799 7.38892 10.5088 7.38892C8.93769 7.38892 7.66406 8.64579 7.66406 10.1962C7.66406 11.7467 8.93769 13.0035 10.5088 13.0035Z" stroke="white" stroke-width="1.75457" stroke-linecap="round" stroke-linejoin="round"/>
<path fill-rule="evenodd" clip-rule="evenodd" d="M19.501 11.6007C21.0721 11.6007 22.3457 10.3438 22.3457 8.79339C22.3457 7.24296 21.0721 5.98608 19.501 5.98608C17.9299 5.98608 16.6562 7.24296 16.6562 8.79339C16.6562 10.3438 17.9299 11.6007 19.501 11.6007Z" stroke="white" stroke-width="1.75457" stroke-linecap="round" stroke-linejoin="round"/>
</svg>
