<svg width="25" height="25" viewBox="0 0 25 25" fill="none" xmlns="http://www.w3.org/2000/svg">
<path d="M20 10.8712V20.0001C20 20.5969 19.7629 21.1692 19.341 21.5911C18.919 22.0131 18.3467 22.2501 17.75 22.2501H7.25C6.65326 22.2501 6.08097 22.0131 5.65901 21.5911C5.23705 21.1692 5 20.5969 5 20.0001V5.00012C5 4.40338 5.23705 3.83109 5.65901 3.40913C6.08097 2.98718 6.65326 2.75012 7.25 2.75012H11.8789C12.2766 2.75018 12.658 2.90817 12.9392 3.18934L19.5608 9.8109C19.842 10.0921 19.9999 10.4735 20 10.8712Z" stroke="#D7D7D7" stroke-width="1.10859" stroke-linejoin="round"/>
<path d="M12.4999 3.12512V8.75012C12.4999 9.14795 12.658 9.52948 12.9393 9.81078C13.2206 10.0921 13.6021 10.2501 13.9999 10.2501H19.6249" stroke="#D7D7D7" stroke-width="1.10859" stroke-linecap="round" stroke-linejoin="round"/>
<path d="M7.99994 15.5001L16.9999 15.5001" stroke="#D7D7D7" stroke-width="1.10859" stroke-linecap="round" stroke-linejoin="round"/>
<path d="M7.99994 12.5001H12.4999" stroke="#D7D7D7" stroke-width="1.10859" stroke-linecap="round" stroke-linejoin="round"/>
<path d="M7.99994 18.5L16.9999 18.5" stroke="#D7D7D7" stroke-width="1.10859" stroke-linecap="round" stroke-linejoin="round"/>
</svg>
