<svg width="22" height="23" viewBox="0 0 22 23" fill="none" xmlns="http://www.w3.org/2000/svg">
<path d="M7.25 10.9801V7.35507C7.25 6.39366 7.63192 5.47163 8.31174 4.79181C8.99156 4.11199 9.91359 3.73007 10.875 3.73007C11.8364 3.73007 12.7584 4.11199 13.4383 4.79181C14.1181 5.47163 14.5 6.39366 14.5 7.35507M10.875 14.6051V16.4176M5.4375 20.0426H16.3125C16.7932 20.0426 17.2542 19.8516 17.5941 19.5117C17.934 19.1718 18.125 18.7108 18.125 18.2301V12.7926C18.125 12.3119 17.934 11.8509 17.5941 11.5109C17.2542 11.171 16.7932 10.9801 16.3125 10.9801H5.4375C4.9568 10.9801 4.49578 11.171 4.15587 11.5109C3.81596 11.8509 3.625 12.3119 3.625 12.7926V18.2301C3.625 18.7108 3.81596 19.1718 4.15587 19.5117C4.49578 19.8516 4.9568 20.0426 5.4375 20.0426Z" stroke="#D7D7D7" stroke-width="2" stroke-linecap="round" stroke-linejoin="round"/>
</svg>
