<svg width="22" height="22" viewBox="0 0 22 22" fill="none" xmlns="http://www.w3.org/2000/svg">
  <path fill-rule="evenodd" clip-rule="evenodd"
    d="M8.24863 10.9987C10.0178 10.9987 11.457 9.55953 11.457 7.79036C11.457 6.0212 10.0178 4.58203 8.24863 4.58203C6.47947 4.58203 5.0403 6.0212 5.0403 7.79036C5.0403 9.55953 6.47947 10.9987 8.24863 10.9987ZM8.24876 6.41549C9.0096 6.41549 9.62376 7.02966 9.62376 7.79049C9.62376 8.55133 9.0096 9.16549 8.24876 9.16549C7.48793 9.16549 6.87376 8.55133 6.87376 7.79049C6.87376 7.02966 7.48793 6.41549 8.24876 6.41549ZM4.3712 15.582H8.29453C8.26703 15.7287 8.2487 15.8845 8.2487 16.0404V17.4154H1.83203V16.0404C1.83203 13.9045 6.1037 12.832 8.2487 12.832C8.76203 12.832 9.39453 12.8962 10.0637 13.0154C9.41286 13.4554 8.87203 14.0054 8.56036 14.6745C8.50995 14.6745 8.45724 14.6722 8.40453 14.6699C8.35182 14.6677 8.29911 14.6654 8.2487 14.6654C6.8462 14.6654 5.2787 15.1237 4.3712 15.582ZM15.1237 13.2905C13.437 13.2905 10.082 14.2163 10.082 16.0405V17.4155H20.1654V16.0405C20.1654 14.2163 16.8104 13.2905 15.1237 13.2905ZM17.4154 9.6237C17.4154 10.4854 16.9295 11.2279 16.2329 11.622C15.9029 11.8054 15.527 11.9154 15.1237 11.9154C14.7204 11.9154 14.3445 11.8054 14.0145 11.622C13.3179 11.2279 12.832 10.4854 12.832 9.6237C12.832 8.3587 13.8587 7.33203 15.1237 7.33203C16.3887 7.33203 17.4154 8.3587 17.4154 9.6237Z"
    fill="#939393" />
</svg>