<svg width="36" height="36" viewBox="0 0 36 36" fill="none" xmlns="http://www.w3.org/2000/svg">
<path fill-rule="evenodd" clip-rule="evenodd" d="M36 18C36 27.9411 27.9411 36 18 36C8.05888 36 0 27.9411 0 18C0 8.05887 8.05888 0 18 0C27.9411 0 36 8.05887 36 18Z" fill="#00B432"/>
<path d="M10.2201 17.2898L17.2901 10.2198C19.6401 7.87984 23.4301 7.87984 25.7801 10.2198C28.1201 12.5598 28.1201 16.3598 25.7801 18.7098L18.7101 25.7798C16.3601 28.1198 12.5601 28.1198 10.2201 25.7798C7.88009 23.4298 7.88009 19.6398 10.2201 17.2898ZM11.6401 18.7098C10.5901 19.7498 10.2401 21.2398 10.6001 22.5698L16.5901 16.5898L20.8301 20.8298L24.3601 17.2898C25.9301 15.7298 25.9301 13.1998 24.3601 11.6398C22.8001 10.0698 20.2701 10.0698 18.7101 11.6398L11.6401 18.7098Z" fill="white"/>
</svg>
