<svg xmlns="http://www.w3.org/2000/svg" width="30" height="30" fill="none" viewBox="0 0 30 30">
    <path fill="#425AF2" d="M7.197 3.306c-.618-.372-1.355-.406-1.998-.096l10.775 10.798 3.523-3.54-12.3-7.162zm-2.988.904c-.136.287-.209.608-.209.937V24.9c0 .331.074.647.21.929l10.772-10.822L4.209 4.21zM15.976 16L5.218 26.811c.285.131.59.189.892.189.375 0 .749-.09 1.087-.293L19.5 19.533l-3.524-3.532zm8.206-2.804l-.013-.008-3.415-1.989-3.786 3.804 3.788 3.796 3.426-1.997c.635-.386 1.015-1.06 1.015-1.803 0-.744-.38-1.418-1.015-1.803z"/>
</svg>