<svg width="24" height="24" viewBox="0 0 24 24" fill="none" xmlns="http://www.w3.org/2000/svg">
<path d="M19.8934 1.98935H3.97869C2.88455 1.98935 1.9993 2.88455 1.9993 3.97869L1.98935 21.8828L5.96804 17.9041H19.8934C20.9876 17.9041 21.8828 17.0089 21.8828 15.9147V3.97869C21.8828 2.88455 20.9876 1.98935 19.8934 1.98935Z" stroke="#939393" stroke-width="1.5"/>
<path d="M13.0944 5.276L12.8544 11.024H11.1144L10.8744 5.276H13.0944ZM12.0144 14.096C11.6544 14.096 11.3584 13.992 11.1264 13.784C10.9024 13.568 10.7904 13.304 10.7904 12.992C10.7904 12.672 10.9024 12.404 11.1264 12.188C11.3584 11.972 11.6544 11.864 12.0144 11.864C12.3664 11.864 12.6544 11.972 12.8784 12.188C13.1104 12.404 13.2264 12.672 13.2264 12.992C13.2264 13.304 13.1104 13.568 12.8784 13.784C12.6544 13.992 12.3664 14.096 12.0144 14.096Z" fill="#939393"/>
</svg>
