<svg width="21" height="21" viewBox="0 0 21 21" fill="none" xmlns="http://www.w3.org/2000/svg">
<g clip-path="url(#clip0)">
<path d="M9.24796 0C4.14877 0 0 4.14877 0 9.24796C0 14.3474 4.14877 18.4959 9.24796 18.4959C14.3474 18.4959 18.4959 14.3474 18.4959 9.24796C18.4959 4.14877 14.3474 0 9.24796 0ZM9.24796 16.7886C5.09008 16.7886 1.70732 13.4059 1.70732 9.248C1.70732 5.09012 5.09008 1.70732 9.24796 1.70732C13.4058 1.70732 16.7886 5.09008 16.7886 9.24796C16.7886 13.4058 13.4058 16.7886 9.24796 16.7886Z" fill="#425AF2"/>
<path d="M20.7506 19.5429L15.8563 14.6486C15.5228 14.3151 14.9827 14.3151 14.6492 14.6486C14.3157 14.9818 14.3157 15.5224 14.6492 15.8557L19.5435 20.75C19.7102 20.9167 19.9285 21.0001 20.147 21.0001C20.3653 21.0001 20.5838 20.9167 20.7506 20.75C21.0841 20.4168 21.0841 19.8761 20.7506 19.5429Z" fill="#425AF2"/>
</g>
<defs>
<clipPath id="clip0">
<rect width="21" height="21" fill="white"/>
</clipPath>
</defs>
</svg>
