<svg width="21"
height="22" 
viewBox="0 0 21 22" 
fill="none"
 xmlns="http://www.w3.org/2000/svg">
<g clip-path="url(#clip0)">
<path 
d="M9.24796 0.5C4.14877 0.5 0 4.64877 0 9.74796C0 14.8474 4.14877 18.9959 9.24796 18.9959C14.3474 18.9959 18.4959 14.8474 18.4959 9.74796C18.4959 4.64877 14.3474 0.5 9.24796 0.5ZM9.24796 17.2886C5.09008 17.2886 1.70732 13.9059 1.70732 9.748C1.70732 5.59012 5.09008 2.20732 9.24796 2.20732C13.4058 2.20732 16.7886 5.59008 16.7886 9.74796C16.7886 13.9058 13.4058 17.2886 9.24796 17.2886Z"
 fill="#425AF2"/>
<path d="M20.7506 20.0424L15.8563 15.1481C15.5228 14.8146 14.9827 14.8146 14.6492 15.1481C14.3157 15.4813 14.3157 16.022 14.6492 16.3552L19.5435 21.2495C19.7102 21.4162 19.9285 21.4996 20.147 21.4996C20.3653 21.4996 20.5838 21.4162 20.7506 21.2495C21.0841 20.9163 21.0841 20.3756 20.7506 20.0424Z"
 fill="#425AF2"/>
</g>
<defs>
<clipPath id="clip0">
<path d="M0 0.5H21V21.5H0V0.5Z" 
fill="white"/>
</clipPath>
</defs>
</svg>
