<?xml version="1.0" encoding="UTF-8"?>
<svg xmlns="http://www.w3.org/2000/svg" xmlns:xlink="http://www.w3.org/1999/xlink" width="100pt" height="100pt" viewBox="0 0 100 100" version="1.1">
<g id="surface6137879">
<path style=" stroke:none;fill-rule:nonzero;fill:rgb(25.882354%,35.294119%,94.901961%);fill-opacity:1;" d="M 94.320312 42.441406 L 82.5 40.511719 C 81.808594 38.136719 80.863281 35.859375 79.679688 33.699219 L 86.578125 23.867188 C 87.136719 23.070312 87.039062 21.988281 86.355469 21.300781 L 78.574219 13.527344 C 77.882812 12.835938 76.789062 12.746094 75.992188 13.320312 L 66.308594 20.28125 C 64.128906 19.078125 61.828125 18.121094 59.445312 17.429688 L 57.382812 5.65625 C 57.214844 4.699219 56.382812 4 55.410156 4 L 44.410156 4 C 43.433594 4 42.597656 4.710938 42.4375 5.679688 L 40.527344 17.386719 C 38.125 18.074219 35.820312 19.023438 33.652344 20.210938 L 23.992188 13.308594 C 23.195312 12.738281 22.109375 12.832031 21.414062 13.523438 L 13.640625 21.296875 C 12.953125 21.980469 12.859375 23.0625 13.414062 23.855469 L 20.214844 33.582031 C 19.003906 35.773438 18.039062 38.089844 17.339844 40.503906 L 5.675781 42.445312 C 4.710938 42.605469 4.003906 43.441406 4.003906 44.414062 L 4.003906 55.414062 C 4.003906 56.386719 4.699219 57.214844 5.652344 57.386719 L 17.316406 59.453125 C 18.015625 61.859375 18.976562 64.179688 20.191406 66.375 L 13.308594 76 C 12.742188 76.792969 12.832031 77.882812 13.523438 78.578125 L 21.296875 86.359375 C 21.984375 87.046875 23.066406 87.140625 23.859375 86.585938 L 33.601562 79.761719 C 35.785156 80.964844 38.097656 81.917969 40.488281 82.609375 L 42.441406 94.332031 C 42.601562 95.292969 43.433594 96 44.410156 96 L 55.410156 96 C 56.382812 96 57.210938 95.304688 57.378906 94.351562 L 59.46875 82.570312 C 61.867188 81.863281 64.164062 80.902344 66.328125 79.699219 L 76.140625 86.582031 C 76.9375 87.144531 78.015625 87.046875 78.703125 86.359375 L 86.480469 78.578125 C 87.171875 77.882812 87.261719 76.789062 86.6875 75.992188 L 79.691406 66.28125 C 80.878906 64.121094 81.820312 61.835938 82.507812 59.464844 L 94.34375 57.386719 C 95.300781 57.21875 95.996094 56.386719 95.996094 55.414062 L 95.996094 44.414062 C 95.996094 43.4375 95.289062 42.601562 94.320312 42.441406 Z M 50 64 C 42.269531 64 36 57.730469 36 50 C 36 42.269531 42.269531 36 50 36 C 57.730469 36 64 42.269531 64 50 C 64 57.730469 57.730469 64 50 64 Z M 50 64 "/>
</g>
</svg>
