<svg xmlns="http://www.w3.org/2000/svg" width="24" height="24" fill="none" viewBox="0 0 24 24">
    <path fill="#939393" stroke="#939393" stroke-linecap="round" stroke-linejoin="round" stroke-width="2" d="M18 8c1.657 0 3-1.343 3-3s-1.343-3-3-3-3 1.343-3 3 1.343 3 3 3zM6 15c1.657 0 3-1.343 3-3S7.657 9 6 9s-3 1.343-3 3 1.343 3 3 3zM18 22c1.657 0 3-1.343 3-3s-1.343-3-3-3-3 1.343-3 3 1.343 3 3 3z"/>
    <path stroke="#939393" stroke-linecap="round" stroke-linejoin="round" stroke-width="2" d="M8.59 13.51l6.83 3.98M15.41 6.51l-6.82 3.98"/>
</svg>
