<svg width="47" height="46" viewBox="0 0 47 46" fill="none" xmlns="http://www.w3.org/2000/svg">
<circle cx="23.4354" cy="22.736" r="22.736" fill="#425AF2"/>
<path d="M35.7623 17.4274C35.7042 16.058 35.4912 15.1166 35.1862 14.3009C34.8715 13.435 34.3873 12.6598 33.753 12.0154C33.1332 11.3609 32.3827 10.8524 31.5596 10.5302C30.7706 10.213 29.87 9.99159 28.553 9.93121C27.2263 9.86573 26.8051 9.85059 23.4401 9.85059C20.0752 9.85059 19.654 9.86573 18.3322 9.9261C17.0153 9.98648 16.1099 10.2081 15.3256 10.5251C14.4927 10.8524 13.7471 11.3558 13.1273 12.0154C12.4979 12.6598 12.009 13.4402 11.699 14.296C11.394 15.1166 11.181 16.0529 11.123 17.4222C11.06 18.8018 11.0454 19.2397 11.0454 22.7387C11.0454 26.2376 11.06 26.6755 11.118 28.0499C11.1761 29.4193 11.3892 30.3607 11.6943 31.1764C12.009 32.0423 12.4979 32.8175 13.1273 33.4619C13.7471 34.1164 14.4976 34.625 15.3207 34.9471C16.1099 35.2643 17.0103 35.4857 18.3274 35.5461C19.6491 35.6067 20.0704 35.6216 23.4354 35.6216C26.8004 35.6216 27.2216 35.6067 28.5434 35.5461C29.8603 35.4857 30.7657 35.2643 31.55 34.9471C33.2156 34.2775 34.5325 32.9081 35.1765 31.1764C35.4814 30.3557 35.6945 29.4193 35.7526 28.0499C35.8107 26.6755 35.8252 26.2376 35.8252 22.7387C35.8252 19.2397 35.8203 18.8018 35.7623 17.4274ZM33.5303 27.9493C33.477 29.2079 33.2737 29.8875 33.1042 30.3406C32.6878 31.4633 31.8308 32.3544 30.7511 32.7874C30.3153 32.9636 29.657 33.175 28.4513 33.2303C27.144 33.2908 26.752 33.3058 23.4451 33.3058C20.1381 33.3058 19.7412 33.2908 18.4386 33.2303C17.2282 33.175 16.5746 32.9636 16.1388 32.7874C15.6015 32.5809 15.1124 32.2537 14.7155 31.8257C14.3039 31.4079 13.9892 30.9044 13.7906 30.3457C13.6212 29.8926 13.4178 29.2079 13.3647 27.9544C13.3064 26.5951 13.2921 26.1872 13.2921 22.7487C13.2921 19.3101 13.3064 18.8974 13.3647 17.5432C13.4178 16.2846 13.6212 15.6049 13.7906 15.1518C13.9892 14.593 14.3039 14.0846 14.7204 13.6716C15.1221 13.2437 15.6062 12.9165 16.1438 12.7102C16.5795 12.534 17.238 12.3226 18.4436 12.2671C19.7508 12.2067 20.1431 12.1916 23.4498 12.1916C26.7616 12.1916 27.1537 12.2067 28.4562 12.2671C29.6666 12.3226 30.3203 12.534 30.756 12.7102C31.2933 12.9165 31.7824 13.2437 32.1794 13.6716C32.5909 14.0895 32.9057 14.593 33.1042 15.1518C33.2737 15.6049 33.477 16.2895 33.5303 17.5432C33.5884 18.9025 33.603 19.3101 33.603 22.7487C33.603 26.1872 33.5884 26.59 33.5303 27.9493Z" fill="white"/>
<path d="M23.4401 16.1184C19.9251 16.1184 17.0732 19.0836 17.0732 22.7386C17.0732 26.3937 19.9251 29.3589 23.4401 29.3589C26.9552 29.3589 29.8069 26.3937 29.8069 22.7386C29.8069 19.0836 26.9552 16.1184 23.4401 16.1184ZM23.4401 27.033C21.1597 27.033 19.3101 25.1099 19.3101 22.7386C19.3101 20.3674 21.1597 18.4443 23.4401 18.4443C25.7206 18.4443 27.5701 20.3674 27.5701 22.7386C27.5701 25.1099 25.7206 27.033 23.4401 27.033Z" fill="white"/>
<path d="M31.5453 15.8568C31.5453 16.7103 30.8798 17.4023 30.0588 17.4023C29.2379 17.4023 28.5724 16.7103 28.5724 15.8568C28.5724 15.0031 29.2379 14.3113 30.0588 14.3113C30.8798 14.3113 31.5453 15.0031 31.5453 15.8568Z" fill="white"/>
</svg>
