<svg width="53" height="53" viewBox="0 0 53 53" fill="none" xmlns="http://www.w3.org/2000/svg">
<circle cx="26.5" cy="26.5" r="26.5" fill="#425AF2"/>
<path fill-rule="evenodd" clip-rule="evenodd" d="M37.6876 15.3605C36.3104 13.9742 34.6718 12.8751 32.8668 12.1266C31.0617 11.3781 29.1261 10.9953 27.1721 11.0003C18.9782 11.0003 12.3079 17.669 12.3046 25.8661C12.3046 28.4859 12.9885 31.0427 14.2884 33.2982L12.1804 41.0002L20.0612 38.9319C22.2412 40.1186 24.6834 40.7408 27.1654 40.7419H27.1721C35.3643 40.7419 42.0346 34.0732 42.0379 25.8761C42.0435 23.9228 41.662 21.9878 40.9153 20.1829C40.1686 18.3779 39.0715 16.7389 37.6876 15.3605ZM27.1721 38.2331H27.1671C24.9539 38.2333 22.7814 37.6378 20.8776 36.5092L20.4272 36.2409L15.7507 37.468L16.9976 32.9091L16.7045 32.4421C15.4672 30.4721 14.8121 28.1924 14.815 25.8661C14.8184 19.0534 20.361 13.5108 27.177 13.5108C28.8003 13.5072 30.4082 13.8255 31.9076 14.4475C33.407 15.0694 34.7682 15.9826 35.9124 17.1341C37.0627 18.2801 37.9744 19.6427 38.5949 21.1432C39.2154 22.6437 39.5323 24.2523 39.5274 25.8761C39.5241 32.6888 33.9815 38.2331 27.1721 38.2331ZM33.95 28.9777C33.5774 28.7906 31.7525 27.8931 31.4114 27.7689C31.0719 27.6447 30.8252 27.5834 30.5768 27.9543C30.3284 28.3253 29.6163 29.1615 29.3994 29.4099C29.1824 29.6583 28.9655 29.6881 28.5946 29.5027C28.2236 29.3172 27.0263 28.9247 25.6071 27.6596C24.5026 26.6742 23.7574 25.4587 23.5405 25.0861C23.3235 24.7135 23.5173 24.5132 23.7044 24.3277C23.8717 24.1621 24.0754 23.8938 24.2608 23.6769C24.4463 23.46 24.5076 23.306 24.6318 23.0576C24.756 22.8092 24.6947 22.5922 24.6003 22.4067C24.5076 22.2196 23.764 20.3914 23.4544 19.6479C23.1546 18.9275 22.8483 19.0236 22.6197 19.0136C22.3831 19.0039 22.1462 18.9995 21.9093 19.0004C21.721 19.0052 21.5356 19.0488 21.3649 19.1286C21.1942 19.2084 21.0419 19.3226 20.9174 19.4641C20.5762 19.8367 19.6174 20.7342 19.6174 22.5624C19.6174 24.3906 20.9488 26.1576 21.1343 26.406C21.3198 26.6544 23.7541 30.4052 27.4801 32.0148C28.3677 32.3974 29.0599 32.6259 29.5981 32.7981C30.4874 33.0813 31.2971 33.0399 31.938 32.9455C32.6517 32.8395 34.1355 32.0479 34.4452 31.1802C34.7548 30.3125 34.7548 29.5689 34.6621 29.4133C34.5694 29.2576 34.3193 29.1632 33.95 28.9777Z" fill="white"/>
</svg>
