<svg xmlns="http://www.w3.org/2000/svg" width="24" height="24" fill="none" viewBox="0 0 24 24">
    <path stroke="#425AF2" stroke-linecap="round" stroke-linejoin="round" stroke-width="2" d="M16 8c1.591 0 3.117.632 4.243 1.757C21.368 10.883 22 12.41 22 14v7h-4v-7c0-.53-.21-1.04-.586-1.414C17.04 12.21 16.53 12 16 12c-.53 0-1.04.21-1.414.586C14.21 12.96 14 13.47 14 14v7h-4v-7c0-1.591.632-3.117 1.757-4.243C12.883 8.632 14.41 8 16 8v0zM6 9H2v12h4V9zM4 6c1.105 0 2-.895 2-2s-.895-2-2-2-2 .895-2 2 .895 2 2 2z"/>
</svg>
