<svg xmlns="http://www.w3.org/2000/svg" width="24" height="24" fill="none" viewBox="0 0 24 24">
    <path stroke="#425AF2" stroke-linecap="round" stroke-linejoin="round" stroke-width="2" d="M17 2H7C4.239 2 2 4.239 2 7v10c0 2.761 2.239 5 5 5h10c2.761 0 5-2.239 5-5V7c0-2.761-2.239-5-5-5z"/>
    <path stroke="#425AF2" stroke-linecap="round" stroke-linejoin="round" stroke-width="2" d="M16 11.37c.123.833-.019 1.683-.406 2.43-.388.746-1 1.352-1.752 1.73-.752.378-1.604.51-2.434.376-.83-.133-1.598-.526-2.193-1.12-.595-.595-.987-1.363-1.121-2.194-.134-.83-.002-1.682.376-2.433.379-.752.984-1.365 1.73-1.752.748-.388 1.598-.53 2.43-.407.849.126 1.635.522 2.242 1.129.607.606 1.002 1.392 1.128 2.241zM17.5 6.5h.01"/>
</svg>
