<svg width="29" height="23" viewBox="0 0 29 23" fill="none" xmlns="http://www.w3.org/2000/svg">
<path d="M25.4935 5.54556C25.5109 5.78893 25.5109 6.03235 25.5109 6.27572C25.5109 13.6988 19.861 22.2519 9.53471 22.2519C6.35338 22.2519 3.39807 21.3305 0.912109 19.7312C1.36412 19.7833 1.79868 19.8007 2.26808 19.8007C4.89306 19.8007 7.30951 18.9141 9.23917 17.4017C6.7706 17.3495 4.70187 15.7328 3.9891 13.5076C4.33681 13.5597 4.68448 13.5945 5.04958 13.5945C5.55371 13.5945 6.05789 13.5249 6.52723 13.4033C3.95437 12.8817 2.02466 10.6218 2.02466 7.89245V7.82293C2.77215 8.24016 3.64144 8.50092 4.56274 8.53565C3.0503 7.52734 2.05944 5.80632 2.05944 3.85927C2.05944 2.81623 2.33754 1.8601 2.82433 1.02565C5.58844 4.43296 9.7433 6.65811 14.4022 6.90153C14.3153 6.4843 14.2632 6.04974 14.2632 5.61512C14.2632 2.52069 16.7665 0 19.8783 0C21.495 0 22.9553 0.677985 23.981 1.77319C25.25 1.52983 26.4669 1.06043 27.5448 0.417225C27.1275 1.72107 26.2409 2.81628 25.0762 3.51161C26.2062 3.38998 27.3014 3.07699 28.3096 2.64243C27.5449 3.75497 26.5887 4.74584 25.4935 5.54556Z" fill="#425AF2"/>
</svg>
