<svg width="28" height="28" viewBox="0 0 28 28" fill="none" xmlns="http://www.w3.org/2000/svg">
<path d="M6.14213 27.7608H0.453248V9.22635H6.14213V27.7608ZM3.29463 6.69807C1.47551 6.69807 0 5.17367 0 3.33323C1.30205e-08 2.44921 0.347111 1.60138 0.964973 0.976282C1.58284 0.351179 2.42084 0 3.29463 0C4.16841 0 5.00641 0.351179 5.62428 0.976282C6.24214 1.60138 6.58925 2.44921 6.58925 3.33323C6.58925 5.17367 5.11313 6.69807 3.29463 6.69807ZM27.4338 27.7608H21.7571V18.7384C21.7571 16.5881 21.7143 13.8305 18.7994 13.8305C15.8416 13.8305 15.3884 16.1667 15.3884 18.5834V27.7608H9.70564V9.22635H15.1618V11.7546H15.2414C16.0009 10.2984 17.8561 8.76159 20.624 8.76159C26.3815 8.76159 27.4399 12.5974 27.4399 17.5796V27.7608H27.4338Z" fill="#425AF2"/>
</svg>
