<svg width="46" height="46" viewBox="0 0 46 46" fill="none" xmlns="http://www.w3.org/2000/svg">
<circle cx="23.264" cy="22.736" r="22.736" fill="#425AF2"/>
<path d="M39.123 15.3103C38.0541 15.7792 36.9151 16.09 35.7276 16.2409C36.9492 15.5115 37.8816 14.3653 38.32 12.9838C37.181 13.6629 35.9234 14.1425 34.5832 14.4102C33.5016 13.2586 31.9602 12.5454 30.2787 12.5454C27.0161 12.5454 24.3896 15.1935 24.3896 18.4398C24.3896 18.9069 24.4291 19.3561 24.5261 19.7837C19.627 19.5447 15.2919 17.1966 12.3798 13.6197C11.8713 14.5018 11.5731 15.5115 11.5731 16.5984C11.5731 18.6393 12.6241 20.4484 14.1907 21.4958C13.2439 21.4778 12.3151 21.2029 11.5282 20.77C11.5282 20.7879 11.5282 20.8113 11.5282 20.8346C11.5282 23.6983 13.5709 26.0769 16.2495 26.6249C15.7698 26.756 15.247 26.8189 14.7045 26.8189C14.3272 26.8189 13.9463 26.7973 13.5888 26.7183C14.3524 29.052 16.519 30.7677 19.0952 30.8234C17.0903 32.3918 14.5446 33.3367 11.7887 33.3367C11.3054 33.3367 10.8419 33.3152 10.3784 33.2559C12.9888 34.9392 16.0824 35.9004 19.4186 35.9004C30.2625 35.9004 36.1911 26.9177 36.1911 19.1315C36.1911 18.871 36.1821 18.6195 36.1695 18.3698C37.339 17.5398 38.3218 16.5032 39.123 15.3103Z" fill="white"/>
</svg>
