<svg xmlns="http://www.w3.org/2000/svg" width="24" height="24" fill="none" viewBox="0 0 24 24">
    <path stroke="#425AF2" stroke-linecap="round" stroke-linejoin="round" stroke-width="2" d="M23 3c-.958.675-2.018 1.191-3.14 1.53-.602-.693-1.403-1.184-2.293-1.407-.89-.223-1.828-.166-2.685.16-.857.328-1.594.91-2.109 1.67-.515.76-.785 1.659-.773 2.576v1c-1.757.046-3.499-.344-5.069-1.134-1.57-.79-2.92-1.957-3.931-3.396 0 0-4 9 5 13-2.06 1.398-4.513 2.1-7 2 9 5 20 0 20-11.5 0-.278-.028-.556-.08-.83C21.94 5.663 22.66 4.392 23 3v0z"/>
</svg>
