<svg width="30" height="30" viewBox="0 0 30 30" fill="none" xmlns="http://www.w3.org/2000/svg">
    <path d="M15 0C6.71549 0 0 6.82059 0 15.2347C0 22.3727 4.84049 28.3469 11.3656 30C11.2956 29.7934 11.25 29.5553 11.25 29.2594V26.6558C10.6413 26.6558 9.62077 26.6558 9.36523 26.6558C8.33822 26.6558 7.42676 26.2078 6.98405 25.3747C6.49251 24.449 6.40788 23.0339 5.19043 22.1677C4.8291 21.8801 5.10417 21.5511 5.51921 21.5958C6.28906 21.8156 6.92546 22.3512 7.52604 23.1464C8.12337 23.9431 8.40495 24.1233 9.52148 24.1233C10.0618 24.1233 10.8724 24.0919 11.6357 23.9696C12.0443 22.9116 12.7539 21.938 13.6198 21.4784C8.62467 20.956 6.24186 18.4334 6.24186 15.0066C6.24186 13.5304 6.86035 12.1038 7.91178 10.902C7.56673 9.70851 7.13216 7.27518 8.04362 6.34781C10.2913 6.34781 11.6504 7.82731 11.9759 8.22735C13.0957 7.83888 14.3262 7.61737 15.6185 7.61737C16.9141 7.61737 18.1494 7.83888 19.2708 8.23066C19.5931 7.83392 20.9538 6.34781 23.2064 6.34781C24.1211 7.27518 23.6833 9.72008 23.3333 10.9103C24.3783 12.1104 24.9935 13.5337 24.9935 15.0066C24.9935 18.4301 22.6139 20.9527 17.627 21.4767C18.999 22.2041 20 24.249 20 25.788V29.2594C20 29.3917 19.9707 29.4875 19.9561 29.6C25.8008 27.5187 30 21.8818 30 15.2347C30 6.82059 23.2845 0 15 0Z" fill="#425AF2"/>
</svg>
