<svg width="53" height="53" viewBox="0 0 53 53" fill="none" xmlns="http://www.w3.org/2000/svg">
<g clip-path="url(#clip0)">
<ellipse cx="26.5" cy="26.4999" rx="26.1964" ry="26.5" fill="#425AF2"/>
<path d="M38.1428 14.7222H14.8571C13.2416 14.7222 11.9464 16.0324 11.9464 17.6666V35.3332C11.9464 36.1142 12.253 36.8631 12.7989 37.4153C13.3447 37.9675 14.0851 38.2777 14.8571 38.2777H38.1428C38.9147 38.2777 39.6551 37.9675 40.201 37.4153C40.7468 36.8631 41.0535 36.1142 41.0535 35.3332V17.6666C41.0535 16.0324 39.7437 14.7222 38.1428 14.7222ZM33.7767 33.861H19.2231V30.9166H33.7767V33.861ZM33.7767 27.9721H19.2231V25.0277H33.7767V27.9721ZM38.1428 22.0833H33.7767V17.6666H38.1428" fill="white"/>
</g>
<defs>
<clipPath id="clip0">
<rect width="53" height="53" fill="white"/>
</clipPath>
</defs>
</svg>
