<svg width="46" height="46" viewBox="0 0 46 46" fill="none" xmlns="http://www.w3.org/2000/svg">
<circle cx="22.736" cy="22.736" r="22.736" fill="#425AF2"/>
<path d="M16.4401 34.1346H11.7138V18.9143H16.4401V34.1346ZM14.0744 16.8381C12.5634 16.8381 11.3373 15.5862 11.3373 14.0749C11.3373 12.5635 12.5634 11.3372 14.0744 11.3372C15.5854 11.3372 16.8115 12.5635 16.8115 14.0749C16.8115 15.5862 15.5854 16.8381 14.0744 16.8381ZM34.1296 34.1346H29.4134V26.7254C29.4134 24.9596 29.3778 22.6952 26.9561 22.6952C24.4988 22.6952 24.1224 24.6136 24.1224 26.5982V34.1346H19.4011V18.9143H23.9341V20.9904H24.0003C24.6311 19.7946 26.1727 18.5326 28.4722 18.5326C33.2546 18.5326 34.1347 21.6825 34.1347 25.7738V34.1346H34.1296Z" fill="white"/>
</svg>
