<svg width="53" height="53" viewBox="0 0 53 53" fill="none" xmlns="http://www.w3.org/2000/svg">
<ellipse cx="26.5" cy="26.4998" rx="26.1964" ry="26.5" fill="#425AF2"/>
<path d="M38.2749 23.0535C37.2991 23.0535 36.4403 23.4568 35.8093 24.0879C33.4868 22.481 30.3576 21.4466 26.8902 21.336L28.6922 13.217L34.4301 14.5052C34.4301 15.9104 35.5751 17.0553 36.9803 17.0553C38.4115 17.0553 39.563 15.8778 39.563 14.4726C39.563 13.0674 38.418 11.8899 36.9803 11.8899C35.9784 11.8899 35.1132 12.4949 34.6838 13.3211L28.3474 11.9159C28.0286 11.8314 27.7164 12.0591 27.6318 12.3778L25.6541 21.3295C22.2126 21.4726 19.116 22.507 16.787 24.1139C16.1559 23.4568 15.2647 23.0535 14.2888 23.0535C10.6717 23.0535 9.48773 27.9066 12.7991 29.5656C12.682 30.0795 12.6299 30.626 12.6299 31.1724C12.6299 36.6241 18.7712 41.0414 26.3112 41.0414C33.8837 41.0414 40.0249 36.6241 40.0249 31.1724C40.0249 30.626 39.9664 30.0535 39.8232 29.5395C43.0695 27.8741 41.8725 23.0535 38.2749 23.0535ZM18.0491 29.9104C18.0491 28.4791 19.1941 27.3277 20.6318 27.3277C22.037 27.3277 23.182 28.4726 23.182 29.9104C23.182 31.3156 22.037 32.4606 20.6318 32.4606C19.2006 32.4671 18.0491 31.3156 18.0491 29.9104ZM31.9905 35.9931C29.6225 38.3611 22.9413 38.3611 20.5732 35.9931C20.313 35.7654 20.313 35.362 20.5732 35.1018C20.8009 34.8741 21.2043 34.8741 21.432 35.1018C23.2405 36.9559 29.2387 36.9884 31.1253 35.1018C31.353 34.8741 31.7563 34.8741 31.984 35.1018C32.2508 35.362 32.2508 35.7654 31.9905 35.9931ZM31.9385 32.4671C30.5333 32.4671 29.3883 31.3221 29.3883 29.9169C29.3883 28.4856 30.5333 27.3342 31.9385 27.3342C33.3697 27.3342 34.5212 28.4791 34.5212 29.9169C34.5147 31.3156 33.3697 32.4671 31.9385 32.4671Z" fill="white"/>
</svg>
