<svg width="30" height="30" viewBox="0 0 30 30" fill="none" xmlns="http://www.w3.org/2000/svg">
<circle cx="15" cy="15" r="15" fill="#425AF2"/>
<g clip-path="url(#clip0)">
<path d="M22.2326 8.43236C20.7681 6.96786 18.3938 6.96786 16.9293 8.43233L13.7951 11.5665C12.2803 13.0814 12.4205 15.4952 13.7951 16.8698C14.0253 17.1 14.28 17.2877 14.5489 17.4419L15.121 16.8698C15.4961 16.4946 15.3641 16.0559 15.3573 15.7394C15.275 15.681 15.1949 15.6179 15.121 15.544C14.4156 14.8386 14.3838 13.6295 15.121 12.8923C15.2304 12.7829 18.1886 9.82464 18.2551 9.75821C18.9863 9.02699 20.1755 9.02699 20.9067 9.75821C21.638 10.4894 21.638 11.6786 20.9067 12.4099L18.8351 14.4815C18.895 14.813 19.2545 15.5982 19.0696 16.8934C19.0786 16.8846 19.0894 16.8788 19.0984 16.8699L22.2326 13.7357C23.6971 12.2712 23.6971 9.89686 22.2326 8.43236Z" fill="white"/>
<path d="M17.1107 13.5545C16.8805 13.3243 16.6258 13.1366 16.357 12.9824L15.7849 13.5545C15.4097 13.9296 15.5417 14.3683 15.5485 14.6848C15.6309 14.7432 15.711 14.8063 15.7849 14.8802C16.4903 15.5856 16.522 16.7948 15.7849 17.5319C15.6752 17.6416 12.472 20.8449 12.4079 20.909C11.6766 21.6402 10.4874 21.6402 9.7562 20.909C9.02498 20.1777 9.02498 18.9885 9.7562 18.2573L12.0708 15.9427C12.0109 15.6112 11.6513 14.826 11.8363 13.5308C11.8273 13.5397 11.8164 13.5455 11.8074 13.5544L8.43036 16.9315C6.96592 18.396 6.96592 20.7703 8.43036 22.2348C9.89486 23.6993 12.2691 23.6993 13.7336 22.2348L17.1107 18.8578C18.5975 17.371 18.5162 14.9599 17.1107 13.5545Z" fill="white"/>
</g>
<defs>
<clipPath id="clip0">
<rect width="16" height="16" fill="white" transform="translate(7.33203 7.33398)"/>
</clipPath>
</defs>
</svg>
