<svg width="24" height="24" viewBox="0 0 24 24" fill="none" xmlns="http://www.w3.org/2000/svg">
<path fill-rule="evenodd" clip-rule="evenodd" d="M1.00038 5.98262C1.00022 5.9925 1.0002 6.00238 1.00033 6.01225V18.0001C1.00033 19.6523 2.34805 21.0001 4.00033 21.0001H20.0003C21.6526 21.0001 23.0003 19.6523 23.0003 18.0001V6.01226C23.0005 6.0026 23.0004 5.99294 23.0003 5.98327C22.9912 4.33865 21.647 3.00006 20.0003 3.00006H4.00033C2.35386 3.00006 1.00982 4.3383 1.00038 5.98262ZM3.10693 5.55396C3.27232 5.22696 3.61239 5.00006 4.00033 5.00006H20.0003C20.3883 5.00006 20.7283 5.22696 20.8937 5.55396L12.0003 11.7793L3.10693 5.55396ZM21.0003 7.92066V18.0001C21.0003 18.5478 20.548 19.0001 20.0003 19.0001H4.00033C3.45261 19.0001 3.00033 18.5478 3.00033 18.0001V7.92066L11.4269 13.8192C11.7712 14.0603 12.2295 14.0603 12.5738 13.8192L21.0003 7.92066Z" fill="white"/>
</svg>
