<svg id="Layer_1" data-name="Layer 1" xmlns="http://www.w3.org/2000/svg" viewBox="0 0 960 960"><defs><style>.cls-1{fill:#425af2;}.cls-2{fill:#fff;}</style></defs><title>FP Logo</title><path class="cls-1" d="M895.62,240C763.1,10.5,469.58-68.15,240,64.38S-68.15,490.42,64.38,720s426,308.19,655.58,175.66S1028.15,469.58,895.62,240Z"/><path class="cls-2" d="M480.23,894.74C597.18,894.74,692,799.93,692,683S597.18,471.22,480.23,471.22,268.47,566,268.47,683,363.28,894.74,480.23,894.74ZM285.88,683c0-107.34,87-194.35,194.35-194.35s194.36,87,194.36,194.35-87,194.36-194.36,194.36S285.88,790.32,285.88,683Z"/><path class="cls-2" d="M839.35,687.28C897.83,586,863.13,456.49,761.85,398s-230.8-23.77-289.27,77.51S448.8,706.31,550.09,764.79,780.88,788.56,839.35,687.28ZM558.79,749.71c-93-53.66-124.81-172.53-71.14-265.49s172.53-124.81,265.49-71.14S878,585.62,824.28,678.58,651.75,803.38,558.79,749.71Z"/><path class="cls-2" d="M839.25,272.54c-58.48-101.29-188-136-289.27-77.51S414,383,472.47,484.3s188,136,289.27,77.51S897.72,373.82,839.25,272.54ZM753,546.73c-93,53.67-211.83,21.82-265.5-71.14S465.73,263.77,558.68,210.1s211.83-21.82,265.5,71.14S846,493.06,753,546.73Z"/><path class="cls-2" d="M663.41,374.12c-58.48-101.28-188-136-289.27-77.51s-136,188-77.51,289.27,188,136,289.27,77.51S721.88,475.4,663.41,374.12ZM577.2,648.32c-93,53.66-211.83,21.82-265.5-71.14s-21.82-211.83,71.14-265.5,211.83-21.82,265.5,71.14S670.15,594.65,577.2,648.32Z"/><path class="cls-2" d="M480,65.26c-116.95,0-211.76,94.81-211.76,211.76S363.07,488.78,480,488.78,691.78,394,691.78,277,597,65.26,480,65.26ZM674.37,277c0,107.34-87,194.35-194.35,194.35S285.67,384.36,285.67,277,372.68,82.67,480,82.67,674.37,169.68,674.37,277Z"/><path class="cls-2" d="M480.23,894.74C597.18,894.74,692,799.93,692,683S597.18,471.22,480.23,471.22,268.47,566,268.47,683,363.28,894.74,480.23,894.74ZM285.88,683c0-107.34,87-194.35,194.35-194.35s194.36,87,194.36,194.35-87,194.36-194.36,194.36S285.88,790.32,285.88,683Z"/><path class="cls-2" d="M480,65.26c-116.95,0-211.76,94.81-211.76,211.76S363.07,488.78,480,488.78,691.78,394,691.78,277,597,65.26,480,65.26ZM674.37,277c0,107.34-87,194.35-194.35,194.35S285.67,384.36,285.67,277,372.68,82.67,480,82.67,674.37,169.68,674.37,277Z"/><path class="cls-2" d="M120.9,272.72C62.42,374,97.12,503.51,198.4,562s230.8,23.77,289.27-77.51,23.78-230.79-77.51-289.27S179.37,171.44,120.9,272.72Zm280.56-62.43c93,53.67,124.81,172.53,71.14,265.49S300.06,600.59,207.11,546.92,82.3,374.38,136,281.42,308.5,156.62,401.46,210.29Z"/><path class="cls-2" d="M121,687.46c58.48,101.29,188,136,289.27,77.51s136-188,77.51-289.27-188-136-289.27-77.51S62.53,586.18,121,687.46Zm86.21-274.19c93-53.67,211.83-21.82,265.5,71.14s21.82,211.82-71.14,265.49-211.83,21.82-265.5-71.14S114.26,466.94,207.21,413.27Z"/></svg>